<svg width="50" height="52" viewBox="0 0 50 52" fill="none" xmlns="http://www.w3.org/2000/svg">
<path fill-rule="evenodd" clip-rule="evenodd" d="M38.6941 5.21648C35.9078 4.45657 33.2638 5.62921 31.0855 8.30547C28.8834 11.011 27.5195 14.8972 27.5195 18.379L22.5387 18.379C22.5387 14.8972 21.1748 11.011 18.9728 8.30544C16.7947 5.6292 14.1507 4.45657 11.3644 5.21648C9.46792 5.7337 8.4646 7.56018 8.74346 9.73486C9.01595 11.8599 10.4032 13.3981 12.5772 13.3981V18.379C7.28004 18.379 4.30897 14.3138 3.80305 10.3684C3.30349 6.47261 5.10169 1.7617 10.0538 0.411117C15.3616 -1.03645 19.8776 1.52656 22.8359 5.1613C23.6661 6.18134 24.4015 7.313 25.0291 8.51593C25.6569 7.31299 26.3922 6.18132 27.2225 5.16127C30.1808 1.52655 34.6969 -1.03645 40.0047 0.411117C44.9568 1.7617 46.755 6.47261 46.2555 10.3684C45.7495 14.3138 42.7785 18.379 37.4813 18.379V13.3981C39.6553 13.3981 41.0426 11.8599 41.315 9.73486C41.5939 7.56018 40.5906 5.7337 38.6941 5.21648Z" fill="#5CB2E4"/>
<path d="M49.3046 47.0761C49.0426 49.4131 47.3406 51.0787 45.0007 51.3134C41.6989 51.6445 35.6749 52 25.0292 52C14.3835 52 8.35959 51.6445 5.05775 51.3134C2.71783 51.0787 1.01588 49.4131 0.753853 47.0761C0.440442 44.2808 0.124887 39.5987 0.124883 32.0765C0.12488 24.5543 0.44044 19.8722 0.753848 17.0769C1.01588 14.7399 2.71783 13.0743 5.05775 12.8397C8.35959 12.5086 14.3835 12.153 25.0292 12.153C35.6749 12.153 41.6989 12.5086 45.0007 12.8397C47.3406 13.0743 49.0426 14.7399 49.3046 17.0769C49.618 19.8722 49.9336 24.5543 49.9336 32.0765C49.9336 39.5987 49.618 44.2808 49.3046 47.0761Z" fill="#B2C136"/>
<path fill-rule="evenodd" clip-rule="evenodd" d="M28.765 12.1686C27.5879 12.1585 26.3438 12.1531 25.0294 12.1531C23.7149 12.1531 22.4708 12.1585 21.2937 12.1686V28.3409L0.152944 28.3409C0.134903 29.5005 0.125 30.744 0.125 32.0766C0.125001 33.4091 0.134905 34.6526 0.152945 35.8122H21.2937V51.9845C22.4708 51.9946 23.7149 52 25.0294 52C26.3438 52 27.5879 51.9946 28.765 51.9845V35.8122H49.9058C49.9238 34.6526 49.9337 33.4091 49.9337 32.0766C49.9337 30.744 49.9238 29.5005 49.9058 28.3409L28.765 28.3409V12.1686Z" fill="#5CB2E4"/>
</svg>
