<svg width="58" height="60" viewBox="0 0 58 60" fill="none" xmlns="http://www.w3.org/2000/svg">
<g clip-path="url(#clip0_208_275)">
<path fill-rule="evenodd" clip-rule="evenodd" d="M44.6471 6.01902C41.4321 5.1422 38.3813 6.49524 35.8679 9.58324C33.327 12.705 31.7533 17.1891 31.7533 21.2065H26.0062C26.0062 17.1891 24.4325 12.705 21.8917 9.5832C19.3785 6.49523 16.3278 5.1422 13.1128 6.01902C10.9246 6.61581 9.76688 8.72329 10.0886 11.2325C10.4031 13.6845 12.0037 15.4593 14.5122 15.4593V21.2065C8.40008 21.2065 4.97192 16.5159 4.38817 11.9635C3.81175 7.4684 5.8866 2.03273 11.6006 0.474366C17.725 -1.1959 22.9357 1.76142 26.3491 5.95535C27.3071 7.13232 28.1556 8.43808 28.8798 9.82608C29.6041 8.43807 30.4526 7.13229 31.4106 5.95531C34.824 1.7614 40.0349 -1.1959 46.1593 0.474366C51.8733 2.03273 53.9481 7.4684 53.3718 11.9635C52.7879 16.5159 49.3598 21.2065 43.2477 21.2065V15.4593C45.7561 15.4593 47.3569 13.6845 47.6712 11.2325C47.993 8.72329 46.8353 6.61581 44.6471 6.01902Z" fill="#5CB2E4"/>
<path d="M56.8899 54.3183C56.5876 57.0149 54.6237 58.9367 51.9238 59.2075C48.1141 59.5896 41.1633 59.9998 28.8798 59.9998C16.5963 59.9998 9.64563 59.5896 5.83581 59.2075C3.1359 58.9367 1.17212 57.0149 0.869778 54.3183C0.50815 51.093 0.144048 45.6906 0.144043 37.0111C0.14404 28.3317 0.508147 22.9292 0.869772 19.7039C1.17212 17.0073 3.1359 15.0855 5.83581 14.8148C9.64563 14.4328 16.5963 14.0225 28.8798 14.0225C41.1633 14.0225 48.1141 14.4328 51.9238 14.8148C54.6237 15.0855 56.5876 17.0073 56.8899 19.7039C57.2515 22.9292 57.6156 28.3317 57.6156 37.0111C57.6156 45.6906 57.2515 51.093 56.8899 54.3183Z" fill="#B2C136"/>
<path fill-rule="evenodd" clip-rule="evenodd" d="M33.1904 14.0408C31.8323 14.0292 30.3968 14.0229 28.8801 14.0229C27.3634 14.0229 25.9279 14.0292 24.5697 14.0408V32.7012H0.17653C0.155714 34.0392 0.144287 35.474 0.144287 37.0116C0.144288 38.5491 0.155716 39.9839 0.176531 41.3219H24.5697V59.9823C25.9279 59.9939 27.3634 60.0001 28.8801 60.0001C30.3968 60.0001 31.8323 59.9939 33.1904 59.9823V41.3219H57.5837C57.6044 39.9839 57.6159 38.5491 57.6159 37.0116C57.6159 35.474 57.6044 34.0392 57.5837 32.7012H33.1904V14.0408Z" fill="#5CB2E4"/>
</g>
<defs>
<clipPath id="clip0_208_275">
<rect width="57.6923" height="60" fill="white"/>
</clipPath>
</defs>
</svg>
