<svg width="70" height="60" viewBox="0 0 70 60" fill="none" xmlns="http://www.w3.org/2000/svg">
<g clip-path="url(#clip0_208_289)">
<path d="M64.4011 33.6914C67.7262 28.2494 68.8081 21.5071 67.3618 15.2382C64.2718 0.958315 47.1603 -4.87681 36.5016 4.69274C35.6575 5.44555 34.9067 6.31348 34.0761 7.17888C33.2455 6.31349 32.4947 5.44557 31.6507 4.69274C20.992 -4.87681 3.88058 0.958315 0.790471 15.2382C-0.655822 21.5071 0.42597 28.2494 3.75124 33.6914C9.56997 43.2295 18.9523 50.6566 28.105 57.3874C31.6593 60.0013 36.493 60.0013 40.0474 57.3874C49.1999 50.6566 58.5822 43.2295 64.4011 33.6914Z" fill="#B2C136"/>
<path d="M66.0156 42.1927C67.8445 39.2119 68.4395 35.519 67.6441 32.0854C65.9446 24.2642 56.5333 21.0681 50.671 26.3095C50.2067 26.7218 49.7939 27.1973 49.3369 27.6713C48.8802 27.1973 48.4672 26.7218 48.003 26.3095C42.1407 21.0681 32.7295 24.2642 31.0299 32.0854C30.2344 35.519 30.8294 39.2119 32.6583 42.1927C35.7061 47.1679 40.5316 51.0944 45.3325 54.6415C47.7057 56.395 50.9683 56.395 53.3414 54.6415C58.1425 51.0944 62.9679 47.1679 66.0156 42.1927Z" fill="#5CB2E4"/>
</g>
<defs>
<clipPath id="clip0_208_289">
<rect width="69.1304" height="60" fill="white"/>
</clipPath>
</defs>
</svg>
