<svg width="53" height="46" viewBox="0 0 53 46" fill="none" xmlns="http://www.w3.org/2000/svg">
<path d="M49.3741 25.8301C51.9234 21.6579 52.7528 16.4888 51.644 11.6826C49.275 0.734703 36.1562 -3.73889 27.9845 3.59776C27.3374 4.17492 26.7618 4.84033 26.125 5.5038C25.4882 4.84034 24.9126 4.17493 24.2655 3.59776C16.0938 -3.73889 2.97508 0.734703 0.605995 11.6826C-0.502829 16.4888 0.326545 21.6579 2.87592 25.8301C7.33694 33.1426 14.5301 38.8367 21.5471 43.997C24.2721 46.001 27.9779 46.001 30.703 43.997C37.7199 38.8367 44.913 33.1426 49.3741 25.8301Z" fill="#B2C136"/>
<path d="M50.612 32.3476C52.0141 30.0623 52.4703 27.2311 51.8605 24.5987C50.5575 18.6024 43.3422 16.1521 38.8478 20.1705C38.4918 20.4866 38.1753 20.8511 37.825 21.2145C37.4748 20.8511 37.1582 20.4866 36.8023 20.1705C32.3079 16.1521 25.0926 18.6024 23.7896 24.5987C23.1797 27.2311 23.6359 30.0623 25.038 32.3476C27.3747 36.1619 31.0742 39.1722 34.7549 41.8917C36.5744 43.236 39.0757 43.236 40.8951 41.8917C44.5759 39.1722 48.2754 36.1619 50.612 32.3476Z" fill="#5CB2E4"/>
</svg>
