<svg width="54" height="60" viewBox="0 0 54 60" fill="none" xmlns="http://www.w3.org/2000/svg">
<g clip-path="url(#clip0_208_283)">
<path fill-rule="evenodd" clip-rule="evenodd" d="M7.88946 16.0669C7.25978 15.0039 5.93369 14.6809 4.92696 15.3456C3.91988 16.0105 3.61374 17.412 4.24315 18.4758L6.06663 17.2719C4.24315 18.4758 4.24393 18.4772 4.24393 18.4772L4.24724 18.4827L4.25397 18.494L4.27542 18.5296C4.29326 18.5592 4.3182 18.6001 4.35023 18.6519C4.41427 18.7555 4.50672 18.9027 4.62756 19.0894C4.86923 19.4628 5.22475 19.9945 5.69422 20.6516C6.63272 21.9652 8.02934 23.784 9.88534 25.8426C13.5924 29.9546 19.163 35.0583 26.6083 38.9909C27.2136 39.3107 27.9262 39.3107 28.5315 38.9909C35.9767 35.0583 41.5473 29.9546 45.2544 25.8426C47.1103 23.784 48.507 21.9652 49.4455 20.6516C49.915 19.9945 50.2705 19.4628 50.5122 19.0894C50.633 18.9027 50.7254 18.7555 50.7895 18.6519C50.8215 18.6001 50.8464 18.5592 50.8643 18.5296L50.8857 18.494L50.8925 18.4827L50.8958 18.4772C50.8958 18.4772 50.8965 18.4758 49.0731 17.2719L50.8965 18.4758C51.526 17.412 51.2198 16.0105 50.2128 15.3456C49.206 14.6809 47.8799 15.0039 47.2503 16.0669L47.2399 16.0841C47.2297 16.1009 47.2127 16.1289 47.1887 16.1677C47.1407 16.2452 47.0652 16.3657 46.9621 16.5251C46.7557 16.8439 46.4393 17.3178 46.0128 17.9148C45.1593 19.1093 43.8681 20.7927 42.1402 22.7093C38.8424 26.3672 33.9824 30.8437 27.5699 34.4063C21.1573 30.8437 16.2973 26.3672 12.9995 22.7093C11.2716 20.7927 9.98034 19.1093 9.12698 17.9148C8.70045 17.3178 8.38399 16.8439 8.17766 16.5251C8.07453 16.3657 7.99897 16.2452 7.95103 16.1677C7.92705 16.1289 7.90999 16.1009 7.89984 16.0841L7.88946 16.0669Z" fill="#5CB2E4"/>
<path fill-rule="evenodd" clip-rule="evenodd" d="M24.6853 35.7693V13.8462H29.3007V35.7693H24.6853Z" fill="#5CB2E4"/>
<path d="M2.43992 19.0297C1.35407 19.2707 0.240412 18.4004 0.490015 17.3113C2.74568 7.46936 13.7535 0 26.993 0C40.2327 0 51.2404 7.46936 53.496 17.3113C53.7457 18.4004 52.632 19.2707 51.5462 19.0297C48.8091 18.4224 44.8542 18.0408 40.456 18.0408C34.969 18.0408 30.1719 18.6346 27.5687 19.5201C27.195 19.6472 26.7911 19.6472 26.4174 19.5201C23.8143 18.6346 19.0171 18.0408 13.53 18.0408C9.13186 18.0408 5.17696 18.4224 2.43992 19.0297Z" fill="#5CB2E4"/>
<path d="M10.0968 37.2882C10.2819 35.686 11.4268 34.51 13.0209 34.2656C15.4427 33.8943 19.9088 33.4614 27.5699 33.4614C35.231 33.4614 39.6972 33.8943 42.1188 34.2656C43.7131 34.51 44.8579 35.686 45.043 37.2882C45.2511 39.0885 45.4546 42.0467 45.4546 46.7307C45.4546 51.4147 45.2511 54.3728 45.043 56.1732C44.8579 57.7754 43.7131 58.9514 42.1188 59.1958C39.6972 59.5671 35.231 59.9999 27.5699 59.9999C19.9088 59.9999 15.4427 59.5671 13.0209 59.1958C11.4268 58.9514 10.2819 57.7754 10.0968 56.1732C9.88876 54.3728 9.6853 51.4147 9.6853 46.7307C9.6853 42.0467 9.88876 39.0885 10.0968 37.2882Z" fill="#B2C136"/>
<path fill-rule="evenodd" clip-rule="evenodd" d="M40.0927 49.5083C40.5277 49.4721 40.8392 49.1073 40.8392 48.6708V47.0984C40.8392 46.6619 40.5277 46.2971 40.0927 46.2609C39.4748 46.2094 38.4299 46.1538 36.8008 46.1538C35.1716 46.1538 34.1267 46.2094 33.5088 46.2609C33.0738 46.2971 32.7623 46.6619 32.7623 47.0984V48.6708C32.7623 49.1073 33.0738 49.4721 33.5088 49.5083C34.1267 49.5597 35.1716 49.6154 36.8008 49.6154C38.4299 49.6154 39.4748 49.5597 40.0927 49.5083ZM39.9921 55.2991C40.4699 55.2792 40.8392 54.8851 40.8392 54.4069V54.0545C40.8392 53.5764 40.4699 53.1823 39.9921 53.1624C39.0966 53.1251 37.4908 53.0769 35.1749 53.0769C33.1435 53.0769 31.9317 53.114 31.2455 53.1483C30.7913 53.171 30.4546 53.5443 30.4546 53.9991V54.4624C30.4546 54.9172 30.7913 55.2905 31.2455 55.3132C31.9317 55.3474 33.1435 55.3846 35.1749 55.3846C37.4908 55.3846 39.0966 55.3364 39.9921 55.2991Z" fill="#5CB2E4"/>
</g>
<defs>
<clipPath id="clip0_208_283">
<rect width="53.6364" height="60" fill="white"/>
</clipPath>
</defs>
</svg>
