<svg width="59" height="66" viewBox="0 0 59 66" fill="none" xmlns="http://www.w3.org/2000/svg">
<path fill-rule="evenodd" clip-rule="evenodd" d="M8.67853 17.6736C7.98588 16.5043 6.52718 16.149 5.41978 16.8802C4.31199 17.6116 3.97523 19.1532 4.66759 20.3234L6.67341 18.9991C4.66759 20.3234 4.66844 20.3249 4.66844 20.3249L4.67208 20.331L4.67949 20.3434L4.70308 20.3826C4.72271 20.4151 4.75014 20.4601 4.78537 20.5171C4.85582 20.6311 4.95751 20.793 5.09044 20.9984C5.35627 21.4091 5.74734 21.994 6.26376 22.7168C7.29611 24.1618 8.8324 26.1624 10.874 28.4269C14.9518 32.9501 21.0794 38.5642 29.2692 42.89C29.9351 43.2418 30.7189 43.2418 31.3848 42.89C39.5745 38.5642 45.7021 32.9501 49.78 28.4269C51.8215 26.1624 53.3578 24.1618 54.3902 22.7168C54.9066 21.994 55.2977 21.4091 55.5635 20.9984C55.6964 20.793 55.7981 20.6311 55.8686 20.5171C55.9038 20.4601 55.9312 20.4151 55.9509 20.3826L55.9744 20.3434L55.9819 20.331L55.9855 20.3249C55.9855 20.3249 55.9863 20.3234 53.9805 18.9991L55.9863 20.3234C56.6787 19.1532 56.3419 17.6116 55.2342 16.8802C54.1267 16.149 52.668 16.5043 51.9754 17.6736L51.964 17.6925C51.9528 17.711 51.9341 17.7418 51.9077 17.7845C51.8549 17.8698 51.7718 18.0023 51.6584 18.1776C51.4314 18.5283 51.0833 19.0496 50.6142 19.7063C49.6754 21.0203 48.255 22.872 46.3543 24.9803C42.7268 29.004 37.3808 33.9281 30.327 37.847C23.2731 33.9281 17.9271 29.004 14.2996 24.9803C12.3989 22.872 10.9785 21.0203 10.0398 19.7063C9.57062 19.0496 9.22251 18.5283 8.99555 18.1776C8.8821 18.0023 8.79899 17.8698 8.74625 17.7845C8.71988 17.7418 8.70111 17.711 8.68994 17.6925L8.67853 17.6736L8.67763 17.6721L8.67853 17.6736ZM8.67853 17.6736L8.67763 17.6721L8.67853 17.6736Z" fill="#5CB2E4"/>
<path fill-rule="evenodd" clip-rule="evenodd" d="M27.1538 39.3461V15.2307H32.2307V39.3461H27.1538Z" fill="#5CB2E4"/>
<path d="M2.68386 20.9327C1.48943 21.1978 0.264404 20.2404 0.538968 19.0424C3.0202 8.2163 15.1288 0 29.6923 0C44.2559 0 56.3644 8.2163 58.8456 19.0424C59.1202 20.2404 57.8952 21.1978 56.7008 20.9327C53.69 20.2646 49.3396 19.8449 44.5016 19.8449C38.4658 19.8449 33.189 20.4981 30.3255 21.4721C29.9145 21.6119 29.4702 21.6119 29.0591 21.4721C26.1957 20.4981 20.9188 19.8449 14.883 19.8449C10.045 19.8449 5.69461 20.2646 2.68386 20.9327Z" fill="#5CB2E4"/>
<path d="M11.1064 41.0171C11.3101 39.2547 12.5694 37.9611 14.323 37.6923C16.9869 37.2839 21.8997 36.8077 30.3269 36.8077C38.7541 36.8077 43.6669 37.2839 46.3307 37.6923C48.0844 37.9611 49.3437 39.2547 49.5473 41.0171C49.7762 42.9975 50 46.2515 50 51.4039C50 56.5563 49.7762 59.8102 49.5473 61.7907C49.3437 63.5531 48.0844 64.8467 46.3307 65.1155C43.6669 65.5239 38.7541 66 30.3269 66C21.8997 66 16.9869 65.5239 14.323 65.1155C12.5694 64.8467 11.3101 63.5531 11.1064 61.7907C10.8776 59.8102 10.6538 56.5563 10.6538 51.4039C10.6538 46.2515 10.8776 42.9975 11.1064 41.0171Z" fill="#B2C136"/>
<path fill-rule="evenodd" clip-rule="evenodd" d="M44.1019 54.4593C44.5804 54.4195 44.9231 54.0182 44.9231 53.5381V51.8085C44.9231 51.3283 44.5804 50.927 44.1019 50.8872C43.4222 50.8306 42.2728 50.7694 40.4808 50.7694C38.6887 50.7694 37.5393 50.8306 36.8596 50.8872C36.3811 50.927 36.0385 51.3283 36.0385 51.8085L36.0385 53.5381C36.0385 54.0182 36.3811 54.4195 36.8596 54.4593C37.5393 54.5159 38.6887 54.5771 40.4808 54.5771C42.2728 54.5771 43.4222 54.5159 44.1019 54.4593ZM43.9913 60.8292C44.5168 60.8073 44.9231 60.3738 44.9231 59.8478V59.4602C44.9231 58.9342 44.5168 58.5007 43.9913 58.4789C43.0062 58.4378 41.2398 58.3848 38.6923 58.3848C36.4578 58.3848 35.1248 58.4256 34.37 58.4633C33.8704 58.4883 33.5 58.8989 33.5 59.3992V59.9089C33.5 60.4091 33.8704 60.8198 34.37 60.8447C35.1248 60.8824 36.4578 60.9233 38.6923 60.9233C41.2398 60.9233 43.0062 60.8702 43.9913 60.8292Z" fill="#5CB2E4"/>
</svg>
