<svg width="64" height="60" viewBox="0 0 64 60" fill="none" xmlns="http://www.w3.org/2000/svg">
<g clip-path="url(#clip0_208_279)">
<path d="M32.8949 57.2547C32.0208 59.9124 28.2613 59.9124 27.3873 57.2547L23.7827 46.2946C23.495 45.4201 22.8091 44.7341 21.9345 44.4465L10.9745 40.8419C8.31678 39.9678 8.31679 36.2083 10.9745 35.3343L21.9345 31.7297C22.8091 31.442 23.495 30.7561 23.7827 29.8815L27.3873 18.9215C28.2613 16.2638 32.0208 16.2638 32.8949 18.9215L36.4995 29.8815C36.7871 30.7561 37.473 31.442 38.3476 31.7297L49.3077 35.3343C51.9653 36.2083 51.9653 39.9678 49.3077 40.842L38.3476 44.4465C37.473 44.7341 36.7871 45.4201 36.4995 46.2946L32.8949 57.2547Z" fill="#B2C136"/>
<path d="M50.2907 26.9022C49.7159 28.6501 47.2434 28.6501 46.6686 26.9022L44.2508 19.5509C44.0616 18.9757 43.6106 18.5246 43.0354 18.3354L35.6839 15.9177C33.9361 15.3428 33.9361 12.8703 35.6839 12.2956L43.0354 9.87776C43.6106 9.68859 44.0616 9.23748 44.2508 8.66231L46.6686 1.31088C47.2434 -0.436959 49.7159 -0.436958 50.2907 1.31088L52.7084 8.66231C52.8976 9.23748 53.3488 9.68859 53.9239 9.87776L61.2753 12.2956C63.0232 12.8703 63.0232 15.3428 61.2753 15.9177L53.9239 18.3354C53.3488 18.5246 52.8976 18.9757 52.7084 19.5509L50.2907 26.9022Z" fill="#5CB2E4"/>
<path d="M11.7716 27.2145C11.3337 28.5459 9.45021 28.5459 9.01231 27.2145L7.3862 22.2701C7.2421 21.832 6.89845 21.4884 6.4603 21.3443L1.51592 19.7181C0.18447 19.2803 0.184471 17.3968 1.51593 16.9589L6.4603 15.3328C6.89845 15.1887 7.2421 14.845 7.3862 14.4068L9.01231 9.46246C9.45021 8.131 11.3337 8.131 11.7716 9.46246L13.3977 14.4068C13.5418 14.845 13.8854 15.1887 14.3235 15.3328L19.268 16.9589C20.5994 17.3968 20.5994 19.2803 19.268 19.7181L14.3235 21.3443C13.8854 21.4884 13.5418 21.832 13.3977 22.2701L11.7716 27.2145Z" fill="#5CB2E4"/>
</g>
<defs>
<clipPath id="clip0_208_279">
<rect width="63.1035" height="60" fill="white"/>
</clipPath>
</defs>
</svg>
