<svg width="61" height="58" viewBox="0 0 61 58" fill="none" xmlns="http://www.w3.org/2000/svg">
<path d="M31.7985 55.346C30.9535 57.9151 27.3193 57.9151 26.4744 55.346L22.99 44.7513C22.7119 43.9059 22.0489 43.2428 21.2034 42.9648L10.6087 39.4803C8.03961 38.6354 8.03962 35.0012 10.6087 34.1563L21.2034 30.6719C22.0489 30.3938 22.7119 29.7307 22.99 28.8853L26.4744 18.2906C27.3193 15.7215 30.9535 15.7215 31.7985 18.2906L35.2829 28.8853C35.5609 29.7307 36.224 30.3938 37.0694 30.6719L47.6642 34.1563C50.2332 35.0012 50.2332 38.6354 47.6642 39.4804L37.0694 42.9648C36.224 43.2428 35.5609 43.9059 35.2829 44.7513L31.7985 55.346Z" fill="#B2C136"/>
<path d="M48.6144 26.0055C48.0587 27.6951 45.6686 27.6951 45.113 26.0055L42.7758 18.8992C42.5929 18.3432 42.1569 17.9071 41.6009 17.7242L34.4945 15.3871C32.8049 14.8314 32.8049 12.4413 34.4945 11.8857L41.6009 9.5485C42.1569 9.36564 42.5929 8.92956 42.7758 8.37357L45.113 1.26718C45.6686 -0.422395 48.0587 -0.422394 48.6144 1.26718L50.9515 8.37357C51.1344 8.92956 51.5705 9.36564 52.1265 9.5485L59.2328 11.8857C60.9224 12.4413 60.9224 14.8314 59.2328 15.3871L52.1265 17.7242C51.5705 17.9071 51.1344 18.3432 50.9515 18.8992L48.6144 26.0055Z" fill="#5CB2E4"/>
<path d="M11.3791 26.3074C10.9558 27.5944 9.13511 27.5944 8.71181 26.3074L7.1399 21.5278C7.00061 21.1043 6.66841 20.7721 6.24487 20.6328L1.4653 19.0609C0.178231 18.6376 0.178232 16.8169 1.46531 16.3936L6.24487 14.8217C6.66841 14.6824 7.00061 14.3502 7.1399 13.9266L8.71181 9.14707C9.13511 7.85999 10.9558 7.85999 11.3791 9.14707L12.951 13.9266C13.0903 14.3502 13.4225 14.6824 13.846 14.8217L18.6256 16.3936C19.9127 16.8169 19.9127 18.6376 18.6256 19.0609L13.846 20.6328C13.4225 20.7721 13.0903 21.1043 12.951 21.5278L11.3791 26.3074Z" fill="#5CB2E4"/>
</svg>
