<svg width="20" height="20" viewBox="0 0 25 25" fill="none" xmlns="http://www.w3.org/2000/svg">
    <path
        d="M23.9112 21.512L19.0897 9.83309C19.0006 9.61741 18.8496 9.43301 18.6556 9.30327C18.4617 9.17352 18.2336 9.10426 18.0003 9.10426C17.7669 9.10426 17.5388 9.17352 17.3449 9.30327C17.151 9.43301 16.9999 9.61741 16.9109 9.83309L12.0893 21.512C12.0293 21.6552 11.9983 21.8089 11.9979 21.9641C11.9975 22.1194 12.0278 22.2732 12.087 22.4167C12.1462 22.5603 12.2332 22.6907 12.343 22.8005C12.4528 22.9103 12.5832 22.9973 12.7267 23.0565C12.8702 23.1158 13.024 23.1461 13.1793 23.1457C13.3346 23.1453 13.4882 23.1143 13.6315 23.0544C13.7747 22.9944 13.9047 22.9068 14.0139 22.7964C14.1232 22.6861 14.2096 22.5553 14.2681 22.4115L15.2501 20.0334H20.7504L21.7324 22.4115C21.8214 22.6273 21.9725 22.8118 22.1665 22.9416C22.3605 23.0714 22.5887 23.1406 22.8221 23.1406C23.0158 23.1405 23.2064 23.0927 23.3772 23.0013C23.548 22.91 23.6936 22.778 23.8013 22.617C23.9089 22.456 23.9752 22.2709 23.9943 22.0782C24.0133 21.8855 23.9847 21.691 23.9107 21.512H23.9112ZM16.2235 17.6762L18.0005 13.3716L19.7775 17.6762H16.2235ZM12.6347 16.654C12.8178 16.4011 12.893 16.0858 12.8439 15.7775C12.7948 15.4691 12.6253 15.1928 12.3727 15.0093C12.362 15.0013 11.5691 14.413 10.4178 13.1487C12.542 10.2729 13.7452 7.00121 14.236 5.46153H15.9648C16.2773 5.46153 16.5771 5.33735 16.7982 5.11632C17.0192 4.89529 17.1434 4.59551 17.1434 4.28292C17.1434 3.97033 17.0192 3.67055 16.7982 3.44952C16.5771 3.22849 16.2773 3.10431 15.9648 3.10431H9.75029V2.03285C9.75029 1.72027 9.62611 1.42049 9.40508 1.19945C9.18405 0.978422 8.88427 0.854248 8.57168 0.854248C8.2591 0.854248 7.95931 0.978422 7.73828 1.19945C7.51725 1.42049 7.39307 1.72027 7.39307 2.03285V3.10431H1.17861C0.86602 3.10431 0.566237 3.22849 0.345206 3.44952C0.124174 3.67055 0 3.97033 0 4.28292C0 4.59551 0.124174 4.89529 0.345206 5.11632C0.566237 5.33735 0.86602 5.46153 1.17861 5.46153H11.7459C11.2359 6.90532 10.2967 9.18485 8.86419 11.2667C7.18146 9.03378 6.55626 7.58891 6.55144 7.57713C6.42825 7.29243 6.19779 7.06778 5.91005 6.9519C5.6223 6.83602 5.30047 6.83825 5.01436 6.95811C4.72825 7.07797 4.50092 7.30579 4.38169 7.59217C4.26246 7.87854 4.26094 8.20038 4.37745 8.48787C4.40852 8.5618 5.15694 10.3217 7.20932 12.9842C7.25861 13.048 7.30736 13.1101 7.35611 13.1723C5.2539 15.5483 3.19134 17.022 2.32828 17.4978C2.05385 17.6475 1.85011 17.9 1.7619 18.1999C1.67369 18.4998 1.70823 18.8225 1.85791 19.0969C2.0076 19.3714 2.26017 19.5751 2.56007 19.6633C2.85997 19.7515 3.18263 19.717 3.45707 19.5673C3.57278 19.5041 6.06071 18.1267 8.90169 14.982C10.1082 16.272 10.9375 16.8806 10.9873 16.916C11.1126 17.007 11.2547 17.0725 11.4054 17.1086C11.5561 17.1446 11.7124 17.1507 11.8654 17.1263C12.0184 17.1019 12.1651 17.0476 12.2971 16.9665C12.4291 16.8853 12.5438 16.779 12.6347 16.6535V16.654Z"
        fill="#121629" />
</svg>