<svg width="327" height="327" viewBox="0 0 327 327" fill="none" xmlns="http://www.w3.org/2000/svg">
<path d="M226.617 53.628C226.617 53.628 188.921 30.2541 146.757 46.0024C104.594 61.7507 78.6107 105.137 56.6559 139.642C34.7011 174.147 39.2399 214.898 66.6687 238.789C94.0974 262.679 117.759 240.907 159.667 248.396C201.576 255.884 211.948 264.589 249.919 246.754C287.891 228.92 302.05 170.956 280.566 121.356C259.082 71.7569 226.617 53.628 226.617 53.628Z" fill="#F5E356"/>
<path opacity="0.7" d="M226.617 53.628C226.617 53.628 188.921 30.2541 146.757 46.0024C104.594 61.7507 78.6107 105.137 56.6559 139.642C34.7011 174.147 39.2399 214.898 66.6687 238.789C94.0974 262.679 117.759 240.907 159.667 248.396C201.576 255.884 211.948 264.589 249.919 246.754C287.891 228.92 302.05 170.956 280.566 121.356C259.082 71.7569 226.617 53.628 226.617 53.628Z" fill="white"/>
<path d="M203.852 84.3659C203.198 80.867 201.792 75.4977 199.202 73.6796C195.278 70.9132 191.289 76.8449 186.541 77.6036C181.792 78.3622 189.307 62.9671 181.001 60.1941C172.695 57.4211 170.315 67.7151 167.542 72.4631C164.769 77.2112 160.819 70.5011 157.254 71.6718C153.69 72.8425 155.672 79.1863 152.114 79.9776C148.556 80.7689 142.618 76.0209 139.845 78.7939C137.229 81.4099 137.079 81.92 133.305 84.3332L203.852 84.3659Z" fill="#F5E356"/>
<path d="M95.5495 177.594C95.1179 175.305 94.2023 171.786 92.5019 170.596C89.8859 168.784 87.3222 172.669 84.2091 173.212C81.0961 173.755 86.0207 163.618 80.5794 161.806C75.1382 159.995 73.5816 166.731 71.7701 169.837C69.9585 172.944 67.3621 168.529 65.0273 169.321C62.6925 170.112 63.994 174.245 61.6592 174.762C59.3244 175.278 55.4397 172.146 53.6216 173.99C51.9015 175.71 51.81 176.031 49.364 177.613L95.5495 177.594Z" fill="#F5E356"/>
<path d="M285.595 157.038C284.287 149.988 281.429 139.145 276.21 135.456C268.225 129.871 260.246 141.839 250.704 143.435C241.163 145.031 256.29 113.914 239.534 108.328C222.779 102.743 217.985 123.488 212.4 133.063C206.815 142.637 198.816 129.106 191.622 131.5C184.428 133.893 188.431 146.666 181.25 148.262C174.069 149.857 162.087 140.276 156.502 145.842C151.198 151.146 150.917 152.14 143.383 157.012L285.595 157.038Z" fill="#F5E356"/>
<path opacity="0.4" d="M203.852 84.3659C203.198 80.867 201.792 75.4977 199.202 73.6796C195.278 70.9132 191.289 76.8449 186.541 77.6036C181.792 78.3622 189.307 62.9671 181.001 60.1941C172.695 57.4211 170.315 67.7151 167.542 72.4631C164.769 77.2112 160.819 70.5011 157.254 71.6718C153.69 72.8425 155.672 79.1863 152.114 79.9776C148.556 80.7689 142.618 76.0209 139.845 78.7939C137.229 81.4099 137.079 81.92 133.305 84.3332L203.852 84.3659Z" fill="white"/>
<path opacity="0.4" d="M95.5495 177.594C95.1179 175.305 94.2023 171.786 92.5019 170.596C89.8859 168.784 87.3222 172.669 84.2091 173.212C81.0961 173.755 86.0207 163.618 80.5794 161.806C75.1382 159.995 73.5816 166.731 71.7701 169.837C69.9585 172.944 67.3621 168.529 65.0273 169.321C62.6925 170.112 63.994 174.245 61.6592 174.762C59.3244 175.278 55.4397 172.146 53.6216 173.99C51.9015 175.71 51.81 176.031 49.364 177.613L95.5495 177.594Z" fill="white"/>
<path opacity="0.4" d="M285.595 157.038C284.287 149.988 281.429 139.145 276.21 135.456C268.225 129.871 260.246 141.839 250.704 143.435C241.163 145.031 256.29 113.914 239.534 108.328C222.779 102.743 217.985 123.488 212.4 133.063C206.815 142.637 198.816 129.106 191.622 131.5C184.428 133.893 188.431 146.666 181.25 148.262C174.069 149.857 162.087 140.276 156.502 145.842C151.198 151.146 150.917 152.14 143.383 157.012L285.595 157.038Z" fill="white"/>
<path d="M242.301 256.728C242.301 256.728 251.195 257.611 255.708 263.124C257.327 261.16 259.362 259.58 261.666 258.498C263.969 257.416 266.484 256.858 269.03 256.865C271.119 254.342 272.45 251.278 272.865 248.029C273.281 244.779 272.765 241.479 271.378 238.511C269.991 235.544 267.789 233.031 265.029 231.266C262.27 229.501 259.065 228.557 255.79 228.542C252.514 228.528 249.301 229.444 246.526 231.185C243.751 232.925 241.527 235.418 240.114 238.374C238.7 241.329 238.156 244.625 238.543 247.878C238.93 251.13 240.233 254.206 242.301 256.747V256.728Z" fill="#F5E356"/>
<path opacity="0.3" d="M242.301 256.728C242.301 256.728 251.195 257.611 255.708 263.124C257.327 261.16 259.362 259.58 261.666 258.498C263.969 257.416 266.484 256.858 269.03 256.865C271.119 254.342 272.45 251.278 272.865 248.029C273.281 244.779 272.765 241.479 271.378 238.511C269.991 235.544 267.789 233.031 265.029 231.266C262.27 229.501 259.065 228.557 255.79 228.542C252.514 228.528 249.301 229.444 246.526 231.185C243.751 232.925 241.527 235.418 240.114 238.374C238.7 241.329 238.156 244.625 238.543 247.878C238.93 251.13 240.233 254.206 242.301 256.747V256.728Z" fill="white"/>
<path d="M255.413 229.757L255.112 274.36H256.617L255.413 229.757Z" fill="#263238"/>
<path d="M255.865 261.443C255.865 261.443 258.866 256.041 264.275 254.386C264.275 254.386 258.566 255.74 255.714 260.39L255.865 261.443Z" fill="#263238"/>
<path d="M255.865 246.126C255.865 246.126 258.866 240.724 264.275 239.07C264.275 239.07 258.566 240.424 255.714 245.074L255.865 246.126Z" fill="#263238"/>
<path d="M255.865 253.785C255.865 253.785 258.866 248.383 264.275 246.728C264.275 246.728 258.566 248.082 255.714 252.732L255.865 253.785Z" fill="#263238"/>
<path d="M255.42 250.031C255.42 250.031 252.523 244.629 247.304 242.974C247.304 242.974 252.81 244.328 255.564 248.978L255.42 250.031Z" fill="#263238"/>
<path d="M255.42 257.539C255.42 257.539 252.523 252.137 247.304 250.482C247.304 250.482 252.81 251.836 255.564 256.486L255.42 257.539Z" fill="#263238"/>
<path d="M209.241 246.506C209.241 246.506 221.15 247.689 227.193 255.073C227.193 255.073 233.57 246.519 245.028 246.689C247.828 243.311 249.61 239.207 250.168 234.855C250.726 230.504 250.037 226.083 248.179 222.108C246.322 218.133 243.374 214.767 239.679 212.403C235.983 210.038 231.691 208.772 227.304 208.752C222.917 208.732 218.614 209.959 214.897 212.29C211.179 214.62 208.201 217.959 206.307 221.917C204.414 225.875 203.684 230.289 204.202 234.645C204.72 239.002 206.465 243.122 209.234 246.525L209.241 246.506Z" fill="#F5E356"/>
<path opacity="0.5" d="M209.241 246.506C209.241 246.506 221.15 247.689 227.193 255.073C227.193 255.073 233.57 246.519 245.028 246.689C247.828 243.311 249.61 239.207 250.168 234.855C250.726 230.504 250.037 226.083 248.179 222.108C246.322 218.133 243.374 214.767 239.679 212.403C235.983 210.038 231.691 208.772 227.304 208.752C222.917 208.732 218.614 209.959 214.897 212.29C211.179 214.62 208.201 217.959 206.307 221.917C204.414 225.875 203.684 230.289 204.202 234.645C204.72 239.002 206.465 243.122 209.234 246.525L209.241 246.506Z" fill="white"/>
<path d="M226.794 210.392L226.395 270.115H228.403L226.794 210.392Z" fill="#263238"/>
<path d="M227.402 252.823C227.402 252.823 231.425 245.584 238.664 243.373C238.664 243.373 231.019 245.178 227.2 251.411L227.402 252.823Z" fill="#263238"/>
<path d="M227.402 232.307C227.402 232.307 231.425 225.068 238.664 222.857C238.664 222.857 231.019 224.669 227.2 230.901L227.402 232.307Z" fill="#263238"/>
<path d="M227.402 242.569C227.402 242.569 231.425 235.329 238.664 233.112C238.664 233.112 231.019 234.923 227.2 241.156L227.402 242.569Z" fill="#263238"/>
<path d="M226.807 237.539C226.807 237.539 222.922 230.3 215.938 228.089C215.938 228.089 223.308 229.894 226.997 236.133L226.807 237.539Z" fill="#263238"/>
<path d="M226.807 247.591C226.807 247.591 222.922 240.352 215.938 238.141C215.938 238.141 223.308 239.953 226.997 246.185L226.807 247.591Z" fill="#263238"/>
<path d="M105.235 246.192C105.235 246.192 117.432 247.395 123.613 254.955C123.613 254.955 130.153 246.198 141.872 246.381C144.742 242.924 146.57 238.723 147.144 234.267C147.717 229.811 147.013 225.284 145.113 221.213C143.213 217.142 140.195 213.694 136.411 211.272C132.627 208.85 128.233 207.553 123.74 207.532C119.248 207.512 114.841 208.768 111.035 211.155C107.229 213.541 104.179 216.961 102.241 221.014C100.304 225.067 99.5573 229.588 100.09 234.049C100.622 238.51 102.411 242.728 105.248 246.211L105.235 246.192Z" fill="#F5E356"/>
<path opacity="0.3" d="M105.235 246.192C105.235 246.192 117.432 247.395 123.613 254.955C123.613 254.955 130.153 246.198 141.872 246.381C144.742 242.924 146.57 238.723 147.144 234.267C147.717 229.811 147.013 225.284 145.113 221.213C143.213 217.142 140.195 213.694 136.411 211.272C132.627 208.85 128.233 207.553 123.74 207.532C119.248 207.512 114.841 208.768 111.035 211.155C107.229 213.541 104.179 216.961 102.241 221.014C100.304 225.067 99.5573 229.588 100.09 234.049C100.622 238.51 102.411 242.728 105.248 246.211L105.235 246.192Z" fill="white"/>
<path d="M123.207 209.221L122.795 270.357H124.855L123.207 209.221Z" fill="#263238"/>
<path d="M123.828 252.653C123.828 252.653 127.942 245.25 135.378 242.981C135.378 242.981 127.53 244.832 123.645 251.215L123.828 252.653Z" fill="#263238"/>
<path d="M123.828 231.66C123.828 231.66 127.942 224.25 135.352 221.987C135.352 221.987 127.504 223.838 123.619 230.215L123.828 231.66Z" fill="#263238"/>
<path d="M123.828 242.157C123.828 242.157 127.942 234.747 135.352 232.484C135.352 232.484 127.504 234.335 123.619 240.718L123.828 242.157Z" fill="#263238"/>
<path d="M123.214 237.01C123.214 237.01 119.244 229.6 112.096 227.337C112.096 227.337 119.643 229.188 123.416 235.571L123.214 237.01Z" fill="#263238"/>
<path d="M123.214 247.303C123.214 247.303 119.244 239.894 112.096 237.624C112.096 237.624 119.643 239.482 123.416 245.858L123.214 247.303Z" fill="#263238"/>
<path d="M63.8828 258.186C63.8828 258.186 73.3461 259.121 78.1465 264.988C78.1465 264.988 83.215 258.193 92.3121 258.33C94.5373 255.647 95.9544 252.387 96.3984 248.93C96.8423 245.472 96.295 241.96 94.82 238.802C93.345 235.643 91.0031 232.969 88.067 231.09C85.131 229.211 81.7215 228.205 78.2358 228.189C74.7501 228.173 71.3316 229.148 68.3783 231C65.4251 232.851 63.0587 235.504 61.5547 238.648C60.0507 241.793 59.4711 245.3 59.8832 248.762C60.2954 252.223 61.6824 255.496 63.8828 258.199V258.186Z" fill="#F5E356"/>
<path opacity="0.5" d="M63.8828 258.186C63.8828 258.186 73.3461 259.121 78.1465 264.988C78.1465 264.988 83.215 258.193 92.3121 258.33C94.5373 255.647 95.9544 252.387 96.3984 248.93C96.8423 245.472 96.295 241.96 94.82 238.802C93.345 235.643 91.0031 232.969 88.067 231.09C85.131 229.211 81.7215 228.205 78.2358 228.189C74.7501 228.173 71.3316 229.148 68.3783 231C65.4251 232.851 63.0587 235.504 61.5547 238.648C60.0507 241.793 59.4711 245.3 59.8832 248.762C60.2954 252.223 61.6824 255.496 63.8828 258.199V258.186Z" fill="white"/>
<path d="M77.8327 229.495L77.5122 276.936H79.108L77.8327 229.495Z" fill="#263238"/>
<path d="M78.31 263.196C78.31 263.196 81.5081 257.447 87.2568 255.688C87.2568 255.688 81.1876 257.127 78.1531 262.078L78.31 263.196Z" fill="#263238"/>
<path d="M78.31 246.905C78.31 246.905 81.5081 241.156 87.2568 239.397C87.2568 239.397 81.1876 240.836 78.1531 245.786L78.31 246.905Z" fill="#263238"/>
<path d="M78.31 255.06C78.31 255.06 81.5081 249.305 87.2568 247.552C87.2568 247.552 81.1876 248.991 78.1531 253.942L78.31 255.06Z" fill="#263238"/>
<path d="M77.8262 251.057C77.8262 251.057 74.7393 245.309 69.1934 243.55C69.1934 243.55 75.0794 244.988 77.9766 249.939L77.8262 251.057Z" fill="#263238"/>
<path d="M77.8262 259.043C77.8262 259.043 74.7393 253.294 69.1934 251.535C69.1934 251.535 75.0794 252.974 77.9766 257.925L77.8262 259.043Z" fill="#263238"/>
<path d="M278.604 271.6L274.889 270.946C274.575 270.776 274.242 270.612 273.889 270.455L276.845 267.499L268.062 268.088L267.179 266.623L264.837 267.205L263.667 264.275L260.443 265.452L259.566 261.351L256.636 262.816L253.706 260.469L252.817 262.254L250.476 261.665L249.671 262.869L248.926 262.679L247.866 260.469L244.269 261.528L242.307 261.09L241.699 260.174H237.925L237.271 260.05L236.99 257.539L232.307 257.833L229.966 255.217L227.913 257.558L226.748 256.368L225.283 256.957L223.23 254.341C223.23 254.341 221.477 256.957 220.307 257.271C219.136 257.584 217.082 255.217 217.082 255.217L215.886 256.813L214.578 256.669L213.583 255.511L211.837 256.368L211.131 256.303L210.64 254.341L207.122 255.511L204.781 253.458L203.407 255.655L202.452 255.59L200.974 255.217L197.75 254.341L196.579 254.923L192.773 251.705V255.034H192.427L188.673 252.889L188.176 254.851H187.142L186.325 252.889L182.845 254.733H181.21L181.053 253.791L175.167 254.38L173.12 250.861L171.361 254.086L169.314 251.156L167.522 254.733H165.56L164.318 253.765L164.03 254.766L162.388 254.811L160.23 253.15L159.936 254.609L157.614 253.752L155.312 255.06H154.867L153.808 253.471L150.289 254.641L149.263 255.328L147.438 255.426L147.072 253.765L142.991 255.727L140.97 255.858C140.283 255.165 139.08 254.086 138.282 254.086C137.913 254.115 137.558 254.238 137.25 254.442C136.942 254.647 136.692 254.927 136.523 255.256L135.378 254.321L134.037 256.329L133.161 256.407L132.16 255.197L129.231 256.662L128.06 254.046L124.836 256.662L124.247 254.609L120.99 256.662L118.937 254.321L116.831 258.003L116.177 258.075L114.215 256.368L112.514 258.494L111.35 258.637L109.82 256.675L109.231 258.14L106.615 256.675L105.15 259.291L102.22 258.121L98.9176 260.292L94.9217 260.861L93.182 259.612L91.7171 260.488L89.6635 259.612L89.0815 261.371L87.0279 260.783L85.4845 262.326L85.2032 262.372L84.3661 260.469L81.4623 262.254L79.7096 259.913L77.3618 262.843L73.5555 263.13L70.0435 263.425L67.4275 264.595L64.8835 266.041L63.0326 265.766L61.3584 266.832L61.1818 266.878L59.2198 266.315L57.7548 267.192L55.1388 266.904L54.7334 268.912C54.0794 269.147 53.4777 269.389 52.8629 269.644C52.2809 269.585 51.6857 269.54 51.326 269.54C50.9663 269.54 50.4889 270.194 50.018 270.959C45.7474 273.169 43.1314 275.936 46.5061 278.905C50.9402 282.829 62.2021 281.102 67.3948 280.756C89.6308 279.278 106.419 274.615 115.052 275.373C123.685 276.132 89.4085 294.097 126.477 294.104C163.546 294.11 239.619 289.814 250.737 288.767C261.855 287.721 239.704 283.64 242.889 278.748C246.074 273.856 271.933 278.002 276.282 276.838C279.167 276.066 278.244 274.137 277.316 272.914L278.604 271.6Z" fill="#F5E356"/>
<path opacity="0.4" d="M278.604 271.6L274.889 270.946C274.575 270.776 274.242 270.612 273.889 270.455L276.845 267.499L268.062 268.088L267.179 266.623L264.837 267.205L263.667 264.275L260.443 265.452L259.566 261.351L256.636 262.816L253.706 260.469L252.817 262.254L250.476 261.665L249.671 262.869L248.926 262.679L247.866 260.469L244.269 261.528L242.307 261.09L241.699 260.174H237.925L237.271 260.05L236.99 257.539L232.307 257.833L229.966 255.217L227.913 257.558L226.748 256.368L225.283 256.957L223.23 254.341C223.23 254.341 221.477 256.957 220.307 257.271C219.136 257.584 217.082 255.217 217.082 255.217L215.886 256.813L214.578 256.669L213.583 255.511L211.837 256.368L211.131 256.303L210.64 254.341L207.122 255.511L204.781 253.458L203.407 255.655L202.452 255.59L200.974 255.217L197.75 254.341L196.579 254.923L192.773 251.705V255.034H192.427L188.673 252.889L188.176 254.851H187.142L186.325 252.889L182.845 254.733H181.21L181.053 253.791L175.167 254.38L173.12 250.861L171.361 254.086L169.314 251.156L167.522 254.733H165.56L164.318 253.765L164.03 254.766L162.388 254.811L160.23 253.15L159.936 254.609L157.614 253.752L155.312 255.06H154.867L153.808 253.471L150.289 254.641L149.263 255.328L147.438 255.426L147.072 253.765L142.991 255.727L140.97 255.858C140.283 255.165 139.08 254.086 138.282 254.086C137.913 254.115 137.558 254.238 137.25 254.442C136.942 254.647 136.692 254.927 136.523 255.256L135.378 254.321L134.037 256.329L133.161 256.407L132.16 255.197L129.231 256.662L128.06 254.046L124.836 256.662L124.247 254.609L120.99 256.662L118.937 254.321L116.831 258.003L116.177 258.075L114.215 256.368L112.514 258.494L111.35 258.637L109.82 256.675L109.231 258.14L106.615 256.675L105.15 259.291L102.22 258.121L98.9176 260.292L94.9217 260.861L93.182 259.612L91.7171 260.488L89.6635 259.612L89.0815 261.371L87.0279 260.783L85.4845 262.326L85.2032 262.372L84.3661 260.469L81.4623 262.254L79.7096 259.913L77.3618 262.843L73.5555 263.13L70.0435 263.425L67.4275 264.595L64.8835 266.041L63.0326 265.766L61.3584 266.832L61.1818 266.878L59.2198 266.315L57.7548 267.192L55.1388 266.904L54.7334 268.912C54.0794 269.147 53.4777 269.389 52.8629 269.644C52.2809 269.585 51.6857 269.54 51.326 269.54C50.9663 269.54 50.4889 270.194 50.018 270.959C45.7474 273.169 43.1314 275.936 46.5061 278.905C50.9402 282.829 62.2021 281.102 67.3948 280.756C89.6308 279.278 106.419 274.615 115.052 275.373C123.685 276.132 89.4085 294.097 126.477 294.104C163.546 294.11 239.619 289.814 250.737 288.767C261.855 287.721 239.704 283.64 242.889 278.748C246.074 273.856 271.933 278.002 276.282 276.838C279.167 276.066 278.244 274.137 277.316 272.914L278.604 271.6Z" fill="white"/>
<path d="M186.75 182.898C186.75 182.898 184.86 187.842 183.408 190.746C181.956 193.649 179.484 206.023 178.895 212.131C178.307 218.24 177.443 225.951 177.443 225.951C177.443 225.951 174.095 232.059 172.499 234.387C170.903 236.715 168.575 238.023 169.883 239.619C171.191 241.215 174.396 239.037 176.724 237.729C179.052 236.421 179.34 234.093 180.648 233.511C181.956 232.929 184.722 233.36 184.284 229.587C183.846 225.813 181.812 223.917 182.25 222.896C182.688 221.876 185.736 211.844 187.044 209.228C188.352 206.612 191.262 203.551 192.427 199.483C193.156 196.583 193.5 193.599 193.447 190.608C193.447 190.608 196.207 185.082 196.645 184.788C197.083 184.493 188.352 184.062 186.75 182.898Z" fill="white"/>
<path d="M186.75 182.898C186.75 182.898 184.86 187.842 183.408 190.746C181.956 193.649 179.484 206.023 178.895 212.131C178.307 218.24 177.443 225.951 177.443 225.951C177.443 225.951 174.095 232.059 172.499 234.387C170.903 236.715 168.575 238.023 169.883 239.619C171.191 241.215 174.396 239.037 176.724 237.729C179.052 236.421 179.34 234.093 180.648 233.511C181.956 232.929 184.722 233.36 184.284 229.587C183.846 225.813 181.812 223.917 182.25 222.896C182.688 221.876 185.736 211.844 187.044 209.228C188.352 206.612 191.262 203.551 192.427 199.483C193.156 196.583 193.5 193.599 193.447 190.608C193.447 190.608 196.207 185.082 196.645 184.788C197.083 184.493 188.352 184.062 186.75 182.898Z" fill="#D9D9D9" stroke="#263238" stroke-linecap="round" stroke-linejoin="round"/>
<path opacity="0.25" d="M184.663 188.019C185.932 188.673 188.365 189.876 189.856 189.876H191.942C191.942 189.876 193.564 193.584 190.785 199.843C188.005 206.102 183.133 213.511 181.976 218.377C181.322 221.091 179.608 229.554 178.208 236.519C179.268 235.303 179.687 233.949 180.641 233.524C181.949 232.942 184.716 233.373 184.278 229.6C183.839 225.826 181.806 223.93 182.244 222.909C182.682 221.889 185.736 211.844 187.044 209.228C188.352 206.612 191.262 203.551 192.426 199.483C193.156 196.583 193.499 193.599 193.447 190.608C193.447 190.608 196.207 185.082 196.645 184.788C197.083 184.493 188.352 184.062 186.75 182.898C186.75 182.898 185.736 185.488 184.663 188.019Z" fill="black"/>
<path d="M186.75 182.898C186.75 182.898 184.86 187.842 183.408 190.746C181.956 193.649 179.484 206.023 178.895 212.131C178.307 218.24 177.443 225.951 177.443 225.951C177.443 225.951 174.095 232.059 172.499 234.387C170.903 236.715 168.575 238.023 169.883 239.619C171.191 241.215 174.396 239.037 176.724 237.729C179.052 236.421 179.34 234.093 180.648 233.511C181.956 232.929 184.722 233.36 184.284 229.587C183.846 225.813 181.812 223.917 182.25 222.896C182.688 221.876 185.736 211.844 187.044 209.228C188.352 206.612 191.262 203.551 192.427 199.483C193.156 196.583 193.5 193.599 193.447 190.608C193.447 190.608 196.207 185.082 196.645 184.788C197.083 184.493 188.352 184.062 186.75 182.898Z" stroke="#263238" stroke-linecap="round" stroke-linejoin="round"/>
<path d="M169.877 239.632C171.185 241.235 174.389 239.05 176.717 237.742C179.046 236.434 179.333 234.106 180.641 233.524C181.949 232.942 184.716 233.373 184.278 229.6C183.892 226.238 182.244 224.368 182.185 223.282C181.882 224.351 181.239 225.293 180.354 225.964C178.464 227.566 177.443 225.964 177.443 225.964C177.443 225.964 174.095 232.072 172.499 234.4C170.903 236.728 168.569 238.056 169.877 239.632Z" fill="#263238" stroke="#263238" stroke-linecap="round" stroke-linejoin="round"/>
<path d="M184.284 229.633C183.577 230.253 182.792 230.779 181.949 231.196C179.477 232.36 178.895 234.538 175.409 237.304C174.615 238.002 173.673 238.513 172.654 238.798C171.635 239.084 170.565 239.136 169.523 238.952C169.589 239.193 169.707 239.417 169.87 239.606C171.178 241.208 174.383 239.024 176.711 237.716C179.039 236.408 179.327 234.08 180.635 233.498C181.943 232.916 184.69 233.367 184.284 229.633Z" fill="white" stroke="#263238" stroke-linecap="round" stroke-linejoin="round"/>
<path d="M224.283 183.624L227.631 188.718C227.631 188.718 229.083 195.409 231.267 199.771C233.452 204.133 238.834 211.543 241.45 214.754C244.066 217.965 244.943 224.211 244.943 224.211C244.943 224.211 243.635 226.977 244.504 229.011C245.374 231.045 247.853 232.504 248.291 234.394C248.729 236.284 251.345 240.796 253.379 240.502C255.413 240.208 256.728 237.598 255.125 233.812C253.523 230.025 250.469 227.121 249.599 223.191C248.729 219.26 245.963 202.969 243.635 197.881C242.313 194.947 240.756 192.126 238.978 189.444L236.794 180.713C236.794 180.713 228.651 185.082 224.283 183.624Z" fill="white"/>
<path d="M224.283 183.624L227.631 188.718C227.631 188.718 229.083 195.409 231.267 199.771C233.452 204.133 238.834 211.543 241.45 214.754C244.066 217.965 244.943 224.211 244.943 224.211C244.943 224.211 243.635 226.977 244.504 229.011C245.374 231.045 247.853 232.504 248.291 234.394C248.729 236.284 251.345 240.796 253.379 240.502C255.413 240.208 256.728 237.598 255.125 233.812C253.523 230.025 250.469 227.121 249.599 223.191C248.729 219.26 245.963 202.969 243.635 197.881C242.313 194.947 240.756 192.126 238.978 189.444L236.794 180.713C236.794 180.713 228.651 185.082 224.283 183.624Z" fill="#D9D9D9" stroke="#263238" stroke-linecap="round" stroke-linejoin="round"/>
<path opacity="0.25" d="M243.635 197.881C242.313 194.947 240.756 192.126 238.978 189.444L236.794 180.713C236.794 180.713 228.651 185.082 224.283 183.624L227.612 188.686C228.181 188.686 228.808 188.718 229.482 188.718C231.316 188.67 233.124 188.278 234.812 187.561C234.812 187.561 240.371 196.364 243.151 203.78C245.08 208.927 247.572 216.742 249.22 221.359C248.088 215.637 245.688 202.38 243.635 197.881Z" fill="black"/>
<path d="M224.283 183.624L227.631 188.718C227.631 188.718 229.083 195.409 231.267 199.771C233.452 204.133 238.834 211.543 241.45 214.754C244.066 217.965 244.943 224.211 244.943 224.211C244.943 224.211 243.635 226.977 244.504 229.011C245.374 231.045 247.853 232.504 248.291 234.394C248.729 236.284 251.345 240.796 253.379 240.502C255.413 240.208 256.728 237.598 255.125 233.812C253.523 230.025 250.469 227.121 249.599 223.191C248.729 219.26 245.963 202.969 243.635 197.881C242.313 194.947 240.756 192.126 238.978 189.444L236.794 180.713C236.794 180.713 228.651 185.082 224.283 183.624Z" stroke="#263238" stroke-linecap="round" stroke-linejoin="round"/>
<path d="M255.126 233.812C253.746 230.542 251.287 227.926 250.077 224.767C249.866 225.39 249.501 225.95 249.017 226.395C247.415 227.703 244.943 224.211 244.943 224.211C244.943 224.211 243.635 226.977 244.505 229.011C245.374 231.045 247.853 232.504 248.291 234.394C248.729 236.284 251.345 240.796 253.379 240.502C255.413 240.208 256.728 237.598 255.126 233.812Z" fill="#263238" stroke="#263238" stroke-linecap="round" stroke-linejoin="round"/>
<path d="M248.291 234.394C248.475 235.076 248.739 235.735 249.076 236.356C248.997 236.19 248.929 236.02 248.873 235.845C248.141 233.517 247.709 230.613 246.107 229.148C245.324 228.377 244.703 227.456 244.282 226.441C244.121 227.3 244.198 228.186 244.505 229.005C245.381 231.052 247.866 232.503 248.291 234.394Z" fill="white" stroke="#263238" stroke-linecap="round" stroke-linejoin="round"/>
<path d="M255.714 235.682C255.537 236.905 255.178 238.298 254.406 239.05C253.052 240.404 250.554 238.841 249.377 236.912C250.43 238.782 252.038 240.698 253.386 240.502C255.06 240.267 256.244 238.435 255.714 235.682Z" fill="white" stroke="#263238" stroke-linecap="round" stroke-linejoin="round"/>
<path d="M229.96 137.948C229.96 137.948 230.247 138.236 228.939 139.106C227.631 139.976 224.433 140.708 225.159 141.872C225.885 143.036 226.611 143.618 226.029 144.057C225.447 144.495 224.577 144.495 223.851 145.07C223.125 145.646 220.941 138.674 220.941 138.674C220.941 138.674 226.323 136.032 229.96 137.948Z" fill="white"/>
<path d="M229.96 137.948C229.96 137.948 230.247 138.236 228.939 139.106C227.631 139.976 224.433 140.708 225.159 141.872C225.885 143.036 226.611 143.618 226.029 144.057C225.447 144.495 224.577 144.495 223.851 145.07C223.125 145.646 220.941 138.674 220.941 138.674C220.941 138.674 226.323 136.032 229.96 137.948Z" fill="#F5E356"/>
<path opacity="0.25" d="M229.96 137.948C229.96 137.948 230.247 138.236 228.939 139.106C227.631 139.976 224.433 140.708 225.159 141.872C225.885 143.036 226.611 143.618 226.029 144.057C225.447 144.495 224.577 144.495 223.851 145.07C223.125 145.646 220.941 138.674 220.941 138.674C220.941 138.674 226.323 136.032 229.96 137.948Z" fill="black"/>
<path d="M229.96 137.948C229.96 137.948 230.247 138.236 228.939 139.106C227.631 139.976 224.433 140.708 225.159 141.872C225.885 143.036 226.611 143.618 226.029 144.057C225.447 144.495 224.577 144.495 223.851 145.07C223.125 145.646 220.941 138.674 220.941 138.674C220.941 138.674 226.323 136.032 229.96 137.948Z" stroke="#263238" stroke-linecap="round" stroke-linejoin="round"/>
<path d="M196.645 142.749L195.337 150.309C195.337 150.309 189.954 161.95 188.064 167.915C186.174 173.879 183.408 184.35 183.408 184.35C183.408 184.35 185.442 185.952 191.557 186.966C197.671 187.979 205.356 184.062 205.356 184.062C205.356 184.062 207.684 171.551 208.41 169.948C209.136 168.346 211.17 164.128 211.17 164.128H213.067L218.011 183.336C218.011 183.336 222.517 184.5 225.139 184.932C227.762 185.363 231.679 185.658 235.178 183.185C237.447 181.463 239.329 179.284 240.705 176.789C240.705 176.789 235.178 163.709 232.7 158.314C230.221 152.918 224.557 143.762 224.557 143.762L222.811 137.798L196.645 142.749Z" fill="#263238" stroke="#263238" stroke-linecap="round" stroke-linejoin="round"/>
<path d="M196.939 153.219L203.047 159.04" stroke="white" stroke-linecap="round" stroke-linejoin="round"/>
<path d="M204.362 160.917L205.376 161.656" stroke="white" stroke-linecap="round" stroke-linejoin="round"/>
<path d="M197.083 155.547L203.204 160.06" stroke="white" stroke-linecap="round" stroke-linejoin="round"/>
<path d="M202.256 183.774C203.126 183.451 203.974 183.071 204.794 182.636" stroke="white" stroke-linecap="round" stroke-linejoin="round"/>
<path d="M185.01 183.186C189.372 185.001 194.164 185.525 198.816 184.696" stroke="white" stroke-linecap="round" stroke-linejoin="round"/>
<path d="M218.613 181.877C218.613 181.877 228.651 188.28 239.541 176.057" stroke="white" stroke-linecap="round" stroke-linejoin="round"/>
<path d="M226.323 149.001L223.413 154.527" stroke="white" stroke-linecap="round" stroke-linejoin="round"/>
<path d="M202.609 147.111C208.012 147.657 213.458 146.647 218.305 144.2" stroke="white" stroke-linecap="round" stroke-linejoin="round"/>
<path d="M223.773 141.029L222.831 137.798L196.671 142.749L196.436 144.096C200.715 145.346 205.218 145.63 209.62 144.926C214.466 144.148 219.212 142.841 223.773 141.029Z" fill="white"/>
<path d="M223.773 141.029L222.831 137.798L196.671 142.749L196.436 144.096C200.715 145.346 205.218 145.63 209.62 144.926C214.466 144.148 219.212 142.841 223.773 141.029Z" fill="#949494" stroke="#263238" stroke-linecap="round" stroke-linejoin="round"/>
<path d="M223.773 141.029L222.831 137.798L196.671 142.749L196.436 144.096C200.715 145.346 205.218 145.63 209.62 144.926C214.466 144.148 219.212 142.841 223.773 141.029V141.029Z" stroke="#263238" stroke-linecap="round" stroke-linejoin="round"/>
<path d="M238.148 85.1378C236.715 79.9513 234.82 74.904 232.484 70.0566C230.712 66.283 228.952 61.5546 226.219 58.3696C224.472 56.3356 221.268 54.7333 220.542 55.0276C219.816 55.3219 216.618 56.6234 216.618 58.3696C216.618 60.1158 217.782 60.1158 217.782 60.1158C217.782 60.1158 217.488 62.3001 218.364 63.1699C219.24 64.0398 223.747 63.752 223.747 63.752C224.551 64.9354 225.221 66.2056 225.741 67.5387C226.611 70.4424 227.383 71.0245 227.965 76.263C228.54 80.4312 229.366 84.561 230.437 88.6302C229.876 88.975 229.382 89.4181 228.979 89.9382C228.109 90.9584 222.582 96.4782 222.582 96.4782C220.984 97.2362 219.329 97.8681 217.632 98.3682C216.143 98.8313 214.702 99.4357 213.328 100.173C212.432 100.069 211.53 99.9705 211.046 99.9705C210.026 99.9705 202.904 101.279 202.904 101.279C201.257 100.299 199.501 99.518 197.672 98.9503C195.975 98.4502 194.319 97.8182 192.721 97.0602C192.721 97.0602 187.194 91.5339 186.325 90.5202C185.921 90.0002 185.427 89.5571 184.866 89.2122C185.937 85.1431 186.763 81.0133 187.338 76.8451C187.809 72.6202 189.026 67.8199 191.563 64.3341C191.563 64.3341 196.069 64.6284 196.946 63.752C197.822 62.8756 197.521 60.6978 197.521 60.6978C197.521 60.6978 198.685 60.6978 198.685 58.9516C198.685 57.2055 195.487 55.8975 194.761 55.6097C194.035 55.3219 190.837 56.9177 189.085 58.9516C187.332 60.9856 187.489 63.0261 185.743 65.9364C183.996 68.8467 177.895 82.9404 177.156 85.7199C176.417 88.4994 175.56 90.082 175.704 91.3966C175.848 92.7111 182.832 100.265 184.578 102.305C186.325 104.346 193.015 111.324 193.015 111.324C193.015 111.324 195.487 123.541 196.213 127.909C196.939 132.278 196.507 144.344 196.507 144.344C196.507 144.344 204.506 142.598 212.073 141.728C219.639 140.859 227.926 137.948 228.946 137.948H229.966C229.966 137.948 224.289 130.964 224.289 129.943C224.289 129.132 224.479 114.313 224.551 108.361C226.663 106.138 229.652 102.972 230.731 101.71C232.477 99.6697 239.462 92.1094 239.606 90.8014C239.75 89.4934 238.874 87.9042 238.148 85.1378Z" fill="white"/>
<path d="M238.148 85.1378C236.715 79.9513 234.82 74.904 232.484 70.0566C230.712 66.283 228.952 61.5546 226.219 58.3696C224.472 56.3356 221.268 54.7333 220.542 55.0276C219.816 55.3219 216.618 56.6234 216.618 58.3696C216.618 60.1158 217.782 60.1158 217.782 60.1158C217.782 60.1158 217.488 62.3001 218.364 63.1699C219.24 64.0398 223.747 63.752 223.747 63.752C224.551 64.9354 225.221 66.2056 225.741 67.5387C226.611 70.4424 227.383 71.0245 227.965 76.263C228.54 80.4312 229.366 84.561 230.437 88.6302C229.876 88.975 229.382 89.4181 228.979 89.9382C228.109 90.9584 222.582 96.4782 222.582 96.4782C220.984 97.2362 219.329 97.8681 217.632 98.3682C216.143 98.8313 214.702 99.4357 213.328 100.173C212.432 100.069 211.53 99.9705 211.046 99.9705C210.026 99.9705 202.904 101.279 202.904 101.279C201.257 100.299 199.501 99.518 197.672 98.9503C195.975 98.4502 194.319 97.8182 192.721 97.0602C192.721 97.0602 187.194 91.5339 186.325 90.5202C185.921 90.0002 185.427 89.5571 184.866 89.2122C185.937 85.1431 186.763 81.0133 187.338 76.8451C187.809 72.6202 189.026 67.8199 191.563 64.3341C191.563 64.3341 196.069 64.6284 196.946 63.752C197.822 62.8756 197.521 60.6978 197.521 60.6978C197.521 60.6978 198.685 60.6978 198.685 58.9516C198.685 57.2055 195.487 55.8975 194.761 55.6097C194.035 55.3219 190.837 56.9177 189.085 58.9516C187.332 60.9856 187.489 63.0261 185.743 65.9364C183.996 68.8467 177.895 82.9404 177.156 85.7199C176.417 88.4994 175.56 90.082 175.704 91.3966C175.848 92.7111 182.832 100.265 184.578 102.305C186.325 104.346 193.015 111.324 193.015 111.324C193.015 111.324 195.487 123.541 196.213 127.909C196.939 132.278 196.507 144.344 196.507 144.344C196.507 144.344 204.506 142.598 212.073 141.728C219.639 140.859 227.926 137.948 228.946 137.948H229.966C229.966 137.948 224.289 130.964 224.289 129.943C224.289 129.132 224.479 114.313 224.551 108.361C226.663 106.138 229.652 102.972 230.731 101.71C232.477 99.6697 239.462 92.1094 239.606 90.8014C239.75 89.4934 238.874 87.9042 238.148 85.1378Z" fill="#D9D9D9" stroke="#263238" stroke-linecap="round" stroke-linejoin="round"/>
<path opacity="0.25" d="M197.083 130.8C196.645 128.76 196.063 116.974 195.337 113.194C194.611 109.414 192.865 107.962 191.844 106.36C190.824 104.758 187.92 102.436 184.278 98.5121C180.635 94.5881 177.3 91.2461 177.888 88.3358C178.287 86.315 182.211 74.9354 184.565 68.1926C182.126 73.1957 177.764 83.4112 177.156 85.7198C176.43 88.4863 175.56 90.082 175.704 91.3965C175.848 92.7111 182.832 100.265 184.579 102.305C186.325 104.346 193.015 111.324 193.015 111.324C193.015 111.324 195.487 123.541 196.213 127.909C196.506 130.248 196.643 132.603 196.625 134.959C196.991 133.096 197.227 131.454 197.083 130.8Z" fill="black"/>
<path opacity="0.25" d="M237.402 90.0821C237.402 92.2665 226.781 100.121 224.322 104.195C221.863 108.27 222.576 118.309 222.576 122.377C222.623 124.028 222.575 125.681 222.432 127.327L224.329 129.629C224.329 127.301 224.512 113.933 224.584 108.374C226.696 106.151 229.685 102.986 230.764 101.723C232.51 99.6828 239.495 92.1226 239.639 90.8146C239.783 89.5066 238.913 87.9043 238.187 85.1378C236.754 79.9514 234.859 74.904 232.523 70.0566C230.751 66.283 228.992 61.5546 226.258 58.3696C226.258 58.3696 230.868 69.5726 233.635 76.989C236.401 84.4054 237.402 87.9043 237.402 90.0821Z" fill="black"/>
<path d="M238.148 85.1378C236.715 79.9513 234.82 74.904 232.484 70.0566C230.712 66.283 228.952 61.5546 226.219 58.3696C224.472 56.3356 221.268 54.7333 220.542 55.0276C219.816 55.3219 216.618 56.6234 216.618 58.3696C216.618 60.1158 217.782 60.1158 217.782 60.1158C217.782 60.1158 217.488 62.3001 218.364 63.1699C219.24 64.0398 223.747 63.752 223.747 63.752C224.551 64.9354 225.221 66.2056 225.741 67.5387C226.611 70.4424 227.383 71.0245 227.965 76.263C228.54 80.4312 229.366 84.561 230.437 88.6302C229.876 88.975 229.382 89.4181 228.979 89.9382C228.109 90.9584 222.582 96.4782 222.582 96.4782C220.984 97.2362 219.329 97.8681 217.632 98.3682C216.143 98.8313 214.702 99.4357 213.328 100.173C212.432 100.069 211.53 99.9705 211.046 99.9705C210.026 99.9705 202.904 101.279 202.904 101.279C201.257 100.299 199.501 99.518 197.672 98.9503C195.975 98.4502 194.319 97.8182 192.721 97.0602C192.721 97.0602 187.194 91.5339 186.325 90.5202C185.921 90.0002 185.427 89.5571 184.866 89.2122C185.937 85.1431 186.763 81.0133 187.338 76.8451C187.809 72.6202 189.026 67.8199 191.563 64.3341C191.563 64.3341 196.069 64.6284 196.946 63.752C197.822 62.8756 197.521 60.6978 197.521 60.6978C197.521 60.6978 198.685 60.6978 198.685 58.9516C198.685 57.2055 195.487 55.8975 194.761 55.6097C194.035 55.3219 190.837 56.9177 189.085 58.9516C187.332 60.9856 187.489 63.0261 185.743 65.9364C183.996 68.8467 177.895 82.9404 177.156 85.7199C176.417 88.4994 175.56 90.082 175.704 91.3966C175.848 92.7111 182.832 100.265 184.578 102.305C186.325 104.346 193.015 111.324 193.015 111.324C193.015 111.324 195.487 123.541 196.213 127.909C196.939 132.278 196.507 144.344 196.507 144.344C196.507 144.344 204.506 142.598 212.073 141.728C219.639 140.859 227.926 137.948 228.946 137.948H229.966C229.966 137.948 224.289 130.964 224.289 129.943C224.289 129.132 224.479 114.313 224.551 108.361C226.663 106.138 229.652 102.972 230.731 101.71C232.477 99.6697 239.462 92.1094 239.606 90.8014C239.75 89.4934 238.874 87.9042 238.148 85.1378Z" stroke="#263238" stroke-linecap="round" stroke-linejoin="round"/>
<path d="M197.508 60.6978C197.508 60.6978 193.872 57.6437 193.584 58.9517C193.296 60.2597 195.768 62.0058 195.768 62.0058" stroke="#263238" stroke-linecap="round" stroke-linejoin="round"/>
<path d="M192.57 60.4102C192.609 60.792 192.572 61.1778 192.462 61.5454C192.351 61.913 192.169 62.2551 191.926 62.5522C191.683 62.8493 191.384 63.0955 191.046 63.2767C190.707 63.458 190.336 63.5706 189.954 63.6082" stroke="#263238" stroke-linecap="round" stroke-linejoin="round"/>
<path d="M194.611 61.1359L191.7 59.6775L191.844 58.6638L192.714 58.2256" stroke="#263238" stroke-linecap="round" stroke-linejoin="round"/>
<path d="M194.892 56.5449C195.038 57.3509 195.127 58.166 195.16 58.9843" stroke="#263238" stroke-linecap="round" stroke-linejoin="round"/>
<path d="M196.514 56.9504C196.675 57.938 196.675 58.9451 196.514 59.9327" stroke="#263238" stroke-linecap="round" stroke-linejoin="round"/>
<path d="M198.005 57.6306C198.07 58.0844 198.017 58.5473 197.851 58.9746C197.685 59.4019 197.411 59.7791 197.057 60.07" stroke="#263238" stroke-linecap="round" stroke-linejoin="round"/>
<path d="M217.782 60.1156C217.782 60.1156 222.831 58.8076 222.105 60.2595C221.379 61.7114 219.051 62.1561 219.051 62.1561" stroke="#263238" stroke-linecap="round" stroke-linejoin="round"/>
<path d="M225.159 62.3C224.524 61.7968 223.841 61.3586 223.119 60.992C222.393 60.6977 222.249 59.684 222.249 59.684C222.249 59.684 223.851 59.3962 223.851 58.6703C223.851 57.9444 222.687 57.3623 222.687 57.3623L222.537 58.0948" stroke="#263238" stroke-linecap="round" stroke-linejoin="round"/>
<path d="M220.64 56.2441C220.64 56.2441 220.065 59.1283 222.249 59.6515" stroke="#263238" stroke-linecap="round" stroke-linejoin="round"/>
<path d="M219.011 56.4075C219.011 56.4075 218.606 58.5788 219.96 59.6775" stroke="#263238" stroke-linecap="round" stroke-linejoin="round"/>
<path d="M217.782 57.2251C217.782 57.2251 217.37 59.1217 218.318 59.7953" stroke="#263238" stroke-linecap="round" stroke-linejoin="round"/>
<path d="M212.066 141.728C219.633 140.852 227.919 137.948 228.939 137.948H229.96C229.96 137.948 224.283 130.964 224.283 129.943C224.283 129.132 224.473 114.313 224.544 108.361L227.814 104.889C226.212 104.411 224.479 103.581 223.838 102.148C223.04 100.376 223.426 97.3088 223.838 95.1768L222.53 96.4848C220.932 97.2428 219.276 97.8747 217.579 98.3748C216.091 98.8379 214.65 99.4423 213.276 100.18C212.38 100.075 211.478 99.9771 210.994 99.9771C209.973 99.9771 202.851 101.285 202.851 101.285C201.205 100.306 199.449 99.5246 197.619 98.9569C195.922 98.4568 194.267 97.8248 192.669 97.0668L192.459 96.8575C192.766 99.2428 192.836 101.653 192.669 104.052C192.394 106.203 190.667 107.21 189.47 107.655C191.334 109.617 192.963 111.324 192.963 111.324C192.963 111.324 195.435 123.541 196.161 127.909C196.887 132.278 196.455 144.344 196.455 144.344C196.455 144.344 204.499 142.572 212.066 141.728Z" fill="#F5E356" stroke="#263238" stroke-linecap="round" stroke-linejoin="round"/>
<path d="M208.901 114.686C208.304 114.044 207.758 113.357 207.266 112.632" stroke="#263238" stroke-linecap="round" stroke-linejoin="round"/>
<path d="M224.283 129.943C221.473 126.612 218.412 123.501 215.127 120.637C213.446 119.205 212.092 117.962 211.02 116.903" stroke="#263238" stroke-linecap="round" stroke-linejoin="round"/>
<path d="M199.947 94.6536C199.947 94.6536 199.156 93.0644 197.436 89.8925C195.716 86.7206 197.168 81.1746 203.649 79.0557C210.13 76.9367 214.224 80.9065 215.146 83.5487C216.069 86.1908 215.277 89.1011 214.747 90.6903C214.434 91.628 214.258 92.6061 214.224 93.5941C213.883 93.1846 213.482 92.8295 213.034 92.5412C212.105 91.8872 210.523 84.8698 208.404 84.3466C206.285 83.8234 201.798 85.0202 201.432 88.2902C201.066 91.5602 201.007 96.6352 199.947 94.6536Z" fill="#263238" stroke="#263238" stroke-linecap="round" stroke-linejoin="round"/>
<path d="M213.694 93.0642C213.694 93.0642 214.486 90.821 215.545 91.8805C216.605 92.9399 216.069 95.1505 215.408 96.1053C214.747 97.0601 214.224 96.5042 213.825 95.4513C213.59 94.6778 213.545 93.8588 213.694 93.0642Z" fill="white"/>
<path d="M213.694 93.0642C213.694 93.0642 214.486 90.821 215.545 91.8805C216.605 92.9399 216.069 95.1505 215.408 96.1053C214.747 97.0601 214.224 96.5042 213.825 95.4513C213.59 94.6778 213.545 93.8588 213.694 93.0642Z" fill="#D9D9D9" stroke="#263238" stroke-linecap="round" stroke-linejoin="round"/>
<path d="M213.694 93.0642C213.694 93.0642 214.486 90.821 215.545 91.8805C216.605 92.9399 216.069 95.1505 215.408 96.1053C214.747 97.0601 214.224 96.5042 213.825 95.4513C213.59 94.6778 213.545 93.8588 213.694 93.0642V93.0642Z" stroke="#263238" stroke-linecap="round" stroke-linejoin="round"/>
<path d="M200.549 94.3722C200.549 94.3722 199.182 92.4102 198.45 93.7182C197.717 95.0262 198.829 97.047 199.719 97.7534C200.608 98.4597 200.968 97.8188 201.066 96.6939C201.082 95.8898 200.905 95.0936 200.549 94.3722Z" fill="white"/>
<path d="M200.549 94.3722C200.549 94.3722 199.182 92.4102 198.45 93.7182C197.717 95.0262 198.829 97.047 199.719 97.7534C200.608 98.4597 200.968 97.8188 201.066 96.6939C201.082 95.8898 200.905 95.0936 200.549 94.3722Z" fill="#D9D9D9" stroke="#263238" stroke-linecap="round" stroke-linejoin="round"/>
<path d="M200.549 94.3722C200.549 94.3722 199.182 92.4102 198.45 93.7182C197.717 95.0262 198.829 97.047 199.719 97.7534C200.608 98.4597 200.968 97.8188 201.066 96.6939C201.082 95.8898 200.905 95.0936 200.549 94.3722V94.3722Z" stroke="#263238" stroke-linecap="round" stroke-linejoin="round"/>
<path d="M202.328 100.598C202.268 102.501 202.4 104.405 202.72 106.282C203.004 107.981 203.401 109.659 203.911 111.304L208.672 106.811L214.617 109.983C214.617 109.983 215.545 103.908 213.695 101.259C211.844 98.6102 205.761 98.3551 204.179 99.2969C203.492 99.6209 202.865 100.061 202.328 100.598Z" fill="white" stroke="#263238" stroke-linecap="round" stroke-linejoin="round"/>
<path d="M204.048 101.926C204.048 101.926 207.488 110.912 209.339 110.252C211.19 109.591 211.72 101.658 211.72 101.658C211.72 101.658 206.01 102.848 204.048 101.926Z" fill="white"/>
<path d="M204.048 101.926C204.048 101.926 207.488 110.912 209.339 110.252C211.19 109.591 211.72 101.658 211.72 101.658C211.72 101.658 206.01 102.848 204.048 101.926Z" fill="#D9D9D9" stroke="#263238" stroke-linecap="round" stroke-linejoin="round"/>
<path opacity="0.25" d="M204.048 101.926C204.048 101.926 207.488 110.912 209.339 110.252C211.19 109.591 211.72 101.658 211.72 101.658C211.72 101.658 206.01 102.848 204.048 101.926Z" fill="black"/>
<path d="M204.048 101.926C204.048 101.926 207.488 110.912 209.339 110.252C211.19 109.591 211.72 101.658 211.72 101.658C211.72 101.658 206.01 102.848 204.048 101.926Z" stroke="#263238" stroke-linecap="round" stroke-linejoin="round"/>
<path d="M199.548 90.821C199.548 90.821 200.202 96.635 201.007 99.2772C201.811 101.919 204.865 104.32 208.96 103.659C213.054 102.998 214.512 97.034 214.512 96.635C214.512 96.2361 214.25 89.101 212.661 86.4588C211.072 83.8166 208.037 81.3053 203.806 83.2869C199.575 85.2685 199.156 89.3691 199.548 90.821Z" fill="white"/>
<path d="M199.548 90.821C199.548 90.821 200.202 96.635 201.007 99.2772C201.811 101.919 204.865 104.32 208.96 103.659C213.054 102.998 214.512 97.034 214.512 96.635C214.512 96.2361 214.25 89.101 212.661 86.4588C211.072 83.8166 208.037 81.3053 203.806 83.2869C199.575 85.2685 199.156 89.3691 199.548 90.821Z" fill="#D9D9D9" stroke="#263238" stroke-linecap="round" stroke-linejoin="round"/>
<path opacity="0.25" d="M214.512 96.6351C214.512 96.2362 214.25 89.1011 212.661 86.4589C212.345 85.9301 211.982 85.431 211.575 84.9678C211.961 86.6159 213.963 95.4906 212.38 98.5187C210.634 101.867 206.854 102.161 203.361 100.415C200.745 99.1073 200.026 91.5143 199.81 87.6623C199.45 88.6751 199.369 89.766 199.575 90.8211C199.575 90.8211 200.229 96.6351 201.033 99.2773C201.837 101.919 204.892 104.32 208.986 103.659C213.08 102.999 214.512 97.0341 214.512 96.6351Z" fill="black"/>
<path d="M199.548 90.821C199.548 90.821 200.202 96.635 201.007 99.2772C201.811 101.919 204.865 104.32 208.96 103.659C213.054 102.998 214.512 97.034 214.512 96.635C214.512 96.2361 214.25 89.101 212.661 86.4588C211.072 83.8166 208.037 81.3053 203.806 83.2869C199.575 85.2685 199.156 89.3691 199.548 90.821Z" stroke="#263238" stroke-linecap="round" stroke-linejoin="round"/>
<path d="M203.309 94.2218C204.468 94.561 205.696 94.5904 206.87 94.3069C208.044 94.0235 209.123 93.4372 210 92.6064C210.588 92.8026 210.366 96.3539 207.115 96.8705C206.262 97.0022 205.391 96.8007 204.682 96.3075C203.974 95.8144 203.482 95.0676 203.309 94.2218Z" fill="white" stroke="#263238" stroke-linecap="round" stroke-linejoin="round"/>
<path d="M205.186 91.0761C205.186 91.0761 204.375 92.2075 204.781 92.6065C205.186 93.0054 206.795 93.0904 207.606 92.2075C208.417 91.3246 207.122 90.5137 207.122 90.5137" stroke="#263238" stroke-linecap="round" stroke-linejoin="round"/>
<path d="M202.086 91.6124C202.086 91.6124 202.485 90.3044 204.597 90.3044" stroke="#263238" stroke-linecap="round" stroke-linejoin="round"/>
<path d="M208.273 89.7616C208.659 89.3353 209.188 89.0643 209.76 88.9993C210.331 88.9343 210.907 89.0797 211.379 89.4084" stroke="#263238" stroke-linecap="round" stroke-linejoin="round"/>
<path d="M204.31 87.6361C204.31 87.6361 201.288 87.0344 200.915 89.7747" stroke="#263238" stroke-width="2" stroke-linecap="round" stroke-linejoin="round"/>
<path d="M207.514 87.296C207.514 87.296 209.646 85.5695 211.628 87.4203" stroke="#263238" stroke-width="2" stroke-linecap="round" stroke-linejoin="round"/>
<path d="M132.441 90.0819C132.441 90.0819 132.441 87.0015 129.126 84.7517C125.81 82.502 117.864 83.8034 114.901 87.5966C111.939 91.3898 111.697 94.1366 108.263 95.183C104.83 96.2294 97.0012 97.4459 91.5599 103.123C86.1187 108.799 88.4796 120.427 90.9714 121.376C93.4631 122.324 90.3762 120.545 90.7294 117.452C90.794 116.598 91.0942 115.78 91.5965 115.087C92.0987 114.394 92.7834 113.855 93.5743 113.528C93.5743 113.528 90.3762 118.622 97.132 125.261C103.888 131.899 111.357 130.362 117.641 129.054C123.926 127.746 131.624 123.128 132.219 117.674C132.814 112.22 130.793 109.139 132.219 106.654C133.645 104.169 138.857 104.516 139.57 99.7807C140.283 95.0457 138.367 88.7804 132.441 90.0819Z" fill="#263238" stroke="#263238" stroke-linecap="round" stroke-linejoin="round"/>
<path d="M155.272 174.782C155.272 174.782 158.582 170.596 159.85 170.459C161.119 170.321 163.003 173.199 163.827 175.396C164.651 177.594 166.567 182.106 166.567 184.304C166.567 188.143 164.919 189.372 164.239 188.686C163.559 187.999 161.767 183.754 160.812 182.93C160.203 182.422 159.495 182.048 158.732 181.832C158.732 181.832 156.626 176.502 155.272 174.782Z" fill="white" stroke="#263238" stroke-linecap="round" stroke-linejoin="round"/>
<path d="M158.628 171.505C158.628 171.505 162.637 175.514 164.062 179.353C165.488 183.192 165.926 186.939 164.638 188.509" stroke="#263238" stroke-linecap="round" stroke-linejoin="round"/>
<path d="M147.895 204.453C147.895 204.453 151.865 204.728 153.239 204.865C154.612 205.003 154.612 208.292 154.063 210.621C153.513 212.949 152.827 214.46 153.409 217.062C153.991 219.665 152.447 222.543 151.623 223.779C150.799 225.015 149.007 224.74 148.883 223.779C148.759 222.818 149.295 217.2 147.379 214.048C145.462 210.895 145.698 206.664 147.895 204.453Z" fill="white" stroke="#263238" stroke-linecap="round" stroke-linejoin="round"/>
<path d="M151.617 204.702C152.453 206.229 152.755 207.993 152.473 209.712C152.042 212.713 152.617 217.442 152.617 218.586C152.617 219.731 151.041 224.165 150.472 224.309" stroke="#263238" stroke-linecap="round" stroke-linejoin="round"/>
<path d="M165.867 63.4378C165.155 63.4378 162.31 64.1507 162.074 64.9813C161.839 65.8118 161.486 73.8691 161.486 73.8691C161.486 73.8691 156.502 83.3521 154.847 86.9099C153.193 90.4676 148.798 99.0023 148.798 99.0023L137.778 110.5C137.778 110.5 136.117 111.33 133.272 112.985C133.004 113.142 132.723 113.318 132.441 113.495L127.209 114.646L122.723 113.796C120.595 112.137 118.379 110.593 116.085 109.172C113.24 107.517 111.579 106.687 111.579 106.687L100.559 95.1895C100.559 95.1895 96.1706 86.6875 94.5094 83.0971C92.8483 79.5066 87.8713 70.0563 87.8713 70.0563C87.8713 70.0563 87.5182 61.999 87.2827 61.1684C87.0473 60.3379 84.1959 59.625 83.4895 59.625C82.7832 59.625 81.4752 63.4182 81.9461 64.2488C82.417 65.0794 83.7119 65.0728 83.7119 65.0728C83.6515 66.0202 83.6515 66.9704 83.7119 67.9177C83.8296 68.5129 85.6085 69.6966 85.6085 69.6966C85.6085 69.6966 88.1002 80.0102 89.7549 87.1192C91.4095 94.2281 93.5481 98.9762 94.4964 99.8068C95.4447 100.637 104.81 110.114 106.707 113.318C108.237 115.69 110.027 117.883 112.043 119.858C112.043 119.858 110.977 125.09 110.977 127.916C110.977 130.741 113.822 136.804 114.77 139.531C115.719 142.258 116.902 154.939 116.902 155.299C116.902 155.658 117.491 163.474 117.491 163.474C117.491 163.474 111.095 177.463 109.081 187.417C107.066 197.37 108.008 203.067 112.632 205.199C117.256 207.331 138.236 210.294 138.831 211.006C139.426 211.719 139.897 212.19 140.728 212.19C141.558 212.19 142.624 211.719 143.344 212.19C144.063 212.661 144.05 213.021 144.881 213.021C145.277 213.074 145.656 213.22 145.985 213.448C146.315 213.675 146.586 213.977 146.777 214.329C147.013 214.8 148.438 213.851 148.909 210.294C149.38 206.736 148.674 205.062 147.961 204.963C147.248 204.865 147.372 203.655 146.189 203.655C144.916 203.736 143.649 203.896 142.395 204.133C141.778 203.947 141.142 203.828 140.499 203.78C139.786 203.78 138.955 203.185 138.478 203.067C138 202.949 130.185 199.745 130.185 199.745L129.884 199.588C137.798 195.075 149.02 187.09 149.02 187.09C149.02 187.09 152.245 186.887 153.657 185.677C154.615 184.82 155.49 183.877 156.273 182.858L158.693 181.851C158.662 180.267 158.172 178.727 157.28 177.417C155.874 175.605 155.266 174.801 155.266 174.801C155.266 174.801 151.44 176.613 150.23 177.018C149.02 177.423 147.209 177.62 146.202 178.627C145.194 179.634 142.578 181.648 142.578 181.648L133.717 186.279C133.717 186.279 144.998 171.779 146.404 165.736C147.614 160.557 145.75 154.834 142.663 150.655C140.329 147.516 137.052 145.122 134.567 142.081C133.377 140.636 132.468 139.563 132.553 138.942C132.69 137.981 133.815 133.141 134.835 129.021L138.014 122.926C138.798 122.108 142.304 117.694 142.631 117.131C144.527 113.927 153.893 104.444 154.841 103.613C155.789 102.782 157.921 98.0475 159.582 90.932C161.244 83.8165 163.729 73.5094 163.729 73.5094C163.729 73.5094 165.508 72.3257 165.625 71.7305C165.686 70.7832 165.686 69.833 165.625 68.8856C165.625 68.8856 166.933 68.8856 167.404 68.0551C167.875 67.2245 166.58 63.4378 165.867 63.4378Z" fill="white" stroke="#263238" stroke-linecap="round" stroke-linejoin="round"/>
<path d="M155.272 174.781C155.272 174.781 151.447 176.593 150.237 176.999C149.027 177.404 147.215 177.6 146.208 178.607C145.201 179.615 142.585 181.629 142.585 181.629L133.723 186.259C133.723 186.259 145.005 171.76 146.411 165.717C147.621 160.537 145.757 154.815 142.67 150.636C141.493 149.125 140.194 147.714 138.785 146.417C136.31 148.577 133.621 150.479 130.761 152.094C126.578 154.547 121.715 155.583 116.896 155.05C116.896 155.175 116.896 155.253 116.896 155.279C116.896 155.632 117.484 163.454 117.484 163.454C117.484 163.454 111.088 177.443 109.074 187.397C107.06 197.351 108.001 203.047 112.625 205.179C117.249 207.311 138.229 210.274 138.824 210.987C139.42 211.7 139.89 212.171 140.721 212.171C141.552 212.171 142.618 211.7 143.337 212.171C144.056 212.642 144.043 213.001 144.874 213.001C145.271 213.055 145.649 213.201 145.979 213.428C146.308 213.655 146.58 213.957 146.77 214.309C147.006 214.78 148.432 213.832 148.903 210.274C149.373 206.716 148.667 205.042 147.954 204.944C147.241 204.846 147.366 203.636 146.182 203.636C144.909 203.717 143.642 203.876 142.389 204.113C141.771 203.927 141.135 203.809 140.492 203.76C139.779 203.76 138.949 203.165 138.471 203.047C137.994 202.93 130.179 199.725 130.179 199.725L129.878 199.568C137.791 195.055 149.014 187.07 149.014 187.07C149.014 187.07 152.238 186.867 153.651 185.657C154.608 184.801 155.484 183.857 156.267 182.839L158.686 181.832C158.656 180.248 158.165 178.707 157.274 177.397C155.881 175.586 155.272 174.781 155.272 174.781Z" fill="#263238" stroke="#263238" stroke-linecap="round" stroke-linejoin="round"/>
<path d="M125.005 162.643L127.334 163.742C127.334 163.742 117.602 187.181 116.216 193.898C114.829 200.614 116.49 203.904 119.093 203.904C121.696 203.904 129.099 200.065 129.099 200.065" stroke="white" stroke-linecap="round" stroke-linejoin="round"/>
<path d="M133.723 186.259C133.723 186.259 127.883 194.892 126.222 196.913" stroke="white" stroke-linecap="round" stroke-linejoin="round"/>
<path d="M86.2168 62.8231C86.2168 62.8231 83.8428 59.5008 83.4897 58.788C83.1365 58.0751 82.4236 60.096 83.0122 61.2797C83.389 62.0157 83.8691 62.694 84.4379 63.294C84.4379 63.294 83.4896 66.1389 84.9088 67.3227" fill="white"/>
<path d="M86.2168 62.8231C86.2168 62.8231 83.8428 59.5008 83.4897 58.788C83.1365 58.0751 82.4236 60.096 83.0122 61.2797C83.389 62.0157 83.8691 62.694 84.4379 63.294C84.4379 63.294 83.4896 66.1389 84.9088 67.3227" stroke="#263238" stroke-linecap="round" stroke-linejoin="round"/>
<path d="M162.467 67.2639C162.467 67.2639 164.834 63.9481 165.194 63.2352C165.553 62.5224 166.26 64.5432 165.665 65.727C165.289 66.4619 164.811 67.14 164.245 67.7413C164.245 67.7413 165.194 70.5862 163.768 71.7699" fill="white"/>
<path d="M162.467 67.2639C162.467 67.2639 164.834 63.9481 165.194 63.2352C165.553 62.5224 166.26 64.5432 165.665 65.727C165.289 66.4619 164.811 67.14 164.245 67.7413C164.245 67.7413 165.194 70.5862 163.768 71.7699" stroke="#263238" stroke-linecap="round" stroke-linejoin="round"/>
<path d="M112.056 119.839C112.056 119.839 110.99 125.071 110.99 127.896C110.99 130.721 113.835 136.784 114.783 139.511C115.732 142.238 116.916 154.919 116.916 155.279C116.916 155.377 116.961 156.077 117.033 157.032C121.225 158.202 129.871 158.601 140.178 147.797C138.308 145.894 136.254 144.122 134.574 142.062C133.383 140.616 132.474 139.544 132.559 138.923C132.697 137.961 133.821 133.122 134.842 129.001L138.02 122.906C138.805 122.089 142.31 117.674 142.637 117.112C144.534 113.907 153.899 104.424 154.848 103.593C155.796 102.763 157.928 98.0279 159.589 90.9124C160.197 88.2964 160.897 85.2291 161.597 82.4104C160.259 82.1324 158.966 81.6748 157.751 81.0501C156.607 83.2867 155.482 85.5234 154.848 86.8837C153.186 90.4415 148.798 98.9762 148.798 98.9762L137.778 110.474C137.778 110.474 136.117 111.304 133.272 112.959C133.004 113.116 132.723 113.292 132.441 113.469L127.209 114.62L122.723 113.796C120.595 112.137 118.379 110.593 116.085 109.172C113.24 107.517 111.579 106.687 111.579 106.687L100.559 95.1895C100.559 95.1895 96.1706 86.6875 94.5095 83.0971C93.7443 81.4621 92.2793 78.5649 90.919 75.9031C89.7733 76.3846 88.6032 76.8059 87.4136 77.1653C88.1788 80.3437 89.0486 84.0258 89.768 87.1061C91.4291 94.2216 93.5612 98.9631 94.5095 99.7937C95.4578 100.624 104.823 110.101 106.72 113.305C108.251 115.674 110.04 117.866 112.056 119.839Z" fill="#F5E356"/>
<path d="M112.383 107.092C111.86 106.818 111.579 106.68 111.579 106.68L110.925 105.994L105.582 111.71C105.964 112.193 106.322 112.695 106.654 113.214L112.383 107.092Z" fill="#263238"/>
<path d="M107.38 102.298L106.118 100.99L100.232 105.64C100.644 106.079 101.063 106.523 101.468 106.948L107.38 102.298Z" fill="#263238"/>
<path d="M116.902 109.662L116.085 109.165L115.32 108.721L108.78 116.216C109.185 116.719 109.584 117.19 109.964 117.615L116.902 109.662Z" fill="#263238"/>
<path d="M102.129 96.7917L95.3269 100.559L96.6349 101.867L103.397 98.1128L102.129 96.7917Z" fill="#263238"/>
<path d="M118.819 110.931L115.987 114.09C115.857 114.131 115.739 114.2 115.64 114.293C115.516 114.414 115.433 114.573 115.405 114.744L111.415 119.191C111.808 119.597 112.069 119.845 112.069 119.845C112.069 119.845 111.873 120.8 111.651 122.121L112.377 121.023C114.149 121.781 119.08 123.148 131.611 123.148C132.893 123.148 134.255 123.133 135.698 123.102C135.83 123.099 135.959 123.068 136.078 123.011C136.523 123.368 137.044 123.618 137.601 123.743L138.033 122.913C138.19 122.749 138.458 122.435 138.785 122.043C138.567 122.057 138.349 122.057 138.131 122.043C135.875 121.768 134.495 116.961 133.9 112.638L133.246 112.998C132.978 113.155 132.696 113.332 132.415 113.508L132.18 113.56C132.278 114.214 132.389 114.868 132.533 115.522C123.867 117.753 119.361 115.941 117.681 114.927L120.297 112.024C119.845 111.651 119.342 111.291 118.819 110.931ZM124.914 118.374C127.638 118.336 130.347 117.958 132.978 117.249C133.34 118.668 133.892 120.032 134.619 121.304C121.121 121.52 115.542 120.218 113.554 119.525L116.477 116.255C117.72 117.066 120.375 118.374 124.914 118.374Z" fill="#263238"/>
<path d="M95.7847 85.7327L90.0229 88.1721C90.1799 88.7869 90.3303 89.3754 90.4873 89.951L96.5957 87.335L95.7847 85.7327Z" fill="#263238"/>
<path d="M93.1229 80.2456L88.5449 81.9395C88.6823 82.5346 88.8261 83.1232 88.9635 83.7118L93.9273 81.8806L93.1229 80.2456Z" fill="#263238"/>
<path d="M99.3361 92.7895C99.081 92.299 98.8063 91.7496 98.512 91.1741L92.0767 94.9476C92.3056 95.5689 92.5279 96.1379 92.7307 96.648L99.3361 92.7895Z" fill="#263238"/>
<path d="M151.617 93.4302C151.329 94.0122 151.041 94.5812 150.767 95.1175C152.552 96.7329 154.606 98.5052 156.738 100.134C156.96 99.5974 157.182 99.0088 157.392 98.3613C155.345 96.7525 153.343 95.0063 151.617 93.4302Z" fill="#263238"/>
<path d="M132.899 137.242C133.017 136.699 133.161 136.051 133.324 135.345C123.783 136.653 116.765 135.509 112.789 134.429C113.07 135.155 113.351 135.868 113.626 136.542C117.305 137.394 121.072 137.811 124.849 137.784C127.541 137.78 130.231 137.599 132.899 137.242Z" fill="#263238"/>
<path d="M153.821 89.0093C155.55 90.2702 157.342 91.4424 159.19 92.5212C159.327 91.998 159.458 91.4617 159.589 90.9124C159.589 90.8339 159.589 90.7489 159.641 90.6704C157.914 89.6472 156.239 88.5362 154.625 87.3416C154.396 87.8386 154.122 88.401 153.821 89.0093Z" fill="#263238"/>
<path d="M110.997 127.602C110.997 127.7 110.997 127.805 110.997 127.896C111.01 128.409 111.073 128.919 111.186 129.42C115.052 129.132 123.05 128.949 134.43 130.728C134.567 130.152 134.711 129.577 134.848 129.014V128.956C123.122 127.092 114.967 127.288 110.997 127.602Z" fill="#263238"/>
<path d="M137.929 145.587C137.477 145.155 137.039 144.717 136.621 144.279C129.799 148.857 121.683 150.727 116.575 151.473C116.647 152.127 116.706 152.781 116.759 153.304C122.095 152.552 130.676 150.596 137.929 145.587Z" fill="#263238"/>
<path d="M115.614 143.73C115.699 144.318 115.784 144.939 115.869 145.574C116.523 145.574 117.282 145.574 118.067 145.574C123.976 145.634 129.86 144.802 135.522 143.108C135.201 142.755 134.868 142.402 134.573 142.029L134.22 141.604C127.275 143.684 120.009 143.88 115.614 143.73Z" fill="#263238"/>
<path d="M147.457 100.369C149.02 102.331 150.727 104.221 152.428 105.987L153.736 104.679C152.035 102.894 150.302 100.964 148.746 99.0352L147.457 100.369Z" fill="#263238"/>
<path d="M147.967 110.676L149.21 109.368C147.225 107.849 145.421 106.107 143.834 104.176L142.565 105.484C144.167 107.41 145.979 109.152 147.967 110.676Z" fill="#263238"/>
<path d="M142.637 117.112C142.851 116.754 143.085 116.409 143.337 116.078C142.324 114.169 140.845 111.33 139.537 108.629L138.229 110.029C139.675 112.991 141.271 116.019 142.206 117.752C142.409 117.439 142.572 117.21 142.637 117.112Z" fill="#263238"/>
<path opacity="0.25" d="M161.427 82.4038C158.628 88.5776 153.278 100.376 152.218 102.724C150.773 105.941 139.361 117.511 137.431 118.635C135.502 119.76 134.377 122.494 133.573 125.385C132.808 128.138 130.591 130.309 130.381 133.285C129.283 132.448 127.111 131.748 124.09 131.493C118.302 131.009 112.841 132.461 112.841 127.157C112.841 121.853 116.216 116.693 116.379 115.097C116.543 113.502 113.325 116.405 111.716 115.261C110.107 114.116 99.179 101.599 95.9613 97.6028C93.9143 95.0391 90.2781 84.4312 87.9106 77.0737L87.4136 77.2307C88.1788 80.4091 89.0486 84.0911 89.768 87.1715C91.4291 94.287 93.5612 99.0285 94.5095 99.8525C95.4578 100.677 104.823 110.166 106.72 113.371C108.25 115.742 110.04 117.936 112.056 119.911C112.056 119.911 110.99 125.143 110.99 127.968C110.99 130.793 113.835 136.856 114.783 139.583C115.732 142.31 116.916 154.991 116.916 155.351C116.916 155.449 116.961 156.149 117.033 157.104C117.612 157.263 118.199 157.39 118.792 157.483C118.681 152.513 117.857 142.153 119.27 139.89C120.807 137.431 128.223 137.32 130.388 135.914C130.48 138.538 131.418 141.062 133.063 143.108C134.233 144.645 136.902 146.744 139.459 148.582L140.152 147.876C138.282 145.973 136.228 144.2 134.547 142.14C133.357 140.695 132.448 139.622 132.533 139.001C132.67 138.04 133.795 133.2 134.815 129.08L137.994 122.985C138.779 122.167 142.284 117.753 142.611 117.19C144.508 113.985 153.873 104.502 154.821 103.672C155.77 102.841 157.902 98.1064 159.563 90.9909C160.171 88.3749 160.871 85.3076 161.571 82.4888L161.427 82.4038Z" fill="black"/>
<path d="M112.056 119.839C112.056 119.839 110.99 125.071 110.99 127.896C110.99 130.721 113.835 136.784 114.783 139.511C115.732 142.238 116.916 154.919 116.916 155.279C116.916 155.377 116.961 156.077 117.033 157.032C121.225 158.202 129.871 158.601 140.178 147.797C138.308 145.894 136.254 144.122 134.574 142.062C133.383 140.616 132.474 139.544 132.559 138.923C132.697 137.961 133.821 133.122 134.842 129.001L138.02 122.906C138.805 122.089 142.31 117.674 142.637 117.112C144.534 113.907 153.899 104.424 154.848 103.593C155.796 102.763 157.928 98.0279 159.589 90.9124C160.197 88.2964 160.897 85.2291 161.597 82.4104C160.259 82.1324 158.966 81.6748 157.751 81.0501C156.607 83.2867 155.482 85.5234 154.848 86.8837C153.186 90.4415 148.798 98.9762 148.798 98.9762L137.778 110.474C137.778 110.474 136.117 111.304 133.272 112.959C133.004 113.116 132.723 113.292 132.441 113.469L127.209 114.62L122.723 113.796C120.595 112.137 118.379 110.593 116.085 109.172C113.24 107.517 111.579 106.687 111.579 106.687L100.559 95.1895C100.559 95.1895 96.1706 86.6875 94.5095 83.0971C93.7443 81.4621 92.2793 78.5649 90.919 75.9031C89.7733 76.3846 88.6032 76.8059 87.4136 77.1653C88.1788 80.3437 89.0486 84.0258 89.768 87.1061C91.4291 94.2216 93.5612 98.9631 94.5095 99.7937C95.4578 100.624 104.823 110.101 106.72 113.305C108.251 115.674 110.04 117.866 112.056 119.839V119.839Z" stroke="#263238" stroke-linecap="round" stroke-linejoin="round"/>
<path d="M121.539 104.542C121.539 104.542 121.657 112.01 121.062 113.789C120.467 115.568 117.138 119.021 118.577 121.853C120.015 124.685 125.215 121.493 127.079 118.06C128.942 114.626 128.033 113.554 128.033 113.554V108.322L121.539 104.542Z" fill="white"/>
<path d="M128.06 108.335L121.52 104.542C121.52 104.542 121.637 112.01 121.042 113.789C120.955 114.035 120.848 114.274 120.722 114.502C121.964 114.904 123.296 114.933 124.554 114.587C125.877 114.03 127.066 113.196 128.04 112.141L128.06 108.335Z" fill="#F5E356"/>
<path opacity="0.5" d="M128.06 108.335L121.52 104.542C121.52 104.542 121.637 112.01 121.042 113.789C120.955 114.035 120.848 114.274 120.722 114.502C121.964 114.904 123.296 114.933 124.554 114.587C125.877 114.03 127.066 113.196 128.04 112.141L128.06 108.335Z" fill="white"/>
<path d="M121.539 104.542C121.539 104.542 121.657 112.01 121.062 113.789C120.467 115.568 117.138 119.021 118.577 121.853C120.015 124.685 125.215 121.493 127.079 118.06C128.942 114.626 128.033 113.554 128.033 113.554V108.322L121.539 104.542Z" stroke="#263238" stroke-linecap="round" stroke-linejoin="round"/>
<path d="M120.231 99.5649C120.231 99.5649 117.982 97.4329 117.386 98.9763C116.791 100.52 118.335 102.77 119.165 103.005L119.996 103.24C120.364 104.93 121.185 106.487 122.37 107.746C124.266 109.643 126.399 110.591 128.766 109.408C131.133 108.224 133.037 105.255 133.625 101.703C133.983 99.9487 134.104 98.1538 133.985 96.3669C133.985 95.7717 132.919 91.5076 129.832 90.4416C126.745 89.3756 127.105 90.6771 124.737 93.4042C123.098 95.354 121.593 97.4122 120.231 99.5649Z" fill="white"/>
<path d="M133.337 94.1758C133.534 96.1378 133.861 101.226 132.448 103.665C130.682 106.713 128.91 109.61 125.378 108.165C121.847 106.72 120.715 103.018 120.715 103.018C120.715 103.018 119.754 103.181 118.302 101.893C118.153 101.754 117.98 101.643 117.792 101.566C118.079 102.185 118.562 102.693 119.165 103.011L119.996 103.247C120.364 104.936 121.184 106.494 122.37 107.753C124.266 109.649 126.398 110.598 128.766 109.414C131.133 108.23 133.036 105.261 133.625 101.71C133.983 99.9551 134.104 98.1602 133.985 96.3732C133.88 95.6126 133.661 94.8719 133.337 94.1758Z" fill="#F5E356"/>
<path opacity="0.5" d="M133.337 94.1758C133.534 96.1378 133.861 101.226 132.448 103.665C130.682 106.713 128.91 109.61 125.378 108.165C121.847 106.72 120.715 103.018 120.715 103.018C120.715 103.018 119.754 103.181 118.302 101.893C118.153 101.754 117.98 101.643 117.792 101.566C118.079 102.185 118.562 102.693 119.165 103.011L119.996 103.247C120.364 104.936 121.184 106.494 122.37 107.753C124.266 109.649 126.398 110.598 128.766 109.414C131.133 108.23 133.036 105.261 133.625 101.71C133.983 99.9551 134.104 98.1602 133.985 96.3732C133.88 95.6126 133.661 94.8719 133.337 94.1758Z" fill="white"/>
<path d="M120.231 99.5649C120.231 99.5649 117.982 97.4329 117.386 98.9763C116.791 100.52 118.335 102.77 119.165 103.005L119.996 103.24C120.364 104.93 121.185 106.487 122.37 107.746C124.266 109.643 126.399 110.591 128.766 109.408C131.133 108.224 133.037 105.255 133.625 101.703C133.983 99.9487 134.104 98.1538 133.985 96.3669C133.985 95.7717 132.919 91.5076 129.832 90.4416C126.745 89.3756 127.105 90.6771 124.737 93.4042C123.098 95.354 121.593 97.4122 120.231 99.5649V99.5649Z" stroke="#263238" stroke-linecap="round" stroke-linejoin="round"/>
<path d="M130.074 97.1973C130.074 97.1973 129.243 98.7342 129.596 99.0939C129.95 99.4536 131.14 100.16 130.545 100.513C129.983 100.756 129.377 100.878 128.766 100.873" stroke="#263238" stroke-linecap="round" stroke-linejoin="round"/>
<path d="M125.333 101.37C125.333 101.37 126.752 103.031 131.258 102.436C131.258 102.436 128.531 105.163 127.334 105.163C126.137 105.163 125.333 101.37 125.333 101.37Z" stroke="#263238" stroke-linecap="round" stroke-linejoin="round"/>
<path d="M124.502 97.5507C124.502 97.5507 126.163 96.9621 127.118 97.9104" stroke="#263238" stroke-linecap="round" stroke-linejoin="round"/>
<path d="M130.427 98.4987C130.427 98.4987 132.324 97.9101 132.677 99.2116" stroke="#263238" stroke-linecap="round" stroke-linejoin="round"/>
<path d="M124.384 95.5362C124.756 95.1065 125.255 94.8065 125.809 94.6795C126.363 94.5525 126.943 94.6052 127.465 94.8299" stroke="#263238" stroke-linecap="round" stroke-linejoin="round"/>
<path d="M130.663 96.138C130.663 96.138 132.206 94.7123 133.279 97.3217" stroke="#263238" stroke-linecap="round" stroke-linejoin="round"/>
</svg>
