<svg width="224" height="217" viewBox="0 0 224 217" fill="none" xmlns="http://www.w3.org/2000/svg">
<path d="M63.9078 1.7168H3.22461V102.162H63.9078V1.7168Z" fill="#E0E0E0"/>
<path d="M61.8875 1.7168H1.20435V102.162H61.8875V1.7168Z" fill="#EBEBEB"/>
<path d="M59.3046 3.75244H3.79199V100.122H59.3046V3.75244Z" fill="#FAFAFA"/>
<path d="M48.4908 16.2729H14.3572V87.596H48.4908V16.2729Z" fill="#EBEBEB"/>
<path d="M14.357 62.3605C14.2773 55.697 20.269 49.1927 26.8678 48.2622C30.0129 47.8192 33.3373 48.4414 36.2983 47.237C41.5434 45.0871 43.2156 38.1151 48.4956 36.0449L48.7345 87.6012H14.357V62.3605Z" fill="#E0E0E0"/>
<path d="M197.218 29.6665L192.237 29.6934L192.371 54.4759L197.353 54.449L197.218 29.6665Z" fill="#E0E0E0"/>
<path d="M161.991 29.728L149.092 29.7978L149.165 43.4779L162.065 43.4081L161.991 29.728Z" fill="#EBEBEB"/>
<path d="M174.829 29.6636L161.931 29.7334L162.004 43.4135L174.903 43.3437L174.829 29.6636Z" fill="#F5F5F5"/>
<path d="M149.11 33.5912C157.679 33.6608 166.274 33.5912 174.843 33.4718C174.876 33.4656 174.904 33.4487 174.925 33.4237C174.945 33.3987 174.956 33.3673 174.956 33.3349C174.956 33.3025 174.945 33.2711 174.925 33.2461C174.904 33.2211 174.876 33.2042 174.843 33.198C166.271 33.1483 157.693 33.1997 149.11 33.3523C149.079 33.3523 149.048 33.3649 149.026 33.3873C149.003 33.4096 148.991 33.44 148.991 33.4718C148.991 33.5035 149.003 33.5338 149.026 33.5562C149.048 33.5786 149.079 33.5912 149.11 33.5912Z" fill="#E0E0E0"/>
<path d="M164.487 43.186L141.053 43.3129L141.113 54.46L164.547 54.3332L164.487 43.186Z" fill="#EBEBEB"/>
<path d="M187.806 43.0596L164.372 43.1863L164.432 54.3334L187.866 54.2067L187.806 43.0596Z" fill="#F5F5F5"/>
<path d="M141.063 46.4205C156.63 46.5996 172.251 46.4205 187.817 46.1916C187.849 46.1855 187.878 46.1685 187.898 46.1435C187.918 46.1185 187.93 46.0872 187.93 46.0548C187.93 46.0223 187.918 45.9909 187.898 45.9659C187.878 45.9409 187.849 45.924 187.817 45.9179C172.251 45.8333 156.63 45.8432 141.063 46.1866C141.036 46.1922 141.012 46.2069 140.995 46.2281C140.977 46.2494 140.968 46.276 140.968 46.3036C140.968 46.331 140.977 46.3576 140.995 46.3789C141.012 46.4003 141.036 46.4149 141.063 46.4205Z" fill="#E0E0E0"/>
<path d="M223.086 54.4678H132.3V58.4639H223.086V54.4678Z" fill="#E0E0E0"/>
<path d="M150.852 56.3887H147.165V70.0192H150.852V56.3887Z" fill="#E0E0E0"/>
<path d="M205.867 56.3887H202.179V70.0192H205.867V56.3887Z" fill="#E0E0E0"/>
<path d="M202.08 20.4238L197.098 20.4508L197.283 54.5341L202.264 54.5072L202.08 20.4238Z" fill="#EBEBEB"/>
<path d="M209.862 26.7715L202.124 26.8134L202.274 54.4324L210.012 54.3905L209.862 26.7715Z" fill="#F5F5F5"/>
<path d="M209.803 32.1031C207.227 32.2823 204.641 32.2823 202.065 32.1031C204.641 31.924 207.227 31.924 209.803 32.1031Z" fill="#E0E0E0"/>
<path d="M209.803 30.9439C207.227 31.123 204.641 31.123 202.065 30.9439C204.641 30.7648 207.227 30.7648 209.803 30.9439Z" fill="#E0E0E0"/>
<path d="M209.803 50.2281C207.227 50.4072 204.641 50.4072 202.065 50.2281C204.641 50.049 207.227 50.049 209.803 50.2281Z" fill="#E0E0E0"/>
<path d="M209.803 49.0885C207.227 49.261 204.642 49.261 202.065 49.0885C204.641 48.9093 207.227 48.9093 209.803 49.0885Z" fill="#E0E0E0"/>
<path d="M206.06 46.5551C205.986 46.5551 205.927 43.7683 205.927 40.3295C205.927 36.8908 205.986 34.1089 206.06 34.1089C206.136 34.1089 206.195 36.8908 206.195 40.3295C206.195 43.7683 206.126 46.5551 206.06 46.5551Z" fill="#E0E0E0"/>
<path d="M218.313 33.562H209.887V54.4085H218.313V33.562Z" fill="#EBEBEB"/>
<path d="M200.945 26.2565C200.95 26.541 200.87 26.8204 200.716 27.0593C200.561 27.2984 200.339 27.4859 200.077 27.5982C199.816 27.7104 199.528 27.7425 199.247 27.6899C198.968 27.6375 198.711 27.503 198.508 27.3037C198.305 27.1042 198.165 26.8489 198.108 26.5702C198.051 26.2915 198.078 26.0021 198.186 25.7387C198.293 25.4754 198.476 25.2501 198.713 25.0915C198.95 24.9329 199.227 24.8482 199.511 24.8482C199.888 24.8467 200.25 24.9939 200.518 25.2576C200.786 25.5213 200.94 25.8803 200.945 26.2565Z" fill="#E0E0E0"/>
<path d="M199.955 30.1929H199.069V50.467H199.955V30.1929Z" fill="#E0E0E0"/>
<path d="M72.6514 188.375C72.6514 188.375 68.088 191.859 72.4573 196.442C72.4946 196.481 72.5394 196.512 72.589 196.533C72.6386 196.555 72.6919 196.566 72.7459 196.566L112.613 196.332C112.613 196.332 116.017 192.515 113.19 188.116L72.6514 188.375Z" fill="#EBEBEB"/>
<path d="M103.799 192.002C103.799 192.047 98.8225 192.083 92.7171 192.083C86.6106 192.083 81.6292 192.047 81.6292 192.002C81.6292 191.959 86.6056 191.923 92.7171 191.923C98.8276 191.923 103.799 191.959 103.799 192.002Z" fill="#E0E0E0"/>
<path d="M97.5988 193.445C97.5988 193.49 95.2697 193.526 92.3888 193.526C89.5069 193.526 87.178 193.49 87.178 193.445C87.178 193.401 89.512 193.361 92.3888 193.361C95.2646 193.361 97.5988 193.401 97.5988 193.445Z" fill="#E0E0E0"/>
<path d="M107.875 196.203C107.875 196.203 107.965 195.745 108.089 195.009C108.248 194.048 108.326 193.076 108.318 192.102C108.308 191.128 108.214 190.155 108.034 189.196C107.895 188.46 107.776 188.012 107.801 188.002C107.85 188.101 107.887 188.204 107.915 188.31C108.008 188.592 108.084 188.88 108.144 189.172C108.357 190.132 108.471 191.113 108.482 192.097C108.488 193.081 108.393 194.063 108.198 195.028C108.124 195.397 108.049 195.695 107.989 195.895C107.93 196.094 107.89 196.208 107.875 196.203Z" fill="#E0E0E0"/>
<path d="M110.851 188.076C110.924 188.164 110.984 188.261 111.03 188.365C111.095 188.481 111.155 188.601 111.21 188.724C111.285 188.886 111.351 189.051 111.408 189.221C111.572 189.65 111.699 190.09 111.792 190.54C111.896 191.093 111.954 191.654 111.965 192.216C111.964 192.78 111.914 193.343 111.816 193.899C111.734 194.351 111.613 194.795 111.458 195.228C111.398 195.416 111.324 195.576 111.264 195.725C111.214 195.848 111.155 195.968 111.09 196.083C111.045 196.188 110.989 196.286 110.921 196.377C110.89 196.377 111.115 195.935 111.353 195.197C111.661 194.233 111.812 193.225 111.801 192.211C111.795 191.658 111.742 191.105 111.642 190.559C111.56 190.115 111.447 189.675 111.303 189.246C111.075 188.504 110.826 188.076 110.851 188.076Z" fill="#E0E0E0"/>
<path d="M78.9418 196.258C78.868 196.176 78.8045 196.086 78.7527 195.989C78.6845 195.884 78.6229 195.773 78.5685 195.66C78.4896 195.511 78.4181 195.358 78.3546 195.202C78.1859 194.797 78.0559 194.374 77.9664 193.944C77.8616 193.415 77.81 192.875 77.8121 192.336C77.824 191.796 77.8907 191.26 78.0111 190.734C78.1118 190.306 78.2534 189.889 78.4341 189.49C78.4998 189.335 78.5745 189.183 78.6581 189.037C78.7135 188.922 78.7785 188.813 78.8522 188.708C78.9667 188.534 79.0363 188.439 79.0463 188.449C79.0562 188.46 78.8174 188.847 78.5486 189.535C78.3861 189.934 78.2578 190.347 78.1654 190.768C78.0575 191.286 77.9958 191.813 77.9813 192.341C77.9822 192.868 78.0288 193.394 78.1206 193.913C78.2052 194.337 78.3215 194.753 78.469 195.158C78.7277 195.85 78.9666 196.243 78.9418 196.258Z" fill="#E0E0E0"/>
<path d="M74.6372 197.227C74.5547 197.139 74.4859 197.039 74.4331 196.93C74.3616 196.803 74.3 196.672 74.2489 196.536C74.1586 196.375 74.0772 196.209 74.0051 196.038C73.813 195.584 73.6615 195.112 73.5522 194.63C73.2739 193.448 73.2468 192.22 73.4727 191.027C73.5604 190.54 73.6919 190.062 73.8658 189.599C73.9305 189.4 74.0151 189.23 74.0798 189.076C74.1373 188.945 74.202 188.817 74.2738 188.693C74.3265 188.583 74.3899 188.478 74.463 188.38C74.4928 188.38 74.2391 188.852 73.9653 189.638C73.8113 190.1 73.6931 190.572 73.612 191.052C73.5186 191.639 73.4753 192.234 73.4826 192.828C73.5086 193.913 73.719 194.985 74.1046 195.999C74.3883 196.77 74.6621 197.213 74.6372 197.227Z" fill="#E0E0E0"/>
<path d="M111.149 208.48V216.104H96.3892V208.48H111.149Z" fill="#EBEBEB"/>
<path d="M63.4749 212.357C63.4749 212.426 63.4749 212.491 63.4749 212.561C63.5461 213.674 64.0404 214.718 64.8564 215.479C65.6725 216.239 66.7487 216.658 67.8642 216.651H111.827V216.099H101.376C100.365 216.099 99.3955 215.697 98.6807 214.982C97.9658 214.267 97.564 213.298 97.564 212.287C97.564 211.276 97.9658 210.306 98.6807 209.591C99.3955 208.877 100.365 208.475 101.376 208.475H111.827V207.664L67.8543 207.813C67.2657 207.815 66.6835 207.934 66.1421 208.166C65.6008 208.396 65.1113 208.734 64.7029 209.158C64.2943 209.581 63.9752 210.083 63.7643 210.633C63.5534 211.182 63.455 211.769 63.4749 212.357Z" fill="#E0E0E0"/>
<path d="M111.15 212.386C111.15 212.431 108.114 212.471 104.372 212.471C100.63 212.471 97.5938 212.431 97.5938 212.386C97.5938 212.341 100.63 212.307 104.372 212.307C108.114 212.307 111.15 212.346 111.15 212.386Z" fill="#E0E0E0"/>
<path d="M110.935 214.108C110.935 214.153 108.065 214.188 104.521 214.188C100.978 214.188 98.1067 214.153 98.1067 214.108C98.1067 214.064 100.978 214.028 104.521 214.028C108.065 214.028 110.935 214.064 110.935 214.108Z" fill="#E0E0E0"/>
<path d="M111.149 215.68C111.149 215.725 108.566 215.761 105.382 215.761C102.197 215.761 99.6138 215.725 99.6138 215.68C99.6138 215.636 102.197 215.601 105.382 215.601C108.566 215.601 111.149 215.636 111.149 215.68Z" fill="#E0E0E0"/>
<path d="M111.149 210.844C111.149 210.889 108.164 210.923 104.511 210.923C100.858 210.923 97.8721 210.889 97.8721 210.844C97.8721 210.799 100.858 210.764 104.511 210.764C108.164 210.764 111.149 210.799 111.149 210.844Z" fill="#E0E0E0"/>
<path d="M110.935 209.301C110.935 209.346 108.288 209.38 105.029 209.38C101.769 209.38 99.1162 209.346 99.1162 209.301C99.1162 209.256 101.764 209.221 105.029 209.221C108.293 209.221 110.935 209.256 110.935 209.301Z" fill="#E0E0E0"/>
<path d="M68.8048 207.938C68.4634 208.281 68.1504 208.652 67.8693 209.047C67.2019 210.011 66.8506 211.157 66.864 212.329C66.8773 213.5 67.2548 214.639 67.9439 215.587C68.2367 215.973 68.5577 216.337 68.9043 216.677C68.7913 216.611 68.6862 216.532 68.5909 216.442C68.3183 216.207 68.0714 215.944 67.8543 215.656C67.1223 214.701 66.7194 213.533 66.7059 212.33C66.6925 211.125 67.0692 209.95 67.7797 208.978C67.9887 208.685 68.2289 208.417 68.4963 208.176C68.5882 208.083 68.692 208.004 68.8048 207.938Z" fill="#F5F5F5"/>
<path d="M67.3169 207.773C66.9798 208.123 66.6671 208.495 66.3813 208.888C65.7165 209.852 65.3671 210.998 65.3814 212.168C65.3957 213.338 65.7729 214.475 66.4609 215.423C66.752 215.81 67.0731 216.174 67.4214 216.512C67.3053 216.449 67.1982 216.37 67.1029 216.278C66.8304 216.043 66.5835 215.78 66.3664 215.492C65.6344 214.539 65.2311 213.373 65.2167 212.171C65.2023 210.969 65.5778 209.795 66.2868 208.824C66.4959 208.53 66.7362 208.26 67.0033 208.017C67.0978 207.924 67.203 207.842 67.3169 207.773Z" fill="#F5F5F5"/>
<path d="M97.1857 207.938C96.8481 208.284 96.5371 208.655 96.2546 209.047C95.5877 210.011 95.2359 211.157 95.2501 212.329C95.2634 213.5 95.6407 214.639 96.3301 215.587C96.6227 215.973 96.943 216.337 97.2897 216.677C97.1744 216.612 97.0684 216.533 96.9715 216.442C96.7013 216.207 96.4555 215.944 96.2403 215.656C95.5051 214.703 95.0982 213.537 95.0819 212.333C95.0645 211.129 95.4378 209.952 96.1455 208.978C96.3525 208.684 96.5932 208.416 96.8624 208.176C96.9603 208.085 97.0694 208.005 97.1857 207.938Z" fill="#F5F5F5"/>
<path d="M95.7029 207.773C95.3623 208.12 95.0493 208.492 94.7668 208.888C94.0988 209.851 93.748 210.996 93.7613 212.168C93.7745 213.338 94.1519 214.475 94.8412 215.423C95.1339 215.809 95.4551 216.173 95.8018 216.512C95.6887 216.447 95.5836 216.368 95.4888 216.278C95.2145 216.044 94.9677 215.781 94.7525 215.492C94.0203 214.539 93.6165 213.373 93.6022 212.171C93.5879 210.969 93.9632 209.795 94.6719 208.824C94.882 208.53 95.1217 208.26 95.3888 208.017C95.4827 207.922 95.5877 207.841 95.7029 207.773Z" fill="#F5F5F5"/>
<path d="M73.8062 213.457L73.7615 210.351C73.7772 210.081 73.7418 209.811 73.6569 209.555C73.6118 209.426 73.5329 209.313 73.4288 209.226C73.3246 209.138 73.199 209.08 73.0648 209.057C72.6766 208.883 72.0695 209.206 71.8007 209.655C71.5626 210.125 71.4576 210.651 71.4972 211.177C71.4872 211.995 71.527 212.813 71.6166 213.626C71.6334 214.016 71.7317 214.4 71.9053 214.751C71.9827 214.932 72.1154 215.084 72.2845 215.186C72.4536 215.287 72.6505 215.333 72.847 215.316C73.0434 215.298 73.2296 215.22 73.3785 215.09C73.5276 214.961 73.6321 214.788 73.6769 214.596C73.7923 214.228 73.8362 213.841 73.8062 213.457Z" fill="#F5F5F5"/>
<path d="M90.8804 212.535C90.8804 212.58 87.7003 212.62 83.7838 212.62C79.8673 212.62 76.6824 212.58 76.6824 212.535C76.6824 212.49 79.8623 212.456 83.7838 212.456C87.7053 212.456 90.8804 212.49 90.8804 212.535Z" fill="#F5F5F5"/>
<path d="M70.8602 207.633L70.7805 200.403H74.7169L74.8513 207.633H70.8602Z" fill="#F5F5F5"/>
<path d="M74.4829 201.687C73.8761 201.77 73.2633 201.798 72.6515 201.772C72.0414 201.798 71.4301 201.771 70.8252 201.687C71.4304 201.608 72.0416 201.581 72.6515 201.608C73.2632 201.581 73.8759 201.608 74.4829 201.687Z" fill="#E0E0E0"/>
<path d="M74.4829 202.807C73.8759 202.886 73.2632 202.913 72.6515 202.886C72.0416 202.913 71.4304 202.886 70.8252 202.807C71.4304 202.727 72.0416 202.7 72.6515 202.727C73.2632 202.7 73.8759 202.727 74.4829 202.807Z" fill="#E0E0E0"/>
<path d="M74.4829 203.921C73.8759 204.001 73.2632 204.028 72.6515 204.001C72.0416 204.028 71.4304 204.001 70.8252 203.921C71.4304 203.842 72.0416 203.814 72.6515 203.842C73.2632 203.814 73.8759 203.842 74.4829 203.921Z" fill="#E0E0E0"/>
<path d="M74.4829 205.036C73.8759 205.115 73.2632 205.142 72.6515 205.115C72.0416 205.143 71.4304 205.115 70.8252 205.036C71.4304 204.956 72.0416 204.93 72.6515 204.956C73.2632 204.93 73.8759 204.956 74.4829 205.036Z" fill="#E0E0E0"/>
<path d="M74.4829 206.151C73.8761 206.234 73.2633 206.263 72.6515 206.235C72.0414 206.263 71.4301 206.234 70.8252 206.151C71.4307 206.074 72.0416 206.048 72.6515 206.071C73.2632 206.048 73.8756 206.074 74.4829 206.151Z" fill="#E0E0E0"/>
<path d="M70.5713 200.209H114.196C114.696 202.792 114.696 205.445 114.196 208.027H70.7655V207.485H73.4229C73.5873 207.485 73.7501 207.452 73.902 207.389C74.0539 207.326 74.1918 207.234 74.3078 207.117C74.4239 207 74.5159 206.862 74.5783 206.711C74.6408 206.558 74.6726 206.395 74.672 206.23V201.906C74.6726 201.741 74.6408 201.579 74.5783 201.426C74.5159 201.274 74.4239 201.136 74.3078 201.019C74.1918 200.903 74.0539 200.81 73.902 200.748C73.7501 200.685 73.5873 200.652 73.4229 200.652H70.5813L70.5713 200.209Z" fill="#EBEBEB"/>
<path d="M80.8826 204.126H81.6091C81.6352 204.119 81.6627 204.119 81.6887 204.126C81.7135 204.138 81.7342 204.157 81.7483 204.181C81.7625 204.205 81.7694 204.233 81.7684 204.26C81.7711 204.277 81.7711 204.293 81.7684 204.31C81.7684 204.369 81.7385 204.43 81.7186 204.494C81.6315 204.8 81.4748 205.08 81.2607 205.315C81.1862 205.41 81.0927 205.486 80.9864 205.542C80.8802 205.598 80.7634 205.631 80.6437 205.639H80.5541C80.4498 205.62 80.3511 205.577 80.265 205.516C80.179 205.453 80.1078 205.373 80.0565 205.28C79.9048 205.014 79.8307 204.711 79.8425 204.404C79.8439 204.193 79.8723 203.982 79.9271 203.777C80.0068 203.468 80.1548 203.181 80.3601 202.937C80.4371 202.834 80.5359 202.749 80.6495 202.689C80.763 202.629 80.8885 202.594 81.0169 202.588C81.1114 202.588 81.2048 202.608 81.2906 202.648C81.497 202.763 81.6505 202.954 81.7186 203.18C81.7233 203.205 81.7233 203.23 81.7186 203.255C81.7254 203.279 81.7254 203.305 81.7186 203.329C81.7053 203.354 81.6859 203.373 81.6622 203.387C81.6387 203.402 81.6117 203.409 81.5843 203.409C81.5681 203.415 81.5506 203.415 81.5345 203.409C81.5114 203.403 81.4902 203.391 81.4727 203.374C81.4554 203.358 81.4423 203.337 81.435 203.315C81.4132 203.253 81.383 203.194 81.3454 203.141C81.3093 203.079 81.2584 203.029 81.1975 202.994C81.1365 202.958 81.0676 202.939 80.997 202.937C80.9101 202.937 80.8261 202.967 80.7582 203.021C80.5754 203.171 80.4377 203.37 80.3601 203.593C80.2501 203.853 80.1927 204.132 80.1909 204.414C80.1836 204.637 80.2262 204.858 80.3153 205.061C80.3423 205.141 80.3929 205.211 80.4604 205.262C80.5279 205.313 80.6092 205.341 80.6934 205.345C80.7642 205.337 80.8324 205.314 80.8934 205.276C80.9544 205.239 81.0067 205.19 81.0468 205.131C81.2136 204.933 81.3405 204.705 81.42 204.459C81.0866 204.459 80.9224 204.459 80.8975 204.459C80.8513 204.459 80.807 204.441 80.7743 204.408C80.7417 204.376 80.7233 204.332 80.7233 204.285V204.231C80.7369 204.199 80.7591 204.173 80.7873 204.154C80.8157 204.136 80.8487 204.126 80.8826 204.126Z" fill="#FAFAFA"/>
<path d="M83.3611 202.702C83.3611 202.702 83.3611 202.737 83.3611 202.757C83.391 202.86 83.5569 203.76 83.8587 205.459C83.8612 205.472 83.8612 205.486 83.8587 205.499C83.8654 205.525 83.8654 205.552 83.8587 205.578C83.8472 205.603 83.8288 205.623 83.8059 205.638C83.7828 205.652 83.7563 205.659 83.7293 205.658H83.7044C83.6762 205.653 83.6498 205.641 83.6287 205.621C83.6074 205.602 83.5923 205.576 83.585 205.549L83.4108 204.647H82.5151L82.0822 205.554C82.0855 205.563 82.0855 205.573 82.0822 205.584C82.0672 205.606 82.0473 205.624 82.0239 205.637C82.0006 205.65 81.9745 205.657 81.9478 205.658C81.9179 205.657 81.8887 205.649 81.8631 205.634C81.8416 205.618 81.8241 205.598 81.8119 205.574C81.7998 205.551 81.7935 205.525 81.7935 205.499C81.7889 205.485 81.7889 205.468 81.7935 205.454C81.8184 205.39 81.8631 205.295 81.9279 205.16C82.5549 203.787 82.9232 202.981 83.0526 202.732C83.0646 202.702 83.085 202.675 83.1114 202.656C83.1378 202.636 83.1691 202.625 83.2019 202.622C83.233 202.621 83.2641 202.627 83.292 202.642C83.32 202.655 83.3438 202.676 83.3611 202.702ZM83.167 203.31L82.6694 204.329H83.3561L83.167 203.31Z" fill="#FAFAFA"/>
<path d="M85.7945 205.658H84.4807C84.4508 205.657 84.4217 205.649 84.3962 205.634C84.3734 205.612 84.3552 205.587 84.3423 205.558C84.3296 205.531 84.3225 205.5 84.3215 205.469C84.3215 205.419 84.4409 204.518 84.6848 202.781C84.6823 202.762 84.6823 202.742 84.6848 202.722C84.6955 202.693 84.7153 202.668 84.7413 202.651C84.7673 202.633 84.7981 202.625 84.8291 202.627C84.852 202.622 84.8759 202.622 84.8987 202.627C84.9248 202.64 84.9468 202.66 84.9617 202.684C84.9768 202.709 84.9843 202.738 84.9834 202.767L84.8987 203.503C84.7494 204.655 84.6699 205.261 84.6599 205.325H85.7796C85.8075 205.32 85.8362 205.32 85.8642 205.325C85.8943 205.336 85.92 205.356 85.9379 205.384C85.9557 205.41 85.9648 205.442 85.9638 205.474C85.966 205.491 85.966 205.507 85.9638 205.524C85.954 205.561 85.9323 205.595 85.9017 205.619C85.8712 205.644 85.8336 205.657 85.7945 205.658Z" fill="#FAFAFA"/>
<path d="M87.591 202.702C87.591 202.702 87.591 202.737 87.591 202.757C87.6209 202.862 87.7951 203.752 88.0887 205.459C88.0909 205.472 88.0909 205.486 88.0887 205.499C88.0874 205.527 88.0789 205.555 88.0638 205.578C88.0522 205.603 88.0339 205.623 88.0109 205.638C87.988 205.652 87.9614 205.659 87.9345 205.658H87.9096C87.8816 205.652 87.8558 205.639 87.8348 205.619C87.8138 205.601 87.7984 205.575 87.7901 205.549L87.6856 204.647H86.7899L86.3569 205.554C86.359 205.563 86.359 205.573 86.3569 205.583C86.3405 205.605 86.3194 205.623 86.2954 205.635C86.2713 205.649 86.2448 205.656 86.2176 205.658C86.1877 205.657 86.1587 205.648 86.1329 205.633C86.1114 205.618 86.0938 205.598 86.0817 205.574C86.0696 205.551 86.0633 205.525 86.0633 205.499C86.0609 205.484 86.0609 205.469 86.0633 205.454C86.0882 205.39 86.1329 205.295 86.1976 205.16C86.8246 203.787 87.1929 202.981 87.3223 202.732C87.3344 202.702 87.3548 202.675 87.3812 202.656C87.4076 202.636 87.439 202.625 87.4716 202.622C87.496 202.627 87.5191 202.636 87.5396 202.65C87.5602 202.664 87.5777 202.681 87.591 202.702ZM87.3969 203.309L86.8993 204.329H87.5861L87.3969 203.309Z" fill="#FAFAFA"/>
<path d="M89.6762 204.255L89.9148 204.912C90.0494 205.29 90.1188 205.484 90.1188 205.504C90.1269 205.53 90.1269 205.557 90.1188 205.584C90.1045 205.606 90.0851 205.625 90.0617 205.638C90.0382 205.651 90.0117 205.658 89.9842 205.658C89.925 205.658 89.8853 205.623 89.8557 205.554C89.8251 205.484 89.8557 205.504 89.8302 205.484C89.7608 205.319 89.6415 204.986 89.4773 204.559L88.736 205.554C88.7207 205.577 88.7003 205.598 88.6758 205.613C88.6513 205.627 88.6248 205.637 88.5963 205.639C88.5698 205.644 88.5432 205.644 88.5167 205.639C88.4922 205.625 88.4729 205.606 88.4596 205.582C88.4464 205.558 88.4402 205.531 88.4423 205.504V205.494C88.4586 205.446 88.4861 205.402 88.5218 205.364C88.7706 205.041 89.0195 204.658 89.3478 204.215C89.3183 204.125 89.2877 204.046 89.2581 203.966C88.9797 203.215 88.8349 202.826 88.8349 202.802C88.8308 202.775 88.8308 202.749 88.8349 202.722C88.8471 202.699 88.8665 202.678 88.8889 202.665C88.9114 202.651 88.9379 202.643 88.9644 202.643C88.994 202.643 89.0235 202.652 89.049 202.667C89.0745 202.683 89.0949 202.706 89.1092 202.732L89.5518 203.916L90.4278 202.722C90.4431 202.699 90.4635 202.68 90.4879 202.667C90.5124 202.654 90.5389 202.647 90.5665 202.648C90.5899 202.643 90.6134 202.643 90.6368 202.648C90.6623 202.66 90.6837 202.68 90.698 202.705C90.7113 202.73 90.7184 202.758 90.7164 202.786C90.7225 202.811 90.7225 202.837 90.7164 202.862L89.6762 204.255Z" fill="#FAFAFA"/>
<path d="M92.9403 202.632C92.9638 202.627 92.9872 202.627 93.0107 202.632C93.0362 202.644 93.0576 202.663 93.0729 202.686C93.0882 202.711 93.0953 202.738 93.0943 202.767C92.8812 204.469 92.7619 205.385 92.7415 205.523C92.7037 205.781 92.6069 206.027 92.458 206.24C92.3162 206.44 92.1072 206.582 91.8696 206.64C91.633 206.698 91.3821 206.67 91.1639 206.558C90.9681 206.478 90.8049 206.335 90.7009 206.151C90.6968 206.126 90.6968 206.101 90.7009 206.076C90.6938 206.05 90.6938 206.022 90.7009 205.997C90.7131 205.972 90.7325 205.951 90.757 205.937C90.7805 205.923 90.808 205.916 90.8355 205.917C90.859 205.918 90.8814 205.925 90.9018 205.936C90.9232 205.948 90.9406 205.963 90.9548 205.981C91.0283 206.094 91.1272 206.188 91.2444 206.255C91.3607 206.322 91.4922 206.36 91.6269 206.365C91.7237 206.36 91.8186 206.334 91.9053 206.288C91.9909 206.243 92.0664 206.179 92.1245 206.101C92.304 205.862 92.4039 205.573 92.4131 205.275C92.3631 205.355 92.2968 205.425 92.2193 205.478C92.0847 205.58 91.9195 205.635 91.7513 205.633H91.6615C91.5575 205.615 91.4576 205.573 91.3719 205.511C91.2852 205.449 91.2149 205.368 91.1639 205.275C91.0089 205.01 90.9324 204.705 90.9446 204.399C90.9446 204.239 90.9446 204.075 90.9446 203.901C90.9681 203.633 91.0283 203.254 91.1241 202.767C91.12 202.752 91.12 202.736 91.1241 202.722C91.1323 202.69 91.1496 202.663 91.1751 202.644C91.2006 202.623 91.2312 202.613 91.2638 202.613C91.2903 202.614 91.3158 202.622 91.3383 202.637C91.3617 202.648 91.3821 202.666 91.3964 202.687C91.4107 202.71 91.4178 202.735 91.4178 202.762C91.4035 202.962 91.3791 203.162 91.3434 203.359C91.2914 203.663 91.2587 203.971 91.2434 204.279C91.2342 204.522 91.273 204.764 91.3576 204.991C91.4474 205.205 91.5769 205.309 91.7462 205.309H91.8012C91.9664 205.257 92.1062 205.146 92.1939 204.996C92.3509 204.779 92.461 204.532 92.5171 204.27L92.717 202.777C92.7139 202.756 92.7139 202.733 92.717 202.712C92.7231 202.689 92.7343 202.669 92.7496 202.652C92.7659 202.634 92.7853 202.621 92.8077 202.613C92.8302 202.606 92.8536 202.603 92.8761 202.607C92.8995 202.61 92.922 202.619 92.9403 202.632Z" fill="#FAFAFA"/>
<path d="M112.568 208.127C112.523 208.127 112.483 206.335 112.483 204.12C112.483 201.906 112.523 200.109 112.568 200.109C112.613 200.109 112.647 201.906 112.647 204.12C112.647 206.335 112.602 208.127 112.568 208.127Z" fill="#F5F5F5"/>
<path d="M76.8567 208.127C76.8119 208.127 76.7771 206.335 76.7771 204.12C76.7771 201.906 76.8119 200.109 76.8567 200.109C76.9015 200.109 76.9363 201.906 76.9363 204.12C76.9363 206.335 76.9015 208.127 76.8567 208.127Z" fill="#E0E0E0"/>
<path d="M113.32 208.127C113.28 208.127 113.24 206.335 113.24 204.12C113.24 201.906 113.28 200.109 113.32 200.109C113.359 200.109 113.404 201.906 113.404 204.12C113.404 206.335 113.364 208.127 113.32 208.127Z" fill="#F5F5F5"/>
<path d="M76.1452 208.127C76.1004 208.127 76.0605 206.335 76.0605 204.12C76.0605 201.906 76.1004 200.109 76.1452 200.109C76.19 200.109 76.2248 201.906 76.2248 204.12C76.2248 206.335 76.185 208.127 76.1452 208.127Z" fill="#E0E0E0"/>
<path d="M101.978 201.428L106.586 205.146L106.626 205.181H106.576L105.964 205.345L102.072 206.365L98.5439 204.872L97.5486 204.444L97.2855 204.329L97.2203 204.3L97.2896 204.329L97.5537 204.435L98.549 204.853L102.083 206.346L105.974 205.32L106.591 205.155V205.2L101.988 201.473" fill="#E0E0E0"/>
<path d="M106.163 204.559L106.417 204.792L106.755 204.723L106.606 205.031L106.781 205.33L106.437 205.29L106.208 205.544L106.143 205.205L105.829 205.065L106.128 204.901L106.163 204.559Z" fill="#E0E0E0"/>
<path d="M101.744 206.021L101.914 206.166L102.133 206.106L102.048 206.315L102.173 206.499L101.948 206.484L101.809 206.658L101.754 206.444L101.545 206.365L101.734 206.245L101.744 206.021Z" fill="#E0E0E0"/>
<path d="M96.8572 204.022L97.1305 204.036L97.2998 203.822L97.3701 204.086L97.6281 204.181L97.3946 204.325L97.3844 204.603L97.1702 204.43L96.9122 204.504L97.0112 204.245L96.8572 204.022Z" fill="#E0E0E0"/>
<path d="M108.233 201.488L108.507 201.508L108.677 201.289L108.746 201.558L109 201.653L108.77 201.796L108.761 202.071L108.547 201.896L108.283 201.971L108.388 201.717L108.233 201.488Z" fill="#E0E0E0"/>
<path d="M101.754 201.309L101.928 201.319L102.038 201.185L102.083 201.354L102.247 201.413L102.097 201.508L102.092 201.682L101.958 201.568L101.789 201.617L101.853 201.453L101.754 201.309Z" fill="#E0E0E0"/>
<path d="M108.616 201.682C108.616 201.682 107.123 201.647 105.288 201.573C103.451 201.497 101.958 201.413 101.958 201.393C101.958 201.373 103.451 201.428 105.288 201.508C107.123 201.587 108.616 201.662 108.616 201.682Z" fill="#E0E0E0"/>
<path d="M110.294 200.144H66.0479C65.4707 198.83 65.3263 197.581 66.0479 196.461H110.294C110.568 197.037 110.711 197.666 110.711 198.302C110.711 198.939 110.568 199.569 110.294 200.144Z" fill="#E0E0E0"/>
<path d="M99.1813 197.512H75.2095V198.85H99.1813V197.512Z" fill="#EBEBEB"/>
<path d="M67.7449 200.165C67.5987 200.041 67.48 199.888 67.3965 199.716C67.1709 199.314 67.0335 198.869 66.9932 198.411C66.9528 197.952 67.0106 197.489 67.1626 197.054C67.2119 196.87 67.304 196.698 67.4313 196.557C67.3877 196.738 67.3346 196.918 67.2721 197.094C67.1564 197.519 67.116 197.963 67.1527 198.402C67.196 198.842 67.312 199.27 67.496 199.671C67.5935 199.828 67.6769 199.993 67.7449 200.165Z" fill="#E0E0E0"/>
<path d="M68.7053 200.165C68.5559 200.044 68.4366 199.89 68.357 199.716C68.1285 199.316 67.9893 198.872 67.949 198.413C67.9097 197.953 67.9674 197.49 68.1181 197.054C68.1722 196.871 68.2638 196.701 68.3869 196.557C68.3463 196.739 68.293 196.919 68.2277 197.094C68.1139 197.52 68.0751 197.963 68.1132 198.402C68.1517 198.843 68.268 199.272 68.4565 199.671C68.5492 199.831 68.6323 199.995 68.7053 200.165Z" fill="#E0E0E0"/>
<path d="M108.502 200.075C108.679 199.491 108.785 198.888 108.816 198.278C108.79 197.666 108.691 197.061 108.523 196.472C108.847 197.017 109.005 197.645 108.975 198.278C109.001 198.91 108.836 199.537 108.502 200.075Z" fill="#F5F5F5"/>
<path d="M107.681 200.07C107.631 200.07 107.815 199.279 107.811 198.303C107.806 197.328 107.626 196.552 107.676 196.542C108.071 197.685 108.071 198.927 107.676 200.07H107.681Z" fill="#F5F5F5"/>
<path d="M135.584 182.98L73.4129 182.94C71.6353 182.939 69.8752 182.589 68.2332 181.908C66.5912 181.227 65.0994 180.23 63.8429 178.973C62.5864 177.715 61.5898 176.222 60.9103 174.579C60.2306 172.938 59.8811 171.177 59.8818 169.399L59.9116 13.541C59.9123 11.7621 60.2633 10.0008 60.9446 8.35763C61.6261 6.71437 62.6244 5.22143 63.8827 3.96405C65.141 2.70667 66.6347 1.70934 68.2784 1.02926C69.9221 0.349068 71.6837 -0.000611061 73.4626 8.01579e-07L135.629 0.0398745C139.219 0.0424239 142.661 1.4701 145.199 4.00913C147.737 6.54815 149.163 9.99079 149.164 13.5808L149.13 169.439C149.13 171.218 148.78 172.979 148.099 174.622C147.417 176.265 146.42 177.758 145.162 179.015C143.904 180.274 142.41 181.271 140.768 181.951C139.124 182.631 137.363 182.981 135.584 182.98Z" fill="#263238"/>
<path d="M135.425 5.59875H123.371C122.979 5.6065 122.59 5.69195 122.23 5.85012C121.87 6.00839 121.544 6.23621 121.273 6.52062C121 6.80503 120.787 7.14043 120.645 7.50745C120.504 7.87446 120.435 8.26595 120.446 8.65928V10.8439C120.455 11.2374 120.386 11.6286 120.244 11.9955C120.101 12.3622 119.888 12.6972 119.615 12.9812C119.343 13.2651 119.017 13.4924 118.657 13.65C118.296 13.8076 117.908 13.8924 117.515 13.8996H94.0202C93.6266 13.8918 93.2391 13.8064 92.8791 13.6481C92.5181 13.4899 92.1928 13.2621 91.9216 12.9777C91.6493 12.6932 91.4361 12.3579 91.2944 11.9909C91.1527 11.6239 91.0843 11.2324 91.0945 10.839V8.64939C91.1068 8.25555 91.0415 7.86315 90.9018 7.4948C90.7621 7.12646 90.551 6.78933 90.2797 6.50298C90.0095 6.21662 89.6852 5.98667 89.3252 5.82636C88.9652 5.66605 88.5767 5.57856 88.1831 5.56887H83.9431H73.3979C72.1515 5.56632 70.9167 5.80933 69.7643 6.28424C68.6119 6.75914 67.5643 7.45646 66.6816 8.33652C65.7988 9.21648 65.0981 10.2618 64.6197 11.4128C64.1412 12.5637 63.8942 13.7977 63.8929 15.0442L63.8631 167.175C63.8591 168.419 64.1008 169.652 64.5742 170.802C65.0477 171.954 65.7434 172.999 66.6219 173.88C67.5002 174.761 68.5439 175.461 69.693 175.938C70.8422 176.415 72.0742 176.66 73.3184 176.66L135.365 176.696C136.611 176.696 137.844 176.451 138.995 175.975C140.146 175.499 141.193 174.801 142.074 173.921C142.955 173.04 143.654 171.994 144.132 170.844C144.609 169.694 144.855 168.461 144.855 167.215L144.915 15.0839C144.915 13.8379 144.669 12.6041 144.193 11.4529C143.716 10.3018 143.016 9.25595 142.135 8.37517C141.254 7.4943 140.208 6.79575 139.056 6.31932C137.905 5.84298 136.671 5.59813 135.425 5.59875Z" fill="white"/>
<path d="M145.596 29.7695C145.596 29.8392 127.278 29.899 104.69 29.899C82.1019 29.899 63.7983 29.8243 63.7983 29.7695C63.7983 29.7148 82.1118 29.6401 104.715 29.6401C127.318 29.6401 145.596 29.6949 145.596 29.7695Z" fill="#263238"/>
<path d="M72.3329 24.131C72.2727 24.1316 72.2144 24.1104 72.1686 24.0712L69.8048 21.9961C69.7768 21.9733 69.7546 21.9445 69.7399 21.9116C69.7252 21.8787 69.7185 21.8429 69.7202 21.8069C69.7198 21.7707 69.7277 21.7348 69.7432 21.7021C69.7587 21.6693 69.7815 21.6405 69.8098 21.6179L72.1736 19.6273C72.2246 19.586 72.2898 19.5665 72.355 19.573C72.4202 19.5795 72.4803 19.6116 72.522 19.662C72.5431 19.687 72.5589 19.716 72.5686 19.7471C72.5783 19.7783 72.5815 19.8111 72.5782 19.8437C72.575 19.8761 72.5653 19.9076 72.5496 19.9363C72.534 19.9649 72.5128 19.9901 72.4872 20.0104L70.3522 21.792L72.4921 23.6731C72.517 23.6941 72.5374 23.7199 72.5521 23.7489C72.5669 23.7779 72.5757 23.8095 72.578 23.8421C72.5804 23.8745 72.5761 23.9071 72.5657 23.9379C72.5552 23.9687 72.5387 23.9972 72.517 24.0215C72.497 24.0528 72.4698 24.079 72.4379 24.098C72.4059 24.117 72.37 24.1283 72.3329 24.131Z" fill="#263238"/>
<path d="M123.914 21.6724C123.914 21.747 116.215 21.8018 106.715 21.8018C97.2151 21.8018 89.5168 21.747 89.5168 21.6724C89.5168 21.5977 97.2151 21.543 106.715 21.543C116.215 21.543 123.914 21.6027 123.914 21.6724Z" fill="#263238"/>
<path d="M133.877 21.658C133.877 21.8351 133.825 22.0084 133.726 22.1556C133.628 22.303 133.488 22.4177 133.325 22.4855C133.16 22.5533 132.981 22.5711 132.806 22.5365C132.633 22.5019 132.473 22.4167 132.349 22.2914C132.223 22.1661 132.138 22.0065 132.103 21.8328C132.068 21.659 132.087 21.4789 132.154 21.3151C132.222 21.1515 132.336 21.0116 132.484 20.9131C132.631 20.8147 132.804 20.7622 132.982 20.7622C133.219 20.7622 133.447 20.8565 133.615 21.0246C133.783 21.1926 133.877 21.4204 133.877 21.658Z" fill="#263238"/>
<path d="M136.455 21.6575C136.455 21.8348 136.402 22.0083 136.304 22.1557C136.205 22.3031 136.064 22.4179 135.901 22.4856C135.737 22.5532 135.556 22.5706 135.382 22.5357C135.209 22.5007 135.049 22.4149 134.924 22.2891C134.799 22.1634 134.714 22.0033 134.679 21.8292C134.646 21.6552 134.664 21.4749 134.733 21.3113C134.802 21.1476 134.917 21.0081 135.065 20.9103C135.213 20.8124 135.386 20.7607 135.564 20.7617C135.682 20.7617 135.798 20.785 135.906 20.8301C136.014 20.8751 136.113 20.9411 136.196 21.0244C136.278 21.1076 136.344 21.2065 136.389 21.3151C136.432 21.4238 136.456 21.5401 136.455 21.6575Z" fill="#263238"/>
<path d="M139.038 21.658C139.038 21.8351 138.985 22.0084 138.887 22.1556C138.788 22.303 138.649 22.4177 138.484 22.4855C138.321 22.5533 138.141 22.5711 137.967 22.5365C137.794 22.5019 137.634 22.4167 137.508 22.2914C137.383 22.1661 137.298 22.0065 137.264 21.8328C137.229 21.659 137.246 21.4789 137.315 21.3151C137.382 21.1515 137.497 21.0116 137.644 20.9131C137.792 20.8147 137.965 20.7622 138.142 20.7622C138.379 20.7622 138.608 20.8565 138.775 21.0246C138.943 21.1926 139.038 21.4204 139.038 21.658Z" fill="#263238"/>
<path d="M96.9267 63.1913C96.9267 63.7686 96.688 64.117 96.2893 64.117C96.1955 64.126 96.1017 64.1016 96.0242 64.0477C95.9467 63.994 95.8916 63.9144 95.8671 63.8234C95.7998 63.9201 95.7101 63.9978 95.604 64.0493C95.499 64.1007 95.3817 64.124 95.2644 64.117C95.0513 64.1007 94.8514 64.0041 94.7056 63.8468C94.5598 63.6895 94.4782 63.483 94.4782 63.2685C94.4782 63.0541 94.5598 62.8476 94.7056 62.6902C94.8514 62.5329 95.0513 62.4364 95.2644 62.42C95.3695 62.4145 95.4745 62.4332 95.5714 62.4746C95.6672 62.516 95.7539 62.5791 95.8222 62.6589V62.44H96.1904V63.5746C96.1904 63.7437 96.2699 63.8035 96.3648 63.8035C96.5432 63.8035 96.6432 63.5894 96.6432 63.1963C96.6462 63.0316 96.6136 62.8683 96.5493 62.7167C96.4851 62.5652 96.3892 62.4288 96.2689 62.3167C96.1476 62.2046 96.0048 62.119 95.8498 62.0656C95.6938 62.0123 95.5286 61.9923 95.3644 62.007C95.191 61.9915 95.0176 62.0122 94.8535 62.0676C94.6883 62.1231 94.5373 62.2122 94.4099 62.3293C94.2814 62.4464 94.1794 62.5887 94.11 62.7474C94.0397 62.9061 94.004 63.0776 94.004 63.2511C94.004 63.4246 94.0397 63.5961 94.11 63.7547C94.1794 63.9134 94.2814 64.0558 94.4099 64.1729C94.5373 64.2899 94.6883 64.3791 94.8535 64.4345C95.0176 64.49 95.191 64.5107 95.3644 64.4952C95.5887 64.4962 95.81 64.4451 96.0109 64.3459L96.1006 64.6146C95.8702 64.7206 95.6183 64.7733 95.3644 64.7689C95.1574 64.7807 94.9503 64.7503 94.7556 64.6792C94.5608 64.6081 94.3823 64.4981 94.2314 64.3557C94.0805 64.2133 93.9612 64.0418 93.8786 63.8514C93.797 63.661 93.7542 63.4559 93.7542 63.2486C93.7542 63.0413 93.797 62.8361 93.8786 62.6457C93.9612 62.4555 94.0805 62.2838 94.2314 62.1415C94.3823 61.9991 94.5608 61.8891 94.7556 61.818C94.9503 61.7469 95.1574 61.7164 95.3644 61.7283C95.5653 61.7131 95.7662 61.7398 95.9558 61.8066C96.1465 61.8735 96.3199 61.979 96.4667 62.1165C96.6136 62.2541 96.7309 62.4207 96.8094 62.6057C96.8889 62.7907 96.9287 62.9901 96.9267 63.1913ZM95.8273 63.266C95.8212 63.1691 95.7876 63.076 95.7294 62.9982C95.6713 62.9203 95.5908 62.8612 95.5 62.8281C95.4082 62.7949 95.3093 62.7892 95.2155 62.8117C95.1206 62.8341 95.035 62.8838 94.9687 62.9543C94.9014 63.025 94.8575 63.1136 94.8402 63.2093C94.8229 63.3049 94.8351 63.4033 94.8728 63.4926C94.9116 63.5818 94.9748 63.6578 95.0564 63.7113C95.137 63.7647 95.2318 63.7933 95.3297 63.7935C95.397 63.7936 95.4643 63.7798 95.5265 63.753C95.5897 63.7261 95.6458 63.6868 95.6917 63.6374C95.7386 63.5879 95.7753 63.5295 95.7978 63.4656C95.8212 63.4018 95.8314 63.3338 95.8273 63.266Z" fill="#263238"/>
<path d="M115.733 64.0977C115.733 64.1674 112.129 64.2271 107.691 64.2271C103.252 64.2271 99.6536 64.1674 99.6536 64.0977C99.6536 64.028 103.252 63.9634 107.691 63.9634C112.129 63.9634 115.733 64.023 115.733 64.0977Z" fill="#263238"/>
<path d="M83.938 86.8397C83.2048 87.012 82.4416 87.012 81.7085 86.8397C82.4416 86.6674 83.2048 86.6674 83.938 86.8397Z" fill="#263238"/>
<path d="M89.1785 92.234C89.1785 92.3044 86.4911 92.3635 83.1718 92.3635C79.8525 92.3635 77.1702 92.3044 77.1702 92.234C77.1702 92.1647 79.8575 92.1045 83.1718 92.1045C86.4861 92.1045 89.1785 92.1647 89.1785 92.234Z" fill="#263238"/>
<path d="M108.089 86.8397C106.956 86.9712 105.815 87.014 104.675 86.9692C103.536 87.014 102.394 86.9712 101.262 86.8397C102.395 86.7122 103.536 86.6683 104.675 86.7102C105.815 86.6683 106.956 86.7122 108.089 86.8397Z" fill="#263238"/>
<path d="M110.109 91.9459C110.109 92.0153 107.358 92.0754 103.963 92.0754C100.569 92.0754 97.8127 92.0153 97.8127 91.9459C97.8127 91.8766 100.564 91.8164 103.963 91.8164C107.362 91.8164 110.109 91.8766 110.109 91.9459Z" fill="#263238"/>
<path d="M130.383 86.9142C128.853 87.0427 127.316 87.0855 125.78 87.0437C124.244 87.0855 122.707 87.0427 121.177 86.9142C122.707 86.7837 124.244 86.7398 125.78 86.7857C127.316 86.7398 128.853 86.7837 130.383 86.9142Z" fill="#263238"/>
<path d="M132.106 92.1598C132.106 92.2342 129.453 92.2893 126.179 92.2893C122.904 92.2893 120.247 92.2342 120.247 92.1598C120.247 92.0853 122.899 92.0303 126.179 92.0303C129.458 92.0303 132.106 92.0904 132.106 92.1598Z" fill="#263238"/>
<path d="M114.911 97.2656H81.1814C80.4806 97.2656 79.9124 97.8336 79.9124 98.5342V106.422C79.9124 107.123 80.4806 107.691 81.1814 107.691H114.911C115.613 107.691 116.181 107.123 116.181 106.422V98.5342C116.181 97.8336 115.613 97.2656 114.911 97.2656Z" fill="#B2C136"/>
<path d="M109.323 102.655C109.323 102.725 104.655 102.785 98.8979 102.785C93.1392 102.785 88.4473 102.725 88.4473 102.655C88.4473 102.586 93.1147 102.526 98.8979 102.526C104.68 102.526 109.323 102.581 109.323 102.655Z" fill="white"/>
<path d="M128.363 97.0708H120.361C119.709 97.0708 119.182 97.599 119.182 98.2507V106.576C119.182 107.228 119.709 107.756 120.361 107.756H128.363C129.015 107.756 129.543 107.228 129.543 106.576V98.2507C129.543 97.599 129.015 97.0708 128.363 97.0708Z" fill="#EBEBEB"/>
<path d="M123.242 101.869H125.477L124.456 103.437L123.242 101.869Z" fill="#263238"/>
<path d="M116.181 115.444C116.181 115.52 110.413 115.574 103.301 115.574C96.1904 115.574 90.4226 115.52 90.4226 115.444C90.4226 115.37 96.1904 115.316 103.301 115.316C110.413 115.316 116.181 115.375 116.181 115.444Z" fill="#E0E0E0"/>
<path d="M123.675 120.296C123.675 120.366 115.215 120.425 104.765 120.425C94.3142 120.425 85.8542 120.366 85.8542 120.296C85.8542 120.227 94.3142 120.167 104.765 120.167C115.215 120.167 123.675 120.227 123.675 120.296Z" fill="#E0E0E0"/>
<path d="M145.413 128.707C145.413 128.782 127.273 128.841 104.894 128.841C82.515 128.841 64.3757 128.782 64.3757 128.707C64.3757 128.632 82.515 128.578 104.894 128.578C127.273 128.578 145.413 128.637 145.413 128.707Z" fill="#263238"/>
<path d="M105.701 138.147C105.572 136.622 105.53 135.09 105.571 133.559C105.528 132.03 105.572 130.5 105.701 128.976C105.831 130.5 105.875 132.03 105.829 133.559C105.874 135.09 105.831 136.622 105.701 138.147Z" fill="#263238"/>
<path d="M100.669 70.8901L98.3403 76.235H97.345L95.0107 70.8901H96.0856L97.863 75.0107L99.6589 70.8901H100.669Z" fill="#B2C136"/>
<path d="M104.656 74.5036H101.456C101.515 74.8036 101.682 75.0712 101.927 75.2548C102.171 75.4386 102.474 75.5255 102.779 75.4989C102.984 75.5072 103.188 75.472 103.379 75.3958C103.57 75.3194 103.742 75.2036 103.884 75.056L104.381 75.6432C104.173 75.8678 103.918 76.0436 103.635 76.158C103.35 76.2725 103.045 76.3227 102.739 76.3051C101.376 76.3051 100.49 75.4292 100.49 74.215C100.48 73.9348 100.529 73.6556 100.632 73.3952C100.736 73.1347 100.893 72.8986 101.093 72.702C101.292 72.5055 101.531 72.3527 101.793 72.2532C102.055 72.1539 102.335 72.1102 102.615 72.1248C102.892 72.1146 103.169 72.1625 103.426 72.2653C103.684 72.3681 103.916 72.5236 104.111 72.7217C104.305 72.92 104.455 73.1564 104.553 73.4162C104.649 73.6759 104.691 73.953 104.675 74.2299C104.67 74.2946 104.661 74.409 104.656 74.5036ZM101.45 73.8666H103.759C103.732 73.5851 103.597 73.3249 103.383 73.1397C103.17 72.9545 102.892 72.8585 102.61 72.8713C102.326 72.8607 102.05 72.9573 101.835 73.1418C101.621 73.3263 101.483 73.5852 101.45 73.8666Z" fill="#B2C136"/>
<path d="M107.945 72.1243V73.0299C107.873 73.0151 107.8 73.0068 107.726 73.005C107.561 72.9923 107.395 73.0169 107.24 73.0767C107.085 73.1366 106.946 73.2304 106.832 73.3511C106.719 73.4719 106.634 73.6166 106.583 73.7747C106.533 73.9326 106.519 74.0999 106.541 74.2641V76.2547H105.601V72.1789H106.512V72.7712C106.675 72.5496 106.893 72.3738 107.144 72.2605C107.395 72.1472 107.67 72.1003 107.945 72.1243Z" fill="#B2C136"/>
<path d="M108.626 70.9149C108.626 70.8365 108.644 70.7591 108.674 70.6872C108.706 70.6154 108.752 70.5507 108.809 70.4972C108.867 70.4437 108.934 70.4023 109.008 70.3757C109.082 70.3491 109.16 70.3379 109.238 70.3426C109.315 70.3365 109.391 70.3461 109.464 70.3707C109.536 70.3952 109.603 70.4343 109.659 70.4856C109.717 70.5368 109.762 70.5991 109.794 70.6686C109.827 70.7382 109.844 70.8135 109.846 70.89C109.832 71.0423 109.761 71.1837 109.649 71.2868C109.536 71.3899 109.389 71.447 109.236 71.447C109.083 71.447 108.935 71.3899 108.823 71.2868C108.71 71.1837 108.64 71.0423 108.626 70.89V70.9149ZM108.756 72.159H109.712V76.2348H108.756V72.159Z" fill="#B2C136"/>
<path d="M112.568 70.5168C112.873 70.5034 113.174 70.5814 113.434 70.7407L113.165 71.4574C113.01 71.349 112.826 71.2901 112.637 71.2881C112.239 71.2881 112.036 71.5072 112.036 71.9451V72.1889H113.16V72.9504H112.07V76.2348H111.075V72.9504H110.408V72.1889H111.075V71.9302C111.059 71.7335 111.087 71.5358 111.157 71.3516C111.228 71.1674 111.339 71.0014 111.483 70.8657C111.626 70.7301 111.798 70.6283 111.986 70.568C112.173 70.5076 112.372 70.4902 112.568 70.5168ZM114.28 70.9149C114.28 70.8365 114.296 70.7591 114.328 70.6872C114.36 70.6154 114.405 70.5507 114.463 70.4972C114.52 70.4437 114.588 70.4023 114.661 70.3757C114.735 70.3491 114.813 70.3379 114.892 70.3426C114.968 70.3365 115.045 70.3461 115.117 70.3707C115.19 70.3952 115.256 70.4343 115.313 70.4856C115.37 70.5368 115.416 70.5991 115.448 70.6686C115.479 70.7382 115.497 70.8135 115.499 70.89C115.485 71.0423 115.415 71.1837 115.302 71.2868C115.19 71.3899 115.042 71.447 114.889 71.447C114.737 71.447 114.589 71.3899 114.477 71.2868C114.364 71.1837 114.293 71.0423 114.28 70.89V70.9149ZM114.41 72.159H115.364V76.2348H114.41V72.159Z" fill="#B2C136"/>
<path d="M120.411 74.5032H117.216C117.274 74.8028 117.44 75.0703 117.684 75.2541C117.928 75.4379 118.231 75.5249 118.535 75.4985C118.74 75.5051 118.945 75.4692 119.135 75.393C119.327 75.3167 119.499 75.2019 119.644 75.0556L120.142 75.6428C119.935 75.868 119.68 76.0442 119.395 76.1587C119.112 76.2731 118.806 76.323 118.5 76.3048C117.137 76.3048 116.25 75.4289 116.25 74.2146C116.242 73.9372 116.292 73.6612 116.395 73.4036C116.499 73.1461 116.654 72.9126 116.851 72.7176C117.049 72.5225 117.284 72.3701 117.542 72.2698C117.801 72.1695 118.078 72.1234 118.355 72.1344C118.633 72.1242 118.909 72.1721 119.166 72.2749C119.424 72.3776 119.657 72.5331 119.851 72.7313C120.045 72.9295 120.196 73.166 120.293 73.4257C120.39 73.6855 120.431 73.9627 120.416 74.2395C120.425 74.2942 120.42 74.4087 120.411 74.5032ZM117.206 73.8663H119.535C119.505 73.5843 119.37 73.3241 119.156 73.139C118.941 72.9539 118.663 72.858 118.381 72.871C118.095 72.8576 117.816 72.9529 117.597 73.1376C117.379 73.3222 117.24 73.5826 117.206 73.8663Z" fill="#B2C136"/>
<path d="M125.338 70.5718V76.235H124.422V75.7074C124.256 75.8991 124.048 76.0504 123.814 76.1504C123.581 76.2504 123.328 76.2963 123.074 76.2847C122.52 76.2847 121.99 76.0651 121.599 75.674C121.208 75.283 120.988 74.7526 120.988 74.1996C120.988 73.6466 121.208 73.1162 121.599 72.7252C121.99 72.3341 122.52 72.1145 123.074 72.1145C123.318 72.1035 123.563 72.1469 123.79 72.2416C124.015 72.3362 124.218 72.4798 124.382 72.6619V70.5718H125.338ZM124.397 74.1946C124.385 73.9574 124.305 73.7288 124.164 73.5371C124.024 73.3454 123.83 73.1991 123.608 73.1163C123.385 73.0335 123.143 73.0178 122.912 73.0711C122.68 73.1246 122.469 73.2446 122.306 73.4166C122.142 73.5886 122.032 73.8049 121.99 74.0386C121.947 74.2723 121.974 74.5134 122.068 74.7318C122.161 74.9502 122.317 75.1365 122.515 75.2674C122.713 75.3983 122.945 75.4683 123.183 75.4686C123.348 75.4718 123.512 75.4405 123.665 75.3767C123.818 75.313 123.956 75.2183 124.07 75.0985C124.184 74.9787 124.272 74.8366 124.328 74.6809C124.385 74.5253 124.409 74.3597 124.397 74.1946Z" fill="#B2C136"/>
<path d="M87.4913 77.5736C89.8025 77.5736 91.6768 75.6998 91.6768 73.3884C91.6768 71.0769 89.8025 69.2031 87.4913 69.2031C85.1799 69.2031 83.3062 71.0769 83.3062 73.3884C83.3062 75.6998 85.1799 77.5736 87.4913 77.5736Z" fill="#B2C136"/>
<path d="M85.6001 73.4682L86.1375 72.9307L87.1776 73.8513L89.213 71.8906L89.7107 72.428L87.098 74.8865L85.6001 73.4682Z" fill="white"/>
<path d="M105.482 176.675H72.6366C70.2873 176.667 68.037 175.728 66.38 174.062C64.7229 172.396 63.7945 170.142 63.7984 167.792V138.147H105.506L105.482 176.675Z" fill="#EBEBEB"/>
<path d="M135.773 176.755L105.103 176.675V138.147H145.005V167.543C144.954 169.973 143.964 172.29 142.243 174.008C140.522 175.725 138.204 176.709 135.773 176.755Z" fill="#455A64"/>
<path d="M145.413 138.147C145.413 138.216 127.273 138.277 104.899 138.277C82.5249 138.277 64.3806 138.216 64.3806 138.147C64.3806 138.078 82.5149 138.018 104.899 138.018C127.283 138.018 145.413 138.078 145.413 138.147Z" fill="#263238"/>
<path d="M104.291 160.706C104.291 160.706 104.246 160.706 104.177 160.637L103.864 160.407L102.679 159.522L98.3501 156.217C97.4395 155.525 96.434 154.724 95.3643 153.943C95.0777 153.778 94.7514 153.695 94.422 153.707C94.0916 153.718 93.7714 153.822 93.4981 154.008C93.2217 154.236 92.9627 154.484 92.721 154.749L91.9297 155.55L84.963 162.587L84.5351 163.02L84.4555 163.099L84.3658 163.035L80.3449 160.049L78.4339 158.62C78.173 158.374 77.8441 158.209 77.4895 158.15C77.1349 158.091 76.7706 158.138 76.4433 158.287C76.1363 158.465 75.8578 158.689 75.6172 158.949L74.831 159.681L73.338 161.074L70.6507 163.562L66.7541 167.155L65.6842 168.121L65.4055 168.369C65.3424 168.427 65.3077 168.451 65.301 168.444C65.325 168.409 65.3534 168.378 65.3856 168.35L65.6494 168.086L66.6844 167.091L70.5263 163.438L73.1936 160.92L74.6866 159.522L75.4679 158.785L75.866 158.411C76.0148 158.277 76.1825 158.165 76.3637 158.078C76.7267 157.903 77.1353 157.843 77.5332 157.909C77.7346 157.94 77.9295 158.004 78.1105 158.098C78.2871 158.192 78.4538 158.304 78.6081 158.432L80.5241 159.85L84.55 162.836H84.3808L84.8088 162.398L91.7757 155.377L92.5721 154.58C92.823 154.305 93.0942 154.049 93.3828 153.813C93.6939 153.607 94.0549 153.493 94.4271 153.483C94.7993 153.472 95.1674 153.565 95.4887 153.754C96.5931 154.575 97.5588 155.361 98.4746 156.068L102.754 159.437L103.913 160.362L104.207 160.611C104.239 160.64 104.268 160.671 104.291 160.706Z" fill="#263238"/>
<path d="M88.0137 147.767C87.984 147.767 88.0137 147.449 87.8495 146.896C87.6352 146.123 87.1694 145.444 86.5258 144.965C86.0858 144.636 85.5741 144.417 85.0328 144.323C84.4174 144.214 83.784 144.269 83.1965 144.482C82.5461 144.72 81.9813 145.146 81.5742 145.707C81.1348 146.304 80.8978 147.027 80.8978 147.77C80.8978 148.511 81.1348 149.234 81.5742 149.832C81.9647 150.362 82.4953 150.772 83.1064 151.017C83.7175 151.261 84.3847 151.33 85.0328 151.216C85.5749 151.122 86.0869 150.9 86.5258 150.569C87.1694 150.09 87.6352 149.411 87.8495 148.638C87.9988 148.09 87.984 147.767 88.0137 147.767C88.0214 147.844 88.0214 147.923 88.0137 148C88.0143 148.224 87.9892 148.446 87.9391 148.662C87.7541 149.477 87.2914 150.202 86.6303 150.713C86.1748 151.07 85.6409 151.313 85.0727 151.425C84.3822 151.558 83.668 151.494 83.0128 151.238C82.3575 150.983 81.7879 150.547 81.3701 149.982C80.8954 149.341 80.6392 148.566 80.6392 147.77C80.6392 146.972 80.8954 146.197 81.3701 145.557C81.8082 144.96 82.4148 144.508 83.1119 144.259C83.7407 144.035 84.4174 143.984 85.0727 144.109C85.6402 144.222 86.1736 144.466 86.6303 144.821C87.2904 145.333 87.753 146.057 87.9391 146.871C87.9894 147.09 88.0143 147.314 88.0137 147.538C88.0213 147.614 88.0213 147.69 88.0137 147.767Z" fill="#263238"/>
<path d="M143.771 159.472C143.771 159.472 143.731 159.472 143.661 159.401L143.362 159.178L142.218 158.287L138.043 154.977C137.167 154.286 136.201 153.485 135.171 152.703C134.896 152.538 134.577 152.459 134.256 152.475C133.935 152.492 133.626 152.604 133.369 152.798C133.108 153.03 132.86 153.278 132.628 153.54L131.872 154.34L125.208 161.352L124.79 161.785L124.71 161.87L124.616 161.801L120.739 158.815L118.898 157.386C118.65 157.137 118.33 156.973 117.983 156.918C117.636 156.863 117.28 156.918 116.967 157.077C116.676 157.264 116.409 157.488 116.176 157.744L115.424 158.476L113.986 159.864L111.403 162.352L107.666 165.936L106.641 166.902L106.368 167.145C106.308 167.199 106.273 167.23 106.268 167.225C106.292 167.19 106.32 167.158 106.352 167.13C106.417 167.056 106.501 166.971 106.601 166.866L107.597 165.871L111.279 162.228L113.837 159.715C114.3 159.268 114.773 158.8 115.265 158.317L116.012 157.585L116.395 157.212C116.531 157.078 116.685 156.965 116.853 156.873C117.204 156.688 117.605 156.62 117.997 156.679C118.195 156.708 118.388 156.77 118.564 156.864C118.741 156.959 118.907 157.071 119.062 157.198L120.904 158.62L124.785 161.606H124.611L125.03 161.168L131.707 154.172L132.469 153.375C132.711 153.104 132.971 152.848 133.245 152.609C133.54 152.392 133.891 152.267 134.256 152.251C134.622 152.233 134.983 152.325 135.296 152.515C136.365 153.336 137.286 154.122 138.172 154.829L142.292 158.202L143.402 159.133L143.686 159.377L143.771 159.472Z" fill="#263238"/>
<path d="M126.85 146.657C126.825 146.657 126.85 146.339 126.691 145.791C126.48 145.017 126.013 144.337 125.367 143.86C124.995 143.583 124.572 143.381 124.121 143.268C123.671 143.153 123.202 143.131 122.743 143.199C122.283 143.268 121.843 143.427 121.445 143.666C121.047 143.906 120.701 144.222 120.425 144.597C119.986 145.195 119.749 145.918 119.749 146.659C119.749 147.402 119.986 148.125 120.425 148.722C120.832 149.282 121.397 149.706 122.048 149.942C122.598 150.145 123.191 150.206 123.771 150.118C124.351 150.032 124.901 149.8 125.367 149.444C126.012 148.966 126.478 148.287 126.691 147.513C126.759 147.225 126.812 146.935 126.85 146.642C126.863 146.719 126.863 146.799 126.85 146.877C126.851 147.099 126.825 147.321 126.775 147.538C126.604 148.354 126.156 149.085 125.507 149.608C125.05 149.961 124.517 150.204 123.949 150.315C123.294 150.445 122.616 150.393 121.989 150.165C121.291 149.917 120.685 149.467 120.247 148.871C119.772 148.232 119.516 147.457 119.516 146.659C119.516 145.863 119.772 145.088 120.247 144.447C120.664 143.881 121.234 143.446 121.889 143.19C122.544 142.935 123.258 142.871 123.949 143.004C124.517 143.116 125.05 143.357 125.507 143.711C126.168 144.224 126.631 144.95 126.815 145.766C126.865 145.983 126.891 146.206 126.891 146.428C126.891 146.506 126.877 146.584 126.85 146.657Z" fill="#263238"/>
<path d="M105.715 59.9271C112.08 59.9271 117.24 54.7669 117.24 48.4015C117.24 42.0361 112.08 36.876 105.715 36.876C99.3495 36.876 94.1895 42.0361 94.1895 48.4015C94.1895 54.7669 99.3495 59.9271 105.715 59.9271Z" fill="#F5F5F5"/>
<path d="M113.165 57.1453C112.969 55.3171 112.092 53.6296 110.709 52.4174C109.326 51.2052 107.538 50.557 105.7 50.6012C101.61 50.6012 98.8082 53.6966 98.2351 57.1702C98.2351 57.1702 100.764 59.9669 105.7 59.9271C110.637 59.8874 113.165 57.1453 113.165 57.1453Z" fill="#E0E0E0"/>
<path d="M110.405 47.2747C110.804 44.804 109.125 42.4775 106.654 42.0783C104.183 41.6789 101.857 43.3581 101.458 45.8287C101.059 48.2994 102.737 50.6259 105.208 51.0251C107.679 51.4245 110.005 49.7453 110.405 47.2747Z" fill="#E0E0E0"/>
<path d="M113.11 56.7522C112.969 56.0149 112.733 55.2989 112.409 54.6222C111.99 53.8654 111.436 53.1909 110.776 52.6316C109.909 51.8996 108.911 51.339 107.835 50.9795L107.597 50.9049L107.815 50.7903C108.574 50.3775 109.199 49.7535 109.612 48.9938C109.972 48.3244 110.151 47.5732 110.133 46.8135C110.115 46.0539 109.901 45.3119 109.511 44.6598C109.121 44.0077 108.568 43.468 107.908 43.0932C107.247 42.7183 106.5 42.5213 105.74 42.5213C104.98 42.5213 104.233 42.7183 103.573 43.0932C102.912 43.468 102.359 44.0077 101.969 44.6598C101.579 45.3119 101.365 46.0539 101.347 46.8135C101.329 47.5732 101.508 48.3244 101.868 48.9938C102.078 49.382 102.343 49.7374 102.655 50.0489C102.958 50.3401 103.291 50.5971 103.65 50.8152L103.849 50.9396L103.62 51.0044C102.518 51.2944 101.506 51.8535 100.674 52.6316C100.042 53.2298 99.5199 53.9339 99.1314 54.7119C98.8806 55.2107 98.6766 55.7322 98.5236 56.2695C98.4696 56.4536 98.4349 56.5979 98.4094 56.6925C98.4033 56.7422 98.39 56.7908 98.3696 56.8368C98.3615 56.7874 98.3615 56.7368 98.3696 56.6875C98.3696 56.5879 98.4094 56.4386 98.4543 56.2546C98.5848 55.7052 98.7735 55.1715 99.0172 54.6621C99.3945 53.8576 99.9136 53.1276 100.55 52.5072C101.388 51.6992 102.414 51.1126 103.536 50.8003L103.505 50.9894C103.13 50.7677 102.779 50.5057 102.461 50.2082C102.13 49.8827 101.848 49.5105 101.625 49.1033C101.132 48.1851 100.963 47.1281 101.143 46.102C101.324 45.076 101.844 44.1402 102.62 43.445C103.47 42.6792 104.574 42.2554 105.718 42.2554C106.862 42.2554 107.966 42.6792 108.815 43.445C109.371 43.9439 109.797 44.5695 110.058 45.2688C110.319 45.9679 110.407 46.7198 110.314 47.4605C110.222 48.201 109.952 48.9082 109.527 49.5218C109.103 50.1355 108.536 50.6373 107.875 50.9844V50.7903C108.973 51.1659 109.988 51.7526 110.861 52.5172C111.529 53.1002 112.081 53.8043 112.488 54.5923C112.63 54.8842 112.748 55.1871 112.841 55.4981C112.919 55.7234 112.977 55.9548 113.016 56.1898C113.04 56.364 113.06 56.5083 113.076 56.6278C113.09 56.7472 113.121 56.7522 113.11 56.7522Z" fill="#263238"/>
<path d="M117.241 48.4017C117.225 48.3398 117.217 48.2763 117.216 48.2126C117.216 48.0782 117.216 47.899 117.176 47.6701L117.151 47.2671C117.151 47.1178 117.102 46.9585 117.071 46.7694C117.02 46.3674 116.939 45.9698 116.828 45.58C116.557 44.506 116.126 43.4792 115.549 42.5344C114.182 40.2531 112.063 38.519 109.557 37.6299C107.05 36.7409 104.313 36.7523 101.814 37.6625C101.302 37.8469 100.803 38.0664 100.321 38.3193C99.8343 38.586 99.3672 38.887 98.9226 39.2201C98.4678 39.5577 98.0354 39.925 97.6285 40.3199C97.2267 40.736 96.8525 41.1781 96.5088 41.6437C95.8021 42.5964 95.2524 43.6566 94.8812 44.7837C94.0991 47.1202 94.0991 49.6482 94.8812 51.9847C95.2524 53.1134 95.8021 54.1753 96.5088 55.1299C96.8535 55.5943 97.2277 56.0365 97.6285 56.4536C98.0354 56.8484 98.4678 57.2159 98.9226 57.5534C99.3682 57.8847 99.8353 58.1857 100.321 58.4542C102.611 59.6613 105.238 60.0694 107.785 59.6136C109.385 59.3193 110.905 58.6896 112.244 57.7658C113.583 56.842 114.711 55.6452 115.554 54.254C116.132 53.3078 116.564 52.2792 116.833 51.2034C116.944 50.8153 117.026 50.4194 117.077 50.019C117.107 49.8449 117.137 49.6856 117.156 49.5214L117.182 49.1183C117.182 48.8893 117.211 48.7103 117.221 48.5708C117.222 48.5087 117.231 48.4469 117.246 48.3868C117.253 48.4496 117.253 48.5129 117.246 48.5759C117.246 48.7103 117.246 48.8943 117.246 49.1233C117.246 49.2477 117.246 49.3821 117.246 49.5264C117.246 49.6707 117.201 49.8399 117.182 50.024C117.137 50.4289 117.062 50.8297 116.957 51.2234C116.699 52.3144 116.276 53.3598 115.703 54.3237C114.865 55.7433 113.734 56.9685 112.387 57.9182C111.038 58.8679 109.504 59.5204 107.885 59.8327C105.837 60.216 103.724 60.0442 101.764 59.335C101.243 59.147 100.734 58.9243 100.241 58.6681C99.7425 58.3965 99.2642 58.0906 98.8084 57.7525C98.3423 57.4081 97.8998 57.0323 97.4847 56.6278C97.0727 56.2047 96.6903 55.7542 96.3395 55.2792C95.6134 54.3046 95.0485 53.219 94.6681 52.0644C94.2857 50.875 94.0828 49.6357 94.0654 48.3868C94.0817 47.1356 94.2867 45.8942 94.6722 44.7042C95.0505 43.5508 95.6134 42.4667 96.3395 41.4944C96.6903 41.0177 97.0727 40.5655 97.4847 40.1407C97.9018 39.7404 98.3444 39.3664 98.8084 39.021C99.2642 38.6829 99.7425 38.3769 100.241 38.1054C100.734 37.8492 101.243 37.6265 101.764 37.4385C103.722 36.7295 105.834 36.5577 107.88 36.9409C109.501 37.252 111.035 37.9042 112.385 38.854C113.733 39.8037 114.865 41.0294 115.703 42.4498C116.276 43.4119 116.699 44.4557 116.957 45.5452C117.062 45.9405 117.137 46.343 117.182 46.7494C117.182 46.9236 117.231 47.0879 117.246 47.2471C117.261 47.4064 117.246 47.5308 117.246 47.6552C117.246 47.8841 117.246 48.0682 117.246 48.2026C117.252 48.2689 117.25 48.3357 117.241 48.4017Z" fill="#263238"/>
<path d="M58.0456 100.754C51.9942 103.889 47.3512 109.288 44.0169 115.231C40.6827 121.172 38.5428 127.696 36.3979 134.171L34.5317 167.563C41.5735 155.585 47.2268 141.501 48.7545 127.686L44.0667 127.268C47.2118 126.77 49.8494 124.511 51.5314 121.794C53.2134 119.077 54.0744 115.977 54.9154 112.916L49.1975 113.762C53.708 110.723 56.8763 106.065 58.0456 100.754Z" fill="#455A64"/>
<path d="M58.0456 100.754C51.9942 103.889 47.3512 109.288 44.0169 115.231C40.6827 121.172 38.5428 127.696 36.3979 134.171L34.5317 167.563C41.5735 155.585 47.2268 141.501 48.7545 127.686L44.0667 127.268C47.2118 126.77 49.8494 124.511 51.5314 121.794C53.2134 119.077 54.0744 115.977 54.9154 112.916L49.1975 113.762C53.708 110.723 56.8763 106.065 58.0456 100.754Z" fill="#455A64"/>
<path d="M33.4868 175.391C33.4868 175.391 18.2041 157.093 18.3783 139.625H24.554C24.554 139.625 17.8457 135.216 18.3783 132.748C18.9107 130.28 19.0848 120.923 19.0848 120.923L24.7332 122.337C24.7332 122.337 20.4981 120.222 19.9657 116.863C19.4332 113.503 21.1999 98.002 21.1999 98.002C21.1999 98.002 28.0824 105.233 30.2023 112.643C32.3223 120.052 37.8761 128.697 36.2438 151.28C34.6115 173.864 33.4868 175.391 33.4868 175.391Z" fill="#455A64"/>
<path d="M41.2399 177.128C41.2399 177.128 57.8016 166.095 61.4792 152.012L56.5027 150.663C56.5027 150.663 62.8627 148.582 62.9721 146.483C63.0817 144.383 64.9627 136.823 64.9627 136.823L60.1157 136.723C60.1157 136.723 63.9824 135.947 65.1419 133.369C66.3015 130.791 68.3219 117.908 68.3219 117.908C68.3219 117.908 61.2055 122.222 57.8713 127.717C54.537 133.21 48.1871 138.944 44.5592 157.455C40.9313 175.968 41.2399 177.128 41.2399 177.128Z" fill="#455A64"/>
<path d="M25.3799 113.926C25.3799 113.926 25.3799 113.991 25.4296 114.115C25.4794 114.239 25.5093 114.444 25.5641 114.678C25.6785 115.175 25.8378 115.922 26.0617 116.852C26.2856 117.783 26.5196 118.953 26.7833 120.296C27.047 121.64 27.3705 123.173 27.6791 124.869C28.336 128.263 29.0227 132.334 29.7343 136.813C30.446 141.292 31.1128 146.303 31.7249 151.538C32.3371 156.774 32.7899 161.78 33.1482 166.333C33.5065 170.887 33.7404 174.997 33.8748 178.446C33.9643 180.174 34.0042 181.736 34.0489 183.11C34.0937 184.483 34.1186 185.662 34.1286 186.628C34.1385 187.593 34.1286 188.33 34.1535 188.852V189.429C34.1535 189.559 34.1535 189.629 34.1535 189.629C34.1451 189.563 34.1451 189.495 34.1535 189.429V188.852C34.1535 188.33 34.1087 187.583 34.0788 186.628C34.0489 185.672 34.0141 184.483 33.9544 183.115C33.8947 181.746 33.8399 180.183 33.7454 178.456C33.5812 175.007 33.3075 170.907 32.9591 166.354C32.6108 161.8 32.1131 156.804 31.5159 151.568C30.9188 146.334 30.2221 141.361 29.5254 136.848C28.8286 132.334 28.1568 128.279 27.5348 124.904C27.2362 123.202 26.9326 121.674 26.6788 120.326C26.4249 118.977 26.1811 117.838 25.997 116.872C25.8129 115.907 25.6636 115.205 25.5641 114.693C25.5193 114.448 25.4794 114.265 25.4545 114.12C25.4236 114.058 25.3986 113.994 25.3799 113.926Z" fill="#263238"/>
<path d="M31.3667 186.584C31.3667 186.584 17.3779 170.724 13.0384 161.129L16.3179 159.711C13.9391 160.104 11.5057 159.083 9.65937 157.531C7.81307 155.978 6.46443 153.938 5.13577 151.928L9.45531 151.195C5.47994 150.068 2.09308 147.449 0 143.886C5.09589 144.726 9.70913 147.523 13.5061 151.026C16.5866 153.858 19.1893 157.148 21.6924 160.512C22.917 162.148 23.9818 163.898 24.8724 165.737C27.2412 170.609 31.3767 180.766 31.3667 186.584Z" fill="#455A64"/>
<path d="M61.6984 127.149C61.6841 127.205 61.6623 127.258 61.6337 127.308L61.4197 127.771C61.2157 128.189 60.922 128.766 60.5638 129.528C60.2055 130.29 59.7327 131.225 59.2152 132.315C58.6976 133.404 58.0954 134.639 57.4634 136.017C56.1695 138.769 54.6866 142.064 53.0891 145.746C51.4916 149.429 49.8245 153.519 48.1475 157.839C46.4704 162.159 44.9824 166.299 43.6687 170.106C42.3549 173.914 41.2501 177.347 40.3543 180.248C39.8964 181.696 39.5133 183.015 39.1599 184.169C38.8066 185.324 38.518 186.319 38.2841 187.155C38.0502 187.991 37.8661 188.589 37.7317 189.032L37.5824 189.529C37.5683 189.586 37.5483 189.641 37.5227 189.693C37.5293 189.634 37.541 189.576 37.5575 189.519C37.5874 189.395 37.6321 189.236 37.6819 189.021L38.1795 187.131C38.3986 186.315 38.6772 185.309 39.0107 184.145C39.3441 182.98 39.7222 181.657 40.1701 180.214C41.041 177.302 42.1607 173.858 43.4297 170.052C44.6987 166.245 46.2265 162.089 47.9086 157.764C49.5907 153.44 51.2777 149.36 52.885 145.672C54.4925 141.985 56.0003 138.705 57.3092 135.963C57.9562 134.584 58.5682 133.355 59.1007 132.27C59.6332 131.185 60.096 130.28 60.4892 129.504L61.3849 127.766L61.6237 127.318C61.6429 127.26 61.6679 127.203 61.6984 127.149Z" fill="#263238"/>
<path d="M32.5561 193.396C32.5235 193.3 32.5018 193.202 32.4914 193.102L32.3571 192.261C32.3023 191.893 32.2376 191.445 32.1381 190.927C32.0386 190.41 31.9589 189.818 31.8146 189.171C31.5658 187.872 31.2075 186.339 30.7496 184.648C30.2918 182.955 29.6996 181.133 28.9879 179.243C28.2763 177.352 27.495 175.595 26.7386 174.017C25.9822 172.44 25.2457 171.061 24.549 169.922C24.2255 169.34 23.902 168.837 23.6283 168.389C23.3546 167.942 23.1307 167.553 22.9116 167.244L22.4539 166.523C22.3981 166.442 22.3497 166.355 22.3096 166.264C22.3827 166.331 22.4463 166.409 22.4986 166.493L22.9963 167.19C23.2102 167.488 23.469 167.866 23.7527 168.31C24.0363 168.752 24.3698 169.25 24.7032 169.827C25.3999 170.957 26.1613 172.345 26.9526 173.913C27.7438 175.481 28.5102 177.257 29.2318 179.148C29.9534 181.04 30.5208 182.89 30.9785 184.587C31.4364 186.284 31.7698 187.832 31.9738 189.136C32.1032 189.788 32.1779 190.385 32.2575 190.908C32.3372 191.43 32.3968 191.878 32.4317 192.246C32.4665 192.615 32.4964 192.873 32.5162 193.097C32.5429 193.194 32.5562 193.295 32.5561 193.396Z" fill="#263238"/>
<path d="M51.0139 189.664H20.3987V195.909H51.0139V189.664Z" fill="#B2C136"/>
<path d="M23.3147 195.909L26.6291 216.915H45.1266L48.212 195.909H23.3147Z" fill="#B2C136"/>
<path d="M49.1377 195.909C49.1377 195.979 43.3451 196.039 36.1989 196.039C29.0526 196.039 23.26 195.979 23.26 195.909C23.26 195.84 29.0526 195.774 36.1989 195.774C43.3451 195.774 49.1377 195.835 49.1377 195.909Z" fill="#263238"/>
<g opacity="0.3">
<path d="M58.0456 100.754C51.9942 103.889 47.3512 109.288 44.0169 115.231C40.6827 121.172 38.5428 127.696 36.3979 134.171L34.5317 167.563C41.5735 155.585 47.2268 141.501 48.7545 127.686L44.0667 127.268C47.2118 126.77 49.8494 124.511 51.5314 121.794C53.2134 119.077 54.0744 115.977 54.9154 112.916L49.1975 113.762C53.708 110.723 56.8763 106.065 58.0456 100.754Z" fill="black"/>
</g>
<path d="M200.587 127.707C200.587 127.707 205.663 136.132 206.419 144.154C207.176 152.176 201.816 217 201.816 217H138.665C138.665 217 155.585 136.953 161.118 131.817L161.496 126.492L200.587 127.707Z" fill="#263238"/>
<path d="M203.284 134.132C203.298 134.508 203.289 134.885 203.259 135.261C203.186 136.342 202.984 137.409 202.657 138.441C202.145 140.083 201.347 141.622 200.298 142.984C199.645 143.838 198.893 144.611 198.059 145.289C197.117 146.03 196.118 146.695 195.073 147.28C193.983 147.916 192.818 148.533 191.654 149.27C190.434 149.991 189.323 150.883 188.355 151.918C187.366 153.067 186.602 154.392 186.105 155.824C185.609 157.359 185.263 158.939 185.075 160.542C184.851 162.184 184.707 163.881 184.483 165.613C184.282 167.388 183.881 169.133 183.289 170.818C182.646 172.57 181.597 174.145 180.228 175.411C178.794 176.674 177.173 177.703 175.421 178.462C171.938 180.059 168.275 181.08 165.184 182.941C163.668 183.838 162.342 185.021 161.278 186.425C160.305 187.809 159.558 189.339 159.063 190.958C158.068 194.113 157.62 197.263 156.794 200.115C156.684 200.468 156.575 200.822 156.47 201.169C156.366 201.518 156.226 201.852 156.107 202.19C155.852 202.846 155.562 203.489 155.241 204.116C154.947 204.738 154.574 205.306 154.246 205.873C154.062 206.146 153.872 206.415 153.689 206.678L153.414 207.072L153.116 207.445C151.713 209.235 150.033 210.789 148.139 212.048C146.714 213.002 145.176 213.777 143.561 214.357C142.541 214.715 141.494 214.993 140.431 215.188L139.6 215.313L139.311 215.347L139.595 215.288L140.421 215.138C141.476 214.924 142.514 214.63 143.527 214.262C147.26 212.874 150.535 210.474 152.982 207.331L153.276 206.963L153.549 206.569L154.097 205.768C154.425 205.206 154.793 204.643 155.092 204.021C155.409 203.402 155.694 202.765 155.942 202.115C156.062 201.781 156.177 201.444 156.296 201.12C156.416 200.796 156.51 200.423 156.614 200.07C157.43 197.238 157.848 194.098 158.864 190.898C159.365 189.256 160.123 187.701 161.109 186.295C162.19 184.857 163.542 183.645 165.09 182.727C168.219 180.831 171.872 179.81 175.346 178.219C177.074 177.478 178.674 176.471 180.089 175.233C181.423 173.996 182.446 172.461 183.074 170.754C183.654 169.072 184.041 167.331 184.229 165.563C184.453 163.841 184.602 162.144 184.832 160.497C185.025 158.88 185.375 157.285 185.876 155.735C186.39 154.275 187.171 152.925 188.18 151.753C189.168 150.708 190.299 149.809 191.54 149.081C192.714 148.365 193.883 147.747 194.968 147.125C196.013 146.539 197.011 145.873 197.954 145.134C198.78 144.469 199.526 143.712 200.179 142.875C201.223 141.531 202.027 140.016 202.552 138.397C202.892 137.374 203.111 136.315 203.205 135.241C203.245 134.873 203.244 134.595 203.259 134.4C203.274 134.206 203.284 134.132 203.284 134.132Z" fill="#455A64"/>
<path d="M205.056 140.024C205.093 140.107 205.124 140.191 205.151 140.277C205.241 140.524 205.312 140.777 205.364 141.034C205.558 142.034 205.539 143.063 205.31 144.054C204.953 145.626 204.247 147.097 203.245 148.36C201.889 149.991 200.351 151.462 198.661 152.744C196.855 154.236 194.799 155.833 193.222 158.093C192.405 159.253 191.833 160.567 191.54 161.955C191.265 163.434 191.099 164.931 191.043 166.434C190.983 168.031 190.762 169.619 190.381 171.171C189.963 172.789 189.353 174.351 188.565 175.824C186.903 178.934 184.496 181.584 181.558 183.532C178.517 185.523 175.088 186.479 172.077 187.977C170.585 188.678 169.211 189.608 168.006 190.734C166.887 191.849 165.984 193.159 165.339 194.601C164.06 197.418 163.532 200.348 162.82 203.016C162.491 204.312 162.085 205.588 161.607 206.837C161.15 207.987 160.568 209.082 159.87 210.103C159.223 211.019 158.468 211.854 157.621 212.591C157.232 212.954 156.809 213.253 156.416 213.561C156.023 213.87 155.605 214.123 155.186 214.342C153.797 215.158 152.284 215.746 150.708 216.083C149.717 216.291 148.709 216.396 147.697 216.398L146.911 216.358H147.697C148.702 216.331 149.701 216.209 150.683 215.995C152.236 215.639 153.724 215.043 155.093 214.227C155.501 214.009 155.884 213.73 156.297 213.446C156.71 213.163 157.103 212.84 157.486 212.476C158.319 211.737 159.061 210.902 159.696 209.987C160.379 208.975 160.95 207.891 161.398 206.753C161.866 205.509 162.264 204.24 162.587 202.951C163.294 200.293 163.807 197.347 165.075 194.491C165.728 193.02 166.646 191.683 167.783 190.544C169.006 189.4 170.401 188.455 171.918 187.743C174.954 186.225 178.387 185.255 181.373 183.309C185.684 180.451 188.791 176.104 190.102 171.101C190.479 169.564 190.701 167.991 190.764 166.408C190.813 164.89 190.98 163.378 191.262 161.885C191.562 160.469 192.148 159.13 192.983 157.948C194.596 155.664 196.676 154.062 198.487 152.584C200.198 151.326 201.759 149.877 203.14 148.265C204.141 147.025 204.852 145.578 205.226 144.03C205.456 143.051 205.49 142.036 205.325 141.044C205.181 140.367 205.036 140.028 205.056 140.024Z" fill="#455A64"/>
<path d="M140.958 94.9471C140.958 94.9471 145.055 123.193 151.355 125.935C154.529 127.324 157.083 126.13 158.82 122.949C160.556 119.769 164.99 96.6633 164.99 96.6633L152.734 96.3748L152.276 100.968L147.548 92.1743L140.958 94.9471Z" fill="#936760"/>
<path d="M159.029 113.389C159.004 113.31 158.968 113.234 158.924 113.165L158.59 112.548L157.356 110.284C156.301 108.373 154.868 105.726 153.27 102.794C151.673 99.863 150.284 97.2208 149.254 95.2648L148.041 92.9806L147.707 92.3636C147.628 92.2239 147.583 92.1494 147.573 92.1545C147.595 92.2331 147.625 92.3106 147.662 92.383L147.96 93.0203C148.224 93.573 148.613 94.3644 149.105 95.3444C150.101 97.2952 151.479 99.9721 153.086 102.904C154.694 105.835 156.142 108.472 157.232 110.369C157.779 111.314 158.227 112.071 158.55 112.593L158.924 113.19C158.952 113.26 158.987 113.326 159.029 113.389Z" fill="#6F4C47"/>
<path d="M201.742 101.55L198.243 117.201L199.9 127.707H161.452L163.966 78.6732L173.549 77.8569L196.969 81.8132L201.742 101.55Z" fill="#B2C136"/>
<path d="M191.963 81.5295C191.963 81.5295 201.975 80.6089 206.748 87.4217C209.67 91.5915 213.765 101.171 213.765 101.171L200.433 103.476L191.963 81.5295Z" fill="#B2C136"/>
<g opacity="0.3">
<path d="M198.034 101.734C197.357 100.349 196.3 99.1856 194.988 98.3789C193.676 97.5723 192.16 97.1542 190.619 97.1756C189.952 97.1756 189.201 97.354 188.848 97.917C188.494 98.4789 188.689 99.2855 188.947 99.9371C189.28 100.789 189.724 101.689 190.54 102.097C191.137 102.396 191.839 102.38 192.48 102.595C193.246 102.889 193.947 103.332 194.54 103.899C195.074 104.296 195.534 104.782 195.9 105.337C196.145 105.807 196.323 106.31 196.427 106.83C197.079 109.387 197.597 114.668 198.243 117.225L198.96 115.021C198.979 112.918 198.998 110.814 199.015 108.711C199.034 106.322 199.034 103.873 198.034 101.734Z" fill="black"/>
</g>
<path d="M186.08 114.783C186.08 114.743 186.578 114.832 187.444 114.898C188.537 114.983 189.636 114.957 190.723 114.817C191.811 114.671 192.882 114.416 193.918 114.056C194.714 113.778 195.193 113.559 195.207 113.593C195.112 113.673 195.007 113.738 194.894 113.787C194.596 113.945 194.291 114.087 193.978 114.21C191.9 115.036 189.649 115.33 187.429 115.066C187.094 115.028 186.762 114.969 186.434 114.893C186.311 114.876 186.191 114.84 186.08 114.783Z" fill="#263238"/>
<path d="M169.3 115.47C169.3 115.41 174.774 116.963 181.447 118.953C188.121 120.944 193.555 122.576 193.536 122.641C193.515 122.705 188.062 121.148 181.383 119.157C174.705 117.167 169.3 115.534 169.3 115.47Z" fill="#263238"/>
<g opacity="0.3">
<path d="M186.354 114.848C186.845 115.575 187.524 116.154 188.32 116.523C189.115 116.892 189.996 117.037 190.868 116.942C191.7 116.85 192.488 116.518 193.137 115.989C193.786 115.459 194.268 114.754 194.526 113.957C191.925 114.96 189.109 115.267 186.354 114.848Z" fill="black"/>
</g>
<g opacity="0.3">
<path d="M192.077 122.143L191.938 122.198C188.504 122.81 185.284 122.198 181.985 121.023C178.686 119.849 175.63 118.167 172.59 116.46L192.077 122.143Z" fill="black"/>
</g>
<path d="M163.965 78.6727C163.965 78.6727 157.625 79.4491 155.167 84.8635C153.477 88.7247 152.047 92.6957 150.887 96.7472L163.826 99.6587C163.826 99.6587 165.861 88.7104 166.015 84.8635C166.189 80.6384 166.359 78.5483 163.965 78.6727Z" fill="#B2C136"/>
<path d="M162.745 101.391C162.63 100.185 162.594 98.9738 162.636 97.7634C162.6 96.5539 162.641 95.3445 162.761 94.1401C162.875 95.3445 162.912 96.555 162.87 97.7634C162.905 98.9738 162.864 100.185 162.745 101.391Z" fill="#263238"/>
<path d="M169.768 43.9824C173.186 39.8022 177.784 37.3936 183.205 37.304C186.25 37.2543 187.514 37.8862 189.709 38.4784C191.902 39.009 193.84 40.293 195.183 42.1063C196.74 44.3159 198.049 46.7891 198.343 49.4715C198.642 52.2335 198.945 55.0103 198.736 57.7772C198.527 60.5442 197.78 63.326 196.148 65.5753L189.106 66.7996C185.215 66.929 181.273 67.0584 177.487 66.1725C173.699 65.2867 170.022 63.2464 167.992 59.927C165.175 55.3139 166.344 48.1676 169.768 43.9824Z" fill="#263238"/>
<path d="M194.013 69.5367C194.013 69.5367 194.127 69.7109 194.436 69.9049C194.875 70.1777 195.37 70.3478 195.884 70.4026C196.659 70.4884 197.442 70.3302 198.123 69.9498C198.95 69.449 199.553 68.6488 199.805 67.7154C200.057 66.7821 199.94 65.7875 199.477 64.9384C199.081 64.2679 198.486 63.7375 197.775 63.4206C197.307 63.2088 196.797 63.1035 196.282 63.112C196.094 63.0989 195.905 63.1349 195.735 63.2166C196.401 63.2433 197.056 63.3952 197.666 63.6644C198.293 63.9908 198.811 64.4921 199.158 65.1076C199.542 65.873 199.63 66.7526 199.405 67.5786C199.182 68.4047 198.662 69.1195 197.944 69.5864C197.343 69.9415 196.651 70.1144 195.953 70.0841C195.277 70.0293 194.618 69.8434 194.013 69.5367Z" fill="#E0E0E0"/>
<path d="M162.939 64.4206C163.007 63.619 163.257 62.8436 163.67 62.1535C164.084 61.4635 164.648 60.8771 165.324 60.4394C166.009 60.0239 166.809 59.8372 167.608 59.9061C168.406 59.975 169.163 60.2959 169.768 60.8225L170.877 62.1413C171.735 62.5395 172.447 63.1948 172.915 64.016C173.383 64.8374 173.584 65.784 173.49 66.7247C173.361 67.662 172.968 68.5434 172.356 69.2652C171.745 69.9871 170.939 70.5196 170.036 70.8004C169.126 71.0561 168.167 71.0737 167.248 70.8515C166.329 70.6293 165.484 70.1746 164.791 69.5314C164.114 68.8765 163.595 68.0757 163.275 67.1901C162.954 66.3043 162.839 65.3571 162.939 64.4206Z" fill="#263238"/>
<path d="M164.323 69.1683C164.053 68.7519 163.921 68.2609 163.945 67.7649C164.005 66.8642 164.657 65.6848 165.552 64.6048C166.339 63.677 167.298 62.9083 168.374 62.3405C169.2 61.8976 169.768 61.7384 169.747 61.6787C169.224 61.7222 168.717 61.873 168.255 62.1216C167.102 62.6412 166.082 63.4133 165.269 64.3809C164.818 64.9078 164.435 65.4898 164.13 66.1128C163.854 66.6198 163.699 67.1834 163.677 67.7599C163.666 68.1547 163.775 68.5433 163.99 68.8747C164.189 69.1037 164.323 69.1832 164.323 69.1683Z" fill="#455A64"/>
<path d="M167.743 71.2483C167.857 71.2483 167.379 69.1134 168.056 66.5953C168.733 64.0772 170.155 62.4549 170.046 62.3901C169.674 62.6777 169.358 63.0321 169.116 63.4352C168.47 64.3701 167.994 65.411 167.707 66.5107C167.42 67.6092 167.327 68.7491 167.429 69.8797C167.449 70.3512 167.556 70.815 167.743 71.2483Z" fill="#455A64"/>
<path d="M189.106 78.2208C189.062 75.7325 189.002 73.7419 189.002 73.7419C189.002 73.7419 194.744 73.11 196.327 65.7547C197.118 62.097 197.263 56.0307 197.223 51.0692C197.188 46.5903 193.38 40.519 187.867 40.499L185.413 40.2104L176.028 43.9428C175.372 43.9736 174.753 44.2497 174.292 44.7162C173.831 45.1826 173.562 45.8055 173.54 46.4609L173.281 77.8824L182.353 99.9084L188.862 91.0854L189.106 78.2208Z" fill="#936760"/>
<path d="M185.294 64.0273C185.349 63.6505 185.541 63.307 185.831 63.0619C186.099 62.8324 186.434 62.6968 186.785 62.6761C187.137 62.6554 187.485 62.7508 187.777 62.9475C188.08 63.1804 188.315 63.4902 188.458 63.8446C188.601 64.1991 188.646 64.5851 188.589 64.963C188.428 65.1894 188.221 65.3786 187.98 65.5177C187.739 65.6568 187.472 65.7426 187.195 65.7691C187.107 65.7742 187.019 65.7742 186.932 65.7691C186.493 65.767 186.072 65.6 185.752 65.3013C185.585 65.1373 185.456 64.9376 185.377 64.7169C185.298 64.4962 185.269 64.2605 185.294 64.0273Z" fill="#6F4C47"/>
<path d="M193.575 56.1449C193.564 56.3935 193.457 56.6282 193.276 56.7984C193.094 56.9687 192.853 57.0611 192.605 57.0555C192.483 57.0589 192.362 57.0378 192.249 56.9935C192.135 56.9493 192.031 56.8827 191.945 56.7979C191.857 56.7129 191.788 56.6113 191.741 56.4993C191.693 56.3871 191.668 56.2666 191.669 56.1449C191.681 55.8967 191.789 55.6628 191.969 55.4928C192.151 55.3228 192.391 55.2301 192.639 55.2342C192.761 55.2309 192.882 55.252 192.995 55.2962C193.109 55.3405 193.212 55.4071 193.299 55.4919C193.387 55.5769 193.456 55.6783 193.503 55.7905C193.551 55.9027 193.575 56.0231 193.575 56.1449Z" fill="#263238"/>
<path d="M195.397 53.8205C195.272 53.935 194.58 53.3627 193.555 53.3229C192.53 53.283 191.754 53.7409 191.649 53.6115C191.545 53.4821 191.729 53.3328 192.067 53.1138C192.529 52.8327 193.066 52.699 193.605 52.7306C194.138 52.7594 194.648 52.9563 195.063 53.293C195.362 53.5369 195.456 53.7658 195.397 53.8205Z" fill="#263238"/>
<path d="M188.962 61.579C189.509 61.4375 190.073 61.3673 190.638 61.3699C190.902 61.3699 191.136 61.3202 191.206 61.141C191.245 60.8735 191.2 60.6003 191.077 60.3597C190.863 59.7128 190.643 59.031 190.41 58.3244C189.494 55.428 188.843 53.0542 188.962 53.0194C189.081 52.9846 189.917 55.2986 190.833 58.195C191.052 58.9066 191.266 59.5884 191.465 60.2402C191.613 60.5632 191.642 60.9285 191.545 61.2704C191.503 61.3616 191.44 61.4415 191.361 61.5038C191.283 61.5661 191.19 61.6089 191.092 61.6287C190.945 61.6627 190.794 61.6761 190.643 61.6685C190.082 61.7115 189.517 61.6815 188.962 61.579Z" fill="#263238"/>
<path d="M189.002 73.7364C185.504 73.5984 182.114 72.4923 179.208 70.5415C179.208 70.5415 181.572 75.8316 189.041 75.5429L189.002 73.7364Z" fill="#6F4C47"/>
<path d="M185.907 62.1214C186.075 62.1214 186.016 63.2312 186.902 64.0722C187.787 64.9132 189.002 64.8584 189.002 65.0127C189.002 65.0824 188.727 65.2168 188.225 65.2019C187.573 65.1744 186.952 64.919 186.468 64.4803C186.007 64.0568 185.728 63.4722 185.687 62.8479C185.692 62.3802 185.831 62.1115 185.907 62.1214Z" fill="#263238"/>
<path d="M195.177 49.9594C194.993 50.1982 194.217 49.9892 193.296 50.014C192.376 50.0389 191.604 50.238 191.416 50.014C191.331 49.8996 191.445 49.6608 191.773 49.4269C192.225 49.1337 192.752 48.9797 193.291 48.984C193.826 48.9657 194.356 49.1078 194.809 49.392C195.177 49.606 195.272 49.8399 195.177 49.9594Z" fill="#263238"/>
<path d="M181.656 55.8759C181.644 56.1273 181.732 56.3732 181.901 56.5598C182.07 56.7464 182.306 56.8583 182.557 56.8712C182.678 56.8821 182.799 56.8689 182.915 56.8324C183.031 56.796 183.138 56.7369 183.231 56.6587C183.322 56.5805 183.399 56.4846 183.454 56.3767C183.509 56.2688 183.543 56.151 183.552 56.0302C183.564 55.7789 183.476 55.5329 183.307 55.3463C183.139 55.1598 182.902 55.0478 182.651 55.0349C182.531 55.0234 182.409 55.036 182.292 55.0722C182.177 55.1084 182.069 55.1675 181.976 55.2459C181.884 55.3242 181.808 55.4203 181.753 55.5286C181.698 55.6368 181.665 55.7548 181.656 55.8759Z" fill="#263238"/>
<path d="M181.363 53.4527C181.477 53.5771 182.209 53.0546 183.234 53.0745C184.259 53.0944 185 53.6219 185.115 53.4975C185.23 53.3731 185.055 53.2188 184.732 52.9998C184.297 52.685 183.776 52.5114 183.239 52.5022C182.706 52.4892 182.183 52.6479 181.746 52.9551C181.413 53.174 181.304 53.393 181.363 53.4527Z" fill="#263238"/>
<path d="M180.77 51.2474C180.97 51.4863 181.765 51.2474 182.716 51.2474C183.667 51.2474 184.473 51.4366 184.663 51.1927C184.742 51.0782 184.622 50.8443 184.274 50.6155C183.796 50.3357 183.25 50.1945 182.696 50.2073C182.146 50.2032 181.606 50.355 181.138 50.6452C180.801 50.8941 180.685 51.133 180.77 51.2474Z" fill="#263238"/>
<path d="M174.824 58.9315C174.854 58.3742 174.287 57.0404 173.744 56.9409C172.301 56.6373 169.663 56.6074 169.44 60.31C169.126 65.366 174.266 64.6345 174.287 64.4902C174.306 64.3459 174.724 60.8375 174.824 58.9315Z" fill="#936760"/>
<path d="M173.008 62.5397C172.983 62.5397 172.913 62.5945 172.759 62.6542C172.545 62.73 172.309 62.721 172.101 62.6293C171.579 62.4004 171.182 61.5195 171.211 60.6089C171.225 60.1736 171.336 59.747 171.534 59.3598C171.591 59.2039 171.684 59.0645 171.808 58.9542C171.931 58.8439 172.08 58.766 172.241 58.7278C172.343 58.7078 172.449 58.7243 172.54 58.7743C172.631 58.8244 172.701 58.9047 172.739 59.0015C172.799 59.1458 172.763 59.2453 172.789 59.2552C172.813 59.2652 172.903 59.1756 172.873 58.9666C172.854 58.8395 172.791 58.7232 172.694 58.6382C172.627 58.5782 172.548 58.533 172.462 58.5056C172.377 58.4782 172.286 58.4691 172.196 58.479C171.986 58.5063 171.786 58.5876 171.616 58.7149C171.446 58.8421 171.311 59.0111 171.227 59.2055C170.985 59.63 170.85 60.1062 170.833 60.594C170.803 61.6191 171.266 62.5846 171.987 62.8583C172.121 62.9059 172.263 62.923 172.402 62.9084C172.543 62.8938 172.679 62.8477 172.799 62.7736C172.988 62.6691 173.022 62.5497 173.008 62.5397Z" fill="#6F4C47"/>
<path d="M173.535 56.9357L174.824 58.2694C180.373 52.9594 191.221 39.6573 190.614 40.4486C188.085 39.5043 185.359 39.2083 182.686 39.5877C178.556 40.2894 170.743 42.3546 170.853 47.2266C170.962 52.0985 173.535 56.9357 173.535 56.9357Z" fill="#263238"/>
<path d="M173.655 69.5366C173.655 69.5366 173.54 69.7108 173.236 69.9048C172.796 70.1783 172.299 70.3485 171.783 70.4025C171.009 70.4883 170.228 70.33 169.549 69.9497C168.722 69.4489 168.119 68.649 167.866 67.7159C167.613 66.7829 167.73 65.7882 168.191 64.9383C168.588 64.2675 169.185 63.7371 169.898 63.4205C170.366 63.2078 170.876 63.1023 171.391 63.1119C171.58 63.1005 171.77 63.1365 171.942 63.2165C171.278 63.2506 170.627 63.4093 170.022 63.6842C169.395 64.011 168.877 64.5123 168.529 65.1274C168.146 65.8927 168.058 66.7724 168.281 67.5985C168.506 68.4245 169.026 69.1393 169.743 69.6062C170.354 69.9656 171.056 70.1386 171.764 70.1039C172.425 70.038 173.066 69.8454 173.655 69.5366Z" fill="#E0E0E0"/>
<path d="M166.184 55.8217C166.201 55.7215 166.228 55.6232 166.264 55.528C166.355 55.2534 166.471 54.987 166.607 54.7318C167.13 53.7943 167.852 52.9824 168.722 52.353C170.013 51.4317 171.452 50.7382 172.977 50.3027C174.669 49.7553 176.58 49.3074 178.451 48.5211C180.212 47.7841 181.882 46.8456 183.427 45.7243C184.695 44.8045 185.876 43.7719 186.956 42.6389C187.681 41.8718 188.362 41.0644 188.996 40.2204L189.494 39.5187C189.555 39.4323 189.626 39.3523 189.703 39.2798C189.667 39.3741 189.619 39.4629 189.558 39.5436C189.449 39.7128 189.3 39.9616 189.061 40.2702C188.458 41.1459 187.792 41.9774 187.07 42.7584C186.001 43.9184 184.822 44.9733 183.552 45.9085C181.992 47.0551 180.299 48.0109 178.511 48.7551C176.718 49.4417 174.892 50.0332 173.037 50.5266C171.531 50.9436 170.105 51.6079 168.817 52.4923C167.955 53.0991 167.229 53.8767 166.682 54.7766C166.314 55.4285 166.214 55.8316 166.184 55.8217Z" fill="#455A64"/>
<path d="M167.658 56.6173C167.645 56.2392 167.713 55.8626 167.857 55.5126C168.236 54.5452 168.899 53.7146 169.758 53.1289C170.813 52.3426 172.321 51.8549 173.978 51.4767C175.783 51.1166 177.542 50.5576 179.223 49.8096C180.896 49.0438 182.466 48.0743 183.901 46.9232C185.07 45.9803 186.142 44.9253 187.106 43.7731C187.753 42.9919 188.349 42.1709 188.893 41.3147L189.32 40.6081C189.367 40.523 189.422 40.443 189.484 40.3691C189.459 40.4628 189.419 40.5518 189.365 40.633C189.266 40.827 189.137 41.0708 188.977 41.3694C188.463 42.2507 187.884 43.0924 187.245 43.8876C185.122 46.5274 182.412 48.6367 179.332 50.0484C177.636 50.8067 175.857 51.3678 174.033 51.7205C172.376 52.0887 170.902 52.5466 169.862 53.2931C169.021 53.8497 168.357 54.6377 167.952 55.5624C167.821 55.9042 167.722 56.2574 167.658 56.6173Z" fill="#455A64"/>
<path d="M141.471 97.7031C141.188 97.5991 140.815 93.573 140.815 93.573C140.815 93.573 136.789 90.3526 136.241 89.0442C135.693 87.7348 135.774 84.6151 135.774 84.6151L142.368 80.1362C142.368 80.1362 146.264 83.6198 147.284 84.9933C147.856 85.7596 148.279 87.8745 148.578 89.5867C148.817 91.042 148.872 92.5216 148.742 93.9911L148.648 95.1251C148.648 95.1251 145.995 99.3857 141.471 97.7031Z" fill="#936760"/>
<path d="M136.545 89.8359C136.07 89.4147 135.621 88.9681 135.195 88.4969C134.34 87.571 133.389 86.7052 134.2 85.7252C134.323 85.5631 134.478 85.4284 134.655 85.3305C134.832 85.2337 135.028 85.1745 135.231 85.1582C135.231 85.1582 134.733 84.2969 135.166 83.7545C135.288 83.5943 135.446 83.4656 135.628 83.379C135.81 83.2924 136.01 83.2505 136.211 83.2568C136.211 83.2568 135.569 82.0227 136.161 81.1916C136.387 80.8882 136.692 80.6538 137.044 80.5149C137.396 80.376 137.78 80.3381 138.152 80.4054C138.152 80.4054 135.48 74.961 135.32 74.6824C134.723 73.6522 134.777 72.5275 135.973 72.4031C136.41 72.3584 136.788 72.7017 137.923 74.3937C139.057 76.0857 140.958 78.9472 140.958 78.9472C140.958 78.9472 143.033 80.7039 144.074 81.6893C145.114 82.6746 147.289 84.9837 147.652 85.6701C148.583 87.4568 148.383 90.3335 148.383 90.3335L140.819 93.5733C140.819 93.5733 137.032 90.2683 136.545 89.8359Z" fill="#936760"/>
<path d="M135.46 85.3467C135.774 85.5313 136.073 85.7393 136.355 85.9687L137.306 86.6754C137.498 86.8141 137.678 86.9691 137.844 87.1384C138.037 87.326 138.163 87.5728 138.202 87.84C138.226 87.9777 138.214 88.1205 138.165 88.251C138.116 88.3825 138.033 88.4988 137.923 88.5865C137.711 88.7333 137.451 88.7925 137.196 88.7507C136.984 88.7282 136.774 88.6854 136.569 88.6212C136.375 88.5661 136.201 88.512 136.037 88.457C135.719 88.353 135.46 88.2581 135.285 88.1837C135.111 88.1092 135.022 88.0644 135.027 88.0491C135.031 88.0338 135.43 88.1633 136.072 88.3428C136.445 88.457 136.825 88.5416 137.212 88.5967C137.424 88.6222 137.639 88.5722 137.818 88.457C137.903 88.3846 137.967 88.2918 138.005 88.1867C138.042 88.0817 138.052 87.9695 138.033 87.8604C137.995 87.6299 137.885 87.4168 137.72 87.2526C137.567 87.0884 137.4 86.9365 137.222 86.7998L136.291 86.0585C135.994 85.8453 135.716 85.6077 135.46 85.3467Z" fill="#6F4C47"/>
<path d="M142.043 83.7342C141.829 83.3533 141.708 82.9269 141.69 82.4901C141.615 82.0605 141.64 81.6192 141.765 81.2012C141.82 81.2012 141.765 81.7785 141.86 82.4752C141.953 83.1719 142.093 83.7193 142.043 83.7342Z" fill="#6F4C47"/>
<path d="M145.706 84.2867C144.744 83.8563 143.678 83.7128 142.636 83.8736C141.598 84.0339 140.591 84.3528 139.65 84.8192C138.893 85.1773 138.067 85.7045 137.963 86.5356C137.858 87.3668 138.639 88.1632 139.486 88.3274C140.347 88.4232 141.216 88.2499 141.974 87.8297C142.726 87.4004 143.528 87.0659 144.362 86.8344" fill="#936760"/>
<path d="M144.372 86.8599C144.372 86.8599 144.148 86.914 143.755 87.0639C143.21 87.2862 142.678 87.537 142.157 87.8144C141.792 88.0031 141.411 88.1601 141.018 88.2825C140.562 88.4324 140.077 88.4824 139.6 88.4273C139.058 88.3569 138.566 88.0785 138.226 87.6502C138.042 87.4269 137.921 87.1567 137.878 86.8691C137.847 86.5682 137.905 86.2654 138.048 85.9982C138.356 85.5118 138.8 85.1253 139.327 84.8887C139.792 84.6553 140.27 84.4493 140.759 84.2716C141.589 83.9609 142.466 83.7926 143.353 83.774C143.948 83.7595 144.543 83.8487 145.109 84.0377C145.264 84.0891 145.415 84.1506 145.561 84.2219C145.612 84.2449 145.661 84.2733 145.706 84.3065C145.706 84.3065 145.492 84.2169 145.089 84.1024C144.524 83.9445 143.938 83.8757 143.353 83.8984C142.482 83.9386 141.625 84.1218 140.814 84.4408C140.333 84.6177 139.862 84.8238 139.406 85.058C138.912 85.2813 138.492 85.6443 138.202 86.1032C138.072 86.3347 138.02 86.6009 138.052 86.864C138.089 87.121 138.194 87.3637 138.356 87.5656C138.67 87.9592 139.122 88.2193 139.62 88.2927C140.076 88.3457 140.539 88.3029 140.979 88.1683C141.366 88.052 141.744 87.9031 142.108 87.7257C142.636 87.4565 143.179 87.2209 143.735 87.019C143.888 86.968 144.045 86.9282 144.203 86.8997C144.257 86.8783 144.314 86.865 144.372 86.8599Z" fill="#6F4C47"/>
<path d="M135.555 85.416C136.813 86.3572 138.043 87.4566 139.177 88.5171C139.488 88.8567 139.883 89.1096 140.322 89.2483C140.675 89.3227 141.287 88.7506 141.571 88.5018L137.506 84.2319" fill="#936760"/>
<path d="M137.506 84.2319C137.629 84.32 137.742 84.4218 137.843 84.5354L138.719 85.4211C139.46 86.1778 140.486 87.2373 141.636 88.4416L141.696 88.5069L141.625 88.5661C141.408 88.7608 141.181 88.9444 140.944 89.1137C140.841 89.182 140.733 89.2401 140.621 89.2881C140.56 89.3125 140.496 89.3278 140.431 89.3329C140.366 89.3462 140.298 89.3462 140.232 89.3329C140.007 89.2666 139.796 89.1585 139.61 89.0148C139.247 88.7353 138.959 88.4325 138.655 88.1633C138.057 87.6156 137.52 87.1282 137.062 86.7254C136.604 86.3215 136.222 86.0034 135.958 85.7841C135.816 85.6771 135.681 85.5608 135.555 85.4364C135.713 85.52 135.861 85.6199 135.997 85.7352C136.276 85.934 136.669 86.2328 137.137 86.6305C137.604 87.0282 138.162 87.5014 138.759 88.049C139.063 88.3121 139.367 88.6211 139.709 88.8801C139.879 89.0107 140.071 89.1086 140.277 89.1687C140.379 89.18 140.482 89.1708 140.58 89.1402C140.678 89.1086 140.768 89.0576 140.844 88.9893C141.078 88.8241 141.302 88.6466 141.516 88.4569V88.5467C140.367 87.3372 139.361 86.2624 138.64 85.4864L137.799 84.5653C137.694 84.4601 137.596 84.3488 137.506 84.2319Z" fill="#6F4C47"/>
<path d="M136.36 82.9377L140.461 87.5562C140.732 87.9009 141.06 88.1966 141.432 88.4322C141.617 88.5484 141.829 88.6157 142.049 88.63C142.268 88.6443 142.486 88.6035 142.686 88.5117C142.934 88.3404 143.117 88.0905 143.207 87.803C143.297 87.5154 143.289 87.2064 143.184 86.9239C142.962 86.361 142.623 85.8521 142.188 85.431C140.95 84.0276 139.825 82.5301 138.819 80.9521" fill="#936760"/>
<path d="M138.829 80.938C138.829 80.938 138.874 80.9828 138.943 81.0823L139.242 81.5153C139.505 81.8885 139.884 82.4259 140.371 83.0779C140.859 83.7298 141.471 84.4812 142.178 85.292C142.578 85.6989 142.913 86.1639 143.173 86.6707C143.303 86.9573 143.353 87.2734 143.317 87.5865C143.292 87.9169 143.143 88.2269 142.9 88.4523C142.773 88.5604 142.624 88.6389 142.463 88.6827C142.301 88.7266 142.133 88.7347 141.969 88.7062C141.658 88.6603 141.364 88.5328 141.117 88.3381C140.692 87.9607 140.298 87.5498 139.939 87.1092L138.052 84.9539C137.53 84.3519 137.107 83.8542 136.794 83.4909L136.455 83.0729C136.412 83.0276 136.376 82.9775 136.346 82.9236C136.346 82.9236 136.395 82.9634 136.48 83.048L136.844 83.4312L138.142 84.8594L140.058 86.9889C140.414 87.4192 140.803 87.82 141.222 88.1892C141.446 88.3656 141.712 88.4808 141.993 88.5216C142.134 88.5451 142.278 88.5379 142.416 88.5012C142.552 88.4645 142.681 88.3982 142.79 88.3085C143 88.1096 143.127 87.8394 143.149 87.5518C143.18 87.2693 143.136 86.9838 143.019 86.7258C142.757 86.2302 142.422 85.7774 142.024 85.3817C141.317 84.5658 140.72 83.7945 140.242 83.1326C139.764 82.4707 139.396 81.9233 139.152 81.5352C139.033 81.3411 138.938 81.1918 138.878 81.0873C138.857 81.0395 138.84 80.9894 138.829 80.938Z" fill="#6F4C47"/>
<path d="M145.084 91.5326C144.931 91.6132 144.759 91.6489 144.587 91.6366C144.183 91.6591 143.779 91.5877 143.407 91.4276C143.027 91.2756 142.687 91.0391 142.412 90.7362C142.291 90.6179 142.201 90.4731 142.148 90.313C142.505 90.7301 142.955 91.0574 143.462 91.2685C143.968 91.4806 144.517 91.5704 145.064 91.5326H145.084Z" fill="#6F4C47"/>
<path d="M197.232 78.5139L195.799 96.5986C195.775 96.9075 195.63 97.1951 195.396 97.3981C195.16 97.601 194.855 97.704 194.545 97.6836L184.468 97.0065C184.311 96.9973 184.157 96.9565 184.015 96.8861C183.874 96.8158 183.748 96.7179 183.646 96.5986C183.543 96.4782 183.465 96.3385 183.417 96.1886C183.37 96.0377 183.353 95.8796 183.368 95.7226L185.015 77.653C185.042 77.3461 185.188 77.062 185.421 76.8611C185.655 76.6602 185.958 76.5586 186.265 76.578L196.133 77.22C196.291 77.2306 196.445 77.2727 196.587 77.344C196.727 77.4152 196.854 77.514 196.956 77.6346C197.059 77.7552 197.135 77.8952 197.183 78.0462C197.231 78.1972 197.248 78.3562 197.232 78.5139Z" fill="#455A64"/>
<path d="M211.66 101.535C211.66 101.535 214.67 121.879 214.551 124.611C214.432 127.342 211.341 133.409 207.181 134.002C203.02 134.593 199.098 130.791 198.979 125.8C198.86 120.809 198.243 105.024 198.243 105.024L201.348 103.312L211.66 101.535Z" fill="#936760"/>
<path d="M194.515 84.7246C194.515 84.7246 197.631 86.6408 198.552 87.1435C199.472 87.6463 199.352 91.3582 199.352 91.3582L204.598 103.551L198.277 105.814C198.277 105.814 196.024 101.55 195.376 101.012C194.933 100.665 194.426 100.408 193.883 100.256C193.883 100.256 193.56 101.441 192.589 100.903C191.819 100.395 191.129 99.7764 190.539 99.0667C190.539 99.0667 189.673 99.6092 189.35 98.9626C189.026 98.3151 188.488 96.9119 188.488 96.9119C188.488 96.9119 190.32 94.5379 191.077 94.5379C191.833 94.5379 195.715 94.752 195.715 94.752C195.715 94.752 195.5 94.4287 194.42 94.0004C193.341 93.5732 186.921 91.6764 186.617 91.5622C186.164 91.3878 185.658 90.2089 187.061 90.0988C188.464 89.9897 196.362 91.4031 196.362 91.4031C196.362 91.4031 196.795 89.3625 196.471 88.9148C196.148 88.4672 193.326 86.6652 194.515 84.7246Z" fill="#936760"/>
<path d="M190.514 98.9971C190.46 98.7034 190.468 98.4015 190.54 98.1109C190.607 97.7733 190.781 97.4664 191.037 97.2349C191.374 96.9922 191.782 96.8688 192.197 96.8872C192.906 96.8413 193.617 96.8657 194.322 96.9616C194.616 96.981 194.905 97.0483 195.178 97.1605C195.178 97.2349 193.844 97.0116 192.192 97.1207C191.826 97.1023 191.464 97.2002 191.157 97.3991C190.934 97.599 190.776 97.861 190.704 98.1507C190.656 98.4362 190.593 98.7187 190.514 98.9971Z" fill="#6F4C47"/>
<path d="M191.769 99.3604C192.182 99.5296 192.585 99.7203 192.978 99.9324C193.403 100.072 193.818 100.238 194.222 100.43C193.758 100.462 193.294 100.361 192.883 100.141C192.444 99.9967 192.055 99.7244 191.769 99.3604Z" fill="#6F4C47"/>
<path d="M195.989 91.3579C196.408 91.4211 196.798 91.6139 197.103 91.9096C197.408 92.2043 197.613 92.5878 197.69 93.0048C197.626 93.0048 197.412 92.5072 196.939 92.0799C196.466 91.6516 195.963 91.4232 195.989 91.3579Z" fill="#6F4C47"/>
<path d="M142.138 200.229C142.069 200.229 144.786 188.783 148.21 174.709C151.633 160.636 154.46 149.26 154.529 149.26C154.6 149.26 151.882 160.706 148.459 174.784C145.034 188.863 142.208 200.244 142.138 200.229Z" fill="#455A64"/>
<path d="M216.611 216.839C216.611 216.91 169.136 216.969 110.582 216.969C52.0289 216.969 4.53833 216.91 4.53833 216.839C4.53833 216.77 52.009 216.71 110.582 216.71C169.155 216.71 216.611 216.765 216.611 216.839Z" fill="#263238"/>
<path d="M191.893 37.3782L193.356 32.0981C191.419 28.9598 190.726 25.2107 191.413 21.5875C192.101 17.9644 194.119 14.7295 197.07 12.5187C200.022 10.3079 203.694 9.28134 207.364 9.64061C211.034 9.99998 214.437 11.7193 216.904 14.4606C219.37 17.2019 220.723 20.7667 220.694 24.4544C220.667 28.1421 219.259 31.6857 216.751 34.3886C214.242 37.0915 210.813 38.7582 207.137 39.0609C203.462 39.3636 199.806 38.2805 196.89 36.0245L191.893 37.3782Z" fill="white"/>
<path d="M191.893 37.3786L192.226 37.279L193.187 37.0103L196.88 35.9753L196.845 36.0698C196.835 36.0589 196.83 36.0447 196.83 36.03C196.83 36.0153 196.835 36.0012 196.845 35.9901C196.856 35.9831 196.868 35.9793 196.882 35.9793C196.895 35.9793 196.908 35.9831 196.919 35.9901C198.88 37.4956 201.192 38.4785 203.638 38.8466C205.203 39.0872 206.797 39.067 208.355 38.787C211.258 38.2829 213.941 36.9161 216.055 34.8647C218.17 32.8133 219.617 30.1724 220.209 27.2863C220.64 25.0821 220.566 22.8088 219.991 20.6377C219.4 18.3703 218.269 16.2799 216.693 14.5463C215.117 12.8126 213.144 11.4875 210.943 10.6848C208.682 9.85487 206.252 9.59554 203.867 9.92982C201.482 10.2642 199.217 11.1818 197.271 12.6014C195.326 14.021 193.761 15.8986 192.715 18.0679C191.67 20.2371 191.175 22.6309 191.276 25.0369C191.38 27.517 192.113 29.9299 193.406 32.0488C193.411 32.0651 193.411 32.0824 193.406 32.0986C192.909 33.7955 192.545 35.0845 192.287 35.9951C192.162 36.438 192.062 36.7715 191.993 36.9904C191.922 37.2094 191.888 37.3438 191.888 37.3438C191.888 37.3438 191.913 37.2343 191.967 37.0103C192.022 36.7864 192.117 36.443 192.237 36.015C192.475 35.1044 192.833 33.7756 193.291 32.0338V32.0836C191.726 29.5662 190.956 26.6349 191.083 23.673C191.21 20.711 192.227 17.8563 194.003 15.4821C196.28 12.4419 199.633 10.3876 203.375 9.73994C207.118 9.09228 210.967 9.90035 214.133 11.9985C215.119 12.6675 216.025 13.449 216.83 14.3276C217.642 15.217 218.348 16.1973 218.935 17.2487C220.576 20.3274 221.103 23.8784 220.428 27.3012C219.827 30.2313 218.355 32.9114 216.204 34.9895C214.054 37.0678 211.325 38.447 208.375 38.9462C206.794 39.2254 205.178 39.2388 203.593 38.986C201.123 38.5912 198.795 37.5758 196.824 36.0349L196.909 35.9554C196.914 35.9605 196.919 35.9666 196.922 35.9734C196.924 35.9804 196.926 35.9877 196.926 35.9951C196.926 36.0026 196.924 36.0099 196.922 36.0169C196.919 36.0237 196.914 36.0298 196.909 36.0349L193.152 37.0302L192.192 37.289L191.893 37.3786Z" fill="#263238"/>
<path d="M199.313 24.7435L201.035 23.0166L204.359 25.9726L210.883 19.6924L212.485 21.4192L204.115 29.297L199.313 24.7435Z" fill="#B2C136"/>
</svg>
