<svg width="244" height="244" viewBox="0 0 244 244" fill="none" xmlns="http://www.w3.org/2000/svg">
<path d="M76.2352 18.3098H16.7285V116.808H76.2352V18.3098Z" fill="#E0E0E0"/>
<path d="M74.254 18.3098H14.7473V116.808H74.254V18.3098Z" fill="#EBEBEB"/>
<path d="M71.7213 20.3057H17.2849V114.807H71.7213V20.3057Z" fill="#FAFAFA"/>
<path d="M61.1172 32.5837H27.6453V102.524H61.1172V32.5837Z" fill="#EBEBEB"/>
<path d="M27.6451 77.7776C27.567 71.2433 33.4425 64.8651 39.9134 63.9526C42.9975 63.5182 46.2574 64.1283 49.161 62.9473C54.3045 60.8391 55.9442 54.0022 61.1219 51.9722L61.3561 102.529H27.6451V77.7776Z" fill="#E0E0E0"/>
<path d="M206.961 45.7175L202.076 45.7439L202.208 70.0459L207.093 70.0195L206.961 45.7175Z" fill="#E0E0E0"/>
<path d="M172.417 45.7778L159.768 45.8462L159.84 59.2611L172.489 59.1927L172.417 45.7778Z" fill="#EBEBEB"/>
<path d="M185.006 45.7145L172.358 45.783L172.43 59.1979L185.079 59.1294L185.006 45.7145Z" fill="#F5F5F5"/>
<path d="M159.786 49.5661C168.189 49.6344 176.617 49.5661 185.02 49.449C185.052 49.443 185.08 49.4264 185.1 49.4019C185.12 49.3774 185.131 49.3466 185.131 49.3148C185.131 49.283 185.12 49.2522 185.1 49.2277C185.08 49.2032 185.052 49.1866 185.02 49.1806C176.614 49.1318 168.202 49.1822 159.786 49.3319C159.755 49.3319 159.725 49.3442 159.703 49.3662C159.681 49.3881 159.669 49.4179 159.669 49.449C159.669 49.4801 159.681 49.5098 159.703 49.5318C159.725 49.5538 159.755 49.5661 159.786 49.5661Z" fill="#E0E0E0"/>
<path d="M174.865 58.9745L151.885 59.0989L151.944 70.0299L174.924 69.9056L174.865 58.9745Z" fill="#EBEBEB"/>
<path d="M197.731 58.8508L174.752 58.9751L174.811 69.9061L197.79 69.7818L197.731 58.8508Z" fill="#F5F5F5"/>
<path d="M151.895 62.147C167.16 62.3226 182.478 62.147 197.742 61.9225C197.774 61.9165 197.802 61.8998 197.822 61.8753C197.842 61.8508 197.853 61.8201 197.853 61.7883C197.853 61.7565 197.842 61.7257 197.822 61.7012C197.802 61.6767 197.774 61.6601 197.742 61.6541C182.478 61.5711 167.16 61.5809 151.895 61.9176C151.868 61.9231 151.845 61.9375 151.828 61.9583C151.811 61.9792 151.802 62.0053 151.802 62.0323C151.802 62.0592 151.811 62.0853 151.828 62.1062C151.845 62.1271 151.868 62.1415 151.895 62.147Z" fill="#E0E0E0"/>
<path d="M232.327 70.0378H143.301V73.9565H232.327V70.0378Z" fill="#E0E0E0"/>
<path d="M161.494 71.9214H157.878V85.2877H161.494V71.9214Z" fill="#E0E0E0"/>
<path d="M215.442 71.9214H211.826V85.2877H215.442V71.9214Z" fill="#E0E0E0"/>
<path d="M211.729 36.654L206.844 36.6804L207.025 70.103L211.909 70.0766L211.729 36.654Z" fill="#EBEBEB"/>
<path d="M219.36 42.8786L211.772 42.9197L211.919 70.0033L219.507 69.9622L219.36 42.8786Z" fill="#F5F5F5"/>
<path d="M219.302 48.1071C216.776 48.2828 214.24 48.2828 211.714 48.1071C214.24 47.9314 216.776 47.9314 219.302 48.1071Z" fill="#E0E0E0"/>
<path d="M219.302 46.9701C216.776 47.1458 214.24 47.1458 211.714 46.9701C214.24 46.7945 216.776 46.7945 219.302 46.9701Z" fill="#E0E0E0"/>
<path d="M219.302 65.8801C216.776 66.0557 214.24 66.0557 211.714 65.8801C214.24 65.7044 216.776 65.7044 219.302 65.8801Z" fill="#E0E0E0"/>
<path d="M219.302 64.7626C216.776 64.9318 214.241 64.9318 211.714 64.7626C214.24 64.5869 216.776 64.5869 219.302 64.7626Z" fill="#E0E0E0"/>
<path d="M215.632 62.2786C215.559 62.2786 215.501 59.5458 215.501 56.1737C215.501 52.8017 215.559 50.0737 215.632 50.0737C215.706 50.0737 215.764 52.8017 215.764 56.1737C215.764 59.5458 215.696 62.2786 215.632 62.2786Z" fill="#E0E0E0"/>
<path d="M227.647 49.5369H219.385V69.9792H227.647V49.5369Z" fill="#EBEBEB"/>
<path d="M210.616 42.373C210.621 42.652 210.542 42.926 210.391 43.1603C210.239 43.3947 210.022 43.5786 209.765 43.6887C209.509 43.7988 209.226 43.8302 208.951 43.7787C208.677 43.7273 208.425 43.5954 208.226 43.3999C208.027 43.2043 207.89 42.954 207.834 42.6807C207.778 42.4074 207.804 42.1236 207.91 41.8653C208.015 41.6071 208.195 41.3862 208.427 41.2306C208.659 41.0751 208.931 40.992 209.21 40.992C209.579 40.9906 209.934 41.1349 210.197 41.3935C210.46 41.6521 210.611 42.0041 210.616 42.373Z" fill="#E0E0E0"/>
<path d="M209.645 46.2332H208.776V66.1143H209.645V46.2332Z" fill="#E0E0E0"/>
<path d="M84.8094 201.349C84.8094 201.349 80.3345 204.765 84.6191 209.259C84.6557 209.298 84.6996 209.328 84.7482 209.349C84.7969 209.37 84.8492 209.381 84.9021 209.381L123.996 209.152C123.996 209.152 127.334 205.409 124.562 201.095L84.8094 201.349Z" fill="#EBEBEB"/>
<path d="M115.353 204.906C115.353 204.95 110.473 204.985 104.486 204.985C98.4979 204.985 93.613 204.95 93.613 204.906C93.613 204.863 98.493 204.828 104.486 204.828C110.478 204.828 115.353 204.863 115.353 204.906Z" fill="#E0E0E0"/>
<path d="M109.273 206.321C109.273 206.365 106.989 206.4 104.164 206.4C101.338 206.4 99.0542 206.365 99.0542 206.321C99.0542 206.278 101.343 206.239 104.164 206.239C106.984 206.239 109.273 206.278 109.273 206.321Z" fill="#E0E0E0"/>
<path d="M119.35 209.025C119.35 209.025 119.438 208.576 119.56 207.854C119.716 206.912 119.792 205.959 119.784 205.004C119.775 204.048 119.682 203.094 119.506 202.154C119.37 201.432 119.253 200.993 119.277 200.983C119.325 201.08 119.362 201.181 119.389 201.285C119.48 201.562 119.555 201.844 119.614 202.13C119.823 203.072 119.934 204.034 119.945 204.999C119.951 205.964 119.858 206.927 119.667 207.873C119.594 208.235 119.521 208.527 119.462 208.723C119.404 208.918 119.365 209.03 119.35 209.025Z" fill="#E0E0E0"/>
<path d="M122.268 201.056C122.34 201.142 122.399 201.237 122.444 201.339C122.508 201.453 122.567 201.571 122.62 201.691C122.694 201.85 122.759 202.012 122.815 202.179C122.975 202.599 123.1 203.031 123.191 203.472C123.293 204.014 123.35 204.564 123.361 205.116C123.36 205.669 123.311 206.221 123.215 206.766C123.134 207.209 123.016 207.645 122.864 208.069C122.805 208.254 122.732 208.41 122.673 208.557C122.624 208.677 122.567 208.795 122.503 208.908C122.459 209.011 122.404 209.107 122.337 209.196C122.307 209.196 122.527 208.762 122.761 208.039C123.063 207.093 123.211 206.105 123.2 205.111C123.194 204.568 123.142 204.026 123.044 203.491C122.964 203.055 122.853 202.624 122.712 202.203C122.488 201.476 122.244 201.056 122.268 201.056Z" fill="#E0E0E0"/>
<path d="M90.9777 209.079C90.9054 208.999 90.8431 208.91 90.7923 208.815C90.7254 208.712 90.665 208.604 90.6117 208.493C90.5343 208.347 90.4642 208.197 90.4019 208.044C90.2365 207.646 90.109 207.232 90.0212 206.81C89.9185 206.291 89.8679 205.762 89.8699 205.233C89.8816 204.704 89.947 204.178 90.0651 203.662C90.1638 203.243 90.3027 202.834 90.4799 202.442C90.5443 202.29 90.6176 202.141 90.6995 201.998C90.7539 201.885 90.8176 201.778 90.8899 201.676C91.0021 201.505 91.0704 201.412 91.0802 201.422C91.0899 201.432 90.8557 201.812 90.5922 202.486C90.4328 202.878 90.307 203.283 90.2164 203.696C90.1106 204.204 90.0501 204.72 90.0359 205.238C90.0367 205.755 90.0824 206.271 90.1725 206.78C90.2554 207.195 90.3695 207.603 90.5141 208C90.7678 208.679 91.0021 209.064 90.9777 209.079Z" fill="#E0E0E0"/>
<path d="M86.7567 210.03C86.6758 209.943 86.6084 209.845 86.5566 209.738C86.4865 209.614 86.4261 209.485 86.376 209.352C86.2874 209.194 86.2076 209.031 86.1369 208.864C85.9485 208.418 85.7999 207.956 85.6928 207.483C85.4199 206.324 85.3933 205.12 85.6148 203.95C85.7008 203.472 85.8298 203.004 86.0003 202.549C86.0637 202.354 86.1467 202.188 86.2101 202.037C86.2665 201.908 86.33 201.783 86.4004 201.661C86.4521 201.553 86.5142 201.45 86.5859 201.354C86.6151 201.354 86.3663 201.817 86.0979 202.588C85.9468 203.041 85.8309 203.504 85.7514 203.974C85.6598 204.55 85.6174 205.133 85.6245 205.716C85.65 206.78 85.8563 207.831 86.2345 208.825C86.5127 209.581 86.7811 210.016 86.7567 210.03Z" fill="#E0E0E0"/>
<path d="M122.561 221.064V228.54H108.087V221.064H122.561Z" fill="#EBEBEB"/>
<path d="M75.8108 224.866C75.8108 224.934 75.8108 224.997 75.8108 225.066C75.8806 226.157 76.3653 227.181 77.1655 227.927C77.9658 228.673 79.0211 229.084 80.115 229.077H123.225V228.535H112.977C111.986 228.535 111.035 228.141 110.334 227.44C109.633 226.739 109.239 225.789 109.239 224.797C109.239 223.806 109.633 222.855 110.334 222.154C111.035 221.453 111.986 221.059 112.977 221.059H123.225V220.264L80.1052 220.41C79.5281 220.412 78.9571 220.529 78.4262 220.756C77.8954 220.982 77.4154 221.313 77.0149 221.729C76.6143 222.144 76.3014 222.636 76.0945 223.175C75.8877 223.714 75.7912 224.289 75.8108 224.866Z" fill="#E0E0E0"/>
<path d="M122.561 224.895C122.561 224.939 119.584 224.978 115.915 224.978C112.245 224.978 109.268 224.939 109.268 224.895C109.268 224.851 112.245 224.817 115.915 224.817C119.584 224.817 122.561 224.856 122.561 224.895Z" fill="#E0E0E0"/>
<path d="M122.351 226.583C122.351 226.627 119.536 226.662 116.061 226.662C112.587 226.662 109.771 226.627 109.771 226.583C109.771 226.54 112.587 226.505 116.061 226.505C119.536 226.505 122.351 226.54 122.351 226.583Z" fill="#E0E0E0"/>
<path d="M122.561 228.125C122.561 228.169 120.028 228.204 116.905 228.204C113.782 228.204 111.249 228.169 111.249 228.125C111.249 228.082 113.782 228.047 116.905 228.047C120.028 228.047 122.561 228.082 122.561 228.125Z" fill="#E0E0E0"/>
<path d="M122.561 223.382C122.561 223.426 119.633 223.46 116.051 223.46C112.469 223.46 109.541 223.426 109.541 223.382C109.541 223.338 112.469 223.304 116.051 223.304C119.633 223.304 122.561 223.338 122.561 223.382Z" fill="#E0E0E0"/>
<path d="M122.351 221.869C122.351 221.913 119.755 221.947 116.559 221.947C113.362 221.947 110.761 221.913 110.761 221.869C110.761 221.825 113.357 221.791 116.559 221.791C119.76 221.791 122.351 221.825 122.351 221.869Z" fill="#E0E0E0"/>
<path d="M81.0373 220.532C80.7025 220.869 80.3956 221.233 80.1199 221.62C79.4655 222.565 79.121 223.689 79.1341 224.838C79.1472 225.987 79.5173 227.104 80.1931 228.033C80.4802 228.412 80.795 228.769 81.1349 229.102C81.0241 229.037 80.921 228.96 80.8275 228.872C80.5602 228.641 80.3181 228.383 80.1052 228.101C79.3874 227.164 78.9923 226.019 78.9791 224.839C78.9659 223.658 79.3353 222.505 80.0321 221.552C80.237 221.265 80.4726 221.002 80.7348 220.766C80.8249 220.675 80.9267 220.597 81.0373 220.532Z" fill="#F5F5F5"/>
<path d="M79.5782 220.371C79.2476 220.714 78.941 221.079 78.6607 221.464C78.0088 222.409 77.6662 223.533 77.6802 224.68C77.6942 225.828 78.0641 226.943 78.7388 227.872C79.0242 228.252 79.3391 228.609 79.6806 228.94C79.5668 228.878 79.4618 228.801 79.3683 228.711C79.1011 228.48 78.859 228.222 78.6461 227.94C77.9283 227.005 77.5328 225.862 77.5187 224.683C77.5046 223.505 77.8728 222.353 78.568 221.401C78.7731 221.113 79.0087 220.848 79.2707 220.61C79.3633 220.519 79.4665 220.438 79.5782 220.371Z" fill="#F5F5F5"/>
<path d="M108.868 220.532C108.537 220.872 108.232 221.236 107.955 221.62C107.301 222.565 106.956 223.689 106.97 224.838C106.983 225.987 107.353 227.104 108.029 228.033C108.316 228.412 108.63 228.769 108.97 229.102C108.857 229.038 108.753 228.961 108.658 228.872C108.393 228.641 108.152 228.383 107.941 228.101C107.22 227.166 106.821 226.023 106.805 224.842C106.788 223.662 107.154 222.507 107.848 221.552C108.051 221.264 108.287 221.001 108.551 220.766C108.647 220.677 108.754 220.598 108.868 220.532Z" fill="#F5F5F5"/>
<path d="M107.414 220.371C107.08 220.711 106.773 221.076 106.496 221.464C105.841 222.408 105.497 223.531 105.51 224.68C105.523 225.828 105.893 226.943 106.569 227.872C106.856 228.251 107.171 228.608 107.511 228.94C107.4 228.876 107.297 228.799 107.204 228.711C106.935 228.481 106.693 228.223 106.482 227.94C105.764 227.005 105.368 225.862 105.354 224.683C105.34 223.505 105.708 222.353 106.403 221.401C106.609 221.113 106.844 220.848 107.106 220.61C107.198 220.517 107.301 220.437 107.414 220.371Z" fill="#F5F5F5"/>
<path d="M85.9417 225.944L85.8978 222.899C85.9132 222.634 85.8785 222.369 85.7953 222.118C85.751 221.992 85.6737 221.881 85.5716 221.795C85.4694 221.709 85.3462 221.652 85.2146 221.63C84.834 221.459 84.2386 221.776 83.9751 222.216C83.7416 222.677 83.6386 223.193 83.6774 223.709C83.6676 224.511 83.7067 225.313 83.7945 226.11C83.811 226.493 83.9074 226.869 84.0776 227.213C84.1535 227.391 84.2836 227.54 84.4495 227.64C84.6153 227.739 84.8084 227.784 85.0011 227.767C85.1937 227.75 85.3762 227.673 85.5223 227.546C85.6685 227.419 85.7709 227.25 85.8149 227.061C85.928 226.7 85.9711 226.321 85.9417 225.944Z" fill="#F5F5F5"/>
<path d="M102.685 225.041C102.685 225.085 99.5665 225.124 95.726 225.124C91.8854 225.124 88.7622 225.085 88.7622 225.041C88.7622 224.997 91.8805 224.963 95.726 224.963C99.5714 224.963 102.685 224.997 102.685 225.041Z" fill="#F5F5F5"/>
<path d="M83.0527 220.234L82.9746 213.144H86.8347L86.9665 220.234H83.0527Z" fill="#F5F5F5"/>
<path d="M86.6054 214.403C86.0104 214.484 85.4094 214.512 84.8095 214.486C84.2112 214.512 83.6118 214.485 83.0186 214.403C83.6121 214.325 84.2114 214.299 84.8095 214.325C85.4093 214.299 86.0102 214.325 86.6054 214.403Z" fill="#E0E0E0"/>
<path d="M86.6054 215.501C86.0102 215.579 85.4093 215.605 84.8095 215.579C84.2114 215.605 83.6121 215.579 83.0186 215.501C83.6121 215.423 84.2114 215.396 84.8095 215.423C85.4093 215.396 86.0102 215.423 86.6054 215.501Z" fill="#E0E0E0"/>
<path d="M86.6054 216.594C86.0102 216.672 85.4093 216.698 84.8095 216.672C84.2114 216.698 83.6121 216.672 83.0186 216.594C83.6121 216.516 84.2114 216.489 84.8095 216.516C85.4093 216.489 86.0102 216.516 86.6054 216.594Z" fill="#E0E0E0"/>
<path d="M86.6054 217.687C86.0102 217.765 85.4093 217.791 84.8095 217.765C84.2114 217.792 83.6121 217.765 83.0186 217.687C83.6121 217.609 84.2114 217.583 84.8095 217.609C85.4093 217.583 86.0102 217.609 86.6054 217.687Z" fill="#E0E0E0"/>
<path d="M86.6054 218.78C86.0104 218.862 85.4094 218.89 84.8095 218.863C84.2112 218.89 83.6118 218.862 83.0186 218.78C83.6124 218.705 84.2114 218.679 84.8095 218.702C85.4093 218.679 86.0099 218.705 86.6054 218.78Z" fill="#E0E0E0"/>
<path d="M82.7695 212.954H125.548C126.039 215.486 126.039 218.088 125.548 220.62H82.9599V220.088H85.5658C85.727 220.088 85.8867 220.056 86.0356 219.994C86.1846 219.933 86.3198 219.842 86.4336 219.728C86.5474 219.613 86.6376 219.478 86.6988 219.329C86.7601 219.179 86.7913 219.02 86.7907 218.858V214.618C86.7913 214.456 86.7601 214.297 86.6988 214.147C86.6376 213.998 86.5474 213.863 86.4336 213.748C86.3198 213.634 86.1846 213.543 86.0356 213.482C85.8867 213.42 85.727 213.388 85.5658 213.388H82.7793L82.7695 212.954Z" fill="#EBEBEB"/>
<path d="M92.881 216.794H93.5934C93.619 216.787 93.646 216.787 93.6715 216.794C93.6958 216.806 93.7161 216.825 93.7299 216.848C93.7438 216.872 93.7506 216.899 93.7496 216.926C93.7523 216.942 93.7523 216.958 93.7496 216.975C93.7496 217.033 93.7203 217.092 93.7008 217.155C93.6154 217.455 93.4617 217.73 93.2518 217.96C93.1787 218.053 93.087 218.128 92.9828 218.183C92.8786 218.238 92.7641 218.27 92.6467 218.278H92.5589C92.4566 218.259 92.3598 218.217 92.2754 218.157C92.191 218.096 92.1212 218.017 92.0709 217.926C91.9222 217.665 91.8495 217.368 91.8611 217.067C91.8624 216.86 91.8903 216.653 91.944 216.452C92.0222 216.149 92.1673 215.868 92.3686 215.628C92.4441 215.527 92.541 215.444 92.6524 215.385C92.7637 215.326 92.8868 215.292 93.0127 215.286C93.1054 215.286 93.197 215.306 93.2811 215.345C93.4835 215.458 93.634 215.645 93.7008 215.867C93.7054 215.891 93.7054 215.916 93.7008 215.94C93.7075 215.964 93.7075 215.989 93.7008 216.013C93.6878 216.037 93.6687 216.056 93.6455 216.07C93.6224 216.084 93.596 216.091 93.5691 216.091C93.5532 216.097 93.5361 216.097 93.5203 216.091C93.4976 216.085 93.4768 216.074 93.4597 216.057C93.4427 216.041 93.4299 216.021 93.4227 215.999C93.4013 215.938 93.3717 215.88 93.3348 215.828C93.2994 215.768 93.2495 215.719 93.1898 215.684C93.13 215.649 93.0624 215.63 92.9932 215.628C92.908 215.628 92.8256 215.658 92.759 215.711C92.5798 215.858 92.4447 216.053 92.3686 216.272C92.2608 216.527 92.2045 216.8 92.2027 217.077C92.1956 217.295 92.2373 217.512 92.3247 217.711C92.3512 217.79 92.4008 217.858 92.467 217.908C92.5332 217.958 92.6129 217.986 92.6955 217.99C92.7649 217.982 92.8318 217.959 92.8916 217.922C92.9514 217.886 93.0027 217.838 93.042 217.78C93.2056 217.586 93.33 217.362 93.408 217.121C93.0811 217.121 92.92 217.121 92.8956 217.121C92.8503 217.121 92.8069 217.103 92.7748 217.071C92.7428 217.039 92.7248 216.996 92.7248 216.95V216.897C92.7381 216.866 92.7599 216.84 92.7876 216.822C92.8154 216.804 92.8478 216.794 92.881 216.794Z" fill="#FAFAFA"/>
<path d="M95.3113 215.398C95.3113 215.398 95.3113 215.433 95.3113 215.452C95.3406 215.553 95.5033 216.436 95.7993 218.102C95.8017 218.115 95.8017 218.128 95.7993 218.141C95.8059 218.167 95.8059 218.193 95.7993 218.219C95.788 218.243 95.77 218.263 95.7475 218.277C95.7249 218.291 95.6989 218.298 95.6724 218.297H95.648C95.6203 218.292 95.5944 218.28 95.5737 218.261C95.5529 218.242 95.538 218.217 95.5309 218.19L95.3601 217.306H94.4817L94.0572 218.195C94.0605 218.204 94.0605 218.214 94.0572 218.224C94.0425 218.246 94.023 218.264 94.0001 218.276C93.9772 218.289 93.9516 218.296 93.9254 218.297C93.8961 218.296 93.8675 218.288 93.8424 218.273C93.8213 218.258 93.8041 218.238 93.7922 218.215C93.7803 218.192 93.7741 218.167 93.7741 218.141C93.7696 218.127 93.7696 218.111 93.7741 218.097C93.7985 218.034 93.8424 217.941 93.9059 217.809C94.5208 216.462 94.8819 215.672 95.0088 215.428C95.0206 215.398 95.0406 215.372 95.0665 215.353C95.0924 215.334 95.1231 215.323 95.1552 215.32C95.1857 215.319 95.2162 215.325 95.2436 215.339C95.271 215.352 95.2944 215.373 95.3113 215.398ZM95.121 215.994L94.633 216.994H95.3064L95.121 215.994Z" fill="#FAFAFA"/>
<path d="M97.6976 218.297H96.4093C96.38 218.296 96.3514 218.288 96.3264 218.273C96.3041 218.252 96.2862 218.227 96.2736 218.199C96.2611 218.172 96.2541 218.142 96.2532 218.112C96.2532 218.063 96.3703 217.179 96.6094 215.476C96.607 215.457 96.607 215.437 96.6094 215.418C96.6199 215.389 96.6393 215.365 96.6648 215.348C96.6903 215.331 96.7205 215.323 96.7509 215.325C96.7734 215.32 96.7968 215.32 96.8192 215.325C96.8448 215.337 96.8663 215.357 96.881 215.381C96.8958 215.405 96.9031 215.433 96.9022 215.462L96.8192 216.184C96.6728 217.313 96.5948 217.908 96.585 217.97H97.683C97.7104 217.965 97.7385 217.965 97.766 217.97C97.7955 217.981 97.8207 218.001 97.8382 218.028C97.8557 218.054 97.8646 218.085 97.8636 218.116C97.8658 218.133 97.8658 218.149 97.8636 218.165C97.854 218.202 97.8327 218.235 97.8027 218.259C97.7728 218.283 97.7359 218.296 97.6976 218.297Z" fill="#FAFAFA"/>
<path d="M99.4593 215.398C99.4593 215.398 99.4593 215.433 99.4593 215.452C99.4886 215.555 99.6594 216.428 99.9473 218.102C99.9495 218.115 99.9495 218.128 99.9473 218.141C99.9461 218.169 99.9377 218.196 99.9229 218.219C99.9116 218.243 99.8936 218.263 99.8711 218.277C99.8486 218.291 99.8225 218.298 99.7961 218.297H99.7717C99.7443 218.291 99.719 218.278 99.6984 218.259C99.6778 218.241 99.6627 218.216 99.6545 218.19L99.5521 217.306H98.6737L98.2491 218.195C98.2512 218.204 98.2512 218.214 98.2491 218.224C98.233 218.245 98.2124 218.263 98.1888 218.275C98.1652 218.288 98.1392 218.295 98.1125 218.297C98.0832 218.296 98.0548 218.287 98.0295 218.273C98.0084 218.258 97.9911 218.238 97.9793 218.215C97.9674 218.192 97.9612 218.167 97.9612 218.141C97.9589 218.126 97.9589 218.112 97.9612 218.097C97.9856 218.034 98.0295 217.941 98.0929 217.809C98.7078 216.462 99.0689 215.672 99.1958 215.428C99.2077 215.398 99.2277 215.372 99.2536 215.353C99.2795 215.334 99.3102 215.323 99.3422 215.32C99.3661 215.325 99.3888 215.334 99.4089 215.347C99.4291 215.361 99.4463 215.378 99.4593 215.398ZM99.269 215.994L98.781 216.994H99.4545L99.269 215.994Z" fill="#FAFAFA"/>
<path d="M101.504 216.921L101.738 217.565C101.87 217.936 101.938 218.126 101.938 218.146C101.946 218.171 101.946 218.198 101.938 218.224C101.924 218.246 101.905 218.265 101.882 218.277C101.859 218.29 101.833 218.297 101.806 218.297C101.748 218.297 101.709 218.263 101.68 218.195C101.65 218.126 101.68 218.146 101.655 218.126C101.587 217.965 101.47 217.638 101.309 217.219L100.582 218.195C100.567 218.218 100.547 218.238 100.523 218.253C100.499 218.267 100.473 218.276 100.445 218.278C100.419 218.283 100.393 218.283 100.367 218.278C100.343 218.265 100.324 218.246 100.311 218.222C100.298 218.199 100.292 218.172 100.294 218.146V218.136C100.31 218.089 100.337 218.046 100.372 218.009C100.616 217.692 100.86 217.316 101.182 216.882C101.153 216.794 101.123 216.716 101.094 216.638C100.821 215.901 100.679 215.52 100.679 215.496C100.675 215.47 100.675 215.444 100.679 215.418C100.691 215.395 100.71 215.375 100.732 215.362C100.754 215.348 100.78 215.34 100.806 215.34C100.835 215.34 100.864 215.349 100.889 215.364C100.914 215.38 100.934 215.402 100.948 215.428L101.382 216.589L102.241 215.418C102.256 215.395 102.276 215.377 102.3 215.364C102.324 215.351 102.35 215.344 102.377 215.345C102.4 215.34 102.423 215.34 102.446 215.345C102.471 215.357 102.492 215.377 102.506 215.401C102.519 215.426 102.526 215.453 102.524 215.481C102.53 215.505 102.53 215.531 102.524 215.555L101.504 216.921Z" fill="#FAFAFA"/>
<path d="M104.705 215.33C104.728 215.325 104.751 215.325 104.774 215.33C104.799 215.341 104.82 215.36 104.835 215.383C104.85 215.407 104.857 215.434 104.856 215.462C104.647 217.131 104.53 218.029 104.51 218.165C104.473 218.418 104.378 218.659 104.232 218.868C104.093 219.064 103.888 219.203 103.655 219.26C103.423 219.317 103.177 219.289 102.963 219.18C102.771 219.101 102.611 218.961 102.509 218.78C102.505 218.756 102.505 218.731 102.509 218.707C102.502 218.681 102.502 218.654 102.509 218.629C102.521 218.605 102.54 218.584 102.564 218.571C102.587 218.557 102.614 218.55 102.641 218.551C102.664 218.552 102.686 218.559 102.706 218.57C102.727 218.581 102.744 218.596 102.758 218.614C102.83 218.725 102.927 218.817 103.042 218.882C103.156 218.948 103.285 218.985 103.417 218.99C103.512 218.985 103.605 218.96 103.69 218.915C103.774 218.871 103.848 218.808 103.905 218.731C104.081 218.497 104.179 218.214 104.188 217.921C104.139 218 104.074 218.069 103.998 218.121C103.866 218.221 103.704 218.274 103.539 218.273H103.451C103.349 218.255 103.251 218.214 103.167 218.153C103.082 218.092 103.013 218.013 102.963 217.921C102.811 217.662 102.736 217.363 102.748 217.062C102.748 216.906 102.748 216.745 102.748 216.574C102.771 216.311 102.83 215.94 102.924 215.462C102.92 215.447 102.92 215.432 102.924 215.418C102.932 215.387 102.949 215.36 102.974 215.341C102.999 215.321 103.029 215.311 103.061 215.311C103.087 215.312 103.112 215.32 103.134 215.335C103.157 215.345 103.177 215.363 103.191 215.384C103.205 215.406 103.212 215.431 103.212 215.457C103.198 215.653 103.174 215.849 103.139 216.043C103.088 216.341 103.056 216.643 103.041 216.945C103.032 217.183 103.07 217.42 103.153 217.643C103.241 217.853 103.368 217.955 103.534 217.955H103.588C103.75 217.904 103.887 217.795 103.973 217.648C104.127 217.435 104.235 217.193 104.29 216.936L104.486 215.472C104.483 215.451 104.483 215.429 104.486 215.408C104.492 215.386 104.503 215.366 104.518 215.349C104.534 215.332 104.553 215.319 104.575 215.311C104.597 215.304 104.62 215.301 104.642 215.305C104.665 215.308 104.687 215.317 104.705 215.33Z" fill="#FAFAFA"/>
<path d="M123.952 220.718C123.908 220.718 123.869 218.961 123.869 216.789C123.869 214.618 123.908 212.856 123.952 212.856C123.996 212.856 124.03 214.618 124.03 216.789C124.03 218.961 123.986 220.718 123.952 220.718Z" fill="#F5F5F5"/>
<path d="M88.9331 220.718C88.8891 220.718 88.855 218.961 88.855 216.789C88.855 214.618 88.8891 212.856 88.9331 212.856C88.977 212.856 89.0111 214.618 89.0111 216.789C89.0111 218.961 88.977 220.718 88.9331 220.718Z" fill="#E0E0E0"/>
<path d="M124.689 220.718C124.65 220.718 124.611 218.961 124.611 216.789C124.611 214.618 124.65 212.856 124.689 212.856C124.728 212.856 124.772 214.618 124.772 216.789C124.772 218.961 124.733 220.718 124.689 220.718Z" fill="#F5F5F5"/>
<path d="M88.2353 220.718C88.1914 220.718 88.1523 218.961 88.1523 216.789C88.1523 214.618 88.1914 212.856 88.2353 212.856C88.2792 212.856 88.3134 214.618 88.3134 216.789C88.3134 218.961 88.2743 220.718 88.2353 220.718Z" fill="#E0E0E0"/>
<path d="M113.567 214.149L118.086 217.795L118.125 217.829H118.076L117.476 217.99L113.66 218.99L110.2 217.526L109.224 217.106L108.966 216.994L108.902 216.965H108.878H108.902L108.97 216.994L109.229 217.097L110.205 217.507L113.67 218.971L117.486 217.965L118.091 217.804V217.848L113.577 214.193" fill="#E0E0E0"/>
<path d="M117.671 217.219L117.92 217.448L118.252 217.38L118.106 217.682L118.277 217.975L117.94 217.936L117.715 218.185L117.652 217.853L117.344 217.716L117.637 217.555L117.671 217.219Z" fill="#E0E0E0"/>
<path d="M113.338 218.653L113.504 218.795L113.719 218.736L113.636 218.941L113.758 219.122L113.538 219.107L113.401 219.278L113.348 219.068L113.143 218.99L113.328 218.873L113.338 218.653Z" fill="#E0E0E0"/>
<path d="M108.546 216.692L108.814 216.706L108.98 216.496L109.049 216.755L109.302 216.848L109.073 216.989L109.063 217.262L108.853 217.092L108.6 217.165L108.697 216.911L108.546 216.692Z" fill="#E0E0E0"/>
<path d="M119.701 214.208L119.97 214.227L120.136 214.012L120.204 214.276L120.453 214.369L120.228 214.51L120.219 214.779L120.009 214.608L119.75 214.681L119.853 214.432L119.701 214.208Z" fill="#E0E0E0"/>
<path d="M113.348 214.032L113.518 214.042L113.626 213.91L113.67 214.076L113.831 214.134L113.684 214.227L113.679 214.398L113.548 214.286L113.382 214.334L113.445 214.173L113.348 214.032Z" fill="#E0E0E0"/>
<path d="M120.077 214.398C120.077 214.398 118.613 214.364 116.813 214.291C115.012 214.217 113.548 214.134 113.548 214.115C113.548 214.095 115.012 214.149 116.813 214.227C118.613 214.305 120.077 214.378 120.077 214.398Z" fill="#E0E0E0"/>
<path d="M121.722 212.89H78.3338C77.7678 211.602 77.6262 210.377 78.3338 209.279H121.722C121.991 209.843 122.131 210.46 122.131 211.084C122.131 211.709 121.991 212.326 121.722 212.89Z" fill="#E0E0E0"/>
<path d="M110.825 210.309H87.3179V211.621H110.825V210.309Z" fill="#EBEBEB"/>
<path d="M79.9979 212.91C79.8546 212.789 79.7382 212.639 79.6563 212.47C79.4351 212.076 79.3003 211.64 79.2608 211.19C79.2212 210.74 79.2779 210.286 79.4269 209.86C79.4753 209.679 79.5656 209.511 79.6904 209.372C79.6477 209.55 79.5956 209.726 79.5343 209.899C79.4208 210.316 79.3812 210.751 79.4172 211.182C79.4597 211.613 79.5734 212.033 79.7539 212.426C79.8495 212.58 79.9312 212.742 79.9979 212.91Z" fill="#E0E0E0"/>
<path d="M80.9397 212.91C80.7932 212.792 80.6762 212.641 80.5981 212.47C80.3741 212.078 80.2376 211.642 80.198 211.192C80.1595 210.741 80.2161 210.287 80.3639 209.86C80.4169 209.68 80.5067 209.514 80.6274 209.372C80.5876 209.551 80.5354 209.727 80.4713 209.899C80.3597 210.317 80.3217 210.751 80.359 211.182C80.3968 211.614 80.5108 212.035 80.6957 212.426C80.7866 212.583 80.8681 212.744 80.9397 212.91Z" fill="#E0E0E0"/>
<path d="M119.965 212.822C120.138 212.249 120.242 211.658 120.273 211.06C120.247 210.46 120.15 209.866 119.985 209.289C120.303 209.823 120.458 210.439 120.429 211.06C120.454 211.68 120.292 212.294 119.965 212.822Z" fill="#F5F5F5"/>
<path d="M119.16 212.817C119.111 212.817 119.291 212.041 119.287 211.084C119.282 210.128 119.106 209.367 119.155 209.357C119.542 210.478 119.542 211.696 119.155 212.817H119.16Z" fill="#F5F5F5"/>
<path d="M146.522 196.059L85.5561 196.02C83.813 196.019 82.087 195.675 80.4769 195.008C78.8667 194.34 77.4038 193.362 76.1717 192.129C74.9395 190.896 73.9623 189.432 73.2959 187.821C72.6294 186.211 72.2867 184.485 72.2874 182.741L72.3166 29.9047C72.3173 28.1603 72.6615 26.4331 73.3296 24.8218C73.9978 23.2104 74.9768 21.7464 76.2107 20.5134C77.4446 19.2804 78.9093 18.3024 80.5212 17.6355C82.133 16.9685 83.8605 16.6256 85.6049 16.6262L146.566 16.6653C150.086 16.6678 153.462 18.0678 155.951 20.5576C158.439 23.0474 159.838 26.4233 159.839 29.9437L159.805 182.78C159.805 184.525 159.462 186.252 158.794 187.863C158.126 189.474 157.148 190.938 155.914 192.171C154.681 193.405 153.216 194.383 151.605 195.05C149.993 195.717 148.266 196.06 146.522 196.059Z" fill="#263238"/>
<path d="M146.366 22.1162H134.546C134.161 22.1238 133.78 22.2076 133.427 22.3627C133.074 22.5179 132.754 22.7413 132.488 23.0202C132.221 23.2991 132.012 23.628 131.873 23.9879C131.734 24.3478 131.667 24.7317 131.677 25.1174V27.2597C131.686 27.6455 131.619 28.0292 131.479 28.3889C131.339 28.7485 131.13 29.077 130.863 29.3555C130.596 29.6339 130.276 29.8568 129.923 30.0114C129.569 30.1659 129.189 30.2491 128.803 30.2561H105.764C105.378 30.2485 104.998 30.1647 104.645 30.0095C104.291 29.8544 103.972 29.631 103.706 29.3521C103.439 29.0731 103.23 28.7443 103.091 28.3844C102.952 28.0245 102.885 27.6406 102.895 27.2549V25.1077C102.907 24.7215 102.843 24.3367 102.706 23.9755C102.569 23.6143 102.362 23.2837 102.096 23.0029C101.831 22.7221 101.513 22.4966 101.16 22.3394C100.807 22.1822 100.426 22.0964 100.04 22.0869H95.8822H85.5415C84.3192 22.0844 83.1084 22.3227 81.9783 22.7884C80.8482 23.2541 79.821 23.9379 78.9554 24.8009C78.0897 25.6638 77.4026 26.6889 76.9334 27.8175C76.4642 28.9461 76.222 30.1562 76.2207 31.3785L76.1915 180.56C76.1876 181.78 76.4246 182.989 76.8888 184.117C77.3531 185.246 78.0354 186.271 78.8968 187.135C79.7581 187.999 80.7816 188.685 81.9084 189.153C83.0353 189.621 84.2434 189.861 85.4635 189.861L146.307 189.896C147.529 189.896 148.738 189.656 149.867 189.189C150.996 188.723 152.022 188.038 152.886 187.175C153.75 186.311 154.436 185.286 154.904 184.158C155.372 183.03 155.613 181.821 155.613 180.599L155.672 31.4175C155.672 30.1956 155.431 28.9857 154.964 27.8569C154.496 26.7281 153.81 25.7025 152.946 24.8388C152.082 23.975 151.056 23.29 149.927 22.8228C148.798 22.3557 147.588 22.1156 146.366 22.1162Z" fill="white"/>
<path d="M156.34 45.8183C156.34 45.8866 138.377 45.9452 116.227 45.9452C94.0766 45.9452 76.1279 45.872 76.1279 45.8183C76.1279 45.7646 94.0863 45.6914 116.251 45.6914C138.416 45.6914 156.34 45.7451 156.34 45.8183Z" fill="#263238"/>
<path d="M84.4971 40.2894C84.4381 40.29 84.3809 40.2692 84.336 40.2308L82.018 38.1959C81.9906 38.1736 81.9688 38.1453 81.9544 38.1131C81.94 38.0808 81.9334 38.0457 81.9351 38.0104C81.9347 37.9749 81.9424 37.9397 81.9576 37.9076C81.9728 37.8754 81.9952 37.8472 82.0229 37.825L84.3409 35.873C84.3909 35.8325 84.4548 35.8134 84.5188 35.8198C84.5827 35.8262 84.6416 35.8576 84.6825 35.9071C84.7032 35.9316 84.7187 35.96 84.7282 35.9905C84.7377 36.0211 84.7409 36.0533 84.7377 36.0852C84.7345 36.117 84.725 36.1479 84.7096 36.176C84.6943 36.2041 84.6735 36.2288 84.6484 36.2487L82.5548 37.9958L84.6532 39.8404C84.6776 39.861 84.6976 39.8863 84.7121 39.9147C84.7266 39.9432 84.7352 39.9742 84.7375 40.0061C84.7398 40.0379 84.7356 40.0699 84.7254 40.1001C84.7151 40.1303 84.6989 40.1582 84.6776 40.182C84.658 40.2127 84.6314 40.2384 84.6001 40.2571C84.5687 40.2757 84.5335 40.2868 84.4971 40.2894Z" fill="#263238"/>
<path d="M135.078 37.8786C135.078 37.9518 127.529 38.0055 118.213 38.0055C108.897 38.0055 101.348 37.9518 101.348 37.8786C101.348 37.8054 108.897 37.7517 118.213 37.7517C127.529 37.7517 135.078 37.8103 135.078 37.8786Z" fill="#263238"/>
<path d="M144.848 37.864C144.848 38.0377 144.797 38.2076 144.7 38.352C144.604 38.4965 144.466 38.609 144.306 38.6755C144.145 38.742 143.969 38.7594 143.798 38.7255C143.628 38.6916 143.471 38.608 143.349 38.4851C143.226 38.3623 143.142 38.2058 143.108 38.0354C143.074 37.865 143.092 37.6884 143.158 37.5278C143.225 37.3673 143.337 37.2302 143.482 37.1336C143.626 37.0371 143.796 36.9856 143.97 36.9856C144.203 36.9856 144.426 37.0781 144.591 37.2429C144.756 37.4076 144.848 37.631 144.848 37.864Z" fill="#263238"/>
<path d="M147.376 37.864C147.376 38.0379 147.324 38.208 147.228 38.3525C147.131 38.4971 146.993 38.6097 146.833 38.676C146.672 38.7423 146.495 38.7594 146.324 38.7252C146.154 38.6909 145.997 38.6067 145.875 38.4834C145.752 38.3601 145.669 38.2031 145.635 38.0324C145.602 37.8617 145.62 37.6849 145.687 37.5245C145.755 37.364 145.868 37.2272 146.013 37.1313C146.158 37.0353 146.328 36.9846 146.502 36.9856C146.618 36.9856 146.732 37.0084 146.838 37.0526C146.944 37.0968 147.041 37.1615 147.122 37.2432C147.203 37.3248 147.267 37.4217 147.311 37.5282C147.354 37.6348 147.377 37.7489 147.376 37.864Z" fill="#263238"/>
<path d="M149.909 37.864C149.909 38.0377 149.857 38.2076 149.761 38.352C149.664 38.4965 149.527 38.609 149.366 38.6755C149.206 38.742 149.029 38.7594 148.859 38.7255C148.689 38.6916 148.532 38.608 148.409 38.4851C148.286 38.3623 148.203 38.2058 148.169 38.0354C148.135 37.865 148.152 37.6884 148.219 37.5278C148.285 37.3673 148.398 37.2302 148.542 37.1336C148.687 37.0371 148.857 36.9856 149.03 36.9856C149.263 36.9856 149.487 37.0781 149.651 37.2429C149.816 37.4076 149.909 37.631 149.909 37.864Z" fill="#263238"/>
<path d="M108.614 78.5923C108.614 79.1584 108.38 79.5 107.989 79.5C107.897 79.5089 107.805 79.4849 107.729 79.4321C107.653 79.3794 107.599 79.3014 107.575 79.2121C107.509 79.3069 107.421 79.3831 107.317 79.4336C107.214 79.484 107.099 79.5069 106.984 79.5C106.775 79.484 106.579 79.3893 106.436 79.2351C106.293 79.0808 106.213 78.8783 106.213 78.668C106.213 78.4577 106.293 78.2552 106.436 78.1009C106.579 77.9466 106.775 77.852 106.984 77.8359C107.087 77.8305 107.19 77.8489 107.285 77.8895C107.379 77.9301 107.464 77.9919 107.531 78.0702V77.8555H107.892V78.9681C107.892 79.134 107.97 79.1926 108.063 79.1926C108.238 79.1926 108.336 78.9827 108.336 78.5972C108.339 78.4357 108.307 78.2755 108.244 78.1269C108.181 77.9783 108.087 77.8446 107.969 77.7346C107.85 77.6247 107.71 77.5408 107.558 77.4884C107.405 77.4361 107.243 77.4165 107.082 77.4309C106.912 77.4157 106.742 77.436 106.581 77.4904C106.419 77.5448 106.271 77.6322 106.146 77.747C106.02 77.8618 105.92 78.0014 105.852 78.157C105.783 78.3126 105.748 78.4808 105.748 78.6509C105.748 78.821 105.783 78.9892 105.852 79.1448C105.92 79.3004 106.02 79.44 106.146 79.5548C106.271 79.6696 106.419 79.757 106.581 79.8114C106.742 79.8658 106.912 79.8861 107.082 79.8709C107.302 79.8719 107.519 79.8218 107.716 79.7245L107.804 79.988C107.578 80.0919 107.331 80.1436 107.082 80.1393C106.879 80.1509 106.676 80.121 106.485 80.0513C106.294 79.9816 106.119 79.8737 105.971 79.7341C105.823 79.5945 105.706 79.4263 105.625 79.2396C105.545 79.0529 105.503 78.8517 105.503 78.6485C105.503 78.4452 105.545 78.244 105.625 78.0573C105.706 77.8707 105.823 77.7024 105.971 77.5628C106.119 77.4232 106.294 77.3153 106.485 77.2456C106.676 77.1759 106.879 77.146 107.082 77.1576C107.279 77.1427 107.476 77.1689 107.662 77.2344C107.849 77.3 108.019 77.4035 108.163 77.5383C108.307 77.6732 108.422 77.8366 108.499 78.018C108.577 78.1994 108.616 78.395 108.614 78.5923ZM107.536 78.6655C107.53 78.5705 107.497 78.4792 107.44 78.4029C107.383 78.3265 107.304 78.2686 107.215 78.2361C107.125 78.2036 107.028 78.198 106.936 78.22C106.843 78.242 106.759 78.2907 106.694 78.3599C106.628 78.4292 106.585 78.5161 106.568 78.6099C106.551 78.7037 106.563 78.8002 106.6 78.8877C106.638 78.9752 106.7 79.0497 106.78 79.1022C106.859 79.1546 106.952 79.1826 107.048 79.1828C107.114 79.1829 107.18 79.1694 107.241 79.1431C107.303 79.1167 107.358 79.0782 107.403 79.0297C107.449 78.9812 107.485 78.9239 107.507 78.8613C107.53 78.7987 107.54 78.732 107.536 78.6655Z" fill="#263238"/>
<path d="M127.056 79.4806C127.056 79.549 123.522 79.6075 119.17 79.6075C114.817 79.6075 111.288 79.549 111.288 79.4806C111.288 79.4123 114.817 79.3489 119.17 79.3489C123.522 79.3489 127.056 79.4074 127.056 79.4806Z" fill="#263238"/>
<path d="M95.8772 101.782C95.1582 101.951 94.4098 101.951 93.6909 101.782C94.4098 101.613 95.1582 101.613 95.8772 101.782Z" fill="#263238"/>
<path d="M101.016 107.072C101.016 107.141 98.3807 107.199 95.1258 107.199C91.8708 107.199 89.2405 107.141 89.2405 107.072C89.2405 107.004 91.8757 106.945 95.1258 106.945C98.3758 106.945 101.016 107.004 101.016 107.072Z" fill="#263238"/>
<path d="M119.56 101.782C118.449 101.911 117.33 101.953 116.212 101.909C115.095 101.953 113.975 101.911 112.865 101.782C113.976 101.657 115.095 101.614 116.212 101.655C117.33 101.614 118.449 101.657 119.56 101.782Z" fill="#263238"/>
<path d="M121.541 106.789C121.541 106.857 118.843 106.916 115.514 106.916C112.186 106.916 109.483 106.857 109.483 106.789C109.483 106.721 112.181 106.662 115.514 106.662C118.847 106.662 121.541 106.721 121.541 106.789Z" fill="#263238"/>
<path d="M141.422 101.855C139.921 101.981 138.414 102.023 136.908 101.982C135.402 102.023 133.895 101.981 132.394 101.855C133.895 101.727 135.402 101.684 136.908 101.729C138.414 101.684 139.921 101.727 141.422 101.855Z" fill="#263238"/>
<path d="M143.111 106.999C143.111 107.072 140.51 107.126 137.299 107.126C134.088 107.126 131.482 107.072 131.482 106.999C131.482 106.926 134.083 106.872 137.299 106.872C140.515 106.872 143.111 106.931 143.111 106.999Z" fill="#263238"/>
<path d="M126.25 112.006H93.1738C92.4866 112.006 91.9294 112.563 91.9294 113.25V120.985C91.9294 121.672 92.4866 122.229 93.1738 122.229H126.25C126.938 122.229 127.495 121.672 127.495 120.985V113.25C127.495 112.563 126.938 112.006 126.25 112.006Z" fill="#B2C136"/>
<path d="M120.77 117.291C120.77 117.359 116.193 117.418 110.547 117.418C104.9 117.418 100.299 117.359 100.299 117.291C100.299 117.223 104.876 117.164 110.547 117.164C116.217 117.164 120.77 117.218 120.77 117.291Z" fill="white"/>
<path d="M139.441 111.815H131.594C130.955 111.815 130.438 112.333 130.438 112.972V121.136C130.438 121.775 130.955 122.293 131.594 122.293H139.441C140.08 122.293 140.598 121.775 140.598 121.136V112.972C140.598 112.333 140.08 111.815 139.441 111.815Z" fill="#EBEBEB"/>
<path d="M134.419 116.52H136.611L135.61 118.057L134.419 116.52Z" fill="#263238"/>
<path d="M127.495 129.832C127.495 129.906 121.839 129.959 114.865 129.959C107.892 129.959 102.236 129.906 102.236 129.832C102.236 129.759 107.892 129.706 114.865 129.706C121.839 129.706 127.495 129.764 127.495 129.832Z" fill="#E0E0E0"/>
<path d="M134.844 134.59C134.844 134.659 126.548 134.717 116.3 134.717C106.052 134.717 97.7561 134.659 97.7561 134.59C97.7561 134.522 106.052 134.464 116.3 134.464C126.548 134.464 134.844 134.522 134.844 134.59Z" fill="#E0E0E0"/>
<path d="M156.16 142.838C156.16 142.911 138.372 142.969 116.427 142.969C94.4817 142.969 76.6941 142.911 76.6941 142.838C76.6941 142.764 94.4817 142.711 116.427 142.711C138.372 142.711 156.16 142.769 156.16 142.838Z" fill="#263238"/>
<path d="M117.218 152.095C117.092 150.599 117.05 149.097 117.091 147.596C117.049 146.096 117.092 144.596 117.218 143.101C117.346 144.596 117.389 146.096 117.344 147.596C117.388 149.097 117.346 150.599 117.218 152.095Z" fill="#263238"/>
<path d="M112.284 86.1418L110 91.383H109.024L106.735 86.1418H107.789L109.532 90.1825L111.293 86.1418H112.284Z" fill="#B2C136"/>
<path d="M116.193 89.6847H113.055C113.113 89.9789 113.277 90.2413 113.517 90.4214C113.757 90.6016 114.054 90.6868 114.353 90.6607C114.554 90.6689 114.754 90.6344 114.941 90.5596C115.128 90.4847 115.297 90.3712 115.436 90.2264L115.924 90.8022C115.72 91.0225 115.47 91.1949 115.192 91.3071C114.913 91.4193 114.614 91.4686 114.314 91.4513C112.977 91.4513 112.108 90.5924 112.108 89.4017C112.098 89.127 112.146 88.8532 112.247 88.5978C112.349 88.3424 112.503 88.1109 112.699 87.9181C112.895 87.7254 113.129 87.5755 113.386 87.478C113.643 87.3806 113.917 87.3377 114.192 87.3521C114.464 87.3421 114.735 87.389 114.987 87.4898C115.24 87.5906 115.468 87.7431 115.659 87.9374C115.849 88.1318 115.996 88.3637 116.092 88.6184C116.187 88.8731 116.228 89.1448 116.212 89.4163C116.207 89.4798 116.198 89.592 116.193 89.6847ZM113.05 89.0601H115.314C115.287 88.784 115.155 88.5289 114.945 88.3473C114.736 88.1657 114.464 88.0715 114.187 88.0841C113.909 88.0737 113.638 88.1684 113.427 88.3493C113.217 88.5303 113.082 88.7841 113.05 89.0601Z" fill="#B2C136"/>
<path d="M119.418 87.3522V88.2403C119.348 88.2258 119.276 88.2176 119.204 88.2159C119.042 88.2034 118.879 88.2275 118.727 88.2862C118.575 88.3449 118.439 88.4369 118.327 88.5553C118.216 88.6737 118.133 88.8156 118.083 88.9706C118.034 89.1255 118.02 89.2895 118.042 89.4506V91.4026H117.12V87.4058H118.013V87.9866C118.173 87.7693 118.387 87.5969 118.633 87.4858C118.879 87.3747 119.149 87.3287 119.418 87.3522Z" fill="#B2C136"/>
<path d="M120.087 86.1662C120.087 86.0893 120.104 86.0134 120.134 85.9429C120.165 85.8725 120.21 85.8091 120.266 85.7566C120.323 85.7041 120.389 85.6635 120.461 85.6375C120.534 85.6114 120.61 85.6004 120.687 85.605C120.762 85.599 120.837 85.6084 120.908 85.6325C120.979 85.6566 121.045 85.6949 121.1 85.7452C121.156 85.7954 121.201 85.8565 121.232 85.9247C121.264 85.9929 121.281 86.0668 121.283 86.1418C121.269 86.2911 121.2 86.4298 121.09 86.5309C120.979 86.632 120.835 86.688 120.685 86.688C120.535 86.688 120.39 86.632 120.28 86.5309C120.169 86.4298 120.1 86.2911 120.087 86.1418V86.1662ZM120.214 87.3862H121.151V91.383H120.214V87.3862Z" fill="#B2C136"/>
<path d="M123.952 85.7758C124.251 85.7627 124.546 85.8392 124.801 85.9954L124.538 86.6982C124.386 86.5919 124.205 86.5341 124.02 86.5322C123.63 86.5322 123.43 86.747 123.43 87.1764V87.4155H124.533V88.1622H123.464V91.383H122.488V88.1622H121.834V87.4155H122.488V87.1618C122.472 86.9689 122.5 86.7751 122.569 86.5944C122.638 86.4138 122.747 86.251 122.888 86.118C123.028 85.985 123.197 85.8852 123.381 85.826C123.565 85.7668 123.76 85.7497 123.952 85.7758ZM125.631 86.1662C125.631 86.0893 125.647 86.0134 125.678 85.9429C125.709 85.8725 125.754 85.8091 125.81 85.7566C125.866 85.7041 125.933 85.6635 126.005 85.6375C126.077 85.6114 126.154 85.6004 126.231 85.605C126.306 85.599 126.381 85.6084 126.452 85.6325C126.523 85.6566 126.588 85.6949 126.644 85.7452C126.7 85.7954 126.745 85.8565 126.776 85.9247C126.807 85.9929 126.824 86.0668 126.826 86.1418C126.813 86.2911 126.744 86.4298 126.633 86.5309C126.523 86.632 126.378 86.688 126.228 86.688C126.079 86.688 125.934 86.632 125.824 86.5309C125.713 86.4298 125.644 86.2911 125.631 86.1418V86.1662ZM125.758 87.3862H126.694V91.383H125.758V87.3862Z" fill="#B2C136"/>
<path d="M131.643 89.6848H128.51C128.567 89.9786 128.73 90.2409 128.969 90.4211C129.208 90.6014 129.505 90.6867 129.803 90.6608C130.004 90.6672 130.205 90.632 130.392 90.5573C130.58 90.4825 130.749 90.3699 130.891 90.2265L131.379 90.8023C131.176 91.0231 130.926 91.1959 130.647 91.3082C130.369 91.4204 130.069 91.4693 129.769 91.4514C128.432 91.4514 127.563 90.5925 127.563 89.4018C127.555 89.1297 127.604 88.8591 127.705 88.6065C127.807 88.354 127.959 88.125 128.152 87.9338C128.346 87.7425 128.577 87.593 128.83 87.4947C129.084 87.3963 129.355 87.3511 129.627 87.3619C129.899 87.3519 130.17 87.3989 130.422 87.4997C130.675 87.6004 130.904 87.7529 131.094 87.9472C131.284 88.1416 131.432 88.3735 131.527 88.6282C131.622 88.8829 131.663 89.1547 131.648 89.4262C131.657 89.4798 131.652 89.5921 131.643 89.6848ZM128.5 89.0602H130.784C130.755 88.7837 130.622 88.5285 130.412 88.347C130.201 88.1655 129.929 88.0715 129.652 88.0842C129.372 88.0711 129.098 88.1645 128.884 88.3456C128.67 88.5267 128.533 88.782 128.5 89.0602Z" fill="#B2C136"/>
<path d="M136.474 85.8296V91.383H135.576V90.8657C135.413 91.0536 135.209 91.202 134.98 91.3001C134.751 91.3981 134.503 91.4431 134.254 91.4318C133.711 91.4318 133.191 91.2164 132.808 90.8329C132.424 90.4495 132.209 89.9294 132.209 89.3871C132.209 88.8448 132.424 88.3247 132.808 87.9413C133.191 87.5578 133.711 87.3424 134.254 87.3424C134.494 87.3316 134.734 87.3742 134.956 87.467C135.177 87.5598 135.376 87.7006 135.537 87.8792V85.8296H136.474ZM135.552 89.3822C135.54 89.1496 135.461 88.9254 135.323 88.7374C135.186 88.5495 134.996 88.406 134.778 88.3248C134.559 88.2436 134.322 88.2282 134.095 88.2805C133.868 88.3329 133.661 88.4506 133.501 88.6193C133.34 88.7879 133.232 89 133.191 89.2292C133.149 89.4584 133.176 89.6948 133.268 89.909C133.359 90.1231 133.512 90.3058 133.706 90.4342C133.9 90.5626 134.128 90.6312 134.361 90.6315C134.523 90.6346 134.684 90.6039 134.834 90.5414C134.984 90.4789 135.119 90.386 135.231 90.2686C135.343 90.1511 135.429 90.0117 135.484 89.8591C135.54 89.7065 135.563 89.5441 135.552 89.3822Z" fill="#B2C136"/>
<path d="M99.3616 92.6957C101.628 92.6957 103.466 90.8582 103.466 88.5916C103.466 86.325 101.628 84.4875 99.3616 84.4875C97.095 84.4875 95.2576 86.325 95.2576 88.5916C95.2576 90.8582 97.095 92.6957 99.3616 92.6957Z" fill="#B2C136"/>
<path d="M97.5071 88.6698L98.0341 88.1427L99.054 89.0455L101.05 87.1228L101.538 87.6498L98.976 90.0606L97.5071 88.6698Z" fill="white"/>
<path d="M117.003 189.876H84.7948C82.491 189.868 80.2844 188.947 78.6595 187.313C77.0345 185.68 76.1241 183.469 76.1279 181.165V152.095H117.027L117.003 189.876Z" fill="#EBEBEB"/>
<path d="M146.707 189.954L116.632 189.876V152.095H155.76V180.921C155.71 183.304 154.739 185.576 153.052 187.26C151.364 188.944 149.091 189.909 146.707 189.954Z" fill="#455A64"/>
<path d="M156.16 152.095C156.16 152.163 138.372 152.222 116.432 152.222C94.4915 152.222 76.699 152.163 76.699 152.095C76.699 152.027 94.4817 151.968 116.432 151.968C138.382 151.968 156.16 152.027 156.16 152.095Z" fill="#263238"/>
<path d="M115.836 174.216C115.836 174.216 115.792 174.216 115.724 174.148L115.417 173.923L114.255 173.055L110.01 169.814C109.117 169.136 108.131 168.35 107.082 167.584C106.801 167.422 106.481 167.341 106.158 167.353C105.834 167.364 105.52 167.466 105.252 167.648C104.981 167.872 104.727 168.115 104.49 168.375L103.714 169.16L96.8824 176.061L96.4628 176.485L96.3847 176.563L96.2968 176.5L92.3538 173.572L90.4799 172.171C90.224 171.929 89.9015 171.768 89.5538 171.71C89.2061 171.652 88.8488 171.698 88.5279 171.844C88.2268 172.019 87.9537 172.238 87.7178 172.493L86.9468 173.211L85.4828 174.577L82.8476 177.017L79.0265 180.54L77.9773 181.487L77.704 181.731C77.6422 181.787 77.6081 181.811 77.6016 181.804C77.6251 181.77 77.653 181.739 77.6845 181.712L77.9432 181.453L78.9582 180.477L82.7256 176.895L85.3412 174.426L86.8052 173.055L87.5714 172.332L87.9618 171.966C88.1077 171.834 88.2721 171.724 88.4498 171.639C88.8058 171.467 89.2064 171.409 89.5966 171.473C89.7941 171.504 89.9853 171.567 90.1627 171.659C90.3359 171.751 90.4994 171.861 90.6507 171.986L92.5295 173.377L96.4774 176.305H96.3115L96.7312 175.875L103.563 168.99L104.344 168.209C104.59 167.939 104.856 167.688 105.139 167.457C105.444 167.255 105.798 167.143 106.163 167.133C106.528 167.122 106.889 167.214 107.204 167.399C108.287 168.204 109.234 168.975 110.132 169.668L114.328 172.972L115.465 173.879L115.753 174.123C115.785 174.151 115.813 174.182 115.836 174.216Z" fill="#263238"/>
<path d="M99.8739 161.528C99.8447 161.528 99.8739 161.216 99.7129 160.674C99.5027 159.916 99.0459 159.25 98.4148 158.781C97.9833 158.458 97.4816 158.243 96.9508 158.151C96.3473 158.044 95.7262 158.098 95.1501 158.307C94.5123 158.54 93.9584 158.958 93.5592 159.508C93.1283 160.094 92.8959 160.803 92.8959 161.531C92.8959 162.258 93.1283 162.967 93.5592 163.553C93.9421 164.073 94.4625 164.475 95.0617 164.715C95.661 164.955 96.3152 165.022 96.9508 164.91C97.4824 164.818 97.9844 164.601 98.4148 164.276C99.0459 163.806 99.5027 163.14 99.7129 162.382C99.8593 161.845 99.8447 161.528 99.8739 161.528C99.8814 161.604 99.8814 161.681 99.8739 161.757C99.8745 161.976 99.8499 162.194 99.8007 162.406C99.6193 163.205 99.1656 163.916 98.5173 164.417C98.0706 164.767 97.5471 165.006 96.9899 165.115C96.3128 165.246 95.6124 165.183 94.9699 164.932C94.3273 164.682 93.7688 164.254 93.3591 163.7C92.8936 163.072 92.6423 162.312 92.6423 161.531C92.6423 160.749 92.8936 159.989 93.3591 159.361C93.7887 158.776 94.3835 158.332 95.0671 158.088C95.6837 157.869 96.3473 157.819 96.9899 157.941C97.5464 158.052 98.0694 158.291 98.5173 158.639C99.1646 159.141 99.6182 159.851 99.8007 160.65C99.85 160.864 99.8745 161.084 99.8739 161.304C99.8813 161.378 99.8813 161.453 99.8739 161.528Z" fill="#263238"/>
<path d="M154.55 173.006C154.55 173.006 154.511 173.006 154.442 172.937L154.149 172.718L153.027 171.844L148.933 168.599C148.074 167.921 147.127 167.135 146.117 166.369C145.847 166.207 145.534 166.129 145.22 166.145C144.905 166.162 144.602 166.272 144.35 166.462C144.094 166.689 143.851 166.932 143.623 167.189L142.882 167.974L136.347 174.85L135.937 175.275L135.859 175.358L135.766 175.29L131.965 172.362L130.159 170.961C129.916 170.717 129.602 170.556 129.262 170.502C128.922 170.448 128.573 170.502 128.266 170.658C127.98 170.841 127.719 171.061 127.49 171.312L126.753 172.03L125.343 173.391L122.81 175.831L119.145 179.345L118.14 180.292L117.872 180.531C117.813 180.584 117.779 180.614 117.774 180.609C117.798 180.575 117.825 180.543 117.857 180.516C117.92 180.443 118.003 180.36 118.101 180.257L119.077 179.281L122.688 175.709L125.196 173.245C125.65 172.806 126.114 172.347 126.597 171.874L127.329 171.156L127.705 170.79C127.838 170.659 127.989 170.548 128.154 170.458C128.498 170.276 128.891 170.21 129.276 170.268C129.47 170.296 129.659 170.357 129.832 170.449C130.005 170.542 130.168 170.652 130.32 170.776L132.126 172.171L135.932 175.099H135.762L136.172 174.67L142.72 167.809L143.467 167.028C143.705 166.762 143.959 166.511 144.228 166.276C144.517 166.064 144.862 165.941 145.22 165.925C145.578 165.908 145.932 165.998 146.239 166.184C147.288 166.989 148.191 167.76 149.06 168.453L153.1 171.761L154.188 172.674L154.467 172.913L154.55 173.006Z" fill="#263238"/>
<path d="M137.957 160.44C137.933 160.44 137.957 160.128 137.801 159.591C137.594 158.832 137.136 158.165 136.503 157.697C136.138 157.425 135.723 157.227 135.281 157.116C134.84 157.004 134.38 156.982 133.93 157.049C133.479 157.116 133.047 157.272 132.657 157.507C132.267 157.742 131.927 158.052 131.657 158.42C131.226 159.006 130.994 159.715 130.994 160.442C130.994 161.17 131.226 161.879 131.657 162.465C132.056 163.014 132.61 163.43 133.248 163.661C133.788 163.86 134.369 163.92 134.938 163.834C135.507 163.749 136.046 163.522 136.503 163.173C137.135 162.704 137.592 162.038 137.801 161.279C137.868 160.997 137.92 160.712 137.957 160.425C137.97 160.501 137.97 160.579 137.957 160.655C137.958 160.873 137.933 161.091 137.884 161.304C137.716 162.104 137.277 162.821 136.64 163.334C136.192 163.68 135.669 163.918 135.112 164.027C134.47 164.154 133.805 164.103 133.19 163.88C132.506 163.637 131.912 163.195 131.482 162.611C131.016 161.984 130.765 161.224 130.765 160.442C130.765 159.661 131.016 158.901 131.482 158.273C131.891 157.718 132.45 157.291 133.092 157.04C133.735 156.79 134.435 156.727 135.112 156.858C135.669 156.967 136.192 157.204 136.64 157.551C137.288 158.054 137.742 158.766 137.923 159.566C137.972 159.779 137.997 159.997 137.997 160.215C137.997 160.292 137.984 160.368 137.957 160.44Z" fill="#263238"/>
<path d="M117.232 75.3913C123.474 75.3913 128.534 70.3312 128.534 64.0892C128.534 57.8472 123.474 52.7871 117.232 52.7871C110.99 52.7871 105.93 57.8472 105.93 64.0892C105.93 70.3312 110.99 75.3913 117.232 75.3913Z" fill="#F5F5F5"/>
<path d="M124.537 72.6632C124.345 70.8704 123.485 69.2156 122.129 68.0269C120.773 66.8382 119.02 66.2026 117.217 66.246C113.206 66.246 110.459 69.2813 109.897 72.6876C109.897 72.6876 112.377 75.4301 117.217 75.3911C122.058 75.3521 124.537 72.6632 124.537 72.6632Z" fill="#E0E0E0"/>
<path d="M121.831 62.9846C122.222 60.5618 120.576 58.2804 118.153 57.8889C115.73 57.4973 113.449 59.1439 113.057 61.5666C112.666 63.9894 114.312 66.2708 116.735 66.6623C119.158 67.0539 121.439 65.4073 121.831 62.9846Z" fill="#E0E0E0"/>
<path d="M124.484 72.2778C124.345 71.5548 124.114 70.8527 123.796 70.1891C123.385 69.4469 122.842 68.7855 122.195 68.2371C121.345 67.5193 120.366 66.9695 119.311 66.617L119.077 66.5438L119.291 66.4315C120.036 66.0267 120.648 65.4148 121.053 64.6698C121.406 64.0134 121.582 63.2767 121.564 62.5318C121.547 61.7869 121.337 61.0593 120.954 60.4198C120.572 59.7804 120.03 59.2511 119.382 58.8836C118.734 58.516 118.002 58.3228 117.256 58.3228C116.511 58.3228 115.779 58.516 115.131 58.8836C114.483 59.2511 113.941 59.7804 113.559 60.4198C113.176 61.0593 112.966 61.7869 112.949 62.5318C112.931 63.2767 113.107 64.0134 113.46 64.6698C113.665 65.0505 113.925 65.399 114.231 65.7044C114.528 65.99 114.855 66.242 115.207 66.4559L115.402 66.5779L115.178 66.6414C114.097 66.9258 113.105 67.4741 112.289 68.2371C111.669 68.8237 111.157 69.5141 110.776 70.277C110.53 70.7662 110.33 71.2776 110.18 71.8044C110.127 71.985 110.093 72.1265 110.068 72.2192C110.062 72.268 110.049 72.3156 110.029 72.3607C110.021 72.3123 110.021 72.2627 110.029 72.2143C110.029 72.1167 110.068 71.9703 110.112 71.7898C110.24 71.2511 110.425 70.7277 110.664 70.2282C111.034 69.4393 111.543 68.7235 112.167 68.1151C112.989 67.3227 113.995 66.7475 115.095 66.4413L115.065 66.6267C114.697 66.4093 114.353 66.1524 114.041 65.8606C113.716 65.5415 113.44 65.1765 113.221 64.7772C112.738 63.8768 112.572 62.8403 112.749 61.8341C112.926 60.8279 113.436 59.9103 114.197 59.2286C115.03 58.4776 116.113 58.062 117.235 58.062C118.357 58.062 119.439 58.4776 120.272 59.2286C120.817 59.7178 121.235 60.3313 121.491 61.017C121.747 61.7026 121.833 62.4399 121.742 63.1662C121.652 63.8924 121.387 64.5859 120.97 65.1876C120.554 65.7894 119.998 66.2814 119.35 66.6218V66.4315C120.427 66.7998 121.422 67.3751 122.278 68.1249C122.933 68.6966 123.475 69.387 123.874 70.1598C124.013 70.446 124.129 70.743 124.22 71.048C124.296 71.2689 124.353 71.4958 124.391 71.7263C124.415 71.8971 124.435 72.0386 124.45 72.1558C124.464 72.2729 124.494 72.2778 124.484 72.2778Z" fill="#263238"/>
<path d="M128.534 64.0892C128.519 64.0285 128.511 63.9663 128.51 63.9038C128.51 63.772 128.51 63.5963 128.471 63.3718L128.446 62.9766C128.446 62.8302 128.398 62.674 128.368 62.4886C128.318 62.0944 128.238 61.7045 128.129 61.3222C127.864 60.2691 127.441 59.2622 126.875 58.3357C125.535 56.0986 123.457 54.3981 120.999 53.5263C118.541 52.6545 115.857 52.6657 113.406 53.5582C112.904 53.7391 112.415 53.9543 111.942 54.2023C111.465 54.4638 111.007 54.759 110.571 55.0856C110.125 55.4167 109.701 55.7769 109.302 56.1641C108.908 56.5721 108.541 57.0057 108.204 57.4622C107.511 58.3965 106.972 59.4361 106.608 60.5414C105.841 62.8326 105.841 65.3116 106.608 67.6028C106.972 68.7096 107.511 69.7509 108.204 70.687C108.542 71.1424 108.909 71.576 109.302 71.985C109.701 72.3722 110.125 72.7325 110.571 73.0635C111.008 73.3884 111.466 73.6835 111.942 73.9468C114.188 75.1305 116.764 75.5307 119.262 75.0838C120.831 74.7952 122.321 74.1777 123.634 73.2718C124.947 72.3659 126.053 71.1923 126.88 69.8281C127.447 68.9002 127.87 67.8916 128.134 66.8366C128.243 66.456 128.323 66.0678 128.373 65.6752C128.403 65.5044 128.432 65.3482 128.451 65.1872L128.476 64.7919C128.476 64.5674 128.505 64.3918 128.515 64.2551C128.516 64.1942 128.524 64.1336 128.539 64.0746C128.546 64.1362 128.546 64.1983 128.539 64.26C128.539 64.3918 128.539 64.5723 128.539 64.7968C128.539 64.9188 128.539 65.0506 128.539 65.1921C128.539 65.3336 128.495 65.4995 128.476 65.6801C128.432 66.0771 128.359 66.4702 128.256 66.8562C128.003 67.9261 127.588 68.9512 127.026 69.8964C126.204 71.2885 125.095 72.4899 123.774 73.4212C122.452 74.3525 120.947 74.9924 119.36 75.2986C117.351 75.6745 115.279 75.506 113.357 74.8106C112.846 74.6262 112.347 74.4078 111.864 74.1566C111.375 73.8903 110.906 73.5903 110.459 73.2587C110.002 72.921 109.568 72.5525 109.161 72.1558C108.757 71.741 108.382 71.2992 108.038 70.8334C107.326 69.8777 106.772 68.8131 106.399 67.6809C106.024 66.5146 105.825 65.2993 105.808 64.0746C105.824 62.8477 106.025 61.6303 106.403 60.4634C106.774 59.3324 107.326 58.2693 108.038 57.3158C108.382 56.8484 108.757 56.4049 109.161 55.9884C109.57 55.5958 110.004 55.2291 110.459 54.8904C110.906 54.5588 111.375 54.2588 111.864 53.9925C112.347 53.7413 112.846 53.5229 113.357 53.3386C115.277 52.6433 117.348 52.4748 119.355 52.8506C120.944 53.1557 122.449 53.7952 123.772 54.7266C125.094 55.6579 126.204 56.8599 127.026 58.2527C127.588 59.1962 128.003 60.2197 128.256 61.2881C128.359 61.6757 128.432 62.0704 128.476 62.469C128.476 62.6398 128.524 62.8009 128.539 62.957C128.554 63.1132 128.539 63.2352 128.539 63.3572C128.539 63.5817 128.539 63.7622 128.539 63.894C128.545 63.959 128.543 64.0245 128.534 64.0892Z" fill="#263238"/>
<path d="M70.4867 115.427C64.5526 118.501 59.9996 123.796 56.73 129.623C53.4604 135.449 51.362 141.847 49.2587 148.196L47.4287 180.941C54.3339 169.195 59.8776 155.384 61.3757 141.837L56.7788 141.427C59.8629 140.939 62.4494 138.724 64.0988 136.059C65.7482 133.395 66.5925 130.355 67.4172 127.353L61.8101 128.183C66.2332 125.203 69.3401 120.635 70.4867 115.427Z" fill="#455A64"/>
<path d="M70.4867 115.427C64.5526 118.501 59.9996 123.796 56.73 129.623C53.4604 135.449 51.362 141.847 49.2587 148.196L47.4287 180.941C54.3339 169.195 59.8776 155.384 61.3757 141.837L56.7788 141.427C59.8629 140.939 62.4494 138.724 64.0988 136.059C65.7482 133.395 66.5925 130.355 67.4172 127.353L61.8101 128.183C66.2332 125.203 69.3401 120.635 70.4867 115.427Z" fill="#455A64"/>
<path d="M46.404 188.617C46.404 188.617 31.4176 170.673 31.5884 153.544H37.6444C37.6444 153.544 31.0662 149.221 31.5884 146.8C32.1105 144.38 32.2813 135.205 32.2813 135.205L37.8201 136.591C37.8201 136.591 33.6672 134.517 33.1451 131.223C32.6229 127.929 34.3553 112.728 34.3553 112.728C34.3553 112.728 41.1044 119.819 43.1832 127.085C45.2621 134.351 50.7082 142.828 49.1076 164.973C47.5069 187.119 46.404 188.617 46.404 188.617Z" fill="#455A64"/>
<path d="M54.0069 190.32C54.0069 190.32 70.2475 179.501 73.8538 165.691L68.9738 164.368C68.9738 164.368 75.2105 162.328 75.3178 160.269C75.4252 158.21 77.2698 150.797 77.2698 150.797L72.5167 150.699C72.5167 150.699 76.3085 149.938 77.4455 147.41C78.5826 144.882 80.5638 132.248 80.5638 132.248C80.5638 132.248 73.5854 136.479 70.3158 141.867C67.0462 147.254 60.8194 152.876 57.2618 171.029C53.7043 189.183 54.0069 190.32 54.0069 190.32Z" fill="#455A64"/>
<path d="M38.4543 128.344C38.4543 128.344 38.4543 128.407 38.5031 128.529C38.5519 128.651 38.5812 128.852 38.6349 129.081C38.7471 129.569 38.9033 130.301 39.1229 131.213C39.3425 132.126 39.5719 133.273 39.8305 134.59C40.0891 135.908 40.4063 137.411 40.7089 139.075C41.3531 142.403 42.0265 146.395 42.7243 150.787C43.4222 155.179 44.0761 160.093 44.6763 165.227C45.2766 170.361 45.7207 175.27 46.072 179.735C46.4234 184.2 46.6527 188.231 46.7845 191.613C46.8723 193.307 46.9114 194.839 46.9553 196.186C46.9992 197.533 47.0236 198.689 47.0334 199.636C47.0431 200.583 47.0334 201.305 47.0578 201.817V202.383C47.0578 202.51 47.0578 202.579 47.0578 202.579C47.0496 202.514 47.0496 202.448 47.0578 202.383V201.817C47.0578 201.305 47.0139 200.573 46.9846 199.636C46.9553 198.699 46.9211 197.533 46.8626 196.191C46.804 194.849 46.7503 193.316 46.6576 191.623C46.4966 188.241 46.2282 184.22 45.8866 179.755C45.545 175.29 45.057 170.39 44.4714 165.256C43.8858 160.123 43.2026 155.247 42.5194 150.821C41.8362 146.395 41.1774 142.418 40.5674 139.109C40.2746 137.44 39.9769 135.942 39.728 134.62C39.4791 133.297 39.24 132.18 39.0595 131.233C38.8789 130.286 38.7325 129.598 38.6349 129.096C38.591 128.856 38.5519 128.676 38.5275 128.534C38.4972 128.473 38.4727 128.41 38.4543 128.344Z" fill="#263238"/>
<path d="M44.325 199.592C44.325 199.592 30.6074 184.04 26.352 174.631L29.5679 173.24C27.2353 173.626 24.849 172.625 23.0385 171.103C21.228 169.58 19.9055 167.579 18.6026 165.608L22.8384 164.89C18.9401 163.784 15.6189 161.216 13.5664 157.722C18.5635 158.546 23.0873 161.289 26.8107 164.724C29.8314 167.501 32.3837 170.727 34.8383 174.026C36.0391 175.63 37.0833 177.346 37.9566 179.15C40.2795 183.927 44.3348 193.887 44.325 199.592Z" fill="#455A64"/>
<path d="M74.0686 141.31C74.0546 141.365 74.0332 141.417 74.0052 141.466L73.7953 141.92C73.5953 142.33 73.3073 142.896 72.956 143.643C72.6046 144.39 72.141 145.307 71.6335 146.376C71.126 147.444 70.5355 148.655 69.9157 150.006C68.6469 152.705 67.1927 155.936 65.6262 159.547C64.0597 163.158 62.4249 167.169 60.7804 171.405C59.1358 175.641 57.6767 179.701 56.3884 183.434C55.1001 187.168 54.0167 190.535 53.1383 193.38C52.6893 194.8 52.3136 196.093 51.9671 197.225C51.6206 198.357 51.3376 199.333 51.1082 200.153C50.8789 200.973 50.6983 201.559 50.5665 201.993L50.4201 202.481C50.4063 202.537 50.3867 202.591 50.3616 202.642C50.3681 202.584 50.3795 202.527 50.3957 202.471C50.425 202.349 50.4689 202.193 50.5177 201.983L51.0057 200.129C51.2205 199.329 51.4937 198.343 51.8207 197.201C52.1477 196.059 52.5185 194.761 52.9577 193.346C53.8117 190.491 54.9097 187.114 56.1541 183.381C57.3985 179.648 58.8967 175.573 60.5461 171.332C62.1956 167.091 63.8499 163.09 65.4261 159.474C67.0024 155.858 68.481 152.642 69.7645 149.953C70.3989 148.601 70.9991 147.396 71.5213 146.332C72.0434 145.268 72.4973 144.38 72.8828 143.619L73.7612 141.915L73.9954 141.476C74.0142 141.419 74.0387 141.363 74.0686 141.31Z" fill="#263238"/>
<path d="M45.4913 206.273C45.4593 206.179 45.438 206.083 45.4278 205.985L45.2961 205.16C45.2424 204.799 45.179 204.36 45.0814 203.852C44.9838 203.345 44.9057 202.764 44.7642 202.13C44.5202 200.856 44.1688 199.353 43.7198 197.694C43.2709 196.034 42.6902 194.248 41.9923 192.394C41.2945 190.54 40.5283 188.817 39.7866 187.27C39.0448 185.723 38.3226 184.371 37.6394 183.254C37.3222 182.683 37.005 182.19 36.7366 181.751C36.4682 181.312 36.2486 180.931 36.0338 180.628L35.5849 179.921C35.5302 179.841 35.4828 179.756 35.4434 179.667C35.5151 179.733 35.5775 179.809 35.6288 179.891L36.1168 180.575C36.3266 180.867 36.5804 181.238 36.8586 181.673C37.1367 182.107 37.4637 182.595 37.7906 183.161C38.4738 184.269 39.2205 185.63 39.9964 187.168C40.7723 188.705 41.5238 190.447 42.2314 192.301C42.939 194.156 43.4954 195.971 43.9443 197.635C44.3933 199.299 44.7202 200.817 44.9203 202.095C45.0472 202.735 45.1204 203.32 45.1985 203.833C45.2766 204.345 45.3351 204.784 45.3693 205.145C45.4034 205.507 45.4327 205.76 45.4522 205.98C45.4783 206.075 45.4914 206.174 45.4913 206.273Z" fill="#263238"/>
<path d="M63.5913 202.613H33.5696V208.737H63.5913V202.613Z" fill="#B2C136"/>
<path d="M36.4292 208.737L39.6793 229.336H57.8182L60.8438 208.737H36.4292Z" fill="#B2C136"/>
<path d="M61.7515 208.737C61.7515 208.806 56.0712 208.864 49.0635 208.864C42.0558 208.864 36.3755 208.806 36.3755 208.737C36.3755 208.669 42.0558 208.605 49.0635 208.605C56.0712 208.605 61.7515 208.664 61.7515 208.737Z" fill="#263238"/>
<g opacity="0.3">
<path d="M70.4867 115.427C64.5526 118.501 59.9996 123.796 56.73 129.623C53.4604 135.449 51.362 141.847 49.2587 148.196L47.4287 180.941C54.3339 169.195 59.8776 155.384 61.3757 141.837L56.7788 141.427C59.8629 140.939 62.4494 138.724 64.0988 136.059C65.7482 133.395 66.5925 130.355 67.4172 127.353L61.8101 128.183C66.2332 125.203 69.3401 120.635 70.4867 115.427Z" fill="black"/>
</g>
<path d="M210.265 141.857C210.265 141.857 215.242 150.119 215.984 157.985C216.726 165.852 211.47 229.419 211.47 229.419H149.543C149.543 229.419 166.135 150.924 171.561 145.888L171.932 140.666L210.265 141.857Z" fill="#263238"/>
<path d="M212.91 148.157C212.923 148.526 212.915 148.896 212.885 149.264C212.814 150.324 212.616 151.371 212.295 152.383C211.793 153.993 211.01 155.502 209.982 156.838C209.341 157.675 208.604 158.433 207.786 159.098C206.862 159.824 205.883 160.477 204.858 161.05C203.789 161.674 202.647 162.279 201.505 163.002C200.309 163.709 199.219 164.583 198.27 165.598C197.3 166.725 196.551 168.024 196.064 169.429C195.577 170.934 195.238 172.483 195.054 174.055C194.834 175.665 194.693 177.329 194.473 179.028C194.276 180.768 193.883 182.48 193.302 184.132C192.672 185.85 191.643 187.394 190.301 188.636C188.895 189.874 187.305 190.883 185.587 191.628C182.171 193.194 178.579 194.195 175.548 196.02C174.062 196.9 172.761 198.06 171.718 199.436C170.764 200.794 170.031 202.294 169.546 203.881C168.57 206.975 168.131 210.064 167.321 212.861C167.213 213.207 167.106 213.554 167.003 213.895C166.901 214.237 166.764 214.564 166.647 214.896C166.397 215.539 166.113 216.17 165.798 216.784C165.51 217.394 165.144 217.951 164.822 218.507C164.642 218.775 164.456 219.039 164.276 219.297L164.007 219.683L163.714 220.049C162.339 221.804 160.691 223.328 158.834 224.563C157.436 225.498 155.928 226.258 154.345 226.827C153.344 227.178 152.318 227.451 151.275 227.642L150.46 227.764L150.177 227.798L150.455 227.74L151.265 227.593C152.3 227.383 153.318 227.095 154.311 226.734C157.972 225.373 161.183 223.019 163.583 219.937L163.871 219.576L164.139 219.19L164.676 218.404C164.998 217.853 165.359 217.301 165.652 216.691C165.963 216.084 166.242 215.46 166.486 214.822C166.603 214.495 166.716 214.164 166.833 213.846C166.95 213.529 167.043 213.163 167.145 212.817C167.945 210.04 168.355 206.961 169.351 203.823C169.842 202.212 170.585 200.688 171.552 199.309C172.612 197.899 173.938 196.71 175.456 195.81C178.525 193.951 182.107 192.95 185.513 191.389C187.208 190.663 188.777 189.675 190.164 188.461C191.473 187.248 192.476 185.743 193.092 184.069C193.66 182.42 194.04 180.713 194.224 178.979C194.444 177.29 194.59 175.626 194.815 174.011C195.005 172.425 195.348 170.861 195.839 169.341C196.343 167.91 197.109 166.586 198.099 165.437C199.067 164.412 200.176 163.53 201.393 162.816C202.545 162.114 203.691 161.508 204.755 160.898C205.78 160.324 206.758 159.671 207.683 158.946C208.493 158.294 209.225 157.551 209.865 156.731C210.889 155.413 211.677 153.927 212.192 152.339C212.525 151.336 212.74 150.298 212.832 149.245C212.871 148.884 212.871 148.611 212.885 148.42C212.9 148.23 212.91 148.157 212.91 148.157Z" fill="#455A64"/>
<path d="M214.647 153.935C214.683 154.016 214.713 154.099 214.74 154.183C214.828 154.425 214.898 154.673 214.949 154.925C215.139 155.906 215.12 156.915 214.896 157.887C214.546 159.428 213.853 160.871 212.871 162.109C211.541 163.709 210.033 165.151 208.376 166.408C206.605 167.872 204.589 169.438 203.042 171.654C202.241 172.791 201.68 174.08 201.393 175.441C201.123 176.891 200.96 178.359 200.905 179.833C200.847 181.399 200.63 182.956 200.256 184.478C199.846 186.065 199.248 187.597 198.475 189.041C196.846 192.091 194.485 194.689 191.604 196.6C188.622 198.552 185.26 199.489 182.307 200.958C180.844 201.646 179.497 202.558 178.315 203.662C177.218 204.755 176.332 206.04 175.7 207.454C174.445 210.216 173.928 213.09 173.23 215.706C172.907 216.977 172.509 218.228 172.04 219.453C171.592 220.58 171.021 221.654 170.337 222.655C169.702 223.554 168.962 224.373 168.131 225.095C167.75 225.451 167.335 225.744 166.95 226.046C166.564 226.349 166.154 226.598 165.744 226.812C164.381 227.612 162.898 228.189 161.352 228.52C160.381 228.723 159.392 228.826 158.4 228.828L157.629 228.789H157.365H157.629H158.4C159.385 228.763 160.365 228.643 161.328 228.433C162.851 228.084 164.31 227.5 165.652 226.7C166.052 226.486 166.428 226.212 166.833 225.934C167.238 225.656 167.623 225.339 167.999 224.982C168.816 224.258 169.543 223.439 170.166 222.542C170.836 221.549 171.396 220.486 171.835 219.37C172.294 218.151 172.684 216.906 173.001 215.642C173.694 213.036 174.197 210.147 175.441 207.346C176.081 205.904 176.981 204.593 178.096 203.476C179.296 202.354 180.664 201.427 182.151 200.729C185.128 199.24 188.495 198.289 191.423 196.381C195.65 193.578 198.697 189.316 199.983 184.41C200.352 182.902 200.57 181.36 200.632 179.808C200.68 178.319 200.844 176.836 201.12 175.372C201.414 173.984 201.989 172.671 202.808 171.512C204.389 169.272 206.429 167.701 208.205 166.252C209.883 165.018 211.414 163.597 212.768 162.016C213.749 160.8 214.447 159.381 214.813 157.863C215.039 156.903 215.072 155.908 214.91 154.935C214.769 154.271 214.627 153.939 214.647 153.935Z" fill="#455A64"/>
<path d="M151.792 109.732C151.792 109.732 155.809 137.43 161.987 140.119C165.1 141.481 167.604 140.31 169.307 137.191C171.01 134.073 175.358 111.415 175.358 111.415L163.339 111.132L162.89 115.636L158.254 107.013L151.792 109.732Z" fill="#936760"/>
<path d="M169.512 127.817C169.488 127.739 169.453 127.665 169.409 127.597L169.082 126.992L167.872 124.772C166.837 122.898 165.432 120.302 163.865 117.427C162.299 114.553 160.937 111.962 159.927 110.044L158.737 107.804L158.41 107.199C158.332 107.062 158.288 106.989 158.278 106.994C158.3 107.071 158.329 107.147 158.366 107.218L158.658 107.843C158.917 108.385 159.298 109.161 159.781 110.122C160.757 112.035 162.109 114.66 163.685 117.535C165.261 120.409 166.681 122.995 167.75 124.855C168.287 125.782 168.726 126.524 169.043 127.036L169.409 127.622C169.437 127.69 169.471 127.755 169.512 127.817Z" fill="#6F4C47"/>
<path d="M211.397 116.207L207.966 131.555L209.591 141.857H171.888L174.353 93.774L183.751 92.9736L206.717 96.8532L211.397 116.207Z" fill="#B2C136"/>
<path d="M201.808 96.575C201.808 96.575 211.626 95.6723 216.306 102.353C219.171 106.442 223.187 115.836 223.187 115.836L210.113 118.096L201.808 96.575Z" fill="#B2C136"/>
<g opacity="0.3">
<path d="M207.761 116.388C207.097 115.03 206.061 113.889 204.774 113.098C203.487 112.307 202.001 111.897 200.49 111.918C199.836 111.918 199.099 112.093 198.753 112.645C198.406 113.196 198.597 113.987 198.85 114.626C199.177 115.461 199.612 116.344 200.412 116.744C200.998 117.037 201.686 117.022 202.315 117.232C203.066 117.521 203.753 117.955 204.335 118.511C204.858 118.9 205.309 119.377 205.668 119.921C205.909 120.382 206.083 120.875 206.185 121.385C206.824 123.893 207.332 129.071 207.966 131.579L208.669 129.417C208.688 127.355 208.706 125.292 208.723 123.23C208.742 120.887 208.742 118.486 207.761 116.388Z" fill="black"/>
</g>
<path d="M196.039 129.183C196.039 129.144 196.527 129.232 197.376 129.296C198.448 129.38 199.526 129.354 200.592 129.217C201.659 129.074 202.709 128.824 203.725 128.471C204.506 128.198 204.975 127.983 204.989 128.017C204.896 128.095 204.793 128.159 204.682 128.207C204.39 128.362 204.091 128.501 203.784 128.622C201.746 129.432 199.539 129.72 197.362 129.461C197.033 129.424 196.708 129.366 196.386 129.291C196.265 129.275 196.148 129.239 196.039 129.183Z" fill="#263238"/>
<path d="M179.584 129.857C179.584 129.798 184.952 131.321 191.496 133.273C198.04 135.225 203.369 136.825 203.35 136.889C203.33 136.952 197.982 135.425 191.433 133.473C184.884 131.521 179.584 129.92 179.584 129.857Z" fill="#263238"/>
<g opacity="0.3">
<path d="M196.308 129.247C196.789 129.96 197.455 130.528 198.235 130.89C199.015 131.252 199.879 131.394 200.734 131.301C201.55 131.21 202.323 130.885 202.959 130.366C203.595 129.846 204.068 129.155 204.321 128.373C201.771 129.357 199.009 129.658 196.308 129.247Z" fill="black"/>
</g>
<g opacity="0.3">
<path d="M201.92 136.401L201.783 136.455C198.416 137.055 195.258 136.455 192.023 135.303C188.788 134.151 185.791 132.502 182.81 130.828L201.92 136.401Z" fill="black"/>
</g>
<path d="M174.353 93.7739C174.353 93.7739 168.136 94.5352 165.725 99.8447C164.068 103.631 162.666 107.525 161.528 111.498L174.216 114.353C174.216 114.353 176.212 103.617 176.363 99.8447C176.534 95.7015 176.7 93.6519 174.353 93.7739Z" fill="#B2C136"/>
<path d="M173.157 116.051C173.044 114.869 173.009 113.681 173.05 112.494C173.014 111.308 173.055 110.122 173.172 108.941C173.284 110.122 173.32 111.309 173.279 112.494C173.314 113.681 173.273 114.869 173.157 116.051Z" fill="#263238"/>
<path d="M180.043 59.7555C183.395 55.6563 187.904 53.2944 193.219 53.2066C196.205 53.1578 197.445 53.7775 199.597 54.3582C201.748 54.8785 203.648 56.1376 204.965 57.9158C206.492 60.0825 207.776 62.5078 208.064 65.1382C208.357 67.8466 208.654 70.5696 208.449 73.2829C208.244 75.9962 207.512 78.7241 205.912 80.9298L199.006 82.1303C195.19 82.2572 191.325 82.3841 187.612 81.5154C183.898 80.6468 180.292 78.646 178.301 75.391C175.539 70.8673 176.685 63.8596 180.043 59.7555Z" fill="#263238"/>
<path d="M203.818 84.8144C203.818 84.8144 203.93 84.9852 204.233 85.1755C204.664 85.443 205.149 85.6098 205.653 85.6635C206.413 85.7477 207.181 85.5925 207.849 85.2195C208.66 84.7284 209.251 83.9437 209.498 83.0284C209.745 82.1132 209.63 81.1379 209.176 80.3053C208.788 79.6478 208.205 79.1276 207.507 78.8169C207.048 78.6092 206.548 78.5059 206.043 78.5143C205.859 78.5014 205.674 78.5367 205.507 78.6168C206.16 78.643 206.802 78.792 207.4 79.056C208.015 79.376 208.523 79.8676 208.864 80.4712C209.24 81.2217 209.326 82.0843 209.106 82.8943C208.887 83.7044 208.377 84.4053 207.673 84.8632C207.084 85.2114 206.405 85.3809 205.721 85.3512C205.058 85.2975 204.412 85.1152 203.818 84.8144Z" fill="#E0E0E0"/>
<path d="M173.347 79.7976C173.413 79.0116 173.658 78.2512 174.063 77.5745C174.469 76.8978 175.023 76.3228 175.685 75.8936C176.357 75.4862 177.142 75.3031 177.925 75.3706C178.708 75.4382 179.45 75.7529 180.043 76.2693L181.131 77.5625C181.972 77.953 182.67 78.5956 183.129 79.4009C183.588 80.2063 183.785 81.1346 183.693 82.057C183.567 82.9762 183.181 83.8405 182.581 84.5483C181.982 85.2562 181.192 85.7784 180.306 86.0537C179.414 86.3045 178.473 86.3217 177.572 86.1038C176.671 85.8859 175.842 85.4401 175.163 84.8093C174.499 84.1671 173.99 83.3819 173.676 82.5134C173.361 81.6448 173.249 80.716 173.347 79.7976Z" fill="#263238"/>
<path d="M174.704 84.4533C174.439 84.045 174.309 83.5635 174.333 83.0771C174.392 82.1939 175.031 81.0373 175.909 79.9783C176.681 79.0684 177.621 78.3147 178.676 77.7579C179.486 77.3236 180.043 77.1674 180.023 77.1089C179.51 77.1515 179.012 77.2994 178.559 77.5432C177.429 78.0527 176.429 78.8099 175.631 79.7587C175.189 80.2754 174.813 80.8461 174.514 81.457C174.244 81.9542 174.092 82.5069 174.07 83.0722C174.059 83.4593 174.166 83.8404 174.377 84.1654C174.572 84.3899 174.704 84.4679 174.704 84.4533Z" fill="#455A64"/>
<path d="M178.057 86.493C178.169 86.493 177.7 84.3995 178.364 81.9302C179.028 79.461 180.423 77.8701 180.316 77.8066C179.951 78.0886 179.641 78.4361 179.404 78.8314C178.77 79.7482 178.303 80.7689 178.022 81.8473C177.741 82.9245 177.649 84.0423 177.749 85.151C177.769 85.6133 177.874 86.0681 178.057 86.493Z" fill="#455A64"/>
<path d="M199.006 93.3298C198.963 90.8898 198.904 88.9378 198.904 88.9378C198.904 88.9378 204.535 88.3181 206.087 81.1054C206.863 77.5186 207.005 71.5699 206.966 66.7046C206.932 62.3126 203.198 56.359 197.791 56.3394L195.385 56.0564L186.182 59.7164C185.539 59.7466 184.932 60.0173 184.48 60.4748C184.028 60.9322 183.764 61.543 183.742 62.1857L183.488 92.998L192.384 114.597L198.767 105.945L199.006 93.3298Z" fill="#936760"/>
<path d="M195.268 79.4122C195.322 79.0427 195.51 78.7058 195.795 78.4655C196.057 78.2404 196.386 78.1075 196.73 78.0872C197.075 78.0669 197.417 78.1604 197.703 78.3533C198 78.5817 198.231 78.8855 198.371 79.233C198.511 79.5806 198.555 79.9592 198.499 80.3297C198.341 80.5518 198.138 80.7373 197.902 80.8737C197.666 81.0101 197.404 81.0942 197.132 81.1202C197.046 81.1252 196.96 81.1252 196.874 81.1202C196.444 81.1182 196.031 80.9544 195.717 80.6615C195.553 80.5007 195.427 80.3048 195.349 80.0884C195.272 79.872 195.244 79.6409 195.268 79.4122Z" fill="#6F4C47"/>
<path d="M203.389 71.6822C203.378 71.926 203.273 72.1561 203.095 72.323C202.917 72.49 202.681 72.5806 202.437 72.5752C202.318 72.5785 202.199 72.5578 202.088 72.5144C201.977 72.471 201.875 72.4057 201.79 72.3225C201.704 72.2392 201.636 72.1396 201.59 72.0297C201.543 71.9197 201.519 71.8016 201.52 71.6822C201.531 71.4388 201.637 71.2095 201.814 71.0428C201.992 70.876 202.228 70.7851 202.471 70.7892C202.59 70.7859 202.709 70.8066 202.82 70.85C202.932 70.8934 203.033 70.9587 203.118 71.0419C203.204 71.1252 203.272 71.2247 203.318 71.3347C203.365 71.4447 203.389 71.5628 203.389 71.6822Z" fill="#263238"/>
<path d="M205.175 69.4033C205.053 69.5155 204.374 68.9543 203.369 68.9153C202.364 68.8762 201.603 69.3252 201.5 69.1983C201.398 69.0714 201.578 68.925 201.91 68.7103C202.363 68.4346 202.889 68.3035 203.418 68.3345C203.941 68.3627 204.441 68.5558 204.848 68.886C205.141 69.1251 205.233 69.3496 205.175 69.4033Z" fill="#263238"/>
<path d="M198.865 77.0112C199.402 76.8725 199.955 76.8036 200.509 76.8062C200.768 76.8062 200.997 76.7574 201.066 76.5817C201.104 76.3194 201.06 76.0515 200.939 75.8156C200.729 75.1812 200.514 74.5126 200.285 73.8197C199.387 70.9795 198.748 68.6517 198.865 68.6176C198.982 68.5834 199.802 70.8526 200.7 73.6928C200.915 74.3906 201.124 75.0592 201.32 75.6984C201.465 76.0151 201.493 76.3733 201.398 76.7086C201.357 76.798 201.295 76.8764 201.218 76.9375C201.141 76.9986 201.05 77.0405 200.954 77.06C200.81 77.0933 200.662 77.1064 200.514 77.099C199.963 77.1412 199.409 77.1117 198.865 77.0112Z" fill="#263238"/>
<path d="M198.904 88.933C195.474 88.7976 192.15 87.713 189.3 85.8C189.3 85.8 191.618 90.9875 198.943 90.7044L198.904 88.933Z" fill="#6F4C47"/>
<path d="M195.869 77.5432C196.034 77.5432 195.976 78.6315 196.845 79.4562C197.713 80.2809 198.904 80.2272 198.904 80.3785C198.904 80.4468 198.635 80.5786 198.143 80.564C197.503 80.537 196.894 80.2866 196.42 79.8564C195.968 79.4411 195.694 78.8679 195.654 78.2557C195.659 77.797 195.795 77.5335 195.869 77.5432Z" fill="#263238"/>
<path d="M204.96 65.6165C204.779 65.8507 204.018 65.6457 203.115 65.6701C202.213 65.6945 201.456 65.8897 201.271 65.6701C201.188 65.5579 201.3 65.3237 201.622 65.0943C202.065 64.8068 202.582 64.6558 203.11 64.66C203.635 64.6421 204.154 64.7814 204.599 65.0601C204.96 65.27 205.053 65.4993 204.96 65.6165Z" fill="#263238"/>
<path d="M191.701 71.4186C191.689 71.6651 191.775 71.9063 191.941 72.0892C192.107 72.2722 192.338 72.382 192.584 72.3946C192.703 72.4053 192.822 72.3924 192.935 72.3566C193.049 72.3209 193.154 72.2629 193.245 72.1862C193.335 72.1095 193.41 72.0155 193.464 71.9097C193.518 71.8039 193.551 71.6884 193.56 71.5699C193.572 71.3235 193.486 71.0823 193.32 70.8993C193.155 70.7164 192.923 70.6066 192.677 70.5939C192.559 70.5826 192.439 70.595 192.325 70.6305C192.212 70.666 192.106 70.7239 192.015 70.8008C191.924 70.8776 191.85 70.9718 191.796 71.078C191.742 71.1841 191.71 71.2999 191.701 71.4186Z" fill="#263238"/>
<path d="M191.413 69.0422C191.525 69.1642 192.243 68.6518 193.248 68.6713C194.253 68.6908 194.98 69.2081 195.093 69.0861C195.205 68.9641 195.034 68.8128 194.717 68.5981C194.29 68.2894 193.779 68.1191 193.253 68.1101C192.73 68.0974 192.217 68.253 191.789 68.5542C191.462 68.7689 191.355 68.9836 191.413 69.0422Z" fill="#263238"/>
<path d="M190.832 66.8803C191.028 67.1146 191.808 66.8803 192.74 66.8803C193.673 66.8803 194.463 67.0658 194.649 66.8266C194.727 66.7144 194.609 66.485 194.268 66.2606C193.799 65.9863 193.264 65.8478 192.721 65.8604C192.181 65.8563 191.652 66.0052 191.193 66.2898C190.862 66.5338 190.749 66.7681 190.832 66.8803Z" fill="#263238"/>
<path d="M185.001 74.4151C185.03 73.8686 184.474 72.5607 183.942 72.4631C182.527 72.1654 179.94 72.1361 179.721 75.7669C179.413 80.7249 184.454 80.0076 184.474 79.8661C184.493 79.7246 184.903 76.2842 185.001 74.4151Z" fill="#936760"/>
<path d="M183.22 77.9531C183.195 77.9531 183.127 78.0068 182.976 78.0654C182.766 78.1397 182.535 78.1309 182.331 78.041C181.819 77.8165 181.429 76.9527 181.458 76.0597C181.472 75.6329 181.58 75.2145 181.775 74.8348C181.83 74.682 181.922 74.5453 182.043 74.4371C182.164 74.3289 182.31 74.2526 182.468 74.2151C182.568 74.1955 182.672 74.2117 182.761 74.2607C182.85 74.3098 182.919 74.3886 182.956 74.4835C183.015 74.625 182.98 74.7226 183.005 74.7323C183.029 74.7421 183.117 74.6542 183.088 74.4493C183.069 74.3246 183.007 74.2106 182.912 74.1272C182.846 74.0684 182.769 74.0241 182.685 73.9972C182.601 73.9703 182.512 73.9614 182.424 73.9711C182.218 73.9979 182.022 74.0776 181.855 74.2024C181.688 74.3272 181.556 74.4929 181.473 74.6835C181.236 75.0998 181.104 75.5668 181.087 76.0451C181.058 77.0503 181.512 77.9971 182.219 78.2655C182.35 78.3122 182.489 78.329 182.626 78.3147C182.764 78.3003 182.897 78.2551 183.015 78.1825C183.2 78.08 183.234 77.9629 183.22 77.9531Z" fill="#6F4C47"/>
<path d="M183.737 72.4581L185.001 73.7659C190.442 68.5589 201.08 55.5147 200.485 56.2906C198.005 55.3646 195.332 55.0744 192.711 55.4464C188.661 56.1345 180.999 58.1597 181.107 62.9372C181.214 67.7147 183.737 72.4581 183.737 72.4581Z" fill="#263238"/>
<path d="M183.854 84.8143C183.854 84.8143 183.742 84.9851 183.444 85.1754C183.012 85.4436 182.525 85.6105 182.019 85.6634C181.26 85.7476 180.494 85.5923 179.828 85.2194C179.017 84.7283 178.426 83.9439 178.178 83.0289C177.93 82.114 178.044 81.1386 178.496 80.3052C178.886 79.6474 179.471 79.1272 180.17 78.8168C180.629 78.6082 181.129 78.5048 181.634 78.5142C181.82 78.503 182.006 78.5383 182.175 78.6167C181.524 78.6502 180.885 78.8058 180.292 79.0754C179.677 79.3958 179.169 79.8874 178.828 80.4906C178.452 81.2411 178.366 82.1037 178.585 82.9138C178.805 83.7238 179.315 84.4247 180.018 84.8826C180.617 85.235 181.306 85.4046 182 85.3706C182.648 85.306 183.277 85.1171 183.854 84.8143Z" fill="#E0E0E0"/>
<path d="M176.529 71.3652C176.546 71.267 176.572 71.1706 176.607 71.0772C176.697 70.8079 176.81 70.5467 176.944 70.2964C177.457 69.3771 178.165 68.581 179.018 67.9638C180.284 67.0603 181.695 66.3803 183.19 65.9532C184.849 65.4164 186.723 64.9772 188.558 64.2062C190.285 63.4834 191.923 62.5631 193.438 61.4636C194.681 60.5616 195.839 59.549 196.898 58.438C197.609 57.6858 198.277 56.894 198.899 56.0664L199.387 55.3783C199.447 55.2936 199.516 55.2151 199.592 55.144C199.557 55.2365 199.51 55.3236 199.45 55.4027C199.343 55.5686 199.197 55.8126 198.962 56.1152C198.371 56.9739 197.718 57.7893 197.01 58.5552C195.962 59.6927 194.806 60.7271 193.56 61.6442C192.03 62.7686 190.37 63.7058 188.617 64.4356C186.859 65.1089 185.068 65.6889 183.249 66.1728C181.772 66.5817 180.374 67.2331 179.111 68.1004C178.266 68.6954 177.554 69.4579 177.017 70.3404C176.656 70.9796 176.558 71.3749 176.529 71.3652Z" fill="#455A64"/>
<path d="M177.974 72.1458C177.961 71.775 178.028 71.4057 178.169 71.0625C178.541 70.1138 179.191 69.2993 180.033 68.725C181.068 67.9539 182.546 67.4757 184.171 67.1048C185.941 66.7517 187.666 66.2035 189.315 65.47C190.955 64.7191 192.495 63.7684 193.902 62.6396C195.048 61.715 196.1 60.6804 197.045 59.5506C197.679 58.7845 198.264 57.9794 198.797 57.1398L199.216 56.4469C199.262 56.3635 199.316 56.285 199.377 56.2126C199.352 56.3044 199.313 56.3917 199.26 56.4713C199.163 56.6616 199.036 56.9007 198.88 57.1935C198.376 58.0577 197.808 58.8831 197.181 59.6628C195.099 62.2515 192.442 64.3199 189.422 65.7042C187.758 66.4478 186.014 66.998 184.225 67.3439C182.6 67.705 181.155 68.154 180.135 68.886C179.31 69.4318 178.659 70.2045 178.262 71.1113C178.134 71.4465 178.037 71.7928 177.974 72.1458Z" fill="#455A64"/>
<path d="M152.295 112.435C152.017 112.333 151.651 108.385 151.651 108.385C151.651 108.385 147.703 105.227 147.166 103.944C146.629 102.66 146.708 99.6007 146.708 99.6007L153.174 95.2087C153.174 95.2087 156.995 98.6247 157.995 99.9716C158.556 100.723 158.971 102.797 159.264 104.476C159.498 105.903 159.552 107.354 159.425 108.795L159.332 109.907C159.332 109.907 156.731 114.085 152.295 112.435Z" fill="#936760"/>
<path d="M147.464 104.72C146.999 104.307 146.558 103.869 146.141 103.407C145.302 102.499 144.37 101.65 145.165 100.689C145.285 100.53 145.437 100.398 145.611 100.302C145.785 100.207 145.977 100.149 146.176 100.133C146.176 100.133 145.688 99.2884 146.112 98.7565C146.232 98.5994 146.387 98.4732 146.565 98.3883C146.744 98.3034 146.94 98.2623 147.137 98.2685C147.137 98.2685 146.507 97.0583 147.088 96.2433C147.309 95.9458 147.609 95.7159 147.954 95.5797C148.299 95.4435 148.675 95.4063 149.04 95.4723C149.04 95.4723 146.42 90.1335 146.263 89.8603C145.678 88.8501 145.731 87.7472 146.903 87.6252C147.332 87.5813 147.703 87.918 148.816 89.5772C149.928 91.2364 151.792 94.0424 151.792 94.0424C151.792 94.0424 153.827 95.7651 154.847 96.7313C155.867 97.6975 158 99.9619 158.356 100.635C159.269 102.387 159.073 105.208 159.073 105.208L151.656 108.385C151.656 108.385 147.942 105.144 147.464 104.72Z" fill="#936760"/>
<path d="M146.4 100.318C146.708 100.499 147.001 100.703 147.278 100.928L148.211 101.621C148.399 101.757 148.575 101.909 148.738 102.075C148.927 102.259 149.051 102.501 149.089 102.763C149.113 102.898 149.101 103.038 149.053 103.166C149.005 103.295 148.923 103.409 148.816 103.495C148.608 103.639 148.353 103.697 148.103 103.656C147.895 103.634 147.689 103.592 147.488 103.529C147.298 103.475 147.127 103.422 146.966 103.368C146.654 103.266 146.4 103.173 146.229 103.1C146.058 103.027 145.971 102.983 145.976 102.968C145.98 102.953 146.371 103.08 147 103.256C147.366 103.368 147.739 103.451 148.118 103.505C148.326 103.53 148.537 103.481 148.713 103.368C148.796 103.297 148.859 103.206 148.896 103.103C148.932 103 148.942 102.89 148.923 102.783C148.886 102.557 148.778 102.348 148.616 102.187C148.466 102.026 148.303 101.877 148.128 101.743L147.215 101.016C146.924 100.807 146.651 100.574 146.4 100.318Z" fill="#6F4C47"/>
<path d="M152.856 98.7368C152.646 98.3633 152.527 97.9452 152.51 97.5168C152.436 97.0956 152.461 96.6628 152.583 96.2529C152.637 96.2529 152.583 96.819 152.676 97.5022C152.768 98.1854 152.905 98.7222 152.856 98.7368Z" fill="#6F4C47"/>
<path d="M156.448 99.2787C155.504 98.8566 154.459 98.7159 153.437 98.8736C152.419 99.0308 151.432 99.3435 150.509 99.8008C149.767 100.152 148.957 100.669 148.855 101.484C148.752 102.299 149.518 103.08 150.348 103.241C151.192 103.335 152.045 103.165 152.788 102.753C153.525 102.332 154.312 102.004 155.13 101.777" fill="#936760"/>
<path d="M155.14 101.802C155.14 101.802 154.92 101.855 154.535 102.002C154 102.22 153.478 102.466 152.968 102.738C152.61 102.923 152.236 103.077 151.851 103.197C151.403 103.344 150.928 103.393 150.46 103.339C149.929 103.27 149.446 102.997 149.113 102.577C148.932 102.358 148.814 102.093 148.772 101.811C148.741 101.516 148.798 101.219 148.938 100.957C149.24 100.48 149.676 100.101 150.192 99.869C150.648 99.6401 151.117 99.4381 151.597 99.2639C152.411 98.9592 153.271 98.7942 154.14 98.7759C154.724 98.7617 155.307 98.8492 155.862 99.0345C156.014 99.0849 156.162 99.1452 156.306 99.2151C156.356 99.2377 156.404 99.2655 156.448 99.2981C156.448 99.2981 156.238 99.2102 155.843 99.098C155.289 98.9431 154.714 98.8756 154.14 98.8979C153.286 98.9373 152.446 99.117 151.651 99.4298C151.179 99.6033 150.717 99.8054 150.27 100.035C149.785 100.254 149.374 100.61 149.089 101.06C148.962 101.287 148.911 101.548 148.942 101.806C148.978 102.058 149.081 102.296 149.24 102.494C149.548 102.88 149.991 103.135 150.48 103.207C150.927 103.259 151.381 103.217 151.812 103.085C152.192 102.971 152.563 102.825 152.92 102.651C153.437 102.387 153.97 102.156 154.515 101.958C154.665 101.908 154.819 101.869 154.974 101.841C155.027 101.82 155.083 101.807 155.14 101.802Z" fill="#6F4C47"/>
<path d="M146.493 100.386C147.727 101.309 148.933 102.387 150.045 103.427C150.35 103.76 150.737 104.008 151.168 104.144C151.514 104.217 152.114 103.656 152.393 103.412L148.406 99.2249" fill="#936760"/>
<path d="M148.406 99.2249C148.527 99.3113 148.638 99.4111 148.737 99.5225L149.596 100.391C150.323 101.133 151.329 102.172 152.456 103.353L152.515 103.417L152.446 103.475C152.233 103.666 152.01 103.846 151.778 104.012C151.677 104.079 151.571 104.136 151.461 104.183C151.401 104.207 151.339 104.222 151.275 104.227C151.211 104.24 151.144 104.24 151.08 104.227C150.859 104.162 150.652 104.056 150.47 103.915C150.114 103.641 149.831 103.344 149.533 103.08C148.947 102.543 148.42 102.065 147.971 101.67C147.522 101.274 147.147 100.962 146.888 100.747C146.749 100.642 146.617 100.528 146.493 100.406C146.648 100.488 146.793 100.586 146.927 100.699C147.2 100.894 147.586 101.187 148.045 101.577C148.503 101.967 149.05 102.431 149.635 102.968C149.933 103.226 150.231 103.529 150.567 103.783C150.733 103.911 150.922 104.007 151.124 104.066C151.224 104.077 151.325 104.068 151.421 104.038C151.517 104.007 151.605 103.957 151.68 103.89C151.909 103.728 152.129 103.554 152.339 103.368V103.456C151.212 102.27 150.226 101.216 149.518 100.455L148.694 99.5518C148.591 99.4486 148.495 99.3395 148.406 99.2249Z" fill="#6F4C47"/>
<path d="M147.283 97.9561L151.304 102.485C151.57 102.823 151.892 103.113 152.256 103.344C152.438 103.458 152.646 103.524 152.861 103.538C153.076 103.552 153.29 103.512 153.486 103.422C153.729 103.254 153.909 103.009 153.997 102.727C154.085 102.445 154.077 102.142 153.974 101.865C153.757 101.313 153.424 100.814 152.998 100.401C151.784 99.0248 150.68 97.5564 149.694 96.009" fill="#936760"/>
<path d="M149.704 95.9944C149.704 95.9944 149.748 96.0383 149.816 96.1359L150.109 96.5605C150.367 96.9265 150.738 97.4535 151.216 98.0928C151.695 98.7321 152.295 99.4689 152.988 100.264C153.38 100.663 153.709 101.119 153.964 101.616C154.091 101.897 154.14 102.207 154.105 102.514C154.08 102.838 153.934 103.142 153.696 103.363C153.571 103.469 153.425 103.546 153.267 103.589C153.109 103.632 152.944 103.64 152.783 103.612C152.478 103.567 152.19 103.442 151.948 103.251C151.531 102.881 151.144 102.478 150.792 102.046L148.942 99.9325C148.43 99.3421 148.015 98.8541 147.708 98.4978L147.376 98.0879C147.334 98.0435 147.298 97.9944 147.269 97.9415C147.269 97.9415 147.317 97.9805 147.4 98.0635L147.757 98.4393L149.03 99.8398L150.909 101.928C151.258 102.35 151.64 102.743 152.051 103.105C152.27 103.278 152.531 103.391 152.807 103.431C152.945 103.454 153.086 103.447 153.221 103.411C153.355 103.375 153.481 103.31 153.588 103.222C153.794 103.027 153.919 102.762 153.94 102.48C153.971 102.203 153.927 101.923 153.813 101.67C153.556 101.184 153.227 100.74 152.837 100.352C152.144 99.5519 151.558 98.7955 151.09 98.1465C150.621 97.4974 150.26 96.9606 150.021 96.58C149.904 96.3897 149.811 96.2433 149.752 96.1408C149.731 96.0939 149.715 96.0448 149.704 95.9944Z" fill="#6F4C47"/>
<path d="M155.838 106.384C155.688 106.463 155.519 106.498 155.35 106.486C154.954 106.508 154.558 106.438 154.193 106.281C153.821 106.132 153.487 105.9 153.217 105.603C153.099 105.487 153.011 105.345 152.959 105.188C153.309 105.597 153.75 105.918 154.247 106.125C154.743 106.333 155.282 106.421 155.818 106.384H155.838Z" fill="#6F4C47"/>
<path d="M206.975 93.6179L205.57 111.352C205.546 111.655 205.404 111.937 205.174 112.136C204.943 112.335 204.644 112.436 204.34 112.416L194.458 111.752C194.304 111.743 194.153 111.703 194.014 111.634C193.876 111.565 193.752 111.469 193.652 111.352C193.551 111.234 193.475 111.097 193.428 110.95C193.382 110.802 193.365 110.647 193.38 110.493L194.995 92.7737C195.021 92.4728 195.164 92.1942 195.393 91.9972C195.622 91.8002 195.919 91.7006 196.22 91.7196L205.897 92.3491C206.052 92.3595 206.203 92.4008 206.342 92.4707C206.48 92.5405 206.604 92.6374 206.704 92.7557C206.805 92.874 206.88 93.0112 206.927 93.1593C206.974 93.3074 206.99 93.4633 206.975 93.6179Z" fill="#455A64"/>
<path d="M221.123 116.193C221.123 116.193 224.075 136.142 223.958 138.821C223.841 141.5 220.81 147.449 216.731 148.03C212.651 148.61 208.805 144.882 208.688 139.987C208.571 135.093 207.966 119.614 207.966 119.614L211.011 117.935L221.123 116.193Z" fill="#936760"/>
<path d="M204.311 99.708C204.311 99.708 207.366 101.587 208.269 102.08C209.172 102.573 209.054 106.213 209.054 106.213L214.198 118.169L208 120.389C208 120.389 205.79 116.207 205.155 115.68C204.721 115.339 204.223 115.087 203.691 114.938C203.691 114.938 203.374 116.1 202.422 115.573C201.667 115.075 200.99 114.468 200.412 113.772C200.412 113.772 199.563 114.304 199.246 113.67C198.928 113.035 198.401 111.659 198.401 111.659C198.401 111.659 200.197 109.331 200.939 109.331C201.681 109.331 205.487 109.541 205.487 109.541C205.487 109.541 205.277 109.224 204.218 108.804C203.159 108.385 196.864 106.525 196.566 106.413C196.122 106.242 195.625 105.086 197.001 104.978C198.377 104.871 206.122 106.257 206.122 106.257C206.122 106.257 206.546 104.256 206.229 103.817C205.912 103.378 203.145 101.611 204.311 99.708Z" fill="#936760"/>
<path d="M200.387 113.704C200.334 113.416 200.342 113.12 200.412 112.835C200.478 112.504 200.649 112.203 200.9 111.976C201.23 111.738 201.63 111.617 202.037 111.635C202.732 111.59 203.43 111.614 204.121 111.708C204.409 111.727 204.693 111.793 204.96 111.903C204.96 111.976 203.652 111.757 202.032 111.864C201.673 111.846 201.318 111.942 201.017 112.137C200.799 112.333 200.644 112.59 200.573 112.874C200.526 113.154 200.464 113.431 200.387 113.704Z" fill="#6F4C47"/>
<path d="M201.617 114.06C202.022 114.226 202.418 114.413 202.803 114.621C203.22 114.758 203.627 114.921 204.023 115.109C203.568 115.14 203.113 115.041 202.71 114.826C202.279 114.684 201.898 114.417 201.617 114.06Z" fill="#6F4C47"/>
<path d="M205.756 106.213C206.167 106.275 206.549 106.464 206.848 106.754C207.148 107.043 207.349 107.419 207.424 107.828C207.361 107.828 207.151 107.34 206.688 106.921C206.224 106.501 205.731 106.277 205.756 106.213Z" fill="#6F4C47"/>
<path d="M152.949 212.973C152.881 212.973 155.545 201.749 158.903 187.948C162.26 174.148 165.032 162.992 165.1 162.992C165.169 162.992 162.504 174.216 159.147 188.021C155.789 201.827 153.017 212.988 152.949 212.973Z" fill="#455A64"/>
<path d="M225.978 229.262C225.978 229.331 179.423 229.389 122.005 229.389C64.5867 229.389 18.0168 229.331 18.0168 229.262C18.0168 229.194 64.5672 229.135 122.005 229.135C179.442 229.135 225.978 229.189 225.978 229.262Z" fill="#263238"/>
<path d="M201.739 53.2797L203.174 48.102C201.274 45.0246 200.595 41.3481 201.269 37.7952C201.943 34.2423 203.922 31.0701 206.816 28.9022C209.711 26.7343 213.311 25.7276 216.91 26.0799C220.509 26.4323 223.846 28.1183 226.265 30.8064C228.684 33.4946 230.01 36.9903 229.982 40.6065C229.955 44.2227 228.575 47.6976 226.115 50.3481C223.655 52.9986 220.292 54.633 216.688 54.9298C213.084 55.2267 209.499 54.1646 206.639 51.9523L201.739 53.2797Z" fill="white"/>
<path d="M201.739 53.2797L202.066 53.1821L203.008 52.9186L206.629 51.9036L206.595 51.9963C206.585 51.9856 206.58 51.9717 206.58 51.9573C206.58 51.9429 206.585 51.929 206.595 51.9182C206.606 51.9113 206.618 51.9076 206.631 51.9076C206.644 51.9076 206.657 51.9113 206.668 51.9182C208.591 53.3945 210.858 54.3583 213.256 54.7193C214.791 54.9552 216.354 54.9354 217.882 54.6608C220.729 54.1665 223.36 52.8262 225.433 50.8146C227.507 48.8029 228.926 46.2132 229.506 43.3831C229.929 41.2216 229.856 38.9924 229.292 36.8634C228.713 34.6399 227.604 32.5901 226.058 30.8901C224.513 29.19 222.578 27.8906 220.42 27.1034C218.203 26.2896 215.82 26.0353 213.481 26.3631C211.142 26.691 208.921 27.5908 207.013 28.9829C205.106 30.375 203.571 32.2162 202.545 34.3434C201.52 36.4706 201.035 38.8179 201.134 41.1773C201.236 43.6093 201.955 45.9754 203.223 48.0533C203.228 48.0692 203.228 48.0862 203.223 48.1021C202.735 49.7661 202.378 51.0301 202.125 51.9231C202.003 52.3574 201.905 52.6844 201.837 52.8991C201.768 53.1138 201.734 53.2456 201.734 53.2456C201.734 53.2456 201.759 53.1382 201.812 52.9186C201.866 52.699 201.959 52.3623 202.076 51.9426C202.31 51.0496 202.661 49.7466 203.11 48.0386V48.0874C201.575 45.6188 200.82 42.7443 200.945 39.8398C201.069 36.9353 202.067 34.1359 203.808 31.8077C206.041 28.8265 209.329 26.812 212.999 26.1769C216.669 25.5418 220.443 26.3342 223.548 28.3917C224.515 29.0477 225.403 29.8141 226.193 30.6756C226.989 31.5478 227.681 32.5091 228.257 33.5401C229.866 36.5591 230.383 40.0413 229.721 43.3977C229.132 46.271 227.688 48.8991 225.579 50.937C223.47 52.975 220.794 54.3274 217.902 54.8169C216.351 55.0907 214.767 55.1039 213.212 54.856C210.79 54.4688 208.507 53.4731 206.575 51.9621L206.658 51.8841C206.663 51.8891 206.668 51.8951 206.671 51.9018C206.673 51.9086 206.675 51.9158 206.675 51.9231C206.675 51.9304 206.673 51.9376 206.671 51.9444C206.668 51.9511 206.663 51.9571 206.658 51.9621L202.974 52.9381L202.032 53.1919L201.739 53.2797Z" fill="#263238"/>
<path d="M209.015 40.8895L210.704 39.1961L213.963 42.0948L220.361 35.9363L221.932 37.6296L213.724 45.3547L209.015 40.8895Z" fill="#B2C136"/>
</svg>
