<svg width="213" height="217" viewBox="0 0 213 217" fill="none" xmlns="http://www.w3.org/2000/svg">
<path d="M157.366 11.1928C157.366 11.1928 125.104 -8.81141 89.0187 4.66651C52.9342 18.1444 30.6969 55.2759 11.9072 84.8064C-6.88244 114.337 -2.99798 149.213 20.4765 169.66C43.9509 190.106 64.2013 171.472 100.068 177.882C135.935 184.29 144.811 191.74 177.308 176.476C209.806 161.213 221.924 111.606 203.537 69.1566C185.15 26.7081 157.366 11.1928 157.366 11.1928Z" fill="#F5E356"/>
<path opacity="0.7" d="M157.366 11.1928C157.366 11.1928 125.104 -8.81141 89.0187 4.66651C52.9342 18.1444 30.6969 55.2759 11.9072 84.8064C-6.88244 114.337 -2.99798 149.213 20.4765 169.66C43.9509 190.106 64.2013 171.472 100.068 177.882C135.935 184.29 144.811 191.74 177.308 176.476C209.806 161.213 221.924 111.606 203.537 69.1566C185.15 26.7081 157.366 11.1928 157.366 11.1928Z" fill="white"/>
<path d="M137.883 37.4994C137.323 34.505 136.12 29.9097 133.903 28.3537C130.545 25.9862 127.131 31.0627 123.067 31.712C119.003 32.3613 125.434 19.1856 118.326 16.8124C111.217 14.4392 109.181 23.2491 106.807 27.3126C104.434 31.3762 101.054 25.6335 98.0025 26.6354C94.9523 27.6373 96.6485 33.0666 93.6035 33.7438C90.5584 34.421 85.4765 30.3575 83.1033 32.7307C80.8644 34.9696 80.736 35.4061 77.5061 37.4714L137.883 37.4994Z" fill="#F5E356"/>
<path d="M45.1936 117.287C44.8242 115.328 44.0406 112.316 42.5854 111.298C40.3465 109.747 38.1524 113.072 35.4881 113.537C32.8239 114.001 37.0385 105.326 32.3817 103.775C27.7249 102.225 26.3927 107.99 24.8424 110.648C23.292 113.307 21.0699 109.529 19.0717 110.207C17.0735 110.884 18.1873 114.421 16.1891 114.863C14.1909 115.305 10.8663 112.624 9.3103 114.202C7.83818 115.675 7.75987 115.949 5.6665 117.303L45.1936 117.287Z" fill="#F5E356"/>
<path d="M207.841 99.6946C206.721 93.661 204.275 84.3812 199.809 81.224C192.975 76.4442 186.146 86.6868 177.98 88.0527C169.814 89.4186 182.761 62.7876 168.42 58.007C154.081 53.2271 149.978 70.9814 145.198 79.176C140.418 87.3697 133.573 75.7895 127.416 77.8383C121.259 79.8863 124.685 90.8179 118.539 92.1838C112.393 93.5488 102.139 85.3491 97.3588 90.1127C92.8194 94.652 92.579 95.5027 86.1311 99.6723L207.841 99.6946Z" fill="#F5E356"/>
<path opacity="0.4" d="M137.883 37.4994C137.323 34.505 136.12 29.9097 133.903 28.3537C130.545 25.9862 127.131 31.0627 123.067 31.712C119.003 32.3613 125.434 19.1856 118.326 16.8124C111.217 14.4392 109.181 23.2491 106.807 27.3126C104.434 31.3762 101.054 25.6335 98.0025 26.6354C94.9523 27.6373 96.6485 33.0666 93.6035 33.7438C90.5584 34.421 85.4765 30.3575 83.1033 32.7307C80.8644 34.9696 80.736 35.4061 77.5061 37.4714L137.883 37.4994Z" fill="white"/>
<path opacity="0.4" d="M45.1936 117.287C44.8242 115.328 44.0406 112.316 42.5854 111.298C40.3465 109.747 38.1524 113.072 35.4881 113.537C32.8239 114.001 37.0385 105.326 32.3817 103.775C27.7249 102.225 26.3927 107.99 24.8424 110.648C23.292 113.307 21.0699 109.529 19.0717 110.207C17.0735 110.884 18.1873 114.421 16.1891 114.863C14.1909 115.305 10.8663 112.624 9.3103 114.202C7.83818 115.675 7.75987 115.949 5.6665 117.303L45.1936 117.287Z" fill="white"/>
<path opacity="0.4" d="M207.841 99.6946C206.721 93.661 204.275 84.3812 199.809 81.224C192.975 76.4442 186.146 86.6868 177.98 88.0527C169.814 89.4186 182.761 62.7876 168.42 58.007C154.081 53.2271 149.978 70.9814 145.198 79.176C140.418 87.3697 133.573 75.7895 127.416 77.8383C121.259 79.8863 124.685 90.8179 118.539 92.1838C112.393 93.5488 102.139 85.3491 97.3588 90.1127C92.8194 94.652 92.579 95.5027 86.1311 99.6723L207.841 99.6946Z" fill="white"/>
<path d="M170.788 185.013C170.788 185.013 178.4 185.768 182.263 190.487C183.648 188.806 185.39 187.454 187.362 186.528C189.333 185.602 191.485 185.124 193.664 185.13C195.452 182.971 196.591 180.348 196.946 177.568C197.302 174.786 196.861 171.962 195.674 169.422C194.486 166.883 192.602 164.732 190.24 163.222C187.879 161.711 185.136 160.903 182.333 160.89C179.529 160.878 176.779 161.662 174.404 163.152C172.029 164.641 170.126 166.775 168.917 169.305C167.707 171.834 167.241 174.655 167.572 177.439C167.903 180.222 169.019 182.854 170.788 185.029V185.013Z" fill="#F5E356"/>
<path opacity="0.3" d="M170.788 185.013C170.788 185.013 178.4 185.768 182.263 190.487C183.648 188.806 185.39 187.454 187.362 186.528C189.333 185.602 191.485 185.124 193.664 185.13C195.452 182.971 196.591 180.348 196.946 177.568C197.302 174.786 196.861 171.962 195.674 169.422C194.486 166.883 192.602 164.732 190.24 163.222C187.879 161.711 185.136 160.903 182.333 160.89C179.529 160.878 176.779 161.662 174.404 163.152C172.029 164.641 170.126 166.775 168.917 169.305C167.707 171.834 167.241 174.655 167.572 177.439C167.903 180.222 169.019 182.854 170.788 185.029V185.013Z" fill="white"/>
<path d="M182.01 161.93L181.753 200.102H183.041L182.01 161.93Z" fill="#263238"/>
<path d="M182.397 189.048C182.397 189.048 184.965 184.425 189.595 183.008C189.595 183.008 184.709 184.167 182.268 188.147L182.397 189.048Z" fill="#263238"/>
<path d="M182.397 175.939C182.397 175.939 184.965 171.315 189.595 169.9C189.595 169.9 184.709 171.059 182.268 175.038L182.397 175.939Z" fill="#263238"/>
<path d="M182.397 182.494C182.397 182.494 184.965 177.871 189.595 176.454C189.595 176.454 184.709 177.613 182.268 181.593L182.397 182.494Z" fill="#263238"/>
<path d="M182.016 179.281C182.016 179.281 179.537 174.658 175.07 173.242C175.07 173.242 179.782 174.4 182.139 178.38L182.016 179.281Z" fill="#263238"/>
<path d="M182.016 185.707C182.016 185.707 179.537 181.083 175.07 179.667C175.07 179.667 179.782 180.826 182.139 184.805L182.016 185.707Z" fill="#263238"/>
<path d="M142.495 176.264C142.495 176.264 152.687 177.277 157.859 183.596C157.859 183.596 163.316 176.276 173.122 176.421C175.519 173.53 177.044 170.018 177.521 166.293C177.999 162.569 177.409 158.786 175.819 155.384C174.23 151.982 171.707 149.101 168.545 147.078C165.381 145.054 161.708 143.97 157.954 143.953C154.199 143.936 150.516 144.986 147.335 146.981C144.153 148.975 141.605 151.833 139.984 155.22C138.364 158.608 137.739 162.385 138.182 166.113C138.625 169.842 140.119 173.368 142.489 176.281L142.495 176.264Z" fill="#F5E356"/>
<path opacity="0.5" d="M142.495 176.264C142.495 176.264 152.687 177.277 157.859 183.596C157.859 183.596 163.316 176.276 173.122 176.421C175.519 173.53 177.044 170.018 177.521 166.293C177.999 162.569 177.409 158.786 175.819 155.384C174.23 151.982 171.707 149.101 168.545 147.078C165.381 145.054 161.708 143.97 157.954 143.953C154.199 143.936 150.516 144.986 147.335 146.981C144.153 148.975 141.605 151.833 139.984 155.22C138.364 158.608 137.739 162.385 138.182 166.113C138.625 169.842 140.119 173.368 142.489 176.281L142.495 176.264Z" fill="white"/>
<path d="M157.517 145.356L157.176 196.469H158.894L157.517 145.356Z" fill="#263238"/>
<path d="M158.037 181.671C158.037 181.671 161.48 175.475 167.676 173.583C167.676 173.583 161.133 175.128 157.865 180.462L158.037 181.671Z" fill="#263238"/>
<path d="M158.037 164.112C158.037 164.112 161.48 157.917 167.676 156.024C167.676 156.024 161.133 157.575 157.865 162.909L158.037 164.112Z" fill="#263238"/>
<path d="M158.037 172.894C158.037 172.894 161.48 166.698 167.676 164.801C167.676 164.801 161.133 166.351 157.865 171.685L158.037 172.894Z" fill="#263238"/>
<path d="M157.528 168.59C157.528 168.59 154.203 162.394 148.226 160.502C148.226 160.502 154.534 162.047 157.691 167.386L157.528 168.59Z" fill="#263238"/>
<path d="M157.528 177.193C157.528 177.193 154.203 170.998 148.226 169.105C148.226 169.105 154.534 170.656 157.691 175.99L157.528 177.193Z" fill="#263238"/>
<path d="M53.4829 175.995C53.4829 175.995 63.9215 177.025 69.2114 183.495C69.2114 183.495 74.8085 176.001 84.838 176.157C87.2943 173.199 88.8587 169.603 89.35 165.79C89.8404 161.976 89.2379 158.102 87.6118 154.618C85.9857 151.133 83.4028 148.183 80.1643 146.11C76.9258 144.037 73.1653 142.927 69.32 142.909C65.4756 142.892 61.704 143.967 58.4467 146.01C55.1894 148.052 52.5791 150.979 50.9205 154.447C49.2627 157.916 48.6237 161.785 49.0796 165.603C49.5349 169.421 51.066 173.031 53.494 176.012L53.4829 175.995Z" fill="#F5E356"/>
<path opacity="0.3" d="M53.4829 175.995C53.4829 175.995 63.9215 177.025 69.2114 183.495C69.2114 183.495 74.8085 176.001 84.838 176.157C87.2943 173.199 88.8587 169.603 89.35 165.79C89.8404 161.976 89.2379 158.102 87.6118 154.618C85.9857 151.133 83.4028 148.183 80.1643 146.11C76.9258 144.037 73.1653 142.927 69.32 142.909C65.4756 142.892 61.704 143.967 58.4467 146.01C55.1894 148.052 52.5791 150.979 50.9205 154.447C49.2627 157.916 48.6237 161.785 49.0796 165.603C49.5349 169.421 51.066 173.031 53.494 176.012L53.4829 175.995Z" fill="white"/>
<path d="M68.8638 144.354L68.5112 196.677H70.2743L68.8638 144.354Z" fill="#263238"/>
<path d="M69.3954 181.525C69.3954 181.525 72.9163 175.189 79.2803 173.248C79.2803 173.248 72.5637 174.832 69.2388 180.294L69.3954 181.525Z" fill="#263238"/>
<path d="M69.3952 163.558C69.3952 163.558 72.9161 157.217 79.2578 155.28C79.2578 155.28 72.5412 156.864 69.2163 162.322L69.3952 163.558Z" fill="#263238"/>
<path d="M69.3952 172.542C69.3952 172.542 72.9161 166.2 79.2578 164.264C79.2578 164.264 72.5412 165.848 69.2163 171.311L69.3952 172.542Z" fill="#263238"/>
<path d="M68.8699 168.137C68.8699 168.137 65.4722 161.795 59.3547 159.858C59.3547 159.858 65.8137 161.443 69.0428 166.905L68.8699 168.137Z" fill="#263238"/>
<path d="M68.8699 176.946C68.8699 176.946 65.4722 170.605 59.3547 168.663C59.3547 168.663 65.8137 170.253 69.0428 175.71L68.8699 176.946Z" fill="#263238"/>
<path d="M18.0923 186.26C18.0923 186.26 26.1913 187.061 30.2996 192.082C30.2996 192.082 34.6374 186.266 42.423 186.384C44.3274 184.088 45.5402 181.298 45.9202 178.339C46.3001 175.379 45.8317 172.374 44.5694 169.671C43.307 166.967 41.3027 164.679 38.7899 163.071C36.2772 161.463 33.3592 160.602 30.376 160.588C27.3929 160.574 24.4672 161.409 21.9397 162.994C19.4122 164.578 17.387 166.848 16.0998 169.539C14.8126 172.231 14.3166 175.232 14.6693 178.195C15.0221 181.157 16.2091 183.958 18.0923 186.272V186.26Z" fill="#F5E356"/>
<path opacity="0.5" d="M18.0923 186.26C18.0923 186.26 26.1913 187.061 30.2996 192.082C30.2996 192.082 34.6374 186.266 42.423 186.384C44.3274 184.088 45.5402 181.298 45.9202 178.339C46.3001 175.379 45.8317 172.374 44.5694 169.671C43.307 166.967 41.3027 164.679 38.7899 163.071C36.2772 161.463 33.3592 160.602 30.376 160.588C27.3929 160.574 24.4672 161.409 21.9397 162.994C19.4122 164.578 17.387 166.848 16.0998 169.539C14.8126 172.231 14.3166 175.232 14.6693 178.195C15.0221 181.157 16.2091 183.958 18.0923 186.272V186.26Z" fill="white"/>
<path d="M30.0311 161.706L29.7568 202.307H31.1226L30.0311 161.706Z" fill="#263238"/>
<path d="M30.4395 190.548C30.4395 190.548 33.1765 185.628 38.0964 184.123C38.0964 184.123 32.9022 185.354 30.3052 189.591L30.4395 190.548Z" fill="#263238"/>
<path d="M30.4395 176.606C30.4395 176.606 33.1765 171.686 38.0964 170.18C38.0964 170.18 32.9022 171.412 30.3052 175.648L30.4395 176.606Z" fill="#263238"/>
<path d="M30.4395 183.585C30.4395 183.585 33.1765 178.659 38.0964 177.159C38.0964 177.159 32.9022 178.391 30.3052 182.628L30.4395 183.585Z" fill="#263238"/>
<path d="M30.0254 180.159C30.0254 180.159 27.3836 175.24 22.6372 173.734C22.6372 173.734 27.6746 174.965 30.1542 179.202L30.0254 180.159Z" fill="#263238"/>
<path d="M30.0254 186.994C30.0254 186.994 27.3836 182.074 22.6372 180.568C22.6372 180.568 27.6746 181.8 30.1542 186.037L30.0254 186.994Z" fill="#263238"/>
<path d="M201.858 197.74L198.678 197.181C198.41 197.035 198.125 196.895 197.822 196.76L200.352 194.231L192.836 194.735L192.08 193.481L190.075 193.979L189.074 191.471L186.315 192.479L185.564 188.969L183.057 190.223L180.549 188.214L179.788 189.742L177.785 189.238L177.096 190.268L176.458 190.105L175.551 188.214L172.473 189.12L170.794 188.746L170.273 187.962H167.043L166.484 187.855L166.243 185.706L162.235 185.958L160.232 183.719L158.475 185.723L157.478 184.704L156.224 185.208L154.467 182.97C154.467 182.97 152.967 185.208 151.965 185.477C150.963 185.745 149.205 183.719 149.205 183.719L148.182 185.085L147.062 184.962L146.211 183.971L144.716 184.704L144.112 184.649L143.692 182.97L140.681 183.971L138.678 182.214L137.502 184.094L136.684 184.038L135.419 183.719L132.66 182.97L131.658 183.468L128.401 180.714V183.563H128.105L124.892 181.727L124.466 183.406H123.582L122.882 181.727L119.904 183.305H118.505L118.37 182.499L113.333 183.003L111.581 179.991L110.076 182.751L108.324 180.244L106.79 183.305H105.111L104.048 182.477L103.802 183.333L102.396 183.372L100.549 181.95L100.298 183.199L98.3105 182.465L96.3403 183.585H95.9595L95.0532 182.225L92.0415 183.226L91.1634 183.814L89.6015 183.898L89.2883 182.477L85.7956 184.156L84.066 184.268C83.478 183.675 82.4485 182.751 81.7655 182.751C81.4497 182.776 81.1459 182.881 80.8823 183.056C80.6187 183.231 80.4047 183.471 80.2601 183.753L79.2802 182.952L78.1325 184.671L77.3828 184.738L76.5261 183.702L74.0194 184.956L73.0172 182.717L70.258 184.956L69.7539 183.199L66.9664 184.956L65.2094 182.952L63.407 186.104L62.8473 186.165L61.1682 184.704L59.7124 186.524L58.7162 186.646L57.4068 184.967L56.9027 186.221L54.6638 184.967L53.41 187.206L50.9024 186.205L48.0761 188.063L44.6563 188.55L43.1674 187.481L41.9137 188.23L40.1562 187.481L39.6581 188.986L37.9005 188.483L36.5796 189.803L36.3389 189.843L35.6225 188.214L33.1373 189.742L31.6373 187.738L29.628 190.246L26.3704 190.491L23.3647 190.744L21.1259 191.745L18.9486 192.983L17.3646 192.747L15.9317 193.66L15.7806 193.699L14.1014 193.217L12.8476 193.968L10.6088 193.721L10.2618 195.44C9.70211 195.641 9.18716 195.848 8.66099 196.066C8.16289 196.016 7.6535 195.977 7.34566 195.977C7.03782 195.977 6.62924 196.537 6.22623 197.192C2.57131 199.083 0.332447 201.451 3.22063 203.992C7.01548 207.35 16.6538 205.872 21.0979 205.576C40.1282 204.311 54.4961 200.321 61.8845 200.969C69.2729 201.619 39.9379 216.994 71.6624 217C103.387 217.005 168.493 213.328 178.008 212.432C187.523 211.537 168.566 208.045 171.292 203.858C174.017 199.671 196.148 203.219 199.871 202.223C202.34 201.563 201.55 199.912 200.755 198.865L201.858 197.74Z" fill="#F5E356"/>
<path opacity="0.4" d="M201.858 197.74L198.678 197.181C198.41 197.035 198.125 196.895 197.822 196.76L200.352 194.231L192.836 194.735L192.08 193.481L190.075 193.979L189.074 191.471L186.315 192.479L185.564 188.969L183.057 190.223L180.549 188.214L179.788 189.742L177.785 189.238L177.096 190.268L176.458 190.105L175.551 188.214L172.473 189.12L170.794 188.746L170.273 187.962H167.043L166.484 187.855L166.243 185.706L162.235 185.958L160.232 183.719L158.475 185.723L157.478 184.704L156.224 185.208L154.467 182.97C154.467 182.97 152.967 185.208 151.965 185.477C150.963 185.745 149.205 183.719 149.205 183.719L148.182 185.085L147.062 184.962L146.211 183.971L144.716 184.704L144.112 184.649L143.692 182.97L140.681 183.971L138.678 182.214L137.502 184.094L136.684 184.038L135.419 183.719L132.66 182.97L131.658 183.468L128.401 180.714V183.563H128.105L124.892 181.727L124.466 183.406H123.582L122.882 181.727L119.904 183.305H118.505L118.37 182.499L113.333 183.003L111.581 179.991L110.076 182.751L108.324 180.244L106.79 183.305H105.111L104.048 182.477L103.802 183.333L102.396 183.372L100.549 181.95L100.298 183.199L98.3105 182.465L96.3403 183.585H95.9595L95.0532 182.225L92.0415 183.226L91.1634 183.814L89.6015 183.898L89.2883 182.477L85.7956 184.156L84.066 184.268C83.478 183.675 82.4485 182.751 81.7655 182.751C81.4497 182.776 81.1459 182.881 80.8823 183.056C80.6187 183.231 80.4047 183.471 80.2601 183.753L79.2802 182.952L78.1325 184.671L77.3828 184.738L76.5261 183.702L74.0194 184.956L73.0172 182.717L70.258 184.956L69.7539 183.199L66.9664 184.956L65.2094 182.952L63.407 186.104L62.8473 186.165L61.1682 184.704L59.7124 186.524L58.7162 186.646L57.4068 184.967L56.9027 186.221L54.6638 184.967L53.41 187.206L50.9024 186.205L48.0761 188.063L44.6563 188.55L43.1674 187.481L41.9137 188.23L40.1562 187.481L39.6581 188.986L37.9005 188.483L36.5796 189.803L36.3389 189.843L35.6225 188.214L33.1373 189.742L31.6373 187.738L29.628 190.246L26.3704 190.491L23.3647 190.744L21.1259 191.745L18.9486 192.983L17.3646 192.747L15.9317 193.66L15.7806 193.699L14.1014 193.217L12.8476 193.968L10.6088 193.721L10.2618 195.44C9.70211 195.641 9.18716 195.848 8.66099 196.066C8.16289 196.016 7.6535 195.977 7.34566 195.977C7.03782 195.977 6.62924 196.537 6.22623 197.192C2.57131 199.083 0.332447 201.451 3.22063 203.992C7.01548 207.35 16.6538 205.872 21.0979 205.576C40.1282 204.311 54.4961 200.321 61.8845 200.969C69.2729 201.619 39.9379 216.994 71.6624 217C103.387 217.005 168.493 213.328 178.008 212.432C187.523 211.537 168.566 208.045 171.292 203.858C174.017 199.671 196.148 203.219 199.871 202.223C202.34 201.563 201.55 199.912 200.755 198.865L201.858 197.74Z" fill="white"/>
<path d="M123.246 121.826C123.246 121.826 121.629 126.057 120.386 128.543C119.143 131.027 117.028 141.617 116.524 146.845C116.02 152.073 115.281 158.672 115.281 158.672C115.281 158.672 112.416 163.9 111.05 165.892C109.684 167.885 107.691 169.004 108.811 170.37C109.93 171.736 112.673 169.872 114.666 168.752C116.658 167.633 116.904 165.641 118.024 165.142C119.143 164.644 121.51 165.013 121.136 161.784C120.761 158.554 119.02 156.932 119.395 156.058C119.77 155.185 122.378 146.599 123.498 144.36C124.617 142.121 127.108 139.502 128.105 136.02C128.729 133.538 129.023 130.984 128.978 128.425C128.978 128.425 131.34 123.695 131.715 123.444C132.089 123.191 124.617 122.822 123.246 121.826Z" fill="white"/>
<path d="M123.246 121.826C123.246 121.826 121.629 126.057 120.386 128.543C119.143 131.027 117.028 141.617 116.524 146.845C116.02 152.073 115.281 158.672 115.281 158.672C115.281 158.672 112.416 163.9 111.05 165.892C109.684 167.885 107.691 169.004 108.811 170.37C109.93 171.736 112.673 169.872 114.666 168.752C116.658 167.633 116.904 165.641 118.024 165.142C119.143 164.644 121.51 165.013 121.136 161.784C120.761 158.554 119.02 156.932 119.395 156.058C119.77 155.185 122.378 146.599 123.498 144.36C124.617 142.121 127.108 139.502 128.105 136.02C128.729 133.538 129.023 130.984 128.978 128.425C128.978 128.425 131.34 123.695 131.715 123.444C132.089 123.191 124.617 122.822 123.246 121.826Z" fill="#D9D9D9" stroke="#263238" stroke-linecap="round" stroke-linejoin="round"/>
<path opacity="0.25" d="M121.46 126.209C122.546 126.769 124.628 127.798 125.904 127.798H127.69C127.69 127.798 129.078 130.972 126.699 136.328C124.32 141.685 120.151 148.026 119.16 152.19C118.601 154.513 117.134 161.756 115.936 167.717C116.843 166.676 117.201 165.517 118.018 165.154C119.137 164.655 121.505 165.024 121.13 161.795C120.755 158.565 119.015 156.943 119.39 156.069C119.765 155.196 122.378 146.599 123.498 144.36C124.617 142.121 127.108 139.502 128.104 136.02C128.729 133.538 129.022 130.984 128.978 128.425C128.978 128.425 131.34 123.695 131.715 123.444C132.089 123.191 124.617 122.822 123.246 121.826C123.246 121.826 122.378 124.043 121.46 126.209Z" fill="black"/>
<path d="M123.246 121.826C123.246 121.826 121.629 126.057 120.386 128.543C119.143 131.027 117.028 141.617 116.524 146.845C116.02 152.073 115.281 158.672 115.281 158.672C115.281 158.672 112.416 163.9 111.05 165.892C109.684 167.885 107.691 169.004 108.811 170.37C109.93 171.736 112.673 169.872 114.666 168.752C116.658 167.633 116.904 165.641 118.024 165.142C119.143 164.644 121.51 165.013 121.136 161.784C120.761 158.554 119.02 156.932 119.395 156.058C119.77 155.185 122.378 146.599 123.498 144.36C124.617 142.121 127.108 139.502 128.105 136.02C128.729 133.538 129.023 130.984 128.978 128.425C128.978 128.425 131.34 123.695 131.715 123.444C132.089 123.191 124.617 122.822 123.246 121.826Z" stroke="#263238" stroke-linecap="round" stroke-linejoin="round"/>
<path d="M108.806 170.382C109.925 171.753 112.667 169.883 114.659 168.764C116.653 167.645 116.898 165.652 118.018 165.154C119.137 164.656 121.505 165.025 121.13 161.796C120.8 158.919 119.39 157.318 119.339 156.389C119.08 157.304 118.53 158.11 117.772 158.684C116.155 160.055 115.281 158.684 115.281 158.684C115.281 158.684 112.415 163.911 111.05 165.904C109.684 167.896 107.686 169.033 108.806 170.382Z" fill="#263238" stroke="#263238" stroke-linecap="round" stroke-linejoin="round"/>
<path d="M121.136 161.824C120.531 162.354 119.859 162.805 119.137 163.161C117.022 164.158 116.524 166.022 113.54 168.389C112.861 168.986 112.054 169.424 111.182 169.667C110.31 169.912 109.394 169.957 108.503 169.799C108.559 170.005 108.66 170.197 108.8 170.359C109.919 171.73 112.662 169.861 114.654 168.741C116.647 167.622 116.893 165.63 118.013 165.132C119.132 164.633 121.483 165.019 121.136 161.824Z" fill="white" stroke="#263238" stroke-linecap="round" stroke-linejoin="round"/>
<path d="M155.368 122.447L158.233 126.807C158.233 126.807 159.476 132.533 161.345 136.267C163.215 140 167.821 146.341 170.06 149.089C172.299 151.838 173.049 157.183 173.049 157.183C173.049 157.183 171.93 159.55 172.674 161.291C173.418 163.032 175.54 164.281 175.915 165.898C176.29 167.516 178.528 171.377 180.269 171.125C182.01 170.874 183.135 168.64 181.764 165.4C180.392 162.159 177.779 159.674 177.034 156.31C176.29 152.946 173.922 139.003 171.93 134.649C170.799 132.138 169.466 129.724 167.944 127.428L166.075 119.956C166.075 119.956 159.106 123.695 155.368 122.447Z" fill="white"/>
<path d="M155.368 122.447L158.233 126.807C158.233 126.807 159.476 132.533 161.345 136.267C163.215 140 167.821 146.341 170.06 149.089C172.299 151.838 173.049 157.183 173.049 157.183C173.049 157.183 171.93 159.55 172.674 161.291C173.418 163.032 175.54 164.281 175.915 165.898C176.29 167.516 178.528 171.377 180.269 171.125C182.01 170.874 183.135 168.64 181.764 165.4C180.392 162.159 177.779 159.674 177.034 156.31C176.29 152.946 173.922 139.003 171.93 134.649C170.799 132.138 169.466 129.724 167.944 127.428L166.075 119.956C166.075 119.956 159.106 123.695 155.368 122.447Z" fill="#D9D9D9" stroke="#263238" stroke-linecap="round" stroke-linejoin="round"/>
<path opacity="0.25" d="M171.93 134.649C170.799 132.138 169.466 129.724 167.944 127.428L166.075 119.956C166.075 119.956 159.106 123.695 155.368 122.447L158.217 126.78C158.704 126.78 159.241 126.807 159.817 126.807C161.387 126.766 162.934 126.43 164.379 125.817C164.379 125.817 169.137 133.351 171.516 139.698C173.167 144.103 175.299 150.791 176.71 154.742C175.741 149.845 173.687 138.499 171.93 134.649Z" fill="black"/>
<path d="M155.368 122.447L158.233 126.807C158.233 126.807 159.476 132.533 161.345 136.267C163.215 140 167.821 146.341 170.06 149.089C172.299 151.838 173.049 157.183 173.049 157.183C173.049 157.183 171.93 159.55 172.674 161.291C173.418 163.032 175.54 164.281 175.915 165.898C176.29 167.516 178.528 171.377 180.269 171.125C182.01 170.874 183.135 168.64 181.764 165.4C180.392 162.159 177.779 159.674 177.034 156.31C176.29 152.946 173.922 139.003 171.93 134.649C170.799 132.138 169.466 129.724 167.944 127.428L166.075 119.956C166.075 119.956 159.106 123.695 155.368 122.447Z" stroke="#263238" stroke-linecap="round" stroke-linejoin="round"/>
<path d="M181.765 165.4C180.583 162.601 178.479 160.363 177.443 157.659C177.263 158.192 176.95 158.671 176.536 159.052C175.165 160.172 173.05 157.183 173.05 157.183C173.05 157.183 171.93 159.55 172.675 161.291C173.418 163.032 175.54 164.281 175.915 165.898C176.29 167.516 178.529 171.377 180.269 171.125C182.01 170.874 183.136 168.64 181.765 165.4Z" fill="#263238" stroke="#263238" stroke-linecap="round" stroke-linejoin="round"/>
<path d="M175.915 165.898C176.072 166.482 176.298 167.046 176.587 167.577C176.519 167.435 176.461 167.29 176.413 167.14C175.786 165.148 175.417 162.662 174.046 161.409C173.376 160.749 172.844 159.96 172.484 159.092C172.346 159.827 172.412 160.585 172.675 161.286C173.424 163.038 175.551 164.28 175.915 165.898Z" fill="white" stroke="#263238" stroke-linecap="round" stroke-linejoin="round"/>
<path d="M182.268 167.001C182.116 168.048 181.809 169.24 181.148 169.883C179.989 171.042 177.852 169.705 176.844 168.054C177.745 169.654 179.122 171.294 180.275 171.126C181.708 170.925 182.721 169.357 182.268 167.001Z" fill="white" stroke="#263238" stroke-linecap="round" stroke-linejoin="round"/>
<path d="M160.227 83.3567C160.227 83.3567 160.472 83.6032 159.353 84.3478C158.233 85.0924 155.496 85.7188 156.118 86.715C156.739 87.7112 157.36 88.2093 156.862 88.585C156.364 88.9599 155.62 88.9599 154.998 89.452C154.377 89.945 152.508 83.9781 152.508 83.9781C152.508 83.9781 157.114 81.717 160.227 83.3567Z" fill="white"/>
<path d="M160.227 83.3567C160.227 83.3567 160.472 83.6032 159.353 84.3478C158.233 85.0924 155.496 85.7188 156.118 86.715C156.739 87.7112 157.36 88.2093 156.862 88.585C156.364 88.9599 155.62 88.9599 154.998 89.452C154.377 89.945 152.508 83.9781 152.508 83.9781C152.508 83.9781 157.114 81.717 160.227 83.3567Z" fill="#F5E356"/>
<path opacity="0.25" d="M160.227 83.3567C160.227 83.3567 160.472 83.6032 159.353 84.3478C158.233 85.0924 155.496 85.7188 156.118 86.715C156.739 87.7112 157.36 88.2093 156.862 88.585C156.364 88.9599 155.62 88.9599 154.998 89.452C154.377 89.945 152.508 83.9781 152.508 83.9781C152.508 83.9781 157.114 81.717 160.227 83.3567Z" fill="black"/>
<path d="M160.227 83.3567C160.227 83.3567 160.472 83.6032 159.353 84.3478C158.233 85.0924 155.496 85.7188 156.118 86.715C156.739 87.7112 157.36 88.2093 156.862 88.585C156.364 88.9599 155.62 88.9599 154.998 89.452C154.377 89.945 152.508 83.9781 152.508 83.9781C152.508 83.9781 157.114 81.717 160.227 83.3567Z" stroke="#263238" stroke-linecap="round" stroke-linejoin="round"/>
<path d="M131.714 87.4652L130.595 93.9354C130.595 93.9354 125.988 103.898 124.37 109.003C122.753 114.107 120.386 123.069 120.386 123.069C120.386 123.069 122.127 124.44 127.36 125.308C132.592 126.175 139.17 122.822 139.17 122.822C139.17 122.822 141.162 112.115 141.783 110.743C142.405 109.372 144.145 105.762 144.145 105.762H145.769L150 122.201C150 122.201 153.857 123.197 156.101 123.567C158.345 123.936 161.698 124.188 164.692 122.072C166.634 120.598 168.245 118.733 169.422 116.598C169.422 116.598 164.692 105.404 162.571 100.786C160.45 96.1682 155.602 88.3322 155.602 88.3322L154.108 83.228L131.714 87.4652Z" fill="#263238" stroke="#263238" stroke-linecap="round" stroke-linejoin="round"/>
<path d="M131.966 96.4258L137.193 101.408" stroke="white" stroke-linecap="round" stroke-linejoin="round"/>
<path d="M138.319 103.014L139.187 103.647" stroke="white" stroke-linecap="round" stroke-linejoin="round"/>
<path d="M132.089 98.4185L137.328 102.281" stroke="white" stroke-linecap="round" stroke-linejoin="round"/>
<path d="M136.517 122.576C137.261 122.3 137.987 121.975 138.689 121.603" stroke="white" stroke-linecap="round" stroke-linejoin="round"/>
<path d="M121.757 122.073C125.49 123.626 129.591 124.075 133.572 123.365" stroke="white" stroke-linecap="round" stroke-linejoin="round"/>
<path d="M150.516 120.953C150.516 120.953 159.106 126.433 168.427 115.972" stroke="white" stroke-linecap="round" stroke-linejoin="round"/>
<path d="M157.114 92.8159L154.624 97.5452" stroke="white" stroke-linecap="round" stroke-linejoin="round"/>
<path d="M136.819 91.1988C141.443 91.6661 146.104 90.8017 150.252 88.7075" stroke="white" stroke-linecap="round" stroke-linejoin="round"/>
<path d="M154.932 85.9932L154.125 83.228L131.737 87.4652L131.536 88.6181C135.198 89.6878 139.052 89.9309 142.819 89.3284C146.966 88.6626 151.028 87.544 154.932 85.9932Z" fill="white"/>
<path d="M154.932 85.9932L154.125 83.228L131.737 87.4652L131.536 88.6181C135.198 89.6878 139.052 89.9309 142.819 89.3284C146.966 88.6626 151.028 87.544 154.932 85.9932Z" fill="#949494" stroke="#263238" stroke-linecap="round" stroke-linejoin="round"/>
<path d="M154.932 85.9932L154.125 83.228L131.737 87.4652L131.536 88.6181C135.198 89.6878 139.052 89.9309 142.819 89.3284C146.966 88.6626 151.028 87.544 154.932 85.9932Z" stroke="#263238" stroke-linecap="round" stroke-linejoin="round"/>
<path d="M167.234 38.1601C166.008 33.7213 164.386 29.4017 162.387 25.2531C160.87 22.0235 159.364 17.9768 157.025 15.251C155.53 13.5102 152.788 12.1389 152.166 12.3908C151.545 12.6426 148.808 13.7565 148.808 15.251C148.808 16.7454 149.804 16.7454 149.804 16.7454C149.804 16.7454 149.553 18.6148 150.302 19.3592C151.052 20.1037 154.909 19.8574 154.909 19.8574C155.597 20.8702 156.171 21.9573 156.616 23.0982C157.36 25.5833 158.021 26.0814 158.519 30.5647C159.011 34.132 159.718 37.6664 160.635 41.149C160.155 41.4441 159.732 41.8233 159.387 42.2684C158.642 43.1415 153.912 47.8656 153.912 47.8656C152.545 48.5143 151.128 49.0551 149.676 49.4831C148.402 49.8794 147.168 50.3967 145.992 51.0277C145.226 50.9387 144.454 50.8544 144.039 50.8544C143.166 50.8544 137.071 51.9743 137.071 51.9743C135.662 51.1355 134.159 50.4671 132.593 49.9813C131.141 49.5533 129.724 49.0124 128.356 48.3637C128.356 48.3637 123.626 43.6341 122.882 42.7665C122.537 42.3215 122.114 41.9423 121.634 41.6471C122.55 38.1646 123.257 34.6302 123.749 31.0629C124.152 27.4471 125.194 23.3388 127.365 20.3556C127.365 20.3556 131.222 20.6075 131.972 19.8574C132.722 19.1073 132.464 17.2435 132.464 17.2435C132.464 17.2435 133.46 17.2435 133.46 15.7491C133.46 14.2547 130.723 13.1353 130.102 12.8889C129.481 12.6426 126.744 14.0084 125.244 15.7491C123.744 17.4898 123.878 19.2362 122.384 21.7269C120.889 24.2176 115.668 36.2795 115.035 38.6583C114.403 41.037 113.669 42.3915 113.792 43.5166C113.916 44.6416 119.893 51.1064 121.387 52.8523C122.882 54.5991 128.608 60.5711 128.608 60.5711C128.608 60.5711 130.723 71.0268 131.345 74.7651C131.966 78.5042 131.596 88.8307 131.596 88.8307C131.596 88.8307 138.442 87.3364 144.918 86.5919C151.394 85.8481 158.486 83.3568 159.359 83.3568H160.232C160.232 83.3568 155.373 77.3797 155.373 76.5059C155.373 75.8118 155.536 63.1292 155.597 58.0353C157.405 56.1327 159.963 53.4232 160.886 52.3431C162.381 50.597 168.359 44.1266 168.482 43.0072C168.605 41.8877 167.855 40.5277 167.234 38.1601Z" fill="white"/>
<path d="M167.234 38.1601C166.008 33.7213 164.386 29.4017 162.387 25.2531C160.87 22.0235 159.364 17.9768 157.025 15.251C155.53 13.5102 152.788 12.1389 152.166 12.3908C151.545 12.6426 148.808 13.7565 148.808 15.251C148.808 16.7454 149.804 16.7454 149.804 16.7454C149.804 16.7454 149.553 18.6148 150.302 19.3592C151.052 20.1037 154.909 19.8574 154.909 19.8574C155.597 20.8702 156.171 21.9573 156.616 23.0982C157.36 25.5833 158.021 26.0814 158.519 30.5647C159.011 34.132 159.718 37.6664 160.635 41.149C160.155 41.4441 159.732 41.8233 159.387 42.2684C158.642 43.1415 153.912 47.8656 153.912 47.8656C152.545 48.5143 151.128 49.0551 149.676 49.4831C148.402 49.8794 147.168 50.3967 145.992 51.0277C145.226 50.9387 144.454 50.8544 144.039 50.8544C143.166 50.8544 137.071 51.9743 137.071 51.9743C135.662 51.1355 134.159 50.4671 132.593 49.9813C131.141 49.5533 129.724 49.0124 128.356 48.3637C128.356 48.3637 123.626 43.6341 122.882 42.7665C122.537 42.3215 122.114 41.9423 121.634 41.6471C122.55 38.1646 123.257 34.6302 123.749 31.0629C124.152 27.4471 125.194 23.3388 127.365 20.3556C127.365 20.3556 131.222 20.6075 131.972 19.8574C132.722 19.1073 132.464 17.2435 132.464 17.2435C132.464 17.2435 133.46 17.2435 133.46 15.7491C133.46 14.2547 130.723 13.1353 130.102 12.8889C129.481 12.6426 126.744 14.0084 125.244 15.7491C123.744 17.4898 123.878 19.2362 122.384 21.7269C120.889 24.2176 115.668 36.2795 115.035 38.6583C114.403 41.037 113.669 42.3915 113.792 43.5166C113.916 44.6416 119.893 51.1064 121.387 52.8523C122.882 54.5991 128.608 60.5711 128.608 60.5711C128.608 60.5711 130.723 71.0268 131.345 74.7651C131.966 78.5042 131.596 88.8307 131.596 88.8307C131.596 88.8307 138.442 87.3364 144.918 86.5919C151.394 85.8481 158.486 83.3568 159.359 83.3568H160.232C160.232 83.3568 155.373 77.3797 155.373 76.5059C155.373 75.8118 155.536 63.1292 155.597 58.0353C157.405 56.1327 159.963 53.4232 160.886 52.3431C162.381 50.597 168.359 44.1266 168.482 43.0072C168.605 41.8877 167.855 40.5277 167.234 38.1601Z" fill="#D9D9D9" stroke="#263238" stroke-linecap="round" stroke-linejoin="round"/>
<path opacity="0.25" d="M132.089 77.2387C131.715 75.4928 131.216 65.406 130.595 62.1709C129.974 58.9359 128.48 57.6932 127.606 56.3222C126.733 54.9511 124.247 52.9639 121.13 49.6057C118.013 46.2474 115.158 43.3872 115.662 40.8965C116.003 39.167 119.361 29.4279 121.376 23.6572C119.289 27.939 115.556 36.6818 115.035 38.6576C114.414 41.0253 113.669 42.3909 113.793 43.5159C113.916 44.641 119.893 51.1059 121.388 52.8518C122.882 54.5985 128.608 60.5705 128.608 60.5705C128.608 60.5705 130.724 71.0262 131.345 74.7645C131.596 76.7663 131.713 78.7818 131.697 80.7981C132.011 79.2037 132.213 77.7984 132.089 77.2387Z" fill="black"/>
<path opacity="0.25" d="M166.596 42.3916C166.596 44.2611 157.506 50.9832 155.401 54.4699C153.297 57.9574 153.907 66.5491 153.907 70.0306C153.947 71.4436 153.906 72.8583 153.784 74.267L155.407 76.2371C155.407 74.2448 155.564 62.804 155.626 58.0464C157.433 56.1439 159.991 53.4352 160.915 52.3543C162.409 50.6082 168.387 44.1379 168.51 43.0185C168.633 41.8991 167.889 40.5278 167.268 38.1601C166.041 33.7214 164.419 29.4017 162.42 25.2531C160.904 22.0235 159.398 17.9768 157.058 15.251C157.058 15.251 161.004 24.8389 163.372 31.1861C165.739 37.5333 166.596 40.5278 166.596 42.3916Z" fill="black"/>
<path d="M167.234 38.1601C166.008 33.7213 164.386 29.4017 162.387 25.2531C160.87 22.0235 159.364 17.9768 157.025 15.251C155.53 13.5102 152.788 12.1389 152.166 12.3908C151.545 12.6426 148.808 13.7565 148.808 15.251C148.808 16.7454 149.804 16.7454 149.804 16.7454C149.804 16.7454 149.553 18.6148 150.302 19.3592C151.052 20.1037 154.909 19.8574 154.909 19.8574C155.597 20.8702 156.171 21.9573 156.616 23.0982C157.36 25.5833 158.021 26.0814 158.519 30.5647C159.011 34.132 159.718 37.6664 160.635 41.149C160.155 41.4441 159.732 41.8233 159.387 42.2684C158.642 43.1415 153.912 47.8656 153.912 47.8656C152.545 48.5143 151.128 49.0551 149.676 49.4831C148.402 49.8794 147.168 50.3967 145.992 51.0277C145.226 50.9387 144.454 50.8544 144.039 50.8544C143.166 50.8544 137.071 51.9743 137.071 51.9743C135.662 51.1355 134.159 50.4671 132.593 49.9813C131.141 49.5533 129.724 49.0124 128.356 48.3637C128.356 48.3637 123.626 43.6341 122.882 42.7665C122.537 42.3215 122.114 41.9423 121.634 41.6471C122.55 38.1646 123.257 34.6302 123.749 31.0629C124.152 27.4471 125.194 23.3388 127.365 20.3556C127.365 20.3556 131.222 20.6075 131.972 19.8574C132.722 19.1073 132.464 17.2435 132.464 17.2435C132.464 17.2435 133.46 17.2435 133.46 15.7491C133.46 14.2547 130.723 13.1353 130.102 12.8889C129.481 12.6426 126.744 14.0084 125.244 15.7491C123.744 17.4898 123.878 19.2362 122.384 21.7269C120.889 24.2176 115.668 36.2795 115.035 38.6583C114.403 41.037 113.669 42.3915 113.792 43.5166C113.916 44.6416 119.893 51.1064 121.387 52.8523C122.882 54.5991 128.608 60.5711 128.608 60.5711C128.608 60.5711 130.723 71.0268 131.345 74.7651C131.966 78.5042 131.596 88.8307 131.596 88.8307C131.596 88.8307 138.442 87.3364 144.918 86.5919C151.394 85.8481 158.486 83.3568 159.359 83.3568H160.232C160.232 83.3568 155.373 77.3797 155.373 76.5059C155.373 75.8118 155.536 63.1292 155.597 58.0353C157.405 56.1327 159.963 53.4232 160.886 52.3431C162.381 50.597 168.359 44.1266 168.482 43.0072C168.605 41.8877 167.855 40.5277 167.234 38.1601Z" stroke="#263238" stroke-linecap="round" stroke-linejoin="round"/>
<path d="M132.453 17.2433C132.453 17.2433 129.341 14.6295 129.095 15.749C128.848 16.8684 130.964 18.3628 130.964 18.3628" stroke="#263238" stroke-linecap="round" stroke-linejoin="round"/>
<path d="M128.227 16.9971C128.261 17.3238 128.229 17.654 128.135 17.9686C128.04 18.2832 127.884 18.576 127.676 18.8303C127.468 19.0845 127.212 19.2952 126.923 19.4503C126.633 19.6055 126.315 19.7018 125.988 19.734" stroke="#263238" stroke-linecap="round" stroke-linejoin="round"/>
<path d="M129.974 17.6182L127.482 16.37L127.606 15.5025L128.35 15.1274" stroke="#263238" stroke-linecap="round" stroke-linejoin="round"/>
<path d="M130.214 13.689C130.339 14.3788 130.415 15.0764 130.444 15.7767" stroke="#263238" stroke-linecap="round" stroke-linejoin="round"/>
<path d="M131.602 14.0361C131.74 14.8814 131.74 15.7433 131.602 16.5885" stroke="#263238" stroke-linecap="round" stroke-linejoin="round"/>
<path d="M132.878 14.6182C132.934 15.0065 132.889 15.4027 132.747 15.7684C132.605 16.1341 132.37 16.4569 132.067 16.7059" stroke="#263238" stroke-linecap="round" stroke-linejoin="round"/>
<path d="M149.804 16.7452C149.804 16.7452 154.125 15.6257 153.504 16.8683C152.883 18.1109 150.89 18.4915 150.89 18.4915" stroke="#263238" stroke-linecap="round" stroke-linejoin="round"/>
<path d="M156.118 18.6145C155.574 18.1839 154.99 17.8088 154.372 17.4951C153.75 17.2432 153.627 16.3757 153.627 16.3757C153.627 16.3757 154.998 16.1294 154.998 15.5081C154.998 14.8869 154.002 14.3887 154.002 14.3887L153.874 15.0156" stroke="#263238" stroke-linecap="round" stroke-linejoin="round"/>
<path d="M152.25 13.4316C152.25 13.4316 151.758 15.9 153.627 16.3478" stroke="#263238" stroke-linecap="round" stroke-linejoin="round"/>
<path d="M150.856 13.5718C150.856 13.5718 150.51 15.43 151.668 16.3704" stroke="#263238" stroke-linecap="round" stroke-linejoin="round"/>
<path d="M149.804 14.2715C149.804 14.2715 149.452 15.8947 150.263 16.4711" stroke="#263238" stroke-linecap="round" stroke-linejoin="round"/>
<path d="M144.912 86.5915C151.388 85.8418 158.48 83.3565 159.353 83.3565H160.227C160.227 83.3565 155.368 77.3793 155.368 76.5055C155.368 75.8114 155.531 63.1289 155.591 58.0349L158.39 55.0635C157.019 54.6544 155.536 53.9441 154.987 52.7176C154.304 51.2011 154.635 48.5761 154.987 46.7515L153.868 47.8709C152.5 48.5196 151.083 49.0604 149.631 49.4884C148.357 49.8848 147.124 50.402 145.948 51.0334C145.181 50.9435 144.409 50.8597 143.995 50.8597C143.121 50.8597 137.026 51.9791 137.026 51.9791C135.617 51.1412 134.114 50.4725 132.548 49.9866C131.096 49.5586 129.679 49.0177 128.312 48.369L128.132 48.1899C128.395 50.2313 128.455 52.294 128.312 54.3472C128.076 56.1881 126.598 57.0499 125.574 57.4307C127.169 59.1099 128.563 60.5708 128.563 60.5708C128.563 60.5708 130.679 71.0265 131.3 74.7648C131.922 78.5039 131.552 88.8304 131.552 88.8304C131.552 88.8304 138.436 87.3138 144.912 86.5915Z" fill="#F5E356" stroke="#263238" stroke-linecap="round" stroke-linejoin="round"/>
<path d="M142.204 63.4483C141.693 62.8989 141.226 62.3109 140.804 61.6904" stroke="#263238" stroke-linecap="round" stroke-linejoin="round"/>
<path d="M155.368 76.5058C152.963 73.655 150.343 70.9925 147.532 68.5414C146.093 67.3158 144.935 66.252 144.017 65.3457" stroke="#263238" stroke-linecap="round" stroke-linejoin="round"/>
<path d="M134.541 46.3037C134.541 46.3037 133.864 44.9436 132.392 42.229C130.919 39.5144 132.162 34.768 137.709 32.9545C143.255 31.141 146.759 34.5385 147.548 36.7998C148.338 39.061 147.66 41.5517 147.207 42.9118C146.939 43.7143 146.788 44.5514 146.759 45.397C146.467 45.0465 146.124 44.7426 145.741 44.4959C144.946 43.9362 143.592 37.9304 141.778 37.4827C139.965 37.0349 136.125 38.0592 135.811 40.8577C135.498 43.6563 135.448 47.9997 134.541 46.3037Z" fill="#263238" stroke="#263238" stroke-linecap="round" stroke-linejoin="round"/>
<path d="M146.306 44.9434C146.306 44.9434 146.983 43.0236 147.89 43.9303C148.797 44.837 148.338 46.7289 147.772 47.546C147.207 48.3632 146.759 47.8874 146.418 46.9863C146.217 46.3243 146.178 45.6234 146.306 44.9434Z" fill="white"/>
<path d="M146.306 44.9434C146.306 44.9434 146.983 43.0236 147.89 43.9303C148.797 44.837 148.338 46.7289 147.772 47.546C147.207 48.3632 146.759 47.8874 146.418 46.9863C146.217 46.3243 146.178 45.6234 146.306 44.9434Z" fill="#D9D9D9" stroke="#263238" stroke-linecap="round" stroke-linejoin="round"/>
<path d="M146.306 44.9434C146.306 44.9434 146.983 43.0236 147.89 43.9303C148.797 44.837 148.338 46.7289 147.772 47.546C147.207 48.3632 146.759 47.8874 146.418 46.9863C146.217 46.3243 146.178 45.6234 146.306 44.9434Z" stroke="#263238" stroke-linecap="round" stroke-linejoin="round"/>
<path d="M135.056 46.0632C135.056 46.0632 133.886 44.384 133.259 45.5035C132.632 46.6229 133.584 48.3524 134.346 48.9569C135.106 49.5614 135.414 49.0129 135.498 48.0502C135.512 47.362 135.361 46.6806 135.056 46.0632Z" fill="white"/>
<path d="M135.056 46.0632C135.056 46.0632 133.886 44.384 133.259 45.5035C132.632 46.6229 133.584 48.3524 134.346 48.9569C135.106 49.5614 135.414 49.0129 135.498 48.0502C135.512 47.362 135.361 46.6806 135.056 46.0632Z" fill="#D9D9D9" stroke="#263238" stroke-linecap="round" stroke-linejoin="round"/>
<path d="M135.056 46.0632C135.056 46.0632 133.886 44.384 133.259 45.5035C132.632 46.6229 133.584 48.3524 134.346 48.9569C135.106 49.5614 135.414 49.0129 135.498 48.0502C135.512 47.362 135.361 46.6806 135.056 46.0632Z" stroke="#263238" stroke-linecap="round" stroke-linejoin="round"/>
<path d="M136.578 51.3913C136.527 53.0199 136.64 54.6494 136.914 56.2558C137.157 57.7099 137.497 59.146 137.933 60.5538L142.008 56.7086L147.096 59.4233C147.096 59.4233 147.89 54.2241 146.306 51.957C144.722 49.6901 139.516 49.4717 138.162 50.2778C137.574 50.555 137.038 50.9317 136.578 51.3913Z" fill="white" stroke="#263238" stroke-linecap="round" stroke-linejoin="round"/>
<path d="M138.05 52.5282C138.05 52.5282 140.994 60.2187 142.579 59.6539C144.163 59.0882 144.616 52.2988 144.616 52.2988C144.616 52.2988 139.729 53.3173 138.05 52.5282Z" fill="white"/>
<path d="M138.05 52.5282C138.05 52.5282 140.994 60.2187 142.579 59.6539C144.163 59.0882 144.616 52.2988 144.616 52.2988C144.616 52.2988 139.729 53.3173 138.05 52.5282Z" fill="#D9D9D9" stroke="#263238" stroke-linecap="round" stroke-linejoin="round"/>
<path opacity="0.25" d="M138.05 52.5282C138.05 52.5282 140.994 60.2187 142.579 59.6539C144.163 59.0882 144.616 52.2988 144.616 52.2988C144.616 52.2988 139.729 53.3173 138.05 52.5282Z" fill="black"/>
<path d="M138.05 52.5282C138.05 52.5282 140.994 60.2187 142.579 59.6539C144.163 59.0882 144.616 52.2988 144.616 52.2988C144.616 52.2988 139.729 53.3173 138.05 52.5282Z" stroke="#263238" stroke-linecap="round" stroke-linejoin="round"/>
<path d="M134.199 43.024C134.199 43.024 134.759 47.9999 135.448 50.2611C136.136 52.5221 138.75 54.5769 142.254 54.0112C145.758 53.4455 147.006 48.3413 147.006 47.9999C147.006 47.6585 146.782 41.552 145.422 39.2907C144.062 37.0294 141.464 34.8802 137.843 36.5761C134.222 38.272 133.864 41.7815 134.199 43.024Z" fill="white"/>
<path d="M134.199 43.024C134.199 43.024 134.759 47.9999 135.448 50.2611C136.136 52.5221 138.75 54.5769 142.254 54.0112C145.758 53.4455 147.006 48.3413 147.006 47.9999C147.006 47.6585 146.782 41.552 145.422 39.2907C144.062 37.0294 141.464 34.8802 137.843 36.5761C134.222 38.272 133.864 41.7815 134.199 43.024Z" fill="#D9D9D9" stroke="#263238" stroke-linecap="round" stroke-linejoin="round"/>
<path opacity="0.25" d="M147.006 47.9994C147.006 47.658 146.781 41.5516 145.421 39.2903C145.151 38.8377 144.84 38.4106 144.492 38.0142C144.822 39.4247 146.536 47.0199 145.181 49.6115C143.687 52.4771 140.452 52.7287 137.462 51.2344C135.223 50.1152 134.608 43.6169 134.423 40.3202C134.115 41.187 134.046 42.1206 134.222 43.0236C134.222 43.0236 134.782 47.9994 135.47 50.2607C136.158 52.5216 138.772 54.5764 142.276 54.0107C145.78 53.4459 147.006 48.3409 147.006 47.9994Z" fill="black"/>
<path d="M134.199 43.024C134.199 43.024 134.759 47.9999 135.448 50.2611C136.136 52.5221 138.75 54.5769 142.254 54.0112C145.758 53.4455 147.006 48.3413 147.006 47.9999C147.006 47.6585 146.782 41.552 145.422 39.2907C144.062 37.0294 141.464 34.8802 137.843 36.5761C134.222 38.272 133.864 41.7815 134.199 43.024Z" stroke="#263238" stroke-linecap="round" stroke-linejoin="round"/>
<path d="M137.418 45.9343C138.41 46.2246 139.461 46.2497 140.466 46.0071C141.47 45.7646 142.394 45.2628 143.144 44.5518C143.648 44.7197 143.458 47.759 140.675 48.2011C139.945 48.3138 139.2 48.1414 138.593 47.7193C137.987 47.2973 137.566 46.6581 137.418 45.9343Z" fill="white" stroke="#263238" stroke-linecap="round" stroke-linejoin="round"/>
<path d="M139.024 43.2421C139.024 43.2421 138.33 44.2103 138.678 44.5518C139.024 44.8932 140.401 44.966 141.095 44.2103C141.79 43.4547 140.681 42.7607 140.681 42.7607" stroke="#263238" stroke-linecap="round" stroke-linejoin="round"/>
<path d="M136.371 43.701C136.371 43.701 136.713 42.5815 138.52 42.5815" stroke="#263238" stroke-linecap="round" stroke-linejoin="round"/>
<path d="M141.666 42.1175C141.996 41.7527 142.449 41.5208 142.939 41.4651C143.427 41.4095 143.92 41.5339 144.324 41.8152" stroke="#263238" stroke-linecap="round" stroke-linejoin="round"/>
<path d="M138.274 40.298C138.274 40.298 135.688 39.783 135.369 42.1282" stroke="#263238" stroke-width="2" stroke-linecap="round" stroke-linejoin="round"/>
<path d="M141.017 40.0071C141.017 40.0071 142.841 38.5296 144.537 40.1135" stroke="#263238" stroke-width="2" stroke-linecap="round" stroke-linejoin="round"/>
<path d="M76.7666 42.3914C76.7666 42.3914 76.7666 39.7551 73.9296 37.8297C71.0916 35.9043 64.2911 37.0181 61.7553 40.2644C59.2203 43.5108 59.0132 45.8616 56.0743 46.7571C53.1362 47.6527 46.4361 48.6938 41.7792 53.5525C37.1225 58.4102 39.143 68.3618 41.2756 69.174C43.408 69.9853 40.7662 68.4628 41.0685 65.8157C41.1237 65.0848 41.3807 64.3847 41.8105 63.7916C42.2403 63.1985 42.8263 62.7373 43.5032 62.4574C43.5032 62.4574 40.7662 66.817 46.548 72.4989C52.33 78.1799 58.7222 76.8645 64.1003 75.7451C69.4792 74.6256 76.0674 70.6734 76.5766 66.0057C77.0859 61.338 75.3562 58.7011 76.5766 56.5744C77.7971 54.4477 82.2577 54.7446 82.8679 50.692C83.4781 46.6396 81.8383 41.2776 76.7666 42.3914Z" fill="#263238" stroke="#263238" stroke-linecap="round" stroke-linejoin="round"/>
<path d="M96.3062 114.88C96.3062 114.88 99.139 111.298 100.224 111.18C101.31 111.062 102.923 113.525 103.628 115.406C104.333 117.287 105.973 121.148 105.973 123.029C105.973 126.315 104.562 127.367 103.98 126.78C103.398 126.192 101.865 122.559 101.047 121.853C100.526 121.419 99.9203 121.099 99.2673 120.914C99.2673 120.914 97.465 116.352 96.3062 114.88Z" fill="white" stroke="#263238" stroke-linecap="round" stroke-linejoin="round"/>
<path d="M99.1782 112.076C99.1782 112.076 102.609 115.507 103.829 118.792C105.049 122.078 105.424 125.285 104.322 126.628" stroke="#263238" stroke-linecap="round" stroke-linejoin="round"/>
<path d="M89.9926 140.274C89.9926 140.274 93.3902 140.509 94.5662 140.627C95.7412 140.745 95.7412 143.559 95.2714 145.553C94.8007 147.545 94.2136 148.838 94.7116 151.065C95.2097 153.293 93.8883 155.756 93.1831 156.814C92.4779 157.872 90.9443 157.636 90.8381 156.814C90.732 155.991 91.1907 151.183 89.551 148.486C87.9103 145.787 88.1123 142.166 89.9926 140.274Z" fill="white" stroke="#263238" stroke-linecap="round" stroke-linejoin="round"/>
<path d="M93.1779 140.487C93.8934 141.794 94.1519 143.303 93.9105 144.775C93.5417 147.343 94.0338 151.39 94.0338 152.369C94.0338 153.349 92.685 157.144 92.198 157.267" stroke="#263238" stroke-linecap="round" stroke-linejoin="round"/>
<path d="M105.374 19.5883C104.764 19.5883 102.329 20.1984 102.127 20.9093C101.926 21.6201 101.624 28.5158 101.624 28.5158C101.624 28.5158 97.3588 36.6316 95.9423 39.6765C94.5268 42.7213 90.7654 50.0256 90.7654 50.0256L81.3341 59.8657C81.3341 59.8657 79.9126 60.5761 77.4777 61.9925C77.2484 62.1268 77.0079 62.2775 76.7665 62.4289L72.2888 63.414L68.4496 62.6865C66.6283 61.2667 64.7318 59.9453 62.7685 58.7292C60.3337 57.3128 58.9122 56.6024 58.9122 56.6024L49.4809 46.7625C49.4809 46.7625 45.7251 39.4862 44.3034 36.4134C42.8818 33.3405 38.6223 25.2526 38.6223 25.2526C38.6223 25.2526 38.3201 18.3569 38.1186 17.6461C37.9171 16.9353 35.4768 16.3252 34.8722 16.3252C34.2677 16.3252 33.1483 19.5715 33.5513 20.2824C33.9543 20.9933 35.0626 20.9876 35.0626 20.9876C35.0109 21.7984 35.0109 22.6116 35.0626 23.4224C35.1633 23.9318 36.6857 24.9448 36.6857 24.9448C36.6857 24.9448 38.8182 33.7715 40.2344 39.8556C41.6504 45.9397 43.4807 50.0033 44.2923 50.7141C45.1039 51.4246 53.119 59.5354 54.7425 62.2775C56.052 64.3075 57.5839 66.1843 59.3093 67.8746C59.3093 67.8746 58.3969 72.3523 58.3969 74.7709C58.3969 77.1886 60.8318 82.3776 61.6431 84.7114C62.4553 87.0453 63.4678 97.8981 63.4678 98.2062C63.4678 98.5134 63.9718 105.203 63.9718 105.203C63.9718 105.203 58.4979 117.175 56.7743 125.694C55.0498 134.212 55.856 139.088 59.8133 140.912C63.7707 142.737 81.7261 145.273 82.2353 145.882C82.7445 146.492 83.1476 146.895 83.8588 146.895C84.5692 146.895 85.4815 146.492 86.0977 146.895C86.713 147.299 86.7019 147.607 87.4131 147.607C87.752 147.652 88.0764 147.777 88.358 147.972C88.6404 148.166 88.8723 148.425 89.0358 148.726C89.2377 149.129 90.4573 148.317 90.8604 145.273C91.2635 142.228 90.6593 140.795 90.0491 140.71C89.4389 140.626 89.545 139.591 88.5325 139.591C87.4431 139.66 86.3587 139.797 85.2855 140C84.7575 139.841 84.2131 139.739 83.6628 139.698C83.0526 139.698 82.3414 139.189 81.9332 139.088C81.5241 138.987 74.8358 136.245 74.8358 136.245L74.5782 136.11C81.3512 132.248 90.9554 125.414 90.9554 125.414C90.9554 125.414 93.7155 125.24 94.9239 124.205C95.7438 123.471 96.4926 122.664 97.1628 121.792L99.2339 120.93C99.2073 119.575 98.788 118.257 98.0246 117.136C96.8213 115.585 96.3009 114.897 96.3009 114.897C96.3009 114.897 93.0265 116.447 91.991 116.794C90.9554 117.141 89.4055 117.309 88.5437 118.171C87.681 119.033 85.4421 120.757 85.4421 120.757L77.8586 124.72C77.8586 124.72 87.5133 112.31 88.7166 107.139C89.7521 102.706 88.1568 97.8082 85.5149 94.2317C83.5174 91.5452 80.7128 89.4964 78.586 86.8938C77.5676 85.6571 76.7896 84.7388 76.8624 84.2073C76.9796 83.3849 77.9425 79.2426 78.8154 75.7166L81.5361 70.5003C82.2071 69.8002 85.2076 66.0226 85.4875 65.5407C87.1101 62.7987 95.1259 54.6828 95.9372 53.9716C96.7485 53.2604 98.5732 49.2084 99.9947 43.1188C101.417 37.0291 103.544 28.2079 103.544 28.2079C103.544 28.2079 105.066 27.1949 105.167 26.6855C105.219 25.8748 105.219 25.0615 105.167 24.2507C105.167 24.2507 106.286 24.2507 106.689 23.54C107.092 22.8291 105.984 19.5883 105.374 19.5883Z" fill="white" stroke="#263238" stroke-linecap="round" stroke-linejoin="round"/>
<path d="M96.306 114.879C96.306 114.879 93.0325 116.43 91.9969 116.778C90.9614 117.124 89.4106 117.292 88.5488 118.154C87.6869 119.016 85.4481 120.74 85.4481 120.74L77.8637 124.703C77.8637 124.703 87.5192 112.294 88.7225 107.122C89.7581 102.689 88.1628 97.7918 85.5208 94.2152C84.5135 92.9221 83.4018 91.7145 82.1959 90.6045C80.0777 92.4531 77.7764 94.0809 75.3287 95.463C71.7488 97.5624 67.5868 98.4491 63.4626 97.9929C63.4626 98.0999 63.4626 98.1666 63.4626 98.1889C63.4626 98.491 63.9658 105.185 63.9658 105.185C63.9658 105.185 58.4919 117.158 56.7682 125.677C55.0446 134.196 55.8499 139.07 59.8073 140.895C63.7647 142.72 81.7201 145.255 82.2293 145.866C82.7394 146.476 83.1416 146.879 83.8528 146.879C84.564 146.879 85.4763 146.476 86.0917 146.879C86.707 147.282 86.6959 147.589 87.4071 147.589C87.7468 147.636 88.0704 147.76 88.3528 147.955C88.6344 148.149 88.8671 148.407 89.0297 148.709C89.2317 149.112 90.4521 148.3 90.8552 145.255C91.2575 142.21 90.6533 140.778 90.043 140.694C89.4328 140.61 89.5398 139.574 88.5265 139.574C87.437 139.644 86.3527 139.78 85.2803 139.983C84.7514 139.823 84.2071 139.722 83.6568 139.681C83.0466 139.681 82.3363 139.171 81.9272 139.07C81.5189 138.97 74.8306 136.227 74.8306 136.227L74.573 136.093C81.3452 132.23 90.9502 125.397 90.9502 125.397C90.9502 125.397 93.7094 125.223 94.9187 124.187C95.7378 123.455 96.4875 122.647 97.1576 121.776L99.2279 120.914C99.2022 119.558 98.782 118.239 98.0194 117.118C96.8272 115.568 96.306 114.879 96.306 114.879Z" fill="#263238" stroke="#263238" stroke-linecap="round" stroke-linejoin="round"/>
<path d="M70.4027 104.492L72.3959 105.432C72.3959 105.432 64.0669 125.492 62.8808 131.241C61.6937 136.989 63.1153 139.804 65.343 139.804C67.5707 139.804 73.9065 136.519 73.9065 136.519" stroke="white" stroke-linecap="round" stroke-linejoin="round"/>
<path d="M77.8637 124.703C77.8637 124.703 72.8656 132.091 71.4441 133.821" stroke="white" stroke-linecap="round" stroke-linejoin="round"/>
<path d="M37.2065 19.0625C37.2065 19.0625 35.1748 16.2191 34.8726 15.6091C34.5703 14.999 33.9602 16.7285 34.4639 17.7416C34.7864 18.3715 35.1973 18.952 35.6841 19.4655C35.6841 19.4655 34.8725 21.9002 36.0871 22.9134" fill="white"/>
<path d="M37.2065 19.0625C37.2065 19.0625 35.1748 16.2191 34.8726 15.6091C34.5703 14.999 33.9602 16.7285 34.4639 17.7416C34.7864 18.3715 35.1973 18.952 35.6841 19.4655C35.6841 19.4655 34.8725 21.9002 36.0871 22.9134" stroke="#263238" stroke-linecap="round" stroke-linejoin="round"/>
<path d="M102.464 22.8626C102.464 22.8626 104.49 20.0248 104.798 19.4147C105.105 18.8047 105.71 20.5342 105.201 21.5473C104.879 22.1762 104.47 22.7566 103.986 23.2712C103.986 23.2712 104.798 25.706 103.577 26.719" fill="white"/>
<path d="M102.464 22.8626C102.464 22.8626 104.49 20.0248 104.798 19.4147C105.105 18.8047 105.71 20.5342 105.201 21.5473C104.879 22.1762 104.47 22.7566 103.986 23.2712C103.986 23.2712 104.798 25.706 103.577 26.719" stroke="#263238" stroke-linecap="round" stroke-linejoin="round"/>
<path d="M59.3205 67.8586C59.3205 67.8586 58.4082 72.3364 58.4082 74.7541C58.4082 77.1718 60.843 82.3607 61.6544 84.6946C62.4665 87.0285 63.4799 97.8813 63.4799 98.1894C63.4799 98.2733 63.5184 98.8723 63.58 99.6897C67.1676 100.691 74.5672 101.032 83.3882 91.786C81.7878 90.1574 80.03 88.6408 78.5922 86.8778C77.5729 85.6403 76.7949 84.7228 76.8677 84.1914C76.9858 83.3681 77.9477 79.2267 78.8215 75.6998L81.5414 70.4835C82.2132 69.7843 85.2129 66.0058 85.4927 65.5248C87.1163 62.7818 95.1311 54.666 95.9433 53.9548C96.7547 53.2444 98.5793 49.192 100.001 43.1023C100.521 40.8634 101.12 38.2383 101.719 35.826C100.574 35.5881 99.4677 35.1965 98.4278 34.6618C97.4487 36.576 96.4859 38.4902 95.9433 39.6544C94.5209 42.6993 90.7655 50.0036 90.7655 50.0036L81.3342 59.8438C81.3342 59.8438 79.9127 60.5541 77.4779 61.9705C77.2485 62.1049 77.008 62.2555 76.7667 62.407L72.2889 63.3921L68.4497 62.6868C66.6285 61.267 64.7319 59.9456 62.7687 58.7295C60.3338 57.3131 58.9123 56.6027 58.9123 56.6027L49.481 46.7628C49.481 46.7628 45.7252 39.4865 44.3036 36.4137C43.6487 35.0144 42.3949 32.5349 41.2308 30.2568C40.2502 30.6689 39.2488 31.0295 38.2307 31.3371C38.8856 34.0572 39.63 37.2085 40.2457 39.8447C41.6673 45.9344 43.492 49.9924 44.3036 50.7032C45.1152 51.4138 53.1303 59.5245 54.7538 62.2666C56.0641 64.2941 57.5951 66.1701 59.3205 67.8586Z" fill="#F5E356"/>
<path d="M59.6003 56.949C59.1527 56.7145 58.9122 56.5964 58.9122 56.5964L58.3525 56.0093L53.7798 60.9012C54.1067 61.3146 54.4131 61.7442 54.6972 62.1884L59.6003 56.949Z" fill="#263238"/>
<path d="M55.3184 52.8465L54.2384 51.7271L49.2009 55.7067C49.5535 56.0824 49.9121 56.4624 50.2587 56.8261L55.3184 52.8465Z" fill="#263238"/>
<path d="M63.4679 59.1486L62.7687 58.7233L62.114 58.3433L56.5168 64.7577C56.8635 65.1882 57.2049 65.5913 57.5302 65.955L63.4679 59.1486Z" fill="#263238"/>
<path d="M50.8246 48.1333L45.0032 51.3575L46.1226 52.4769L51.9098 49.2639L50.8246 48.1333Z" fill="#263238"/>
<path d="M65.1086 60.2349L62.6848 62.9384C62.5736 62.9735 62.4726 63.0326 62.3879 63.1122C62.2817 63.2157 62.2107 63.3518 62.1867 63.4982L58.772 67.304C59.1083 67.6515 59.3317 67.8638 59.3317 67.8638C59.3317 67.8638 59.1639 68.6811 58.9739 69.8116L59.5953 68.8719C61.1118 69.5207 65.3319 70.6906 76.0564 70.6906C77.1536 70.6906 78.3192 70.6777 79.5542 70.6512C79.6671 70.6486 79.7775 70.6221 79.8794 70.5733C80.2602 70.8789 80.7061 71.0928 81.1828 71.1998L81.5525 70.4895C81.6869 70.3491 81.9163 70.0804 82.1961 69.7449C82.0096 69.7569 81.823 69.7569 81.6364 69.7449C79.7057 69.5095 78.5246 65.3955 78.0154 61.6958L77.4557 62.0039C77.2263 62.1382 76.985 62.2897 76.7445 62.4403L76.5433 62.4848C76.6272 63.0446 76.7222 63.6043 76.8455 64.164C69.4288 66.0734 65.5724 64.5226 64.1346 63.6548L66.3735 61.1703C65.9866 60.8511 65.5562 60.543 65.1086 60.2349ZM70.3249 66.6048C72.6562 66.5723 74.9746 66.2488 77.2263 65.642C77.5361 66.8564 78.0085 68.0238 78.6307 69.1124C67.0787 69.2973 62.304 68.183 60.6026 67.5899L63.1042 64.7913C64.168 65.4854 66.4402 66.6048 70.3249 66.6048Z" fill="#263238"/>
<path d="M45.395 38.6694L40.4639 40.7572C40.5982 41.2833 40.7269 41.787 40.8613 42.2796L46.0891 40.0407L45.395 38.6694Z" fill="#263238"/>
<path d="M43.117 33.9731L39.199 35.4228C39.3166 35.9321 39.4396 36.4359 39.5572 36.9396L43.8054 35.3724L43.117 33.9731Z" fill="#263238"/>
<path d="M48.4343 44.7087C48.2159 44.2889 47.9809 43.8187 47.729 43.3262L42.2214 46.5557C42.4173 47.0874 42.6076 47.5744 42.7811 48.0109L48.4343 44.7087Z" fill="#263238"/>
<path d="M93.1781 45.2568C92.9317 45.7549 92.6852 46.2419 92.4507 46.7009C93.9783 48.0834 95.7362 49.6002 97.5609 50.9942C97.7509 50.5349 97.9409 50.0312 98.1206 49.477C96.3687 48.1002 94.6553 46.6057 93.1781 45.2568Z" fill="#263238"/>
<path d="M77.1586 82.7527C77.2596 82.288 77.3828 81.7334 77.5223 81.1292C69.3568 82.2486 63.3505 81.2695 59.9478 80.3452C60.1882 80.9665 60.4287 81.5768 60.6641 82.1536C63.8127 82.8828 67.0366 83.2396 70.2691 83.2165C72.573 83.2131 74.8752 83.0582 77.1586 82.7527Z" fill="#263238"/>
<path d="M95.0645 41.4737C96.5442 42.5528 98.0778 43.556 99.6594 44.4793C99.7767 44.0315 99.8888 43.5725 100.001 43.1024C100.001 43.0352 100.001 42.9625 100.045 42.8953C98.5674 42.0196 97.1339 41.0688 95.7525 40.0464C95.5566 40.4717 95.3221 40.9531 95.0645 41.4737Z" fill="#263238"/>
<path d="M58.4141 74.502C58.4141 74.5858 58.4141 74.6757 58.4141 74.7536C58.4252 75.1926 58.4791 75.6291 58.5758 76.0579C61.8845 75.8114 68.7294 75.6548 78.4688 77.1773C78.586 76.6843 78.7093 76.1922 78.8265 75.7104V75.6608C68.791 74.0655 61.8117 74.2332 58.4141 74.502Z" fill="#263238"/>
<path d="M81.4635 89.8943C81.0766 89.5246 80.7018 89.1498 80.344 88.7749C74.5055 92.6929 67.5596 94.2933 63.188 94.9318C63.2496 95.4915 63.3001 96.0512 63.3455 96.4988C67.9122 95.8552 75.2561 94.1812 81.4635 89.8943Z" fill="#263238"/>
<path d="M62.3655 88.3048C62.4382 88.8081 62.511 89.3396 62.5837 89.883C63.1434 89.883 63.793 89.883 64.4648 89.883C69.522 89.9344 74.5577 89.2223 79.4034 87.7725C79.1287 87.4704 78.8437 87.1683 78.5912 86.8491L78.2891 86.4854C72.3454 88.2655 66.1269 88.4332 62.3655 88.3048Z" fill="#263238"/>
<path d="M89.6179 51.1952C90.9556 52.8744 92.4165 54.4919 93.8723 56.0033L94.9917 54.8839C93.5359 53.3562 92.0528 51.7044 90.7211 50.0537L89.6179 51.1952Z" fill="#263238"/>
<path d="M90.0541 60.016L91.1179 58.8966C89.4191 57.5966 87.8752 56.1057 86.517 54.4531L85.4309 55.5726C86.802 57.2209 88.3527 58.7118 90.0541 60.016Z" fill="#263238"/>
<path d="M85.4927 65.5242C85.6759 65.2178 85.8761 64.9225 86.0918 64.6393C85.2249 63.0055 83.9591 60.5758 82.8396 58.2642L81.7202 59.4623C82.9577 61.9973 84.3237 64.5888 85.1239 66.0719C85.2976 65.8041 85.4371 65.6081 85.4927 65.5242Z" fill="#263238"/>
<path opacity="0.25" d="M101.574 35.82C99.1784 41.1037 94.5997 51.2012 93.6925 53.2107C92.4558 55.9639 82.689 65.8659 81.0373 66.8278C79.3864 67.7907 78.4236 70.1305 77.7355 72.6047C77.0808 74.9608 75.1834 76.8188 75.0036 79.3658C74.0639 78.6495 72.2051 78.0504 69.6196 77.8321C64.666 77.4179 59.9923 78.6606 59.9923 74.1213C59.9923 69.5819 62.8808 65.1658 63.0203 63.7999C63.1606 62.4349 60.4066 64.9193 59.0295 63.9403C57.6525 62.9603 48.2999 52.2479 45.5461 48.8278C43.7942 46.6337 40.6822 37.5551 38.6561 31.2583L38.2307 31.3927C38.8856 34.1128 39.63 37.264 40.2457 39.9003C41.6673 45.99 43.492 50.048 44.3036 50.7532C45.1152 51.4588 53.1303 59.5798 54.7538 62.3227C56.0632 64.3519 57.5951 66.2296 59.3205 67.9199C59.3205 67.9199 58.4082 72.3976 58.4082 74.8153C58.4082 77.2331 60.843 82.422 61.6544 84.7558C62.4665 87.0897 63.4799 97.9425 63.4799 98.2506C63.4799 98.3345 63.5184 98.9336 63.58 99.7509C64.0755 99.887 64.5779 99.9957 65.0854 100.075C64.9904 95.8218 64.2852 86.9553 65.4945 85.0186C66.8099 82.9141 73.1568 82.8191 75.0096 81.6158C75.0884 83.8615 75.8912 86.0216 77.299 87.7727C78.3003 89.0881 80.5845 90.8845 82.7729 92.4575L83.366 91.8533C81.7656 90.2246 80.0077 88.7072 78.569 86.9442C77.5506 85.7075 76.7727 84.7892 76.8454 84.2578C76.9627 83.4353 77.9255 79.2931 78.7984 75.767L81.5191 70.5507C82.1909 69.8506 85.1906 66.073 85.4705 65.5912C87.094 62.8482 95.1089 54.7324 95.9202 54.022C96.7324 53.3108 98.557 49.2588 99.9786 43.1691C100.499 40.9302 101.098 38.3051 101.697 35.8927L101.574 35.82Z" fill="black"/>
<path d="M59.3205 67.8586C59.3205 67.8586 58.4082 72.3364 58.4082 74.7541C58.4082 77.1718 60.843 82.3607 61.6544 84.6946C62.4665 87.0285 63.4799 97.8813 63.4799 98.1894C63.4799 98.2733 63.5184 98.8723 63.58 99.6897C67.1676 100.691 74.5672 101.032 83.3882 91.786C81.7878 90.1574 80.03 88.6408 78.5922 86.8778C77.5729 85.6403 76.7949 84.7228 76.8677 84.1914C76.9858 83.3681 77.9477 79.2267 78.8215 75.6998L81.5414 70.4835C82.2132 69.7843 85.2129 66.0058 85.4927 65.5248C87.1163 62.7818 95.1311 54.666 95.9433 53.9548C96.7547 53.2444 98.5793 49.192 100.001 43.1023C100.521 40.8634 101.12 38.2383 101.719 35.826C100.574 35.5881 99.4677 35.1965 98.4278 34.6618C97.4487 36.576 96.4859 38.4902 95.9433 39.6544C94.5209 42.6993 90.7655 50.0036 90.7655 50.0036L81.3342 59.8438C81.3342 59.8438 79.9127 60.5541 77.4779 61.9705C77.2485 62.1049 77.008 62.2555 76.7667 62.407L72.2889 63.3921L68.4497 62.6868C66.6285 61.267 64.7319 59.9456 62.7687 58.7295C60.3338 57.3131 58.9123 56.6027 58.9123 56.6027L49.481 46.7628C49.481 46.7628 45.7252 39.4865 44.3036 36.4137C43.6487 35.0144 42.3949 32.5349 41.2308 30.2568C40.2502 30.6689 39.2488 31.0295 38.2307 31.3371C38.8856 34.0572 39.63 37.2085 40.2457 39.8447C41.6673 45.9344 43.492 49.9924 44.3036 50.7032C45.1152 51.4138 53.1303 59.5245 54.7538 62.2666C56.0641 64.2941 57.5951 66.1701 59.3205 67.8586Z" stroke="#263238" stroke-linecap="round" stroke-linejoin="round"/>
<path d="M67.4365 54.7666C67.4365 54.7666 67.5375 61.158 67.0283 62.6805C66.519 64.203 63.67 67.1582 64.9015 69.5819C66.1322 72.0056 70.5825 69.2738 72.1778 66.3358C73.7722 63.3968 72.9943 62.4794 72.9943 62.4794V58.0017L67.4365 54.7666Z" fill="white"/>
<path d="M73.0172 58.0128L67.42 54.7666C67.42 54.7666 67.5201 61.158 67.0109 62.6805C66.9365 62.891 66.8449 63.0956 66.7371 63.2907C67.8 63.6347 68.94 63.6596 70.0166 63.3634C71.1489 62.8867 72.1665 62.173 73 61.2701L73.0172 58.0128Z" fill="#F5E356"/>
<path opacity="0.5" d="M73.0172 58.0128L67.42 54.7666C67.42 54.7666 67.5201 61.158 67.0109 62.6805C66.9365 62.891 66.8449 63.0956 66.7371 63.2907C67.8 63.6347 68.94 63.6596 70.0166 63.3634C71.1489 62.8867 72.1665 62.173 73 61.2701L73.0172 58.0128Z" fill="white"/>
<path d="M67.4365 54.7666C67.4365 54.7666 67.5375 61.158 67.0283 62.6805C66.519 64.203 63.67 67.1582 64.9015 69.5819C66.1322 72.0056 70.5825 69.2738 72.1778 66.3358C73.7722 63.3968 72.9943 62.4794 72.9943 62.4794V58.0017L67.4365 54.7666Z" stroke="#263238" stroke-linecap="round" stroke-linejoin="round"/>
<path d="M66.3169 50.5073C66.3169 50.5073 64.3921 48.6827 63.882 50.0036C63.3728 51.3247 64.6942 53.2504 65.4045 53.4515L66.1157 53.6526C66.4307 55.099 67.1333 56.4315 68.1475 57.509C69.7701 59.1325 71.5956 59.9438 73.6214 58.9314C75.6471 57.9181 77.2766 55.3771 77.7799 52.3372C78.0863 50.8358 78.1898 49.2997 78.088 47.7704C78.088 47.261 77.1757 43.6116 74.5337 42.6993C71.8917 41.787 72.1998 42.9009 70.1732 45.2348C68.7705 46.9035 67.4825 48.665 66.3169 50.5073Z" fill="white"/>
<path d="M77.5334 45.895C77.702 47.5742 77.9819 51.9288 76.7726 54.0162C75.2612 56.6248 73.7446 59.1041 70.7218 57.8674C67.6999 56.6308 66.7311 53.4625 66.7311 53.4625C66.7311 53.4625 65.9086 53.602 64.666 52.4997C64.5384 52.3807 64.3904 52.2857 64.2295 52.2198C64.4751 52.7496 64.8885 53.1843 65.4046 53.4565L66.1158 53.6585C66.4307 55.104 67.1325 56.4373 68.1475 57.5148C69.7702 59.1375 71.5948 59.9497 73.6214 58.9364C75.6472 57.9231 77.2758 55.3821 77.7799 52.343C78.0863 50.8411 78.1898 49.305 78.088 47.7756C77.9981 47.1247 77.8107 46.4908 77.5334 45.895Z" fill="#F5E356"/>
<path opacity="0.5" d="M77.5334 45.895C77.702 47.5742 77.9819 51.9288 76.7726 54.0162C75.2612 56.6248 73.7446 59.1041 70.7218 57.8674C67.6999 56.6308 66.7311 53.4625 66.7311 53.4625C66.7311 53.4625 65.9086 53.602 64.666 52.4997C64.5384 52.3807 64.3904 52.2857 64.2295 52.2198C64.4751 52.7496 64.8885 53.1843 65.4046 53.4565L66.1158 53.6585C66.4307 55.104 67.1325 56.4373 68.1475 57.5148C69.7702 59.1375 71.5948 59.9497 73.6214 58.9364C75.6472 57.9231 77.2758 55.3821 77.7799 52.343C78.0863 50.8411 78.1898 49.305 78.088 47.7756C77.9981 47.1247 77.8107 46.4908 77.5334 45.895Z" fill="white"/>
<path d="M66.3169 50.5073C66.3169 50.5073 64.3921 48.6827 63.882 50.0036C63.3728 51.3247 64.6942 53.2504 65.4045 53.4515L66.1157 53.6526C66.4307 55.099 67.1333 56.4315 68.1475 57.509C69.7701 59.1325 71.5956 59.9438 73.6214 58.9314C75.6471 57.9181 77.2766 55.3771 77.7799 52.3372C78.0863 50.8358 78.1898 49.2997 78.088 47.7704C78.088 47.261 77.1757 43.6116 74.5337 42.6993C71.8917 41.787 72.1998 42.9009 70.1732 45.2348C68.7705 46.9035 67.4825 48.665 66.3169 50.5073Z" stroke="#263238" stroke-linecap="round" stroke-linejoin="round"/>
<path d="M74.741 48.481C74.741 48.481 74.0298 49.7963 74.3319 50.1041C74.6349 50.412 75.6533 51.0165 75.1441 51.3186C74.6631 51.5266 74.1445 51.631 73.6216 51.6267" stroke="#263238" stroke-linecap="round" stroke-linejoin="round"/>
<path d="M70.6833 52.0522C70.6833 52.0522 71.8978 53.4738 75.7542 52.9646C75.7542 52.9646 73.4203 55.2984 72.3959 55.2984C71.3714 55.2984 70.6833 52.0522 70.6833 52.0522Z" stroke="#263238" stroke-linecap="round" stroke-linejoin="round"/>
<path d="M69.9722 48.7834C69.9722 48.7834 71.3937 48.2797 72.211 49.0913" stroke="#263238" stroke-linecap="round" stroke-linejoin="round"/>
<path d="M75.043 49.5946C75.043 49.5946 76.6665 49.0908 76.9686 50.2047" stroke="#263238" stroke-linecap="round" stroke-linejoin="round"/>
<path d="M69.8711 47.0592C70.1895 46.6914 70.6165 46.4347 71.0907 46.326C71.5648 46.2173 72.0612 46.2624 72.5079 46.4547" stroke="#263238" stroke-linecap="round" stroke-linejoin="round"/>
<path d="M75.2451 47.5744C75.2451 47.5744 76.5657 46.3542 77.484 48.5874" stroke="#263238" stroke-linecap="round" stroke-linejoin="round"/>
</svg>
