<svg width="224" height="219" viewBox="0 0 224 219" fill="none" xmlns="http://www.w3.org/2000/svg">
<path d="M211.282 52.9461C199.287 34.74 176.486 23.9282 154.451 26.0093C132.415 28.0903 112.134 42.9108 103.889 63.0396C99.6634 73.3126 98.343 84.8375 92.0469 94.0275C85.5927 103.451 74.8337 109.07 64.2808 113.765C53.7279 118.461 42.6256 122.787 34.3175 130.667C26.0092 138.547 21.1131 151.223 26.0092 161.492C31.0164 171.928 43.6609 176.101 52.793 183.389C61.9251 190.679 67.7297 201.4 77.052 208.446C85.6668 214.959 96.7744 217.821 107.665 217.8C118.556 217.778 129.267 215.033 139.441 211.235C170.988 199.461 200.708 177.553 213.295 146.887C236.593 90.0982 211.282 52.9461 211.282 52.9461Z" fill="#5CB2E4"/>
<g opacity="0.7">
<path d="M211.282 52.9461C199.287 34.74 176.486 23.9282 154.451 26.0093C132.415 28.0903 112.134 42.9108 103.889 63.0396C99.6634 73.3126 98.343 84.8375 92.0469 94.0275C85.5927 103.451 74.8337 109.07 64.2808 113.765C53.7279 118.461 42.6256 122.787 34.3175 130.667C26.0092 138.547 21.1131 151.223 26.0092 161.492C31.0164 171.928 43.6609 176.101 52.793 183.389C61.9251 190.679 67.7297 201.4 77.052 208.446C85.6668 214.959 96.7744 217.821 107.665 217.8C118.556 217.778 129.267 215.033 139.441 211.235C170.988 199.461 200.708 177.553 213.295 146.887C236.593 90.0982 211.282 52.9461 211.282 52.9461Z" fill="white"/>
</g>
<path d="M168.896 195.833C168.896 195.833 176.554 195.791 185.047 183.96C192.469 173.612 178.382 141.579 170.485 134.21C162.59 126.843 147.22 167.084 149.005 177.278C151.545 191.802 162.495 195.464 168.896 195.833Z" fill="#5CB2E4"/>
<path d="M181.324 175.931L169.535 187.651L170.724 217.515H166.82C166.772 217.309 166.92 196.736 167.047 172.741L158.01 164.074C158.697 164.074 157.482 162.901 157.345 162.785L167.089 169.535C167.168 154.54 167.242 142.466 167.242 142.466L168.125 141.363L168.616 157.398L176.951 151.398C176.83 151.514 175.598 152.687 176.285 152.687L168.701 160.229L169.408 183.331L182.274 174.073C182.1 174.252 180.336 175.931 181.324 175.931Z" stroke="#263238" stroke-miterlimit="10"/>
<path d="M203.936 205.557C203.936 205.557 213.252 204.886 217.9 196.05C222.918 186.495 210.68 163.831 204.427 162.151C197.561 160.297 186.722 178.408 188.941 192.479C190.461 202.081 199.63 205.314 203.936 205.557Z" fill="#5CB2E4"/>
<path d="M210.928 188.232L204.432 193.393C204.231 181.276 204.062 171.601 204.062 171.601L203.264 170.691L202.968 183.067V183.337L197.454 179.01C197.454 179.01 198.337 179.908 197.883 179.913L202.9 185.369L202.562 199.599L194.232 193.044C194.232 193.044 195.479 194.317 194.84 194.322L202.483 202.636L202.44 204.279L202.393 206.048L202.134 217.272L204.828 217.24C204.765 213.633 204.707 209.845 204.648 206.064C204.596 202.842 204.532 199.615 204.49 196.514C204.49 196.282 204.49 196.065 204.49 195.838L210.458 189.305C209.909 189.31 210.928 188.232 210.928 188.232Z" stroke="#263238" stroke-miterlimit="10"/>
<path d="M192.331 212.502C191.465 211.805 189.907 211.821 188.539 211.879C188.64 211.008 189.004 210.147 189.11 209.269C189.193 208.817 189.148 208.351 188.979 207.923C188.81 207.495 188.524 207.124 188.154 206.851C186.653 205.794 184.012 206.206 181.943 206.809C182.228 204.759 180.046 202.762 177.125 202.446C174.204 202.129 170.956 203.554 170.101 205.557C168.917 204.427 166.556 203.973 164.587 204.501C162.616 205.029 161.217 206.502 161.317 207.923C159.806 207.823 158.122 207.754 156.869 208.404C155.032 209.364 155.159 211.309 153.743 212.565C153.286 212.478 152.813 212.516 152.376 212.676C151.939 212.836 151.553 213.113 151.26 213.474C150.78 214.103 150.695 214.821 150.405 215.497C149.813 216.849 147.848 217.018 145.974 217.61L192.896 218C193.916 217.673 194.788 216.976 194.745 216.221C194.703 215.465 193.44 214.852 192.463 215.227C192.801 215.243 193.34 213.305 192.331 212.502Z" fill="#5CB2E4"/>
<path d="M213.427 214.558C212.899 214.134 211.938 214.14 211.103 214.177C211.162 213.649 211.383 213.121 211.452 212.593C211.504 212.315 211.476 212.029 211.373 211.766C211.269 211.504 211.092 211.275 210.865 211.108C209.946 210.464 208.325 210.712 207.057 211.081C207.231 209.825 205.895 208.6 204.105 208.409C202.315 208.219 200.323 209.086 199.8 210.311C199.077 209.619 197.624 209.344 196.42 209.672C195.215 209.999 194.355 210.897 194.418 211.785C193.489 211.721 192.458 211.674 191.693 212.075C190.563 212.666 190.636 213.854 189.775 214.626C189.494 214.573 189.203 214.597 188.935 214.696C188.666 214.794 188.429 214.964 188.249 215.186C188.022 215.574 187.844 215.989 187.721 216.422C187.362 217.25 186.136 217.351 185.006 217.716L213.765 217.954C214.389 217.753 214.922 217.324 214.901 216.865C214.88 216.406 214.097 216.026 213.501 216.258C213.712 216.242 214.044 215.054 213.427 214.558Z" fill="#5CB2E4"/>
<path d="M97.2652 123.315C95.9688 122.426 94.4533 121.908 92.8838 121.817C91.3143 121.727 89.7507 122.068 88.3603 122.804C86.9708 123.538 85.8084 124.639 84.9992 125.987C84.1899 127.335 83.7648 128.879 83.7698 130.45V130.503C83.5077 130.167 83.1776 129.89 82.8004 129.691C82.4233 129.492 82.0082 129.374 81.583 129.347C81.1569 129.319 80.7307 129.382 80.3306 129.532C79.9315 129.681 79.5684 129.913 79.2648 130.212C79.0838 128.487 78.248 126.895 76.9293 125.767C75.6106 124.638 73.9095 124.058 72.1761 124.146C70.4427 124.234 68.8091 124.983 67.6114 126.24C66.4138 127.496 65.7434 129.164 65.7382 130.899C65.4554 130.699 65.1265 130.575 64.7824 130.537C64.4383 130.499 64.0901 130.55 63.7707 130.683C63.4514 130.817 63.1711 131.029 62.9564 131.301C62.7416 131.573 62.5992 131.894 62.5427 132.236H110.538C110.538 131.077 110.205 129.943 109.58 128.969C108.956 127.993 108.064 127.217 107.012 126.733C105.96 126.249 104.791 126.077 103.644 126.237C102.497 126.397 101.42 126.882 100.539 127.635C100.249 126.803 99.8341 126.02 99.3089 125.312" stroke="#263238" stroke-linecap="round" stroke-linejoin="round"/>
<path d="M179.745 60.1451C181.324 59.5937 183.011 59.4282 184.667 59.6623C186.321 59.8964 187.897 60.5233 189.26 61.4908C190.624 62.4582 191.736 63.7379 192.503 65.223C193.272 66.7081 193.673 68.3554 193.674 70.0273V70.0906C193.992 69.6833 194.393 69.3479 194.85 69.1064C195.308 68.8648 195.811 68.7228 196.328 68.6894C196.844 68.6559 197.361 68.732 197.845 68.9124C198.33 69.093 198.771 69.3739 199.14 69.7368C199.376 67.6545 200.397 65.7405 201.994 64.3847C203.592 63.0289 205.647 62.3333 207.74 62.4397C209.833 62.5461 211.807 63.4465 213.258 64.9573C214.711 66.4681 215.532 68.4758 215.556 70.5713C215.971 70.2726 216.47 70.1135 216.981 70.117C217.57 70.1155 218.14 70.3236 218.589 70.7039C219.038 71.0842 219.337 71.612 219.432 72.1927H161.191C161.186 70.7836 161.587 69.403 162.346 68.2155C163.105 67.0281 164.189 66.0838 165.469 65.4954C166.75 64.9069 168.172 64.6991 169.568 64.8968C170.963 65.0944 172.272 65.6891 173.339 66.61C173.866 65.0875 174.737 63.7067 175.885 62.5747" stroke="#263238" stroke-linecap="round" stroke-linejoin="round"/>
<path d="M1 47.9863H59.2419C59.2461 46.5773 58.8448 45.1966 58.0862 44.0091C57.3274 42.8216 56.2433 41.8774 54.963 41.289C53.6825 40.7005 52.2599 40.4928 50.8647 40.6904C49.4694 40.888 48.1605 41.4827 47.0939 42.4036C46.2847 40.066 44.6735 38.0908 42.5462 36.8285C40.4189 35.566 37.9132 35.0981 35.4737 35.5078C33.0342 35.9175 30.8188 37.1781 29.2205 39.0661C27.6223 40.954 26.7446 43.3472 26.7433 45.8208V45.8843C26.4246 45.4769 26.0234 45.1415 25.566 44.8999C25.1086 44.6584 24.6054 44.5164 24.0892 44.483C23.5731 44.4496 23.0557 44.5256 22.571 44.7061C22.0863 44.8866 21.6452 45.1675 21.2767 45.5303C21.0408 43.4481 20.02 41.5341 18.4221 40.1783C16.8242 38.8225 14.7696 38.127 12.6767 38.2333C10.5838 38.3398 8.61022 39.2401 7.15804 40.751C5.70596 42.2618 4.88439 44.2694 4.86098 46.3649C4.44574 46.0662 3.94637 45.9072 3.43491 45.9107C2.84921 45.9129 2.28312 46.1226 1.83738 46.5027C1.39163 46.8827 1.09493 47.4084 1 47.9863Z" fill="white" stroke="#263238" stroke-miterlimit="10"/>
<path d="M78.6208 68.5747L80.4271 79.8671" stroke="#5CB2E4" stroke-miterlimit="10"/>
<path d="M71.7915 72.5732L79.3074 81.6734" stroke="#5CB2E4" stroke-miterlimit="10"/>
<path d="M70.603 80.3003L77.6383 83.0517" stroke="#5CB2E4" stroke-miterlimit="10"/>
<path d="M34.9087 99.9533V91.2544" stroke="#263238" stroke-linecap="round" stroke-linejoin="round"/>
<path d="M14.4263 99.9533H34.9088V93.5361H14.4263V99.9533Z" fill="white" stroke="#263238" stroke-linecap="round" stroke-linejoin="round"/>
<path d="M14.4263 99.9533V91.2544" stroke="#263238" stroke-linecap="round" stroke-linejoin="round"/>
<path d="M86.501 217.641H127.9V145.556H86.501V217.641Z" fill="white" stroke="#263238" stroke-linecap="round" stroke-linejoin="round"/>
<path d="M45.2349 217.641H86.6332V118.831H45.2349V217.641Z" fill="white" stroke="#263238" stroke-linecap="round" stroke-linejoin="round"/>
<path d="M3.64648 217.647H45.0448V99.7793H3.64648V217.647Z" fill="white" stroke="#263238" stroke-linecap="round" stroke-linejoin="round"/>
<path d="M37.3386 107.21V213.179" stroke="#5CB2E4" stroke-linecap="round" stroke-linejoin="round"/>
<path d="M28.2854 107.21V213.179" stroke="#5CB2E4" stroke-linecap="round" stroke-linejoin="round"/>
<path d="M19.2327 107.21V213.179" stroke="#5CB2E4" stroke-linecap="round" stroke-linejoin="round"/>
<path d="M10.1851 107.21V213.179" stroke="#5CB2E4" stroke-linecap="round" stroke-linejoin="round"/>
<path d="M79.762 123.932V133.793V143.65V153.51V163.366V173.232V183.094V192.949V202.81V212.671V212.862" stroke="#5CB2E4" stroke-linecap="round" stroke-linejoin="round"/>
<path d="M70.7087 123.932V133.793V143.65V153.51V163.366V173.232V183.094V192.949V202.81V212.671V212.862" stroke="#5CB2E4" stroke-linecap="round" stroke-linejoin="round"/>
<path d="M61.6504 123.932V133.793V143.65V153.51V163.366V173.232V183.094V192.949V202.81V212.671V212.862" stroke="#5CB2E4" stroke-linecap="round" stroke-linejoin="round"/>
<path d="M52.6025 123.932V133.793V143.65V153.51V163.366V173.232V183.094V192.949V202.81V212.671V212.862" stroke="#5CB2E4" stroke-linecap="round" stroke-linejoin="round"/>
<path d="M79.7615 123.932H77.9866H69.5252H61.0586H52.6025" stroke="#5CB2E4" stroke-linecap="round" stroke-linejoin="round"/>
<path d="M79.7615 133.793H77.9866H69.5252H61.0586H52.6025" stroke="#5CB2E4" stroke-linecap="round" stroke-linejoin="round"/>
<path d="M79.7615 143.65H77.9866H69.5252H61.0586H52.6025" stroke="#5CB2E4" stroke-linecap="round" stroke-linejoin="round"/>
<path d="M79.7615 153.511H77.9866H69.5252H61.0586H52.6025" stroke="#5CB2E4" stroke-linecap="round" stroke-linejoin="round"/>
<path d="M79.7615 163.366H77.9866H69.5252H61.0586H52.6025" stroke="#5CB2E4" stroke-linecap="round" stroke-linejoin="round"/>
<path d="M79.7615 173.232H77.9866H69.5252H61.0586H52.6025" stroke="#5CB2E4" stroke-linecap="round" stroke-linejoin="round"/>
<path d="M79.7615 183.093H77.9866H69.5252H61.0586H52.6025" stroke="#5CB2E4" stroke-linecap="round" stroke-linejoin="round"/>
<path d="M79.7615 192.949H77.9866H69.5252H61.0586H52.6025" stroke="#5CB2E4" stroke-linecap="round" stroke-linejoin="round"/>
<path d="M79.7615 202.81H77.9866H69.5252H61.0586H52.6025" stroke="#5CB2E4" stroke-linecap="round" stroke-linejoin="round"/>
<path d="M79.7615 212.672H77.9866H69.5252H61.0586H52.6025" stroke="#5CB2E4" stroke-linecap="round" stroke-linejoin="round"/>
<path d="M123.849 151.503H92.5542" stroke="#5CB2E4" stroke-linecap="round" stroke-linejoin="round"/>
<path d="M123.849 161.365H92.5542" stroke="#5CB2E4" stroke-linecap="round" stroke-linejoin="round"/>
<path d="M123.849 171.22H92.5542" stroke="#5CB2E4" stroke-linecap="round" stroke-linejoin="round"/>
<path d="M123.849 181.081H92.5542" stroke="#5CB2E4" stroke-linecap="round" stroke-linejoin="round"/>
<path d="M123.849 190.942H92.5542" stroke="#5CB2E4" stroke-linecap="round" stroke-linejoin="round"/>
<path d="M123.849 200.803H92.5542" stroke="#5CB2E4" stroke-linecap="round" stroke-linejoin="round"/>
<path d="M123.849 210.659H92.5542" stroke="#5CB2E4" stroke-linecap="round" stroke-linejoin="round"/>
<path d="M219.432 217.953H200.503H198.3H1" stroke="#263238" stroke-linecap="round" stroke-linejoin="round"/>
<path d="M72.9218 217.34C72.6418 217.472 70.6083 217.546 68.0151 217.588C62.7333 217.678 55.1328 217.636 55.1328 217.636C55.1328 217.636 54.7209 217.636 54.5624 215.576C54.404 213.516 55.4181 211.879 55.5342 211.018C56.0624 207.067 54.7156 205.419 54.6945 205.129C54.6733 204.838 62.0889 204.675 62.0889 204.675L64.5185 204.511L63.9903 207.986C63.9573 208.183 63.9396 208.383 63.9375 208.583C63.8873 209.812 64.2724 211.02 65.0252 211.992C65.7778 212.966 66.8497 213.642 68.052 213.902H68.1629C68.3372 213.738 71.332 212.354 72.5574 214.266C73.2281 215.306 72.9218 217.34 72.9218 217.34Z" fill="#263238"/>
<path opacity="0.2" d="M72.9218 217.34C72.6418 217.472 70.6083 217.546 68.0151 217.588C62.7333 217.678 55.1328 217.636 55.1328 217.636C55.1328 217.636 54.7209 217.636 54.5624 215.576C54.404 213.516 55.4181 211.879 55.5342 211.018C56.0624 207.067 54.7156 205.419 54.6945 205.129C54.6733 204.838 62.0889 204.675 62.0889 204.675L64.5185 204.511L63.9903 207.986C63.9573 208.183 63.9396 208.383 63.9375 208.583C63.8873 209.812 64.2724 211.02 65.0252 211.992C65.7778 212.966 66.8497 213.642 68.052 213.902H68.1629C68.3372 213.738 71.332 212.354 72.5574 214.266C73.2281 215.306 72.9218 217.34 72.9218 217.34Z" fill="white"/>
<path opacity="0.3" d="M68.0151 217.599C62.7333 217.689 55.1328 217.646 55.1328 217.646C55.1328 217.646 54.7209 217.646 54.5624 215.587C54.404 213.527 55.4181 211.889 55.5342 211.028C56.0624 207.078 54.7156 205.43 54.6945 205.139C54.6733 204.849 62.0889 204.685 62.0889 204.685L64.5185 204.521L63.9903 207.997C63.9573 208.194 63.9396 208.393 63.9375 208.593C62.2632 209.978 60.9322 211.092 60.9322 211.092C60.9322 211.092 67.7193 213.332 68.0151 217.599Z" fill="black"/>
<path d="M72.9218 217.34C72.6418 217.472 70.6083 217.546 68.0151 217.588C62.7333 217.678 55.1328 217.636 55.1328 217.636C55.1328 217.636 54.7209 217.636 54.5624 215.576C54.404 213.516 55.4181 211.879 55.5342 211.018C56.0624 207.067 54.7156 205.419 54.6945 205.129C54.6733 204.838 62.0889 204.675 62.0889 204.675L64.5185 204.511L63.9903 207.986C63.9573 208.183 63.9396 208.383 63.9375 208.583C63.8873 209.812 64.2724 211.02 65.0252 211.992C65.7778 212.966 66.8497 213.642 68.052 213.902H68.1629C68.3372 213.738 71.332 212.354 72.5574 214.266C73.2281 215.306 72.9218 217.34 72.9218 217.34Z" stroke="#263238" stroke-linecap="round" stroke-linejoin="round"/>
<path d="M66.1242 199.968C66.3724 201.295 66.9904 201.67 66.589 202.293C66.5309 202.388 66.4728 202.499 66.4147 202.615C66.103 203.259 65.7703 204.168 64.545 204.511C63.103 204.918 56.1999 205.293 54.7104 205.108C53.2209 204.923 52.3758 203.523 52.2914 202.34C52.2068 201.157 52.8511 200.417 52.7508 199.092C52.6505 197.767 51.6152 197.38 51.5466 196.498C51.4779 195.617 52.3336 194.333 52.323 193.451C52.323 191.591 52.3547 193.62 52.7244 183.052C52.9304 177.025 54.3882 175.715 52.7244 168.88C52.1223 166.414 45.6575 121.756 45.6575 121.756L65.5961 122.95C65.5961 122.95 65.913 130.556 66.2721 139.54C66.7263 150.97 67.2492 164.629 67.265 167.703C67.2967 173.946 66.7368 182.693 66.2668 190.456C66.0714 193.768 65.7386 196.05 66.2668 197.322C66.3295 197.455 66.3671 197.598 66.3777 197.746C66.4676 198.585 65.8707 198.643 66.1242 199.968Z" fill="#5CB2E4"/>
<path opacity="0.3" d="M66.4147 202.615C66.103 203.259 65.7703 204.168 64.545 204.511C63.103 204.918 56.1999 205.293 54.7104 205.108C53.2209 204.923 52.3758 203.523 52.2914 202.34C52.2068 201.157 52.8511 200.417 52.7508 199.092C52.6505 197.767 51.6152 197.38 51.5466 196.498C51.4779 195.617 52.3336 194.333 52.323 193.451C52.323 191.591 52.3547 193.62 52.7244 183.052C52.9304 177.025 54.3882 175.715 52.7244 168.88C52.1223 166.414 45.6575 121.756 45.6575 121.756L65.5961 122.95C65.5961 122.95 65.913 130.556 66.2721 139.54C63.8689 149.534 61.0802 160.53 60.0343 162.379L61.6823 165.257C61.6823 165.257 57.7421 174.4 57.7421 175.503C57.7421 176.608 59.0731 186.933 59.5326 189.078C59.9921 191.222 57.7421 189.696 57.7421 191.502C57.7421 193.166 57.5625 201.263 66.4147 202.615Z" fill="black"/>
<path d="M66.1242 199.968C66.3724 201.295 66.9904 201.67 66.589 202.293C66.5309 202.388 66.4728 202.499 66.4147 202.615C66.103 203.259 65.7703 204.168 64.545 204.511C63.103 204.918 56.1999 205.293 54.7104 205.108C53.2209 204.923 52.3758 203.523 52.2914 202.34C52.2068 201.157 52.8511 200.417 52.7508 199.092C52.6505 197.767 51.6152 197.38 51.5466 196.498C51.4779 195.617 52.3336 194.333 52.323 193.451C52.323 191.591 52.3547 193.62 52.7244 183.052C52.9304 177.025 54.3882 175.715 52.7244 168.88C52.1223 166.414 45.6575 121.756 45.6575 121.756L65.5961 122.95C65.5961 122.95 65.913 130.556 66.2721 139.54C66.7263 150.97 67.2492 164.629 67.2651 167.703C67.2967 173.946 66.7369 182.693 66.2668 190.456C66.0714 193.768 65.7386 196.05 66.2668 197.322C66.3295 197.455 66.3671 197.598 66.3777 197.746C66.4676 198.585 65.8707 198.643 66.1242 199.968Z" stroke="#263238" stroke-linecap="round" stroke-linejoin="round"/>
<path d="M64.5976 137.384C64.5976 137.384 62.1522 139.497 60.0659 139.117" stroke="#263238" stroke-linecap="round" stroke-linejoin="round"/>
<path d="M64.355 141.378C64.355 141.378 60.2352 140.386 59.7651 139.55" stroke="#263238" stroke-linecap="round" stroke-linejoin="round"/>
<path d="M59.073 160.197C59.073 160.197 61.2966 166.007 63.7685 167.412" stroke="#263238" stroke-linecap="round" stroke-linejoin="round"/>
<path d="M63.8794 198.759C63.8794 198.759 58.9409 200.285 56.4849 199.171C54.0289 198.057 58.4233 201.722 63.0396 201.4" stroke="#263238" stroke-linecap="round" stroke-linejoin="round"/>
<path d="M56.8862 172.419C56.8862 172.419 56.9284 187.868 60.9585 190.942" stroke="#263238" stroke-linecap="round" stroke-linejoin="round"/>
<path d="M61.0271 207.061C61.9797 206.682 62.9907 206.469 64.0156 206.433" stroke="#263238" stroke-linecap="round" stroke-linejoin="round"/>
<path d="M61.1172 209.063C61.1172 209.063 62.548 208.535 63.5829 208.324" stroke="#263238" stroke-linecap="round" stroke-linejoin="round"/>
<path d="M61.3862 210.981L63.6936 210.289" stroke="#263238" stroke-linecap="round" stroke-linejoin="round"/>
<path d="M62.5115 212.549L64.407 211.805" stroke="#263238" stroke-linecap="round" stroke-linejoin="round"/>
<path d="M64.6606 213.897L65.7641 213.047" stroke="#263238" stroke-linecap="round" stroke-linejoin="round"/>
<path d="M61.5022 205.155C61.5022 205.155 61.3173 210.437 62.9864 212.174C64.6554 213.912 66.4248 213.949 66.2717 214.615" stroke="#263238" stroke-linecap="round" stroke-linejoin="round"/>
<path d="M46.2753 204.538C46.2753 204.538 38.8069 204.691 38.7805 204.986C38.7541 205.282 39.8369 206.924 38.6063 210.87C38.3422 211.731 37.0217 213.363 36.8527 215.417C36.6836 217.472 37.0692 217.472 37.0692 217.472C37.0692 217.472 53.9708 217.567 54.9056 217.182C54.9056 217.182 55.5607 215.153 55.08 214.145C54.1293 212.143 50.638 213.759 50.749 213.781H50.638C48.0342 213.204 46.7242 210.612 47.6116 207.865L48.7366 204.395L46.2753 204.538Z" fill="#263238"/>
<path opacity="0.25" d="M46.2753 204.538C46.2753 204.538 38.8069 204.691 38.7805 204.986C38.7541 205.282 39.8369 206.924 38.6063 210.87C38.3422 211.731 37.0217 213.363 36.8527 215.417C36.6836 217.472 37.0692 217.472 37.0692 217.472C37.0692 217.472 53.9708 217.567 54.9056 217.182C54.9056 217.182 55.5607 215.153 55.08 214.145C54.1293 212.143 50.638 213.759 50.749 213.781H50.638C48.0342 213.204 46.7242 210.612 47.6116 207.865L48.7366 204.395L46.2753 204.538Z" fill="white"/>
<path d="M46.2753 204.538C46.2753 204.538 38.8069 204.691 38.7805 204.986C38.7541 205.282 39.8369 206.924 38.6063 210.87C38.3422 211.731 37.0217 213.363 36.8527 215.417C36.6836 217.472 37.0692 217.472 37.0692 217.472C37.0692 217.472 53.9708 217.567 54.9056 217.182C54.9056 217.182 55.5607 215.153 55.08 214.145C54.1293 212.143 50.638 213.759 50.749 213.781H50.638C48.0342 213.204 46.7242 210.612 47.6116 207.865L48.7366 204.395L46.2753 204.538Z" stroke="#263238" stroke-linecap="round" stroke-linejoin="round"/>
<path d="M63.8265 122.95L44.0938 121.756C44.0938 121.756 42.8843 166.34 43.0375 168.801C43.5288 175.625 41.8491 176.93 40.6026 182.951C38.416 193.514 38.7118 191.475 38.416 193.329C38.2734 194.211 37.1959 195.495 37.1114 196.377C37.0269 197.259 37.9987 197.644 37.872 198.965C37.7452 200.285 36.9635 201.036 36.8525 202.208C36.7417 203.38 37.3385 204.786 38.7963 204.971C40.2541 205.155 47.2471 204.78 48.7365 204.374C50.226 203.967 50.6538 202.789 51.1609 202.161C51.6679 201.532 51.1186 201.163 51.0922 199.836C51.0658 198.511 51.6626 198.474 51.7419 197.607C51.7563 197.465 51.7438 197.322 51.7049 197.185C51.3827 195.923 52.1116 193.646 52.8721 190.319C54.6679 182.57 56.7436 173.835 57.7789 167.608C58.3071 164.501 60.161 150.59 61.6821 139.086C61.6821 139.086 63.1398 136.735 63.8793 132.183" fill="#5CB2E4"/>
<path opacity="0.3" d="M44.0303 123.304L43.856 129.964C47.1956 130.235 50.5517 130.235 53.8913 129.964C60.409 129.383 64.3756 126.494 64.3756 126.494L63.8474 122.95C63.8474 122.95 56.4529 124.941 52.8138 124.661C49.1747 124.381 45.6888 123.943 44.0303 123.304Z" fill="black"/>
<path d="M63.8265 122.95L44.0938 121.756C44.0938 121.756 42.8843 166.34 43.0375 168.801C43.5288 175.625 41.8491 176.93 40.6026 182.951C38.416 193.514 38.7118 191.475 38.416 193.329C38.2734 194.211 37.1959 195.495 37.1114 196.377C37.0269 197.259 37.9987 197.644 37.872 198.965C37.7452 200.285 36.9635 201.036 36.8525 202.208C36.7417 203.38 37.3385 204.786 38.7963 204.971C40.2541 205.155 47.2471 204.78 48.7365 204.374C50.226 203.967 50.6538 202.789 51.1609 202.161C51.6679 201.532 51.1186 201.163 51.0922 199.836C51.0658 198.511 51.6626 198.474 51.7419 197.607C51.7563 197.465 51.7438 197.322 51.7049 197.185C51.3827 195.923 52.1116 193.646 52.8721 190.319C54.6679 182.57 56.7436 173.835 57.7789 167.608C58.3071 164.501 60.161 150.59 61.6821 139.086C61.6821 139.086 63.1398 136.735 63.8793 132.183" stroke="#263238" stroke-linecap="round" stroke-linejoin="round"/>
<path d="M54.0764 176.872C54.0764 176.872 47.2523 188.491 40.5181 192.289" stroke="#263238" stroke-linecap="round" stroke-linejoin="round"/>
<path d="M40.4016 198.759L47.7274 199.683C48.2556 199.752 48.9369 199.963 48.8841 200.523C48.8313 201.083 48.2661 201.337 47.7803 201.511C46.1491 202.119 44.3759 202.239 42.6781 201.854" stroke="#263238" stroke-linecap="round" stroke-linejoin="round"/>
<path d="M40.6187 195.236C43.2502 196.745 46.2212 197.563 49.2543 197.613" stroke="#263238" stroke-linecap="round" stroke-linejoin="round"/>
<path d="M45.2136 174.088C45.2136 174.088 48.9109 174.231 50.8123 174.062C49.402 175.994 47.1151 176.834 44.9072 176.945" stroke="#263238" stroke-linecap="round" stroke-linejoin="round"/>
<path d="M47.9811 127.281C47.9811 127.281 47.4529 146.264 47.2628 154.16C47.0727 162.056 46.7346 171.262 46.7346 171.262C46.5553 171.544 46.4337 171.859 46.3766 172.187C46.3195 172.516 46.3281 172.853 46.4019 173.179L46.6977 174.152L46.5392 176.893C46.327 177.142 46.1728 177.435 46.0879 177.751C46.003 178.067 45.9894 178.398 46.048 178.72C46.3016 179.719 44.2522 186.674 44.2522 186.674L43.8984 187.134C43.5364 187.567 43.2943 188.087 43.196 188.644C43.0978 189.2 43.1469 189.772 43.3385 190.303L42.6043 196.261C42.2096 196.584 41.9451 197.038 41.8597 197.542C41.7743 198.045 41.8737 198.562 42.1395 198.997L41.4529 202.102C41.1045 202.398 40.8717 202.806 40.7953 203.256C40.719 203.708 40.804 204.17 41.0356 204.564L41.1519 204.738" stroke="#263238" stroke-linecap="round" stroke-linejoin="round"/>
<path d="M82.1594 92.2737C81.6312 93.4301 77.131 96.4991 77.131 96.4991C77.1269 95.9919 77.2352 95.4908 77.448 95.0306C77.7702 94.5345 77.9761 94.0593 78.1821 93.7632C78.2352 92.9609 77.9716 92.1707 77.448 91.5605C76.8353 90.8792 76.3546 92.5798 76.0853 93.7102C75.8159 94.8406 74.0518 96.5621 74.1311 97.4074C74.2842 98.3797 74.4796 99.335 74.7279 100.286C74.7279 100.286 67.2014 102.927 66.3721 101.343C64.6163 97.9386 62.6768 94.6325 60.5622 91.4394C58.7928 93.9112 60.1872 97.3234 61.1855 101.517C62.1837 105.71 65.2577 111.584 65.2577 111.584C70.7612 108.943 77.0148 102.077 77.0148 102.077C77.0148 102.077 78.4832 101.422 80.2998 100.799C82.1174 100.175 81.8533 99.6421 82.1434 97.8566C82.4335 96.071 83.96 93.6312 83.871 92.7118C83.781 91.7935 82.6976 91.1223 82.1594 92.2737Z" fill="white" stroke="#263238" stroke-linecap="round" stroke-linejoin="round"/>
<path d="M64.3546 101.194C64.286 105.019 65.0412 117.985 65.8599 123.13L43.46 122.564V122.189C45.1026 116.104 44.0357 109.513 41.4424 103.793C40.0692 100.756 39.4565 96.8739 38.7487 93.1977C36.9476 83.8386 41.4688 80.9388 45.2453 80.5796C46.703 80.511 46.8298 79.5232 47.8862 79.6025C48.6152 79.691 49.3549 79.6004 50.0411 79.3384C50.5111 81.2557 53.1151 86.8856 54.0077 87.5308C54.4412 87.8729 54.9676 88.077 55.5185 88.116C56.0694 88.156 56.6196 88.029 57.0975 87.7519C57.9954 87.1237 58.2436 85.9253 58.4497 84.8469C58.5424 84.2637 58.7092 83.6935 58.9461 83.1523C60.2666 83.8126 62.5694 84.5938 64.2807 87.6728C66.3934 94.4711 65.2314 90.1136 66.8581 100.085C67.1381 101.611 64.3546 101.194 64.3546 101.194Z" fill="white" stroke="#263238" stroke-linecap="round" stroke-linejoin="round"/>
<path d="M60.8316 83.5006L58.6661 82.7453C60.1343 87.789 58.8615 93.5199 55.1484 91.2542C51.4354 88.9884 49.9618 82.4763 48.8526 79.6343C48.2716 79.4547 45.9106 79.3702 44.6852 80.3103C45.9635 82.6503 49.4389 87.2978 49.0322 91.0741C48.5674 95.2995 45.2451 99.0497 39.0391 94.8033C39.8841 101.204 42.5673 105.821 43.0849 108.008C44.9757 115.93 43.7134 117.014 42.8314 124.83C51.8104 129.41 62.6749 127.133 67.4338 125.739C65.9813 117.774 66.6204 97.7033 60.8316 83.5006Z" fill="#5CB2E4"/>
<path opacity="0.3" d="M47.1467 117.125C47.1467 117.125 61.793 123.515 63.8793 117.309C60.0349 118.144 56.0749 118.307 52.1749 117.79L47.1467 117.125Z" fill="black"/>
<path opacity="0.3" d="M41.9551 103.297L52.5978 94.8467C52.5978 94.8467 54.7105 100.657 49.0484 103.989C45.2192 106.244 41.9551 103.297 41.9551 103.297Z" fill="black"/>
<path d="M60.8316 83.5006L58.6661 82.7453C60.1343 87.789 58.8615 93.5199 55.1484 91.2542C51.4354 88.9884 49.9618 82.4763 48.8526 79.6343C48.2716 79.4547 45.9106 79.3702 44.6852 80.3103C45.9635 82.6503 49.4389 87.2978 49.0322 91.0741C48.5674 95.2995 45.2451 99.0497 39.0391 94.8033C39.8841 101.204 42.5673 105.821 43.0849 108.008C44.9757 115.93 43.7134 117.014 42.8314 124.83C51.8104 129.41 62.6749 127.133 67.4338 125.739C65.9813 117.774 66.6204 97.7033 60.8316 83.5006Z" stroke="#263238" stroke-linecap="round" stroke-linejoin="round"/>
<path d="M63.879 117.103C63.7875 117.501 63.6063 117.872 63.3491 118.189C63.0919 118.506 62.7656 118.759 62.3953 118.93" stroke="#263238" stroke-linecap="round" stroke-linejoin="round"/>
<path d="M60.0342 119.501C55.5794 119.907 51.1026 119.012 47.1467 116.924" stroke="#263238" stroke-linecap="round" stroke-linejoin="round"/>
<path d="M80.5591 83.7066L75.9746 95.9337C75.8933 96.1517 75.863 96.3858 75.8858 96.6169C75.9087 96.849 75.9842 97.072 76.1067 97.2701L76.957 98.6325C77.3743 99.3038 78.8479 99.5038 79.4818 99.0707C79.7138 98.9156 79.8969 98.6976 80.0099 98.4425L84.5314 86.2254C84.6485 85.9463 84.6795 85.6382 84.6215 85.3411C84.5635 85.044 84.4174 84.771 84.2033 84.5569L82.7779 83.1784C82.6488 83.0494 82.4938 82.9484 82.3237 82.8813C82.1537 82.8143 81.9716 82.7843 81.7895 82.7903C81.6075 82.7973 81.4284 82.8423 81.2634 82.9213C81.0993 83.0014 80.9523 83.1134 80.8342 83.2525C80.7152 83.3855 80.6222 83.5395 80.5591 83.7066Z" fill="#263238"/>
<path d="M39.0288 86.9966C39.1381 88.8222 39.5785 90.6118 40.3281 92.2783C42.5306 97.5181 50.9392 110.558 52.7825 111.441C54.6258 112.323 73.4658 102.182 74.8285 100.793C75.2159 100.36 75.477 99.8298 75.5831 99.2586C75.6893 98.6874 75.6365 98.0983 75.4307 97.5551C75.4307 97.5551 75.4042 98.8545 76.5134 98.6114C77.2105 98.4584 76.6349 96.3037 76.6349 96.3037C76.6349 96.3037 77.9131 95.4004 76.693 93.7308C76.693 93.7308 78.4149 93.7308 78.2775 92.4314C78.23 91.9032 73.1595 91.8352 72.3831 93.2977C71.4376 95.0723 70.4974 99.6998 70.4974 99.6998C70.4974 99.6998 58.2227 102.869 55.6769 103.339L49.0377 88.7772" fill="white"/>
<path d="M39.0288 86.9966C39.1381 88.8222 39.5785 90.6118 40.3281 92.2783C42.5306 97.5181 50.9392 110.558 52.7825 111.441C54.6258 112.323 73.4658 102.182 74.8285 100.793C75.2159 100.36 75.477 99.8298 75.5831 99.2586C75.6893 98.6874 75.6366 98.0983 75.4307 97.5551C75.4307 97.5551 75.4042 98.8545 76.5134 98.6114C77.2105 98.4584 76.6349 96.3037 76.6349 96.3037C76.6349 96.3037 77.9131 95.4004 76.693 93.7308C76.693 93.7308 78.4149 93.7308 78.2775 92.4314C78.23 91.9032 73.1595 91.8352 72.3831 93.2977C71.4376 95.0723 70.4974 99.6998 70.4974 99.6998C70.4974 99.6998 58.2227 102.869 55.6769 103.339L49.0377 88.7772" stroke="#263238" stroke-linecap="round" stroke-linejoin="round"/>
<path d="M75.0239 101.581C75.4066 100.617 76.0664 99.7873 76.9201 99.1981C77.913 98.7279 79.281 98.5799 80.3641 98.3748C80.3641 98.3748 81.2084 94.7936 81.6685 94.8937C83.068 95.1838 81.9746 98.4748 81.9746 98.4748" fill="white"/>
<path d="M75.0239 101.581C75.4066 100.617 76.0664 99.7873 76.9201 99.1981C77.913 98.7279 79.281 98.5799 80.3641 98.3748C80.3641 98.3748 81.2084 94.7936 81.6685 94.8937C83.068 95.1838 81.9746 98.4748 81.9746 98.4748" stroke="#263238" stroke-linecap="round" stroke-linejoin="round"/>
<path d="M83.6588 93.6052C83.4788 93.4241 83.2367 93.3181 82.9816 93.3071C82.7255 93.2961 82.4754 93.3821 82.2804 93.5462C81.5992 94.1644 80.5638 95.913 79.4604 96.8473" stroke="#263238" stroke-linecap="round" stroke-linejoin="round"/>
<path d="M73.8621 97.365C74.163 96.7 76.3014 95.575 76.7238 97.017" stroke="#263238" stroke-linecap="round" stroke-linejoin="round"/>
<path d="M73.8621 95.5905C73.8621 95.5905 76.3384 94.2385 76.8347 95.9125" stroke="#263238" stroke-linecap="round" stroke-linejoin="round"/>
<path d="M74.1736 94.0063C74.1736 94.0063 75.2035 93.8052 75.4306 93.7842C76.2493 93.7052 77.1419 93.5991 77.5856 93.5991" stroke="#263238" stroke-linecap="round" stroke-linejoin="round"/>
<path d="M61.6821 139.117C61.6821 139.117 58.381 136.207 56.4636 135.653L61.6821 139.117Z" fill="#5CB2E4"/>
<path d="M61.6821 139.117C61.6821 139.117 58.381 136.207 56.4636 135.653" stroke="#263238" stroke-linecap="round" stroke-linejoin="round"/>
<path d="M45.0127 207.093C45.9858 206.712 47.0159 206.496 48.0603 206.454" stroke="#263238" stroke-linecap="round" stroke-linejoin="round"/>
<path d="M44.939 209.148C44.939 209.148 46.4122 208.62 47.4629 208.393" stroke="#263238" stroke-linecap="round" stroke-linejoin="round"/>
<path d="M45.0396 211.076L47.405 210.379" stroke="#263238" stroke-linecap="round" stroke-linejoin="round"/>
<path d="M46.0271 212.671L47.9913 211.916" stroke="#263238" stroke-linecap="round" stroke-linejoin="round"/>
<path d="M48.0605 214.039L49.238 213.179" stroke="#263238" stroke-linecap="round" stroke-linejoin="round"/>
<path d="M45.657 205.155C45.657 205.155 45.0126 210.543 46.539 212.291C48.0654 214.039 49.819 214.092 49.613 214.773" stroke="#263238" stroke-linecap="round" stroke-linejoin="round"/>
<path d="M58.4603 82.5293C58.4603 82.5293 60.6892 91.2171 57.1134 91.8773C52.2384 92.7756 48.8528 79.6185 48.8528 79.6185C49.5975 79.571 49.6874 79.2594 50.337 78.8896C50.337 78.8896 55.7825 89.7807 58.4603 82.5293Z" fill="#263238"/>
<path d="M43.6346 80.8811C43.6346 80.8811 38.5377 81.8904 38.5218 89.4689C38.506 97.0484 41.8652 103.361 41.8652 103.361C41.8652 103.361 45.8423 103.038 48.3564 101.195C53.6382 97.3395 52.7825 95.1738 52.7825 95.1738L50.0149 89.691C50.0149 89.691 49.1065 86.1788 45.1557 80.5801L43.6346 80.8811Z" fill="#263238"/>
<path d="M61.1436 83.8018C63.9218 91.6874 64.0485 94.6403 64.5503 98.2786C64.5503 98.2786 67.2704 97.7504 67.6876 97.1492C67.6876 97.1492 66.3673 90.694 64.9412 87.3559C64.0327 85.2382 62.839 84.499 61.1436 83.8018Z" fill="#263238"/>
<path d="M58.4552 74.8492C58.4552 74.8492 58.059 82.0744 58.0854 82.6556C58.133 83.749 58.9252 85.2015 58.1963 86.0197C57.7944 86.3989 57.288 86.6479 56.7427 86.736C56.1975 86.823 55.6385 86.745 55.1382 86.5109C54.1473 86.0187 53.2903 85.2935 52.6399 84.3982C51.3872 82.8647 50.3002 81.2021 49.397 79.4392C50.0013 78.8576 50.4452 78.1299 50.6857 77.3265C50.6857 77.3265 50.8283 76.7138 50.8336 76.682C51.0176 75.1934 50.9981 73.6866 50.7754 72.2032C50.5227 70.3677 50.0965 68.5603 49.5026 66.8052L58.4552 74.8492Z" fill="white" stroke="#263238" stroke-linecap="round" stroke-linejoin="round"/>
<path d="M50.9443 81.7471C52.1944 82.1552 53.4068 82.6714 54.5675 83.2896L50.9443 81.7471Z" fill="#263238"/>
<path d="M50.9443 81.7471C52.1944 82.1552 53.4068 82.6714 54.5675 83.2896" stroke="#263238" stroke-linecap="round" stroke-linejoin="round"/>
<path d="M49.8404 57.3718C49.8404 57.3718 45.3403 59.9441 47.6696 66.6572C49.9989 73.3702 55.1908 80.8703 59.8968 79.8616C64.6029 78.8527 65.823 69.504 63.3353 63.2716C60.8476 57.0391 54.5094 53.5901 49.8404 57.3718Z" fill="white" stroke="#263238" stroke-linecap="round" stroke-linejoin="round"/>
<path d="M63.2607 69.7628C63.2924 70.2908 63.0759 70.7766 62.7803 70.8188C62.4846 70.861 62.2153 70.3964 62.1836 69.8473C62.1519 69.2981 62.3579 68.8388 62.6641 68.8177C62.9703 68.7965 63.2291 69.2084 63.2607 69.7628Z" fill="#263238"/>
<path d="M58.6714 69.5461C58.7031 70.0741 58.4919 70.5546 58.2015 70.5757C57.9111 70.5968 57.6312 70.1533 57.5996 69.6094C57.5679 69.0656 57.7791 68.5957 58.08 68.5534C58.381 68.5112 58.6344 68.9864 58.6714 69.5461Z" fill="#263238"/>
<path d="M60.3986 58.5283C57.3827 55.5917 53.2789 54.6833 49.9936 57.3399C49.9936 57.3399 45.4989 59.9122 47.8281 66.6305C48.3926 68.232 49.0759 69.7893 49.8722 71.2891L49.9567 71.363C49.9567 71.363 48.4778 69.8894 54.3458 66.6464C56.2737 65.5584 59.1205 58.7713 60.3986 58.5283Z" fill="#263238" stroke="#263238" stroke-linecap="round" stroke-linejoin="round"/>
<path d="M55.687 60.7311C55.687 60.7311 56.0989 56.0567 59.3525 55.8983C61.048 55.8138 63.2874 58.0902 63.5779 59.2892C63.7602 60.101 64.174 60.8425 64.7694 61.4238C65.3647 62.0051 66.1159 62.4011 66.9318 62.5639C66.9318 62.5639 65.9917 65.7329 64.1589 65.9653C61.1325 66.335 59.5638 65.6273 57.6096 62.96C57.0639 62.1856 56.4486 61.4624 55.7715 60.7998L55.687 60.7311Z" fill="#263238" stroke="#263238" stroke-linecap="round" stroke-linejoin="round"/>
<path d="M50.8441 69.7104C50.8441 69.7104 49.0642 66.0449 47.4797 70.0801C46.492 72.5943 50.4427 74.6066 51.7949 73.9411" fill="white"/>
<path d="M50.8441 69.7104C50.8441 69.7104 49.0642 66.0449 47.4797 70.0801C46.492 72.5943 50.4427 74.6066 51.7949 73.9411" stroke="#263238" stroke-linecap="round" stroke-linejoin="round"/>
<path d="M61.4391 67.4863C61.1394 67.8177 60.9229 68.2157 60.8071 68.6473C60.6915 69.0789 60.68 69.5318 60.7736 69.9687C60.9103 70.9278 61.2352 71.8504 61.7296 72.6835L59.469 73.4071" stroke="#263238" stroke-linecap="round" stroke-linejoin="round"/>
<path d="M57.4885 75.0605C57.8438 75.415 58.2927 75.6609 58.7827 75.7694C59.2728 75.8779 59.7836 75.8444 60.2552 75.673" stroke="#263238" stroke-linecap="round" stroke-linejoin="round"/>
<path d="M54.9583 67.4229C54.9583 67.4229 56.5428 65.6693 58.4547 66.5144" stroke="#263238" stroke-linecap="round" stroke-linejoin="round"/>
<path d="M62.3108 66.9585C62.3108 66.9585 64.3858 66.309 64.1218 68.1412" stroke="#263238" stroke-linecap="round" stroke-linejoin="round"/>
<path d="M50.8063 71.7163C50.6226 71.7224 50.4417 71.6699 50.2899 71.5665C50.138 71.463 50.023 71.3139 49.9614 71.1408C49.8083 70.8081 49.7661 70.428 49.613 70.0848C49.5498 69.9116 49.4336 69.7628 49.281 69.6595C49.1284 69.5562 48.9471 69.5036 48.7629 69.5092" fill="#263238"/>
<path d="M50.8063 71.7163C50.6226 71.7224 50.4417 71.6699 50.2899 71.5665C50.138 71.463 50.023 71.3139 49.9614 71.1408C49.8083 70.8081 49.7661 70.428 49.613 70.0848C49.5498 69.9116 49.4336 69.7628 49.281 69.6595C49.1284 69.5562 48.9471 69.5036 48.7629 69.5092" stroke="#263238" stroke-linecap="round" stroke-linejoin="round"/>
<path d="M57.3927 57.2283C57.1685 56.284 56.8131 55.3758 56.3367 54.5302C56.3367 54.5302 57.1974 54.3137 57.6726 54.2134C57.567 55.1374 57.4878 56.299 57.3927 57.2283Z" fill="#263238" stroke="#263238" stroke-linecap="round" stroke-linejoin="round"/>
<path d="M58.2968 79.6607L58.3338 81.2449C57.9856 81.3989 57.6008 81.4499 57.2246 81.3929C55.1964 81.1558 53.1524 76.6396 53.0256 76.3809L53.0678 76.4284C55.4657 79.0746 57.2457 79.6449 58.2968 79.6607Z" fill="#263238"/>
<path d="M126.816 94.8618H140.164" stroke="#263238" stroke-linecap="round" stroke-linejoin="round"/>
<path d="M111.505 94.8618H125.058" stroke="#263238" stroke-linecap="round" stroke-linejoin="round"/>
<path d="M104.285 94.8618H108.452" stroke="#263238" stroke-linecap="round" stroke-linejoin="round"/>
<path d="M115.244 102.109H140.11" stroke="#263238" stroke-linecap="round" stroke-linejoin="round"/>
<path d="M108.452 102.109H111.505" stroke="#263238" stroke-linecap="round" stroke-linejoin="round"/>
<path d="M126.373 109.36H140.058" stroke="#263238" stroke-linecap="round" stroke-linejoin="round"/>
<path d="M112.62 109.36H124.351" stroke="#263238" stroke-linecap="round" stroke-linejoin="round"/>
<path d="M124.498 116.606H140.005" stroke="#263238" stroke-linecap="round" stroke-linejoin="round"/>
<path d="M116.787 116.606H122.296" stroke="#263238" stroke-linecap="round" stroke-linejoin="round"/>
<path d="M170.101 116.871H131.238L133.186 94.5874H172.049L170.101 116.871Z" fill="white" stroke="#263238" stroke-linecap="round" stroke-linejoin="round"/>
<path d="M172.049 94.5923H133.187" stroke="#263238" stroke-linecap="round" stroke-linejoin="round"/>
<path d="M170.101 116.871H131.238L144.521 104.258L151.271 110.009L159.173 104.147L170.101 116.871Z" fill="white" stroke="#263238" stroke-linecap="round" stroke-linejoin="round"/>
<path d="M172.049 94.5874L159.173 104.148L151.272 110.01L144.521 104.258L133.187 94.5874H172.049Z" fill="white" stroke="#263238" stroke-linecap="round" stroke-linejoin="round"/>
<path d="M100.567 94.8618H90.8115" stroke="#263238" stroke-linecap="round" stroke-linejoin="round"/>
<path d="M137.945 69.335C130.16 75.6731 115.789 79.5446 115.789 79.5446L123.03 71.7857C119.497 70.6483 116.449 68.3577 114.374 65.2811C112.298 62.2046 111.317 58.5203 111.586 54.8191C111.854 51.1179 113.359 47.6142 115.857 44.8699C118.354 42.1255 121.701 40.2995 125.362 39.6846C129.021 39.0696 132.781 39.7016 136.039 41.4789C139.296 43.2562 141.863 46.0761 143.327 49.4862C144.79 52.8963 145.066 56.6992 144.111 60.285C143.155 63.8708 141.023 67.0317 138.056 69.2609" fill="white"/>
<path d="M137.945 69.335C130.16 75.6731 115.789 79.5446 115.789 79.5446L123.03 71.7857C119.497 70.6483 116.449 68.3577 114.374 65.2811C112.298 62.2046 111.317 58.5203 111.586 54.8191C111.854 51.1179 113.359 47.6142 115.857 44.8699C118.354 42.1255 121.701 40.2995 125.362 39.6846C129.021 39.0696 132.781 39.7016 136.039 41.4789C139.296 43.2562 141.863 46.0761 143.327 49.4862C144.79 52.8963 145.066 56.6992 144.111 60.285C143.155 63.8708 141.023 67.0317 138.056 69.2609" stroke="#263238" stroke-linecap="round" stroke-linejoin="round"/>
<path d="M138.341 48.8844C141.034 48.8844 143.217 46.7017 143.217 44.0093C143.217 41.3169 141.034 39.1343 138.341 39.1343C135.65 39.1343 133.467 41.3169 133.467 44.0093C133.467 46.7017 135.65 48.8844 138.341 48.8844Z" fill="#5CB2E4" stroke="#263238" stroke-linecap="round" stroke-linejoin="round"/>
<path d="M135.516 42.9212L138.341 46.1007L144.769 38.495L144.542 38.2573L138.341 43.5919L136.699 41.8014L135.516 42.9212Z" fill="#263238" stroke="#263238" stroke-linecap="round" stroke-linejoin="round"/>
<path d="M119.538 52.0112H137.745" stroke="#263238" stroke-linecap="round" stroke-linejoin="round"/>
<path d="M119.127 56.7119H137.333" stroke="#263238" stroke-linecap="round" stroke-linejoin="round"/>
<path d="M118.72 61.4126H136.921" stroke="#263238" stroke-linecap="round" stroke-linejoin="round"/>
<path d="M176.053 10.5282V18.8628L198.854 1.28516L176.053 10.5282Z" fill="#5CB2E4" stroke="#263238" stroke-linecap="round" stroke-linejoin="round"/>
<path d="M176.053 10.5283L199.377 1L167.528 4.30109L176.053 10.5283Z" fill="#5CB2E4" stroke="#263238" stroke-linecap="round" stroke-linejoin="round"/>
<path d="M178.795 12.2554L189.776 20.3787L199.378 1L178.795 12.2554Z" fill="#5CB2E4" stroke="#263238" stroke-linecap="round" stroke-linejoin="round"/>
<path d="M178.795 12.2554L176.053 18.8629L181.895 14.5476L178.795 12.2554Z" fill="#5CB2E4" stroke="#263238" stroke-linecap="round" stroke-linejoin="round"/>
<path d="M88.6765 82.1064C88.7345 81.9374 88.7985 81.7744 88.8565 81.6104" stroke="#263238" stroke-linecap="round" stroke-linejoin="round"/>
<path d="M89.5488 79.6135C94.4605 64.946 93.5782 56.1308 101.554 41.9229C103.138 39.0497 111.161 25.4544 122.56 20.6058C128.486 18.0863 132.257 21.847 130.73 24.5089C127.323 30.4351 114.811 23.3312 127.323 16.3169C138.901 9.83099 163.545 22.5125 175.097 18.8734" stroke="#263238" stroke-linecap="round" stroke-linejoin="round" stroke-dasharray="2 4"/>
<path d="M176.085 18.5094C176.249 18.4407 176.407 18.3668 176.566 18.2876" stroke="#263238" stroke-linecap="round" stroke-linejoin="round"/>
</svg>
