<svg width="264" height="264" viewBox="0 0 264 264" fill="none" xmlns="http://www.w3.org/2000/svg">
<path d="M231.887 71.9452C219.896 53.7451 197.102 42.9369 175.074 45.0173C153.046 47.0976 132.771 61.9132 124.529 82.0353C120.305 92.3049 118.985 103.826 112.691 113.013C106.239 122.433 95.4835 128.051 84.9341 132.744C74.3847 137.438 63.2861 141.763 54.9807 149.64C46.6752 157.518 41.7807 170.19 46.6752 180.455C51.6807 190.888 64.321 195.059 73.4501 202.345C82.5792 209.632 88.3819 220.35 97.7011 227.394C106.313 233.904 117.417 236.766 128.304 236.745C139.191 236.723 149.899 233.978 160.069 230.182C191.606 218.412 221.316 196.511 233.899 165.855C257.189 109.085 231.887 71.9452 231.887 71.9452Z" fill="#5CB2E4"/>
<g opacity="0.7">
<path d="M231.887 71.9452C219.896 53.7451 197.102 42.9369 175.074 45.0173C153.046 47.0976 132.771 61.9132 124.529 82.0353C120.305 92.3049 118.985 103.826 112.691 113.013C106.239 122.433 95.4835 128.051 84.9341 132.744C74.3847 137.438 63.2861 141.763 54.9807 149.64C46.6752 157.518 41.7807 170.19 46.6752 180.455C51.6807 190.888 64.321 195.059 73.4501 202.345C82.5792 209.632 88.3819 220.35 97.7011 227.394C106.313 233.904 117.417 236.766 128.304 236.745C139.191 236.723 149.899 233.978 160.069 230.182C191.606 218.412 221.316 196.511 233.899 165.855C257.189 109.085 231.887 71.9452 231.887 71.9452Z" fill="white"/>
</g>
<path d="M189.515 214.785C189.515 214.785 197.171 214.743 205.661 202.916C213.08 192.572 198.998 160.549 191.104 153.183C183.211 145.818 167.846 186.046 169.631 196.236C172.17 210.756 183.116 214.416 189.515 214.785Z" fill="#5CB2E4"/>
<path d="M201.939 194.89L190.154 206.606L191.342 236.46H187.44C187.392 236.254 187.54 215.688 187.667 191.701L178.633 183.037C179.319 183.037 178.105 181.864 177.968 181.748L187.709 188.496C187.788 173.506 187.862 161.436 187.862 161.436L188.744 160.333L189.235 176.363L197.567 170.365C197.446 170.481 196.215 171.653 196.902 171.653L189.32 179.193L190.027 202.287L202.889 193.032C202.715 193.211 200.951 194.89 201.939 194.89Z" stroke="#263238" stroke-miterlimit="10"/>
<path d="M224.543 224.506C224.543 224.506 233.856 223.835 238.503 215.002C243.519 205.45 231.285 182.794 225.034 181.114C218.17 179.261 207.335 197.366 209.553 211.432C211.073 221.031 220.239 224.263 224.543 224.506Z" fill="#5CB2E4"/>
<path d="M231.533 207.187L225.039 212.346C224.838 200.233 224.669 190.561 224.669 190.561L223.872 189.652L223.576 202.023V202.293L218.064 197.968C218.064 197.968 218.946 198.866 218.492 198.871L223.508 204.325L223.17 218.55L214.843 211.997C214.843 211.997 216.089 213.27 215.45 213.275L223.091 221.586L223.048 223.228L223.001 224.997L222.742 236.217L225.435 236.185C225.372 232.579 225.314 228.793 225.255 225.013C225.203 221.792 225.139 218.566 225.097 215.466C225.097 215.234 225.097 215.017 225.097 214.79L231.063 208.259C230.514 208.264 231.533 207.187 231.533 207.187Z" stroke="#263238" stroke-miterlimit="10"/>
<path d="M212.942 231.449C212.076 230.752 210.519 230.768 209.151 230.826C209.252 229.955 209.616 229.094 209.722 228.217C209.805 227.765 209.76 227.299 209.591 226.871C209.422 226.443 209.136 226.072 208.766 225.799C207.266 224.743 204.626 225.155 202.557 225.757C202.842 223.708 200.661 221.712 197.741 221.396C194.821 221.079 191.574 222.504 190.719 224.506C189.536 223.376 187.176 222.922 185.207 223.45C183.237 223.978 181.838 225.451 181.938 226.871C180.428 226.771 178.744 226.702 177.492 227.352C175.655 228.312 175.782 230.256 174.367 231.512C173.91 231.425 173.437 231.463 173 231.623C172.563 231.783 172.178 232.059 171.885 232.42C171.405 233.049 171.32 233.767 171.03 234.443C170.438 235.794 168.474 235.963 166.6 236.555L213.507 236.945C214.526 236.618 215.398 235.921 215.355 235.166C215.313 234.411 214.051 233.798 213.074 234.173C213.412 234.189 213.951 232.251 212.942 231.449Z" fill="#5CB2E4"/>
<path d="M234.031 233.503C233.503 233.08 232.542 233.086 231.708 233.123C231.766 232.595 231.987 232.067 232.056 231.539C232.108 231.261 232.08 230.975 231.977 230.712C231.873 230.45 231.697 230.222 231.47 230.055C230.551 229.411 228.93 229.659 227.663 230.028C227.837 228.772 226.501 227.547 224.712 227.357C222.922 227.167 220.931 228.033 220.408 229.258C219.685 228.566 218.233 228.291 217.029 228.619C215.825 228.946 214.965 229.844 215.028 230.731C214.099 230.667 213.069 230.62 212.304 231.021C211.174 231.612 211.247 232.8 210.387 233.571C210.106 233.518 209.815 233.542 209.547 233.641C209.278 233.739 209.041 233.909 208.861 234.131C208.634 234.519 208.456 234.934 208.333 235.367C207.974 236.195 206.749 236.296 205.619 236.66L234.369 236.898C234.992 236.697 235.525 236.269 235.504 235.81C235.483 235.351 234.701 234.971 234.105 235.203C234.316 235.187 234.648 233.999 234.031 233.503Z" fill="#5CB2E4"/>
<path d="M117.908 142.291C116.612 141.402 115.097 140.885 113.528 140.794C111.959 140.704 110.396 141.045 109.006 141.78C107.617 142.514 106.455 143.615 105.646 144.962C104.837 146.31 104.412 147.853 104.417 149.424V149.477C104.155 149.141 103.825 148.864 103.448 148.665C103.071 148.466 102.656 148.348 102.231 148.321C101.805 148.293 101.379 148.356 100.979 148.506C100.58 148.655 100.217 148.887 99.9135 149.186C99.7326 147.461 98.8971 145.87 97.5788 144.742C96.2606 143.614 94.56 143.034 92.8272 143.122C91.0944 143.21 89.4613 143.959 88.264 145.215C87.0668 146.471 86.3966 148.138 86.3914 149.873C86.1087 149.673 85.7799 149.549 85.4359 149.511C85.0919 149.473 84.7439 149.524 84.4246 149.657C84.1054 149.791 83.8252 150.003 83.6105 150.274C83.3958 150.546 83.2535 150.867 83.197 151.209H131.176C131.176 150.051 130.844 148.917 130.219 147.943C129.595 146.968 128.703 146.192 127.652 145.708C126.6 145.224 125.431 145.052 124.285 145.212C123.138 145.372 122.061 145.857 121.181 146.61C120.891 145.778 120.476 144.995 119.951 144.287" stroke="#263238" stroke-linecap="round" stroke-linejoin="round"/>
<path d="M200.36 79.142C201.938 78.5908 203.625 78.4253 205.28 78.6593C206.934 78.8934 208.509 79.5201 209.872 80.4872C211.235 81.4543 212.347 82.7336 213.114 84.2182C213.882 85.7028 214.283 87.3496 214.284 89.0209V89.0842C214.602 88.677 215.003 88.3417 215.46 88.1003C215.918 87.8588 216.421 87.7168 216.937 87.6834C217.453 87.65 217.97 87.726 218.454 87.9064C218.939 88.0869 219.38 88.3677 219.748 88.7305C219.984 86.6489 221.005 84.7355 222.602 83.3802C224.199 82.0248 226.253 81.3295 228.346 81.4358C230.438 81.5422 232.411 82.4423 233.862 83.9526C235.314 85.4629 236.135 87.4699 236.159 89.5647C236.574 89.2661 237.073 89.1071 237.584 89.1106C238.172 89.1091 238.742 89.3171 239.191 89.6973C239.64 90.0775 239.939 90.6051 240.034 91.1856H181.812C181.807 89.777 182.208 88.3968 182.967 87.2097C183.725 86.0227 184.809 85.0787 186.089 84.4905C187.369 83.9022 188.791 83.6945 190.186 83.8921C191.581 84.0896 192.889 84.6841 193.956 85.6047C194.483 84.0827 195.354 82.7024 196.501 81.5708" stroke="#263238" stroke-linecap="round" stroke-linejoin="round"/>
<path d="M21.6744 66.9873H79.897C79.9012 65.5787 79.5001 64.1985 78.7417 63.0114C77.9832 61.8243 76.8994 60.8804 75.6195 60.2922C74.3395 59.7039 72.9173 59.4962 71.5226 59.6938C70.1278 59.8913 68.8193 60.4858 67.753 61.4064C66.9441 59.0696 65.3334 57.095 63.2068 55.8331C61.0803 54.5711 58.5754 54.1033 56.1367 54.5129C53.698 54.9224 51.4833 56.1826 49.8856 58.07C48.2879 59.9573 47.4105 62.3497 47.4092 64.8225V64.8859C47.0906 64.4787 46.6895 64.1434 46.2323 63.9019C45.775 63.6605 45.272 63.5185 44.756 63.4851C44.24 63.4517 43.7228 63.5277 43.2383 63.7081C42.7537 63.8886 42.3128 64.1694 41.9444 64.5321C41.7086 62.4506 40.6881 60.5372 39.0907 59.1818C37.4934 57.8265 35.4394 57.1312 33.3472 57.2375C31.255 57.3439 29.2821 58.2439 27.8304 59.7543C26.3788 61.2646 25.5575 63.2716 25.5341 65.3664C25.119 65.0678 24.6198 64.9088 24.1085 64.9123C23.523 64.9145 22.9571 65.1242 22.5115 65.5041C22.0659 65.884 21.7693 66.4095 21.6744 66.9873Z" fill="white" stroke="#263238" stroke-miterlimit="10"/>
<path d="M99.2693 87.5688L101.075 98.8575" stroke="#5CB2E4" stroke-miterlimit="10"/>
<path d="M92.4423 91.5659L99.9557 100.663" stroke="#5CB2E4" stroke-miterlimit="10"/>
<path d="M91.2543 99.2905L98.2872 102.041" stroke="#5CB2E4" stroke-miterlimit="10"/>
<path d="M55.572 118.937V110.241" stroke="#263238" stroke-linecap="round" stroke-linejoin="round"/>
<path d="M35.0962 118.937H55.572V112.522H35.0962V118.937Z" fill="white" stroke="#263238" stroke-linecap="round" stroke-linejoin="round"/>
<path d="M35.0962 118.937V110.241" stroke="#263238" stroke-linecap="round" stroke-linejoin="round"/>
<path d="M107.147 236.586H148.532V164.525H107.147V236.586Z" fill="white" stroke="#263238" stroke-linecap="round" stroke-linejoin="round"/>
<path d="M65.8944 236.586H107.279L107.279 137.808H65.8944L65.8944 236.586Z" fill="white" stroke="#263238" stroke-linecap="round" stroke-linejoin="round"/>
<path d="M24.3197 236.592H65.7043L65.7043 118.763H24.3197L24.3197 236.592Z" fill="white" stroke="#263238" stroke-linecap="round" stroke-linejoin="round"/>
<path d="M58.0009 126.192V232.125" stroke="#5CB2E4" stroke-linecap="round" stroke-linejoin="round"/>
<path d="M48.9509 126.192V232.125" stroke="#5CB2E4" stroke-linecap="round" stroke-linejoin="round"/>
<path d="M39.901 126.192V232.125" stroke="#5CB2E4" stroke-linecap="round" stroke-linejoin="round"/>
<path d="M30.8563 126.192V232.125" stroke="#5CB2E4" stroke-linecap="round" stroke-linejoin="round"/>
<path d="M100.41 142.908V152.766V162.619V172.476V182.329V192.192V202.05V211.902V221.76V231.618V231.808" stroke="#5CB2E4" stroke-linecap="round" stroke-linejoin="round"/>
<path d="M91.3599 142.908V152.766V162.619V172.476V182.329V192.192V202.05V211.902V221.76V231.618V231.808" stroke="#5CB2E4" stroke-linecap="round" stroke-linejoin="round"/>
<path d="M82.3047 142.908V152.766V162.619V172.476V182.329V192.192V202.05V211.902V221.76V231.618V231.808" stroke="#5CB2E4" stroke-linecap="round" stroke-linejoin="round"/>
<path d="M73.26 142.908V152.766V162.619V172.476V182.329V192.192V202.05V211.902V221.76V231.618V231.808" stroke="#5CB2E4" stroke-linecap="round" stroke-linejoin="round"/>
<path d="M100.41 142.908H98.6357H90.1771H81.7133H73.26" stroke="#5CB2E4" stroke-linecap="round" stroke-linejoin="round"/>
<path d="M100.41 152.766H98.6357H90.1771H81.7133H73.26" stroke="#5CB2E4" stroke-linecap="round" stroke-linejoin="round"/>
<path d="M100.41 162.619H98.6357H90.1771H81.7133H73.26" stroke="#5CB2E4" stroke-linecap="round" stroke-linejoin="round"/>
<path d="M100.41 172.477H98.6357H90.1771H81.7133H73.26" stroke="#5CB2E4" stroke-linecap="round" stroke-linejoin="round"/>
<path d="M100.41 182.329H98.6357H90.1771H81.7133H73.26" stroke="#5CB2E4" stroke-linecap="round" stroke-linejoin="round"/>
<path d="M100.41 192.192H98.6357H90.1771H81.7133H73.26" stroke="#5CB2E4" stroke-linecap="round" stroke-linejoin="round"/>
<path d="M100.41 202.05H98.6357H90.1771H81.7133H73.26" stroke="#5CB2E4" stroke-linecap="round" stroke-linejoin="round"/>
<path d="M100.41 211.902H98.6357H90.1771H81.7133H73.26" stroke="#5CB2E4" stroke-linecap="round" stroke-linejoin="round"/>
<path d="M100.41 221.76H98.6357H90.1771H81.7133H73.26" stroke="#5CB2E4" stroke-linecap="round" stroke-linejoin="round"/>
<path d="M100.41 231.618H98.6357H90.1771H81.7133H73.26" stroke="#5CB2E4" stroke-linecap="round" stroke-linejoin="round"/>
<path d="M144.482 170.47H113.198" stroke="#5CB2E4" stroke-linecap="round" stroke-linejoin="round"/>
<path d="M144.482 180.328H113.198" stroke="#5CB2E4" stroke-linecap="round" stroke-linejoin="round"/>
<path d="M144.482 190.18H113.198" stroke="#5CB2E4" stroke-linecap="round" stroke-linejoin="round"/>
<path d="M144.482 200.038H113.198" stroke="#5CB2E4" stroke-linecap="round" stroke-linejoin="round"/>
<path d="M144.482 209.896H113.198" stroke="#5CB2E4" stroke-linecap="round" stroke-linejoin="round"/>
<path d="M144.482 219.754H113.198" stroke="#5CB2E4" stroke-linecap="round" stroke-linejoin="round"/>
<path d="M144.482 229.606H113.198" stroke="#5CB2E4" stroke-linecap="round" stroke-linejoin="round"/>
<path d="M240.034 236.898H221.111H218.909H21.6744" stroke="#263238" stroke-linecap="round" stroke-linejoin="round"/>
<path d="M93.5722 236.285C93.2923 236.417 91.2595 236.491 88.6671 236.533C83.3871 236.623 75.7891 236.581 75.7891 236.581C75.7891 236.581 75.3773 236.581 75.2189 234.522C75.0605 232.462 76.0743 230.826 76.1904 229.965C76.7184 226.015 75.372 224.368 75.3509 224.078C75.3298 223.787 82.7429 223.624 82.7429 223.624L85.1717 223.46L84.6437 226.934C84.6107 227.131 84.593 227.331 84.5909 227.531C84.5407 228.76 84.9257 229.967 85.6782 230.939C86.4306 231.912 87.5021 232.588 88.704 232.848H88.8149C88.9891 232.684 91.9829 231.301 93.2079 233.212C93.8784 234.252 93.5722 236.285 93.5722 236.285Z" fill="#263238"/>
<path opacity="0.2" d="M93.5722 236.285C93.2923 236.417 91.2595 236.491 88.6671 236.533C83.3871 236.623 75.7891 236.581 75.7891 236.581C75.7891 236.581 75.3773 236.581 75.2189 234.522C75.0605 232.462 76.0743 230.826 76.1904 229.965C76.7184 226.015 75.372 224.368 75.3509 224.078C75.3298 223.787 82.7429 223.624 82.7429 223.624L85.1717 223.46L84.6437 226.934C84.6107 227.131 84.593 227.331 84.5909 227.531C84.5407 228.76 84.9257 229.967 85.6782 230.939C86.4306 231.912 87.5021 232.588 88.704 232.848H88.8149C88.9891 232.684 91.9829 231.301 93.2079 233.212C93.8784 234.252 93.5722 236.285 93.5722 236.285Z" fill="white"/>
<path opacity="0.3" d="M88.6671 236.544C83.3871 236.634 75.7891 236.591 75.7891 236.591C75.7891 236.591 75.3773 236.591 75.2189 234.532C75.0605 232.473 76.0743 230.836 76.1904 229.975C76.7184 226.026 75.372 224.379 75.3509 224.088C75.3298 223.798 82.7429 223.634 82.7429 223.634L85.1717 223.47L84.6437 226.945C84.6107 227.142 84.593 227.341 84.5909 227.541C82.9171 228.925 81.5866 230.039 81.5866 230.039C81.5866 230.039 88.3714 232.278 88.6671 236.544Z" fill="black"/>
<path d="M93.5722 236.285C93.2923 236.417 91.2595 236.491 88.6671 236.533C83.3871 236.623 75.7891 236.581 75.7891 236.581C75.7891 236.581 75.3773 236.581 75.2189 234.522C75.0605 232.462 76.0743 230.826 76.1904 229.965C76.7184 226.015 75.372 224.368 75.3509 224.078C75.3298 223.787 82.7429 223.624 82.7429 223.624L85.1717 223.46L84.6437 226.934C84.6107 227.131 84.593 227.331 84.5909 227.531C84.5407 228.76 84.9257 229.967 85.6782 230.939C86.4306 231.912 87.5021 232.588 88.704 232.848H88.8149C88.9891 232.684 91.9829 231.301 93.2079 233.212C93.8784 234.252 93.5722 236.285 93.5722 236.285Z" stroke="#263238" stroke-linecap="round" stroke-linejoin="round"/>
<path d="M86.7768 218.919C87.0249 220.245 87.6427 220.62 87.2414 221.243C87.1833 221.338 87.1252 221.449 87.0672 221.565C86.7556 222.209 86.423 223.117 85.1981 223.46C83.7566 223.867 76.8557 224.242 75.3667 224.057C73.8777 223.872 73.0329 222.473 72.9485 221.29C72.864 220.107 73.5081 219.368 73.4078 218.043C73.3075 216.718 72.2726 216.332 72.204 215.45C72.1353 214.569 72.9907 213.286 72.9801 212.404C72.9801 210.545 73.0118 212.573 73.3814 202.008C73.5873 195.983 75.0446 194.674 73.3814 187.841C72.7795 185.376 66.3168 140.733 66.3168 140.733L86.2488 141.926C86.2488 141.926 86.5656 149.53 86.9246 158.511C87.3787 169.937 87.9014 183.591 87.9172 186.664C87.9489 192.905 87.3892 201.649 86.9193 209.41C86.724 212.721 86.3913 215.002 86.9193 216.274C86.982 216.407 87.0196 216.55 87.0302 216.697C87.12 217.536 86.5233 217.594 86.7768 218.919Z" fill="#5CB2E4"/>
<path opacity="0.3" d="M87.0672 221.565C86.7556 222.209 86.423 223.117 85.1981 223.46C83.7566 223.867 76.8557 224.242 75.3667 224.057C73.8777 223.872 73.0329 222.473 72.9485 221.29C72.864 220.107 73.5081 219.368 73.4078 218.043C73.3075 216.718 72.2726 216.332 72.204 215.45C72.1353 214.569 72.9907 213.286 72.9801 212.404C72.9801 210.545 73.0118 212.573 73.3814 202.008C73.5873 195.983 75.0446 194.674 73.3814 187.841C72.7795 185.376 66.3168 140.733 66.3168 140.733L86.2488 141.926C86.2488 141.926 86.5656 149.53 86.9246 158.511C84.5222 168.501 81.7344 179.494 80.6889 181.342L82.3363 184.219C82.3363 184.219 78.3974 193.359 78.3974 194.462C78.3974 195.566 79.728 205.888 80.1873 208.032C80.6467 210.176 78.3974 208.65 78.3974 210.456C78.3974 212.119 78.2179 220.213 87.0672 221.565Z" fill="black"/>
<path d="M86.7768 218.919C87.0249 220.245 87.6427 220.62 87.2414 221.243C87.1833 221.338 87.1252 221.449 87.0672 221.565C86.7556 222.209 86.423 223.117 85.1981 223.46C83.7566 223.867 76.8557 224.242 75.3667 224.057C73.8777 223.872 73.0329 222.473 72.9485 221.29C72.864 220.107 73.5081 219.368 73.4078 218.043C73.3075 216.718 72.2726 216.332 72.204 215.45C72.1353 214.569 72.9907 213.286 72.9801 212.404C72.9801 210.545 73.0118 212.573 73.3814 202.008C73.5873 195.983 75.0446 194.674 73.3814 187.841C72.7795 185.376 66.3168 140.733 66.3168 140.733L86.2488 141.926C86.2488 141.926 86.5656 149.53 86.9246 158.511C87.3787 169.937 87.9014 183.591 87.9173 186.664C87.9489 192.905 87.3893 201.649 86.9193 209.41C86.724 212.721 86.3913 215.002 86.9193 216.274C86.982 216.407 87.0196 216.55 87.0302 216.697C87.12 217.536 86.5233 217.594 86.7768 218.919Z" stroke="#263238" stroke-linecap="round" stroke-linejoin="round"/>
<path d="M85.2508 156.356C85.2508 156.356 82.8062 158.468 80.7206 158.088" stroke="#263238" stroke-linecap="round" stroke-linejoin="round"/>
<path d="M85.008 160.348C85.008 160.348 80.8896 159.356 80.4197 158.521" stroke="#263238" stroke-linecap="round" stroke-linejoin="round"/>
<path d="M79.7279 179.161C79.7279 179.161 81.9508 184.969 84.4218 186.373" stroke="#263238" stroke-linecap="round" stroke-linejoin="round"/>
<path d="M84.5328 217.71C84.5328 217.71 79.596 219.236 77.1408 218.122C74.6856 217.008 79.0786 220.672 83.6933 220.35" stroke="#263238" stroke-linecap="round" stroke-linejoin="round"/>
<path d="M77.542 191.379C77.542 191.379 77.5842 206.823 81.6129 209.896" stroke="#263238" stroke-linecap="round" stroke-linejoin="round"/>
<path d="M81.6815 226.01C82.6341 225.631 83.6451 225.418 84.67 225.382" stroke="#263238" stroke-linecap="round" stroke-linejoin="round"/>
<path d="M81.7714 228.011C81.7714 228.011 83.2022 227.483 84.2371 227.272" stroke="#263238" stroke-linecap="round" stroke-linejoin="round"/>
<path d="M82.0406 229.928L84.348 229.236" stroke="#263238" stroke-linecap="round" stroke-linejoin="round"/>
<path d="M83.1653 231.496L85.0608 230.752" stroke="#263238" stroke-linecap="round" stroke-linejoin="round"/>
<path d="M85.3142 232.843L86.4177 231.993" stroke="#263238" stroke-linecap="round" stroke-linejoin="round"/>
<path d="M82.1567 224.104C82.1567 224.104 81.9719 229.384 83.6404 231.121C85.3089 232.858 87.0777 232.895 86.9246 233.561" stroke="#263238" stroke-linecap="round" stroke-linejoin="round"/>
<path d="M66.9345 223.487C66.9345 223.487 59.4686 223.64 59.4422 223.935C59.4158 224.231 60.4982 225.873 59.268 229.817C59.004 230.678 57.684 232.309 57.515 234.363C57.346 236.417 57.7315 236.417 57.7315 236.417C57.7315 236.417 74.6275 236.512 75.562 236.127C75.562 236.127 76.2168 234.099 75.7363 233.091C74.7859 231.09 71.2958 232.705 71.4067 232.727H71.2958C68.6928 232.151 67.3833 229.559 68.2704 226.813L69.395 223.344L66.9345 223.487Z" fill="#263238"/>
<path opacity="0.25" d="M66.9345 223.487C66.9345 223.487 59.4686 223.64 59.4422 223.935C59.4158 224.231 60.4982 225.873 59.268 229.817C59.004 230.678 57.684 232.309 57.515 234.363C57.346 236.417 57.7315 236.417 57.7315 236.417C57.7315 236.417 74.6275 236.512 75.562 236.127C75.562 236.127 76.2168 234.099 75.7363 233.091C74.7859 231.09 71.2958 232.705 71.4067 232.727H71.2958C68.6928 232.151 67.3833 229.559 68.2704 226.813L69.395 223.344L66.9345 223.487Z" fill="white"/>
<path d="M66.9345 223.487C66.9345 223.487 59.4686 223.64 59.4422 223.935C59.4158 224.231 60.4982 225.873 59.268 229.817C59.004 230.678 57.684 232.309 57.515 234.363C57.346 236.417 57.7315 236.417 57.7315 236.417C57.7315 236.417 74.6275 236.512 75.562 236.127C75.562 236.127 76.2168 234.099 75.7363 233.091C74.7859 231.09 71.2958 232.705 71.4067 232.727H71.2958C68.6928 232.151 67.3833 229.559 68.2704 226.813L69.395 223.344L66.9345 223.487Z" stroke="#263238" stroke-linecap="round" stroke-linejoin="round"/>
<path d="M84.48 141.926L64.7539 140.733C64.7539 140.733 63.5448 185.302 63.6979 187.762C64.189 194.584 62.5099 195.888 61.2638 201.907C59.0779 212.467 59.3736 210.429 59.0779 212.282C58.9354 213.164 57.8582 214.447 57.7738 215.329C57.6893 216.211 58.6608 216.596 58.5341 217.916C58.4074 219.236 57.6259 219.986 57.515 221.158C57.4042 222.33 58.0008 223.735 59.4581 223.92C60.9154 224.104 67.9061 223.729 69.395 223.323C70.884 222.916 71.3117 221.739 71.8186 221.111C72.3254 220.482 71.7763 220.113 71.7499 218.787C71.7235 217.462 72.3202 217.425 72.3994 216.559C72.4138 216.417 72.4013 216.274 72.3624 216.137C72.0403 214.875 72.769 212.599 73.5293 209.273C75.3245 201.527 77.3995 192.794 78.4344 186.569C78.9624 183.464 80.8157 169.557 82.3363 158.057C82.3363 158.057 83.7936 155.707 84.5328 151.156" fill="#5CB2E4"/>
<path opacity="0.3" d="M64.6905 142.28L64.5162 148.938C67.8547 149.209 71.2097 149.209 74.5482 148.938C81.0638 148.357 85.029 145.469 85.029 145.469L84.501 141.926C84.501 141.926 77.109 143.917 73.4711 143.637C69.8332 143.357 66.3484 142.919 64.6905 142.28Z" fill="black"/>
<path d="M84.48 141.926L64.7539 140.733C64.7539 140.733 63.5448 185.302 63.6979 187.762C64.189 194.584 62.5099 195.888 61.2638 201.907C59.0779 212.467 59.3736 210.429 59.0779 212.282C58.9354 213.164 57.8582 214.447 57.7738 215.329C57.6893 216.211 58.6608 216.596 58.5341 217.916C58.4074 219.236 57.6259 219.986 57.515 221.158C57.4042 222.33 58.0008 223.735 59.4581 223.92C60.9154 224.104 67.9061 223.729 69.395 223.323C70.884 222.916 71.3117 221.739 71.8186 221.111C72.3254 220.482 71.7763 220.113 71.7499 218.787C71.7235 217.462 72.3202 217.425 72.3994 216.559C72.4138 216.417 72.4013 216.274 72.3624 216.137C72.0403 214.875 72.769 212.599 73.5293 209.273C75.3245 201.527 77.3995 192.794 78.4344 186.569C78.9624 183.464 80.8157 169.557 82.3363 158.057C82.3363 158.057 83.7936 155.707 84.5328 151.156" stroke="#263238" stroke-linecap="round" stroke-linejoin="round"/>
<path d="M74.7331 195.83C74.7331 195.83 67.9113 207.446 61.1793 211.242" stroke="#263238" stroke-linecap="round" stroke-linejoin="round"/>
<path d="M61.0631 217.71L68.3865 218.634C68.9145 218.703 69.5956 218.914 69.5428 219.474C69.49 220.033 68.925 220.287 68.4393 220.461C66.8087 221.069 65.0361 221.189 63.3388 220.804" stroke="#263238" stroke-linecap="round" stroke-linejoin="round"/>
<path d="M61.2797 214.188C63.9104 215.697 66.8804 216.514 69.9125 216.564" stroke="#263238" stroke-linecap="round" stroke-linejoin="round"/>
<path d="M65.8733 193.047C65.8733 193.047 69.5693 193.19 71.4701 193.021C70.0603 194.953 67.7741 195.793 65.567 195.904" stroke="#263238" stroke-linecap="round" stroke-linejoin="round"/>
<path d="M68.6399 146.256C68.6399 146.256 68.1119 165.232 67.9218 173.126C67.7318 181.019 67.3938 190.222 67.3938 190.222C67.2146 190.504 67.093 190.819 67.0359 191.147C66.9788 191.476 66.9874 191.813 67.0612 192.139L67.3569 193.111L67.1985 195.851C66.9863 196.1 66.8322 196.393 66.7473 196.709C66.6624 197.025 66.6488 197.356 66.7074 197.678C66.9609 198.676 64.9122 205.629 64.9122 205.629L64.5585 206.089C64.1966 206.522 63.9546 207.042 63.8564 207.598C63.7582 208.154 63.8073 208.726 63.9988 209.257L63.2649 215.213C62.8703 215.536 62.6059 215.99 62.5205 216.493C62.4351 216.996 62.5345 217.513 62.8002 217.948V217.948L62.1138 221.052C61.7656 221.348 61.5328 221.756 61.4565 222.206C61.3802 222.657 61.4652 223.119 61.6967 223.513L61.8129 223.687" stroke="#263238" stroke-linecap="round" stroke-linejoin="round"/>
<path d="M102.807 111.26C102.279 112.416 97.7803 115.484 97.7803 115.484C97.7762 114.977 97.8844 114.476 98.0971 114.016C98.4192 113.52 98.6251 113.045 98.831 112.749C98.8841 111.947 98.6206 111.157 98.0971 110.547C97.4846 109.866 97.0041 111.566 96.7349 112.696C96.4656 113.826 94.7021 115.547 94.7813 116.392C94.9344 117.364 95.1297 118.319 95.3779 119.27C95.3779 119.27 87.8539 121.91 87.0249 120.326C85.2697 116.923 83.3308 113.618 81.2169 110.426C79.4481 112.897 80.8421 116.308 81.84 120.5C82.8379 124.692 85.9109 130.564 85.9109 130.564C91.4126 127.924 97.6641 121.06 97.6641 121.06C97.6641 121.06 99.132 120.405 100.948 119.782C102.765 119.159 102.501 118.626 102.791 116.841C103.081 115.056 104.607 112.617 104.518 111.698C104.428 110.78 103.345 110.109 102.807 111.26Z" fill="white" stroke="#263238" stroke-linecap="round" stroke-linejoin="round"/>
<path d="M85.0079 120.178C84.9393 124.001 85.6943 136.963 86.5127 142.106L64.1202 141.541V141.166C65.7623 135.083 64.6957 128.494 62.1033 122.776C60.7305 119.74 60.118 115.859 59.4105 112.184C57.61 102.828 62.1297 99.9292 65.9049 99.5701C67.3621 99.5015 67.4889 98.5141 68.5449 98.5933C69.2737 98.6818 70.0132 98.5912 70.6991 98.3293C71.169 100.246 73.7721 105.874 74.6644 106.519C75.0978 106.861 75.624 107.065 76.1747 107.104C76.7254 107.144 77.2754 107.017 77.7532 106.74C78.6508 106.112 78.8989 104.914 79.1049 103.836C79.1976 103.253 79.3644 102.683 79.6012 102.142C80.9212 102.802 83.2233 103.583 84.934 106.661C87.046 113.457 85.8844 109.101 87.5106 119.069C87.7905 120.595 85.0079 120.178 85.0079 120.178Z" fill="white" stroke="#263238" stroke-linecap="round" stroke-linejoin="round"/>
<path d="M81.4862 102.49L79.3214 101.735C80.7892 106.777 79.5168 112.506 75.8049 110.241C72.0931 107.976 70.62 101.466 69.5112 98.625C68.9304 98.4454 66.5702 98.361 65.3452 99.3008C66.623 101.64 70.0973 106.286 69.6907 110.061C69.2261 114.285 65.9049 118.034 59.7009 113.789C60.5457 120.188 63.228 124.803 63.7454 126.989C65.6356 134.909 64.3737 135.992 63.492 143.806C72.468 148.384 83.3289 146.108 88.0862 144.714C86.6342 136.752 87.2731 116.688 81.4862 102.49Z" fill="#5CB2E4"/>
<path opacity="0.3" d="M67.8057 136.103C67.8057 136.103 82.4471 142.491 84.5327 136.287C80.6896 137.122 76.7309 137.285 72.8322 136.768L67.8057 136.103Z" fill="black"/>
<path opacity="0.3" d="M62.6155 122.28L73.2547 113.832C73.2547 113.832 75.3667 119.64 69.7065 122.971C65.8785 125.226 62.6155 122.28 62.6155 122.28Z" fill="black"/>
<path d="M81.4862 102.49L79.3214 101.735C80.7892 106.777 79.5168 112.506 75.8049 110.241C72.0931 107.976 70.62 101.466 69.5112 98.625C68.9304 98.4454 66.5702 98.361 65.3452 99.3008C66.623 101.64 70.0973 106.286 69.6907 110.061C69.2261 114.285 65.9049 118.034 59.7009 113.789C60.5457 120.188 63.228 124.803 63.7454 126.989C65.6356 134.909 64.3737 135.992 63.492 143.806C72.468 148.384 83.3289 146.108 88.0862 144.714C86.6342 136.752 87.2731 116.688 81.4862 102.49Z" stroke="#263238" stroke-linecap="round" stroke-linejoin="round"/>
<path d="M84.5328 136.081C84.4413 136.479 84.2601 136.85 84.0029 137.167C83.7457 137.484 83.4194 137.737 83.0491 137.908" stroke="#263238" stroke-linecap="round" stroke-linejoin="round"/>
<path d="M80.6889 138.478C76.2356 138.884 71.7603 137.989 67.8057 135.902" stroke="#263238" stroke-linecap="round" stroke-linejoin="round"/>
<path d="M101.207 102.696L96.624 114.919C96.5427 115.137 96.5124 115.371 96.5352 115.602C96.5581 115.834 96.6336 116.057 96.756 116.255L97.6061 117.617C98.0232 118.288 99.4963 118.488 100.13 118.055C100.362 117.9 100.545 117.682 100.658 117.427L105.178 105.214C105.295 104.935 105.326 104.627 105.268 104.33C105.21 104.033 105.064 103.76 104.85 103.546L103.425 102.168C103.296 102.039 103.141 101.938 102.971 101.871C102.801 101.804 102.619 101.774 102.437 101.78C102.255 101.787 102.076 101.832 101.911 101.911C101.747 101.991 101.6 102.103 101.482 102.242C101.363 102.375 101.27 102.529 101.207 102.696Z" fill="#263238"/>
<path d="M59.6903 105.985C59.7996 107.81 60.2398 109.599 60.9892 111.265C63.1909 116.503 71.5967 129.539 73.4394 130.421C75.2821 131.303 94.1159 121.165 95.4781 119.777C95.8654 119.344 96.1264 118.814 96.2325 118.243C96.3387 117.672 96.2859 117.083 96.0801 116.54C96.0801 116.54 96.0537 117.839 97.1625 117.596C97.8594 117.443 97.2839 115.289 97.2839 115.289C97.2839 115.289 98.5617 114.386 97.342 112.717C97.342 112.717 99.0633 112.717 98.926 111.418C98.8785 110.89 93.8097 110.822 93.0335 112.284C92.0884 114.058 91.1485 118.684 91.1485 118.684C91.1485 118.684 78.8778 121.852 76.3329 122.322L69.6959 107.765" fill="white"/>
<path d="M59.6903 105.985C59.7996 107.81 60.2398 109.599 60.9892 111.265C63.1909 116.503 71.5967 129.539 73.4394 130.421C75.2821 131.303 94.1159 121.165 95.4781 119.777C95.8654 119.344 96.1264 118.814 96.2325 118.243C96.3387 117.672 96.286 117.083 96.0801 116.54C96.0801 116.54 96.0537 117.839 97.1625 117.596C97.8594 117.443 97.2839 115.289 97.2839 115.289C97.2839 115.289 98.5617 114.386 97.342 112.717C97.342 112.717 99.0633 112.717 98.926 111.418C98.8785 110.89 93.8097 110.822 93.0335 112.284C92.0884 114.058 91.1485 118.684 91.1485 118.684C91.1485 118.684 78.8778 121.852 76.3329 122.322L69.6959 107.765" stroke="#263238" stroke-linecap="round" stroke-linejoin="round"/>
<path d="M95.6736 120.564C96.0561 119.6 96.7157 118.771 97.5691 118.182C98.5617 117.712 99.9293 117.564 101.012 117.359C101.012 117.359 101.856 113.779 102.316 113.879C103.715 114.169 102.622 117.459 102.622 117.459" fill="white"/>
<path d="M95.6736 120.564C96.0561 119.6 96.7157 118.771 97.5691 118.182C98.5617 117.712 99.9293 117.564 101.012 117.359C101.012 117.359 101.856 113.779 102.316 113.879C103.715 114.169 102.622 117.459 102.622 117.459" stroke="#263238" stroke-linecap="round" stroke-linejoin="round"/>
<path d="M104.306 112.591C104.126 112.41 103.884 112.304 103.629 112.293C103.373 112.282 103.123 112.368 102.928 112.532C102.247 113.15 101.212 114.898 100.109 115.832" stroke="#263238" stroke-linecap="round" stroke-linejoin="round"/>
<path d="M94.512 116.35C94.8129 115.685 96.9513 114.56 97.3737 116.002" stroke="#263238" stroke-linecap="round" stroke-linejoin="round"/>
<path d="M94.512 114.576C94.512 114.576 96.9883 113.224 97.4846 114.898" stroke="#263238" stroke-linecap="round" stroke-linejoin="round"/>
<path d="M94.8235 112.992C94.8235 112.992 95.8531 112.791 96.0801 112.77C96.8985 112.691 97.7908 112.585 98.2344 112.585" stroke="#263238" stroke-linecap="round" stroke-linejoin="round"/>
<path d="M82.3363 158.088C82.3363 158.088 79.0363 155.179 77.1196 154.625L82.3363 158.088Z" fill="#5CB2E4"/>
<path d="M82.3363 158.088C82.3363 158.088 79.0363 155.179 77.1196 154.625" stroke="#263238" stroke-linecap="round" stroke-linejoin="round"/>
<path d="M65.6726 226.042C66.6454 225.661 67.6751 225.445 68.7192 225.403" stroke="#263238" stroke-linecap="round" stroke-linejoin="round"/>
<path d="M65.5986 228.096C65.5986 228.096 67.0718 227.568 68.1225 227.341" stroke="#263238" stroke-linecap="round" stroke-linejoin="round"/>
<path d="M65.699 230.023L68.0644 229.326" stroke="#263238" stroke-linecap="round" stroke-linejoin="round"/>
<path d="M66.6864 231.618L68.6506 230.863" stroke="#263238" stroke-linecap="round" stroke-linejoin="round"/>
<path d="M68.7191 232.985L69.8966 232.125" stroke="#263238" stroke-linecap="round" stroke-linejoin="round"/>
<path d="M66.3168 224.104C66.3168 224.104 65.6726 229.49 67.1985 231.238C68.7244 232.985 70.4774 233.038 70.2715 233.719" stroke="#263238" stroke-linecap="round" stroke-linejoin="round"/>
<path d="M79.1154 101.519C79.1154 101.519 81.3436 110.204 77.769 110.864C72.8956 111.762 69.5111 98.6092 69.5111 98.6092C70.2556 98.5617 70.3454 98.2502 70.9948 97.8806C70.9948 97.8806 76.4385 108.768 79.1154 101.519Z" fill="#263238"/>
<path d="M64.2946 99.871C64.2946 99.871 59.1994 100.88 59.1835 108.456C59.1677 116.033 62.5258 122.343 62.5258 122.343C62.5258 122.343 66.5016 122.021 69.0149 120.178C74.2949 116.324 73.4395 114.159 73.4395 114.159L70.6728 108.678C70.6728 108.678 69.7647 105.167 65.8152 99.5701L64.2946 99.871Z" fill="#263238"/>
<path d="M81.7977 102.791C84.575 110.674 84.7017 113.626 85.2033 117.263C85.2033 117.263 87.9225 116.735 88.3396 116.134C88.3396 116.134 87.0197 109.681 85.5941 106.344C84.6859 104.227 83.4926 103.488 81.7977 102.791Z" fill="#263238"/>
<path d="M79.1103 93.8412C79.1103 93.8412 78.7143 101.064 78.7407 101.645C78.7882 102.738 79.5802 104.19 78.8515 105.008C78.4497 105.387 77.9435 105.636 77.3984 105.724C76.8534 105.811 76.2946 105.733 75.7944 105.499C74.8039 105.007 73.9471 104.282 73.297 103.387C72.0447 101.854 70.958 100.192 70.0551 98.4296C70.6592 97.8482 71.103 97.1208 71.3434 96.3176C71.3434 96.3176 71.4859 95.7051 71.4912 95.6734C71.6752 94.1852 71.6557 92.6789 71.4331 91.196C71.1805 89.3611 70.7544 87.5543 70.1607 85.7998L79.1103 93.8412Z" fill="white" stroke="#263238" stroke-linecap="round" stroke-linejoin="round"/>
<path d="M71.6021 100.737C72.8518 101.145 74.0637 101.661 75.2241 102.279L71.6021 100.737Z" fill="#263238"/>
<path d="M71.6021 100.737C72.8518 101.145 74.0637 101.661 75.2241 102.279" stroke="#263238" stroke-linecap="round" stroke-linejoin="round"/>
<path d="M70.4985 76.3698C70.4985 76.3698 65.9999 78.9412 68.3284 85.6521C70.6569 92.3629 75.8471 99.8605 80.5516 98.8521C85.2561 97.8436 86.4758 88.498 83.9889 82.2676C81.502 76.0372 75.166 72.5893 70.4985 76.3698Z" fill="white" stroke="#263238" stroke-linecap="round" stroke-linejoin="round"/>
<path d="M83.915 88.7567C83.9467 89.2847 83.7302 89.7705 83.4346 89.8127C83.1389 89.8549 82.8696 89.3903 82.8379 88.8412C82.8062 88.292 83.0122 87.8327 83.3184 87.8116C83.6246 87.7904 83.8834 88.2023 83.915 88.7567Z" fill="#263238"/>
<path d="M79.3267 88.5402C79.3584 89.0682 79.1472 89.5487 78.8568 89.5698C78.5664 89.5909 78.2865 89.1474 78.2549 88.6035C78.2232 88.0597 78.4344 87.5898 78.7353 87.5475C79.0363 87.5053 79.2897 87.9805 79.3267 88.5402Z" fill="#263238"/>
<path d="M81.0532 77.5262C78.0383 74.5905 73.9358 73.6824 70.6516 76.3382C70.6516 76.3382 66.1584 78.9096 68.4868 85.6257C69.0511 87.2267 69.7342 88.7834 70.5302 90.2827L70.6147 90.3566C70.6147 90.3566 69.1363 88.8835 75.0024 85.6416C76.9296 84.5539 79.7755 77.7691 81.0532 77.5262Z" fill="#263238" stroke="#263238" stroke-linecap="round" stroke-linejoin="round"/>
<path d="M76.3435 79.728C76.3435 79.728 76.7553 75.0552 80.0078 74.8968C81.7027 74.8123 83.9414 77.088 84.2318 78.2866C84.414 79.0981 84.8277 79.8394 85.4229 80.4205C86.018 81.0016 86.7689 81.3975 87.5846 81.5602C87.5846 81.5602 86.6448 84.7282 84.8126 84.9605C81.7872 85.3301 80.219 84.6226 78.2654 81.9562C77.7199 81.182 77.1048 80.4591 76.428 79.7967L76.3435 79.728Z" fill="#263238" stroke="#263238" stroke-linecap="round" stroke-linejoin="round"/>
<path d="M71.5017 88.7038C71.5017 88.7038 69.7224 85.0395 68.1384 89.0734C67.151 91.5867 71.1004 93.5984 72.4521 92.9331" fill="white"/>
<path d="M71.5017 88.7038C71.5017 88.7038 69.7224 85.0395 68.1384 89.0734C67.151 91.5867 71.1004 93.5984 72.4521 92.9331" stroke="#263238" stroke-linecap="round" stroke-linejoin="round"/>
<path d="M82.0935 86.481C81.7939 86.8123 81.5774 87.2101 81.4617 87.6416C81.3461 88.073 81.3346 88.5258 81.4282 88.9626C81.5648 89.9213 81.8896 90.8436 82.3839 91.6765L80.124 92.3998" stroke="#263238" stroke-linecap="round" stroke-linejoin="round"/>
<path d="M78.1439 94.0525C78.4992 94.407 78.9481 94.6529 79.4381 94.7614C79.9282 94.8699 80.439 94.8364 80.9106 94.665" stroke="#263238" stroke-linecap="round" stroke-linejoin="round"/>
<path d="M75.6149 86.4176C75.6149 86.4176 77.1989 84.6646 79.1102 85.5094" stroke="#263238" stroke-linecap="round" stroke-linejoin="round"/>
<path d="M82.9646 85.9531C82.9646 85.9531 85.0396 85.3036 84.7756 87.1358" stroke="#263238" stroke-linecap="round" stroke-linejoin="round"/>
<path d="M71.4648 90.7104C71.2811 90.7165 71.1002 90.664 70.9484 90.5606C70.7965 90.4571 70.6815 90.308 70.6199 90.1349C70.4668 89.8022 70.4246 89.4221 70.2715 89.0789C70.2083 88.9057 70.0921 88.7569 69.9395 88.6536C69.7869 88.5503 69.6056 88.4977 69.4214 88.5033" fill="#263238"/>
<path d="M71.4648 90.7104C71.2811 90.7165 71.1002 90.664 70.9484 90.5606C70.7965 90.4571 70.6815 90.308 70.6199 90.1349C70.4668 89.8022 70.4246 89.4221 70.2715 89.0789C70.2083 88.9057 70.0921 88.7569 69.9395 88.6536C69.7869 88.5503 69.6056 88.4977 69.4214 88.5033" stroke="#263238" stroke-linecap="round" stroke-linejoin="round"/>
<path d="M78.0489 76.2273C77.8247 75.283 77.4693 74.3748 76.9929 73.5292C76.9929 73.5292 77.8536 73.3127 78.3288 73.2124C78.2232 74.1364 78.144 75.298 78.0489 76.2273Z" fill="#263238" stroke="#263238" stroke-linecap="round" stroke-linejoin="round"/>
<path d="M78.9518 98.6514L78.9888 100.235C78.6407 100.389 78.2561 100.44 77.88 100.383C75.8525 100.146 73.8091 95.6313 73.6824 95.3726L73.7246 95.4201C76.1217 98.0654 77.9011 98.6356 78.9518 98.6514Z" fill="#263238"/>
<path d="M147.449 113.847H160.792" stroke="#263238" stroke-linecap="round" stroke-linejoin="round"/>
<path d="M132.143 113.847H145.691" stroke="#263238" stroke-linecap="round" stroke-linejoin="round"/>
<path d="M124.925 113.847H129.091" stroke="#263238" stroke-linecap="round" stroke-linejoin="round"/>
<path d="M135.881 121.092H160.739" stroke="#263238" stroke-linecap="round" stroke-linejoin="round"/>
<path d="M129.091 121.092H132.143" stroke="#263238" stroke-linecap="round" stroke-linejoin="round"/>
<path d="M147.006 128.341H160.686" stroke="#263238" stroke-linecap="round" stroke-linejoin="round"/>
<path d="M133.257 128.341H144.984" stroke="#263238" stroke-linecap="round" stroke-linejoin="round"/>
<path d="M145.131 135.585H160.633" stroke="#263238" stroke-linecap="round" stroke-linejoin="round"/>
<path d="M137.423 135.585H142.93" stroke="#263238" stroke-linecap="round" stroke-linejoin="round"/>
<path d="M190.719 135.849H151.869L153.817 113.573H192.667L190.719 135.849Z" fill="white" stroke="#263238" stroke-linecap="round" stroke-linejoin="round"/>
<path d="M192.667 113.578H153.817" stroke="#263238" stroke-linecap="round" stroke-linejoin="round"/>
<path d="M190.719 135.849H151.869L165.148 123.241L171.896 128.99L179.795 123.13L190.719 135.849Z" fill="white" stroke="#263238" stroke-linecap="round" stroke-linejoin="round"/>
<path d="M192.667 113.573L179.795 123.13L171.896 128.99L165.148 123.24L153.817 113.573H192.667Z" fill="white" stroke="#263238" stroke-linecap="round" stroke-linejoin="round"/>
<path d="M121.208 113.847H111.456" stroke="#263238" stroke-linecap="round" stroke-linejoin="round"/>
<path d="M158.574 88.3292C150.792 94.6652 136.425 98.5354 136.425 98.5354L143.664 90.7791C140.132 89.6421 137.085 87.3523 135.011 84.2767C132.936 81.2012 131.955 77.5181 132.224 73.8181C132.492 70.1182 133.996 66.6156 136.493 63.8722C138.99 61.1287 142.336 59.3033 145.995 58.6886C149.653 58.0739 153.412 58.7056 156.669 60.4824C159.925 62.2591 162.491 65.078 163.954 68.487C165.417 71.896 165.693 75.6976 164.738 79.2822C163.782 82.8668 161.651 86.0267 158.685 88.2552" fill="white"/>
<path d="M158.574 88.3292C150.792 94.6652 136.425 98.5354 136.425 98.5354L143.664 90.7791C140.132 89.6421 137.085 87.3523 135.011 84.2767C132.936 81.2012 131.955 77.5181 132.224 73.8181C132.492 70.1182 133.996 66.6156 136.493 63.8722C138.99 61.1287 142.336 59.3033 145.995 58.6886C149.653 58.0739 153.412 58.7056 156.669 60.4824C159.925 62.2591 162.491 65.078 163.954 68.487C165.417 71.896 165.693 75.6976 164.738 79.2822C163.782 82.8668 161.651 86.0267 158.685 88.2552" stroke="#263238" stroke-linecap="round" stroke-linejoin="round"/>
<path d="M158.97 67.8851C161.662 67.8851 163.844 65.7031 163.844 63.0116C163.844 60.3201 161.662 58.1382 158.97 58.1382C156.279 58.1382 154.097 60.3201 154.097 63.0116C154.097 65.7031 156.279 67.8851 158.97 67.8851Z" fill="#5CB2E4" stroke="#263238" stroke-linecap="round" stroke-linejoin="round"/>
<path d="M156.146 61.924L158.97 65.1025L165.396 57.4993L165.169 57.2617L158.97 62.5945L157.328 60.8046L156.146 61.924Z" fill="#263238" stroke="#263238" stroke-linecap="round" stroke-linejoin="round"/>
<path d="M140.173 71.0107H158.374" stroke="#263238" stroke-linecap="round" stroke-linejoin="round"/>
<path d="M139.762 75.71H157.962" stroke="#263238" stroke-linecap="round" stroke-linejoin="round"/>
<path d="M139.355 80.4092H157.55" stroke="#263238" stroke-linecap="round" stroke-linejoin="round"/>
<path d="M196.669 29.5418V37.8736L219.463 20.3018L196.669 29.5418Z" fill="#5CB2E4" stroke="#263238" stroke-linecap="round" stroke-linejoin="round"/>
<path d="M196.669 29.5417L219.986 20.0166L188.147 23.3166L196.669 29.5417Z" fill="#5CB2E4" stroke="#263238" stroke-linecap="round" stroke-linejoin="round"/>
<path d="M199.41 31.2683L210.387 39.3889L219.986 20.0166L199.41 31.2683Z" fill="#5CB2E4" stroke="#263238" stroke-linecap="round" stroke-linejoin="round"/>
<path d="M199.41 31.2683L196.669 37.8736L202.509 33.5598L199.41 31.2683Z" fill="#5CB2E4" stroke="#263238" stroke-linecap="round" stroke-linejoin="round"/>
<path d="M109.322 101.096C109.38 100.927 109.444 100.764 109.502 100.6" stroke="#263238" stroke-linecap="round" stroke-linejoin="round"/>
<path d="M110.194 98.6041C115.104 83.9415 114.222 75.1292 122.195 60.926C123.779 58.0537 131.799 44.4629 143.194 39.6159C149.118 37.0973 152.888 40.8567 151.362 43.5178C147.956 49.442 135.448 42.3404 147.956 35.3285C159.53 28.8447 184.166 41.522 195.714 37.8841" stroke="#263238" stroke-linecap="round" stroke-linejoin="round" stroke-dasharray="2 4"/>
<path d="M196.701 37.5199C196.865 37.4512 197.023 37.3773 197.182 37.2981" stroke="#263238" stroke-linecap="round" stroke-linejoin="round"/>
</svg>
