<svg width="300" height="144" viewBox="0 0 300 144" fill="none" xmlns="http://www.w3.org/2000/svg">
<g clip-path="url(#clip0_46_550)">
<path d="M147.334 77.0414L132.568 84.787C131.547 85.3201 130.284 84.9283 129.744 83.9122L118.995 63.5595C118.46 62.5435 118.849 61.2859 119.869 60.7529L129.236 55.8503L140.42 59.4953L148.199 74.2484C148.73 75.2599 148.341 76.5038 147.334 77.0414Z" fill="#F5E255"/>
<path d="M129.236 55.8367L132.266 61.5639C132.764 62.507 133.936 62.8715 134.888 62.3749L140.42 59.4817L129.236 55.8367Z" fill="#F5E255"/>
<g opacity="0.2">
<path d="M132.604 62.0286C133.085 62.9171 134.119 63.3545 135.094 63.0811L135.3 63.0264C136.091 62.7759 141.29 61.1265 141.248 61.0217C141.207 60.9169 140.438 59.4817 140.438 59.4817L134.906 62.3749C134.906 62.3749 133.483 63.0538 132.604 62.0286Z" fill="black"/>
</g>
<g opacity="0.3">
<path d="M129.236 55.8367L132.266 61.5639C132.764 62.507 133.936 62.8715 134.888 62.3749L140.42 59.4817L129.236 55.8367Z" fill="white"/>
</g>
<path d="M130.902 61.9785C130.939 62.0514 129.442 62.9125 127.557 63.9012C125.672 64.8899 124.107 65.6326 124.07 65.5551C124.033 65.4777 125.53 64.6439 127.415 63.6324C129.3 62.6209 130.861 61.9056 130.902 61.9785Z" fill="#FAFAFA"/>
<path d="M137.025 62.908C137.066 62.9809 134.576 64.3569 131.474 65.9835C128.371 67.6101 125.818 68.8676 125.781 68.7947C125.745 68.7218 128.225 67.3458 131.332 65.7192C134.439 64.0927 136.988 62.8351 137.025 62.908Z" fill="#FAFAFA"/>
<path d="M139.468 65.0814C139.505 65.1543 136.791 66.6533 133.41 68.4257C130.028 70.198 127.246 71.574 127.209 71.5011C127.172 71.4282 129.882 69.9292 133.268 68.1568C136.654 66.3845 139.427 65.0085 139.468 65.0814Z" fill="#FAFAFA"/>
<path d="M140.814 67.6329C140.855 67.7058 138.141 69.2048 134.755 70.9772C131.369 72.7496 128.596 74.1255 128.554 74.0526C128.513 73.9797 131.231 72.4807 134.613 70.7084C137.995 68.936 140.777 67.56 140.814 67.6329Z" fill="#FAFAFA"/>
<path d="M142.164 70.1842C142.2 70.2571 139.487 71.7561 136.105 73.5285C132.723 75.3008 129.941 76.6768 129.904 76.6039C129.868 76.531 132.577 75.0366 135.963 73.2596C139.349 71.4827 142.113 70.1113 142.164 70.1842Z" fill="#FAFAFA"/>
<path d="M143.509 72.7358C143.55 72.8132 140.837 74.3077 137.45 76.0801C134.064 77.8525 131.291 79.2284 131.25 79.1555C131.209 79.0826 133.927 77.5882 137.313 75.8113C140.699 74.0343 143.486 72.672 143.509 72.7358Z" fill="#FAFAFA"/>
<path d="M91.2754 92.9432L90.6045 94.2749L92.6905 95.3168L93.3615 93.9851L91.2754 92.9432Z" fill="#263238"/>
<path d="M92.2573 92.5327L90.8845 95.2664L88.6377 94.1456C88.8436 93.1296 89.3195 92.1864 90.0105 91.4119L92.2573 92.5327Z" fill="#455A64"/>
<path d="M91.1087 94.8152C90.6832 94.7059 90.2759 94.5419 89.8961 94.3186C89.4888 94.15 89.1044 93.9268 88.7567 93.658C89.1822 93.7719 89.5895 93.9404 89.9739 94.1591C90.3811 94.3277 90.761 94.5464 91.1087 94.8152Z" fill="#263238"/>
<path d="M91.3696 94.2959C90.9394 94.1638 90.5322 93.977 90.1478 93.7446C89.7405 93.5533 89.3561 93.3209 88.9946 93.0566C89.4294 93.166 89.8503 93.3482 90.2302 93.5852C90.642 93.7674 91.0264 94.0043 91.3696 94.2959Z" fill="#263238"/>
<path d="M91.7219 93.5989C91.2872 93.4668 90.8708 93.28 90.4864 93.0385C90.0746 92.8471 89.6902 92.6102 89.3287 92.3323C89.768 92.4507 90.1844 92.633 90.5688 92.879C90.9806 93.0704 91.3696 93.3119 91.7219 93.5989Z" fill="#263238"/>
<path d="M92.0377 92.9518C91.6121 92.8379 91.2048 92.6693 90.825 92.4415C90.4178 92.2684 90.038 92.0451 89.6902 91.7717C90.1158 91.8856 90.523 92.0542 90.9028 92.282C91.3101 92.4552 91.6899 92.6784 92.0377 92.9518Z" fill="#263238"/>
<path d="M108.972 85.8714L108.037 88.0002L109.408 88.5974L110.343 86.4686L108.972 85.8714Z" fill="#263238"/>
<path d="M110.79 87.4251L107.971 86.1995L108.978 83.9214C110.012 84.0717 110.987 84.4955 111.797 85.1516L110.79 87.4251Z" fill="#455A64"/>
<path d="M108.443 86.4044C108.53 85.9761 108.676 85.5615 108.877 85.1696C109.024 84.7596 109.225 84.3678 109.477 84.0078C109.39 84.4361 109.244 84.8507 109.042 85.2426C108.896 85.6526 108.694 86.0444 108.443 86.4044Z" fill="#263238"/>
<path d="M108.978 86.637C109.088 86.2041 109.253 85.785 109.468 85.3931C109.637 84.9785 109.848 84.5821 110.095 84.2085C110.012 84.6505 109.857 85.0742 109.637 85.466C109.472 85.8852 109.253 86.277 108.978 86.637Z" fill="#263238"/>
<path d="M109.697 86.9513C109.806 86.5139 109.976 86.0902 110.195 85.6938C110.365 85.2746 110.584 84.8783 110.841 84.5046C110.745 84.9466 110.58 85.3749 110.356 85.7667C110.186 86.1859 109.962 86.5868 109.697 86.9513Z" fill="#263238"/>
<path d="M110.36 87.252C110.603 86.4091 110.96 85.6027 111.422 84.8555C111.326 85.2838 111.175 85.7029 110.964 86.0902C110.818 86.5048 110.612 86.8921 110.36 87.252Z" fill="#263238"/>
<path d="M99.5524 85.379L97.9183 86.0586L98.9836 88.598L100.618 87.9183L99.5524 85.379Z" fill="#263238"/>
<path d="M100.741 85.7804L97.3779 87.1791L96.2293 84.4454C97.2086 83.6891 98.3709 83.2061 99.5973 83.0466L100.741 85.7804Z" fill="#F5E255"/>
<path d="M99.6385 83.042C98.8102 84.0535 97.5335 84.5911 96.2247 84.4772C96.8471 84.3906 97.4648 84.2357 98.0551 84.0216C98.6134 83.7482 99.1442 83.4202 99.6385 83.042Z" fill="#263238"/>
<path d="M98.4853 86.7097C98.2428 86.3589 98.0506 85.9762 97.9133 85.5707C97.7211 85.188 97.5793 84.7825 97.5015 84.3633C97.744 84.7141 97.9362 85.0968 98.078 85.5023C98.2702 85.8851 98.4075 86.2906 98.4853 86.7097Z" fill="#263238"/>
<path d="M99.1351 86.4591C98.888 86.1083 98.6958 85.721 98.5585 85.3155C98.3663 84.9328 98.2245 84.5227 98.1467 84.1035C98.3892 84.4589 98.586 84.8416 98.7233 85.2471C98.9154 85.6299 99.0527 86.0399 99.1351 86.4591Z" fill="#263238"/>
<path d="M99.7712 86.1813C99.5241 85.8304 99.3319 85.4432 99.1946 85.0376C99.0024 84.6549 98.8606 84.2449 98.7828 83.8257C99.0253 84.1811 99.2221 84.5638 99.3594 84.9693C99.5516 85.352 99.6888 85.7621 99.7712 86.1813Z" fill="#263238"/>
<path d="M100.302 85.9625C100.046 85.5752 99.8398 85.1606 99.6842 84.7232C99.4783 84.3085 99.3227 83.8712 99.2266 83.4155C99.4875 83.7983 99.6934 84.2174 99.8398 84.6548C100.05 85.0694 100.206 85.5068 100.302 85.9625Z" fill="#263238"/>
<path d="M97.8767 86.9512C97.6204 86.564 97.4145 86.1493 97.2589 85.7119C97.053 85.2973 96.8974 84.8599 96.8013 84.4043C97.2635 85.2062 97.6204 86.0628 97.8675 86.9512H97.8767Z" fill="#263238"/>
<path d="M104.233 112.211C111.345 112.211 117.11 106.471 117.11 99.3899C117.11 92.3089 111.345 86.5686 104.233 86.5686C97.121 86.5686 91.3558 92.3089 91.3558 99.3899C91.3558 106.471 97.121 112.211 104.233 112.211Z" fill="#F5E255"/>
<path d="M104.187 110.06C110.159 110.06 115 105.24 115 99.294C115 93.3479 110.159 88.5276 104.187 88.5276C98.2151 88.5276 93.3739 93.3479 93.3739 99.294C93.3739 105.24 98.2151 110.06 104.187 110.06Z" fill="#FAFAFA"/>
<path d="M114.172 95.1479C114.14 95.0978 114.112 95.0477 114.09 94.993L113.861 94.5374L113.691 94.2002C113.627 94.0772 113.54 93.9496 113.454 93.8084C113.261 93.4849 113.051 93.1705 112.817 92.8743C112.195 92.0451 111.445 91.3115 110.603 90.701C109.491 89.8854 108.237 89.2931 106.901 88.9514C104.837 88.4047 102.654 88.4958 100.645 89.2202C100.426 89.3022 100.188 89.3706 99.9863 89.4663L99.3456 89.7715C99.2404 89.8262 99.126 89.8718 99.0253 89.931L98.7141 90.1178C98.5082 90.2454 98.2977 90.3684 98.0918 90.5051C97.6891 90.7921 97.3002 91.1065 96.9341 91.4391C96.5588 91.7808 96.2065 92.1499 95.8816 92.5417C95.7168 92.7422 95.575 92.9563 95.424 93.1659C95.2638 93.3755 95.122 93.5942 94.9984 93.822C94.7238 94.2822 94.4813 94.7561 94.2708 95.2436C94.074 95.7493 93.9093 96.2642 93.7812 96.7881C93.5112 97.868 93.4197 98.9842 93.5066 100.091C93.6027 101.23 93.8681 102.351 94.2983 103.413C94.7605 104.465 95.3782 105.44 96.1287 106.311C96.8609 107.154 97.7211 107.869 98.6821 108.438C99.1489 108.716 99.6339 108.962 100.133 109.177C100.627 109.372 101.135 109.537 101.652 109.664C101.904 109.737 102.164 109.787 102.425 109.824C102.682 109.86 102.938 109.91 103.194 109.933C103.702 109.978 104.215 109.988 104.722 109.965C105.221 109.942 105.715 109.887 106.205 109.801C106.448 109.755 106.663 109.687 106.919 109.632L107.267 109.546C107.386 109.514 107.496 109.468 107.61 109.427L108.278 109.19C108.498 109.104 108.704 108.994 108.914 108.899C109.326 108.703 109.724 108.484 110.108 108.233C112.685 106.543 114.41 103.841 114.858 100.802C115.019 99.777 115.019 98.7337 114.858 97.7085C114.813 97.3349 114.739 96.9613 114.639 96.5968C114.598 96.4373 114.566 96.2915 114.529 96.1412L114.405 95.7858L114.236 95.3028C114.199 95.1935 114.186 95.1342 114.186 95.1342C114.186 95.1342 114.213 95.1889 114.254 95.2937L114.437 95.7767C114.479 95.8815 114.52 95.9999 114.57 96.132C114.62 96.2642 114.648 96.41 114.689 96.5877C114.794 96.9522 114.872 97.3258 114.927 97.7039C115.096 98.7337 115.105 99.7861 114.954 100.82C114.524 103.896 112.785 106.643 110.186 108.361C109.797 108.612 109.395 108.839 108.978 109.04C108.763 109.136 108.553 109.249 108.333 109.336L107.656 109.582C107.541 109.619 107.427 109.669 107.308 109.701L106.951 109.787C106.713 109.846 106.493 109.915 106.233 109.96C105.734 110.051 105.23 110.106 104.727 110.133C104.21 110.156 103.688 110.147 103.171 110.106C102.915 110.079 102.654 110.033 102.389 109.997C102.128 109.96 101.867 109.906 101.611 109.833C100.54 109.587 99.5195 109.167 98.586 108.593C97.6113 108.019 96.7327 107.29 95.9914 106.434C94.4356 104.67 93.502 102.452 93.3373 100.11C93.2504 98.9843 93.3465 97.8498 93.621 96.7517C93.8681 95.6855 94.2845 94.6695 94.8611 93.74C94.9893 93.5077 95.1311 93.2844 95.2913 93.0748C95.4514 92.8607 95.5979 92.642 95.7489 92.4415C96.4078 91.6624 97.1674 90.9698 98.0003 90.3775C98.2062 90.2363 98.4259 90.1178 98.6318 89.9857L98.9475 89.7989C99.0528 89.7351 99.1672 89.6895 99.2724 89.6348L99.9268 89.3296C100.146 89.2339 100.384 89.1656 100.59 89.0835C101.025 88.9241 101.473 88.8011 101.927 88.7054C104.979 88.0675 108.159 88.7646 110.662 90.6235C111.509 91.2432 112.255 91.9904 112.872 92.8379C113.106 93.1386 113.316 93.4575 113.499 93.7901C113.582 93.9314 113.669 94.059 113.733 94.182L113.893 94.5237C113.984 94.7242 114.053 94.8791 114.108 94.9793C114.163 95.0796 114.172 95.1479 114.172 95.1479Z" fill="#263238"/>
<path d="M112.653 95.599C112.117 95.8769 111.545 96.0774 110.955 96.1913C111.426 95.8131 111.948 95.5078 112.506 95.28C113.394 94.8472 114.149 94.5829 114.199 94.6877C114.25 94.7925 113.554 95.2071 112.653 95.599Z" fill="#263238"/>
<path d="M112.827 102.588C112.25 102.415 111.705 102.155 111.207 101.823C111.806 101.891 112.392 102.041 112.946 102.278C113.861 102.593 114.607 102.934 114.565 103.044C114.524 103.153 113.742 102.944 112.827 102.588Z" fill="#263238"/>
<path d="M108.003 107.678C107.715 107.154 107.509 106.589 107.39 106.001C107.77 106.461 108.081 106.981 108.305 107.532C108.763 108.407 109.024 109.163 108.919 109.213C108.813 109.263 108.406 108.575 108.003 107.678Z" fill="#263238"/>
<path d="M100.984 107.924C101.153 107.349 101.405 106.803 101.734 106.302C101.675 106.898 101.533 107.482 101.309 108.037C101.002 108.949 100.663 109.696 100.554 109.659C100.444 109.623 100.636 108.844 100.984 107.924Z" fill="#263238"/>
<path d="M95.8221 103.199C96.3483 102.907 96.9112 102.698 97.5015 102.575C97.0393 102.957 96.5222 103.272 95.9685 103.509C95.0945 103.964 94.3394 104.238 94.2891 104.137C94.2388 104.037 94.9252 103.595 95.8221 103.199Z" fill="#263238"/>
<path d="M95.4972 96.1958C96.0737 96.3598 96.6274 96.6059 97.1354 96.9294C96.5359 96.8792 95.9456 96.738 95.3873 96.5193C94.4447 96.2277 93.7125 95.8997 93.7491 95.7903C93.7857 95.681 94.5682 95.8632 95.4972 96.1958Z" fill="#263238"/>
<path d="M100.201 91.0063C100.499 91.5257 100.714 92.0861 100.847 92.6693C100.458 92.2137 100.137 91.7034 99.8947 91.1566C99.4371 90.2909 99.1442 89.5437 99.2449 89.4936C99.3456 89.4435 99.7757 90.1178 100.201 91.0063Z" fill="#263238"/>
<path d="M107.212 90.6054C107.056 91.1841 106.814 91.7354 106.498 92.2457C106.539 91.6488 106.672 91.061 106.887 90.5006C107.171 89.562 107.491 88.8285 107.601 88.8604C107.711 88.8923 107.537 89.6805 107.212 90.6054Z" fill="#263238"/>
<path d="M112.479 95.2299C111.962 95.5352 111.399 95.763 110.813 95.9088C111.266 95.517 111.774 95.1889 112.323 94.9429C113.188 94.4873 113.934 94.1774 113.989 94.2777C114.044 94.3779 113.367 94.8016 112.479 95.2299Z" fill="#263238"/>
<path d="M95.8083 90.1588C95.6802 90.3183 95.5383 90.4732 95.3873 90.6145C95.003 91.0154 94.646 91.4391 94.312 91.8856C92.0743 94.8472 91.2872 98.6517 92.1612 102.251C92.2894 102.789 92.4495 103.322 92.6417 103.841C92.7241 104.028 92.7927 104.219 92.8476 104.415C92.8156 104.374 92.7882 104.329 92.7698 104.279C92.7241 104.183 92.6509 104.051 92.5777 103.864C92.358 103.354 92.175 102.825 92.0377 102.283C91.0813 98.6426 91.8867 94.7697 94.2113 91.8036C94.5545 91.3617 94.9343 90.9471 95.3416 90.5598C95.4789 90.4231 95.6024 90.3274 95.6802 90.2591C95.758 90.1907 95.8038 90.1543 95.8083 90.1588Z" fill="white"/>
<path d="M98.856 88.1631C98.5219 88.4273 98.1558 88.6552 97.7715 88.842C97.4191 89.0834 97.0347 89.2839 96.6366 89.4388C96.9386 89.1336 97.291 88.8784 97.6799 88.6871C98.0369 88.4456 98.435 88.2679 98.856 88.1631Z" fill="white"/>
<g opacity="0.4">
<path d="M98.7233 108.589C98.7233 108.589 107.303 114.562 113.582 107.067C120.13 99.2394 111.33 91.2021 111.33 91.2021C111.33 91.2021 118.597 97.5034 112.602 106.069C111.111 108.206 108.9 109.126 107.139 109.659C102.645 111.026 98.7233 108.589 98.7233 108.589Z" fill="black"/>
</g>
<path d="M104.759 92.8606C105.423 94.2958 105.99 95.7766 106.461 97.2847C106.654 97.8223 106.763 98.3873 106.795 98.9568C106.823 99.5355 106.621 100.1 106.233 100.533C105.834 100.966 105.198 101.098 104.658 100.857L104.759 92.8606Z" fill="#E0E0E0"/>
<path d="M103.647 98.6061L104.722 91.0154L105.413 98.7929L104.434 99.5902L103.647 98.6061Z" fill="#F5E255"/>
<g opacity="0.4">
<path d="M104.722 91.0154L104.64 98.3464L105.413 98.7929L104.722 91.0154Z" fill="black"/>
</g>
<path d="M105.601 99.0982C105.871 99.7406 105.569 100.474 104.924 100.743C104.279 101.012 103.542 100.711 103.272 100.069C103.002 99.4262 103.304 98.6926 103.949 98.4238C104.594 98.155 105.331 98.4557 105.601 99.0982Z" fill="#FAFAFA"/>
<path d="M105.601 99.0982C105.601 99.0982 105.546 99.0025 105.418 98.8522C105.244 98.638 105.006 98.4922 104.741 98.4284C104.105 98.269 103.455 98.6562 103.295 99.2896C103.135 99.9229 103.523 100.57 104.16 100.729C104.269 100.757 104.379 100.77 104.494 100.766C104.896 100.748 105.262 100.529 105.473 100.187C105.619 99.9548 105.679 99.6814 105.651 99.408C105.628 99.2121 105.587 99.1073 105.601 99.1027C105.665 99.1893 105.706 99.2896 105.72 99.3989C105.775 99.6905 105.729 99.9912 105.583 100.251C105.363 100.647 104.951 100.902 104.498 100.925C103.757 100.962 103.125 100.397 103.084 99.6541C103.061 99.2531 103.226 98.8658 103.523 98.597C103.862 98.2917 104.333 98.1824 104.773 98.3054C105.061 98.3874 105.308 98.5651 105.477 98.8111C105.542 98.8977 105.587 98.998 105.601 99.1027V99.0982Z" fill="#263238"/>
<path d="M105.304 99.2257C105.505 99.7041 105.281 100.255 104.8 100.456C104.32 100.656 103.766 100.433 103.565 99.9547C103.363 99.4763 103.588 98.925 104.068 98.7245C104.549 98.524 105.098 98.7519 105.299 99.2257H105.304Z" fill="#455A64"/>
<path d="M21.9009 120.968C20.8072 117.405 17.0182 115.396 13.4398 116.485C9.86133 117.574 7.8433 121.346 8.93697 124.909C9.71032 127.424 11.8794 129.265 14.4968 129.62L15.0048 131.247L20.6745 129.488C20.6745 129.488 20.4274 128.577 20.1849 127.748C21.9787 125.98 22.6422 123.365 21.9009 120.964V120.968Z" fill="#F5E255"/>
<path d="M18.6198 130.108V130.03C18.6198 129.971 18.6198 129.889 18.5741 129.789C18.5375 129.575 18.478 129.265 18.4139 128.878C18.3498 128.49 18.2812 127.966 18.2354 127.397C18.176 126.741 18.1851 126.08 18.2629 125.424C18.3041 125.041 18.3819 124.663 18.4917 124.294C18.5512 124.094 18.661 123.907 18.812 123.761C18.9768 123.611 19.2101 123.547 19.4298 123.593C19.5442 123.615 19.6494 123.684 19.7135 123.784C19.7821 123.88 19.8096 124.003 19.7913 124.121C19.7455 124.353 19.6174 124.563 19.4252 124.704C18.5924 125.301 17.4301 125.114 16.8306 124.29C16.8214 124.276 16.8123 124.262 16.8031 124.249C16.643 124.034 16.5515 123.784 16.5332 123.52C16.5103 123.228 16.7025 122.959 16.9908 122.891C17.1372 122.864 17.2882 122.909 17.3935 123.014C17.4941 123.119 17.5582 123.251 17.5673 123.397C17.5673 123.675 17.4804 123.948 17.3157 124.176C17.0091 124.663 16.5103 124.991 15.9428 125.087C15.3708 125.169 14.7943 124.968 14.4007 124.549C14.204 124.344 14.0987 124.066 14.1124 123.784C14.1216 123.638 14.1948 123.501 14.3092 123.41C14.4236 123.324 14.5746 123.292 14.7165 123.324C14.8538 123.346 14.9819 123.415 15.078 123.52C15.1695 123.62 15.2427 123.734 15.2931 123.861C15.3891 124.103 15.4349 124.367 15.4258 124.627C15.4166 125.137 15.2107 125.629 14.8538 125.994C14.5106 126.34 14.0575 126.549 13.5725 126.591C13.3391 126.627 13.0966 126.581 12.8906 126.467C12.6847 126.34 12.5886 126.089 12.6618 125.857C12.7122 125.752 12.7991 125.666 12.9089 125.625C13.0142 125.584 13.1286 125.574 13.2384 125.588C13.4443 125.634 13.632 125.748 13.7692 125.907C14.0438 126.208 14.2772 126.504 14.5106 126.791C15.4258 127.925 16.1396 128.882 16.6155 129.547C16.8535 129.88 17.0365 130.14 17.1555 130.318L17.2974 130.523L17.3385 130.591C17.3385 130.591 17.3019 130.55 17.2882 130.527L17.1418 130.327C17.0136 130.153 16.8306 129.894 16.5881 129.566C16.103 128.91 15.3937 127.957 14.4648 126.832C14.2314 126.549 14.0072 126.249 13.7235 125.957C13.5953 125.807 13.4215 125.702 13.2247 125.661C13.0279 125.62 12.822 125.711 12.7259 125.889C12.6664 126.089 12.7488 126.308 12.9318 126.413C13.124 126.518 13.3482 126.559 13.5633 126.527C14.0301 126.481 14.4694 126.276 14.7988 125.944C15.3251 125.401 15.4898 124.604 15.2198 123.898C15.142 123.656 14.9453 123.474 14.7027 123.41C14.5838 123.383 14.4556 123.41 14.3595 123.483C14.2634 123.561 14.204 123.675 14.1948 123.798C14.1811 124.062 14.2818 124.317 14.4648 124.504C14.84 124.905 15.3846 125.096 15.9291 125.014C16.4737 124.923 16.9496 124.609 17.247 124.148C17.4026 123.934 17.485 123.679 17.485 123.419C17.4758 123.296 17.4209 123.178 17.334 123.091C17.2516 123 17.128 122.964 17.0091 122.987C16.8901 123.014 16.7848 123.087 16.7208 123.192C16.6567 123.296 16.6201 123.415 16.6247 123.538C16.6476 123.784 16.7345 124.025 16.8809 124.226C17.1601 124.627 17.5902 124.905 18.0753 124.987C18.5375 125.06 19.0134 124.95 19.3932 124.681C19.5716 124.549 19.6952 124.358 19.7364 124.144C19.773 123.934 19.6403 123.734 19.4298 123.688C19.2284 123.643 19.0179 123.697 18.8669 123.839C18.7251 123.98 18.6244 124.153 18.5649 124.344C18.4551 124.709 18.3727 125.082 18.3315 125.461C18.2583 126.112 18.2446 126.768 18.2949 127.424C18.3361 127.998 18.4048 128.495 18.4597 128.901C18.5146 129.306 18.5741 129.616 18.6061 129.812L18.6427 130.053L18.6198 130.108Z" fill="#263238"/>
<path d="M20.5646 130.682L15.7003 132.19C15.5036 132.24 15.3068 132.131 15.2427 131.94C15.1878 131.744 15.3022 131.543 15.4944 131.484L20.3633 129.971C20.5601 129.917 20.7614 130.03 20.8209 130.222C20.8758 130.418 20.7614 130.623 20.5646 130.682Z" fill="#263238"/>
<path d="M20.6653 130.992L15.8147 132.509C15.6088 132.559 15.4807 132.764 15.531 132.969C15.5814 133.174 15.7873 133.302 15.9932 133.252C16.0115 133.252 16.0252 133.243 16.0435 133.238L16.5789 133.069L17.6909 134.181C17.819 134.309 18.0112 134.354 18.1851 134.3L19.924 133.762C20.0979 133.707 20.2306 133.561 20.2626 133.379L20.5326 131.826L20.8941 131.712C21.0955 131.648 21.2053 131.434 21.1412 131.233C21.0772 131.033 20.8621 130.923 20.6653 130.987V130.992Z" fill="#263238"/>
<g opacity="0.2">
<path d="M9.99405 120.139C10.264 119.665 10.6118 119.237 11.0191 118.877C11.2936 118.631 11.6002 118.43 11.9343 118.28C12.1722 118.18 12.3187 118.161 12.3461 118.207C12.3736 118.253 11.9755 118.64 11.4309 119.287C10.0124 120.941 9.69661 123.269 10.6301 125.237C10.9687 125.998 11.3028 126.426 11.2113 126.513C11.1198 126.6 11.0328 126.513 10.8315 126.335C10.5615 126.103 10.3235 125.83 10.1313 125.524C9.82932 125.069 9.60509 124.572 9.46781 124.044C9.2985 123.387 9.25274 122.709 9.33968 122.039" fill="white"/>
</g>
<g opacity="0.2">
<path d="M13.9843 118.002C13.5725 118.125 13.1744 118.125 13.0691 117.925C13.0142 117.82 13.0691 117.683 13.1744 117.546C13.33 117.387 13.5267 117.273 13.7418 117.209C13.9569 117.141 14.1811 117.132 14.4007 117.177C14.5746 117.223 14.6845 117.314 14.7028 117.423" fill="white"/>
</g>
<path d="M20.2078 133.534H19.8371C19.5442 133.543 19.2559 133.593 18.9814 133.689C18.7022 133.785 18.4414 133.922 18.208 134.095C18.0296 134.227 17.9289 134.327 17.9197 134.318C17.9838 134.213 18.0707 134.122 18.1714 134.049C18.4002 133.849 18.6656 133.698 18.9539 133.593C19.2376 133.493 19.5397 133.448 19.8417 133.461C19.9652 133.461 20.0888 133.489 20.2078 133.534Z" fill="#455A64"/>
<path d="M20.5464 131.853C20.5464 131.853 19.6769 132.163 18.5924 132.5C17.5079 132.837 16.6201 133.092 16.6156 133.069C16.611 133.047 17.4804 132.76 18.5695 132.423C19.6586 132.085 20.5372 131.83 20.5464 131.853Z" fill="#455A64"/>
<path d="M20.4228 132.523C20.2764 132.6 20.1208 132.669 19.9652 132.719C19.6769 132.828 19.2696 132.974 18.8166 133.12C18.3636 133.265 17.9563 133.388 17.6543 133.47C17.4941 133.525 17.3294 133.562 17.1601 133.584C17.3111 133.521 17.4621 133.461 17.6177 133.416L18.7754 133.042L19.9286 132.664C20.0888 132.6 20.2535 132.555 20.4228 132.523Z" fill="#455A64"/>
<path d="M166.316 90.7468C161.282 86.104 152.359 86.6461 147.929 91.8722C146.186 93.9316 145.001 96.6289 142.603 97.8773C138.942 99.7955 134.476 97.3761 130.339 97.7269C125.488 98.137 121.507 103.04 122.102 107.846C122.372 110.015 123.406 112.325 122.381 114.257C121.077 116.722 117.302 116.822 115.714 119.114C114.282 121.187 115.398 124.244 117.48 125.675C119.563 127.106 122.244 127.283 124.77 127.169C127.296 127.055 129.859 126.714 132.32 127.26C135.034 127.871 137.354 129.539 139.958 130.559C146.168 133.038 153.439 131.657 159.177 128.254C164.916 124.85 169.382 119.647 173.262 114.221" fill="#F5E255"/>
<g opacity="0.8">
<path d="M166.316 90.7468C161.282 86.104 152.359 86.6461 147.929 91.8722C146.186 93.9316 145.001 96.6289 142.603 97.8773C138.942 99.7955 134.476 97.3761 130.339 97.7269C125.488 98.137 121.507 103.04 122.102 107.846C122.372 110.015 123.406 112.325 122.381 114.257C121.077 116.722 117.302 116.822 115.714 119.114C114.282 121.187 115.398 124.244 117.48 125.675C119.563 127.106 122.244 127.283 124.77 127.169C127.296 127.055 129.859 126.714 132.32 127.26C135.034 127.871 137.354 129.539 139.958 130.559C146.168 133.038 153.439 131.657 159.177 128.254C164.916 124.85 169.382 119.647 173.262 114.221" fill="white"/>
</g>
<path d="M165.094 97.0708C160.976 93.0704 153.384 93.6308 149.924 98.1916C147.815 100.976 146.602 105.231 143.129 105.696C140.777 106.015 138.553 104.251 136.178 104.434C133.021 104.671 131.112 108.502 131.922 111.546C132.732 114.59 135.423 116.781 138.246 118.212C148.025 123.155 161.058 120.54 168.155 112.211" fill="#F5E255"/>
<path d="M258.317 107.254L253.022 99.7817L259.909 94.9202L264.733 104.675L258.633 107.19" fill="#FFBE9D"/>
<path d="M264.444 103.34L268.192 110.07C268.192 110.07 276.319 108.539 277.134 109.714L264.293 117.414L258.024 107.167L264.444 103.34Z" fill="#F5E255"/>
<g opacity="0.6">
<path d="M263.881 111.897C263.671 112.129 263.671 112.48 263.881 112.712C264.11 112.922 264.463 112.922 264.691 112.712C264.916 112.466 264.916 112.093 264.691 111.847C264.431 111.646 264.06 111.687 263.849 111.933" fill="white"/>
</g>
<g opacity="0.6">
<path d="M264.293 117.414L263.703 116.357L276.237 109.373C276.237 109.373 276.96 109.277 277.152 109.714L264.293 117.414Z" fill="white"/>
</g>
<path d="M268.361 109.878C268.393 109.942 268.1 110.161 267.904 110.544C267.707 110.926 267.707 111.291 267.638 111.305C267.57 111.318 267.437 110.894 267.675 110.434C267.913 109.974 268.338 109.815 268.361 109.878Z" fill="#263238"/>
<path d="M270.041 109.628C270.091 109.678 269.885 109.947 269.83 110.338C269.775 110.73 269.885 111.049 269.83 111.081C269.775 111.113 269.514 110.79 269.588 110.302C269.661 109.814 270.004 109.578 270.041 109.628Z" fill="#263238"/>
<path d="M271.78 110.776C271.729 110.822 271.455 110.562 271.409 110.124C271.363 109.687 271.574 109.373 271.629 109.409C271.684 109.446 271.629 109.737 271.661 110.097C271.693 110.457 271.834 110.73 271.78 110.776Z" fill="#263238"/>
<path d="M267.336 108.439C267.336 108.511 267.002 108.598 266.664 108.835C266.325 109.072 266.114 109.35 266.05 109.313C265.986 109.277 266.114 108.899 266.508 108.625C266.902 108.352 267.336 108.375 267.336 108.439Z" fill="#263238"/>
<path d="M266.554 107.094C266.554 107.122 266.343 107.309 265.909 107.477C265.501 107.637 265.062 107.714 264.623 107.7C264.527 107.705 264.43 107.696 264.339 107.668C264.197 107.632 264.101 107.5 264.11 107.354C264.119 107.227 264.188 107.113 264.298 107.044C264.38 106.994 264.467 106.958 264.559 106.935C264.71 106.885 264.861 106.853 265.016 106.83C265.291 106.798 265.57 106.807 265.844 106.862C266.302 106.958 266.554 107.131 266.54 107.158C266.526 107.186 266.261 107.085 265.817 107.04C265.561 107.012 265.304 107.021 265.048 107.062C264.893 107.085 264.742 107.122 264.591 107.172C264.43 107.217 264.316 107.286 264.316 107.368C264.316 107.45 264.316 107.409 264.376 107.432C264.444 107.441 264.517 107.441 264.586 107.432H265.044C265.304 107.409 265.561 107.363 265.812 107.295C266.055 107.213 266.302 107.144 266.554 107.094Z" fill="#263238"/>
<path d="M266.526 107.236C266.526 107.236 266.252 107.108 265.982 106.716C265.826 106.488 265.712 106.233 265.648 105.965C265.606 105.805 265.584 105.641 265.574 105.477C265.542 105.263 265.625 105.049 265.79 104.907C265.904 104.835 266.05 104.835 266.165 104.907C266.247 104.962 266.316 105.026 266.375 105.103C266.485 105.231 266.572 105.377 266.636 105.532C266.746 105.796 266.787 106.078 266.76 106.361C266.709 106.817 266.494 107.072 266.476 107.053C266.522 106.835 266.558 106.611 266.581 106.388C266.581 106.138 266.526 105.892 266.421 105.664C266.362 105.532 266.279 105.409 266.183 105.299C266.082 105.176 265.963 105.099 265.922 105.144C265.84 105.24 265.803 105.363 265.826 105.486C265.826 105.641 265.84 105.791 265.876 105.942C265.927 106.192 266.014 106.434 266.137 106.657C266.348 107.012 266.554 107.204 266.526 107.236Z" fill="#263238"/>
<path d="M238.709 80.6956L255.155 106.429L264.147 100.342L249 69.3369" fill="#263238"/>
<path d="M240.04 75.0505C240.109 75.0778 239.615 76.1257 239.381 77.5063C239.148 78.8868 239.244 80.035 239.171 80.0441C238.837 78.3218 239.143 76.5403 240.04 75.0322V75.0505Z" fill="#455A64"/>
<path d="M238.352 75.1233C238.42 75.1233 238.352 76.2532 238.539 77.6201C238.727 78.987 239.07 80.0531 238.997 80.0759C238.283 78.5268 238.059 76.8 238.347 75.1233H238.352Z" fill="#455A64"/>
<path d="M174.576 80.6182L163.296 77.1509C149.687 94.4054 150.597 113.364 172.503 124.586L184.67 111.017L174.576 80.6182Z" fill="#263238"/>
<path d="M175.678 77.8663C168.457 82.0626 164.865 90.8971 165.744 99.554C166.709 109.04 173.006 118.289 184.547 120.845L262.124 105.404C274.891 102.862 283.169 90.4962 280.616 77.7843C280.483 77.1282 280.323 76.4812 280.14 75.8387C276.626 63.7966 264.225 56.6296 251.979 59.5684L175.678 77.8663Z" fill="#E0E0E0"/>
<path d="M175.678 77.8661L176.397 77.6839L178.515 77.1645L186.675 75.1825L216.702 67.9381L237.441 62.9262L249 60.1469L251.997 59.4316L253.539 59.14C253.796 59.0899 254.052 59.0352 254.313 58.9942L255.1 58.9258C255.626 58.8848 256.152 58.821 256.679 58.7937H258.28C258.816 58.7937 259.351 58.8347 259.882 58.9031L260.687 58.9851L261.09 59.0306L261.488 59.1081L263.085 59.4316C263.616 59.5546 264.133 59.7323 264.659 59.8872C264.92 59.9692 265.186 60.0421 265.446 60.1332L266.211 60.4385L266.975 60.7529C267.236 60.8486 267.492 60.9579 267.734 61.0901L269.212 61.8555C269.702 62.1243 270.16 62.4478 270.636 62.7667C270.869 62.9217 271.093 63.0629 271.336 63.2224L271.999 63.7418L272.667 64.2658L273.001 64.5255L273.308 64.8171C276.772 67.9153 279.252 71.9567 280.433 76.4446C281.655 81.1011 281.412 86.0172 279.737 90.5279C278.008 95.1662 274.859 99.1483 270.741 101.919C269.002 103.089 267.117 104.019 265.126 104.684C263.149 105.372 261.095 105.673 259.095 106.092L247.197 108.457L224.482 113.004L184.588 120.927H184.547C182.515 120.449 180.538 119.752 178.657 118.845C175.184 117.109 172.205 114.521 170.004 111.332C169.011 109.874 168.169 108.32 167.487 106.693C167.323 106.302 167.194 105.896 167.03 105.504C166.879 105.117 166.746 104.725 166.641 104.324C166.526 103.928 166.416 103.536 166.307 103.144L166.06 101.973C165.968 101.59 165.899 101.203 165.854 100.811C165.803 100.429 165.748 100.046 165.698 99.6677C165.648 99.2896 165.643 98.9114 165.616 98.5378C165.588 98.1642 165.565 97.7951 165.57 97.4306C165.51 94.7516 165.89 92.0862 166.696 89.5301C167.332 87.4844 168.256 85.5343 169.441 83.7482C170.311 82.4315 171.345 81.2332 172.516 80.1761C172.754 79.9666 172.974 79.7524 173.189 79.5793L173.82 79.1009L174.351 78.6954L174.809 78.3992L175.655 77.8707L174.823 78.422L174.365 78.7227L173.834 79.1328L173.23 79.6112C173.015 79.7889 172.8 79.9985 172.562 80.2126C171.4 81.2742 170.379 82.4725 169.519 83.7892C168.338 85.5753 167.423 87.5162 166.796 89.5574C166.005 92.1044 165.634 94.7607 165.693 97.4261C165.693 97.7906 165.693 98.1596 165.739 98.5287C165.785 98.8977 165.785 99.2759 165.831 99.6541C165.876 100.032 165.931 100.41 165.986 100.793C166.032 101.18 166.101 101.568 166.192 101.946C166.275 102.329 166.357 102.72 166.439 103.112C166.522 103.504 166.664 103.887 166.773 104.283C166.883 104.68 167.011 105.076 167.162 105.459C167.309 105.846 167.437 106.247 167.62 106.634C168.302 108.247 169.139 109.792 170.128 111.241C171.208 112.758 172.452 114.152 173.834 115.4C175.331 116.681 176.969 117.783 178.721 118.69C180.588 119.588 182.552 120.28 184.57 120.749H184.533L224.413 112.767L247.147 108.238L259.044 105.869C261.049 105.445 263.099 105.149 265.044 104.465C267.011 103.809 268.878 102.889 270.599 101.732C274.681 98.9889 277.797 95.0386 279.508 90.4414C281.17 85.9762 281.408 81.1056 280.199 76.4993C279.033 72.0569 276.58 68.052 273.152 64.9811L272.846 64.694L272.53 64.4708L271.871 63.9559L271.212 63.4411C270.992 63.2725 270.755 63.1358 270.517 62.9854C270.059 62.6938 269.601 62.3704 269.112 62.1061L267.647 61.3452C267.405 61.2176 267.153 61.1083 266.897 61.008L266.137 60.7028L265.378 60.3929C265.121 60.3064 264.861 60.2335 264.6 60.156C264.078 60.0057 263.566 59.8234 263.039 59.7004L261.461 59.3815L261.067 59.2994L260.664 59.2584L259.868 59.1764C259.342 59.1035 258.811 59.0671 258.28 59.0625H256.697C256.171 59.0899 255.649 59.1536 255.132 59.1947L254.349 59.263C254.093 59.2995 253.837 59.3541 253.581 59.4042L252.057 59.6913L249.046 60.3702L237.491 63.1358L216.748 68.1158L186.707 75.2691L178.534 77.2283L176.406 77.7294L175.678 77.8661Z" fill="#263238"/>
<path d="M184.547 120.836L174.315 144C174.315 144 222.592 139.366 220.533 113.674L184.547 120.836Z" fill="#F5E255"/>
<path d="M212.213 69.0999C212.213 69.0999 188.999 46.6741 159.502 56.1192L175.687 77.8661L212.213 69.0999Z" fill="#F5E255"/>
<path d="M254.592 59.2403C264.554 66.5303 270.645 95.0341 265.845 104.087C294.079 95.8633 300 71.738 300 71.738C279.591 52.8114 254.592 59.2403 254.592 59.2403Z" fill="#F5E255"/>
<path d="M170.027 110.243C170.073 110.284 168.521 112.134 166.558 114.371C164.595 116.608 162.962 118.385 162.898 118.339C162.833 118.294 164.398 116.448 166.366 114.211C168.334 111.974 169.981 110.197 170.027 110.243Z" fill="#455A64"/>
<path d="M299.986 71.729C299.986 71.729 299.931 71.8338 299.812 72.0343L299.277 72.9182L298.403 74.358C298.229 74.6404 298.041 74.9457 297.845 75.2692L297.14 76.2716C296.641 76.9778 296.097 77.7706 295.479 78.618L293.324 81.2789C292.916 81.7345 292.477 82.1901 292.033 82.6868C291.589 83.1834 291.15 83.6846 290.66 84.1584C289.644 85.1152 288.601 86.1586 287.384 87.12C284.794 89.2888 281.957 91.1568 278.936 92.6786C277.257 93.5306 275.518 94.2733 273.738 94.8929C272.823 95.2255 271.88 95.5126 270.951 95.8497C269.981 96.155 268.997 96.4102 268 96.6061C260.001 98.3693 251.183 100.174 241.916 102.074C223.397 105.883 206.626 109.282 194.481 111.724L180.094 114.617L176.182 115.387L175.161 115.578C174.932 115.624 174.813 115.638 174.813 115.638L175.157 115.555L176.173 115.337L180.076 114.526L194.445 111.573L241.871 101.855C251.123 99.9413 259.946 98.1415 267.954 96.3874C268.938 96.1915 269.913 95.9454 270.874 95.6493C271.821 95.303 272.759 95.0251 273.669 94.6925C275.445 94.0774 277.175 93.3438 278.85 92.5009C281.861 90.9882 284.693 89.143 287.283 86.9924C288.496 86.0356 289.544 85.0013 290.555 84.0491C291.068 83.5935 291.502 83.0604 291.955 82.5911C292.408 82.1218 292.843 81.6525 293.25 81.1923L295.415 78.5497C296.037 77.7068 296.586 76.9186 297.094 76.2215L297.803 75.2236L298.371 74.3124L299.263 72.8863C299.506 72.5081 299.689 72.2165 299.817 72.0115C299.945 71.8065 299.986 71.729 299.986 71.729Z" fill="#263238"/>
<path d="M226.523 112.512C226.523 112.512 226.491 112.484 226.44 112.421L226.216 112.138L225.379 111.045L224.775 110.247C224.564 109.951 224.354 109.614 224.116 109.259C223.658 108.548 223.081 107.755 222.564 106.817L221.718 105.359C221.425 104.853 221.169 104.297 220.88 103.736C220.281 102.625 219.764 101.381 219.192 100.091C216.835 94.3871 215.481 88.3227 215.183 82.1627C215.147 80.7457 215.083 79.4016 215.151 78.1395C215.179 77.5108 215.151 76.9002 215.22 76.317C215.289 75.7338 215.321 75.1734 215.366 74.6403C215.435 73.5696 215.613 72.6128 215.728 71.7699C215.796 71.3507 215.842 70.9589 215.911 70.5989C215.979 70.239 216.053 69.9201 216.117 69.6239C216.24 69.0498 216.336 68.6033 216.41 68.257C216.442 68.1158 216.469 68.0019 216.492 67.9062C216.515 67.8105 216.524 67.7877 216.529 67.7923C216.529 67.8333 216.529 67.8743 216.529 67.9153C216.529 68.0064 216.492 68.1249 216.469 68.2661L216.222 69.633C216.167 69.9292 216.103 70.2527 216.034 70.6081C215.966 70.9634 215.934 71.3598 215.874 71.7836C215.774 72.6265 215.609 73.5787 215.549 74.6449C215.508 75.178 215.462 75.7384 215.421 76.317C215.38 76.8957 215.385 77.5062 215.366 78.1395C215.307 79.397 215.366 80.7366 215.417 82.149C215.728 88.2817 217.069 94.3187 219.393 100.009C219.956 101.303 220.464 102.547 221.054 103.654C221.343 104.215 221.594 104.766 221.878 105.276L222.711 106.734C223.214 107.678 223.772 108.475 224.225 109.19C224.459 109.55 224.683 109.887 224.871 110.188C225.058 110.489 225.278 110.749 225.452 110.995C225.795 111.45 226.06 111.847 226.257 112.115L226.459 112.412C226.486 112.443 226.504 112.475 226.523 112.512Z" fill="#263238"/>
<path d="M204.732 88.6189L156.075 98.6426C156.075 98.6426 155.86 103.377 157.054 103.413C158.051 103.445 194.225 96.9477 205.958 94.8336C207.679 94.5238 208.823 92.8836 208.511 91.1704C208.479 91.0064 208.438 90.8469 208.383 90.6874C207.852 89.1884 206.297 88.3045 204.732 88.6189Z" fill="#F5E255"/>
<path d="M253.621 84.1465C253.629 78.2029 248.43 73.3774 242.008 73.3685C235.587 73.3596 230.374 78.1706 230.366 84.1141C230.357 90.0577 235.556 94.8832 241.978 94.8921C248.4 94.9011 253.613 90.0901 253.621 84.1465Z" fill="#FAFAFA"/>
<path d="M253.626 84.1492C253.622 84.09 253.622 84.0262 253.626 83.9669C253.626 83.8348 253.599 83.6617 253.585 83.4384C253.585 83.32 253.585 83.1924 253.558 83.0466C253.53 82.9008 253.507 82.7504 253.475 82.591C253.443 82.4315 253.416 82.2447 253.384 82.0533C253.352 81.862 253.274 81.6615 253.215 81.4473C253.082 80.9826 252.913 80.5224 252.716 80.0805C251.865 78.2534 250.533 76.6906 248.858 75.5652C247.426 74.5948 245.801 73.9478 244.09 73.6698C243.623 73.5924 243.152 73.5423 242.681 73.524C242.438 73.524 242.196 73.4921 241.953 73.4967L241.216 73.5331H240.846L240.47 73.5833L239.72 73.6926L238.974 73.8703L238.594 73.9569L238.228 74.0845C236.132 74.7451 234.274 75.9981 232.874 77.6839C229.735 81.4109 229.735 86.8374 232.874 90.5644C234.27 92.2547 236.123 93.5077 238.214 94.1775L238.585 94.305L238.965 94.3962L239.711 94.5739L240.461 94.6832L240.832 94.7379H241.207L241.944 94.7743C242.186 94.7743 242.429 94.7743 242.667 94.7516C243.138 94.7333 243.61 94.6832 244.076 94.6058C245.774 94.3324 247.394 93.69 248.812 92.7195C250.94 91.3526 252.496 89.2613 253.192 86.8374C253.247 86.6232 253.315 86.4273 253.356 86.236C253.398 86.0446 253.425 85.8623 253.453 85.6938C253.48 85.5252 253.512 85.3748 253.535 85.2381C253.558 85.1014 253.535 84.9648 253.562 84.8508C253.581 84.6276 253.594 84.4499 253.604 84.3178C253.604 84.2585 253.613 84.1993 253.626 84.1401C253.631 84.1993 253.631 84.2631 253.626 84.3223V85.2472C253.626 85.393 253.581 85.548 253.553 85.7029C253.526 85.8578 253.498 86.0537 253.471 86.2496C253.443 86.4455 253.366 86.6415 253.311 86.8602C253.183 87.3386 253.018 87.8033 252.821 88.2589C252.579 88.7966 252.29 89.316 251.965 89.808C251.165 91.0063 250.135 92.0452 248.941 92.8562C247.49 93.8494 245.838 94.5101 244.104 94.7926C243.628 94.8746 243.152 94.9247 242.671 94.9429C242.429 94.9429 242.182 94.9748 241.935 94.9703L241.189 94.9384H240.809L240.429 94.8837L239.665 94.7743L238.905 94.5966L238.521 94.5055L238.146 94.378C236.009 93.6991 234.114 92.4233 232.687 90.7011C229.47 86.8921 229.47 81.338 232.687 77.529C234.128 75.8158 236.032 74.5492 238.178 73.884L238.553 73.761L238.937 73.6698L239.702 73.4921L240.466 73.3828L240.841 73.3327H241.221L241.971 73.3008C242.218 73.3008 242.466 73.3236 242.708 73.3327C243.189 73.3509 243.669 73.401 244.14 73.4876C245.861 73.7701 247.495 74.4216 248.931 75.4058C250.126 76.2213 251.151 77.2602 251.947 78.463C252.56 79.3651 253.013 80.363 253.288 81.4154C253.343 81.6296 253.402 81.8301 253.443 82.026C253.485 82.2219 253.503 82.4041 253.526 82.5727C253.549 82.7413 253.576 82.8962 253.599 83.0284C253.622 83.1605 253.599 83.3017 253.599 83.4202V83.9533C253.613 84.0171 253.622 84.0854 253.626 84.1492Z" fill="#263238"/>
<path d="M104.443 123.032C103.098 123.624 101.565 123.552 100.105 123.392C98.6455 123.233 97.1674 122.987 95.726 123.269C93.4929 123.725 91.5252 125.383 89.2509 125.265C86.098 125.101 84.2173 121.72 81.4305 120.253C78.0442 118.43 73.5002 119.569 70.7729 116.216C69.1164 114.175 68.8601 111.341 70.1185 109.035C72.0999 105.477 76.676 104.885 80.2453 106.165C83.3158 107.263 85.828 109.491 88.2213 111.696C89.0358 112.448 89.8504 113.204 90.6924 113.929C93.4105 116.262 96.9752 117.378 100.545 117.022C102.256 116.845 103.967 117.337 105.322 118.389C105.688 118.676 105.972 119.05 106.155 119.478C106.347 119.888 106.429 120.339 106.397 120.79C106.287 121.907 105.532 122.554 104.443 123.032Z" fill="#F5E255"/>
<g opacity="0.8">
<path d="M104.443 123.032C103.098 123.624 101.565 123.552 100.105 123.392C98.6455 123.233 97.1674 122.987 95.726 123.269C93.4929 123.725 91.5252 125.383 89.2509 125.265C86.098 125.101 84.2173 121.72 81.4305 120.253C78.0442 118.43 73.5002 119.569 70.7729 116.216C69.1164 114.175 68.8601 111.341 70.1185 109.035C72.0999 105.477 76.676 104.885 80.2453 106.165C83.3158 107.263 85.828 109.491 88.2213 111.696C89.0358 112.448 89.8504 113.204 90.6924 113.929C93.4105 116.262 96.9752 117.378 100.545 117.022C102.256 116.845 103.967 117.337 105.322 118.389C105.688 118.676 105.972 119.05 106.155 119.478C106.347 119.888 106.429 120.339 106.397 120.79C106.287 121.907 105.532 122.554 104.443 123.032Z" fill="white"/>
</g>
<path d="M52.6655 121.519C51.7503 119.938 49.0047 119.902 47.3482 120.704C45.6916 121.506 44.5659 123.037 43.454 124.481C42.342 125.925 41.0836 127.397 39.3355 127.989C37.4731 128.623 35.4459 128.117 33.4782 128.131C31.5105 128.144 29.2088 129.083 28.9022 131.015C28.7146 132.149 29.0761 133.306 29.8815 134.131C30.6685 134.874 31.5883 135.466 32.5905 135.881C35.208 136.929 38.0039 137.475 40.8273 137.484C44.4973 137.421 47.9339 135.667 50.1258 132.732C52.2583 129.825 55.1183 124.768 52.6152 121.519" fill="#F5E255"/>
<g opacity="0.8">
<path d="M52.6655 121.519C51.7503 119.938 49.0047 119.902 47.3482 120.704C45.6916 121.506 44.5659 123.037 43.454 124.481C42.342 125.925 41.0836 127.397 39.3355 127.989C37.4731 128.623 35.4459 128.117 33.4782 128.131C31.5105 128.144 29.2088 129.083 28.9022 131.015C28.7146 132.149 29.0761 133.306 29.8815 134.131C30.6685 134.874 31.5883 135.466 32.5905 135.881C35.208 136.929 38.0039 137.475 40.8273 137.484C44.4973 137.421 47.9339 135.667 50.1258 132.732C52.2583 129.825 55.1183 124.768 52.6152 121.519" fill="white"/>
</g>
<path d="M2.7868 130.823C1.96769 131.115 1.23095 131.603 0.649797 132.25C0.0640655 132.91 -0.141856 133.821 0.10525 134.669C0.398116 135.516 1.29502 135.999 2.16904 135.781C2.60376 135.63 2.96069 135.279 3.41372 135.202C4.13673 135.084 4.78653 135.703 5.49124 135.831C6.56661 136.018 7.57791 134.942 7.56876 133.853C7.5596 132.764 6.65355 131.944 5.78868 131.302C4.91008 130.7 3.80726 130.523 2.7868 130.823Z" fill="#F5E255"/>
<g opacity="0.8">
<path d="M2.7868 130.823C1.96769 131.115 1.23095 131.603 0.649797 132.25C0.0640655 132.91 -0.141856 133.821 0.10525 134.669C0.398116 135.516 1.29502 135.999 2.16904 135.781C2.60376 135.63 2.96069 135.279 3.41372 135.202C4.13673 135.084 4.78653 135.703 5.49124 135.831C6.56661 136.018 7.57791 134.942 7.56876 133.853C7.5596 132.764 6.65355 131.944 5.78868 131.302C4.91008 130.7 3.80726 130.523 2.7868 130.823Z" fill="white"/>
</g>
<path d="M202.595 56.4473C198.856 56.265 197.012 59.0717 194.921 59.6366C192.829 60.2016 190.546 60.3019 188.537 59.4909C185.929 58.4338 184.149 56.0418 181.865 54.4061C177.289 51.121 170.494 51.317 166.11 54.8617C166.009 57.3449 168.142 59.3086 170.205 60.7028C172.269 62.097 177.985 64.1018 178.731 66.4801C179.28 68.2571 175.427 69.7515 176.397 71.3416C177.367 72.9318 180.575 72.7723 182.346 72.467C193.52 70.5534 189.599 73.9569 193.058 73.6425C193.058 73.6425 200.302 71.82 205.981 70.8815" fill="#455A64"/>
<path d="M240.26 121.957L236.631 113.56L244.378 110.22L247.074 120.754L240.589 121.957" fill="#FFBE9D"/>
<path d="M247.069 119.387L249.357 126.746C249.357 126.746 257.626 126.919 258.18 128.24L243.994 133.129L239.99 121.811L247.069 119.387Z" fill="#F5E255"/>
<g opacity="0.6">
<path d="M244.744 127.643C244.493 127.825 244.42 128.172 244.575 128.44C244.749 128.7 245.092 128.778 245.362 128.618C245.632 128.422 245.705 128.062 245.541 127.775C245.33 127.52 244.959 127.479 244.699 127.68" fill="white"/>
</g>
<g opacity="0.6">
<path d="M243.994 133.129L243.637 131.972L257.365 127.716C257.365 127.716 258.093 127.771 258.175 128.24L243.994 133.129Z" fill="white"/>
</g>
<path d="M249.545 126.595C249.545 126.664 249.229 126.814 248.968 127.151C248.707 127.488 248.62 127.844 248.547 127.839C248.474 127.835 248.442 127.383 248.767 126.996C249.092 126.609 249.536 126.527 249.545 126.595Z" fill="#263238"/>
<path d="M251.242 126.691C251.279 126.755 251.023 126.973 250.89 127.347C250.757 127.721 250.794 128.049 250.725 128.072C250.657 128.094 250.474 127.716 250.647 127.256C250.821 126.796 251.219 126.627 251.242 126.691Z" fill="#263238"/>
<path d="M252.702 128.172C252.643 128.208 252.427 127.898 252.473 127.456C252.519 127.014 252.794 126.759 252.839 126.805C252.885 126.85 252.762 127.124 252.73 127.484C252.697 127.844 252.771 128.14 252.702 128.172Z" fill="#263238"/>
<path d="M248.84 124.973C248.84 125.046 248.483 125.06 248.099 125.224C247.714 125.388 247.458 125.611 247.399 125.565C247.339 125.52 247.55 125.174 248.003 124.987C248.456 124.8 248.854 124.909 248.84 124.973Z" fill="#263238"/>
<path d="M248.355 123.497C248.144 123.643 247.897 123.725 247.641 123.738C247.371 123.78 247.096 123.793 246.822 123.77C246.662 123.757 246.502 123.729 246.341 123.693C246.245 123.679 246.154 123.647 246.067 123.602C245.939 123.533 245.875 123.388 245.907 123.246C245.943 123.123 246.039 123.028 246.158 122.982C246.245 122.955 246.341 122.932 246.433 122.927C246.598 122.914 246.762 122.914 246.927 122.927C247.206 122.95 247.476 123.019 247.733 123.128C248.19 123.319 248.369 123.538 248.35 123.561C248.332 123.584 248.089 123.433 247.668 123.297C247.426 123.219 247.17 123.174 246.913 123.16C246.762 123.146 246.607 123.146 246.456 123.16C246.291 123.16 246.163 123.215 246.149 123.292C246.136 123.369 246.149 123.333 246.195 123.369C246.259 123.401 246.323 123.42 246.392 123.433C246.543 123.474 246.694 123.502 246.849 123.52C247.106 123.552 247.366 123.561 247.627 123.543C247.87 123.511 248.112 123.497 248.355 123.497Z" fill="#263238"/>
<path d="M248.3 123.629C248.3 123.629 248.053 123.447 247.874 123.009C247.769 122.754 247.71 122.481 247.701 122.203C247.696 122.039 247.705 121.875 247.733 121.711C247.742 121.492 247.87 121.301 248.062 121.201C248.19 121.16 248.332 121.191 248.424 121.292C248.488 121.365 248.547 121.442 248.588 121.529C248.666 121.67 248.721 121.825 248.753 121.984C248.808 122.262 248.794 122.549 248.707 122.818C248.556 123.274 248.295 123.46 248.282 123.442C248.378 123.223 248.46 123 248.533 122.772C248.584 122.531 248.584 122.276 248.533 122.034C248.501 121.893 248.446 121.756 248.378 121.629C248.305 121.488 248.204 121.387 248.154 121.419C248.053 121.497 247.993 121.611 247.989 121.738C247.961 121.888 247.943 122.039 247.943 122.194C247.943 122.449 247.98 122.7 248.053 122.946C248.167 123.374 248.332 123.606 248.3 123.629Z" fill="#263238"/>
<path d="M203.208 56.7253C203.208 56.7253 196.495 69.9612 201.007 73.064C205.519 76.1668 226.591 91.9314 226.591 91.9314L237.34 120.513L247.408 116.412L239.02 82.9602L217.842 64.0153L203.208 56.7253Z" fill="#263238"/>
<path d="M229.058 86.687C229.117 86.7326 228.422 87.6529 227.905 88.9651C227.388 90.2773 227.246 91.4118 227.172 91.4027C227.205 89.6531 227.873 87.9764 229.058 86.687Z" fill="#455A64"/>
<path d="M227.397 86.4136C227.465 86.4136 227.163 87.5162 227.063 88.8922C226.962 90.2682 227.063 91.3844 227.003 91.3935C226.783 90.5734 226.719 89.7168 226.825 88.8739C226.852 88.0265 227.044 87.1881 227.397 86.4136Z" fill="#455A64"/>
<path d="M238.356 120.084C238.329 120.039 238.306 119.993 238.292 119.943C238.246 119.838 238.191 119.697 238.118 119.515C237.963 119.128 237.748 118.576 237.468 117.865C236.915 116.426 236.096 114.33 235.144 111.715C234.192 109.099 233.025 105.96 231.822 102.415C231.52 101.531 231.222 100.616 230.929 99.6815C230.636 98.7475 230.366 97.777 229.973 96.8202C229.204 94.9202 228.284 92.9975 227.278 91.0474L227.31 91.0793C226.179 90.127 224.985 89.1292 223.759 88.1269C222.802 87.3432 221.855 86.5732 220.899 85.8487L218.062 83.7073C216.204 82.2994 214.401 80.9462 212.657 79.7115C210.914 78.4767 209.193 77.3924 207.624 76.3125C206.141 75.3375 204.754 74.2349 203.473 73.0092C202.915 72.4716 202.421 71.8656 202 71.2141C201.634 70.6218 201.359 69.9793 201.194 69.305C200.947 68.2252 200.933 67.1044 201.153 66.0154C201.29 65.332 201.483 64.6622 201.739 64.0152C201.821 63.792 201.899 63.6279 201.945 63.514C201.968 63.4548 201.995 63.4001 202.027 63.3455C202.027 63.3455 202.027 63.4092 201.968 63.5232C201.908 63.6371 201.858 63.8056 201.785 64.0289C201.551 64.6804 201.373 65.3502 201.245 66.0336C201.043 67.1089 201.071 68.2115 201.327 69.2731C201.496 69.9338 201.766 70.5625 202.128 71.1366C202.549 71.7745 203.038 72.3623 203.592 72.8908C204.873 74.0982 206.265 75.1871 207.738 76.1531C209.312 77.2192 211.046 78.2945 212.795 79.5338C214.543 80.7731 216.35 82.1126 218.213 83.5205L221.05 85.6619C222.015 86.3909 222.962 87.1609 223.919 87.94C225.145 88.947 226.34 89.9448 227.47 90.9016V90.9244C228.477 92.8836 229.396 94.8109 230.165 96.7245C230.531 97.6631 230.852 98.6199 231.117 99.5904C231.405 100.529 231.703 101.44 231.996 102.324C233.185 105.869 234.32 109.008 235.267 111.633L237.528 117.806C237.789 118.522 237.986 119.082 238.137 119.474L238.288 119.929C238.32 119.98 238.342 120.03 238.356 120.084Z" fill="#455A64"/>
<path d="M211.486 60.9626L224.463 62.7943L231.117 64.4801L222.006 67.7332L211.486 60.9626Z" fill="#263238"/>
<path d="M195.598 60.0284C195.525 60.1423 195.433 60.2471 195.328 60.3383C195.067 60.6071 194.788 60.8531 194.495 61.0855C192.555 62.63 190.221 63.6005 187.754 63.8876C187.384 63.9331 187.013 63.9559 186.638 63.9514C186.501 63.965 186.359 63.9559 186.226 63.924C186.226 63.883 186.807 63.8648 187.732 63.719C188.935 63.5367 190.111 63.2041 191.232 62.7394C192.353 62.2701 193.415 61.6687 194.394 60.9488C195.145 60.3975 195.57 60.0011 195.598 60.0284Z" fill="#263238"/>
<path d="M204.915 41.111L202.411 59.8463C202.411 59.8463 210.731 59.3041 216.597 61.2451C222.464 63.186 226.07 63.1314 226.07 63.1314L224.843 51.4765L229.222 41.9084L231.149 53.094L240.145 62.3158L246.007 60.9945L239.93 50.8614L235.711 30.2125C235.354 28.4902 234.421 26.9411 233.057 25.8248L232.888 25.6882L224.056 20.7856L221.091 20.8449C218.583 20.8996 216.089 21.1547 213.623 21.6103C212.085 21.8974 210.671 22.6491 209.582 23.7654C208.598 24.8635 207.894 26.1757 207.518 27.5972L204.915 41.111Z" fill="#F5E255"/>
<path d="M232.97 33.2742C232.915 33.4838 232.842 33.6842 232.751 33.8802L232.083 35.4839C231.506 36.8508 230.71 38.6961 229.794 40.7464L227.452 45.9906C227.159 46.624 226.912 47.1525 226.724 47.5717C226.642 47.7676 226.545 47.9589 226.436 48.1412C226.477 47.9316 226.545 47.7266 226.637 47.5352C226.788 47.1479 227.012 46.6012 227.296 45.9223C227.863 44.5554 228.669 42.7056 229.584 40.6507C230.499 38.5959 231.327 36.7506 231.941 35.4156L232.682 33.8391C232.76 33.6432 232.856 33.4519 232.97 33.2742Z" fill="#263238"/>
<path d="M208.008 30.0119C209.729 34.7868 213.042 45.6899 214.652 49.8953C215.147 51.1711 215.975 52.2919 217.05 53.1439L234.897 65.7146L239.015 60.3792L225.639 47.5306L218.428 26.2576C217.412 23.419 213.197 21.879 210.58 23.3962C208.594 24.5672 207.235 27.8249 208.008 30.0119Z" fill="#F5E255"/>
<path d="M218.775 27.1416C218.775 27.1416 218.826 27.2646 218.913 27.5061L219.297 28.5905C219.627 29.5519 220.112 30.9415 220.72 32.7139L225.754 47.4989L225.726 47.4579L239.125 60.2928L239.198 60.3657L239.134 60.4477L236.169 64.2886C235.771 64.7989 235.377 65.3138 235.011 65.7876L234.943 65.8788L234.846 65.8104L221.146 55.9826L218.075 53.7819L217.339 53.2534C217.087 53.0848 216.849 52.898 216.625 52.693C216.19 52.2875 215.806 51.8273 215.49 51.3261C215.188 50.8477 214.936 50.3329 214.744 49.7998L214.154 48.2871C213.778 47.2984 213.421 46.3462 213.092 45.4304C211.779 41.7854 210.804 38.8056 210.154 36.7462C209.834 35.721 209.587 34.9237 209.413 34.3724C209.335 34.1081 209.271 33.9167 209.23 33.7527C209.207 33.6844 209.189 33.6115 209.175 33.5386C209.175 33.5386 209.202 33.6069 209.253 33.7482C209.303 33.8894 209.367 34.099 209.459 34.3587C209.637 34.9054 209.916 35.6982 210.241 36.7188C210.923 38.7691 211.911 41.7307 213.248 45.3757C213.582 46.2869 213.943 47.2346 214.323 48.2233C214.52 48.7154 214.717 49.2211 214.918 49.7314C215.11 50.2554 215.357 50.752 215.655 51.2213C215.966 51.7043 216.341 52.1463 216.762 52.5335C216.982 52.7295 217.21 52.9117 217.458 53.0757L218.199 53.6043L221.279 55.814L235.007 65.6236H234.846L236.004 64.1246L238.969 60.2883V60.4432L225.598 47.6128V47.59C223.539 41.4528 221.832 36.3543 220.633 32.7777L219.261 28.636L218.908 27.5471C218.807 27.2692 218.775 27.1416 218.775 27.1416Z" fill="#263238"/>
<path d="M217.069 24.5444C217.041 24.5718 216.744 24.2619 216.153 23.902C214.62 22.9406 212.694 22.8495 211.079 23.6605C210.465 23.9612 210.14 24.2437 210.113 24.2118C210.356 23.9157 210.658 23.6742 211.001 23.5102C212.653 22.5807 214.689 22.6809 216.245 23.7607C216.574 23.9612 216.854 24.2255 217.069 24.5444Z" fill="#263238"/>
<path d="M240.324 51.1393C240.324 51.2122 239.477 51.1393 238.494 51.3671C237.51 51.5949 236.8 52.0597 236.759 51.9959C237.221 51.5494 237.803 51.2486 238.439 51.1347C239.052 50.9434 239.711 50.9479 240.324 51.1347V51.1393Z" fill="#263238"/>
<path d="M210.356 37.1925C210.296 37.2153 210.237 37.229 210.177 37.2381C210.012 37.2745 209.848 37.2973 209.683 37.3156C209.134 37.3748 208.575 37.3383 208.035 37.2108C207.335 37.024 206.686 36.6868 206.132 36.2221C206.082 36.1856 206.04 36.14 205.999 36.0945C206.621 36.5501 207.317 36.8964 208.058 37.1151C208.813 37.2654 209.591 37.2928 210.356 37.1925Z" fill="#FAFAFA"/>
<path d="M211.747 41.2568C211.472 41.0745 211.193 40.9105 210.9 40.7602C210.182 40.4276 209.404 40.2316 208.612 40.1815C207.82 40.1314 207.024 40.1496 206.237 40.2316L205.519 40.3C205.432 40.3045 205.34 40.3045 205.253 40.3C205.34 40.2726 205.427 40.259 205.514 40.2499C205.683 40.2225 205.926 40.1906 206.233 40.1542C207.024 40.0494 207.82 40.0221 208.617 40.0722C209.413 40.1268 210.191 40.3319 210.905 40.6873C211.12 40.7966 211.326 40.9242 211.518 41.07C211.6 41.1201 211.678 41.1839 211.747 41.2568Z" fill="#FAFAFA"/>
<g opacity="0.4">
<path d="M209.44 34.354C209.44 34.354 209.898 41.48 210.433 44.7741C210.969 48.0683 212.012 51.4217 214.382 53.7773C216.753 56.1328 220.157 57.199 223.466 57.8779C222.395 57.076 221.352 56.2513 220.322 55.3993C219 54.3058 217.059 53.2351 215.993 51.8864C213.943 49.2939 213.499 46.018 212.442 42.8924C211.472 40.0037 210.415 37.2563 209.44 34.3722" fill="black"/>
</g>
<path d="M221.869 37.1335C221.754 37.2155 221.626 37.2793 221.494 37.3203C221.128 37.4479 220.739 37.5071 220.35 37.4934C219.366 37.4934 218.062 37.0378 216.579 37.1699C215.316 37.2656 214.099 37.6575 213.014 38.309C212.689 38.5095 212.374 38.7282 212.076 38.9651L211.838 39.1656C211.783 39.2111 211.751 39.2339 211.751 39.2294C212.113 38.8512 212.525 38.5186 212.978 38.2498C214.062 37.5754 215.298 37.1699 216.574 37.0743C218.075 36.933 219.389 37.4205 220.35 37.4251C220.729 37.4479 221.114 37.4023 221.48 37.2884C221.736 37.2246 221.864 37.1335 221.869 37.1335Z" fill="#FAFAFA"/>
<path d="M220.542 33.6934C220.514 33.7162 220.482 33.7344 220.45 33.7526L220.189 33.903C219.961 34.0351 219.622 34.2082 219.196 34.4087C216.963 35.4521 214.538 36.0216 212.072 36.0945H210.653C210.616 36.0945 210.584 36.0945 210.548 36.0945H210.955C211.216 36.0945 211.6 36.0945 212.067 36.0717C213.289 36.0171 214.506 35.8485 215.696 35.5706C216.886 35.2835 218.048 34.8917 219.169 34.395C219.595 34.2037 219.938 34.0351 220.171 33.9394L220.441 33.8027C220.505 33.7025 220.537 33.6888 220.542 33.6934Z" fill="#FAFAFA"/>
<path d="M230.678 37.4295L230.554 37.4022C230.435 37.3703 230.321 37.3293 230.206 37.2837C229.795 37.1015 229.415 36.8555 229.09 36.5456C228.22 35.8075 227.42 34.4224 226.07 33.3563C224.569 32.1625 222.757 31.4199 220.844 31.2103L220.482 31.1738C220.441 31.1829 220.4 31.1829 220.359 31.1738C220.977 31.1738 221.59 31.2467 222.189 31.3925C223.635 31.7297 224.985 32.3812 226.143 33.3061C226.77 33.821 227.342 34.4088 227.841 35.0466C228.239 35.5706 228.678 36.0627 229.149 36.5229C229.47 36.8281 229.836 37.0833 230.238 37.2746C230.508 37.384 230.682 37.4159 230.678 37.4295Z" fill="#FAFAFA"/>
<path d="M230.142 39.603C230.014 39.5756 229.881 39.5392 229.758 39.4936C229.424 39.3524 229.117 39.1656 228.843 38.9332C228.435 38.5869 228.06 38.2042 227.722 37.7896C227.305 37.293 226.848 36.8373 226.349 36.4227C225.841 36.0218 225.232 35.7621 224.587 35.6709C224.061 35.598 223.53 35.5889 223.004 35.6391C222.546 35.6801 222.185 35.7347 221.933 35.7666L221.64 35.8076C221.608 35.8122 221.571 35.8122 221.539 35.8076C221.571 35.794 221.603 35.7849 221.635 35.7803L221.924 35.7211C222.175 35.6755 222.541 35.6117 222.994 35.5662C223.53 35.4978 224.065 35.4978 224.601 35.5662C225.269 35.6482 225.905 35.9124 226.431 36.3316C226.934 36.7553 227.392 37.2246 227.804 37.7349C228.143 38.145 228.509 38.5277 228.902 38.8831C229.177 39.1155 229.488 39.3114 229.817 39.4572C230.01 39.5529 230.142 39.5939 230.142 39.603Z" fill="#FAFAFA"/>
<path d="M237.153 38.1357C236.823 38.0446 236.48 38.0127 236.137 38.0355C235.766 38.0674 235.4 38.1494 235.052 38.2769C234.659 38.4136 234.238 38.6141 233.794 38.8146C233.378 39.0105 232.943 39.1609 232.494 39.2702C232.124 39.3568 231.739 39.375 231.364 39.3294C231.108 39.293 230.861 39.2155 230.636 39.0925C230.563 39.0561 230.495 39.0105 230.431 38.9558C230.723 39.1335 231.053 39.2429 231.392 39.2839C231.758 39.3203 232.133 39.293 232.49 39.2064C232.929 39.0971 233.359 38.9467 233.771 38.7508C234.229 38.5503 234.64 38.3544 235.043 38.2177C235.4 38.0947 235.771 38.0172 236.151 37.9899C236.407 37.9762 236.663 37.999 236.91 38.0628C236.993 38.0765 237.075 38.1038 237.153 38.1357Z" fill="#FAFAFA"/>
<path d="M237.876 40.6144C237.51 40.3411 237.07 40.1816 236.613 40.1588C236.119 40.1406 235.629 40.2317 235.176 40.4185C234.622 40.6646 234.101 40.9698 233.615 41.3298C233.126 41.6943 232.609 42.0132 232.064 42.2911C231.611 42.5098 231.122 42.642 230.623 42.6784C230.284 42.6966 229.946 42.6465 229.63 42.5326C229.515 42.4871 229.401 42.4324 229.3 42.3595C229.708 42.56 230.165 42.6465 230.618 42.6101C231.108 42.5645 231.588 42.4324 232.028 42.2137C232.563 41.9312 233.076 41.6123 233.561 41.2523C234.05 40.8924 234.586 40.5826 235.144 40.3411C235.611 40.1543 236.114 40.0677 236.617 40.095C236.956 40.1133 237.285 40.2089 237.583 40.3775C237.693 40.4413 237.789 40.5233 237.876 40.6144Z" fill="#FAFAFA"/>
<g opacity="0.4">
<path d="M230.266 47.9498C231.181 44.2182 231.382 40.1768 231.515 36.3359C231.19 37.68 230.362 38.8419 229.849 40.1313C229.602 40.7418 229.213 41.8535 229.213 41.8535L230.248 47.8587" fill="black"/>
</g>
<path d="M224.225 4.05518C224.12 4.75684 223.631 5.34004 222.958 5.56785C222.583 5.69087 222.171 5.69087 221.8 5.83211C221.407 5.94146 221.146 6.31052 221.169 6.71602C221.233 7.00762 221.503 7.19443 221.722 7.39034C221.942 7.58626 222.143 7.89609 222.015 8.16035C221.887 8.42461 221.452 8.47929 221.233 8.72077C221.027 9.00781 221.045 9.39965 221.283 9.66391C221.521 9.9145 221.791 10.1286 222.093 10.2972C222.395 10.4704 222.619 10.7529 222.715 11.0855" fill="#263238"/>
<path d="M237.798 9.97359C238.805 7.85494 238.073 5.21688 236.503 3.46728C234.933 1.71768 232.682 0.733536 230.421 0.0819932C230.096 -0.00913159 229.694 -0.0774752 229.465 0.173118C229.287 0.423711 229.314 0.760873 229.524 0.984129C229.735 1.19372 229.996 1.35318 230.284 1.43975C229.373 0.965904 228.367 0.69253 227.337 0.642411C226.976 0.615073 226.619 0.69253 226.298 0.861111C225.983 1.04792 225.818 1.41242 225.891 1.77236C225.983 2.06851 226.298 2.23254 226.596 2.14141C226.66 2.12319 226.715 2.0913 226.77 2.05029C225.79 1.9455 224.802 2.17331 223.974 2.70183C223.388 3.07544 222.853 3.72243 222.994 4.40131C223.145 4.77948 223.315 5.14853 223.507 5.50848C223.75 6.21469 223.397 6.97103 223.127 7.66358C222.679 8.73885 222.523 9.91436 222.67 11.0716C222.825 12.2426 223.493 13.2814 224.5 13.9056" fill="#263238"/>
<path d="M223.763 27.8386C221.265 27.1734 219.782 24.6128 220.45 22.1251C220.459 22.0886 220.473 22.0476 220.482 22.0112L224.683 7.85036C225.639 4.28282 229.319 2.15962 232.906 3.11187C232.97 3.1301 233.03 3.14376 233.089 3.16199L233.419 3.28045C236.732 4.47419 238.571 8.00072 237.647 11.386C236.782 14.5344 235.784 18.0062 235.167 19.6419C233.89 23.0272 230.284 22.3255 230.284 22.3255L229.396 24.8634C228.591 27.1734 226.134 28.4719 223.763 27.8386Z" fill="#FFBE9D"/>
<path d="M230.307 22.28C228.719 21.7424 227.328 20.7446 226.312 19.4187C226.312 19.4187 226.477 22.2436 229.973 23.1639L230.307 22.28Z" fill="#EB996E"/>
<path d="M229.662 5.23968C229.383 4.62914 229.03 3.29872 228.554 2.82031C228.078 2.34191 227.305 2.50138 226.655 2.68363C225.978 2.87954 225.434 3.38984 225.196 4.0505C224.28 6.4972 224.189 8.81177 223.521 11.2175C223.461 11.3724 223.448 11.5455 223.48 11.7095C223.608 12.115 224.056 12.2608 224.482 12.3246C225.53 12.475 226.065 11.7141 226.559 10.7983C226.724 10.2424 226.848 9.67746 226.925 9.10337C227.044 7.46768 228.033 6.01424 229.515 5.29891L229.662 5.23968Z" fill="#263238"/>
<path d="M225.273 9.79603C225.228 9.75047 223.178 8.26058 222.409 10.6116C221.64 12.9626 224.171 13.2497 224.198 13.1813C224.225 13.113 225.273 9.79603 225.273 9.79603Z" fill="#FFBE9D"/>
<path d="M223.768 12.0741C223.768 12.0741 223.718 12.0741 223.635 12.1014C223.525 12.1105 223.411 12.0741 223.324 12.0058C223.077 11.7096 223.013 11.3041 223.155 10.9441C223.214 10.7391 223.319 10.5523 223.461 10.3928C223.557 10.2607 223.708 10.1787 223.873 10.1787C223.978 10.1878 224.061 10.2653 224.079 10.3701V10.4976C224.079 10.4976 224.143 10.4749 224.157 10.3701C224.161 10.3063 224.148 10.247 224.111 10.1924C224.061 10.124 223.988 10.0739 223.901 10.0602C223.69 10.0375 223.484 10.124 223.352 10.288C223.187 10.4612 223.063 10.6662 222.995 10.894C222.834 11.3132 222.94 11.7916 223.265 12.106C223.379 12.1834 223.525 12.2062 223.658 12.1652C223.745 12.1151 223.772 12.0741 223.768 12.0741Z" fill="#EB996E"/>
<path d="M228.751 5.74546C229.914 4.95267 231.112 5.34451 231.913 5.80924C232.714 6.27398 233.391 6.93008 234.201 7.35381C235.011 7.77754 236.096 7.92334 236.828 7.35381C237.35 6.88907 237.652 6.22842 237.665 5.53131C237.771 4.20545 237.34 2.89325 236.466 1.88632C236.242 1.62661 235.894 1.37602 235.579 1.51271C235.19 1.68585 235.254 2.25082 235.377 2.65632C235.377 2.65632 231.405 1.19377 228.971 2.03668C226.536 2.87958 228.751 5.74546 228.751 5.74546Z" fill="#263238"/>
<path d="M230.243 0.036377C230.243 0.036377 230.289 0.209514 230.412 0.492001C230.6 0.883838 230.856 1.23922 231.167 1.54449C231.629 1.99556 232.165 2.36917 232.751 2.6471C233.094 2.80657 233.46 2.92959 233.831 3.00705C234.219 3.09362 234.636 3.15285 235.057 3.26675C235.478 3.37155 235.871 3.56746 236.205 3.84539C236.512 4.10966 236.75 4.44682 236.896 4.82043C237.034 5.16215 237.08 5.5312 237.038 5.8957C236.997 6.21008 236.883 6.5108 236.7 6.7705C236.443 7.14867 236.064 7.43116 235.624 7.5724C235.505 7.60429 235.382 7.62252 235.258 7.62708H235.13C235.13 7.62708 235.309 7.62708 235.588 7.50406C235.99 7.34459 236.334 7.06666 236.567 6.70216C236.727 6.45612 236.823 6.17363 236.86 5.88203C236.892 5.54943 236.842 5.21227 236.709 4.90244C236.572 4.55161 236.347 4.23723 236.064 3.99119C235.752 3.7406 235.396 3.56291 235.007 3.46723C234.604 3.35788 234.187 3.29409 233.789 3.20297C233.4 3.12095 233.03 2.98882 232.673 2.81568C232.073 2.51953 231.529 2.12314 231.067 1.64473C230.751 1.32124 230.504 0.938513 230.344 0.519339C230.302 0.405432 230.27 0.28697 230.257 0.163952C230.243 0.122946 230.238 0.0773831 230.243 0.036377Z" fill="#455A64"/>
<path d="M227.621 0.747314C227.621 0.747314 227.68 0.920452 227.813 1.20294C228.01 1.613 228.289 1.9775 228.628 2.28277C229.136 2.72928 229.735 3.06644 230.38 3.27147C231.181 3.52207 231.996 3.70887 232.824 3.83645C233.67 3.95946 234.494 4.19183 235.272 4.53811C235.624 4.70669 235.908 4.99373 236.073 5.34456C236.196 5.65894 236.215 6.00522 236.128 6.33327C235.99 6.798 235.693 7.1944 235.281 7.44955C235.176 7.51789 235.061 7.58168 234.942 7.62724C234.901 7.64546 234.86 7.66369 234.814 7.66824C234.814 7.66824 234.975 7.57712 235.235 7.3812C235.601 7.1215 235.867 6.73877 235.981 6.30137C236.054 6.00977 236.032 5.69995 235.922 5.42202C235.766 5.10764 235.51 4.8616 235.19 4.7158C234.421 4.39231 233.615 4.16905 232.792 4.05059C231.954 3.92301 231.131 3.72254 230.325 3.45828C229.657 3.23958 229.049 2.87964 228.536 2.40123C228.193 2.07774 227.927 1.68134 227.749 1.24394C227.703 1.12548 227.667 1.00246 227.644 0.879445C227.625 0.838439 227.621 0.792877 227.621 0.747314Z" fill="#455A64"/>
<path d="M235.368 13.0217C235.272 13.3087 234.961 13.4682 234.673 13.3771C234.384 13.3042 234.21 13.0171 234.284 12.7301C234.284 12.7255 234.284 12.7164 234.288 12.7118C234.384 12.4248 234.695 12.2653 234.988 12.3519C235.277 12.4294 235.446 12.721 235.373 13.008C235.373 13.008 235.373 13.0171 235.373 13.0217H235.368Z" fill="#263238"/>
<path d="M236.379 12.7209C236.288 12.7665 235.991 12.3337 235.414 12.1377C234.837 11.9418 234.325 12.0785 234.288 11.9874C234.252 11.8963 234.375 11.8461 234.609 11.7778C235.231 11.6047 235.899 11.837 236.279 12.361C236.412 12.5569 236.425 12.7027 236.379 12.7209Z" fill="#263238"/>
<path d="M229.712 11.3998C229.616 11.6869 229.305 11.8464 229.012 11.7552C228.724 11.6823 228.554 11.3907 228.628 11.1037C228.628 11.0991 228.628 11.0946 228.628 11.09C228.724 10.803 229.03 10.6435 229.323 10.7301C229.611 10.803 229.785 11.0991 229.712 11.3862C229.712 11.3907 229.712 11.3953 229.712 11.3998Z" fill="#263238"/>
<path d="M230.719 10.8804C230.627 10.9305 230.33 10.4931 229.758 10.2972C229.186 10.1013 228.664 10.238 228.628 10.1469C228.591 10.0557 228.719 10.0056 228.948 9.93727C229.25 9.85526 229.57 9.86437 229.863 9.96917C230.161 10.0694 230.417 10.2653 230.6 10.5205C230.746 10.7073 230.76 10.8622 230.719 10.8804Z" fill="#263238"/>
<path d="M231.346 15.8284C231.68 15.8375 232.014 15.8922 232.334 15.9833C232.485 16.0198 232.632 16.038 232.691 15.9469C232.755 15.8056 232.774 15.6461 232.746 15.4912C232.746 15.0903 232.714 14.6711 232.7 14.2337C232.627 13.1539 232.641 12.0741 232.742 10.9988C232.897 12.0695 232.97 13.1493 232.961 14.2292V15.4867C232.993 15.6917 232.947 15.9059 232.838 16.0835C232.76 16.1747 232.645 16.2202 232.526 16.2157C232.435 16.2157 232.348 16.202 232.261 16.1747C231.941 16.0972 231.634 15.9788 231.346 15.8284Z" fill="#263238"/>
<path d="M229.515 15.6416C229.607 15.6416 229.392 16.284 229.772 16.9082C230.151 17.5324 230.838 17.6919 230.81 17.783C230.783 17.8742 230.623 17.8514 230.353 17.783C229.987 17.6646 229.675 17.4185 229.474 17.0905C229.277 16.7761 229.213 16.4025 229.296 16.0425C229.337 15.7509 229.456 15.6234 229.515 15.6416Z" fill="#263238"/>
<path d="M231.648 8.69794C231.533 8.83463 230.989 8.56581 230.275 8.41089C229.561 8.25598 228.971 8.25598 228.93 8.0874C228.93 8.00539 229.058 7.89148 229.328 7.81858C230.046 7.64545 230.81 7.81403 231.387 8.27421C231.616 8.47013 231.698 8.63415 231.648 8.69794Z" fill="#263238"/>
<path d="M236.75 10.9989C236.604 11.0945 236.256 10.8257 235.785 10.6526C235.313 10.4794 234.869 10.4384 234.833 10.2699C234.833 10.1924 234.924 10.0831 235.139 10.0193C235.725 9.88714 236.334 10.1195 236.686 10.607C236.805 10.7984 236.837 10.9533 236.75 10.9989Z" fill="#263238"/>
<path d="M225.964 61.5503C227.021 61.933 227.639 63.022 227.429 64.12L224.335 65.3365L223.631 62.375L225.964 61.5503Z" fill="#455A64"/>
<path d="M200 61.5413C200 61.5413 206.191 60.9034 210.067 62.2657C213.943 63.628 218.794 64.6441 220.931 64.1657C222.075 63.8877 223.095 63.2499 223.846 62.3432C223.846 62.3432 217.677 61.6051 214.771 60.671C212.817 60.0423 208.955 55.6819 201.808 56.7344L200 61.5413Z" fill="#455A64"/>
<path d="M224.807 63.7738C224.587 63.2134 224.244 62.7031 223.809 62.2839L223.864 62.3568C223.214 62.3842 222.574 62.4799 221.942 62.6348C221.311 62.7988 220.743 63.1451 220.318 63.6371C220.171 63.7921 220.089 63.9971 220.089 64.2112C220.148 64.4892 220.327 64.7306 220.574 64.8764C221.141 65.3867 221.8 65.7786 222.519 66.0292C223.255 66.2752 224.07 66.0656 224.596 65.4961C224.944 64.9903 225.022 64.3479 224.807 63.7738Z" fill="#455A64"/>
<path d="M220.313 63.5596C220.35 63.4274 220.418 63.309 220.51 63.2087C220.757 62.9399 221.073 62.7394 221.425 62.6301C221.947 62.457 222.5 62.4114 223.045 62.4934C223.722 62.5936 224.322 62.9855 224.692 63.5596C224.88 63.8603 224.971 64.2111 224.953 64.5619C224.926 64.89 224.807 65.2089 224.61 65.4732C224.431 65.7101 224.184 65.8878 223.901 65.988C223.658 66.07 223.397 66.1019 223.141 66.0792C222.775 66.0427 222.413 65.9561 222.075 65.8149C221.956 65.7693 221.864 65.7283 221.8 65.6964C221.768 65.6828 221.736 65.6691 221.709 65.6463L221.809 65.6782L222.088 65.7784C222.427 65.906 222.784 65.9835 223.146 66.0108C223.672 66.0609 224.189 65.8377 224.518 65.4231C224.926 64.89 224.958 64.161 224.592 63.6006C224.235 63.0493 223.658 62.6756 223.008 62.5754C222.477 62.4888 221.937 62.5298 221.425 62.6893C221.077 62.7896 220.766 62.9718 220.51 63.227C220.432 63.3317 220.368 63.4411 220.313 63.5596Z" fill="#263238"/>
<path d="M221.622 63.6597C221.507 63.5458 221.384 63.441 221.256 63.3408C221.109 63.2496 220.958 63.1722 220.798 63.1084C221.132 63.1722 221.42 63.3727 221.599 63.6597H221.622Z" fill="#FAFAFA"/>
<path d="M222.624 63.7054C222.624 63.7054 222.482 63.5642 222.29 63.4047C222.098 63.2453 221.928 63.1405 221.933 63.1313C222.079 63.186 222.208 63.2635 222.322 63.3683C222.441 63.4594 222.546 63.5733 222.624 63.7054Z" fill="#FAFAFA"/>
<path d="M223.031 65.8376C223.031 65.8376 223.008 65.7328 222.958 65.5688C222.889 65.3592 222.793 65.1587 222.674 64.9765C222.546 64.7942 222.391 64.6302 222.217 64.4935C222.084 64.3842 221.992 64.3295 221.997 64.325C222.084 64.3614 222.162 64.4115 222.24 64.4662C222.418 64.6029 222.574 64.7669 222.697 64.9537C222.821 65.1405 222.917 65.3456 222.972 65.5597C223.004 65.6508 223.022 65.7419 223.031 65.8376Z" fill="#FAFAFA"/>
<path d="M224.047 65.0405C224.042 64.9539 224.042 64.8628 224.047 64.7762C224.052 64.5621 224.038 64.3525 224.001 64.1429C223.965 63.9333 223.905 63.7328 223.823 63.5369C223.763 63.3865 223.718 63.2954 223.722 63.2909C223.727 63.2863 223.722 63.2909 223.763 63.3501C223.795 63.4048 223.827 63.464 223.855 63.5232C223.942 63.7191 224.01 63.9242 224.047 64.1383C224.084 64.3479 224.097 64.5621 224.079 64.7762C224.079 64.84 224.079 64.9083 224.079 64.9721C224.07 64.9949 224.061 65.0177 224.047 65.0405Z" fill="#FAFAFA"/>
<path d="M224.052 63.1404C223.054 63.4775 222.175 64.0972 221.526 64.9264C221.59 64.7852 221.677 64.653 221.782 64.5391C222.262 63.9514 222.894 63.5094 223.612 63.2543C223.754 63.1951 223.901 63.1586 224.052 63.1404Z" fill="#263238"/>
<path d="M222.519 62.6484C222.175 62.9081 221.887 63.2316 221.672 63.6007C221.48 63.9834 221.37 64.398 221.338 64.8263C221.315 64.6987 221.315 64.5712 221.338 64.4436C221.365 64.1338 221.452 63.8285 221.603 63.5551C221.754 63.2818 221.956 63.0357 222.203 62.8398C222.294 62.7578 222.4 62.6894 222.519 62.6484Z" fill="#263238"/>
<path d="M224.216 65.8377C224.216 65.8377 224.189 65.6874 224.097 65.4687C223.974 65.1862 223.786 64.9356 223.553 64.7351C222.995 64.2795 222.432 64.0289 222.455 63.9924C222.578 64.0289 222.702 64.079 222.816 64.1428C223.104 64.2795 223.374 64.4572 223.617 64.6622C223.864 64.8718 224.052 65.1406 224.161 65.4459C224.212 65.5689 224.23 65.7056 224.216 65.8377Z" fill="#263238"/>
<path d="M211.211 62.58C211.005 62.5618 210.799 62.5253 210.603 62.4661C210.214 62.3795 209.655 62.2565 208.96 62.1244C207.148 61.7781 205.313 61.5685 203.469 61.4865C202.462 61.4181 201.451 61.5001 200.467 61.728C199.675 61.9375 198.929 62.3066 198.279 62.8078C197.689 63.2862 197.163 63.8421 196.724 64.4617C196.797 64.2658 196.897 64.0835 197.026 63.9195C197.346 63.4502 197.735 63.0356 198.174 62.6757C198.833 62.138 199.593 61.7462 200.412 61.5184C201.414 61.2723 202.448 61.1812 203.478 61.2496C205.336 61.327 207.184 61.5639 209.001 61.9603C209.697 62.1152 210.255 62.2656 210.635 62.3795C210.836 62.4251 211.028 62.4934 211.211 62.58Z" fill="#263238"/>
<path d="M165.721 56.4018C165.817 56.3107 165.922 56.2287 166.037 56.1558C166.352 55.9371 166.686 55.7549 167.039 55.6091C168.352 55.0577 169.807 54.9484 171.189 55.2901C172.146 55.5225 173.033 55.9781 173.775 56.6205C174.603 57.3678 175.335 58.2152 175.948 59.1447C176.626 60.1562 177.358 61.1312 178.136 62.0652C178.982 63.0585 179.897 63.988 180.881 64.8446C182.904 66.5987 185.091 68.0339 187.288 68.7356C188.327 69.0864 189.42 69.2641 190.518 69.2687C191.47 69.3051 192.418 69.0727 193.241 68.5989C193.905 68.1706 194.481 67.6239 194.943 66.9905C195.369 66.4392 195.703 65.9335 195.978 65.5234L196.605 64.5757C196.673 64.4618 196.751 64.3525 196.833 64.2522C196.778 64.3753 196.714 64.4937 196.641 64.6031L196.055 65.5736C195.795 65.9927 195.47 66.4848 195.049 67.068C194.587 67.7287 194.005 68.2936 193.333 68.7401C192.482 69.2413 191.507 69.4965 190.518 69.4691C189.397 69.4737 188.281 69.296 187.219 68.9452C184.963 68.2253 182.748 66.7946 180.707 65.0268C179.714 64.1611 178.786 63.2225 177.934 62.2156C177.152 61.2725 176.424 60.2883 175.747 59.2677C175.143 58.3519 174.429 57.509 173.624 56.7663C172.905 56.1376 172.05 55.6865 171.125 55.4541C169.775 55.1033 168.352 55.1899 167.053 55.6956C166.59 55.8915 166.142 56.1285 165.721 56.4018Z" fill="#263238"/>
<path d="M177.12 52.3604H176.799C176.589 52.3604 176.292 52.3878 175.921 52.4288C173.99 52.652 172.15 53.3582 170.567 54.4836C170.269 54.6978 170.032 54.8846 169.871 55.0167L169.624 55.2217C169.913 54.9438 170.215 54.6887 170.539 54.4563C172.114 53.3081 173.967 52.5973 175.907 52.3969C176.31 52.3559 176.717 52.3467 177.12 52.3604Z" fill="#FAFAFA"/>
<path d="M184.464 56.7891L184.13 56.8346C183.911 56.862 183.599 56.9121 183.215 56.9895C182.218 57.1946 181.252 57.5181 180.337 57.9555C179.417 58.3929 178.557 58.9442 177.774 59.5911C177.477 59.8372 177.243 60.0468 177.088 60.2017L176.841 60.4341C177.124 60.1242 177.431 59.8326 177.756 59.5638C178.538 58.9077 179.394 58.3519 180.314 57.9099C181.234 57.4725 182.208 57.1536 183.211 56.9576C183.622 56.8756 184.043 56.821 184.464 56.7891Z" fill="#FAFAFA"/>
<path d="M184.24 67.1635C184.213 67.0496 184.19 66.9311 184.176 66.8126C184.135 66.4937 184.126 66.1702 184.144 65.8467C184.217 64.7805 184.533 63.7417 185.059 62.8077C185.599 61.8873 186.235 61.0262 186.958 60.238C187.503 59.6229 187.873 59.2629 187.873 59.2629L187.64 59.5318L186.999 60.2562C186.29 61.049 185.663 61.9101 185.128 62.8305C184.597 63.7554 184.272 64.7851 184.181 65.8467C184.153 66.1702 184.153 66.4891 184.181 66.8126C184.181 66.9265 184.208 67.0131 184.213 67.0723L184.24 67.1635Z" fill="#FAFAFA"/>
<path d="M192.294 62.5709C192.244 62.457 192.202 62.3385 192.17 62.22C192.024 61.6369 192.01 61.0309 192.138 60.4431C192.161 60.3247 192.202 60.2062 192.248 60.0923C192.248 60.0923 192.216 60.229 192.17 60.4522C192.061 61.0354 192.074 61.6323 192.207 62.2109C192.257 62.4342 192.298 62.5663 192.294 62.5709Z" fill="#FAFAFA"/>
<path d="M193.703 68.1159C193.447 67.9519 193.2 67.7696 192.971 67.5692C191.841 66.6032 191.04 65.3093 190.683 63.8695C190.605 63.5688 190.555 63.2635 190.532 62.9583C190.532 62.9583 190.532 63.0448 190.578 63.1997C190.624 63.3547 190.647 63.5779 190.715 63.8467C191.086 65.2728 191.873 66.5531 192.98 67.5327C193.145 67.6831 193.319 67.8198 193.497 67.9519C193.635 68.0658 193.703 68.1159 193.703 68.1159Z" fill="#FAFAFA"/>
<path d="M199.876 61.8191C199.876 61.8191 199.643 61.7143 199.282 61.5047C198.815 61.2313 198.371 60.9261 197.945 60.5935C197.52 60.2563 197.122 59.8964 196.746 59.5045C196.463 59.2038 196.289 58.9988 196.289 58.9988L196.417 59.1264L196.756 59.4817C197.135 59.8645 197.533 60.2244 197.954 60.557C198.38 60.8851 198.824 61.1903 199.282 61.4683L199.707 61.7189L199.876 61.8191Z" fill="#FAFAFA"/>
<path d="M204.265 61.2131V61.0354C204.265 60.9215 204.265 60.7073 204.242 60.5433C204.242 60.1287 204.178 59.5592 204.095 58.935C204.013 58.3107 203.899 57.7458 203.807 57.3448L203.697 56.8664C203.67 56.7525 203.661 56.6887 203.661 56.6887C203.661 56.6887 203.661 56.748 203.716 56.8619C203.771 56.9758 203.793 57.1352 203.844 57.3175C203.94 57.7184 204.054 58.2834 204.141 58.9122C204.214 59.4452 204.256 59.9874 204.274 60.5251V61.0171C204.274 61.1356 204.265 61.2131 204.265 61.2131Z" fill="#FAFAFA"/>
<path d="M209.962 58.092C209.971 58.1422 209.971 58.1923 209.962 58.2424C209.962 58.3836 209.935 58.5158 209.925 58.6433C209.884 58.9851 209.816 59.4544 209.71 59.9647C209.605 60.475 209.482 60.9351 209.381 61.2632C209.34 61.3862 209.298 61.5138 209.257 61.6505C209.216 61.7872 209.202 61.7872 209.202 61.7872C209.212 61.737 209.221 61.6869 209.239 61.6413C209.276 61.5092 209.312 61.3771 209.349 61.2541C209.44 60.926 209.559 60.4658 209.665 59.9555C209.77 59.4452 209.843 58.9805 209.893 58.6388C209.893 58.5112 209.925 58.3791 209.944 58.2378L209.962 58.092Z" fill="#FAFAFA"/>
<path d="M213.843 61.86C213.87 61.6094 213.916 61.3634 213.975 61.1173C214.016 60.8668 214.076 60.6253 214.154 60.3838C214.122 60.6344 214.08 60.8804 214.021 61.1265C213.975 61.3725 213.916 61.6185 213.843 61.86Z" fill="#FAFAFA"/>
<path d="M220.258 63.9787C220.258 63.9787 220.258 63.8648 220.295 63.6734C220.331 63.4821 220.331 63.2178 220.336 62.9262V61.9512C220.331 61.9238 220.331 61.8965 220.336 61.8691C220.354 61.9694 220.363 62.0742 220.363 62.179V62.9307C220.363 63.1813 220.34 63.4319 220.304 63.678C220.299 63.7782 220.281 63.8784 220.258 63.9787Z" fill="#FAFAFA"/>
<path d="M221.489 65.4642C220.995 63.4822 218.949 62.2065 216.913 61.8876C214.877 61.5686 212.822 61.9832 210.786 62.2429C208.749 62.5026 206.576 62.5664 204.75 61.6233C204.169 62.694 203.88 63.8923 203.903 65.1088H204.974C205.198 66.6488 206.612 67.8426 208.136 68.1569C209.66 68.4713 210.667 68.4987 212.094 67.879C213.595 67.2229 215.54 66.2342 217.014 65.7194C218.487 65.2045 220.116 64.9493 221.59 65.4323" fill="#455A64"/>
<path d="M205.816 62.0969C205.766 62.2427 205.706 62.3885 205.633 62.5252C205.487 62.8624 205.363 63.2086 205.262 63.5595C205.157 63.9194 205.084 64.2839 205.038 64.653C205.034 64.8079 205.015 64.9582 204.988 65.1086C204.965 64.9582 204.965 64.8033 204.988 64.653C205.011 64.2748 205.079 63.9012 205.185 63.5413C205.285 63.1768 205.423 62.8259 205.592 62.4888C205.647 62.3475 205.725 62.2154 205.816 62.0969Z" fill="#263238"/>
<path d="M205.061 64.2431C204.873 64.2431 204.686 64.2295 204.498 64.193C204.306 64.1885 204.118 64.1611 203.931 64.1201C204.118 64.0791 204.32 64.0791 204.507 64.1201C204.7 64.1201 204.887 64.1611 205.061 64.2431Z" fill="#263238"/>
<path d="M205.29 63.0128C205.29 63.0128 205.079 62.8852 204.8 62.785C204.521 62.6847 204.279 62.6802 204.279 62.6528C204.654 62.5845 205.043 62.7212 205.29 63.0128Z" fill="#263238"/>
<path d="M207.418 62.3612H208.653C209.774 62.3476 210.891 62.2337 211.994 62.0195C213.65 61.6732 215.353 61.6277 217.027 61.8828C218.025 62.0423 218.972 62.4205 219.8 62.99C220.697 63.6233 221.365 64.5254 221.704 65.5643L221.732 65.6645L221.635 65.6189C221.205 65.4094 220.739 65.2818 220.263 65.2453C219.1 65.218 217.947 65.4276 216.867 65.8513C215.842 66.2021 214.84 66.6076 213.861 67.0678C213.403 67.2865 212.946 67.5235 212.488 67.6966C212.053 67.8971 211.605 68.0611 211.143 68.1841C210.301 68.38 209.431 68.4165 208.58 68.2843C207.875 68.1841 207.203 67.9335 206.608 67.5417C206.164 67.241 205.789 66.8491 205.505 66.3935C205.326 66.111 205.194 65.8012 205.098 65.4823C205.038 65.259 205.02 65.1405 205.02 65.1405C205.13 65.5779 205.304 65.9971 205.537 66.3844C205.821 66.8309 206.196 67.2136 206.64 67.5052C207.23 67.888 207.898 68.134 208.594 68.2297C209.436 68.3527 210.296 68.3162 211.124 68.1158C211.582 67.9973 212.03 67.8333 212.456 67.6282C212.914 67.4323 213.371 67.2182 213.829 66.9995C214.808 66.5347 215.815 66.1247 216.844 65.7693C217.938 65.341 219.105 65.136 220.276 65.1588C220.771 65.1998 221.251 65.3273 221.695 65.5415L221.631 65.5962C221.297 64.5756 220.642 63.6917 219.764 63.072C218.94 62.507 218.002 62.1334 217.018 61.974C215.362 61.7234 213.669 61.7598 212.026 62.0924C210.923 62.3066 209.802 62.4068 208.676 62.4022C207.852 62.3931 207.418 62.3612 207.418 62.3612Z" fill="#263238"/>
<path d="M207.344 67.9061C207.312 67.8378 207.285 67.7694 207.267 67.6965C207.203 67.5052 207.152 67.3093 207.111 67.1133C206.841 65.8011 206.937 64.4343 207.39 63.1722C207.459 62.9808 207.537 62.7986 207.624 62.6163C207.651 62.548 207.688 62.4796 207.733 62.4204C207.733 62.4204 207.61 62.7166 207.454 63.195C207.248 63.8237 207.12 64.4707 207.07 65.1314C207.029 65.7875 207.065 66.4481 207.18 67.0997C207.267 67.6009 207.363 67.9016 207.344 67.9061Z" fill="#FAFAFA"/>
<path d="M211.307 65.2227C211.344 65.3457 211.367 65.4778 211.381 65.6054C211.417 65.8423 211.486 66.1658 211.577 66.5166C211.765 67.2229 211.948 67.7924 211.921 67.8015C211.857 67.6876 211.806 67.5691 211.77 67.4416C211.687 67.2137 211.577 66.8994 211.486 66.5303C211.403 66.2296 211.344 65.9289 211.312 65.6191C211.289 65.4869 211.289 65.3548 211.312 65.2227H211.307Z" fill="#FAFAFA"/>
<path d="M210.754 63.678C210.786 63.924 210.799 64.1746 210.804 64.4206C210.836 64.8262 210.905 65.1496 210.877 65.1588C210.699 64.6849 210.657 64.1746 210.754 63.678Z" fill="#FAFAFA"/>
<path d="M211.724 62.0879C211.751 62.0879 211.628 62.3932 211.559 62.7713C211.49 63.1495 211.495 63.4684 211.467 63.4684C211.408 63.2315 211.408 62.99 211.467 62.7531C211.495 62.5116 211.582 62.2838 211.724 62.0879Z" fill="#FAFAFA"/>
<path d="M214.872 62.9719C214.593 62.6575 214.488 62.2292 214.593 61.8237C214.625 61.8237 214.593 62.0971 214.68 62.4115C214.767 62.7259 214.909 62.9582 214.872 62.9719Z" fill="#FAFAFA"/>
<path d="M217.343 65.5324C217.242 65.423 217.156 65.3046 217.082 65.1725C216.89 64.8717 216.721 64.5528 216.584 64.2202C216.442 63.8921 216.327 63.5504 216.236 63.2042C216.19 63.0538 216.167 62.9034 216.158 62.7485C216.217 62.8852 216.263 63.0265 216.3 63.1677C216.382 63.4274 216.506 63.7828 216.67 64.1655C216.835 64.5483 217.005 64.8809 217.128 65.1223C217.215 65.2499 217.288 65.3866 217.343 65.5324Z" fill="#FAFAFA"/>
<path d="M218.029 62.2245C218.029 62.2473 217.965 62.3247 217.888 62.4295C217.81 62.5343 217.764 62.63 217.737 62.6209C217.709 62.6118 217.737 62.4933 217.81 62.3703C217.883 62.2473 218.016 62.1926 218.029 62.2245Z" fill="#FAFAFA"/>
<path d="M221.649 65.6189C221.603 65.5825 221.558 65.546 221.517 65.505C220.922 64.9811 220.176 64.6621 219.389 64.5938C218.478 64.4935 217.558 64.5938 216.689 64.8854C215.632 65.2544 214.593 65.6782 213.582 66.1611C212.575 66.6395 211.49 66.9494 210.378 67.0724C209.454 67.1544 208.525 67.0724 207.633 66.8355C207.033 66.6805 206.457 66.4527 205.912 66.1566C205.72 66.0518 205.578 65.9607 205.482 65.8969L205.336 65.8012L205.487 65.8923C205.583 65.9515 205.729 66.0381 205.921 66.1384C207.281 66.8628 208.823 67.1772 210.36 67.0496C211.472 66.9266 212.552 66.6168 213.563 66.1384C214.575 65.6554 215.613 65.2271 216.675 64.8626C217.549 64.571 218.478 64.4708 219.393 64.5756C220.011 64.653 220.601 64.8717 221.128 65.2043C221.315 65.3228 221.494 65.4595 221.649 65.6189Z" fill="#FAFAFA"/>
<path d="M214.016 63.4729C214.016 63.4729 213.902 63.5276 213.692 63.6141C213.481 63.7007 213.179 63.8192 212.776 63.9513C211.774 64.2976 210.717 64.4707 209.655 64.4662C208.594 64.4343 207.546 64.2611 206.535 63.9422C205.757 63.7189 205.281 63.5504 205.281 63.5504L205.624 63.646L206.539 63.9103C207.55 64.2156 208.594 64.3887 209.651 64.4206C210.708 64.4206 211.76 64.2566 212.763 63.9194C213.147 63.7918 213.454 63.6825 213.678 63.5959L214.016 63.4729Z" fill="#FAFAFA"/>
<path d="M218.661 62.9901L218.547 62.9172C218.441 62.8443 218.336 62.7805 218.222 62.7258C217.81 62.5071 217.371 62.3522 216.913 62.2702C216.24 62.1472 215.554 62.1244 214.872 62.1927C214.099 62.2656 213.261 62.4388 212.378 62.6028C210.873 62.9035 209.326 62.9445 207.802 62.7304C206.631 62.5663 205.926 62.3887 205.926 62.3887L206.429 62.4798C206.75 62.539 207.221 62.621 207.802 62.6939C209.326 62.9035 210.873 62.858 212.378 62.5572C213.261 62.3932 214.103 62.2201 214.881 62.1472C215.568 62.0697 216.263 62.0971 216.945 62.2246C217.403 62.3066 217.846 62.457 218.254 62.6803C218.396 62.7714 218.533 62.8762 218.661 62.9901Z" fill="#FAFAFA"/>
<path d="M221.544 65.3821C221.178 64.8809 220.757 64.4207 220.286 64.0152C219.764 63.5915 219.164 63.2725 218.524 63.0766C217.737 62.8352 216.904 62.785 216.094 62.9217C215.279 63.0812 214.506 63.391 213.806 63.833C213.147 64.2157 212.552 64.5893 212.017 64.8399C211.6 65.054 211.156 65.2089 210.694 65.2955C210.571 65.3183 210.447 65.332 210.319 65.332H210.186C210.799 65.209 211.39 65.0039 211.943 64.7169C212.456 64.4526 213.033 64.0699 213.696 63.6735C214.41 63.2088 215.206 62.8807 216.044 62.7167C217.599 62.4433 219.192 62.8807 220.386 63.9104C220.739 64.2157 221.045 64.5711 221.301 64.9584C221.402 65.0859 221.485 65.2317 221.544 65.3821Z" fill="#263238"/>
<path d="M215.188 63.0583C214.305 63.4365 213.357 63.6461 212.396 63.678C211.44 63.7873 210.474 63.7144 209.546 63.4593C209.546 63.391 210.822 63.555 212.378 63.4593C213.934 63.3636 215.169 62.99 215.188 63.0583Z" fill="#263238"/>
<path d="M212.923 61.6596L212.41 61.4409C212.067 61.2997 211.568 61.0946 210.914 60.8577C209.07 60.1652 207.125 59.7642 205.157 59.6685C203.798 59.623 202.444 59.7961 201.144 60.1879C199.643 60.6299 198.27 61.4272 197.149 62.5162C195.959 63.6507 194.962 65.0859 193.594 66.2568C192.903 66.8583 192.079 67.2957 191.187 67.528C190.258 67.7285 189.292 67.6693 188.395 67.364C187.498 67.0633 186.67 66.5986 185.942 65.9971C185.242 65.4094 184.611 64.7442 184.062 64.0152C182.963 62.5982 182.089 61.1037 181.087 59.7961C180.163 58.5431 179.101 57.3995 177.921 56.3835C176.891 55.4996 175.724 54.7797 174.47 54.2557C172.649 53.4811 170.631 53.2807 168.691 53.6816C168.169 53.8001 167.661 53.9687 167.172 54.1874L166.668 54.438L167.167 54.1782C167.652 53.955 168.165 53.7819 168.686 53.6634C170.631 53.2579 172.654 53.4538 174.484 54.2238C175.742 54.7478 176.914 55.4677 177.944 56.3561C179.138 57.3676 180.213 58.5158 181.147 59.7733C182.149 61.0764 183.023 62.5754 184.121 63.9878C184.67 64.7123 185.297 65.3729 185.993 65.9607C186.716 66.5621 187.544 67.0268 188.436 67.3276C189.32 67.6283 190.267 67.6829 191.182 67.4916C192.065 67.2592 192.88 66.8264 193.566 66.2295C194.939 65.0677 195.927 63.6324 197.126 62.4934C198.252 61.3999 199.629 60.598 201.135 60.1606C202.444 59.7688 203.807 59.5956 205.171 59.6457C207.139 59.7369 209.074 60.1378 210.918 60.8258C212.227 61.3224 212.923 61.6596 212.923 61.6596Z" fill="#FAFAFA"/>
<path d="M190.468 62.99C190.226 63.0128 189.983 63.0037 189.745 62.9627C189.086 62.8533 188.464 62.5982 187.915 62.2155C187.118 61.6414 186.437 60.9306 185.887 60.1196C185.229 59.1263 184.519 58.1695 183.764 57.2492C182.336 55.6135 180.625 54.2557 178.703 53.2397C178.122 52.9344 177.523 52.661 176.909 52.4195L176.25 52.1689C176.25 52.1689 176.497 52.2464 176.937 52.4059C177.55 52.6428 178.149 52.9116 178.735 53.2169C180.666 54.2238 182.391 55.5816 183.819 57.2218C184.579 58.1422 185.283 59.1035 185.942 60.0968C186.482 60.9078 187.164 61.614 187.951 62.1927C188.487 62.5708 189.104 62.8306 189.75 62.949C189.924 62.9764 190.102 62.99 190.28 62.9946H190.468V62.99Z" fill="#FAFAFA"/>
<path d="M211.536 59.1401C211.486 59.1173 211.44 59.09 211.394 59.0626C211.307 59.0125 211.175 58.9305 211.001 58.8394C210.511 58.566 210.008 58.3291 209.486 58.1195C206.013 56.7116 202.11 56.8346 198.732 58.4521C198.229 58.6936 197.739 58.9624 197.268 59.2631C197.099 59.3679 196.975 59.459 196.884 59.5137L196.751 59.6003C196.751 59.6003 196.925 59.4681 197.254 59.2494C197.726 58.9442 198.215 58.6662 198.719 58.4248C202.1 56.78 206.022 56.6569 209.5 58.0876C210.021 58.2972 210.525 58.5432 211.01 58.8212C211.353 59.0034 211.536 59.1401 211.536 59.1401Z" fill="#FAFAFA"/>
<path d="M202.233 61.172C202.233 61.172 202.21 61.1083 202.178 60.9898C202.146 60.8713 202.091 60.7073 202.027 60.5023C201.849 59.9692 201.634 59.4498 201.382 58.944C201.13 58.4428 200.837 57.9553 200.517 57.4952C200.393 57.3175 200.293 57.1762 200.22 57.0805C200.146 56.9849 200.11 56.9302 200.11 56.9302C200.265 57.1033 200.412 57.2856 200.544 57.4769C201.208 58.3973 201.721 59.4133 202.059 60.4932C202.132 60.7164 202.187 60.9442 202.233 61.172Z" fill="#FAFAFA"/>
<path d="M207.093 56.9395C207.093 56.9395 207.12 57.19 207.129 57.6047C207.129 58.1377 207.097 58.6754 207.02 59.2039C206.942 59.7324 206.827 60.2564 206.672 60.7713C206.548 61.1631 206.448 61.3955 206.448 61.3955C206.448 61.3955 206.448 61.3362 206.498 61.2269C206.548 61.1175 206.594 60.9125 206.64 60.7713C206.782 60.2564 206.896 59.7324 206.974 59.2039C207.047 58.6754 207.088 58.1469 207.093 57.6138V56.9395Z" fill="#FAFAFA"/>
<path d="M196.568 64.6667C196.385 64.5619 196.207 64.4526 196.033 64.3295C195.616 64.0334 195.227 63.7053 194.866 63.3454C194.5 62.99 194.166 62.6027 193.868 62.1927C193.745 62.0195 193.635 61.8418 193.53 61.655C193.53 61.655 193.571 61.7051 193.63 61.7963C193.69 61.8874 193.781 62.015 193.896 62.1744C194.193 62.5845 194.523 62.9672 194.879 63.3272C195.236 63.6871 195.625 64.0197 196.033 64.3204L196.412 64.5847L196.568 64.6667Z" fill="#FAFAFA"/>
<path d="M189.489 63.2497C189.443 63.0994 189.406 62.949 189.379 62.7941C189.315 62.4068 189.297 62.015 189.319 61.6232C189.342 61.2313 189.411 60.844 189.521 60.4659C189.567 60.311 189.622 60.1561 189.69 60.0103C189.681 60.0513 189.667 60.0968 189.654 60.1378C189.626 60.2153 189.594 60.3292 189.553 60.475C189.452 60.8532 189.388 61.2404 189.365 61.6277C189.342 62.015 189.356 62.4068 189.411 62.7896C189.434 62.9399 189.452 63.0584 189.47 63.1404C189.48 63.1768 189.484 63.2133 189.489 63.2497Z" fill="#FAFAFA"/>
<path d="M189.466 69.1546C189.338 68.9131 189.228 68.6671 189.127 68.4165C188.885 67.806 188.697 67.1772 188.565 66.5348C188.436 65.8923 188.363 65.2408 188.354 64.5847C188.354 64.3159 188.359 64.0425 188.381 63.7737V64.6075C188.404 65.259 188.482 65.9106 188.61 66.5484C188.738 67.1863 188.921 67.8151 189.155 68.4256C189.246 68.658 189.324 68.8448 189.379 68.9724L189.466 69.1546Z" fill="#FAFAFA"/>
<path d="M194.843 59.6641C194.866 59.7825 194.893 59.901 194.925 60.0194C194.998 60.2063 195.108 60.3338 195.094 60.3429C194.994 60.2609 194.921 60.1561 194.884 60.0331C194.834 59.9192 194.82 59.7871 194.843 59.6641Z" fill="#FAFAFA"/>
<path d="M185.91 57.96L185.613 58.124C185.421 58.2242 185.155 58.3791 184.812 58.5796C183.069 59.6321 181.54 61.0035 180.305 62.621C180.071 62.9308 179.888 63.1905 179.769 63.3682C179.65 63.5459 179.573 63.6462 179.573 63.6462C179.792 63.2862 180.026 62.9399 180.282 62.6028C181.499 60.9671 183.032 59.5911 184.794 58.5523C185.155 58.3336 185.526 58.1377 185.91 57.96Z" fill="#FAFAFA"/>
<path d="M180.405 53.3901L180.122 53.4585C179.934 53.4995 179.664 53.5678 179.344 53.6544C178.493 53.8913 177.664 54.1966 176.864 54.5656C176.067 54.9347 175.303 55.363 174.576 55.8551C174.296 56.0464 174.072 56.2059 173.921 56.3107L173.683 56.4793C173.683 56.4793 173.999 56.2059 174.557 55.8186C175.28 55.3174 176.044 54.88 176.845 54.511C177.651 54.1374 178.483 53.8321 179.339 53.5997C179.989 53.4539 180.405 53.3901 180.405 53.3901Z" fill="#FAFAFA"/>
<path d="M217.75 61.4182C217.75 61.5139 217.732 61.6096 217.705 61.7007C217.691 61.7964 217.659 61.8875 217.613 61.9695C217.613 61.8738 217.627 61.7782 217.659 61.687C217.673 61.5913 217.705 61.5002 217.75 61.4182Z" fill="#FAFAFA"/>
<path d="M238.53 61.2131C238.53 61.2131 240.599 61.6414 241.477 61.8328C241.765 61.8966 242.058 61.8328 242.347 61.9011C243.614 62.1062 244.909 62.0834 246.168 61.8328C247.042 61.5138 247.083 62.6256 246.135 63.104C245.66 63.3682 245.147 63.5459 244.612 63.6371L246.9 65.4595C247.019 65.5552 247.096 65.6874 247.119 65.8377L247.7 69.8472C247.774 70.1889 247.577 70.5306 247.243 70.64C247.078 70.722 246.872 70.6582 246.79 70.4896C246.79 70.4896 246.79 70.4896 246.79 70.4851L246.854 71.0227C246.918 71.41 246.662 71.7745 246.273 71.8383C245.888 71.9021 245.518 71.6469 245.454 71.2596C245.454 71.246 245.454 71.2369 245.454 71.2232L244.653 71.6788C244.653 71.6788 244.122 72.2256 243.55 71.4647C243.092 70.8359 241.66 68.3391 241.66 68.3391C241.66 68.3391 235.629 65.8104 235.711 64.7989L238.535 61.2131H238.53Z" fill="#FFBE9D"/>
<path d="M245.467 71.255C245.385 70.9361 245.33 70.6126 245.303 70.2845C245.211 69.6922 245.037 68.8584 244.918 67.9472C244.836 67.4916 244.731 67.0587 244.63 66.6988C244.571 66.5393 244.456 66.4072 244.305 66.3252L243.884 66.0609C243.596 65.9014 243.326 65.7101 243.079 65.4868C243.404 65.5871 243.71 65.7329 243.994 65.9151L244.429 66.1566C244.621 66.2523 244.772 66.4163 244.859 66.6122C244.992 67.0359 245.097 67.4642 245.175 67.9016C245.298 68.8129 245.44 69.6467 245.495 70.2572C245.536 70.5898 245.527 70.927 245.467 71.255Z" fill="#EB996E"/>
<path d="M246.804 70.4804C246.708 70.4804 246.557 69.0407 246.186 67.2911C246.14 66.8901 246.012 66.5074 245.801 66.1611C245.573 65.9151 245.326 65.6827 245.06 65.4686C244.886 65.3228 244.699 65.1907 244.502 65.0767C244.36 64.9993 244.273 64.9811 244.273 64.9628C244.273 64.9446 244.374 64.9355 244.538 64.9902C244.763 65.0767 244.969 65.1952 245.161 65.3364C245.449 65.5369 245.719 65.7647 245.962 66.0153C246.213 66.3798 246.369 66.799 246.419 67.241C246.584 67.9927 246.698 68.7536 246.762 69.5191C246.808 69.838 246.822 70.1615 246.804 70.4804Z" fill="#EB996E"/>
<path d="M241.871 66.6851C242.15 66.7671 242.415 66.8946 242.658 67.0541L243.042 67.2637C243.216 67.3366 243.372 67.446 243.5 67.5826C243.623 67.7376 243.71 67.9198 243.756 68.1112C243.811 68.298 243.87 68.4893 243.934 68.6807C244.264 69.6147 244.516 70.5715 244.689 71.542C244.287 70.6399 243.957 69.7104 243.706 68.7581L243.536 68.1886C243.5 68.0246 243.431 67.8697 243.33 67.733C243.23 67.6145 243.102 67.5188 242.964 67.4505L242.598 67.2136C242.333 67.0723 242.086 66.8946 241.871 66.6851Z" fill="#EB996E"/>
<path d="M242.031 62.3521C242.058 62.261 242.914 62.5936 243.861 63.1449C244.808 63.6962 245.522 64.2703 245.472 64.3295C245.422 64.3888 244.699 63.8739 243.742 63.3499L242.53 62.6483C242.351 62.5663 242.186 62.4706 242.031 62.3521Z" fill="#EB996E"/>
</g>
<defs>
<clipPath id="clip0_46_550">
<rect width="300" height="144" fill="white"/>
</clipPath>
</defs>
</svg>
