<svg width="300" height="199" viewBox="0 0 300 199" fill="none" xmlns="http://www.w3.org/2000/svg">
<g clip-path="url(#clip0_46_174)">
<path d="M300 198.88C300 198.945 232.84 199 150.009 199C67.178 199 0 198.926 0 198.88C0 198.834 67.1458 198.76 150.009 198.76C232.873 198.76 300 198.811 300 198.88Z" fill="#263238"/>
<path d="M167.505 106.318H112.055V198.838H167.505V106.318Z" fill="#455A64"/>
<g opacity="0.3">
<path d="M167.505 106.318H112.055V198.838H167.505V106.318Z" fill="black"/>
</g>
<path d="M179.012 106.318H123.563V198.838H179.012V106.318Z" fill="#455A64"/>
<path d="M123.392 151.683C123.434 151.739 120.955 153.736 117.864 156.144C114.773 158.552 112.226 160.467 112.184 160.416C112.143 160.365 114.621 158.368 117.712 155.955C120.803 153.542 123.351 151.633 123.392 151.683Z" fill="#455A64"/>
<path d="M123.392 146.471C123.434 146.521 120.955 148.519 117.864 150.927C114.773 153.335 112.226 155.254 112.184 155.199C112.143 155.143 114.621 153.15 117.712 150.738C120.803 148.325 123.351 146.415 123.392 146.471Z" fill="#455A64"/>
<path d="M123.392 141.262C123.434 141.313 120.955 143.311 117.864 145.723C114.773 148.136 112.226 150.027 112.18 149.986C112.134 149.944 114.617 147.938 117.708 145.525C120.799 143.112 123.351 141.202 123.392 141.262Z" fill="#455A64"/>
<path d="M123.392 136.036C123.434 136.091 120.955 138.088 117.864 140.497C114.773 142.905 112.226 144.819 112.18 144.768C112.134 144.718 114.617 142.72 117.708 140.307C120.799 137.895 123.351 135.985 123.392 136.036Z" fill="#455A64"/>
<path d="M123.392 130.823C123.434 130.874 120.955 132.871 117.864 135.284C114.773 137.696 112.226 139.606 112.184 139.551C112.143 139.496 114.621 137.503 117.712 135.09C120.803 132.677 123.351 130.768 123.392 130.823Z" fill="#455A64"/>
<path d="M123.392 125.606C123.434 125.656 120.955 127.654 117.864 130.066C114.773 132.479 112.226 134.389 112.18 134.343C112.134 134.297 114.617 132.295 117.708 129.882C120.799 127.469 123.351 125.578 123.392 125.606Z" fill="#455A64"/>
<path d="M123.392 120.388C123.434 120.444 120.955 122.441 117.864 124.849C114.773 127.257 112.226 129.172 112.184 129.121C112.143 129.07 114.621 127.073 117.712 124.66C120.803 122.247 123.351 120.337 123.392 120.388Z" fill="#455A64"/>
<path d="M123.392 115.175C123.434 115.226 120.955 117.223 117.864 119.636C114.773 122.049 112.226 123.959 112.184 123.903C112.143 123.848 114.621 121.855 117.712 119.442C120.803 117.03 123.351 115.12 123.392 115.175Z" fill="#455A64"/>
<path d="M123.392 109.958C123.434 110.009 120.955 112.006 117.864 114.419C114.773 116.831 112.226 118.741 112.184 118.69C112.143 118.64 114.621 116.642 117.712 114.23C120.803 111.817 123.351 109.893 123.392 109.958Z" fill="#455A64"/>
<path d="M121.117 106.512C121.158 106.567 119.191 108.168 116.722 110.087C114.253 112.006 112.221 113.529 112.18 113.473C112.138 113.418 114.105 111.822 116.575 109.898C119.044 107.974 121.075 106.461 121.117 106.512Z" fill="#455A64"/>
<path d="M114.529 106.415C114.216 106.812 113.843 107.153 113.424 107.43C113.05 107.771 112.627 108.053 112.166 108.256C112.852 107.518 113.649 106.895 114.529 106.41V106.415Z" fill="#455A64"/>
<path d="M112.152 167.036C112.111 166.98 114.589 164.983 117.68 162.575C120.771 160.167 123.319 158.248 123.355 158.303C123.392 158.359 120.923 160.351 117.828 162.764C114.732 165.177 112.194 167.096 112.152 167.036Z" fill="#455A64"/>
<path d="M112.493 173.633C112.456 173.582 114.93 171.584 118.021 169.172C121.112 166.759 123.659 164.849 123.701 164.9C123.742 164.951 121.264 166.948 118.173 169.361C115.082 171.773 112.535 173.683 112.493 173.633Z" fill="#455A64"/>
<path d="M112.18 179.689C112.138 179.639 114.617 177.641 117.708 175.229C120.799 172.816 123.346 170.906 123.388 170.957C123.429 171.008 120.951 173.01 117.86 175.418C114.769 177.826 112.226 179.745 112.18 179.689Z" fill="#455A64"/>
<path d="M112.18 184.907C112.138 184.856 114.617 182.859 117.708 180.446C120.799 178.033 123.346 176.124 123.388 176.174C123.429 176.225 120.951 178.223 117.86 180.635C114.769 183.048 112.226 184.958 112.18 184.907Z" fill="#455A64"/>
<path d="M112.18 190.124C112.138 190.069 114.617 188.072 117.708 185.664C120.799 183.255 123.346 181.336 123.388 181.392C123.429 181.447 120.951 183.44 117.86 185.853C114.769 188.265 112.226 190.161 112.18 190.124Z" fill="#455A64"/>
<path d="M112.18 195.337C112.138 195.286 114.617 193.289 117.708 190.876C120.799 188.464 123.346 186.554 123.388 186.605C123.429 186.655 120.951 188.657 117.86 191.065C114.769 193.473 112.226 195.392 112.18 195.337Z" fill="#455A64"/>
<path d="M114.456 198.783C114.414 198.728 116.381 197.127 118.85 195.208C121.319 193.289 123.351 191.771 123.392 191.822C123.434 191.873 121.467 193.474 118.998 195.397C116.529 197.321 114.497 198.834 114.456 198.783Z" fill="#455A64"/>
<path d="M121.029 198.88C121.711 198.142 122.512 197.519 123.392 197.035C123.079 197.431 122.701 197.773 122.282 198.05C121.909 198.386 121.485 198.668 121.029 198.88Z" fill="#455A64"/>
<path d="M244.196 133.397H195.347V198.82H244.196V133.397Z" fill="#455A64"/>
<g opacity="0.3">
<path d="M244.196 133.397H195.347V198.82H244.196V133.397Z" fill="black"/>
</g>
<path d="M253.989 133.397H205.141V198.82H253.989V133.397Z" fill="#455A64"/>
<path d="M205.141 173.296C205.182 173.347 203.017 175.099 200.309 177.212C197.6 179.325 195.37 180.99 195.329 180.94C195.287 180.889 197.453 179.131 200.161 177.023C202.87 174.915 205.099 173.24 205.141 173.296Z" fill="#455A64"/>
<path d="M205.141 168.729C205.182 168.779 203.017 170.537 200.309 172.645C197.6 174.753 195.37 176.423 195.329 176.373C195.287 176.322 197.453 174.564 200.161 172.456C202.87 170.348 205.099 168.678 205.141 168.729Z" fill="#455A64"/>
<path d="M205.141 164.162C205.182 164.217 203.017 165.97 200.309 168.078C197.6 170.186 195.37 171.861 195.329 171.806C195.287 171.75 197.453 170.002 200.161 167.889C202.87 165.776 205.099 164.111 205.141 164.162Z" fill="#455A64"/>
<path d="M205.141 159.599C205.182 159.65 203.017 161.403 200.309 163.516C197.6 165.629 195.37 167.294 195.329 167.243C195.287 167.193 197.453 165.435 200.161 163.327C202.87 161.219 205.099 159.544 205.141 159.599Z" fill="#455A64"/>
<path d="M205.141 155.032C205.182 155.083 203.017 156.841 200.309 158.949C197.6 161.057 195.37 162.727 195.329 162.676C195.287 162.626 197.453 160.873 200.161 158.76C202.87 156.647 205.099 154.982 205.141 155.032Z" fill="#455A64"/>
<path d="M205.141 150.489C205.182 150.544 203.017 152.297 200.309 154.405C197.6 156.513 195.37 158.188 195.329 158.133C195.287 158.077 197.453 156.329 200.161 154.216C202.87 152.103 205.099 150.415 205.141 150.489Z" fill="#455A64"/>
<path d="M205.141 145.903C205.182 145.954 203.017 147.707 200.309 149.82C197.6 151.933 195.37 153.598 195.329 153.547C195.287 153.496 197.453 151.739 200.161 149.631C202.87 147.522 205.099 145.848 205.141 145.903Z" fill="#455A64"/>
<path d="M205.141 141.336C205.182 141.391 203.017 143.144 200.309 145.253C197.6 147.361 195.37 149.031 195.329 148.98C195.287 148.929 197.453 147.176 200.161 145.063C202.87 142.951 205.099 141.285 205.141 141.336Z" fill="#455A64"/>
<path d="M205.141 136.774C205.182 136.825 203.017 138.578 200.309 140.686C197.6 142.794 195.37 144.468 195.329 144.413C195.287 144.358 197.453 142.609 200.161 140.497C202.87 138.384 205.099 136.718 205.141 136.774Z" fill="#455A64"/>
<path d="M203.151 133.757C203.192 133.808 201.474 135.215 199.314 136.898C197.153 138.582 195.37 139.901 195.329 139.851C195.287 139.8 197.006 138.393 199.166 136.709C201.327 135.025 203.109 133.706 203.151 133.757Z" fill="#455A64"/>
<path d="M197.397 133.674C197.439 133.725 197.01 134.135 196.439 134.573C196.112 134.869 195.734 135.099 195.329 135.265C195.287 135.215 195.72 134.804 196.292 134.343C196.614 134.052 196.992 133.826 197.397 133.674Z" fill="#455A64"/>
<path d="M205.141 191.236C205.182 191.287 203.017 193.04 200.309 195.153C197.6 197.265 195.37 198.926 195.329 198.88C195.287 198.834 197.453 197.072 200.161 194.963C202.87 192.855 205.099 191.185 205.141 191.236Z" fill="#455A64"/>
<path d="M205.141 186.669C205.182 186.724 203.017 188.477 200.309 190.586C197.6 192.694 195.37 194.364 195.329 194.313C195.287 194.262 197.453 192.509 200.161 190.396C202.87 188.284 205.099 186.618 205.141 186.669Z" fill="#455A64"/>
<path d="M205.141 182.107C205.182 182.158 203.017 183.911 200.309 186.023C197.6 188.136 195.37 189.801 195.329 189.746C195.287 189.691 197.453 187.942 200.161 185.83C202.87 183.717 205.099 182.051 205.141 182.107Z" fill="#455A64"/>
<path d="M205.141 177.54C205.182 177.59 203.017 179.343 200.309 181.456C197.6 183.569 195.37 185.234 195.329 185.184C195.287 185.133 197.453 183.375 200.161 181.267C202.87 179.159 205.099 177.489 205.141 177.54Z" fill="#455A64"/>
<path d="M90.7177 154.331H38.3453V198.88H90.7177V154.331Z" fill="#455A64"/>
<g opacity="0.3">
<path d="M90.7177 154.331H38.3453V198.88H90.7177V154.331Z" fill="black"/>
</g>
<path d="M100.143 154.331H47.7704V198.88H100.143V154.331Z" fill="#455A64"/>
<path d="M47.5954 191.674C47.6322 191.73 45.5961 193.381 43.0441 195.365C40.492 197.348 38.3868 198.921 38.3453 198.871C38.3039 198.82 40.34 197.164 42.8967 195.18C45.4533 193.197 47.5539 191.624 47.5954 191.674Z" fill="#455A64"/>
<path d="M47.5954 187.393C47.6322 187.449 45.5961 189.105 43.0441 191.084C40.492 193.063 38.3868 194.641 38.3453 194.59C38.3039 194.539 40.34 192.883 42.8967 190.899C45.4533 188.916 47.5539 187.32 47.5954 187.393Z" fill="#455A64"/>
<path d="M47.5954 183.071C47.6322 183.122 45.5961 184.778 43.0441 186.761C40.492 188.745 38.3868 190.323 38.3453 190.267C38.3039 190.212 40.34 188.561 42.8967 186.577C45.4533 184.593 47.5539 183.016 47.5954 183.071Z" fill="#455A64"/>
<path d="M47.5954 178.767C47.6322 178.818 45.5961 180.474 43.0441 182.457C40.492 184.441 38.3868 186.019 38.3453 185.968C38.3039 185.917 40.34 184.256 42.8967 182.277C45.4533 180.298 47.5539 178.716 47.5954 178.767Z" fill="#455A64"/>
<path d="M47.5954 174.477C47.6322 174.532 45.5961 176.184 43.0441 178.167C40.492 180.151 38.3868 181.724 38.3453 181.673C38.3039 181.622 40.34 179.966 42.8967 177.983C45.4533 175.999 47.5539 174.412 47.5954 174.477Z" fill="#455A64"/>
<path d="M47.5954 170.164C47.6322 170.214 45.5961 171.87 43.0441 173.854C40.492 175.838 38.3868 177.411 38.3453 177.36C38.3039 177.309 40.34 175.653 42.8967 173.669C45.4533 171.686 47.5539 170.108 47.5954 170.164Z" fill="#455A64"/>
<path d="M47.5954 165.859C47.6322 165.91 45.5961 167.566 43.0441 169.55C40.492 171.533 38.3868 173.111 38.3453 173.056C38.3039 173 40.34 171.349 42.8967 169.365C45.4533 167.382 47.5539 165.804 47.5954 165.859Z" fill="#455A64"/>
<path d="M47.5954 161.56C47.6322 161.611 45.5961 163.267 43.0441 165.25C40.492 167.234 38.3868 168.812 38.3453 168.761C38.3039 168.71 40.34 167.054 42.8967 165.071C45.4533 163.087 47.5539 161.505 47.5954 161.56Z" fill="#455A64"/>
<path d="M47.5954 157.251C47.6322 157.307 45.5961 158.958 43.0441 160.942C40.492 162.926 38.3868 164.499 38.3453 164.448C38.3039 164.397 40.34 162.741 42.8967 160.757C45.4533 158.774 47.5539 157.201 47.5954 157.251Z" fill="#455A64"/>
<path d="M45.7159 154.41C44.5642 155.461 43.3619 156.453 42.1043 157.376C40.8974 158.363 39.6444 159.286 38.3453 160.144C39.497 159.092 40.7039 158.105 41.9569 157.178C43.993 155.604 45.6744 154.359 45.7159 154.41Z" fill="#455A64"/>
<path d="M40.2939 154.331C40.3354 154.382 39.9346 154.765 39.3956 155.185C39.0916 155.471 38.7369 155.697 38.3453 155.849C38.3039 155.798 38.7092 155.415 39.2666 154.996C39.5661 154.714 39.9116 154.488 40.2939 154.331Z" fill="#455A64"/>
<g opacity="0.3">
<path d="M170.034 102.397C169.596 102.259 169.131 102.236 168.684 102.323C154.607 103.887 139.013 104.948 124.922 106.512V106.664C133.96 109.266 143.371 110.359 152.764 109.893C153.644 109.852 154.648 109.843 155.247 110.493C155.846 111.143 155.708 112.311 155.509 113.261C153.529 121.887 151.548 130.514 149.572 139.136C149.263 140.492 149.046 142.157 150.106 143.052C151.571 144.293 153.727 142.822 154.961 141.355C163.345 131.395 167.15 118.469 170.739 105.949C171.117 104.681 171.269 102.904 170.034 102.397Z" fill="black"/>
</g>
<path d="M188 98.1899C186.53 96.9305 184.623 96.3031 182.693 96.4369L179.468 106.766C181.845 106.867 184.218 108.099 186.512 107.467C188.391 106.89 189.76 105.266 190.013 103.315C190.211 101.382 189.46 99.4723 188 98.1899Z" fill="#B2C136"/>
<path d="M182.753 96.1972C182.753 96.1142 183.103 96.0496 183.734 96.0542C184.642 96.068 185.54 96.2387 186.392 96.557C187.687 97.0645 188.806 97.9363 189.617 99.0712C190.114 99.7447 190.478 100.501 190.695 101.309C190.93 102.194 190.957 103.121 190.773 104.016C190.593 104.925 190.188 105.774 189.594 106.484C189.032 107.139 188.308 107.638 187.502 107.938C186.194 108.403 184.78 108.496 183.421 108.2C182.55 108.025 181.698 107.762 180.878 107.412C180.302 107.163 180.003 106.983 180.03 106.9C180.058 106.817 180.404 106.84 181.012 106.941C181.62 107.043 182.486 107.227 183.545 107.324C184.738 107.467 185.95 107.31 187.069 106.863C187.682 106.604 188.226 106.203 188.654 105.691C189.105 105.133 189.414 104.468 189.548 103.763C189.815 102.365 189.506 100.916 188.695 99.7447C188.032 98.739 187.12 97.9271 186.051 97.3781C185.291 97.0183 184.499 96.7415 183.683 96.5524C183.08 96.3863 182.744 96.2848 182.753 96.1972Z" fill="#E0E0E0"/>
<path d="M153.367 134.167L146.831 152.509L169.583 160.776C170.237 158.548 160.047 149.907 160.047 149.907L164.741 138.324L153.367 134.167Z" fill="#B2C136"/>
<g opacity="0.6">
<path d="M153.372 146.364C152.87 146.337 152.428 146.692 152.345 147.19C152.299 147.693 152.658 148.145 153.156 148.219C153.69 148.247 154.16 147.864 154.238 147.333C154.238 146.849 153.777 146.291 153.275 146.36" fill="white"/>
</g>
<path d="M146.831 152.509L147.489 150.664L169.099 159.295C169.099 159.295 169.956 160.107 169.583 160.781L146.831 152.509Z" fill="#F5F5F5"/>
<path d="M160.457 149.926C160.416 150.032 159.84 149.884 159.167 150.041C158.495 150.198 158.029 150.562 157.942 150.502C157.854 150.442 158.255 149.843 159.075 149.663C159.895 149.483 160.522 149.829 160.457 149.926Z" fill="#263238"/>
<path d="M162.489 151.78C162.489 151.896 161.922 151.91 161.378 152.242C160.835 152.574 160.54 153.035 160.429 152.989C160.319 152.943 160.48 152.292 161.166 151.886C161.853 151.48 162.525 151.67 162.489 151.78Z" fill="#263238"/>
<path d="M162.806 155.13C162.696 155.13 162.742 154.507 163.267 153.999C163.792 153.492 164.382 153.441 164.396 153.538C164.409 153.635 163.967 153.856 163.562 154.276C163.156 154.696 162.922 155.162 162.806 155.13Z" fill="#263238"/>
<path d="M161.231 147.167C161.148 147.25 160.692 146.914 160.052 146.706C159.411 146.498 158.845 146.544 158.822 146.425C158.799 146.305 159.411 146.083 160.167 146.314C160.922 146.544 161.318 147.098 161.231 147.167Z" fill="#263238"/>
<path d="M161.669 144.266C161.259 144.229 160.867 144.086 160.531 143.846C160.148 143.624 159.794 143.352 159.471 143.048C159.282 142.863 159.103 142.67 158.941 142.462C158.84 142.342 158.757 142.213 158.697 142.07C158.605 141.853 158.67 141.599 158.859 141.456C159.029 141.341 159.245 141.313 159.439 141.378C159.582 141.433 159.72 141.507 159.844 141.595C160.065 141.742 160.273 141.908 160.466 142.093C160.789 142.407 161.056 142.771 161.268 143.168C161.498 143.514 161.613 143.92 161.599 144.335C161.535 144.335 161.406 143.915 161.014 143.315C160.789 142.974 160.517 142.665 160.208 142.393C160.024 142.222 159.83 142.07 159.623 141.931C159.407 141.784 159.204 141.705 159.103 141.793C159.001 141.881 159.057 141.839 159.08 141.927C159.13 142.028 159.19 142.13 159.264 142.217C159.407 142.416 159.559 142.6 159.725 142.78C160.015 143.085 160.333 143.357 160.674 143.601C161.019 143.8 161.351 144.021 161.669 144.266Z" fill="#263238"/>
<path d="M161.466 144.372C161.369 143.97 161.401 143.546 161.563 143.163C161.696 142.734 161.903 142.328 162.171 141.968C162.332 141.756 162.516 141.562 162.714 141.382C162.949 141.129 163.295 141.009 163.636 141.069C163.838 141.152 163.981 141.341 163.995 141.562C164.004 141.715 163.995 141.871 163.963 142.024C163.907 142.291 163.815 142.549 163.682 142.789C163.465 143.195 163.147 143.541 162.76 143.79C162.102 144.219 161.59 144.187 161.595 144.146C161.936 143.97 162.272 143.772 162.59 143.555C162.903 143.306 163.156 142.992 163.336 142.633C163.442 142.425 163.516 142.199 163.557 141.968C163.608 141.715 163.589 141.484 163.488 141.475C163.285 141.475 163.092 141.553 162.954 141.705C162.77 141.862 162.599 142.037 162.447 142.222C162.189 142.54 161.973 142.895 161.816 143.278C161.567 143.92 161.517 144.376 161.466 144.372Z" fill="#263238"/>
<path d="M128.888 82.0349C125.161 82.1226 121.628 82.6485 119.062 85.3517C115.658 88.9407 111.452 94.0567 111.231 97.5995C110.844 102.9 114.069 104.473 116.372 105.769C117.408 106.332 118.578 106.6 119.758 106.549L162.816 106.221L164.17 98.9189L136.318 92.0453L137.475 81.5505L128.888 82.0349Z" fill="#263238"/>
<path d="M137.479 81.5505L151.027 80.9231C151.027 80.9231 174.415 82.2148 179.418 86.8279C184.421 91.441 183.785 96.6169 182.122 101.59C180.459 106.563 165.796 138.559 165.796 138.559C165.796 138.559 166.985 140.594 166.317 142.619C165.773 144.422 164.317 145.811 162.493 146.268L149.47 141.475C149.47 141.475 147.701 140.852 148.95 139.168C150.198 137.484 151.027 137.194 151.027 137.194V133.882C151.027 133.882 155.606 125.55 156.021 124.406C156.435 123.262 160.821 106.304 160.821 106.304L163.737 101.29C163.737 101.29 156.689 97.9731 150.585 95.5697L136.305 92.0499L137.479 81.5505Z" fill="#263238"/>
<path d="M159.453 140.875C159.425 140.907 159.015 140.58 158.31 140.128C156.472 138.933 154.399 138.149 152.23 137.821C151.774 137.775 151.322 137.71 150.875 137.618C151.336 137.563 151.801 137.572 152.257 137.646C153.363 137.766 154.445 138.024 155.482 138.421C156.523 138.813 157.504 139.339 158.407 139.989C158.794 140.238 159.144 140.534 159.453 140.875Z" fill="#455A64"/>
<path d="M165.957 138.587C165.676 138.352 165.423 138.084 165.202 137.789C164.764 137.272 164.179 136.539 163.566 135.708C162.954 134.878 162.429 134.094 162.069 133.522C161.848 133.227 161.669 132.904 161.535 132.562C161.793 132.825 162.019 133.116 162.217 133.425L163.769 135.561L165.34 137.678C165.58 137.955 165.787 138.259 165.957 138.587Z" fill="#455A64"/>
<path d="M170.73 96.7092C170.73 96.7507 170.269 96.8522 169.5 97.106C168.519 97.4335 167.574 97.8763 166.694 98.4207C165.819 98.9743 165.008 99.6293 164.28 100.367C163.723 100.935 163.419 101.327 163.387 101.29C163.589 100.903 163.847 100.547 164.151 100.234C164.852 99.4402 165.662 98.7528 166.561 98.1946C167.459 97.6365 168.426 97.2074 169.444 96.9214C169.859 96.7877 170.292 96.7185 170.73 96.7092Z" fill="#455A64"/>
<path d="M157.412 119.346C157.417 119.249 157.435 119.156 157.463 119.064C157.518 118.857 157.583 118.603 157.665 118.271L158.444 115.36L161.111 105.788C161.65 103.919 162.115 102.139 162.636 100.524C163.189 99.1217 164.023 97.8439 165.087 96.7783C165.791 96.054 166.57 95.4128 167.413 94.8592C167.717 94.6655 167.952 94.5225 168.118 94.4348C168.201 94.3841 168.284 94.338 168.376 94.3057C168.376 94.3057 168.049 94.5271 167.454 94.9377C166.644 95.5189 165.888 96.1786 165.202 96.9028C164.175 97.9592 163.368 99.214 162.839 100.593C162.336 102.18 161.876 103.984 161.337 105.843L158.614 115.429L157.758 118.317C157.656 118.635 157.578 118.894 157.513 119.096C157.49 119.184 157.454 119.267 157.412 119.346Z" fill="#455A64"/>
<path d="M145.43 94.9285C145.361 94.9285 145.076 92.3959 144.795 89.2636C144.514 86.1313 144.334 83.5803 144.408 83.5757C144.481 83.5711 144.762 86.1037 145.043 89.2406C145.324 92.3775 145.499 94.9193 145.43 94.9285Z" fill="#455A64"/>
<path d="M122.886 101.696C122.844 101.696 122.637 101.304 122.213 100.704C121.66 99.9244 120.997 99.2278 120.246 98.6327C119.491 98.0469 118.652 97.5717 117.763 97.2257C117.077 96.9582 116.63 96.8521 116.639 96.8105C117.044 96.829 117.445 96.912 117.823 97.055C119.698 97.6824 121.301 98.9372 122.36 100.607C122.595 100.939 122.77 101.308 122.886 101.696Z" fill="#455A64"/>
<path d="M131.182 92.4883C131.182 92.5298 130.583 92.1607 129.588 91.7087C126.985 90.5231 124.097 90.1079 121.264 90.5093C120.182 90.6661 119.527 90.8599 119.518 90.8137C119.661 90.7307 119.818 90.6753 119.979 90.643C120.393 90.5139 120.822 90.4078 121.25 90.334C124.116 89.8265 127.073 90.2509 129.68 91.5472C130.072 91.741 130.45 91.9578 130.814 92.2023C130.947 92.2807 131.072 92.3776 131.182 92.4883Z" fill="#455A64"/>
<path d="M163.617 98.9143C163.502 98.9004 163.391 98.882 163.281 98.8589L162.323 98.6467L158.812 97.8579C155.85 97.1936 151.751 96.3032 147.204 95.3991C142.657 94.4949 138.53 93.7476 135.535 93.2448L131.988 92.6358L131.025 92.4605C130.915 92.4421 130.804 92.419 130.694 92.3867C130.809 92.3867 130.924 92.3913 131.035 92.4144L132.002 92.539C132.845 92.6543 134.061 92.8342 135.563 93.0695C138.566 93.5308 142.703 94.255 147.255 95.1546C151.806 96.0541 155.901 96.9768 158.854 97.6872C160.333 98.0424 161.526 98.3376 162.346 98.5544L163.295 98.8082C163.405 98.8312 163.516 98.8681 163.617 98.9143Z" fill="#455A64"/>
<path d="M136.323 93.2862C136.148 92.8157 135.95 92.3544 135.729 91.9023C135.457 91.4318 135.125 91.0027 134.743 90.6245C134.268 90.1585 133.762 89.7249 133.237 89.319C132.26 88.5993 131.228 87.9581 130.15 87.3999C129.694 87.1877 129.252 86.934 128.833 86.6526C129.312 86.8048 129.772 87.0032 130.215 87.2431C131.329 87.7597 132.389 88.3871 133.375 89.1206C133.914 89.5312 134.42 89.9786 134.895 90.463C135.282 90.8644 135.614 91.321 135.872 91.8193C136.042 92.1514 136.166 92.5066 136.254 92.8711C136.3 93.0048 136.323 93.1432 136.323 93.2862Z" fill="#455A64"/>
<path d="M184.282 99.8044C184.338 99.8598 183.619 100.589 183.057 101.696C182.495 102.803 182.315 103.809 182.237 103.795C182.32 102.236 183.066 100.782 184.282 99.8044Z" fill="#263238"/>
<path d="M165.63 64.3298C165.418 62.9182 161.208 58.2498 161.208 58.2498C161.208 58.2498 157.546 49.2727 156.915 46.777C156.44 45.2039 155.864 43.6632 155.192 42.1639C153.718 39.6682 152.99 39.6221 150.465 38.2012L145.573 36.0377L144.974 34.7045C144.458 33.5558 143.569 32.6148 142.45 32.0427L130.192 25.7043L126.396 32.4164C126.396 32.4164 119.108 35.8624 118.684 36.4067C117.187 38.3166 118.224 68.9891 118.224 68.9891C118.224 68.9891 117.491 80.9416 116.676 84.2954C115.861 87.6491 115.386 90.1263 115.386 90.1263L119.025 85.9376C121.163 83.2574 125.848 82.0211 129.215 82.0718L157.979 82.1964L156.228 73.6068L180.095 78.6581C180.095 78.6581 184.098 70.8435 184.416 70.6867C184.734 70.5299 165.63 64.3298 165.63 64.3298Z" fill="#B2C136"/>
<path d="M129.57 35.0503C129.367 34.8473 131.873 40.8259 133.49 47.3212C134.513 51.3715 134.729 57.9313 134.729 61.5756L135.346 71.7891V80.7246L149.139 79.802L147.075 64.791C147.075 64.791 145.393 55.1035 144.924 51.413C144.495 48.0408 142.445 34.5244 142.445 34.5244C142.445 34.5244 135.346 40.9412 129.57 35.0503Z" fill="white"/>
<path d="M160.176 69.9947C160.153 69.8793 160.153 69.7594 160.176 69.6441C160.208 69.3304 160.268 69.0213 160.356 68.7214C160.65 67.7112 161.194 66.7886 161.936 66.0412C162.677 65.2985 163.599 64.7542 164.608 64.4589C164.907 64.3667 165.216 64.3067 165.529 64.2744H165.879C165.879 64.2744 165.395 64.3667 164.658 64.625C162.705 65.2847 161.171 66.8208 160.512 68.7768C160.273 69.5103 160.222 69.9993 160.176 69.9947Z" fill="#263238"/>
<path d="M160.89 64.5236C161.53 64.1454 162.254 63.9378 162.995 63.9147C163.732 63.8132 164.479 63.9009 165.17 64.173C165.17 64.2469 164.198 64.0623 163.014 64.173C161.83 64.2838 160.913 64.5974 160.89 64.5236Z" fill="#263238"/>
<path d="M119.034 36.1299C115.105 37.8413 112.226 41.3196 111.277 45.5037C109.987 50.7719 104.455 72.3104 105.592 75.5304C106.73 78.7503 128.842 81.9149 128.842 81.9149L131.463 70.8435L120.232 67.7665C120.232 67.7665 120.375 57.5162 120.518 53.2676C120.661 49.0189 119.034 36.1299 119.034 36.1299Z" fill="#B2C136"/>
<path d="M131.173 72.3982L135.107 73.4315L132.771 81.9658L128.902 81.7951L131.173 72.3982Z" fill="white"/>
<path d="M158.25 79.7975L154.708 76.0286L147.411 74.1833C147.411 74.1833 140.727 76.19 140.566 76.1854C140.404 76.1808 134.748 74.6354 134.748 74.6354L132.771 81.8918L142.961 82.593L154.597 82.1317C154.597 82.1317 155.201 81.5643 154.842 81.1768C154.482 80.7893 156.79 81.8319 157.062 81.8457C157.334 81.8596 157.859 82.0671 158.218 81.6289C158.462 81.329 158.794 80.3695 158.25 79.7975Z" fill="#C78976"/>
<path d="M154.842 81.1721C154.445 81.0937 154.058 80.983 153.685 80.8308C152.976 80.6047 151.999 80.3049 150.921 80.0235C149.843 79.7421 148.825 79.5345 148.097 79.3869C147.697 79.3361 147.305 79.2438 146.923 79.1147C147.328 79.0962 147.734 79.1285 148.13 79.2069C149.092 79.3407 150.046 79.5252 150.986 79.7697C151.926 80.0096 152.847 80.3049 153.75 80.6555C154.132 80.78 154.501 80.9553 154.842 81.1721Z" fill="#8B5D54"/>
<path d="M158.25 79.7975C157.702 79.6545 157.163 79.4792 156.634 79.2762C155.643 78.9395 154.252 78.5289 152.709 78.0999C151.165 77.6709 149.797 77.1773 148.756 77.1219C148.194 77.0942 147.632 77.1173 147.075 77.1865C147.218 77.1081 147.374 77.0573 147.535 77.0389C147.945 76.9512 148.369 76.9189 148.788 76.9374C149.866 76.9374 151.281 77.3987 152.805 77.86C154.33 78.3213 155.735 78.7319 156.721 79.1148C157.209 79.3039 157.606 79.47 157.873 79.5761C158.006 79.6314 158.135 79.7052 158.25 79.7975Z" fill="#8B5D54"/>
<path d="M105.51 74.3725C105.51 74.3725 105.51 74.5571 105.565 74.8938C105.685 75.3828 105.956 75.821 106.334 76.1532C107.297 77.0481 109.13 77.7955 111.457 78.2152C112.521 78.5658 113.732 78.8426 115.027 79.1379C116.321 79.4331 117.717 79.7283 119.173 80.0282C122.116 80.6279 125.373 81.2645 128.819 81.9103L128.671 82.0072L129.45 78.778C130.072 76.2408 130.675 73.7774 131.242 71.4478L131.33 71.6001L121.352 68.7445C119.979 68.1633 118.486 67.905 116.998 67.9834C115.865 68.0434 114.755 68.3063 113.714 68.7538C113.051 69.0398 112.419 69.3904 111.825 69.8009L111.365 70.1377L111.203 70.2438C111.203 70.2438 111.245 70.1931 111.346 70.11C111.447 70.027 111.586 69.9024 111.807 69.7548C112.392 69.3212 113.023 68.9475 113.686 68.6477C114.737 68.1725 115.861 67.8911 117.008 67.8173C118.523 67.725 120.043 67.9742 121.448 68.5554L131.44 71.3648L131.56 71.3971L131.532 71.517C130.961 73.8512 130.367 76.31 129.749 78.8518C129.478 79.9544 129.215 81.0385 128.966 82.081L128.934 82.201H128.814C125.364 81.5459 122.112 80.9047 119.168 80.2865C117.699 79.9821 116.307 79.6776 115.022 79.3639C113.737 79.0502 112.521 78.7734 111.438 78.4044C109.089 77.9431 107.246 77.1773 106.279 76.2362C105.892 75.8902 105.629 75.4243 105.523 74.9169C105.486 74.737 105.482 74.5524 105.51 74.3725Z" fill="#263238"/>
<path d="M120.84 68.5047C120.808 68.537 120.435 68.191 119.758 67.7389C117.989 66.5533 115.897 65.9444 113.769 65.9951C112.958 65.9951 112.456 66.1012 112.447 66.0597C112.866 65.9029 113.313 65.8198 113.76 65.8106C115.939 65.6538 118.099 66.2858 119.854 67.5867C120.232 67.8358 120.564 68.1448 120.84 68.5047Z" fill="#263238"/>
<path d="M122.31 50.4675C122.333 50.6936 122.333 50.915 122.31 51.141C122.31 51.5747 122.264 52.2021 122.204 52.9863C122.079 54.5317 121.849 56.6768 121.444 58.9833C121.126 60.9854 120.661 62.9598 120.062 64.8927C119.937 65.2571 119.808 65.5893 119.702 65.8799L119.38 66.6042C119.288 66.8118 119.173 67.0055 119.034 67.1854C119.099 66.9686 119.187 66.761 119.288 66.5626C119.371 66.3458 119.463 66.1013 119.564 65.8245C119.666 65.5478 119.772 65.2018 119.882 64.8327C120.435 62.8952 120.873 60.93 121.195 58.9418C121.6 56.6352 121.858 54.4902 122.029 52.9448C122.102 52.2159 122.167 51.6024 122.218 51.0995C122.227 50.8873 122.259 50.6751 122.31 50.4675Z" fill="#263238"/>
<path d="M132.454 45.2591C132.454 45.2591 132.403 45.13 132.288 44.9039C132.117 44.5856 131.868 44.3134 131.564 44.1151C131.108 43.8014 130.533 43.7137 130.003 43.8844C129.33 44.1151 128.833 44.6825 128.685 45.3791L128.621 45.7204L128.473 45.4068C127.911 44.1981 127.419 42.9572 127.004 41.6932C126.271 39.585 125.903 37.3661 125.921 35.1334C125.921 34.7044 125.981 34.3215 126.004 33.9801C126.027 33.6387 126.106 33.3573 126.156 33.1267C126.207 32.8822 126.281 32.6469 126.373 32.4163C126.207 33.3158 126.11 34.2246 126.096 35.138C126.138 37.3384 126.525 39.5158 127.243 41.5963C127.658 42.8511 128.137 44.0828 128.681 45.2868L128.464 45.3145C128.63 44.5441 129.197 43.9213 129.948 43.6815C130.528 43.5108 131.154 43.6215 131.643 43.9813C131.956 44.1981 132.2 44.498 132.352 44.8486C132.389 44.9408 132.421 45.0377 132.444 45.1346C132.458 45.2222 132.458 45.2591 132.454 45.2591Z" fill="#263238"/>
<path d="M144.38 46.3433C144.334 46.1541 144.302 45.965 144.279 45.7712C144.177 45.2407 144.145 44.6964 144.182 44.1567C144.279 43.3401 144.67 42.5836 145.278 42.03C145.642 41.7071 146.112 41.5272 146.596 41.5272C147.135 41.5272 147.641 41.7671 147.978 42.1869L147.78 42.3068L147.347 41.1581C146.499 38.8931 145.744 36.8357 145.209 35.3456C144.96 34.6306 144.749 34.0355 144.587 33.5742C144.5 33.3574 144.435 33.136 144.389 32.9099C144.5 33.1129 144.597 33.3205 144.675 33.5373C144.854 33.9986 145.085 34.5799 145.366 35.281C145.942 36.7572 146.72 38.8055 147.568 41.0705L147.996 42.2192L148.273 42.9619L147.812 42.3437C147.517 41.9747 147.07 41.7625 146.6 41.7625C146.163 41.7625 145.739 41.9193 145.407 42.2007C144.836 42.7174 144.458 43.4186 144.339 44.1797C144.292 44.7056 144.302 45.2361 144.366 45.7574C144.394 45.9512 144.403 46.1495 144.38 46.3433Z" fill="#263238"/>
<path d="M152.543 47.5334C152.607 47.5334 153.635 54.2593 154.846 62.5722C156.058 70.885 156.97 77.6339 156.905 77.6432C156.841 77.6524 155.814 70.9219 154.602 62.6045C153.39 54.287 152.478 47.5427 152.543 47.5334Z" fill="#263238"/>
<g opacity="0.3">
<path d="M127.151 41.7717C127.211 43.64 127.617 45.4807 128.349 47.2013C128.87 46.5555 129.45 45.8728 130.247 45.679C131.237 45.4438 132.242 46.0573 132.956 46.8C132.831 46.0527 132.536 45.3423 132.09 44.7287C131.647 44.1152 130.943 43.7461 130.187 43.7323C129.418 43.7507 128.759 44.2859 128.584 45.0378L127.202 41.8086" fill="black"/>
</g>
<path d="M122.273 44.6827C122.227 44.6827 122.241 44.1799 122.098 43.3956C121.904 42.3715 121.504 41.4028 120.928 40.5355C120.61 40.0604 120.241 39.6267 119.831 39.23C119.495 38.9071 119.127 38.6211 118.73 38.372C118.058 37.9429 117.583 37.7815 117.597 37.7354C117.717 37.7446 117.832 37.7723 117.943 37.8184C118.076 37.8599 118.205 37.9106 118.33 37.9706C118.5 38.0444 118.666 38.1275 118.823 38.2197C119.242 38.455 119.633 38.7364 119.988 39.0593C120.421 39.4606 120.808 39.9081 121.14 40.3971C121.734 41.2921 122.121 42.3069 122.273 43.3679C122.319 43.6863 122.333 44.0092 122.319 44.3321C122.305 44.5581 122.291 44.6827 122.273 44.6827Z" fill="#263238"/>
<g opacity="0.3">
<path d="M152.957 50.5273L156.039 72.2735L156.191 72.6195C156.919 65.1001 155.809 57.5208 152.957 50.5273Z" fill="black"/>
</g>
<path d="M170.062 63.0243L160.042 80.5541L135.346 81.0939L135.287 82.2102L159.195 82.0349L159.955 82.0073L185.204 82.058L190.308 73.247L196.826 63.8916C197.121 63.4764 197.02 62.8998 196.6 62.6046C196.444 62.4938 196.255 62.4339 196.066 62.4385L170.859 62.5354C170.522 62.54 170.218 62.7291 170.062 63.0243Z" fill="#E0E0E0"/>
<path d="M190.308 73.27C190.308 73.27 191.602 74.4602 191.4 75.4705C191.197 76.4807 191.261 77.2373 190.308 77.3157C190.335 78.0815 189.769 78.7365 189.009 78.8196C189.009 78.8196 189.304 80.4065 187.456 80.6648C187.456 80.6648 186.894 82.3624 185.729 81.9519C185.061 81.7212 184.421 81.4214 183.817 81.0615L183.476 80.4434C183.476 80.4434 181.767 79.8022 182.186 78.8334C182.444 78.2476 183.329 78.0953 183.329 78.0953C183.121 77.6063 183.163 77.0481 183.439 76.5915C183.849 76.0379 185.185 76.4946 185.185 76.4946C185.158 76.0194 185.305 75.5535 185.604 75.1845C186.065 74.6447 188.189 76.1071 188.189 76.1071L189.345 74.7231L190.308 73.27Z" fill="#C78976"/>
<path d="M187.456 80.6694C186.71 80.3511 185.996 79.9543 185.328 79.4884C184.614 79.1009 183.946 78.635 183.329 78.1045C184.798 78.8103 186.189 79.673 187.475 80.674H187.456V80.6694Z" fill="#8B5D54"/>
<path d="M189.009 78.8104C188.313 78.5336 187.65 78.1831 187.032 77.7633C186.374 77.4127 185.756 76.9883 185.19 76.4993C185.885 76.7761 186.549 77.1267 187.166 77.5464C187.825 77.897 188.442 78.3214 189.009 78.8104Z" fill="#8B5D54"/>
<path d="M186.894 75.3274C186.936 75.2582 187.728 75.6733 188.649 76.25C189.221 76.5775 189.773 76.9466 190.299 77.3479C190.262 77.4263 189.437 77.0527 188.516 76.4622C187.94 76.1393 187.396 75.761 186.894 75.3274Z" fill="#8B5D54"/>
<path d="M196.826 63.1258C196.785 63.1305 196.748 63.1305 196.706 63.1258H194.97L189.958 63.1674L173.415 63.2043H172.208C171.844 63.1674 171.49 63.3334 171.287 63.6379C170.905 64.3206 170.532 64.9988 170.163 65.663L168.035 69.5104L164.419 76.0195C163.387 77.8647 162.553 79.3455 161.963 80.3973L161.282 81.5782L161.102 81.8827C161.079 81.9196 161.056 81.9519 161.028 81.9842C161.042 81.9427 161.06 81.9058 161.079 81.8689C161.12 81.7858 161.171 81.6843 161.24 81.5552C161.392 81.2599 161.609 80.8586 161.876 80.3466L164.267 75.9318C165.285 74.0866 166.492 71.8538 167.837 69.3997C168.509 68.168 169.219 66.8809 169.951 65.5431L171.08 63.4995C171.329 63.1258 171.757 62.9183 172.204 62.9505H173.411L189.953 62.9874L194.965 63.029H196.702L196.826 63.1258Z" fill="#263238"/>
<path d="M179.058 71.9505C178.727 72.4349 178.847 73.0992 179.335 73.4313C179.823 73.7635 180.482 73.6435 180.814 73.1545C181.113 72.7163 181.044 72.1212 180.652 71.7614C180.159 71.3739 179.45 71.4569 179.058 71.9459V71.9505Z" fill="white"/>
<path d="M142.694 33.6019L142.556 29.6208C142.556 29.6208 147.835 28.4629 147.572 23.1209C147.448 20.5376 146.752 15.2464 146.071 10.4672C145.329 5.33281 140.778 1.62848 135.604 1.94679L135.093 1.97908C129.565 2.64337 127.045 7.71778 127.861 13.2304L129.155 34.2385C129.381 37.8967 132.463 40.7107 136.12 40.6046C139.866 40.4893 142.809 37.357 142.694 33.6019Z" fill="#C78976"/>
<path d="M142.556 29.6255C140.096 29.7731 137.641 29.2103 135.489 28.0017C135.489 28.0017 137.29 31.7845 142.583 30.9772L142.556 29.6255Z" fill="#8B5D54"/>
<path d="M145.393 15.4816C145.421 15.8968 145.117 16.2566 144.707 16.2982C144.311 16.3535 143.942 16.0767 143.887 15.68C143.887 15.6754 143.887 15.6662 143.887 15.6569C143.869 15.2464 144.177 14.8958 144.587 14.8635C144.979 14.8174 145.338 15.0895 145.398 15.4816H145.393Z" fill="#263238"/>
<path d="M145.085 13.1473C144.997 13.2534 144.394 12.8613 143.574 12.9121C142.754 12.9628 142.192 13.4149 142.086 13.318C141.98 13.2211 142.123 13.092 142.376 12.8844C143.067 12.34 144.025 12.2847 144.772 12.746C145.034 12.9259 145.131 13.1012 145.085 13.1473Z" fill="#263238"/>
<path d="M137.419 15.8092C137.447 16.2244 137.138 16.5842 136.728 16.6211C136.332 16.6811 135.964 16.4043 135.908 16.0122C135.908 16.003 135.908 15.9937 135.908 15.9845C135.881 15.5693 136.185 15.2095 136.595 15.168C137 15.1126 137.369 15.3986 137.424 15.8C137.424 15.8 137.424 15.8046 137.424 15.8092H137.419Z" fill="#263238"/>
<path d="M137.042 13.7978C136.954 13.9039 136.351 13.5118 135.531 13.5625C134.711 13.6132 134.149 14.0653 134.043 13.9685C133.937 13.8716 134.08 13.7424 134.333 13.5348C134.669 13.258 135.084 13.0966 135.517 13.0735C135.941 13.0458 136.364 13.1565 136.724 13.3826C136.991 13.5763 137.102 13.7516 137.042 13.7978Z" fill="#263238"/>
<path d="M140.391 19.6981C140.814 19.5366 141.252 19.4259 141.704 19.3751C141.915 19.3428 142.109 19.2875 142.137 19.1445C142.137 18.9277 142.077 18.7155 141.957 18.5309L141.247 16.9717C140.248 14.7528 139.511 12.926 139.598 12.8845C139.686 12.843 140.57 14.6144 141.57 16.8287C141.809 17.3777 142.031 17.8989 142.261 18.3972C142.408 18.6417 142.464 18.9323 142.422 19.2137C142.371 19.3659 142.247 19.4905 142.095 19.5412C141.98 19.5781 141.865 19.6058 141.745 19.615C141.298 19.6981 140.842 19.7257 140.391 19.6981Z" fill="#263238"/>
<path d="M138.023 20.3992C138.156 20.3992 138.212 21.2757 139.013 21.8615C139.815 22.4474 140.755 22.2905 140.768 22.4151C140.768 22.4705 140.566 22.5996 140.17 22.6365C139.649 22.6734 139.128 22.5304 138.705 22.226C138.299 21.9307 138.023 21.4879 137.931 20.9943C137.866 20.639 137.954 20.3992 138.023 20.3992Z" fill="#263238"/>
<path d="M137.056 10.5688C136.991 10.7995 136.166 10.7441 135.213 10.9194C134.259 11.0947 133.495 11.3807 133.37 11.21C133.306 11.1178 133.43 10.901 133.73 10.6657C134.13 10.3704 134.596 10.1721 135.084 10.0937C135.572 10.006 136.074 10.0337 136.549 10.1767C136.894 10.2966 137.102 10.4627 137.056 10.5688Z" fill="#263238"/>
<path d="M144.638 10.79C144.504 10.9884 143.929 10.827 143.256 10.8592C142.583 10.8915 142.008 11.0622 141.874 10.8592C141.809 10.767 141.874 10.5732 142.132 10.3979C142.45 10.1581 142.837 10.0289 143.238 10.0243C143.638 10.0058 144.03 10.1119 144.366 10.3287C144.606 10.5086 144.698 10.7116 144.638 10.79Z" fill="#263238"/>
<path d="M145.393 8.04983C145.393 8.04983 143.781 4.79298 142.123 4.11024C140.119 3.28449 139.409 5.49417 137.516 5.07438C135.623 4.65458 133.711 3.87958 131.901 5.4342C129.92 7.13643 130.979 8.17899 130.979 10.5547C131.048 20.1915 129.464 23.0101 128.676 18.5216C128.589 18.028 127.193 17.7189 126.861 15.6384C126.428 12.9397 126.119 9.64135 126.608 7.68539C127.018 6.02929 127.875 4.85295 129.455 3.5336C131.951 1.4208 135.545 1.15785 138.004 1.22705C140.464 1.29624 145.393 3.84729 145.393 8.04983Z" fill="#263238"/>
<path d="M129.035 18.3557C128.962 17.5576 128.257 16.9718 127.46 17.0456C127.437 17.0456 127.414 17.0502 127.391 17.0548C126.4 17.2117 125.327 17.8436 125.521 19.9011C125.861 23.5408 129.445 22.4475 129.441 22.3414C129.436 22.2353 129.192 19.878 129.035 18.3557Z" fill="#C78976"/>
<path d="M128.519 21.045C128.519 21.045 128.46 21.0958 128.358 21.1557C128.215 21.2342 128.054 21.2526 127.898 21.2111C127.497 21.105 127.119 20.5237 127.036 19.8687C126.999 19.5596 127.036 19.2413 127.133 18.9461C127.179 18.7062 127.34 18.5078 127.561 18.4109C127.709 18.3602 127.87 18.4155 127.953 18.5493C128.008 18.6508 127.994 18.7246 128.013 18.7292C128.031 18.7339 128.086 18.66 128.045 18.5124C128.013 18.4248 127.953 18.351 127.879 18.2956C127.773 18.231 127.644 18.208 127.52 18.2356C127.22 18.3233 126.99 18.5632 126.912 18.863C126.787 19.1952 126.741 19.5504 126.787 19.901C126.88 20.6298 127.317 21.2849 127.856 21.3864C128.059 21.4233 128.271 21.3679 128.427 21.2342C128.524 21.1373 128.533 21.0496 128.519 21.045Z" fill="#8B5D54"/>
<path d="M128.676 11.2791C129.146 11.6159 129.69 11.8281 130.261 11.8973C130.855 11.9526 131.399 11.5559 131.528 10.9747C131.555 10.7209 131.477 10.4257 131.629 10.2227C131.781 10.0197 132.186 10.0244 132.495 10.0382C133.596 10.052 134.554 9.29548 134.798 8.22063C135.162 8.57584 135.733 8.58968 136.116 8.26215C136.475 7.93 136.784 7.55173 137.037 7.13655C137.3 6.71676 137.756 6.45381 138.249 6.43536C138.511 6.50455 138.783 6.54607 139.055 6.55991C139.515 6.4861 139.727 5.91408 139.773 5.43431C139.819 4.95455 139.838 4.39175 140.234 4.11035C140.63 3.82895 141.091 3.95351 141.538 3.99503C141.985 4.03654 142.547 3.89354 142.629 3.45529C142.652 3.22003 142.579 2.98014 142.427 2.80023C141.759 1.92836 140.584 1.63312 139.584 2.08059C138.949 0.415259 137.088 -0.419712 135.425 0.212283C134.655 0.507521 134.029 1.07955 133.67 1.82226C132.269 0.696658 130.228 0.9227 129.104 2.32508C128.865 2.62494 128.676 2.9663 128.556 3.33074C127.28 3.07702 126.036 3.91199 125.783 5.18982C125.663 5.78952 125.783 6.41229 126.115 6.92435C125.451 7.30723 125.023 8.00381 124.991 8.76959C125.028 9.52614 125.806 10.2366 126.525 9.99206C126.198 10.6379 126.456 11.4221 127.101 11.7497C127.746 12.0772 128.529 11.8188 128.856 11.173" fill="#263238"/>
<path d="M139.925 3.1416V3.20618C139.925 3.27077 139.925 3.33997 139.925 3.40455C139.889 3.65366 139.815 3.89815 139.704 4.12419C139.525 4.48401 139.267 4.80232 138.949 5.04681C138.53 5.37434 138.014 5.55425 137.479 5.56348L137.535 5.48044C137.673 5.80336 137.673 6.1678 137.535 6.49071C137.392 6.82286 137.203 7.13655 136.968 7.41333C136.857 7.57941 136.728 7.73625 136.586 7.87464C136.42 8.00381 136.226 8.09146 136.019 8.12837C135.586 8.21601 135.139 8.08685 134.821 7.77777L134.955 7.73164C134.9 8.50203 134.522 9.21706 133.914 9.69682C133.582 9.97361 133.172 10.1351 132.739 10.1581C132.334 10.1627 131.928 10.1028 131.541 9.97361L131.638 9.92286C131.477 10.3749 131.205 10.7809 130.846 11.1038C130.514 11.4267 130.058 11.579 129.597 11.5282C128.805 11.4083 128.16 10.8224 127.953 10.0474L128.04 10.0843C127.667 10.3104 127.23 10.4026 126.797 10.3427C126.465 10.3104 126.152 10.195 125.875 10.0059C125.709 9.89057 125.562 9.74756 125.442 9.58611C125.369 9.47078 125.336 9.40619 125.336 9.40619C125.493 9.62301 125.691 9.80753 125.912 9.95515C126.175 10.1212 126.474 10.2227 126.783 10.255C127.193 10.3057 127.607 10.2089 127.953 9.98745L128.022 9.94593V10.0243C128.215 10.7532 128.828 11.2976 129.574 11.4083C129.994 11.4544 130.408 11.3114 130.708 11.0116C131.044 10.7071 131.297 10.3196 131.449 9.89057L131.477 9.82137H131.546C131.915 9.94593 132.301 10.0059 132.688 10.0013C133.085 9.97822 133.467 9.82599 133.771 9.56765C134.347 9.12018 134.702 8.45128 134.757 7.72241V7.55173L134.877 7.67628C135.31 8.07762 135.964 8.11453 136.438 7.76854C136.572 7.63938 136.692 7.50098 136.798 7.34875C137.028 7.08119 137.217 6.77673 137.355 6.45381C137.484 6.16318 137.493 5.83104 137.378 5.53119L137.346 5.44815H137.433C137.94 5.44815 138.433 5.28669 138.843 4.98684C139.156 4.75619 139.409 4.46095 139.594 4.11958C139.764 3.81511 139.875 3.48297 139.925 3.1416Z" fill="#455A64"/>
<path d="M141.745 16.1275C141.644 15.8507 141.565 15.5647 141.505 15.2741C141.372 14.4853 141.505 13.6734 141.883 12.9675C142.146 12.4786 142.519 12.0634 142.97 11.7451C143.491 11.3806 144.094 11.1638 144.726 11.1085C145.066 11.0808 145.407 11.0992 145.744 11.1731C146.094 11.2422 146.425 11.3714 146.734 11.5467C148.084 12.2987 148.793 13.8394 148.484 15.3525C148.415 15.7031 148.291 16.0399 148.116 16.349C147.959 16.6488 147.752 16.9256 147.508 17.1609C147.056 17.6083 146.494 17.9266 145.882 18.0835C145.347 18.2173 144.785 18.2265 144.246 18.1112C143.459 17.9405 142.749 17.5068 142.238 16.8841C142.058 16.6488 141.892 16.4043 141.745 16.146C141.773 16.2198 141.8 16.289 141.837 16.3582C141.874 16.4458 141.92 16.5243 141.975 16.6027C142.04 16.7134 142.114 16.8195 142.192 16.9164C143.072 18.0373 144.527 18.5356 145.909 18.1942C146.545 18.042 147.13 17.7237 147.6 17.2716C147.853 17.0271 148.07 16.7411 148.236 16.4274C148.42 16.1045 148.549 15.7585 148.618 15.394C148.936 13.821 148.203 12.2202 146.803 11.436C146.481 11.2561 146.131 11.1269 145.771 11.0531C145.426 10.9793 145.071 10.9562 144.716 10.9931C143.477 11.0992 142.372 11.8281 141.796 12.9353C141.409 13.6687 141.289 14.5083 141.45 15.3202C141.473 15.4448 141.505 15.574 141.547 15.6939C141.57 15.7862 141.602 15.8738 141.644 15.9568C141.671 16.0168 141.708 16.0722 141.745 16.1275Z" fill="#263238"/>
<path d="M132.343 16.681C132.246 16.3996 132.168 16.1182 132.103 15.8276C131.974 15.0387 132.103 14.2268 132.486 13.521C132.744 13.032 133.117 12.6169 133.568 12.2986C134.084 11.9249 134.692 11.6942 135.328 11.6343C135.669 11.602 136.01 11.625 136.341 11.6989C136.692 11.7681 137.028 11.8972 137.337 12.0725C138.686 12.8198 139.396 14.3606 139.082 15.8737C138.944 16.5611 138.603 17.1931 138.106 17.6867C137.254 18.5401 136.024 18.8953 134.849 18.637C134.057 18.4663 133.347 18.0373 132.836 17.4099C132.656 17.1746 132.49 16.9301 132.343 16.6764C132.371 16.7502 132.403 16.8194 132.44 16.8886C132.477 16.9762 132.523 17.0547 132.573 17.1331C132.638 17.2438 132.711 17.3499 132.794 17.4468C133.301 18.0972 134.02 18.5539 134.826 18.7384C136.042 19.0152 137.313 18.6554 138.198 17.7789C138.456 17.5344 138.668 17.253 138.838 16.9393C139.018 16.6164 139.147 16.2658 139.221 15.9014C139.543 14.3191 138.792 12.7137 137.378 11.948C137.056 11.7681 136.71 11.6389 136.346 11.5651C136.001 11.4913 135.646 11.4682 135.291 11.5051C134.637 11.5605 134.011 11.7911 133.476 12.174C133.011 12.5061 132.633 12.9398 132.371 13.4472C131.984 14.1807 131.864 15.0203 132.03 15.8322C132.053 15.9567 132.085 16.0813 132.126 16.2012C132.149 16.2935 132.182 16.3812 132.223 16.4688C132.255 16.5426 132.297 16.6118 132.343 16.681Z" fill="#263238"/>
<path d="M139.211 14.4022C139.893 14.0147 140.722 13.9686 141.441 14.2869C141.441 14.2869 141.349 14.1808 141.146 14.0885C140.612 13.8486 139.99 13.8855 139.483 14.1762C139.29 14.2684 139.198 14.3699 139.211 14.4022Z" fill="#263238"/>
<path d="M128.704 17.3916C129.289 17.1702 129.855 16.9072 130.399 16.5935C130.966 16.3306 131.509 16.0215 132.03 15.6709C131.445 15.8923 130.878 16.1599 130.334 16.469C129.768 16.7365 129.224 17.0456 128.704 17.3916Z" fill="#263238"/>
<path d="M76.6215 164.282C73.5028 171.972 64.7457 175.672 57.0665 172.548C49.3873 169.425 45.6928 160.656 48.8115 152.966C51.9301 145.276 60.6873 141.576 68.3665 144.699C68.3757 144.699 68.3895 144.708 68.3987 144.713C76.0641 147.845 79.7448 156.606 76.6215 164.282Z" fill="#B2C136"/>
<path d="M73.314 162.944C70.937 168.803 64.262 171.626 58.4117 169.241C52.5613 166.861 49.742 160.176 52.1237 154.317C54.5053 148.459 61.1756 145.636 67.026 148.021C67.0352 148.021 67.0444 148.025 67.049 148.03C72.8902 150.415 75.6956 157.095 73.314 162.944Z" fill="#B2C136"/>
<path d="M73.314 162.944C73.3278 162.884 73.3416 162.824 73.3646 162.764L73.5351 162.247L73.6595 161.869C73.7009 161.726 73.7332 161.569 73.77 161.408C73.876 161.02 73.9497 160.623 73.9958 160.227C74.1478 159.138 74.134 158.031 73.9589 156.947C73.1297 151.568 68.6106 147.531 63.1795 147.319C62.6451 147.296 62.1061 147.305 61.5718 147.356C61.3 147.388 61.0328 147.439 60.761 147.481C60.4846 147.518 60.2174 147.578 59.9502 147.656C59.4067 147.794 58.8723 147.97 58.3471 148.177C57.822 148.408 57.3153 148.671 56.827 148.971C55.8181 149.58 54.9106 150.345 54.1459 151.24C52.552 153.09 51.6031 155.411 51.4465 157.851C51.3635 159.027 51.4741 160.208 51.7643 161.352C52.0315 162.459 52.4691 163.516 53.0726 164.485C53.6254 165.426 54.3256 166.27 55.1409 166.994C59.1671 170.648 65.211 170.938 69.5688 167.691C70.4487 167.045 71.2272 166.265 71.8721 165.384C72.1163 165.071 72.342 164.734 72.5401 164.388C72.6322 164.236 72.7197 164.102 72.7888 163.973C72.8579 163.843 72.9132 163.723 72.9639 163.613L73.208 163.128C73.2311 163.073 73.2633 163.018 73.2955 162.962C73.2817 163.022 73.2587 163.082 73.2311 163.138L73.0099 163.636L72.8441 164C72.775 164.134 72.6875 164.272 72.6046 164.425C72.4111 164.78 72.19 165.117 71.9458 165.44C71.3055 166.344 70.527 167.142 69.6425 167.806C68.4724 168.701 67.1365 169.356 65.7131 169.739C63.9856 170.214 62.166 170.274 60.4109 169.914C58.3932 169.499 56.5229 168.549 54.9889 167.169C54.5836 166.8 54.1966 166.408 53.8419 165.989C53.4872 165.55 53.1647 165.089 52.8745 164.605C52.5751 164.111 52.3125 163.604 52.0776 163.078C51.8564 162.533 51.6768 161.975 51.534 161.408C51.23 160.245 51.1194 159.037 51.2023 157.837C51.2944 156.601 51.5708 155.388 52.0269 154.234C52.5106 153.095 53.1647 152.029 53.9617 151.084C54.7448 150.175 55.6661 149.395 56.698 148.777C57.2001 148.477 57.7206 148.205 58.255 147.974C58.7894 147.762 59.333 147.582 59.8904 147.444C60.1621 147.365 60.4339 147.301 60.7149 147.264C60.9913 147.227 61.2677 147.172 61.5441 147.144C64.1515 146.904 66.768 147.541 68.9746 148.952C71.7385 150.756 73.6042 153.662 74.0879 156.933C74.2537 158.031 74.2537 159.152 74.0879 160.25C74.0326 160.651 73.9497 161.048 73.8391 161.435C73.7977 161.606 73.7608 161.763 73.7194 161.897L73.5812 162.275C73.4982 162.487 73.4337 162.658 73.3877 162.782C73.3693 162.838 73.3416 162.893 73.314 162.944Z" fill="#263238"/>
<g opacity="0.3">
<path d="M73.1896 163.004C73.1205 162.981 73.2679 162.497 73.4292 161.62C73.6595 160.384 73.6917 159.115 73.5305 157.87C73.4199 157.021 73.2219 156.181 72.9317 155.374C72.5954 154.456 72.1393 153.584 71.5819 152.781C70.9646 151.896 70.2276 151.107 69.3846 150.438C68.9423 150.083 68.4679 149.769 67.975 149.488C66.9569 148.911 65.8559 148.5 64.7089 148.27C64.1515 148.159 63.5895 148.09 63.0229 148.067C62.4747 148.039 61.9265 148.058 61.3829 148.118C60.8578 148.173 60.3418 148.265 59.8305 148.394C58.8815 148.634 57.9694 148.999 57.1126 149.474C56.3663 149.894 55.6661 150.396 55.0258 150.968C54.0953 151.813 53.3029 152.791 52.6672 153.875C52.2066 154.645 52.0085 155.106 51.944 155.083C51.8795 155.06 51.9947 154.562 52.3678 153.699C52.9114 152.505 53.6715 151.416 54.6066 150.498C55.2561 149.857 55.9794 149.298 56.7579 148.828C57.6562 148.288 58.6236 147.878 59.6324 147.596C60.176 147.444 60.7334 147.338 61.2954 147.269C61.8804 147.195 62.4701 147.167 63.0597 147.19C63.677 147.209 64.2943 147.278 64.9024 147.398C65.5196 147.518 66.1277 147.693 66.7174 147.91C67.307 148.131 67.8736 148.399 68.4218 148.713C68.9562 149.017 69.4629 149.363 69.9374 149.746C70.3934 150.12 70.8218 150.526 71.218 150.964C71.6003 151.384 71.9504 151.831 72.2637 152.306C73.3508 153.939 74.005 155.826 74.1616 157.787C74.2676 159.097 74.134 160.416 73.7608 161.675C73.489 162.58 73.2357 163.022 73.1896 163.004Z" fill="black"/>
</g>
<g opacity="0.3">
<path d="M61.3461 165.403L60.6182 167.248L58.9598 166.597L59.6693 164.789C58.0708 164.046 56.698 162.912 56.0669 161.841L57.7667 160.176C58.4623 161.214 59.4159 162.058 60.5307 162.616L61.6132 159.848C59.9503 158.677 58.1399 157.256 59.0658 154.885C59.7568 153.127 61.6224 152.117 64.3542 152.85L65.0774 151.005L66.7312 151.656L66.0264 153.464C67.1826 153.994 68.2007 154.792 68.9884 155.794L67.3623 157.51C66.7588 156.753 66.0125 156.126 65.1649 155.664L64.064 158.483C65.7315 159.636 67.5097 161.043 66.5976 163.382C65.9112 165.112 64.0686 166.108 61.3461 165.403ZM62.5622 157.422L63.4835 155.069C62.5253 154.922 61.991 155.268 61.7745 155.812C61.558 156.356 61.9219 156.905 62.5622 157.408V157.422ZM63.8566 162.538C64.0824 161.957 63.7277 161.454 63.1104 160.923L62.2167 163.23C63.1012 163.359 63.6355 163.068 63.8566 162.538Z" fill="black"/>
</g>
<path d="M119.099 183.094H90.2801V188.334H119.099V183.094Z" fill="#B2C136"/>
<path d="M93.1039 188.371C92.9427 186.641 92.9427 184.902 93.1039 183.172C93.2651 184.902 93.2651 186.641 93.1039 188.371Z" fill="#263238"/>
<path d="M91.5285 188.371C91.3672 186.641 91.3672 184.902 91.5285 183.172C91.6897 184.902 91.6897 186.641 91.5285 188.371Z" fill="#263238"/>
<path d="M96.5635 188.371C96.4023 186.641 96.4023 184.902 96.5635 183.172C96.7247 184.902 96.7247 186.641 96.5635 188.371Z" fill="#263238"/>
<path d="M94.988 188.371C94.8268 186.641 94.8268 184.902 94.988 183.172C95.1492 184.902 95.1492 186.641 94.988 188.371Z" fill="#263238"/>
<path d="M100.028 188.371C99.8664 186.641 99.8664 184.902 100.028 183.172C100.189 184.902 100.189 186.641 100.028 188.371Z" fill="#263238"/>
<path d="M98.4522 188.371C98.2909 186.641 98.2909 184.902 98.4522 183.172C98.6134 184.902 98.6134 186.641 98.4522 188.371Z" fill="#263238"/>
<path d="M103.473 188.371C103.312 186.641 103.312 184.902 103.473 183.172C103.635 184.902 103.635 186.641 103.473 188.371Z" fill="#263238"/>
<path d="M101.912 188.371C101.751 186.641 101.751 184.902 101.912 183.172C102.078 184.902 102.078 186.641 101.912 188.371Z" fill="#263238"/>
<path d="M106.951 188.371C106.79 186.641 106.79 184.902 106.951 183.172C107.113 184.902 107.113 186.641 106.951 188.371Z" fill="#263238"/>
<path d="M105.376 188.371C105.215 186.641 105.215 184.902 105.376 183.172C105.537 184.902 105.537 186.641 105.376 188.371Z" fill="#263238"/>
<path d="M110.415 188.371C110.254 186.641 110.254 184.902 110.415 183.172C110.577 184.902 110.577 186.641 110.415 188.371Z" fill="#263238"/>
<path d="M108.84 188.371C108.679 186.641 108.679 184.902 108.84 183.172C109.001 184.902 109.001 186.641 108.84 188.371Z" fill="#263238"/>
<path d="M113.88 188.371C113.718 186.641 113.718 184.902 113.88 183.172C114.041 184.902 114.041 186.641 113.88 188.371Z" fill="#263238"/>
<path d="M112.3 188.371C112.138 186.641 112.138 184.902 112.3 183.172C112.461 184.902 112.461 186.641 112.3 188.371Z" fill="#263238"/>
<path d="M117.339 188.371C117.178 186.641 117.178 184.902 117.339 183.172C117.5 184.902 117.5 186.641 117.339 188.371Z" fill="#263238"/>
<path d="M115.764 188.371C115.603 186.641 115.603 184.902 115.764 183.172C115.925 184.902 115.925 186.641 115.764 188.371Z" fill="#263238"/>
<path d="M119.094 183.094C119.094 183.163 112.599 183.214 104.588 183.214C96.5773 183.214 90.0774 183.163 90.0774 183.094C90.0774 183.025 96.5727 182.974 104.588 182.974C112.604 182.974 119.094 183.029 119.094 183.094Z" fill="#263238"/>
<path d="M116.837 188.293H88.0182V193.533H116.837V188.293Z" fill="#B2C136"/>
<path d="M90.8421 193.57C90.6808 191.84 90.6808 190.101 90.8421 188.371C91.0033 190.101 91.0033 191.84 90.8421 193.57Z" fill="#263238"/>
<path d="M89.2666 193.57C89.1054 191.84 89.1054 190.101 89.2666 188.371C89.4278 190.101 89.4278 191.84 89.2666 193.57Z" fill="#263238"/>
<path d="M94.3062 193.57C94.145 191.84 94.145 190.101 94.3062 188.371C94.4675 190.101 94.4675 191.84 94.3062 193.57Z" fill="#263238"/>
<path d="M92.7308 193.57C92.5696 191.84 92.5696 190.101 92.7308 188.371C92.892 190.101 92.892 191.84 92.7308 193.57Z" fill="#263238"/>
<path d="M97.7704 193.57C97.6092 191.84 97.6092 190.101 97.7704 188.371C97.9316 190.101 97.9316 191.84 97.7704 193.57Z" fill="#263238"/>
<path d="M96.1903 193.57C96.0291 191.84 96.0291 190.101 96.1903 188.371C96.3516 190.101 96.3516 191.84 96.1903 193.57Z" fill="#263238"/>
<path d="M101.23 193.57C101.069 191.84 101.069 190.101 101.23 188.371C101.391 190.101 101.391 191.84 101.23 193.57Z" fill="#263238"/>
<path d="M99.6545 193.57C99.4933 191.84 99.4933 190.101 99.6545 188.371C99.8157 190.101 99.8157 191.84 99.6545 193.57Z" fill="#263238"/>
<path d="M104.694 193.57C104.533 191.84 104.533 190.101 104.694 188.371C104.855 190.101 104.855 191.84 104.694 193.57Z" fill="#263238"/>
<path d="M103.119 193.57C102.957 191.84 102.957 190.101 103.119 188.371C103.28 190.101 103.28 191.84 103.119 193.57Z" fill="#263238"/>
<path d="M108.158 193.57C107.997 191.84 107.997 190.101 108.158 188.371C108.32 190.101 108.32 191.84 108.158 193.57Z" fill="#263238"/>
<path d="M106.578 193.57C106.417 191.84 106.417 190.101 106.578 188.371C106.739 190.101 106.739 191.84 106.578 193.57Z" fill="#263238"/>
<path d="M111.618 193.57C111.457 191.84 111.457 190.101 111.618 188.371C111.779 190.101 111.779 191.84 111.618 193.57Z" fill="#263238"/>
<path d="M110.042 193.57C109.881 191.84 109.881 190.101 110.042 188.371C110.204 190.101 110.204 191.84 110.042 193.57Z" fill="#263238"/>
<path d="M115.082 193.57C114.921 191.84 114.921 190.101 115.082 188.371C115.243 190.101 115.243 191.84 115.082 193.57Z" fill="#263238"/>
<path d="M113.507 193.57C113.345 191.84 113.345 190.101 113.507 188.371C113.668 190.101 113.668 191.84 113.507 193.57Z" fill="#263238"/>
<path d="M116.833 188.316C116.833 188.385 110.351 188.436 102.359 188.436C94.3662 188.436 87.8801 188.385 87.8801 188.316C87.8801 188.247 94.3615 188.196 102.359 188.196C110.356 188.196 116.833 188.228 116.833 188.316Z" fill="#263238"/>
<path d="M114.985 193.57H86.1664V198.811H114.985V193.57Z" fill="#B2C136"/>
<path d="M88.9902 198.848C88.829 197.118 88.829 195.379 88.9902 193.649C89.1515 195.379 89.1515 197.118 88.9902 198.848Z" fill="#263238"/>
<path d="M87.4147 198.848C87.2535 197.118 87.2535 195.379 87.4147 193.649C87.576 195.379 87.576 197.118 87.4147 198.848Z" fill="#263238"/>
<path d="M92.4544 198.848C92.2932 197.118 92.2932 195.379 92.4544 193.649C92.6157 195.379 92.6157 197.118 92.4544 198.848Z" fill="#263238"/>
<path d="M90.8789 198.848C90.7177 197.118 90.7177 195.379 90.8789 193.649C91.0401 195.379 91.0401 197.118 90.8789 198.848Z" fill="#263238"/>
<path d="M95.9185 198.848C95.7573 197.118 95.7573 195.379 95.9185 193.649C96.0798 195.379 96.0798 197.118 95.9185 198.848Z" fill="#263238"/>
<path d="M94.3431 198.848C94.1819 197.118 94.1819 195.379 94.3431 193.649C94.5043 195.379 94.5043 197.118 94.3431 198.848Z" fill="#263238"/>
<path d="M99.3781 198.848C99.2169 197.118 99.2169 195.379 99.3781 193.649C99.5394 195.379 99.5394 197.118 99.3781 198.848Z" fill="#263238"/>
<path d="M97.8026 198.848C97.6414 197.118 97.6414 195.379 97.8026 193.649C97.9639 195.379 97.9639 197.118 97.8026 198.848Z" fill="#263238"/>
<path d="M102.842 198.848C102.681 197.118 102.681 195.379 102.842 193.649C103.003 195.379 103.003 197.118 102.842 198.848Z" fill="#263238"/>
<path d="M101.267 198.848C101.106 197.118 101.106 195.379 101.267 193.649C101.428 195.379 101.428 197.118 101.267 198.848Z" fill="#263238"/>
<path d="M106.306 198.848C106.145 197.118 106.145 195.379 106.306 193.649C106.468 195.379 106.468 197.118 106.306 198.848Z" fill="#263238"/>
<path d="M104.726 198.848C104.565 197.118 104.565 195.379 104.726 193.649C104.892 195.379 104.892 197.118 104.726 198.848Z" fill="#263238"/>
<path d="M109.766 198.848C109.605 197.118 109.605 195.379 109.766 193.649C109.927 195.379 109.927 197.118 109.766 198.848Z" fill="#263238"/>
<path d="M108.191 198.848C108.029 197.118 108.029 195.379 108.191 193.649C108.352 195.379 108.352 197.118 108.191 198.848Z" fill="#263238"/>
<path d="M113.23 198.848C113.069 197.118 113.069 195.379 113.23 193.649C113.391 195.379 113.391 197.118 113.23 198.848Z" fill="#263238"/>
<path d="M111.655 198.848C111.493 197.118 111.493 195.379 111.655 193.649C111.816 195.379 111.816 197.118 111.655 198.848Z" fill="#263238"/>
<path d="M114.99 193.57C114.99 193.64 108.508 193.69 100.516 193.69C92.5235 193.69 86.0374 193.64 86.0374 193.57C86.0374 193.501 92.5189 193.45 100.516 193.45C108.513 193.45 114.99 193.506 114.99 193.57Z" fill="#263238"/>
<g opacity="0.3">
<path d="M91.9568 188.348C96.3193 189.345 100.811 189.672 105.27 189.317C109.692 189.022 114.156 188.371 118.588 188.427L91.9568 188.348Z" fill="black"/>
</g>
<g opacity="0.3">
<path d="M86.5211 193.64C90.8836 194.636 95.375 194.964 99.8342 194.608C104.257 194.313 108.72 193.663 113.152 193.718L86.5211 193.64Z" fill="black"/>
</g>
<path d="M90.9158 183.528C91.1168 183.528 91.2797 183.474 91.2797 183.408C91.2797 183.342 91.1168 183.288 90.9158 183.288C90.7148 183.288 90.5519 183.342 90.5519 183.408C90.5519 183.474 90.7148 183.528 90.9158 183.528Z" fill="white"/>
<path d="M95.2782 183.421C94.1819 183.583 93.0671 183.583 91.9707 183.421C93.0671 183.26 94.1819 183.26 95.2782 183.421Z" fill="white"/>
<path d="M99.8526 183.421C98.7562 183.583 97.6414 183.583 96.545 183.421C97.6414 183.26 98.7562 183.26 99.8526 183.421Z" fill="white"/>
<path d="M207.237 178.592C210.162 186.355 206.251 195.028 198.498 197.962C190.745 200.891 182.085 196.975 179.155 189.211C176.23 181.447 180.141 172.775 187.898 169.841C187.908 169.841 187.917 169.831 187.931 169.827C195.679 166.907 204.326 170.832 207.242 178.592H207.237Z" fill="#B2C136"/>
<path d="M203.897 179.851C206.131 185.77 203.151 192.38 197.241 194.613C191.33 196.85 184.729 193.866 182.5 187.947C180.265 182.028 183.246 175.418 189.156 173.185C189.165 173.185 189.174 173.18 189.179 173.176C195.08 170.948 201.668 173.932 203.893 179.842V179.851H203.897Z" fill="#B2C136"/>
<path d="M203.897 179.851C203.865 179.796 203.833 179.74 203.81 179.685L203.584 179.191L203.418 178.827C203.354 178.693 203.266 178.559 203.183 178.407C202.994 178.052 202.778 177.711 202.543 177.388C201.916 176.483 201.152 175.681 200.286 175.007C196.029 171.626 189.976 171.741 185.849 175.279C185.439 175.625 185.056 176.004 184.697 176.405C184.517 176.613 184.356 176.834 184.181 177.046C184.015 177.263 183.858 177.494 183.72 177.729C183.416 178.2 183.144 178.693 182.9 179.201C182.675 179.726 182.481 180.266 182.324 180.82C181.997 181.95 181.85 183.131 181.901 184.307C181.984 186.752 182.863 189.1 184.407 190.996C185.144 191.914 186.028 192.708 187.019 193.344C187.498 193.658 188 193.935 188.516 194.184C189.022 194.415 189.543 194.613 190.077 194.774C190.607 194.927 191.146 195.042 191.69 195.12C192.224 195.185 192.763 195.213 193.302 195.208C195.324 195.185 197.305 194.622 199.042 193.58C201.829 191.887 203.764 189.086 204.358 185.876C204.565 184.796 204.611 183.689 204.491 182.596C204.455 182.199 204.39 181.802 204.303 181.41C204.266 181.24 204.243 181.078 204.206 180.949C204.169 180.82 204.123 180.681 204.091 180.566C204.026 180.345 203.975 180.174 203.934 180.045C203.916 179.985 203.902 179.925 203.893 179.865C203.92 179.92 203.939 179.976 203.957 180.036C204.003 180.165 204.063 180.335 204.137 180.552L204.261 180.935C204.303 181.078 204.335 181.235 204.372 181.396C204.473 181.789 204.542 182.19 204.584 182.591C204.722 183.694 204.694 184.81 204.491 185.903C203.916 189.165 201.972 192.02 199.148 193.746C196.904 195.102 194.269 195.66 191.667 195.337C191.109 195.259 190.561 195.143 190.022 194.991C189.469 194.834 188.93 194.641 188.401 194.41C187.871 194.161 187.359 193.879 186.871 193.561C185.858 192.911 184.959 192.103 184.204 191.167C183.43 190.198 182.808 189.119 182.361 187.961C181.942 186.794 181.698 185.571 181.643 184.335C181.597 183.131 181.744 181.932 182.08 180.774C182.375 179.648 182.859 178.582 183.513 177.623C183.656 177.378 183.817 177.148 183.997 176.931C184.172 176.709 184.338 176.47 184.522 176.276C184.886 175.865 185.282 175.482 185.701 175.132C187.272 173.794 189.17 172.904 191.201 172.544C194.454 171.981 197.793 172.848 200.369 174.92C201.239 175.612 201.995 176.433 202.612 177.355C202.847 177.683 203.059 178.029 203.238 178.389C203.321 178.546 203.404 178.684 203.469 178.818L203.621 179.191L203.828 179.694C203.856 179.745 203.879 179.796 203.897 179.851Z" fill="#263238"/>
<g opacity="0.3">
<path d="M203.856 180.012C203.791 180.04 203.57 179.583 203.091 178.827C202.423 177.766 201.594 176.811 200.636 175.999C199.977 175.45 199.263 174.975 198.503 174.578C197.628 174.131 196.697 173.803 195.739 173.596C195.223 173.48 194.702 173.406 194.177 173.37C193.629 173.328 193.081 173.328 192.533 173.37C191.966 173.416 191.409 173.499 190.856 173.628C190.289 173.766 189.732 173.946 189.193 174.163C188.654 174.389 188.133 174.657 187.636 174.961C187.148 175.256 186.687 175.588 186.254 175.958C185.835 176.308 185.443 176.696 185.088 177.111C184.738 177.508 184.42 177.932 184.135 178.375C183.605 179.196 183.181 180.082 182.877 181.013C182.61 181.83 182.435 182.674 182.357 183.532C182.251 184.782 182.329 186.042 182.601 187.269C182.794 188.145 182.956 188.62 182.891 188.653C182.827 188.685 182.578 188.238 182.274 187.361C181.873 186.106 181.707 184.787 181.785 183.472C181.836 182.559 181.988 181.659 182.246 180.783C182.541 179.777 182.969 178.813 183.522 177.923C183.817 177.438 184.149 176.972 184.517 176.539C184.895 176.082 185.314 175.662 185.761 175.275C186.222 174.873 186.715 174.509 187.235 174.186C188.308 173.522 189.483 173.037 190.713 172.756C191.883 172.479 193.095 172.396 194.292 172.502C195.909 172.641 197.48 173.12 198.899 173.909C199.691 174.357 200.428 174.892 201.101 175.505C202.068 176.391 202.861 177.452 203.446 178.629C203.787 179.477 203.897 179.976 203.856 180.012Z" fill="black"/>
</g>
<g opacity="0.3">
<path d="M196.798 189.815L197.526 191.661L195.868 192.311L195.145 190.517C193.468 191.061 191.694 191.162 190.506 190.807L190.621 188.427C191.837 188.722 193.104 188.69 194.306 188.344L193.219 185.576C191.206 185.853 188.912 186.037 187.986 183.671C187.3 181.913 187.986 179.906 190.483 178.596L189.76 176.751L191.418 176.101L192.123 177.909C193.334 177.512 194.624 177.406 195.882 177.6L195.854 179.966C194.896 179.819 193.919 179.865 192.98 180.1L194.085 182.919C196.094 182.628 198.351 182.457 199.268 184.787C199.949 186.494 199.291 188.482 196.798 189.815ZM192.27 183.136L191.349 180.783C190.552 181.323 190.391 181.941 190.603 182.49C190.814 183.039 191.459 183.191 192.27 183.136ZM196.683 186.014C196.458 185.433 195.854 185.308 195.043 185.336L195.965 187.643C196.697 187.121 196.891 186.545 196.683 186.01V186.014Z" fill="black"/>
</g>
<path d="M250.769 183.066H221.95V188.307H250.769V183.066Z" fill="#B2C136"/>
<path d="M224.774 188.344C224.613 186.614 224.613 184.875 224.774 183.145C224.935 184.875 224.935 186.614 224.774 188.344Z" fill="#263238"/>
<path d="M223.199 188.344C223.038 186.614 223.038 184.875 223.199 183.145C223.36 184.875 223.36 186.614 223.199 188.344Z" fill="#263238"/>
<path d="M228.238 188.344C228.077 186.614 228.077 184.875 228.238 183.145C228.4 184.875 228.4 186.614 228.238 188.344Z" fill="#263238"/>
<path d="M226.663 188.344C226.502 186.614 226.502 184.875 226.663 183.145C226.824 184.875 226.824 186.614 226.663 188.344Z" fill="#263238"/>
<path d="M231.703 188.344C231.541 186.614 231.541 184.875 231.703 183.145C231.864 184.875 231.864 186.614 231.703 188.344Z" fill="#263238"/>
<path d="M230.123 188.344C229.961 186.614 229.961 184.875 230.123 183.145C230.284 184.875 230.284 186.614 230.123 188.344Z" fill="#263238"/>
<path d="M235.162 188.344C235.001 186.614 235.001 184.875 235.162 183.145C235.323 184.875 235.323 186.614 235.162 188.344Z" fill="#263238"/>
<path d="M233.587 188.344C233.425 186.614 233.425 184.875 233.587 183.145C233.748 184.875 233.748 186.614 233.587 188.344Z" fill="#263238"/>
<path d="M238.626 188.344C238.465 186.614 238.465 184.875 238.626 183.145C238.788 184.875 238.788 186.614 238.626 188.344Z" fill="#263238"/>
<path d="M237.065 188.344C236.903 186.614 236.903 184.875 237.065 183.145C237.226 184.875 237.226 186.614 237.065 188.344Z" fill="#263238"/>
<path d="M242.09 188.344C241.925 186.614 241.925 184.875 242.09 183.145C242.252 184.875 242.252 186.614 242.09 188.344Z" fill="#263238"/>
<path d="M240.51 188.344C240.349 186.614 240.349 184.875 240.51 183.145C240.672 184.875 240.672 186.614 240.51 188.344Z" fill="#263238"/>
<path d="M245.55 188.344C245.389 186.614 245.389 184.875 245.55 183.145C245.711 184.875 245.711 186.614 245.55 188.344Z" fill="#263238"/>
<path d="M243.975 188.344C243.813 186.614 243.813 184.875 243.975 183.145C244.136 184.875 244.136 186.614 243.975 188.344Z" fill="#263238"/>
<path d="M249.014 188.344C248.853 186.614 248.853 184.875 249.014 183.145C249.175 184.875 249.175 186.614 249.014 188.344Z" fill="#263238"/>
<path d="M247.439 188.344C247.278 186.614 247.278 184.875 247.439 183.145C247.6 184.875 247.6 186.614 247.439 188.344Z" fill="#263238"/>
<path d="M250.769 183.066C250.769 183.135 244.274 183.186 236.259 183.186C228.243 183.186 221.748 183.135 221.748 183.066C221.748 182.997 228.243 182.946 236.259 182.946C244.274 182.946 250.769 183.002 250.769 183.066Z" fill="#263238"/>
<path d="M248.512 188.265H219.693V193.506H248.512V188.265Z" fill="#B2C136"/>
<path d="M222.517 193.543C222.356 191.813 222.356 190.074 222.517 188.344C222.678 190.074 222.678 191.813 222.517 193.543Z" fill="#263238"/>
<path d="M220.942 193.543C220.78 191.813 220.78 190.074 220.942 188.344C221.103 190.074 221.103 191.813 220.942 193.543Z" fill="#263238"/>
<path d="M225.981 193.543C225.82 191.813 225.82 190.074 225.981 188.344C226.142 190.074 226.142 191.813 225.981 193.543Z" fill="#263238"/>
<path d="M224.401 193.543C224.24 191.813 224.24 190.074 224.401 188.344C224.562 190.074 224.562 191.813 224.401 193.543Z" fill="#263238"/>
<path d="M229.441 193.543C229.28 191.813 229.28 190.074 229.441 188.344C229.602 190.074 229.602 191.813 229.441 193.543Z" fill="#263238"/>
<path d="M227.851 193.543C227.69 191.813 227.69 190.074 227.851 188.344C228.013 190.074 228.013 191.813 227.851 193.543Z" fill="#263238"/>
<path d="M232.919 193.543C232.757 191.813 232.757 190.074 232.919 188.344C233.08 190.074 233.08 191.813 232.919 193.543Z" fill="#263238"/>
<path d="M231.329 193.543C231.168 191.813 231.168 190.074 231.329 188.344C231.491 190.074 231.491 191.813 231.329 193.543Z" fill="#263238"/>
<path d="M236.364 193.543C236.203 191.813 236.203 190.074 236.364 188.344C236.53 190.074 236.53 191.813 236.364 193.543Z" fill="#263238"/>
<path d="M234.789 193.543C234.628 191.813 234.628 190.074 234.789 188.344C234.95 190.074 234.95 191.813 234.789 193.543Z" fill="#263238"/>
<path d="M239.829 193.543C239.667 191.813 239.667 190.074 239.829 188.344C239.99 190.074 239.99 191.813 239.829 193.543Z" fill="#263238"/>
<path d="M238.253 193.543C238.092 191.813 238.092 190.074 238.253 188.344C238.414 190.074 238.414 191.813 238.253 193.543Z" fill="#263238"/>
<path d="M243.293 193.543C243.132 191.813 243.132 190.074 243.293 188.344C243.454 190.074 243.454 191.813 243.293 193.543Z" fill="#263238"/>
<path d="M241.717 193.543C241.556 191.813 241.556 190.074 241.717 188.344C241.879 190.074 241.879 191.813 241.717 193.543Z" fill="#263238"/>
<path d="M246.738 193.543C246.577 191.813 246.577 190.074 246.738 188.344C246.9 190.074 246.9 191.813 246.738 193.543Z" fill="#263238"/>
<path d="M245.177 193.543C245.016 191.813 245.016 190.074 245.177 188.344C245.338 190.074 245.338 191.813 245.177 193.543Z" fill="#263238"/>
<path d="M248.507 188.265C248.507 188.334 242.031 188.385 234.034 188.385C226.036 188.385 219.56 188.316 219.56 188.265C219.56 188.214 226.041 188.145 234.034 188.145C242.026 188.145 248.507 188.201 248.507 188.265Z" fill="#263238"/>
<path d="M246.66 193.543H217.841V198.783H246.66V193.543Z" fill="#B2C136"/>
<path d="M220.665 198.82C220.504 197.09 220.504 195.351 220.665 193.621C220.826 195.351 220.826 197.09 220.665 198.82Z" fill="#263238"/>
<path d="M219.099 198.82C218.938 197.09 218.938 195.351 219.099 193.621C219.26 195.351 219.26 197.09 219.099 198.82Z" fill="#263238"/>
<path d="M224.129 198.82C223.968 197.09 223.968 195.351 224.129 193.621C224.291 195.351 224.291 197.09 224.129 198.82Z" fill="#263238"/>
<path d="M222.554 198.82C222.388 197.09 222.388 195.351 222.554 193.621C222.715 195.351 222.715 197.09 222.554 198.82Z" fill="#263238"/>
<path d="M227.589 198.82C227.428 197.09 227.428 195.351 227.589 193.621C227.75 195.351 227.75 197.09 227.589 198.82Z" fill="#263238"/>
<path d="M226.009 198.82C225.848 197.09 225.848 195.351 226.009 193.621C226.17 195.351 226.17 197.09 226.009 198.82Z" fill="#263238"/>
<path d="M231.076 198.82C230.915 197.09 230.915 195.351 231.076 193.621C231.237 195.351 231.237 197.09 231.076 198.82Z" fill="#263238"/>
<path d="M229.478 198.82C229.316 197.09 229.316 195.351 229.478 193.621C229.639 195.351 229.639 197.09 229.478 198.82Z" fill="#263238"/>
<path d="M234.517 198.82C234.356 197.09 234.356 195.351 234.517 193.621C234.678 195.351 234.678 197.09 234.517 198.82Z" fill="#263238"/>
<path d="M232.919 198.82C232.757 197.09 232.757 195.351 232.919 193.621C233.08 195.351 233.08 197.09 232.919 198.82Z" fill="#263238"/>
<path d="M237.986 198.82C237.825 197.09 237.825 195.351 237.986 193.621C238.147 195.351 238.147 197.09 237.986 198.82Z" fill="#263238"/>
<path d="M236.401 198.82C236.24 197.09 236.24 195.351 236.401 193.621C236.563 195.351 236.563 197.09 236.401 198.82Z" fill="#263238"/>
<path d="M241.441 198.82C241.28 197.09 241.28 195.351 241.441 193.621C241.602 195.351 241.602 197.09 241.441 198.82Z" fill="#263238"/>
<path d="M239.865 198.82C239.704 197.09 239.704 195.351 239.865 193.621C240.027 195.351 240.027 197.09 239.865 198.82Z" fill="#263238"/>
<path d="M244.896 198.82C244.73 197.09 244.73 195.351 244.896 193.621C245.057 195.351 245.057 197.09 244.896 198.82Z" fill="#263238"/>
<path d="M243.325 198.82C243.164 197.09 243.164 195.351 243.325 193.621C243.486 195.351 243.486 197.09 243.325 198.82Z" fill="#263238"/>
<path d="M246.66 193.543C246.66 193.612 240.179 193.662 232.182 193.662C224.185 193.662 217.708 193.612 217.708 193.543C217.708 193.473 224.189 193.423 232.182 193.423C240.174 193.423 246.66 193.478 246.66 193.543Z" fill="#263238"/>
<g opacity="0.3">
<path d="M223.609 188.316C227.971 189.312 232.458 189.64 236.917 189.285C241.34 188.989 245.808 188.339 250.24 188.394L223.609 188.316Z" fill="black"/>
</g>
<g opacity="0.3">
<path d="M218.178 193.612C222.54 194.608 227.027 194.936 231.486 194.581C235.908 194.285 240.377 193.635 244.808 193.69L218.178 193.612Z" fill="black"/>
</g>
<path d="M222.591 183.5C222.792 183.5 222.955 183.446 222.955 183.38C222.955 183.314 222.792 183.26 222.591 183.26C222.39 183.26 222.227 183.314 222.227 183.38C222.227 183.446 222.39 183.5 222.591 183.5Z" fill="white"/>
<path d="M226.953 183.394C225.857 183.555 224.742 183.555 223.646 183.394C224.742 183.232 225.857 183.232 226.953 183.394Z" fill="white"/>
<path d="M231.537 183.394C230.44 183.555 229.326 183.555 228.229 183.394C229.326 183.232 230.44 183.232 231.537 183.394Z" fill="white"/>
<path d="M76.663 172.576H47.8441V177.817H76.663V172.576Z" fill="#B2C136"/>
<path d="M50.6679 177.854C50.5067 176.124 50.5067 174.384 50.6679 172.655C50.8292 174.384 50.8292 176.124 50.6679 177.854Z" fill="#263238"/>
<path d="M49.1156 177.854C48.9543 176.124 48.9543 174.384 49.1156 172.655C49.2768 174.384 49.2768 176.124 49.1156 177.854Z" fill="#263238"/>
<path d="M54.1321 177.854C53.9709 176.124 53.9709 174.384 54.1321 172.655C54.2933 174.384 54.2933 176.124 54.1321 177.854Z" fill="#263238"/>
<path d="M52.5567 177.854C52.3954 176.124 52.3954 174.384 52.5567 172.655C52.7179 174.384 52.7179 176.124 52.5567 177.854Z" fill="#263238"/>
<path d="M57.5963 177.854C57.435 176.124 57.435 174.384 57.5963 172.655C57.7575 174.384 57.7575 176.124 57.5963 177.854Z" fill="#263238"/>
<path d="M56.0254 177.854C55.8642 176.124 55.8642 174.384 56.0254 172.655C56.1866 174.384 56.1866 176.124 56.0254 177.854Z" fill="#263238"/>
<path d="M61.0558 177.854C60.8946 176.124 60.8946 174.384 61.0558 172.655C61.217 174.384 61.217 176.124 61.0558 177.854Z" fill="#263238"/>
<path d="M59.4804 177.854C59.3191 176.124 59.3191 174.384 59.4804 172.655C59.6416 174.384 59.6416 176.124 59.4804 177.854Z" fill="#263238"/>
<path d="M64.52 177.854C64.3587 176.124 64.3587 174.384 64.52 172.655C64.6812 174.384 64.6812 176.124 64.52 177.854Z" fill="#263238"/>
<path d="M62.9353 177.854C62.7741 176.124 62.7741 174.384 62.9353 172.655C63.0965 174.384 63.0965 176.124 62.9353 177.854Z" fill="#263238"/>
<path d="M68.0026 177.854C67.8413 176.124 67.8413 174.384 68.0026 172.655C68.1638 174.384 68.1638 176.124 68.0026 177.854Z" fill="#263238"/>
<path d="M66.4041 177.854C66.2428 176.124 66.2428 174.384 66.4041 172.655C66.5699 174.384 66.5699 176.124 66.4041 177.854Z" fill="#263238"/>
<path d="M71.4437 177.854C71.2824 176.124 71.2824 174.384 71.4437 172.655C71.6049 174.384 71.6049 176.124 71.4437 177.854Z" fill="#263238"/>
<path d="M69.8682 177.854C69.707 176.124 69.707 174.384 69.8682 172.655C70.0295 174.384 70.0295 176.124 69.8682 177.854Z" fill="#263238"/>
<path d="M74.9125 177.854C74.7513 176.124 74.7513 174.384 74.9125 172.655C75.0737 174.384 75.0737 176.124 74.9125 177.854Z" fill="#263238"/>
<path d="M73.3324 177.854C73.1712 176.124 73.1712 174.384 73.3324 172.655C73.4936 174.384 73.4936 176.124 73.3324 177.854Z" fill="#263238"/>
<path d="M76.6629 172.576C76.6629 172.645 70.1815 172.696 62.189 172.696C54.1966 172.696 47.7335 172.631 47.7335 172.576C47.7335 172.521 54.215 172.456 62.2121 172.456C70.2091 172.456 76.6629 172.511 76.6629 172.576Z" fill="#263238"/>
<path d="M74.7789 177.9H45.96V183.14H74.7789V177.9Z" fill="#B2C136"/>
<path d="M48.7838 183.177C48.6226 181.447 48.6226 179.708 48.7838 177.978C48.9451 179.708 48.9451 181.447 48.7838 183.177Z" fill="#263238"/>
<path d="M47.2084 183.177C47.0472 181.447 47.0472 179.708 47.2084 177.978C47.3696 179.708 47.3696 181.447 47.2084 183.177Z" fill="#263238"/>
<path d="M52.248 183.177C52.0868 181.447 52.0868 179.708 52.248 177.978C52.4092 179.708 52.4092 181.447 52.248 183.177Z" fill="#263238"/>
<path d="M50.6679 183.177C50.5067 181.447 50.5067 179.708 50.6679 177.978C50.8292 179.708 50.8292 181.447 50.6679 183.177Z" fill="#263238"/>
<path d="M55.7076 183.177C55.5464 181.447 55.5464 179.708 55.7076 177.978C55.8688 179.708 55.8688 181.447 55.7076 183.177Z" fill="#263238"/>
<path d="M54.1321 183.177C53.9709 181.447 53.9709 179.708 54.1321 177.978C54.2933 179.708 54.2933 181.447 54.1321 183.177Z" fill="#263238"/>
<path d="M59.1717 183.177C59.0105 181.447 59.0105 179.708 59.1717 177.978C59.3329 179.708 59.3329 181.447 59.1717 183.177Z" fill="#263238"/>
<path d="M57.5963 183.177C57.435 181.447 57.435 179.708 57.5963 177.978C57.7575 179.708 57.7575 181.447 57.5963 183.177Z" fill="#263238"/>
<path d="M62.6359 183.177C62.4701 181.447 62.4701 179.708 62.6359 177.978C62.7971 179.708 62.7971 181.447 62.6359 183.177Z" fill="#263238"/>
<path d="M61.0558 183.177C60.8946 181.447 60.8946 179.708 61.0558 177.978C61.217 179.708 61.217 181.447 61.0558 183.177Z" fill="#263238"/>
<path d="M66.0954 183.177C65.9342 181.447 65.9342 179.708 66.0954 177.978C66.2566 179.708 66.2566 181.447 66.0954 183.177Z" fill="#263238"/>
<path d="M64.52 183.177C64.3587 181.447 64.3587 179.708 64.52 177.978C64.6812 179.708 64.6812 181.447 64.52 183.177Z" fill="#263238"/>
<path d="M69.5596 183.177C69.3984 181.447 69.3984 179.708 69.5596 177.978C69.7208 179.708 69.7208 181.447 69.5596 183.177Z" fill="#263238"/>
<path d="M68.0026 183.177C67.8413 181.447 67.8413 179.708 68.0026 177.978C68.1638 179.708 68.1638 181.447 68.0026 183.177Z" fill="#263238"/>
<path d="M73.0192 183.177C72.8579 181.447 72.8579 179.708 73.0192 177.978C73.1804 179.708 73.1804 181.447 73.0192 183.177Z" fill="#263238"/>
<path d="M71.4437 183.177C71.2824 181.447 71.2824 179.708 71.4437 177.978C71.6049 179.708 71.6049 181.447 71.4437 183.177Z" fill="#263238"/>
<path d="M74.7789 177.9C74.7789 177.969 68.2974 178.02 60.3003 178.02C52.3033 178.02 45.8264 177.969 45.8264 177.9C45.8264 177.831 52.3079 177.78 60.3003 177.78C68.2928 177.78 74.7789 177.835 74.7789 177.9Z" fill="#263238"/>
<path d="M77.1328 183.177H48.314V188.417H77.1328V183.177Z" fill="#B2C136"/>
<path d="M51.1378 188.454C50.9766 186.724 50.9766 184.985 51.1378 183.255C51.2991 184.985 51.2991 186.724 51.1378 188.454Z" fill="#263238"/>
<path d="M49.5762 188.454C49.415 186.72 49.415 184.976 49.5762 183.242C49.7374 184.972 49.7374 186.711 49.5762 188.441V188.454Z" fill="#263238"/>
<path d="M54.602 188.454C54.4408 186.724 54.4408 184.985 54.602 183.255C54.7632 184.985 54.7632 186.724 54.602 188.454Z" fill="#263238"/>
<path d="M53.0265 188.454C52.8653 186.724 52.8653 184.985 53.0265 183.255C53.1877 184.985 53.1877 186.724 53.0265 188.454Z" fill="#263238"/>
<path d="M58.0615 188.454C57.9003 186.724 57.9003 184.985 58.0615 183.255C58.2228 184.985 58.2228 186.724 58.0615 188.454Z" fill="#263238"/>
<path d="M56.4861 188.454C56.3249 186.72 56.3249 184.976 56.4861 183.242C56.6473 184.972 56.6473 186.711 56.4861 188.441V188.454Z" fill="#263238"/>
<path d="M61.5257 188.454C61.3645 186.724 61.3645 184.985 61.5257 183.255C61.6869 184.985 61.6869 186.724 61.5257 188.454Z" fill="#263238"/>
<path d="M59.9503 188.454C59.789 186.724 59.789 184.985 59.9503 183.255C60.1115 184.985 60.1115 186.724 59.9503 188.454Z" fill="#263238"/>
<path d="M64.9899 188.454C64.8286 186.724 64.8286 184.985 64.9899 183.255C65.1511 184.985 65.1511 186.724 64.9899 188.454Z" fill="#263238"/>
<path d="M63.3959 188.454C63.2347 186.72 63.2347 184.976 63.3959 183.242C63.5572 184.972 63.5572 186.711 63.3959 188.441V188.454Z" fill="#263238"/>
<path d="M68.4632 188.454C68.302 186.72 68.302 184.976 68.4632 183.242C68.6244 184.972 68.6244 186.711 68.4632 188.441V188.454Z" fill="#263238"/>
<path d="M66.874 188.454C66.7127 186.724 66.7127 184.985 66.874 183.255C67.0352 184.985 67.0352 186.724 66.874 188.454Z" fill="#263238"/>
<path d="M71.9136 188.454C71.7524 186.724 71.7524 184.985 71.9136 183.255C72.0748 184.985 72.0748 186.724 71.9136 188.454Z" fill="#263238"/>
<path d="M70.3381 188.454C70.1769 186.724 70.1769 184.985 70.3381 183.255C70.4994 184.985 70.4994 186.724 70.3381 188.454Z" fill="#263238"/>
<path d="M75.3731 188.454C75.2119 186.72 75.2119 184.976 75.3731 183.242C75.5344 184.972 75.5344 186.711 75.3731 188.441V188.454Z" fill="#263238"/>
<path d="M73.7977 188.454C73.6365 186.724 73.6365 184.985 73.7977 183.255C73.9635 184.985 73.9635 186.724 73.7977 188.454Z" fill="#263238"/>
<path d="M77.1328 183.177C77.1328 183.246 70.6329 183.297 62.622 183.297C54.6112 183.297 48.1113 183.246 48.1113 183.177C48.1113 183.108 54.6066 183.057 62.622 183.057C70.6375 183.057 77.1328 183.112 77.1328 183.177Z" fill="#263238"/>
<path d="M74.8756 188.376H46.0568V193.616H74.8756V188.376Z" fill="#B2C136"/>
<path d="M48.8806 193.653C48.7193 191.923 48.7193 190.184 48.8806 188.454C49.0418 190.184 49.0418 191.923 48.8806 193.653Z" fill="#263238"/>
<path d="M47.3051 193.653C47.1439 191.923 47.1439 190.184 47.3051 188.454C47.4664 190.184 47.4664 191.923 47.3051 193.653Z" fill="#263238"/>
<path d="M52.3402 193.653C52.1789 191.923 52.1789 190.184 52.3402 188.454C52.5014 190.184 52.5014 191.923 52.3402 193.653Z" fill="#263238"/>
<path d="M50.7647 193.653C50.6034 191.923 50.6034 190.184 50.7647 188.454C50.9259 190.184 50.9259 191.923 50.7647 193.653Z" fill="#263238"/>
<path d="M55.8043 193.653C55.6431 191.923 55.6431 190.184 55.8043 188.454C55.9656 190.184 55.9656 191.923 55.8043 193.653Z" fill="#263238"/>
<path d="M54.2288 193.653C54.0676 191.923 54.0676 190.184 54.2288 188.454C54.3901 190.184 54.3901 191.923 54.2288 193.653Z" fill="#263238"/>
<path d="M59.25 193.653C59.0888 191.923 59.0888 190.184 59.25 188.454C59.4112 190.184 59.4112 191.923 59.25 193.653Z" fill="#263238"/>
<path d="M57.693 193.653C57.5318 191.923 57.5318 190.184 57.693 188.454C57.8542 190.184 57.8542 191.923 57.693 193.653Z" fill="#263238"/>
<path d="M62.728 193.653C62.5668 191.923 62.5668 190.184 62.728 188.454C62.8893 190.184 62.8893 191.923 62.728 193.653Z" fill="#263238"/>
<path d="M61.1525 193.653C60.9913 191.923 60.9913 190.184 61.1525 188.454C61.3138 190.184 61.3138 191.923 61.1525 193.653Z" fill="#263238"/>
<path d="M66.1922 193.653C66.031 191.923 66.031 190.184 66.1922 188.454C66.3534 190.184 66.3534 191.923 66.1922 193.653Z" fill="#263238"/>
<path d="M64.6167 193.653C64.4555 191.923 64.4555 190.184 64.6167 188.454C64.7779 190.184 64.7779 191.923 64.6167 193.653Z" fill="#263238"/>
<path d="M69.6563 193.653C69.4951 191.923 69.4951 190.184 69.6563 188.454C69.8176 190.184 69.8176 191.923 69.6563 193.653Z" fill="#263238"/>
<path d="M68.0763 193.653C67.9151 191.923 67.9151 190.184 68.0763 188.454C68.2421 190.184 68.2421 191.923 68.0763 193.653Z" fill="#263238"/>
<path d="M73.1159 193.653C72.9547 191.923 72.9547 190.184 73.1159 188.454C73.2771 190.184 73.2771 191.923 73.1159 193.653Z" fill="#263238"/>
<path d="M71.5404 193.653C71.3792 191.923 71.3792 190.184 71.5404 188.454C71.7016 190.184 71.7016 191.923 71.5404 193.653Z" fill="#263238"/>
<path d="M74.871 188.376C74.871 188.441 68.3895 188.496 60.3971 188.496C52.4046 188.496 45.9232 188.441 45.9232 188.376C45.9232 188.311 52.4 188.256 60.3971 188.256C68.3941 188.256 74.871 188.316 74.871 188.376Z" fill="#263238"/>
<path d="M77.7639 193.69H48.9451V198.931H77.7639V193.69Z" fill="#B2C136"/>
<path d="M51.7689 198.968C51.6077 197.238 51.6077 195.499 51.7689 193.769C51.9302 195.499 51.9302 197.238 51.7689 198.968Z" fill="#263238"/>
<path d="M50.1935 198.968C50.0323 197.238 50.0323 195.499 50.1935 193.769C50.3547 195.499 50.3547 197.238 50.1935 198.968Z" fill="#263238"/>
<path d="M55.2285 198.968C55.0672 197.238 55.0672 195.499 55.2285 193.769C55.3897 195.499 55.3897 197.238 55.2285 198.968Z" fill="#263238"/>
<path d="M53.653 198.968C53.4918 197.238 53.4918 195.499 53.653 193.769C53.8143 195.499 53.8143 197.238 53.653 198.968Z" fill="#263238"/>
<path d="M58.6926 198.968C58.5314 197.238 58.5314 195.499 58.6926 193.769C58.8539 195.499 58.8539 197.238 58.6926 198.968Z" fill="#263238"/>
<path d="M57.1172 198.968C56.956 197.238 56.956 195.499 57.1172 193.769C57.2784 195.499 57.2784 197.238 57.1172 198.968Z" fill="#263238"/>
<path d="M62.1568 198.968C61.9956 197.238 61.9956 195.499 62.1568 193.769C62.318 195.499 62.318 197.238 62.1568 198.968Z" fill="#263238"/>
<path d="M60.5767 198.968C60.4155 197.238 60.4155 195.499 60.5767 193.769C60.7426 195.499 60.7426 197.238 60.5767 198.968Z" fill="#263238"/>
<path d="M65.6163 198.968C65.4551 197.238 65.4551 195.499 65.6163 193.769C65.7776 195.499 65.7776 197.238 65.6163 198.968Z" fill="#263238"/>
<path d="M64.0409 198.968C63.8797 197.238 63.8797 195.499 64.0409 193.769C64.2021 195.499 64.2021 197.238 64.0409 198.968Z" fill="#263238"/>
<path d="M69.0805 198.968C68.9193 197.238 68.9193 195.499 69.0805 193.769C69.2417 195.499 69.2417 197.238 69.0805 198.968Z" fill="#263238"/>
<path d="M67.5051 198.968C67.3438 197.238 67.3438 195.499 67.5051 193.769C67.6663 195.499 67.6663 197.238 67.5051 198.968Z" fill="#263238"/>
<path d="M72.5447 198.968C72.3835 197.238 72.3835 195.499 72.5447 193.769C72.7059 195.499 72.7059 197.238 72.5447 198.968Z" fill="#263238"/>
<path d="M70.9646 198.968C70.8034 197.238 70.8034 195.499 70.9646 193.769C71.1258 195.499 71.1258 197.238 70.9646 198.968Z" fill="#263238"/>
<path d="M76.0042 198.968C75.843 197.238 75.843 195.499 76.0042 193.769C76.1655 195.499 76.1655 197.238 76.0042 198.968Z" fill="#263238"/>
<path d="M74.4518 198.968C74.2906 197.238 74.2906 195.499 74.4518 193.769C74.613 195.499 74.613 197.238 74.4518 198.968Z" fill="#263238"/>
<path d="M77.7593 193.69C77.7593 193.759 71.2778 193.81 63.2854 193.81C55.2929 193.81 48.8115 193.759 48.8115 193.69C48.8115 193.621 55.2883 193.57 63.2854 193.57C71.2824 193.57 77.7593 193.626 77.7593 193.69Z" fill="#263238"/>
<g opacity="0.3">
<path d="M48.314 183.177C52.6764 184.178 57.1678 184.506 61.627 184.146C66.0494 183.855 70.5132 183.223 74.9447 183.255L48.314 183.177Z" fill="black"/>
</g>
<g opacity="0.3">
<path d="M48.5765 177.959C52.939 178.961 57.4258 179.288 61.885 178.933C66.3073 178.638 70.7757 177.987 75.2073 178.038L48.5765 177.959Z" fill="black"/>
</g>
<g opacity="0.3">
<path d="M49.9678 188.427C54.3302 189.428 58.8216 189.755 63.2808 189.4C67.7032 189.105 72.167 188.454 76.5985 188.505L49.9678 188.427Z" fill="black"/>
</g>
<g opacity="0.3">
<path d="M48.8391 193.663C53.2016 194.659 57.693 194.987 62.1522 194.631C66.5745 194.336 71.0383 193.686 75.4698 193.736L48.8391 193.663Z" fill="black"/>
</g>
<path d="M48.3739 176.16C48.2126 175.21 48.2126 174.241 48.3739 173.291C48.5351 174.241 48.5351 175.21 48.3739 176.16Z" fill="white"/>
<path d="M46.5589 181.761C46.3976 180.741 46.3976 179.703 46.5589 178.684C46.7201 179.703 46.7201 180.741 46.5589 181.761Z" fill="white"/>
<path d="M49.1431 187.149C48.9819 186.249 48.9819 185.322 49.1431 184.423C49.3044 185.322 49.3044 186.249 49.1431 187.149Z" fill="white"/>
<path d="M46.4898 192.122C46.324 191.315 46.324 190.48 46.4898 189.672C46.651 190.48 46.651 191.315 46.4898 192.122Z" fill="white"/>
<path d="M57.0435 178.333C57.0435 178.398 54.9152 178.453 52.2895 178.453C49.6637 178.453 47.5355 178.398 47.5355 178.333C49.1155 178.213 50.7048 178.172 52.2895 178.213C53.8741 178.172 55.4634 178.213 57.0435 178.333Z" fill="white"/>
<path d="M60.1161 173.291C58.5222 173.411 56.9283 173.453 55.3298 173.411C53.7313 173.453 52.1375 173.411 50.5436 173.291C50.5436 173.226 52.6856 173.171 55.3298 173.171C57.974 173.171 60.1161 173.226 60.1161 173.291Z" fill="white"/>
<path d="M64.7273 173.365C63.6862 173.526 62.6267 173.526 61.5856 173.365C62.6267 173.204 63.6862 173.204 64.7273 173.365Z" fill="white"/>
</g>
<defs>
<clipPath id="clip0_46_174">
<rect width="300" height="199" fill="white"/>
</clipPath>
</defs>
</svg>
