<svg width="221" height="218" viewBox="0 0 221 218" fill="none" xmlns="http://www.w3.org/2000/svg">
<g clip-path="url(#clip0_46_62)">
<path d="M32.3639 199.389C-10.788 174.573 -10.788 134.339 32.3639 109.528C75.5158 84.7161 145.484 84.7115 188.636 109.528C231.788 134.344 231.788 174.573 188.636 199.389C145.484 224.205 75.5158 224.201 32.3639 199.389Z" fill="#F0F0F0"/>
<path d="M90.8336 204.072L24.9536 166.161C22.3843 164.68 22.3843 162.265 24.9536 160.784L131.625 99.3985C132.838 98.7923 134.264 98.7923 135.477 99.3985L202.955 138.244C203.931 138.804 204.265 140.044 203.703 141.012C203.522 141.322 203.266 141.576 202.955 141.757L94.7037 204.072C93.4864 204.683 92.0508 204.683 90.8336 204.072Z" fill="#E0E0E0"/>
<path d="M172.891 198.815C186.377 198.815 197.31 192.53 197.31 184.776C197.31 177.023 186.377 170.737 172.891 170.737C159.404 170.737 148.472 177.023 148.472 184.776C148.472 192.53 159.404 198.815 172.891 198.815Z" fill="#E0E0E0"/>
<path d="M31.7553 144.135C31.7553 144.135 31.6159 134.256 27.4949 126.191C23.3739 118.125 17.1437 112.73 10.9366 111.619C4.72961 110.509 -0.892026 115.738 5.40792 120.337C11.7079 124.937 23.1927 130.128 27.1929 145.389L31.7553 144.135Z" fill="#5BB2E3"/>
<path opacity="0.15" d="M31.7553 144.135C31.7553 144.135 31.6159 134.256 27.4949 126.191C23.3739 118.125 17.1437 112.73 10.9366 111.619C4.72961 110.509 -0.892026 115.738 5.40792 120.337C11.7079 124.937 23.1927 130.128 27.1929 145.389L31.7553 144.135Z" fill="black"/>
<path d="M30.1756 141.414C30.1756 141.414 30.2175 141.414 30.2407 141.414C30.4172 141.368 30.5195 141.183 30.4683 141.012C30.4683 141.012 30.4683 141.007 30.4683 141.002C25.4879 124.159 13.5988 116.154 8.00503 114.275C7.82384 114.229 7.64264 114.34 7.59618 114.516C7.55437 114.673 7.638 114.84 7.79132 114.904C13.2689 116.755 24.921 124.622 29.8272 141.187C29.8737 141.335 30.0223 141.428 30.1756 141.414Z" fill="white"/>
<path d="M32.3825 153.478C30.0595 154.796 28.7586 155.652 24.5354 156.004C21.5248 156.203 18.5096 155.796 15.6616 154.806C14.8764 154.523 13.6638 153.908 14.3468 153.158C14.6999 152.77 18.8441 152.112 20.3262 150.382C18.4306 150.933 16.4839 151.275 14.514 151.409C12.7021 151.511 10.9134 150.965 9.47315 149.868C8.10259 148.73 7.36388 147.032 6.68557 145.394C6.44862 144.834 6.22097 144.149 6.588 143.663C6.85282 143.381 7.20592 143.191 7.59153 143.131L12.2979 141.821C13.3247 141.604 12.5999 140.933 12.2143 140.873C11.6475 140.794 11.076 140.766 10.5046 140.799C8.70657 140.896 6.72273 141.234 5.2546 140.193C4.3951 139.517 3.819 138.541 3.64245 137.463C3.56811 137.092 3.25683 132.262 3.47055 132.201C4.65063 131.905 5.84929 131.697 7.06189 131.581C8.20016 131.447 9.31054 131.396 10.4442 131.243C11.7265 131.072 13.018 130.989 14.3096 130.994C14.751 130.957 15.1877 131.045 15.5826 131.243C16.0612 131.623 16.3492 132.192 16.3631 132.803C16.3724 133.404 16.4514 134.001 16.6047 134.58C17.153 134.533 17.3342 133.816 17.3202 133.266C17.3063 132.715 17.3202 132.026 17.8173 131.79C18.0868 131.702 18.3749 131.702 18.6443 131.79C20.4098 132.146 22.1242 132.715 23.7549 133.478C24.5122 133.788 25.1998 134.251 25.7666 134.844C26.5564 135.769 26.7887 137.028 26.798 138.235C26.8073 139.443 26.6168 140.641 26.6958 141.845C27.625 141.002 28.9584 138.444 29.0606 137.185C31.0955 138.485 32.3128 141.174 32.6798 144.843C32.9261 147.531 32.875 150.238 32.5312 152.918C32.48 152.982 32.4475 153.413 32.3825 153.478Z" fill="#5BB2E3"/>
<path opacity="0.3" d="M32.3825 153.478C30.0595 154.796 28.7586 155.652 24.5354 156.004C21.5248 156.203 18.5096 155.796 15.6616 154.806C14.8764 154.523 13.6638 153.908 14.3468 153.158C14.6999 152.77 18.8441 152.112 20.3262 150.382C18.4306 150.933 16.4839 151.275 14.514 151.409C12.7021 151.511 10.9134 150.965 9.47315 149.868C8.10259 148.73 7.36388 147.032 6.68557 145.394C6.44862 144.834 6.22097 144.149 6.588 143.663C6.85282 143.381 7.20592 143.191 7.59153 143.131L12.2979 141.821C13.3247 141.604 12.5999 140.933 12.2143 140.873C11.6475 140.794 11.076 140.766 10.5046 140.799C8.70657 140.896 6.72273 141.234 5.2546 140.193C4.3951 139.517 3.819 138.541 3.64245 137.463C3.56811 137.092 3.25683 132.262 3.47055 132.201C4.65063 131.905 5.84929 131.697 7.06189 131.581C8.20016 131.447 9.31054 131.396 10.4442 131.243C11.7265 131.072 13.018 130.989 14.3096 130.994C14.751 130.957 15.1877 131.045 15.5826 131.243C16.0612 131.623 16.3492 132.192 16.3631 132.803C16.3724 133.404 16.4514 134.001 16.6047 134.58C17.153 134.533 17.3342 133.816 17.3202 133.266C17.3063 132.715 17.3202 132.026 17.8173 131.79C18.0868 131.702 18.3749 131.702 18.6443 131.79C20.4098 132.146 22.1242 132.715 23.7549 133.478C24.5122 133.788 25.1998 134.251 25.7666 134.844C26.5564 135.769 26.7887 137.028 26.798 138.235C26.8073 139.443 26.6168 140.641 26.6958 141.845C27.625 141.002 28.9584 138.444 29.0606 137.185C31.0955 138.485 32.3128 141.174 32.6798 144.843C32.9261 147.531 32.875 150.238 32.5312 152.918C32.48 152.982 32.4475 153.413 32.3825 153.478Z" fill="black"/>
<path d="M31.9829 153.015C31.8807 153.015 31.7878 152.959 31.7367 152.867C25.144 140.262 10.565 134.95 7.02008 134.219C6.86676 134.186 6.77384 134.038 6.80636 133.89C6.83888 133.742 6.98755 133.645 7.13623 133.677C10.7322 134.422 25.539 139.813 32.2245 152.617C32.2942 152.751 32.2431 152.918 32.1084 152.987C32.0712 153.01 32.0247 153.019 31.9829 153.019V153.015Z" fill="white"/>
<path d="M12.8508 145.736C12.7068 145.736 12.586 145.62 12.572 145.477C12.5581 145.329 12.6696 145.195 12.8229 145.181C12.8229 145.181 12.8229 145.181 12.8276 145.181C20.1032 144.612 22.454 141.775 22.4773 141.747C22.5795 141.636 22.756 141.627 22.8722 141.734C22.9744 141.826 22.993 141.979 22.914 142.09C22.8164 142.215 20.4191 145.144 12.874 145.732H12.8508V145.736Z" fill="white"/>
<path d="M208.066 110.583C204.841 114.095 198.927 119.874 195.489 125.455C195.48 125.469 195.47 125.482 195.466 125.496C194.123 127.685 193.143 129.841 192.896 131.817L192.655 135.385L191.182 134.538L190.936 134.395L190.327 134.048C189.454 133.543 188.906 132.622 188.878 131.618C188.641 122.919 190.978 115.525 193.236 111.05C196.325 104.937 202.114 98.7044 207.146 99.3152C211.843 99.8844 212.581 105.687 208.066 110.583Z" fill="#5BB2E3"/>
<path opacity="0.15" d="M208.066 110.583C204.841 114.095 198.927 119.874 195.489 125.455C195.48 125.469 195.47 125.482 195.466 125.496C194.123 127.685 193.143 129.841 192.896 131.817L192.655 135.385L191.182 134.538L190.936 134.395L190.327 134.048C189.454 133.543 188.906 132.622 188.878 131.618C188.641 122.919 190.978 115.525 193.236 111.05C196.325 104.937 202.114 98.7044 207.146 99.3152C211.843 99.8844 212.581 105.687 208.066 110.583Z" fill="black"/>
<path d="M205.71 102.688C199.55 106.566 190.755 120.082 190.954 134.394L190.346 134.047C190.295 119.647 199.173 106.099 205.385 102.179C205.524 102.091 205.715 102.133 205.803 102.272C205.891 102.411 205.849 102.6 205.71 102.688Z" fill="white"/>
<path d="M211.736 122.049C210.663 124.95 204.539 127.467 200.019 131.655C198.899 132.692 197.858 133.811 196.915 135.01C196.042 136.12 194.476 136.421 193.25 135.713L192.711 135.403H192.673L191.201 134.556C192.102 131.322 193.552 128.263 195.484 125.515C195.489 125.501 195.498 125.487 195.508 125.473C198.5 121.151 202.193 118.028 204.772 117.32C209.84 115.913 213.023 118.565 211.736 122.049Z" fill="#5BB2E3"/>
<path opacity="0.3" d="M211.736 122.049C210.663 124.95 204.539 127.467 200.019 131.655C198.899 132.692 197.858 133.811 196.915 135.01C196.042 136.12 194.476 136.421 193.25 135.713L192.711 135.403H192.673L191.201 134.556C192.102 131.322 193.552 128.263 195.484 125.515C195.489 125.501 195.498 125.487 195.508 125.473C198.5 121.151 202.193 118.028 204.772 117.32C209.84 115.913 213.023 118.565 211.736 122.049Z" fill="black"/>
<path d="M207.429 120.305C203.712 121.346 196.553 125.857 193.25 135.713L192.711 135.403C196.06 125.413 203.192 120.869 207.266 119.726C207.424 119.671 207.596 119.759 207.647 119.916C207.699 120.073 207.615 120.244 207.457 120.295C207.448 120.295 207.434 120.3 207.424 120.305H207.429Z" fill="white"/>
<path d="M28.3126 159.174C28.3126 160.779 29.5206 162.774 31.0073 163.63L89.6814 197.376C91.3771 198.232 93.3749 198.232 95.0707 197.376L198.383 137.967C199.875 137.111 201.078 135.116 201.078 133.511C201.078 131.905 199.875 129.906 198.383 129.05L139.714 95.308C138.018 94.452 136.02 94.452 134.325 95.308L31.0073 154.718C29.5206 155.574 28.3126 157.568 28.3126 159.174Z" fill="#455A64"/>
<path d="M201.097 133.511C201.097 135.116 199.889 137.106 198.402 137.967L95.0707 197.376C94.2391 197.811 93.3145 198.033 92.376 198.015V192.203C93.3145 192.217 94.2391 191.995 95.0707 191.56L198.388 132.15C199.689 131.405 199.852 130.244 198.876 129.374C200.126 130.364 201.097 132.086 201.097 133.511Z" fill="#37474F"/>
<path d="M92.3807 192.208V198.015C91.4422 198.033 90.513 197.816 89.686 197.376L31.0073 163.63C29.5206 162.774 28.3126 160.779 28.3126 159.174C28.3126 157.665 29.3765 155.819 30.7332 154.889C29.5252 155.749 29.6181 157.017 31.0073 157.818L89.6814 191.564C90.513 192.004 91.4422 192.226 92.3807 192.208Z" fill="#263238"/>
<path d="M25.7852 154.81C24.4657 153.885 24.4657 152.654 24.4657 150.942V64.4673C24.5726 62.584 25.5715 60.8672 27.1604 59.84L130.478 0.411937C131.969 -0.444108 133.34 0.175947 134.738 0.976465C136.137 1.77698 137.024 2.4757 137.024 4.18316V90.6576C136.912 92.5363 135.914 94.253 134.329 95.2849L31.0073 154.718C28.754 156.254 27.2162 155.819 25.7852 154.81Z" fill="#37474F"/>
<path d="M31.0073 154.717C28.754 156.226 27.2162 155.819 25.7852 154.81C24.4704 153.885 24.4657 152.654 24.4657 150.942V64.4718C24.4983 63.5371 24.7677 62.6301 25.2509 61.8296L29.0978 64.0553C28.6146 64.8512 28.3451 65.7628 28.3126 66.6929V153.167C28.3126 154.866 29.5159 155.569 31.0073 154.717Z" fill="#263238"/>
<path d="M137.019 4.18316C137.019 2.4757 135.811 1.78161 134.325 2.63303L31.0073 62.0472C30.2082 62.5377 29.5531 63.2318 29.1024 64.0508L25.2556 61.8251C25.7109 61.0061 26.3706 60.3166 27.1651 59.8168L130.478 0.411937C131.964 -0.444108 133.34 0.175947 134.733 0.976465C136.127 1.77698 137.019 2.4757 137.019 4.18316Z" fill="#455A64"/>
<path d="M32.4475 65.1427L132.067 7.87562C132.959 7.36199 133.683 7.77844 133.683 8.80107V88.1218C133.618 89.2508 133.019 90.2827 132.067 90.8981L32.4475 148.174C31.5555 148.688 30.8307 148.272 30.8307 147.249V67.9283C30.8911 66.7947 31.4951 65.7628 32.4475 65.1427Z" fill="#263238"/>
<path d="M32.4475 65.1429C31.4951 65.7584 30.8958 66.7902 30.8307 67.9193V146.763L129.855 89.8479C130.808 89.2325 131.407 88.2006 131.472 87.0716V8.21362L32.4475 65.1429Z" fill="#5BB2E3"/>
<path opacity="0.65" d="M32.4475 65.1429C31.4951 65.7584 30.8958 66.7902 30.8307 67.9193V146.763L129.855 89.8479C130.808 89.2325 131.407 88.2006 131.472 87.0716V8.21362L32.4475 65.1429Z" fill="white"/>
<path d="M38.4873 154.866L134.366 99.7317C135.212 99.3014 136.216 99.3014 137.061 99.7317L139.849 101.189C140.592 101.62 140.592 102.314 139.849 102.739L43.937 157.873C43.0915 158.304 42.0879 158.304 41.2424 157.873L38.4548 156.425C37.7207 155.995 37.7207 155.301 38.4873 154.866Z" fill="#37474F"/>
<path d="M45.9859 159.331L141.884 104.183C142.641 103.757 143.547 103.711 144.346 104.049L169.309 118.393C169.922 118.75 169.82 119.384 169.077 119.809L73.2903 174.874C72.5377 175.304 71.6224 175.355 70.8233 175.013L45.7583 160.742C45.1404 160.391 45.2426 159.757 45.9859 159.331Z" fill="#263238"/>
<path d="M128.294 127.102L131.295 125.376C131.421 125.302 131.439 125.196 131.337 125.136L128.689 123.609C128.55 123.548 128.396 123.558 128.266 123.636L125.265 125.362C125.139 125.436 125.121 125.543 125.223 125.603L127.871 127.125C128.006 127.185 128.164 127.176 128.294 127.102ZM124.113 121.239L121.107 122.965C120.981 123.039 120.963 123.146 121.065 123.206L123.718 124.728C123.853 124.788 124.006 124.779 124.136 124.705L127.137 122.979C127.267 122.905 127.286 122.799 127.179 122.739L124.531 121.216C124.391 121.161 124.229 121.175 124.103 121.258L124.113 121.239ZM114.403 126.838L109.32 129.758C109.194 129.832 109.176 129.939 109.278 129.999L111.926 131.521C112.061 131.581 112.219 131.572 112.349 131.498L117.427 128.578C117.557 128.504 117.576 128.393 117.469 128.333L114.821 126.811C114.686 126.755 114.528 126.764 114.403 126.838ZM119.713 123.78L116.712 125.506C116.582 125.58 116.563 125.691 116.67 125.751L119.318 127.273C119.453 127.333 119.606 127.324 119.736 127.25L122.742 125.524C122.868 125.45 122.886 125.339 122.784 125.279L120.136 123.757C120.001 123.696 119.843 123.706 119.713 123.78ZM107.935 130.554L104.925 132.28C104.795 132.354 104.776 132.465 104.878 132.521L107.531 134.048C107.666 134.103 107.824 134.094 107.949 134.02L110.951 132.294C111.081 132.22 111.099 132.113 110.992 132.053L108.344 130.531C108.21 130.475 108.061 130.485 107.935 130.554ZM103.531 133.081L100.53 134.807C100.4 134.876 100.381 134.987 100.488 135.047L103.136 136.57C103.266 136.634 103.424 136.634 103.554 136.57L106.56 134.844C106.686 134.769 106.704 134.658 106.602 134.598L103.954 133.076C103.819 133.011 103.661 133.011 103.531 133.081ZM114.681 139.744L117.683 138.013C117.813 137.944 117.831 137.833 117.725 137.773L115.076 136.25C114.942 136.19 114.788 136.199 114.658 136.273L111.657 137.999C111.527 138.073 111.508 138.184 111.615 138.245L114.263 139.767C114.398 139.827 114.551 139.818 114.681 139.744ZM110.296 142.266L113.288 140.521C113.413 140.447 113.432 140.341 113.329 140.281L110.681 138.758C110.546 138.689 110.393 138.689 110.258 138.758L107.248 140.521C107.122 140.595 107.104 140.702 107.206 140.762L109.854 142.284C109.994 142.349 110.156 142.344 110.286 142.266H110.296ZM105.905 144.788L108.906 143.062C109.037 142.988 109.055 142.881 108.948 142.821L106.3 141.299C106.165 141.238 106.012 141.248 105.882 141.322L102.876 143.048C102.75 143.122 102.732 143.228 102.839 143.288L105.487 144.811C105.622 144.866 105.77 144.857 105.896 144.788H105.905ZM101.515 147.314L104.521 145.588C104.646 145.514 104.665 145.403 104.562 145.343L101.914 143.82C101.779 143.76 101.622 143.77 101.491 143.844L98.4901 145.57C98.3601 145.644 98.3415 145.755 98.4483 145.815L101.097 147.337C101.231 147.393 101.38 147.383 101.505 147.314H101.515ZM123.913 129.642L126.914 127.917C127.044 127.842 127.063 127.736 126.956 127.676L124.299 126.177C124.164 126.116 124.011 126.126 123.88 126.2L120.874 127.926C120.749 128 120.73 128.106 120.833 128.166L123.481 129.689C123.62 129.744 123.778 129.726 123.904 129.642H123.913ZM119.072 137.217L125.767 133.367C125.897 133.293 125.915 133.187 125.809 133.127L118.997 129.208C118.863 129.147 118.705 129.157 118.575 129.231L115.113 131.225C114.983 131.299 114.965 131.405 115.072 131.466L118.858 133.64C118.96 133.701 118.942 133.812 118.816 133.886L116.029 135.477C115.903 135.552 115.885 135.658 115.987 135.718L118.635 137.24C118.774 137.301 118.932 137.296 119.063 137.217H119.072ZM99.1685 135.602L96.1625 137.328C96.0371 137.402 96.0185 137.509 96.1207 137.569L98.7689 139.091C98.9036 139.152 99.0616 139.142 99.1917 139.068L102.193 137.342C102.323 137.268 102.342 137.162 102.235 137.102L99.5866 135.579C99.4472 135.519 99.2892 135.524 99.1592 135.602H99.1685ZM94.778 138.124L91.7767 139.85C91.6466 139.924 91.628 140.035 91.7349 140.095L94.3831 141.618C94.5178 141.673 94.6758 141.664 94.8012 141.59L97.8072 139.864C97.9326 139.795 97.9512 139.684 97.849 139.623L95.1683 138.101C95.0382 138.05 94.8895 138.055 94.7687 138.124H94.778ZM70.368 164.999C70.4981 165.064 70.6561 165.064 70.7862 164.999L73.7921 163.273C73.9175 163.199 73.9361 163.093 73.8339 163.033L71.1857 161.51C71.051 161.45 70.893 161.46 70.7629 161.534L67.757 163.236C67.6315 163.31 67.613 163.417 67.7152 163.477L70.368 164.999ZM59.6823 158.313L56.6763 160.039C56.5509 160.113 56.5323 160.219 56.6345 160.28L59.2827 161.802C59.4174 161.862 59.5754 161.853 59.7055 161.779L62.7068 160.053C62.8369 159.979 62.8555 159.872 62.7486 159.812L60.1004 158.29C59.961 158.225 59.7984 158.234 59.6637 158.313H59.6823ZM65.067 163.269C65.2017 163.329 65.355 163.32 65.4851 163.246L68.491 161.52C68.6165 161.446 68.6351 161.339 68.5329 161.279L65.8846 159.752C65.7453 159.692 65.5919 159.701 65.4619 159.78L62.4606 161.506C62.3305 161.58 62.3119 161.686 62.4187 161.746L65.067 163.269ZM77.2812 166.045L80.2825 164.319C80.4126 164.245 80.4312 164.134 80.3244 164.074L77.6761 162.552C77.5414 162.491 77.3881 162.501 77.258 162.575L74.2613 164.305C74.1313 164.375 74.1127 164.486 74.2195 164.546L76.8677 166.068C76.9978 166.119 77.1419 166.11 77.2627 166.045H77.2812ZM72.4726 168.59C72.6074 168.65 72.7653 168.641 72.8954 168.567L75.8967 166.841C76.0222 166.767 76.0408 166.661 75.9385 166.6L73.2903 165.078C73.1556 165.018 72.9976 165.027 72.8676 165.101L69.8663 166.827C69.7408 166.901 69.7222 167.008 69.8244 167.068L72.4726 168.59ZM64.0402 155.791L61.0389 157.517C60.9088 157.591 60.8902 157.698 60.9971 157.758L63.6453 159.28C63.78 159.34 63.9333 159.331 64.0634 159.257L67.0694 157.531C67.1948 157.457 67.2134 157.351 67.1112 157.29L64.463 155.763C64.3236 155.703 64.1703 155.713 64.0402 155.791ZM85.9832 143.173L82.9819 144.899C82.8518 144.973 82.8332 145.079 82.94 145.139L85.5883 146.662C85.7183 146.726 85.8763 146.726 86.0064 146.662L89.0077 144.936C89.1378 144.862 89.1564 144.755 89.0495 144.695L86.4013 143.173C86.2712 143.108 86.1225 143.108 85.9925 143.173H85.9832ZM68.4306 153.265L65.434 154.991C65.3085 155.065 65.29 155.176 65.3922 155.236L68.0404 156.758C68.1751 156.828 68.3284 156.828 68.4632 156.758L71.4738 155.005C71.6038 154.935 71.6224 154.824 71.5156 154.764L68.8674 153.242C68.728 153.181 68.57 153.186 68.4399 153.265H68.4306ZM90.369 140.651L87.377 142.372C87.2515 142.442 87.2329 142.553 87.3351 142.613L89.9833 144.135C90.1181 144.195 90.276 144.186 90.4061 144.112L93.4074 142.386C93.5329 142.312 93.5515 142.201 93.4492 142.141L90.801 140.618C90.6617 140.563 90.5037 140.572 90.3783 140.651H90.369ZM81.5927 145.694L78.5914 147.42C78.466 147.494 78.4474 147.606 78.5496 147.666L81.1978 149.188C81.3372 149.248 81.4905 149.239 81.6206 149.16L84.6219 147.434C84.7473 147.365 84.7659 147.254 84.6637 147.194L82.0155 145.671C81.8808 145.616 81.7274 145.62 81.602 145.694H81.5927ZM77.2069 148.221L74.2056 149.947C74.0755 150.021 74.0569 150.127 74.1638 150.188L76.812 151.71C76.9467 151.77 77.1 151.761 77.2301 151.687L80.2314 149.961C80.3615 149.887 80.3801 149.776 80.2733 149.72L77.625 148.193C77.4903 148.138 77.3416 148.147 77.2162 148.221H77.2069ZM72.8164 150.743L69.8151 152.469C69.6897 152.543 69.6711 152.649 69.7733 152.709L72.4215 154.232C72.5563 154.292 72.7142 154.283 72.8443 154.209L75.8456 152.483C75.9711 152.409 75.9897 152.302 75.8874 152.242L73.2392 150.72C73.1045 150.664 72.9512 150.669 72.8257 150.743H72.8164ZM92.7198 152.358L95.7258 150.632C95.8512 150.558 95.8698 150.451 95.7676 150.391L93.124 148.85C92.9939 148.785 92.836 148.785 92.7059 148.85L89.7046 150.576C89.5745 150.65 89.5559 150.757 89.6628 150.817L92.311 152.344C92.4411 152.413 92.5944 152.418 92.7291 152.358H92.7198ZM133.795 115.677L130.789 117.408C130.664 117.477 130.645 117.588 130.747 117.649L133.4 119.171C133.535 119.231 133.688 119.222 133.818 119.148L136.819 117.422C136.95 117.348 136.968 117.237 136.861 117.177L134.213 115.654C134.078 115.599 133.93 115.608 133.804 115.677H133.795ZM128.48 118.736L125.479 120.462C125.353 120.536 125.335 120.642 125.437 120.703L128.085 122.225C128.215 122.29 128.373 122.29 128.503 122.225L131.509 120.499C131.635 120.425 131.653 120.319 131.551 120.258L128.903 118.731C128.773 118.667 128.619 118.671 128.489 118.736H128.48ZM138.181 113.156L135.179 114.881C135.054 114.956 135.035 115.067 135.138 115.127L137.786 116.649C137.921 116.705 138.079 116.695 138.204 116.621L141.21 114.895C141.335 114.821 141.354 114.715 141.252 114.655L138.604 113.132C138.469 113.077 138.315 113.081 138.19 113.156H138.181ZM113.752 135.487L116.753 133.761C116.879 133.687 116.898 133.58 116.795 133.52L114.147 131.998C114.012 131.938 113.854 131.947 113.724 132.021L110.723 133.747C110.598 133.821 110.579 133.927 110.681 133.987L113.329 135.51C113.464 135.57 113.622 135.561 113.752 135.487ZM143.022 110.611C142.892 110.546 142.734 110.546 142.604 110.611L139.602 112.336C139.472 112.411 139.454 112.517 139.561 112.577L142.209 114.099C142.344 114.16 142.497 114.15 142.627 114.076L145.628 112.35C145.758 112.276 145.777 112.17 145.67 112.11L143.022 110.611ZM97.1196 149.836L100.121 148.11C100.251 148.036 100.27 147.929 100.163 147.869L97.5145 146.347C97.3797 146.287 97.2264 146.296 97.0963 146.37L94.0904 148.096C93.965 148.17 93.9464 148.277 94.0486 148.337L96.6968 149.859C96.8315 149.919 96.9895 149.91 97.1196 149.836ZM150.92 118.889L153.921 117.163C154.051 117.089 154.07 116.982 153.963 116.922L151.315 115.4C151.18 115.34 151.027 115.349 150.897 115.423L147.895 117.149C147.765 117.223 147.747 117.329 147.854 117.389L150.502 118.916C150.637 118.972 150.795 118.963 150.92 118.889ZM142.367 119.018L145.368 117.292C145.498 117.218 145.517 117.112 145.41 117.052L142.762 115.529C142.627 115.469 142.474 115.478 142.344 115.552L139.342 117.278C139.212 117.352 139.194 117.459 139.3 117.519L141.949 119.041C142.088 119.106 142.251 119.097 142.381 119.018H142.367ZM147.152 113.003C147.017 112.943 146.859 112.952 146.729 113.026L143.728 114.757C143.603 114.826 143.584 114.937 143.686 114.997L146.334 116.52C146.469 116.58 146.627 116.57 146.757 116.496L149.759 114.77C149.884 114.696 149.903 114.585 149.8 114.525L147.152 113.003ZM148.081 112.471L154.892 116.39C155.027 116.45 155.185 116.441 155.315 116.367L158.316 114.641C158.442 114.567 158.46 114.46 158.358 114.4L151.543 110.481C151.412 110.416 151.255 110.416 151.124 110.481L148.132 112.23C148.002 112.295 147.984 112.411 148.091 112.471H148.081ZM137.958 118.074L134.956 119.8C134.831 119.874 134.808 119.981 134.915 120.041L137.563 121.568C137.702 121.628 137.856 121.619 137.986 121.54L140.987 119.814C141.112 119.74 141.131 119.634 141.029 119.574L138.381 118.051C138.246 117.996 138.092 118 137.967 118.074H137.958ZM104.925 137.069L101.924 138.795C101.793 138.869 101.775 138.976 101.882 139.036L104.53 140.558C104.665 140.618 104.818 140.609 104.948 140.535L107.954 138.809C108.079 138.735 108.098 138.624 107.996 138.568L105.348 137.041C105.208 136.981 105.055 136.991 104.925 137.069ZM146.111 121.438C146.246 121.498 146.404 121.489 146.534 121.415L149.536 119.689C149.661 119.615 149.68 119.504 149.577 119.444L146.929 117.922C146.794 117.852 146.641 117.852 146.506 117.922L143.519 119.698C143.394 119.768 143.375 119.879 143.477 119.939L146.111 121.438ZM109.315 134.543L106.319 136.269C106.193 136.343 106.175 136.454 106.281 136.514L108.93 138.036C109.064 138.097 109.218 138.087 109.348 138.013L112.349 136.283C112.479 136.213 112.498 136.102 112.391 136.042L109.743 134.52C109.608 134.464 109.455 134.469 109.329 134.543H109.315ZM74.7445 162.478C74.8793 162.538 75.0326 162.528 75.1627 162.454L78.164 160.728C78.2941 160.654 78.3126 160.543 78.2058 160.483L75.5576 158.961C75.4275 158.896 75.2695 158.896 75.1394 158.961L72.1381 160.691C72.0081 160.761 71.9895 160.872 72.0963 160.932L74.7445 162.478ZM69.8198 157.253L66.8278 158.979C66.7023 159.053 66.6838 159.164 66.786 159.225L69.4342 160.747C69.5689 160.816 69.7222 160.816 69.857 160.747L72.8583 159.016C72.9884 158.947 73.0069 158.836 72.9001 158.776L70.2519 157.253C70.1218 157.189 69.9638 157.189 69.8337 157.253H69.8198ZM79.5531 159.928L82.5544 158.202C82.6799 158.128 82.6985 158.022 82.5962 157.961L79.948 156.439C79.8133 156.379 79.6553 156.388 79.5252 156.462L76.5239 158.188C76.3985 158.262 76.3799 158.369 76.4821 158.429L79.1303 159.956C79.2697 160.021 79.437 160.011 79.5671 159.928H79.5531ZM83.9389 157.406L86.9402 155.68C87.0703 155.606 87.0889 155.5 86.982 155.44L84.3338 153.917C84.1991 153.857 84.0458 153.866 83.9157 153.94L80.9144 155.666C80.7843 155.74 80.7657 155.847 80.8726 155.907L83.5208 157.429C83.6602 157.494 83.8228 157.485 83.9529 157.406H83.9389ZM88.3294 154.884L91.3307 153.158C91.4561 153.084 91.4747 152.973 91.3725 152.913L88.7243 151.391C88.5896 151.331 88.4316 151.34 88.3015 151.414L85.3002 153.144C85.1748 153.214 85.1562 153.325 85.2584 153.385L87.9066 154.907C88.0506 154.968 88.2132 154.954 88.3433 154.866L88.3294 154.884ZM74.2056 154.732L71.2043 156.458C71.0788 156.532 71.0603 156.638 71.1625 156.698L73.8107 158.221C73.9454 158.281 74.1034 158.271 74.2335 158.197L77.2348 156.471C77.3602 156.397 77.3788 156.291 77.2766 156.231L74.6284 154.708C74.4937 154.653 74.345 154.662 74.2195 154.732H74.2056ZM78.5961 152.21L75.6087 153.94C75.4786 154.014 75.46 154.121 75.5669 154.181L78.2151 155.703C78.3498 155.763 78.5031 155.754 78.6332 155.68L81.6345 153.954C81.7646 153.88 81.7832 153.774 81.6763 153.714L79.0281 152.187C78.8934 152.126 78.7401 152.136 78.61 152.21H78.5961ZM96.1486 142.113L93.1473 143.839C93.0172 143.913 92.9986 144.024 93.1054 144.084L95.7537 145.607C95.8884 145.667 96.0417 145.657 96.1718 145.583L99.1777 143.853C99.3032 143.783 99.3218 143.672 99.2196 143.612L96.5621 142.09C96.432 142.039 96.2833 142.044 96.1625 142.113H96.1486ZM91.7581 144.639L88.7568 146.365C88.6314 146.439 88.6128 146.546 88.715 146.606L91.3632 148.128C91.4979 148.189 91.6559 148.179 91.786 148.105L94.7873 146.379C94.9127 146.305 94.936 146.199 94.8291 146.139L92.1809 144.612C92.0462 144.556 91.8975 144.565 91.7721 144.639H91.7581ZM100.553 139.596L97.547 141.322C97.4216 141.396 97.403 141.502 97.5052 141.562L100.153 143.085C100.288 143.154 100.441 143.154 100.576 143.085L103.577 141.359C103.708 141.285 103.726 141.178 103.619 141.118L100.971 139.596C100.841 139.531 100.683 139.531 100.553 139.596ZM82.9958 149.683L79.9945 151.409C79.869 151.483 79.8505 151.594 79.9527 151.654L82.6009 153.177C82.7356 153.237 82.8936 153.228 83.0237 153.154L86.025 151.423C86.1504 151.354 86.169 151.243 86.0668 151.182L83.4186 149.66C83.2838 149.6 83.1259 149.609 82.9958 149.683ZM87.3862 147.161L84.3849 148.887C84.2549 148.961 84.2363 149.068 84.3431 149.128L86.9913 150.65C87.1261 150.71 87.2794 150.701 87.4095 150.627L90.4108 148.901C90.5409 148.827 90.5595 148.721 90.4526 148.661L87.8044 147.138C87.6697 147.078 87.5163 147.087 87.3862 147.161ZM81.6531 163.519L84.6544 161.793C84.7799 161.719 84.7984 161.612 84.6962 161.552L82.048 160.03C81.9133 159.96 81.76 159.96 81.6252 160.03L78.6239 161.756C78.4985 161.83 78.4799 161.936 78.5821 161.996L81.2303 163.523C81.3651 163.588 81.5184 163.584 81.6531 163.523V163.519ZM58.3442 162.334L55.6774 160.812C55.5473 160.747 55.3894 160.747 55.2593 160.812L52.258 162.538C52.1279 162.612 52.1093 162.723 52.2162 162.783L54.8644 164.305C54.9991 164.366 55.1524 164.356 55.2825 164.282L58.2885 162.552C58.4278 162.505 58.465 162.394 58.3442 162.334ZM64.1238 163.801L61.4756 162.279C61.3409 162.218 61.1876 162.228 61.0575 162.302L56.4115 164.958C56.286 165.032 56.2675 165.138 56.3697 165.198L59.0179 166.721C59.1526 166.781 59.3106 166.772 59.4407 166.698L64.0588 164.042C64.2121 163.968 64.2307 163.861 64.1238 163.801ZM54.4416 159.294L51.7934 157.772C51.6587 157.716 51.5007 157.725 51.3753 157.799L47.6585 159.923C47.533 159.997 47.5144 160.104 47.6167 160.164L50.2649 161.686C50.3996 161.746 50.5576 161.737 50.6876 161.663L54.4044 159.539C54.5299 159.465 54.5485 159.354 54.4416 159.294ZM57.2756 157.665C57.4104 157.725 57.5637 157.716 57.6938 157.642L60.6997 155.916C60.8252 155.842 60.8438 155.736 60.7415 155.676L58.0933 154.153C57.9586 154.093 57.8006 154.102 57.6706 154.176L54.6692 155.902C54.5392 155.976 54.5206 156.083 54.6274 156.143L57.2756 157.665ZM69.4435 165.532L66.7953 164.009C66.6605 163.949 66.5072 163.958 66.3771 164.032L60.6022 167.359C60.4721 167.433 60.4535 167.54 60.5604 167.6L63.2086 169.122C63.3433 169.183 63.4966 169.173 63.6267 169.099L69.4017 165.777C69.5317 165.698 69.5503 165.592 69.4435 165.532ZM71.5295 169.122L68.8813 167.6C68.7466 167.54 68.5933 167.549 68.4632 167.623L64.7464 169.747C64.6209 169.821 64.6024 169.932 64.7046 169.992L67.3528 171.515C67.4922 171.575 67.6455 171.566 67.7756 171.487L71.4691 169.363C71.6178 169.289 71.6364 169.183 71.5295 169.122ZM89.9044 138.906C90.0391 138.966 90.1924 138.957 90.3225 138.883L93.3285 137.153C93.4539 137.083 93.4725 136.972 93.3703 136.912L90.7221 135.39C90.5873 135.32 90.434 135.32 90.2993 135.39L87.298 137.116C87.1679 137.19 87.1493 137.301 87.2562 137.361L89.9044 138.906ZM81.1281 143.95C81.2628 144.01 81.4162 144.001 81.5462 143.927L84.5522 142.201C84.6776 142.127 84.6962 142.02 84.594 141.96L81.9412 140.438C81.8064 140.378 81.6531 140.387 81.523 140.461L78.5217 142.187C78.3916 142.261 78.373 142.367 78.4799 142.428L81.1281 143.95ZM61.6661 155.143C61.8008 155.204 61.9541 155.194 62.0842 155.12L65.0855 153.394C65.2156 153.32 65.2342 153.209 65.1273 153.154L62.4791 151.627C62.3444 151.571 62.1864 151.58 62.061 151.654L59.0597 153.38C58.9296 153.454 58.911 153.561 59.0179 153.621L61.6661 155.143ZM85.5139 141.447C85.6486 141.516 85.802 141.516 85.9367 141.447L88.938 139.721C89.0681 139.647 89.0867 139.536 88.9798 139.475L86.3316 137.953C86.1969 137.898 86.0389 137.907 85.9135 137.981L82.9075 139.707C82.7821 139.781 82.7635 139.887 82.8657 139.947L85.5139 141.447ZM76.7377 146.495C76.8724 146.555 77.0304 146.546 77.1604 146.472L80.1617 144.741C80.2872 144.672 80.3058 144.561 80.2036 144.501L77.5553 142.978C77.4206 142.918 77.2627 142.927 77.1326 143.001L74.1313 144.727C74.0058 144.801 73.9872 144.912 74.0894 144.973L76.7377 146.495ZM73.9501 169.483C73.8153 169.423 73.6574 169.432 73.5273 169.506L68.9092 172.162C68.7791 172.237 68.7605 172.343 68.8674 172.403L71.5156 173.925C71.6457 173.99 71.8036 173.99 71.9337 173.925L76.5797 171.269C76.7051 171.195 76.7237 171.089 76.6215 171.029L73.9501 169.483ZM70.4191 150.114C70.5539 150.174 70.7072 150.164 70.8373 150.09L73.8386 148.364C73.9686 148.29 73.9872 148.184 73.8804 148.124L71.2322 146.601C71.1021 146.537 70.9441 146.537 70.814 146.601L67.8127 148.327C67.6826 148.401 67.6641 148.508 67.7709 148.568L70.4191 150.114ZM66.0287 152.64C66.1634 152.709 66.3167 152.709 66.4515 152.64L69.4528 150.909C69.5782 150.84 69.5968 150.729 69.4946 150.669L66.8464 149.146C66.7116 149.086 66.5537 149.096 66.4236 149.17L63.4223 150.896C63.2968 150.97 63.2782 151.081 63.3805 151.141L66.0287 152.64ZM155.231 122.729C155.092 122.674 154.939 122.683 154.809 122.757L147.422 127.005C147.292 127.079 147.273 127.185 147.38 127.246L150.028 128.768C150.163 128.828 150.316 128.819 150.446 128.745L157.889 124.478C158.014 124.404 158.038 124.298 157.931 124.238L155.231 122.729ZM145.531 128.31C145.396 128.25 145.243 128.259 145.113 128.333L142.107 130.059C141.981 130.133 141.963 130.244 142.065 130.304L144.713 131.827C144.852 131.887 145.006 131.877 145.136 131.799L148.137 130.073C148.267 130.003 148.286 129.892 148.179 129.832L145.531 128.31ZM86.0389 160.997L89.0449 159.271C89.1703 159.197 89.1889 159.09 89.0867 159.03L86.4385 157.503C86.2991 157.443 86.1458 157.452 86.0157 157.531L83.0144 159.257C82.8843 159.331 82.8657 159.437 82.9726 159.498L85.6208 161.02C85.7555 161.08 85.9088 161.071 86.0389 160.997ZM136.796 133.34C136.662 133.27 136.508 133.27 136.373 133.34L133.372 135.066C133.247 135.14 133.228 135.246 133.33 135.306L135.979 136.829C136.113 136.889 136.271 136.88 136.401 136.805L139.403 135.08C139.528 135.005 139.547 134.899 139.444 134.839L136.796 133.34ZM159.664 120.189C159.529 120.129 159.371 120.138 159.241 120.212L156.24 121.938C156.11 122.012 156.091 122.123 156.198 122.183L158.846 123.706C158.981 123.766 159.134 123.757 159.264 123.683L162.27 121.957C162.396 121.883 162.414 121.771 162.312 121.711L159.664 120.189ZM166.716 119.189L159.901 115.27C159.766 115.21 159.613 115.219 159.483 115.293L156.481 117.024C156.351 117.093 156.333 117.204 156.439 117.265L163.25 121.179C163.385 121.239 163.543 121.23 163.673 121.156L166.675 119.43C166.786 119.356 166.805 119.236 166.716 119.189ZM120.415 142.789C120.28 142.728 120.126 142.738 119.996 142.812L116.28 144.936C116.154 145.01 116.136 145.116 116.238 145.176L118.886 146.699C119.021 146.759 119.179 146.75 119.309 146.675L123.026 144.552C123.156 144.478 123.174 144.371 123.067 144.311L120.415 142.789ZM131.5 136.412C131.365 136.352 131.212 136.361 131.082 136.435L126.464 139.091C126.334 139.165 126.315 139.272 126.422 139.332L129.07 140.854C129.205 140.915 129.358 140.905 129.488 140.831L134.111 138.175C134.236 138.101 134.255 137.995 134.148 137.935L131.5 136.412ZM110.254 148.628C110.114 148.568 109.961 148.577 109.831 148.656L85.119 162.866C84.9936 162.94 84.9703 163.047 85.0772 163.107L87.7254 164.629C87.8601 164.689 88.0135 164.68 88.1435 164.606L112.823 150.377C112.948 150.303 112.967 150.197 112.865 150.137L110.254 148.628ZM84.1526 163.639C84.0179 163.579 83.8646 163.588 83.7345 163.662L80.0177 165.786C79.8923 165.86 79.8737 165.967 79.9759 166.027L82.6241 167.554C82.7635 167.614 82.9168 167.605 83.0469 167.526L86.7637 165.402C86.8938 165.328 86.9124 165.222 86.8055 165.161L84.1526 163.639ZM115.332 145.708C115.197 145.648 115.044 145.657 114.914 145.731L111.22 147.855C111.09 147.929 111.071 148.041 111.178 148.101L113.827 149.623C113.961 149.683 114.115 149.674 114.245 149.6L117.961 147.471C118.087 147.397 118.105 147.291 117.999 147.231L115.332 145.708ZM79.0699 166.559C78.9399 166.494 78.7819 166.494 78.6518 166.559L74.9582 168.687C74.8282 168.761 74.8096 168.868 74.9164 168.928L77.5646 170.45C77.6994 170.511 77.8527 170.501 77.9828 170.427L81.6763 168.303C81.8064 168.229 81.825 168.118 81.7182 168.058L79.0699 166.559ZM125.497 139.864C125.362 139.795 125.209 139.795 125.074 139.864L121.381 141.993C121.255 142.062 121.237 142.173 121.339 142.233L123.973 143.76C124.108 143.82 124.266 143.811 124.396 143.737L128.113 141.609C128.238 141.539 128.257 141.428 128.155 141.368L125.497 139.864ZM141.163 130.804C141.029 130.748 140.871 130.758 140.745 130.832L137.744 132.558C137.614 132.627 137.595 132.738 137.702 132.798L140.35 134.321C140.485 134.381 140.638 134.372 140.769 134.298L143.77 132.572C143.9 132.498 143.919 132.386 143.812 132.326L141.163 130.804ZM150.692 123.798L153.694 122.072C153.824 121.998 153.842 121.892 153.735 121.832L151.087 120.309C150.953 120.249 150.799 120.258 150.669 120.332L147.668 122.068C147.538 122.142 147.519 122.248 147.626 122.308L150.274 123.835C150.414 123.9 150.581 123.891 150.711 123.807L150.692 123.798ZM132.661 124.589L135.663 122.859C135.793 122.789 135.811 122.678 135.704 122.618L133.056 121.096C132.926 121.031 132.768 121.031 132.638 121.096L129.637 122.822C129.507 122.896 129.488 123.007 129.595 123.067L132.243 124.589C132.378 124.664 132.541 124.668 132.68 124.599L132.661 124.589ZM121.13 140.785L129.906 135.741C130.032 135.667 130.05 135.556 129.948 135.496L127.3 133.974C127.165 133.913 127.007 133.923 126.877 133.997L118.119 139.068C117.994 139.142 117.975 139.249 118.078 139.309L120.726 140.831C120.861 140.891 121.019 140.882 121.149 140.808L121.13 140.785ZM145.884 126.334C146.019 126.394 146.176 126.385 146.307 126.311L149.308 124.585C149.433 124.511 149.452 124.4 149.35 124.34L146.701 122.817C146.567 122.748 146.413 122.748 146.279 122.817L143.277 124.548C143.152 124.617 143.133 124.728 143.236 124.788L145.884 126.334ZM142.139 123.914L145.14 122.188C145.271 122.114 145.289 122.007 145.182 121.947L142.534 120.425C142.399 120.365 142.246 120.374 142.116 120.448L139.115 122.174C138.985 122.248 138.966 122.355 139.073 122.415L141.721 123.937C141.856 124.011 142.023 124.011 142.158 123.937L142.139 123.914ZM116.74 143.311L119.745 141.581C119.871 141.511 119.89 141.4 119.783 141.34L117.134 139.818C117 139.758 116.846 139.767 116.716 139.841L113.752 141.59C113.622 141.664 113.604 141.775 113.71 141.835L116.359 143.358C116.489 143.409 116.637 143.404 116.758 143.335L116.74 143.311ZM136.183 131.91C136.318 131.97 136.476 131.961 136.606 131.887L139.607 130.161C139.733 130.087 139.751 129.98 139.649 129.92L137.001 128.398C136.866 128.328 136.713 128.328 136.578 128.398L133.577 130.124C133.451 130.198 133.433 130.304 133.535 130.364L136.183 131.91ZM94.7966 155.925L97.8025 154.199C97.928 154.125 97.9466 154.019 97.8444 153.959L95.1961 152.436C95.0614 152.376 94.9034 152.386 94.7734 152.46L91.7721 154.186C91.642 154.26 91.6234 154.366 91.7302 154.426L94.3784 155.949C94.5132 156.023 94.6804 156.023 94.8152 155.949L94.7966 155.925ZM99.187 153.404L102.188 151.678C102.318 151.604 102.337 151.497 102.23 151.437L99.5819 149.91C99.4472 149.854 99.2892 149.864 99.1638 149.938L96.1625 151.664C96.0324 151.738 96.0138 151.844 96.116 151.904L98.7689 153.427C98.9036 153.501 99.0709 153.501 99.2056 153.427L99.187 153.404ZM90.4294 158.475L93.4307 156.749C93.5608 156.675 93.5793 156.564 93.4725 156.504L90.8243 154.981C90.6895 154.921 90.5362 154.931 90.4061 155.005L87.4002 156.717C87.2747 156.791 87.2562 156.902 87.3584 156.962L90.0066 158.484C90.1413 158.549 90.2993 158.544 90.4294 158.475ZM107.982 148.388L110.983 146.662C111.113 146.588 111.132 146.481 111.025 146.421L108.377 144.899C108.242 144.838 108.089 144.848 107.959 144.922L104.957 146.648C104.827 146.722 104.809 146.828 104.916 146.888L107.564 148.411C107.698 148.471 107.852 148.462 107.982 148.388ZM103.596 150.914L106.597 149.183C106.723 149.114 106.741 149.003 106.639 148.943L103.991 147.42C103.856 147.36 103.698 147.37 103.568 147.444L100.567 149.17C100.441 149.244 100.423 149.355 100.525 149.415L103.173 150.937C103.313 150.993 103.471 150.983 103.596 150.905V150.914ZM112.358 145.856L115.36 144.13C115.485 144.056 115.504 143.95 115.402 143.89L112.753 142.363C112.614 142.303 112.461 142.312 112.331 142.391L109.329 144.117C109.204 144.191 109.185 144.297 109.287 144.357L111.936 145.88C112.07 145.94 112.228 145.93 112.358 145.856ZM136.62 110.907C136.75 110.971 136.908 110.971 137.038 110.907L140.044 109.181C140.169 109.107 140.188 108.996 140.086 108.935L139.379 108.533C139.249 108.468 139.091 108.468 138.961 108.533L135.955 110.259C135.83 110.333 135.811 110.439 135.914 110.499L136.62 110.907ZM114.728 124.631C114.863 124.691 115.016 124.682 115.146 124.608L118.147 122.882C118.277 122.808 118.296 122.702 118.189 122.641L115.541 121.119C115.406 121.059 115.253 121.068 115.123 121.142L112.117 122.868C111.991 122.942 111.973 123.049 112.075 123.109L114.728 124.631ZM123.509 119.583C123.643 119.643 123.797 119.634 123.927 119.56L126.928 117.834C127.058 117.76 127.077 117.653 126.97 117.593L124.322 116.071C124.192 116.006 124.034 116.006 123.904 116.071L120.902 117.797C120.772 117.871 120.754 117.977 120.861 118.037L123.509 119.583ZM109.371 127.713C109.506 127.773 109.664 127.764 109.794 127.69L112.795 125.964C112.921 125.89 112.939 125.783 112.837 125.723L110.189 124.196C110.049 124.136 109.896 124.145 109.766 124.224L106.783 125.95C106.658 126.024 106.639 126.13 106.741 126.191L109.371 127.713ZM119.128 122.109C119.262 122.179 119.416 122.179 119.55 122.109L122.552 120.379C122.677 120.309 122.696 120.198 122.593 120.138L119.945 118.616C119.811 118.556 119.653 118.565 119.522 118.639L116.521 120.365C116.396 120.439 116.377 120.55 116.479 120.61L119.128 122.109ZM100.604 132.752C100.739 132.812 100.892 132.803 101.022 132.729L104.028 130.998C104.154 130.929 104.172 130.818 104.07 130.758L101.422 129.235C101.287 129.175 101.129 129.184 100.999 129.258L97.9977 130.984C97.8676 131.058 97.849 131.169 97.9558 131.23L100.604 132.752ZM104.995 130.226C105.125 130.29 105.283 130.29 105.413 130.226L108.414 128.5C108.544 128.426 108.563 128.319 108.456 128.259L105.808 126.737C105.673 126.676 105.52 126.686 105.389 126.76L102.374 128.49C102.244 128.564 102.226 128.671 102.332 128.731L104.995 130.226ZM127.843 115.997C127.978 116.052 128.136 116.043 128.262 115.969L131.268 114.243C131.393 114.169 131.412 114.062 131.309 114.002L130.603 113.595C130.464 113.535 130.31 113.544 130.18 113.623L127.179 115.349C127.054 115.423 127.035 115.529 127.137 115.589L127.843 115.997ZM141.01 108.426C141.145 108.482 141.303 108.473 141.428 108.399L144.416 106.65C144.546 106.576 144.564 106.469 144.457 106.409L143.756 106.002C143.617 105.942 143.463 105.951 143.333 106.03L140.332 107.755C140.202 107.83 140.183 107.936 140.29 107.996L141.01 108.426ZM146.585 111.624C146.72 111.684 146.878 111.675 147.008 111.601L150.009 109.875C150.135 109.801 150.153 109.69 150.051 109.63L147.403 108.107C147.268 108.038 147.115 108.038 146.98 108.107L143.951 109.838C143.826 109.907 143.807 110.018 143.909 110.078L146.585 111.624ZM155.101 121.286L158.103 119.56C158.228 119.486 158.251 119.379 158.145 119.319L155.496 117.797C155.362 117.737 155.204 117.746 155.074 117.82L152.072 119.546C151.947 119.62 151.928 119.726 152.03 119.786L154.679 121.309C154.813 121.369 154.971 121.36 155.101 121.286ZM132.234 113.447C132.369 113.507 132.522 113.498 132.652 113.424L135.653 111.698C135.783 111.624 135.802 111.517 135.695 111.457L134.989 111.05C134.854 110.99 134.701 110.999 134.571 111.073L131.57 112.799C131.439 112.873 131.421 112.984 131.528 113.044L132.234 113.447ZM96.1997 135.283C96.3344 135.343 96.4924 135.334 96.6225 135.26L99.6238 133.534C99.7538 133.46 99.7724 133.354 99.6656 133.293L97.0174 131.766C96.8826 131.711 96.7247 131.72 96.5992 131.794L93.5933 133.52C93.4678 133.594 93.4492 133.701 93.5515 133.761L96.1997 135.283Z" fill="#455A64"/>
<path d="M109.641 157.855L110.254 158.207L126.608 167.609L155.687 150.886L156.291 150.544L139.324 140.79L109.641 157.855Z" fill="#263238"/>
<path d="M155.417 151.043L139.324 141.798L110.523 158.364L126.608 167.609L155.417 151.043Z" fill="#37474F"/>
<path d="M186.039 56.5269C185.923 56.2631 185.732 56.0364 185.486 55.8837L184.092 55.0878C183.493 54.7407 182.754 55.0878 182.364 55.3191L181.5 54.824C180.455 54.1947 178.996 55.5135 178.67 55.8281L178.294 55.6153C177.802 55.3191 177.133 55.5042 176.533 55.805V50.7937C176.575 50.3587 176.389 49.9284 176.041 49.6646H176.018L174.656 48.878C174.247 48.6975 173.774 48.7484 173.411 49.0075C172.361 49.6878 171.702 50.8307 171.636 52.0754V67.4102C171.567 67.3732 171.497 67.3408 171.423 67.313C170.21 66.457 168.933 65.9526 167.808 66.1516C166.86 66.3691 166.029 66.9382 165.485 67.7434C164.9 68.7752 165.866 69.4231 167.116 70.8436C168.366 72.2642 169.439 73.9532 170.577 75.0082C171.135 75.5681 171.794 76.0169 172.524 76.327V78.3352L173.894 79.1265L184.339 73.111V71.112C184.339 71.112 185.635 65.9665 186.048 63.8148C186.462 61.6631 186.838 58.1788 186.039 56.5269Z" fill="#5BB2E3"/>
<path opacity="0.8" d="M186.039 56.5269C185.923 56.2631 185.732 56.0364 185.486 55.8837L184.092 55.0878C183.493 54.7407 182.754 55.0878 182.364 55.3191L181.5 54.824C180.455 54.1947 178.996 55.5135 178.67 55.8281L178.294 55.6153C177.802 55.3191 177.133 55.5042 176.533 55.805V50.7937C176.575 50.3587 176.389 49.9284 176.041 49.6646H176.018L174.656 48.878C174.247 48.6975 173.774 48.7484 173.411 49.0075C172.361 49.6878 171.702 50.8307 171.636 52.0754V67.4102C171.567 67.3732 171.497 67.3408 171.423 67.313C170.21 66.457 168.933 65.9526 167.808 66.1516C166.86 66.3691 166.029 66.9382 165.485 67.7434C164.9 68.7752 165.866 69.4231 167.116 70.8436C168.366 72.2642 169.439 73.9532 170.577 75.0082C171.135 75.5681 171.794 76.0169 172.524 76.327V78.3352L173.894 79.1265L184.339 73.111V71.112C184.339 71.112 185.635 65.9665 186.048 63.8148C186.462 61.6631 186.838 58.1788 186.039 56.5269Z" fill="white"/>
<path opacity="0.2" d="M176.547 55.842V57.5402C176.961 57.1839 177.411 56.8739 177.89 56.6147L176.547 55.842ZM182.856 55.1016C182.694 55.1664 182.541 55.2451 182.392 55.3376L182.856 55.5967C183.145 55.7587 183.377 56.0132 183.512 56.314C183.753 56.1242 184.018 55.9669 184.301 55.8512L182.856 55.1016ZM179.604 55.1016C179.27 55.3145 178.959 55.5597 178.675 55.8327L179.576 56.3556C179.576 56.3556 179.614 56.3741 179.628 56.388C179.767 56.462 179.888 56.5638 179.981 56.6888C180.273 56.3973 180.594 56.1381 180.942 55.9114L179.604 55.1016ZM171.618 52.0522V67.4102C172.101 67.6461 172.561 67.9284 172.988 68.2523V52.8389L171.618 52.0522ZM171.938 75.8087C170.809 74.7629 169.718 73.0647 168.482 71.6441C167.311 70.3068 166.377 69.6544 166.763 68.7243L165.369 67.933C164.988 68.8585 165.913 69.5156 167.088 70.8575C168.263 72.1994 169.411 73.9624 170.545 75.022C171.102 75.5819 171.762 76.0308 172.491 76.3408V78.3537L173.885 79.1403V77.1274C173.156 76.8128 172.491 76.3593 171.938 75.7901V75.8087Z" fill="#5BB2E3"/>
<path opacity="0.1" d="M176.547 55.842V57.5402C176.961 57.1839 177.411 56.8739 177.89 56.6147L176.547 55.842ZM182.856 55.1016C182.694 55.1664 182.541 55.2451 182.392 55.3376L182.856 55.5967C183.145 55.7587 183.377 56.0132 183.512 56.314C183.753 56.1242 184.018 55.9669 184.301 55.8512L182.856 55.1016ZM179.604 55.1016C179.27 55.3145 178.959 55.5597 178.675 55.8327L179.576 56.3556C179.576 56.3556 179.614 56.3741 179.628 56.388C179.767 56.462 179.888 56.5638 179.981 56.6888C180.273 56.3973 180.594 56.1381 180.942 55.9114L179.604 55.1016ZM171.618 52.0522V67.4102C172.101 67.6461 172.561 67.9284 172.988 68.2523V52.8389L171.618 52.0522ZM171.938 75.8087C170.809 74.7629 169.718 73.0647 168.482 71.6441C167.311 70.3068 166.377 69.6544 166.763 68.7243L165.369 67.933C164.988 68.8585 165.913 69.5156 167.088 70.8575C168.263 72.1994 169.411 73.9624 170.545 75.022C171.102 75.5819 171.762 76.0308 172.491 76.3408V78.3537L173.885 79.1403V77.1274C173.156 76.8128 172.491 76.3593 171.938 75.7901V75.8087Z" fill="black"/>
<path d="M173.885 79.1219V77.1276C173.156 76.8175 172.496 76.3687 171.938 75.8042C170.809 74.7584 169.718 73.0602 168.482 71.6396C167.246 70.219 166.261 69.5712 166.851 68.5347C167.395 67.7296 168.226 67.165 169.174 66.9476C170.368 66.7347 171.725 67.3131 173.002 68.2571V52.839C173.072 51.5943 173.732 50.456 174.782 49.7758C175.762 49.2112 176.557 49.6693 176.557 50.7938V57.5264C176.557 57.5264 179.01 55.3609 179.999 56.6889C179.999 56.6889 182.406 54.1809 183.488 56.3002C183.488 56.3002 185.258 54.8796 186.053 56.5269C186.847 58.1743 186.466 61.6586 186.053 63.8103C185.639 65.9619 184.329 71.1121 184.329 71.1121V73.1203L173.885 79.1219Z" fill="#5BB2E3"/>
<path opacity="0.65" d="M173.885 79.1219V77.1276C173.156 76.8175 172.496 76.3687 171.938 75.8042C170.809 74.7584 169.718 73.0602 168.482 71.6396C167.246 70.219 166.261 69.5712 166.851 68.5347C167.395 67.7296 168.226 67.165 169.174 66.9476C170.368 66.7347 171.725 67.3131 173.002 68.2571V52.839C173.072 51.5943 173.732 50.456 174.782 49.7758C175.762 49.2112 176.557 49.6693 176.557 50.7938V57.5264C176.557 57.5264 179.01 55.3609 179.999 56.6889C179.999 56.6889 182.406 54.1809 183.488 56.3002C183.488 56.3002 185.258 54.8796 186.053 56.5269C186.847 58.1743 186.466 61.6586 186.053 63.8103C185.639 65.9619 184.329 71.1121 184.329 71.1121V73.1203L173.885 79.1219Z" fill="white"/>
<g opacity="0.1">
<path d="M176.543 60.4186C176.543 60.4186 176.766 57.3461 177.899 56.615H177.862C177.393 56.8649 176.947 57.1656 176.543 57.5127V57.4572C176.543 57.4572 176.538 57.4942 176.543 57.5127V60.4186Z" fill="black"/>
<path d="M179.985 56.689V59.4978C179.985 59.4978 180.297 56.6103 180.947 55.9116C180.599 56.1337 180.278 56.3975 179.985 56.689Z" fill="black"/>
<path d="M183.474 56.3049V59.1229C183.474 59.1229 183.651 56.2817 184.264 55.8838C183.985 55.9902 183.716 56.129 183.474 56.3049Z" fill="black"/>
</g>
<path opacity="0.15" d="M150.702 137.004C142.678 140.988 139.036 145.171 143.189 148.11C147.343 151.048 158.646 155.013 158.646 155.013L160.128 159.955L176.547 150.511V144.908C176.547 144.908 166.414 137.967 162.461 136.606C158.507 135.246 155.403 134.672 150.702 137.004Z" fill="black"/>
<path d="M173.342 162.329C173.342 162.329 170.865 168.386 170.735 170.774C170.605 173.259 170.001 174.087 170.424 176.79C170.517 177.377 170.828 178.557 170.888 179.038C170.986 179.413 170.758 179.797 170.382 179.894C170.336 179.904 170.294 179.913 170.247 179.918C169.16 180.144 167.362 178.113 166.503 175.906C165.639 173.361 164.937 170.765 164.393 168.132C164.352 167.53 164.468 166.929 164.737 166.387C164.872 166.073 165.039 165.767 165.234 165.485C165.592 164.402 165.764 162.343 166.066 160.918L173.342 162.329Z" fill="#FFA8A7"/>
<path d="M162.256 170.399C162.112 170.654 162.015 170.927 161.964 171.214C161.964 171.709 163.065 173.347 163.506 173.939C164.129 174.744 164.421 175.758 164.319 176.771C164.254 178.358 164.96 179.89 165.987 181.199C167.404 182.902 169.3 184.142 171.437 184.753C174.071 185.558 175 184.244 175 184.244C175 184.244 175.813 182.981 175.325 182.462C174.838 181.944 162.256 170.399 162.256 170.399Z" fill="#263238"/>
<path d="M165.216 165.508C165.137 165.508 164.993 165.485 164.788 165.73C164.709 165.823 164.231 167.003 163.831 167.623C163.432 168.243 162.386 169.418 162.256 170.422C162.865 172.366 164.695 173.717 164.969 175.554C165.244 177.391 165.276 179.515 168.106 181.764C170.935 184.013 173.848 184.239 174.893 183.642C175.939 183.046 175.822 181.935 174.387 179.806C172.84 177.553 171.794 172.662 171.794 172.657C171.66 171.972 171.567 171.278 171.52 170.58C171.534 169.89 171.599 169.201 171.715 168.521C171.771 168.206 171.725 167.882 171.585 167.595C171.386 167.341 171.116 167.155 170.805 167.058C170.34 166.841 169.852 166.674 169.351 166.568C168.844 166.461 168.319 166.526 167.855 166.748C167.557 166.961 167.246 167.16 166.925 167.341C166.452 167.53 165.913 167.438 165.532 167.095C165.146 166.795 164.997 166.286 165.155 165.823C165.169 165.716 165.188 165.61 165.216 165.508Z" fill="#455A64"/>
<path d="M166.452 179.941C167.297 178.502 168.881 177.65 170.554 177.729C173.56 177.729 174.601 179.265 175.056 180.158C175.604 181.227 176.171 183.161 174.93 183.717C173.588 184.314 172.036 184.128 169.597 182.911C167.158 181.694 166.452 179.941 166.452 179.941Z" fill="#FAFAFA"/>
<path d="M167 170.922C167.088 170.964 167.186 170.964 167.274 170.922C167.738 170.686 170.196 170.177 171.627 171.496C171.808 171.348 171.771 171.079 171.534 170.7C169.862 169.64 167.534 170.112 166.977 170.395C166.837 170.464 166.781 170.635 166.851 170.774C166.851 170.779 166.856 170.788 166.86 170.793C166.893 170.848 166.939 170.894 167 170.922Z" fill="#FAFAFA"/>
<path d="M171.934 173.24C172.013 172.954 171.948 172.648 171.762 172.417C170.391 171.778 168.826 171.713 167.409 172.241C167.265 172.32 167.213 172.495 167.292 172.634C167.325 172.69 167.376 172.736 167.436 172.764C167.525 172.805 167.622 172.805 167.711 172.764C168.161 172.537 170.489 172.051 171.934 173.236V173.24Z" fill="#FAFAFA"/>
<path d="M173.16 177.285C173.16 176.891 173.026 176.507 172.775 176.202C171.107 175.198 168.835 175.66 168.282 175.943C168.143 176.017 168.087 176.188 168.161 176.331C168.161 176.331 168.161 176.341 168.166 176.341C168.25 176.484 168.431 176.544 168.579 176.47C169.072 176.22 171.78 175.688 173.16 177.285Z" fill="#FAFAFA"/>
<path d="M167.869 174.619C167.957 174.661 168.054 174.661 168.143 174.619C168.607 174.383 171.009 173.888 172.45 175.151C172.505 174.832 172.412 174.508 172.199 174.268C170.828 173.629 169.262 173.564 167.845 174.092C167.701 174.17 167.65 174.346 167.729 174.485C167.762 174.541 167.808 174.587 167.869 174.615V174.619Z" fill="#FAFAFA"/>
<path d="M176.008 169.765C176.008 169.765 177.24 177.169 178.605 180.015C179.971 182.861 180.678 184.263 182.559 186.433C182.968 186.896 183.902 187.779 184.236 188.163C184.534 188.446 184.548 188.913 184.264 189.209C184.232 189.242 184.195 189.274 184.157 189.302C183.321 190.098 179.772 190.287 177.783 188.802C175.795 187.317 173.983 184.175 172.793 182.958C172.329 182.495 171.929 182.032 171.53 181.57C171.13 181.107 171.251 180.644 171.218 180.126V179.177C170.944 177.933 170.21 175.984 169.825 174.772L176.008 169.765Z" fill="#FFA8A7"/>
<path d="M170.54 184.748C170.517 185.054 170.549 185.359 170.633 185.651C170.828 186.113 172.626 187.178 173.314 187.543C174.261 188.029 174.991 188.857 175.349 189.857C176.004 191.388 177.356 192.522 178.917 193.304C181.021 194.285 183.377 194.609 185.667 194.23C188.52 193.822 188.808 192.166 188.808 192.166C188.808 192.166 189.017 190.606 188.32 190.315C187.623 190.023 170.54 184.748 170.54 184.748Z" fill="#263238"/>
<path d="M171.139 178.784C171.065 178.816 170.921 178.858 170.833 179.182C170.805 179.307 170.879 180.635 170.777 181.398C170.675 182.162 170.215 183.735 170.54 184.748C171.99 186.317 174.326 186.78 175.409 188.395C176.492 190.01 177.476 192.009 181.165 192.874C184.854 193.739 187.707 192.666 188.432 191.638C189.156 190.611 188.562 189.598 186.229 188.233C183.753 186.794 180.575 182.629 180.571 182.629C180.134 182.037 179.739 181.421 179.381 180.778C179.084 180.121 178.838 179.441 178.643 178.747C178.554 178.423 178.364 178.131 178.099 177.923C177.797 177.77 177.458 177.715 177.123 177.761C176.584 177.761 176.05 177.821 175.525 177.942C175 178.067 174.526 178.358 174.187 178.779C174.001 179.117 173.792 179.446 173.569 179.76C173.207 180.149 172.654 180.297 172.143 180.144C171.641 180.033 171.269 179.617 171.214 179.108C171.181 179.001 171.158 178.895 171.139 178.784Z" fill="#455A64"/>
<path d="M178.796 191.907C178.954 190.167 180.069 188.663 181.686 187.992C184.538 186.664 186.206 187.645 187.038 188.288C188.032 189.056 189.435 190.634 188.511 191.712C187.512 192.874 185.96 193.387 183.103 193.323C180.245 193.258 178.796 191.907 178.796 191.907Z" fill="#FAFAFA"/>
<path d="M175.265 183.129C175.367 183.129 175.46 183.087 175.525 183.009C175.855 182.578 177.95 181 179.897 181.62C180.009 181.398 179.851 181.158 179.456 180.903C177.397 180.644 175.409 182.129 175.005 182.648C174.903 182.773 174.926 182.958 175.051 183.059C175.061 183.064 175.065 183.069 175.074 183.073C175.13 183.11 175.195 183.133 175.265 183.129Z" fill="#FAFAFA"/>
<path d="M180.975 183.129C180.919 182.823 180.719 182.564 180.441 182.425C178.48 182.319 176.636 183.703 176.259 184.198C176.157 184.332 176.185 184.517 176.315 184.619C176.315 184.619 176.324 184.623 176.329 184.628C176.385 184.67 176.45 184.688 176.519 184.688C176.622 184.688 176.715 184.642 176.78 184.563C177.091 184.147 179.079 182.652 180.975 183.129Z" fill="#FAFAFA"/>
<path d="M183.948 186.41C183.772 186.035 183.474 185.734 183.098 185.558C181.072 185.35 179.13 186.798 178.731 187.312C178.629 187.446 178.657 187.631 178.787 187.733C178.787 187.733 178.796 187.738 178.801 187.742C178.856 187.779 178.921 187.802 178.991 187.802C179.093 187.802 179.186 187.756 179.251 187.677C179.604 187.224 181.918 185.493 183.948 186.41Z" fill="#FAFAFA"/>
<path d="M177.751 186.243C177.848 186.243 177.946 186.201 178.006 186.123C178.336 185.697 180.389 184.151 182.318 184.711C182.229 184.383 181.997 184.114 181.686 183.985C180.111 183.989 178.601 184.633 177.504 185.757C177.402 185.887 177.425 186.072 177.555 186.174C177.555 186.174 177.565 186.178 177.569 186.183C177.62 186.22 177.686 186.243 177.751 186.243Z" fill="#FAFAFA"/>
<path d="M159.654 127.713C162.693 129.929 173.281 136.019 177.579 139.98C178.824 141.127 179.233 142.631 178.926 145.916C178.513 150.377 174.996 165.568 174.996 165.568C174.508 166.424 173.657 164.8 173.657 164.8L156.881 143.589L159.654 127.713Z" fill="#5BB2E3"/>
<path opacity="0.3" d="M159.654 127.713C162.693 129.929 173.281 136.019 177.579 139.98C178.824 141.127 179.233 142.631 178.926 145.916C178.513 150.377 174.996 165.568 174.996 165.568C174.508 166.424 173.657 164.8 173.657 164.8L156.881 143.589L159.654 127.713Z" fill="black"/>
<path opacity="0.3" d="M174.266 160.839C170.387 157.6 157.847 137.902 157.847 137.902C159.557 136.467 160.435 131.484 160.435 131.484C161.113 133.404 160.398 136.305 159.873 137.365C160.858 138.217 166.438 142.784 170.312 145.838C171.506 146.657 172.329 147.901 172.617 149.313C173.416 153.477 174.359 159.993 174.266 160.839Z" fill="black"/>
<path d="M159.654 127.713L138.06 132.474C139.115 136.421 139.417 138.462 140.518 140.539C141.619 142.617 142.841 144.847 148.462 147.605C153.87 150.257 160.472 152.987 161.796 153.621C162.791 154.083 163.264 156.078 163.715 158.651C164.18 161.344 164.231 163.458 166.912 169.117C169.532 174.67 170.071 175.855 170.071 175.855C170.071 175.855 174.127 176.276 176.821 173.916C176.821 173.916 173.146 154.912 172.361 151.492C171.925 149.581 171.897 148.577 169.532 146.476C167.492 144.676 158.381 137.8 158.381 137.8C158.381 137.8 161.991 132.946 159.654 127.713Z" fill="#5BB2E3"/>
<path opacity="0.3" d="M159.654 127.713L138.06 132.474C139.115 136.421 139.417 138.462 140.518 140.539C141.619 142.617 142.841 144.847 148.462 147.605C153.87 150.257 160.472 152.987 161.796 153.621C162.791 154.083 163.264 156.078 163.715 158.651C164.18 161.344 164.231 163.458 166.912 169.117C169.532 174.67 170.071 175.855 170.071 175.855C170.071 175.855 174.127 176.276 176.821 173.916C176.821 173.916 173.146 154.912 172.361 151.492C171.925 149.581 171.897 148.577 169.532 146.476C167.492 144.676 158.381 137.8 158.381 137.8C158.381 137.8 161.991 132.946 159.654 127.713Z" fill="black"/>
<path d="M184.478 91.9809C184.106 91.9577 183.739 92.0318 183.405 92.1983C183.019 92.4019 182.652 92.6379 182.313 92.9063C181.774 93.3043 181.226 93.6744 180.659 94.0307C180.171 94.3917 179.618 94.6508 179.033 94.7989C178.833 94.8313 178.406 94.8359 178.624 94.5351C178.931 94.1557 179.205 93.7531 179.437 93.3274C179.669 92.9017 179.716 92.3973 179.558 91.9392C179.511 91.8004 179.414 91.6847 179.284 91.6107C179.093 91.5228 178.996 91.6107 178.889 91.7495C178.768 91.8744 178.643 91.9947 178.508 92.1058C178.238 92.3418 177.969 92.5685 177.704 92.8184C176.148 94.2066 174.257 95.4421 173.592 97.4734C173.211 98.7274 173.026 100.028 173.044 101.337C173.044 103.568 172.896 111.327 172.896 111.327C172.896 111.327 166.707 106.14 164.026 103.924C162.73 102.846 160.923 101.536 158.916 101.346C157.522 101.217 156.681 101.222 156.681 101.222L160.904 111.402C160.904 111.402 168.881 117.315 172.71 119.351C176.162 121.202 177.843 119.865 178.262 118.888C178.954 117.287 179.655 116.538 178.689 107.616C178.619 106.927 178.531 104.951 178.452 104.262C178.355 102.823 178.517 101.36 179.079 101.046C180.12 100.49 181.1 99.8287 182.006 99.0698C182.596 98.5608 183.117 97.9778 183.553 97.3346C183.8 97.0431 183.981 96.7053 184.083 96.3398C184.046 96.002 184.046 95.6549 184.083 95.3171C184.153 95.095 184.306 94.9099 184.362 94.6693C184.478 94.1742 184.436 93.6097 184.747 93.184C184.924 92.9526 185.212 92.7212 185.17 92.4528C185.105 92.2261 184.91 92.0549 184.673 92.0225C184.608 92.004 184.543 91.9901 184.478 91.9809Z" fill="#FFA8A7"/>
<path d="M178.164 95.854C177.941 97.0525 177.384 98.1676 176.552 99.0653C177.123 98.7275 177.593 98.2509 177.922 97.6771C178.368 96.761 178.331 96.2936 178.164 95.854Z" fill="#F28F8F"/>
<path d="M156.268 100.986C158.423 101.078 160.1 101.124 161.94 102.184C163.78 103.244 171.976 110.078 171.976 110.078C171.976 110.078 172.059 106.594 172.268 104.761C172.412 103.489 172.626 103.091 173.026 103.151C173.026 103.151 173.736 104.239 175.748 104.391C177.76 104.544 178.443 103.706 178.443 103.706C178.443 103.706 179.033 103.568 179.242 104.391C179.451 105.215 179.832 114.109 179.465 116.667C179.098 119.226 177.946 120.42 176.399 120.781C174.851 121.142 171.288 118.981 166.972 116.103C162.656 113.225 158 110.55 158 110.55L156.268 100.986Z" fill="#5BB2E3"/>
<path opacity="0.7" d="M156.268 100.986C158.423 101.078 160.1 101.124 161.94 102.184C163.78 103.244 171.976 110.078 171.976 110.078C171.976 110.078 172.059 106.594 172.268 104.761C172.412 103.489 172.626 103.091 173.026 103.151C173.026 103.151 173.736 104.239 175.748 104.391C177.76 104.544 178.443 103.706 178.443 103.706C178.443 103.706 179.033 103.568 179.242 104.391C179.451 105.215 179.832 114.109 179.465 116.667C179.098 119.226 177.946 120.42 176.399 120.781C174.851 121.142 171.288 118.981 166.972 116.103C162.656 113.225 158 110.55 158 110.55L156.268 100.986Z" fill="white"/>
<path opacity="0.1" d="M171.976 110.078C171.785 111.739 171.85 113.424 172.157 115.066C172.157 115.066 170.582 112.04 171.065 109.268L171.976 110.078Z" fill="black"/>
<path d="M138.562 102.864C138.204 104.715 134.631 122.553 138.696 135.838C146.023 136.699 158.883 133.349 160.811 128.522C160.811 128.522 159.515 123.941 158.953 121.697C159.074 118.023 158.953 111.008 158.879 108.838C158.73 104.539 158.056 101.212 155.914 100.898C155.914 100.898 151.612 100.731 149.011 100.838C146.762 100.925 145.071 100.953 145.071 100.953L138.562 102.864Z" fill="#FAFAFA"/>
<path d="M149.317 131.178C148.853 130.133 140.151 124.788 140.151 124.788C140.151 124.788 140.285 122.313 140.801 117.755C141.317 113.197 141.475 107.737 139.825 104.993L138.162 105.057C137.233 110.587 135.31 124.774 138.696 135.838C142.604 136.301 148.081 135.556 152.634 134.038C151.798 133.474 149.693 132.011 149.317 131.178Z" fill="#F0F0F0"/>
<path d="M144.313 96.77C144.313 95.8446 142.553 93.096 141.749 90.9165C140.406 87.2749 140.29 84.0034 143.607 82.5875C143.607 82.5875 145.679 79.0291 150.906 78.8486C156.133 78.6682 160.142 83.0641 158.409 88.9361L144.313 96.77Z" fill="#455A64"/>
<path d="M145.605 91.1433C144.922 91.1433 144.676 90.1669 144.211 89.644C143.407 88.8713 142.13 88.8944 141.354 89.6949C141.252 89.7967 141.163 89.9124 141.089 90.0327C140.123 91.4209 141.061 93.4292 142.116 94.1973C143.44 95.1783 144.355 94.2343 144.355 94.2343L144.234 101.587C144.234 101.587 144.471 103.216 147.487 104.164C150.971 105.256 153.805 103.429 151.728 101.143L151.807 99.204C152.913 99.4539 154.051 99.5186 155.176 99.3891C156.337 99.2132 157.266 98.3433 157.861 96.5572C159.027 93.0775 158.707 88.4317 157.503 84.1931C156.351 85.1186 151.036 86.7983 146.246 85.1186C146.409 88.0476 146.274 91.1433 145.605 91.1433Z" fill="#FFA8A7"/>
<path d="M143.709 93.4152C143.709 93.6512 143.514 93.8455 143.277 93.8455C143.04 93.8455 142.845 93.6512 142.845 93.4152C142.845 93.1792 143.04 92.9849 143.277 92.9849C143.514 92.9849 143.709 93.1792 143.709 93.4152Z" fill="#263238"/>
<path d="M151.803 99.2087C151.803 99.2087 148.894 98.3619 147.751 97.5614C146.999 97.0432 146.386 96.3491 145.967 95.5393C146.223 96.4231 146.636 97.2514 147.194 97.9871C148.588 99.5558 151.766 100.301 151.766 100.301L151.803 99.2087Z" fill="#F28F8F"/>
<path d="M151.57 91.1063C151.561 91.5043 151.227 91.8189 150.827 91.8097C150.428 91.8004 150.112 91.4673 150.121 91.0693C150.13 90.6853 150.446 90.3752 150.832 90.366C151.241 90.366 151.57 90.6945 151.57 91.1017C151.57 91.1017 151.57 91.1017 151.57 91.1063Z" fill="#263238"/>
<path d="M150.776 88.6446L149.215 89.4683C148.992 89.0241 149.164 88.4873 149.601 88.2467C150.023 88.0292 150.539 88.1912 150.757 88.6122C150.762 88.6215 150.767 88.6354 150.776 88.6446Z" fill="#263238"/>
<path d="M151.343 94.8914L153.828 95.6826C153.578 96.3628 152.843 96.7376 152.142 96.5433C151.473 96.3258 151.106 95.6132 151.324 94.9469C151.329 94.9284 151.338 94.9099 151.343 94.8914Z" fill="#F28F8F"/>
<path d="M157.471 88.6169L155.757 88.1541C155.859 87.696 156.319 87.4045 156.779 87.5109C156.793 87.5109 156.806 87.5156 156.82 87.5202C157.294 87.6544 157.582 88.1356 157.471 88.6169Z" fill="#263238"/>
<path d="M157.029 90.5465C157.02 90.9445 156.686 91.2591 156.286 91.2499C155.887 91.2406 155.571 90.9074 155.58 90.5095C155.589 90.1254 155.905 89.8154 156.291 89.8062C156.7 89.8062 157.029 90.1347 157.029 90.5419C157.029 90.5419 157.029 90.5419 157.029 90.5465Z" fill="#263238"/>
<path d="M157.829 84.1978C159.436 83.0595 160.328 81.5325 159.901 79.4363C159.274 80.061 157.517 80.1767 155.984 79.4363C153.559 78.1731 150.771 77.7705 148.086 78.298C145.247 78.8487 143.584 80.9957 143.584 82.5782C144.142 83.7073 144.903 84.3088 146.223 85.1094C148.207 86.5346 150.627 87.2286 153.071 87.0713C154.539 87.0343 155.952 86.5253 157.104 85.6184C157.104 85.6184 155.622 85.7479 154.925 85.2898C155.956 85.1279 156.946 84.7531 157.829 84.1978Z" fill="#37474F"/>
<path d="M153.917 93.9752L156.133 92.9665L153.303 89.075L153.917 93.9752Z" fill="#F28F8F"/>
<path opacity="0.15" d="M178.252 140.766C178.062 140.479 177.834 140.216 177.583 139.98C175 137.601 170.15 134.455 166.029 131.84L147.278 142.622C147.194 142.668 147.166 142.775 147.217 142.858C147.231 142.886 147.254 142.904 147.278 142.918L160.895 150.752L178.252 140.766Z" fill="black"/>
<path d="M183.939 135.288V135.588C183.939 136.033 183.702 136.44 183.316 136.662L161.518 149.197C161.327 149.308 161.113 149.364 160.895 149.364C160.677 149.364 160.458 149.308 160.268 149.197L148.388 142.372C148.002 142.15 147.765 141.743 147.765 141.298V140.877C147.765 140.933 147.793 140.988 147.844 141.016L160.89 148.522L183.939 135.288Z" fill="#37474F"/>
<path d="M160.895 148.535V149.364C161.113 149.364 161.327 149.308 161.518 149.197L183.316 136.662C183.702 136.44 183.939 136.033 183.939 135.588V135.283L160.895 148.535Z" fill="#263238"/>
<path d="M183.939 135.283L171.014 127.852C170.782 127.722 170.503 127.722 170.271 127.852L147.849 140.748C147.77 140.794 147.742 140.896 147.789 140.975C147.803 140.998 147.821 141.021 147.849 141.035L160.895 148.535L183.939 135.283Z" fill="#455A64"/>
<path d="M160.774 147.443L153.805 143.441L174.192 131.72L181.198 135.699L160.774 147.443Z" fill="#37474F"/>
<path d="M181.198 135.699L180.933 135.852L174.187 132.021L154.07 143.594L153.805 143.441L174.187 131.715L181.198 135.699Z" fill="#263238"/>
<path d="M157.35 136.305L157.48 136.379L160.895 138.341L166.972 134.848L167.097 134.774L163.552 132.738L157.35 136.305Z" fill="#263238"/>
<path d="M157.48 136.38L160.895 138.342L166.972 134.848L163.552 132.886L157.48 136.38Z" fill="#37474F"/>
<path d="M163.961 138.735C162.986 137.772 161.569 136.421 160.375 136.037C160.1 135.935 159.822 135.847 159.538 135.778C159.952 135.727 160.361 135.644 160.76 135.537C161.164 135.412 161.527 135.176 161.796 134.852C161.898 134.718 161.973 134.505 161.843 134.39C161.796 134.353 161.736 134.33 161.675 134.33C160.779 134.302 160.077 134.163 159.264 134.107C158.902 134.047 158.535 134.047 158.172 134.107C157.838 134.195 157.508 134.293 157.183 134.408C155.701 134.917 154.349 135.375 152.253 134.871L148.481 132.867C148.481 132.867 147.672 132.664 146.483 134.667C145.294 136.671 145.991 137.772 145.991 137.772L150.228 139.23L150.288 139.253C150.934 139.595 151.603 139.892 152.291 140.132C153.61 140.535 155.301 140.058 156.449 139.998C157.596 139.938 159.543 140.461 160.63 140.896C161.717 141.331 162.953 139.693 163.506 139.887C164.059 140.081 164.942 139.702 163.961 138.735Z" fill="#FFA8A7"/>
<path d="M159.041 135.149C158.488 135.13 157.935 135.227 157.424 135.431C158.145 135.468 158.855 135.588 159.543 135.797C159.956 135.746 160.365 135.662 160.765 135.556C161.118 135.44 161.434 135.246 161.694 134.982C161.058 135.399 159.817 135.227 159.041 135.149Z" fill="#F28F8F"/>
<path d="M138.562 102.864C139.635 103.285 141.033 107.746 140.169 112.036L138.171 125.455C138.171 125.455 140.62 126.898 144.058 129.018C146.437 130.489 148.476 131.836 148.481 132.923C146.92 133.478 145.517 136.338 145.991 137.828C144.927 139.087 135.096 133.663 131.658 131.317C130.064 130.23 129.26 129.804 129.874 124.904C130.552 119.481 131.017 113.456 132.081 109.435C133.186 105.229 134.417 103.6 138.562 102.864Z" fill="#5BB2E3"/>
<path opacity="0.7" d="M138.562 102.864C139.635 103.285 141.033 107.746 140.169 112.036L138.171 125.455C138.171 125.455 140.62 126.898 144.058 129.018C146.437 130.489 148.476 131.836 148.481 132.923C146.92 133.478 145.517 136.338 145.991 137.828C144.927 139.087 135.096 133.663 131.658 131.317C130.064 130.23 129.26 129.804 129.874 124.904C130.552 119.481 131.017 113.456 132.081 109.435C133.186 105.229 134.417 103.6 138.562 102.864Z" fill="white"/>
<path d="M161.248 148.72C161.662 148.882 162.131 148.845 162.516 148.623L184.222 136.13C184.603 135.912 184.864 135.533 184.938 135.102L187.317 120.989C187.321 120.911 187.321 120.827 187.317 120.749C187.317 120.355 187.159 119.981 186.88 119.703L164.328 132.659C164.045 132.821 163.85 133.099 163.794 133.418L161.248 148.72Z" fill="#37474F"/>
<path d="M160.895 148.535L161.044 148.623C161.109 148.66 161.178 148.693 161.248 148.72L163.813 133.45C163.868 133.131 164.064 132.854 164.347 132.692L186.899 119.735C186.81 119.647 186.708 119.569 186.597 119.504L163.998 132.502C163.715 132.664 163.52 132.941 163.469 133.261L160.895 148.535Z" fill="#455A64"/>
<path d="M164.026 132.974L163.673 132.775C163.571 132.909 163.497 133.071 163.469 133.238L160.895 148.531L161.044 148.619C161.109 148.656 161.178 148.688 161.248 148.716L163.813 133.446C163.845 133.275 163.919 133.113 164.026 132.974Z" fill="#263238"/>
<path d="M173.472 135.69C173.63 134.765 174.61 133.492 175.66 132.891C176.71 132.289 177.43 132.562 177.267 133.506C177.105 134.45 176.129 135.709 175.084 136.31C174.038 136.912 173.309 136.639 173.472 135.69Z" fill="#5BB2E3"/>
</g>
<defs>
<clipPath id="clip0_46_62">
<rect width="221" height="218" fill="white"/>
</clipPath>
</defs>
</svg>
